/* XPM */
static char *xpm_[] = {
/* columns rows colors chars-per-pixel */
"64 64 160 2 ",
"   c #141213",
".  c #15161B",
"X  c #18171B",
"o  c #17181D",
"O  c #191A1E",
"+  c #1E201E",
"@  c #20211F",
"#  c #171A20",
"$  c #1C1C22",
"%  c #201F24",
"&  c #1E2224",
"*  c #1E2228",
"=  c #212225",
"-  c #202324",
";  c #222225",
":  c #232225",
">  c #232325",
",  c #222126",
"<  c #232126",
"1  c #232226",
"2  c #232326",
"3  c #232227",
"4  c #232327",
"5  c #212025",
"6  c #242326",
"7  c #242227",
"8  c #242327",
"9  c #212424",
"0  c #212524",
"q  c #212525",
"w  c #222524",
"e  c #222525",
"r  c #222526",
"t  c #232526",
"y  c #212626",
"u  c #222626",
"i  c #232726",
"p  c #222727",
"a  c #232727",
"s  c #242426",
"d  c #242427",
"f  c #252527",
"g  c #242627",
"h  c #242727",
"j  c #252727",
"k  c #232225",
"l  c #292425",
"z  c #222827",
"x  c #292924",
"c  c #2E2B24",
"v  c #2D2C25",
"b  c #2E2D25",
"n  c #2E2C26",
"m  c #2D2925",
"M  c #232228",
"N  c #242328",
"B  c #252328",
"V  c #222628",
"C  c #232728",
"Z  c #252428",
"A  c #252528",
"S  c #252429",
"D  c #262528",
"F  c #262529",
"G  c #262628",
"H  c #262629",
"J  c #272629",
"K  c #272729",
"L  c #26252A",
"P  c #27252A",
"I  c #27262A",
"U  c #27272A",
"Y  c #27262B",
"T  c #27272B",
"R  c #262529",
"E  c #28272A",
"W  c #28272B",
"Q  c #28272C",
"!  c #28262A",
"~  c #222828",
"^  c #232828",
"/  c #232829",
"(  c #242828",
")  c #242929",
"_  c #252A29",
"`  c #272B29",
"'  c #24292A",
"]  c #25292A",
"[  c #262A2A",
"{  c #262C2B",
"}  c #272C2B",
"|  c #262A29",
" . c #282B29",
".. c #28282A",
"X. c #28282B",
"o. c #29282B",
"O. c #29292B",
"+. c #2A292B",
"@. c #282C2A",
"#. c #282D2B",
"$. c #29282C",
"%. c #29292C",
"&. c #2A292C",
"*. c #2A282D",
"=. c #2A292D",
"-. c #2A2A2C",
";. c #2A2A2D",
":. c #2B2A2D",
">. c #2B2B2D",
",. c #2B2B2E",
"<. c #2B2A2E",
"1. c #2C2B2D",
"2. c #2C2B2E",
"3. c #2C2A2E",
"4. c #282D2C",
"5. c #2A2E2D",
"6. c #2B2F2C",
"7. c #2C2F2D",
"8. c #2C2C2E",
"9. c #2D2D2F",
"0. c #2B2B2D",
"q. c #312E27",
"w. c #322E27",
"e. c #322E28",
"r. c #2E312A",
"t. c #2C302D",
"y. c #2D302D",
"u. c #2C302E",
"i. c #2D302E",
"p. c #2F332F",
"a. c #3A3227",
"s. c #323229",
"d. c #363228",
"f. c #32312B",
"g. c #38342B",
"h. c #3A342A",
"j. c #3B372A",
"k. c #2E2E30",
"l. c #2E2D30",
"z. c #312F32",
"x. c #303032",
"c. c #333234",
"v. c #3A3934",
"b. c #373638",
"n. c #393739",
"m. c #3C3A3B",
"M. c #423A2B",
"N. c #403E3F",
"B. c #46412F",
"V. c #454436",
"C. c #4F4F3C",
"Z. c #595337",
"A. c #403E40",
"S. c #464544",
"D. c #494746",
"F. c #494846",
"G. c #696544",
"H. c #747149",
"J. c None",
"K. c black",
/* pixels */
"J.J.J.J.J.J.J.J.J.J.J.J.J.J.J.J.J.J.J.J.J.J.J.J.J.J.J.J.J.J.J.J.J.J.J.J.J.J.J.J.J.J.J.J.J.J.J.J.J.J.J.J.J.J.J.J.J.J.J.J.J.J.J.J.",
"J.J.J.J.J.J.J.J.J.J.J.J.J.J.J.J.J.J.J.J.J.J.J.J.J.J.J.J.J.J.J.J.J.J.J.J.J.J.J.J.J.J.J.J.J.J.J.J.J.J.J.J.J.J.J.J.J.J.J.J.J.J.J.J.",
"J.J.J.J.J.J.J.J.J.J.J.J.J.J.J.J.J.J.J.J.J.J.J.J.J.J.J.J.J.J.J.J.J.J.J.J.J.J.J.J.J.J.J.J.J.J.J.J.J.J.J.J.J.J.J.J.J.J.J.J.J.J.J.J.",
"J.J.J.J.J.J.J.J.J.J.J.J.J.J.J.J.J.J.J.J.J.J.J.J.J.J.J.J.J.J.J.J.J.J.J.J.J.J.J.J.J.J.J.J.J.J.J.J.J.J.J.J.J.J.J.J.J.J.J.J.J.J.J.J.",
"J.J.J.J.J.J.J.J.J.J.J.J.J.J.J.J.J.J.J.J.J.J.J.J.J.. . . . O . . O $ O . . o . J.J.J.J.J.J.J.J.J.J.J.J.J.J.J.J.J.J.J.J.J.J.J.J.J.",
"J.J.J.J.J.J.J.J.J.J.J.J.J.J.J.J.J.J.J.J.J.J.O X O 5 M . . o . . o o . . $ $ o . o J.J.J.J.J.J.J.J.J.J.J.J.J.J.J.J.J.J.J.J.J.J.J.",
"J.J.J.J.J.J.J.J.J.J.J.J.J.J.J.J.J.J.J.J.J.. % # X B # O $ 5 [ f S t $ O o o . o % O J.J.J.J.J.J.J.J.J.J.J.J.J.J.J.J.J.J.J.J.J.J.",
"J.J.J.J.J.J.J.J.J.J.J.J.J.J.J.J.J.J.. . . . # # # $ ! 3.O.<.<.S O.8.<.O.<.5 O o # . . . . J.J.J.J.J.J.J.J.J.J.J.J.J.J.J.J.J.J.J.",
"J.J.J.J.J.J.J.J.J.J.J.J.J.J.J.J..   # $ $ . . B 3.w J :.<.<.O.[ O.! <.<.O.f 8.S O   # $ #   . J.J.J.J.J.J.J.J.J.J.J.J.J.J.J.J.J.",
"J.J.J.J.J.J.J.J.J.J.J.J.J.J.J.$ O . . $ $ # B <.O.J O.! 7 O.O.f <.[ f S O.S O.O.! $ O 5 # . # # . J.J.J.J.J.J.J.J.J.J.J.J.J.J.J.",
"J.J.J.J.J.J.J.J.J.J.J.J.J.J.. B S # . . % B M Y S 8.8.! 5 5 & $ - 5 5 S 8.c.[ ! B 5 % . . . $ $ o J.J.J.J.J.J.J.J.J.J.J.J.J.J.J.",
"J.J.J.J.J.J.J.J.J.J.J.J.J.O . o # .   $ 5 5 B % O.! $ $ - % & O $ $ % - O f <.5 M B M 5 . . . # . o . J.J.J.J.J.J.J.J.J.J.J.J.J.",
"J.J.J.J.J.J.J.J.J.J.J.J.. $ $ o . . t O.7 5 B 5 % 5 $ O O O O & O O O O O * * - B 5 S f O.. . . # $ . . J.J.J.J.J.J.J.J.J.J.J.J.",
"J.J.J.J.J.J.J.J.J.J.O o . . o . . $ S O.S 5 % - % O O $ & & & & t 5 & & + O $ * $ M 5 3.O.5   . . O . O X J.J.J.J.J.J.J.J.J.J.J.",
"J.J.J.J.J.J.J.J.J.J.# 5 $ # $ o O B 7 S 3.5 - O o + & O + + } p.t.& O + + & o O 5 $ <.S t 7 $ . % # # 5 $ J.J.J.J.J.J.J.J.J.J.J.",
"J.J.J.J.J.J.J.J.J.J.. o . . o . 5 5 S S f 5 O @ O z & + O & } r.} t O + o * + + O 5 5 <.5 7 B X . . o . . J.J.J.J.J.J.J.J.J.J.J.",
"J.J.J.J.J.J.J.J.J.J.O $ $ $ . $ B B % B % $ O h.- z & b c 5 } g.O.t - q.& z + d.@ O % 7 7 7 7 - . $ # $ o J.J.J.J.J.J.J.J.J.J.J.",
"J.J.J.J.J.J.J.J.J.J.. $ $ o . B 5 5 7 5 % O - S 0 ~ 0 f t z _ t z ` 0 z 0 [ & z 7 O $ % 7 5 7 S . O $ $ . J.J.J.J.J.J.J.J.J.J.J.",
"J.J.J.J.J.J.J.J.J.J.$ 5 $ * O f S 5 t % O O >.r.r.[ @.r.r.} z & z } r.t.@.[ t.t.8.f O % 7 - S J 5 $ $ % % J.J.J.J.J.J.J.J.J.J.J.",
"J.J.J.J.J.J.J.J.J.J.5 <.5 # 7 O.x.<.5 $ o + O o O * + O o & z & z & o o O - O o o & O O % :.S <.3.$ $ Q B J.J.J.J.J.J.J.J.J.J.J.",
"J.J.J.J.J.J.J.J.J.J.o $ O . 7 S B Q % $ o & + b O ` & @ i - [ s.} z + x O [ + v @ w + O % ! 7 S S O . % O . J.J.J.J.J.J.J.J.J.J.",
"J.J.J.J.J.J.J.J.J.. O . . . 7 7 7 7 % $ o & + s.@ z & x c & [ s.[ t @ b + z + q.@ w & O % 7 % 7 B O . X # . J.J.J.J.J.J.J.J.J.J.",
"J.J.J.J.J.J.J.J.J.X S $ . O B B % % - X o t ` @.` [ [ @.x [ z + t [ O.@.O.[ ` @.` } & . % % 7 B 5 $ . # Q $ J.J.J.J.J.J.J.J.J.J.",
"J.J.J.J.J.J.J.J.J.. O . . O % 5 O $ O o o t @.@.O.[ [ @.>.} & + & [ @.@.@.z @.@.@.z O . O $ % % $ $ . . # X J.J.J.J.J.J.J.J.J.J.",
"J.J.J.J.K.K.K.K.K.X # $ 5 >.8.3.3.3.3.3.7 $ - w l l w w @ w @ i t l w w w x w w 5 - 5 :.:.:.3.3.8.3.<.$ $ . J.J.J.J.J.J.J.J.J.J.",
"J.J.J.J.K.K.K.K.K.O $ 7 c.n.m.m.N.m.m.n.Q .                                         t b.m.m.m.m.m.n.c.S $ . J.J.J.J.J.J.J.J.J.J.",
"J.J.J.J.K.K.K.K.J.. X O S l.z.c.z.c.z.3.$ #                                       O O ! c.z.c.c.c.z.O.O . . J.J.J.J.J.J.J.J.J.J.",
"J.J.J.J.K.K.K.K.J.. X X % O.O.8.f 7 7 - # $ X                                   O # # % 7 f 3.! l.B $ . . . J.J.J.J.J.J.J.J.J.J.",
"J.J.J.J.J.J.K.K.. # # . % l.<.l.7 7 % $ X $ # .                                 . # # O 5 S c.! b.% $ . $ 5 . J.J.J.J.J.J.J.J.J.",
"J.J.J.J.J.J.K.O $ $ $ . 7 l.<.<.B ! % $ # $ X X                             . O O # $ # 5 f c.! c.% $ . $ % 5 $ J.J.J.J.J.J.J.J.",
"J.J.J.J.J.J.J.O % X . . 5 l.3.3.B P 5 $ # $ l % o                           O O m $ # O 5 ! c.O.c.5 $ . X X B % J.J.J.J.J.J.J.J.",
"J.J.J.J.J.J.J.# $ X % # 5 3.! 3.% % % $ # $ # # & X                         & O # $ $ O % 5 l.S z.% O X % # . # J.J.J.J.J.J.J.J.",
"J.J.J.J.J.J.O 3.<.# 5 $ 5 l.Q l.% L % $ # * M $ $ .                         & # * V # O 5 ! z.! c.7 $ O $ # $ M O J.J.J.J.J.J.J.",
"J.J.J.J.J.J.. $ $ # . . 5 l.<.<.% L B $ # $ $ % %                           V V M $ # # 5 ! c.! c.5 $   . . $ $ o J.J.J.J.J.J.J.",
"J.J.J.J.J.J.J.O # # .   7 l.<.<.P P % $ $ # # # % #                       . $ $ . # # O 7 ! z.O.c.5 $ .   . X $ $ O J.J.J.J.J.J.",
"J.J.J.J.J.J.J.5 5 O . . % 3.<.l.% % % # # $ l $ # #                       . # # J # $ O $ 7 8.! c.$ O . o . $ z.! 5 $ J.J.J.J.J.",
"J.J.J.J.J.J.J.# O . . . 5 l.3.l.P P % % # $ % % % #                       . % $ 5 $ $ o 5 S z.O.c.5 $ . . . . $ $ # J.J.J.J.J.J.",
"J.J.J.J.J.J.J.J.. $ O . M l.% c.n.P % $ # $ $ # $ #                       . $ X $ $ $ # % % c.n.z.$ $ . O $ . . J.J.J.J.J.J.J.J.",
"J.J.J.J.J.J.J.J.J.B 5 . 7 e.O O.*.% $ $ # $ e.C.% #                       . M V.v.5 $ O % $ l 7.7 % $ X o # J.J.J.J.J.J.J.J.J.J.",
"J.J.J.J.J.J.J.J.J.o # . - 8.$ X + X % O $ % M.H.z.#                       . M G.Z.$ O O O % X + O $ O . o . J.J.J.J.J.J.J.J.J.J.",
"J.J.J.J.J.J.J.J.J.. . . M l.O ! z.% O % X $ g.M.% X                       . $ h.M.% X # - % 7 c.% $ $ . . . J.J.J.J.J.J.J.J.J.J.",
"J.J.J.J.J.J.J.J.. . .   5 l.O c.N.% % % X $ l h.# #                       . . m q.# # X w 7 3.N.f $ $ .   . . J.J.J.J.J.J.J.J.J.",
"J.J.J.J.J.J.# % # # #   5 8.$ l.m.J 7 O X # r.m # #                       X % % h.# $ # 7 7 J m.5 % $ . # # o $ O J.J.J.J.J.J.J.",
"J.J.J.J.J.J.$ % . * # . 5 l.5 8.*.% % O # # c J % X                       X % P e.# $ O O % % 8.S $ # . # $ O $ % J.J.J.J.J.J.J.",
"J.J.J.J.J.J.. . . # O . 5 3.5 O.z.M % $ $ $ % P $ $                       . $ % l # $ # % % % v.7 % $ . . O . . . J.J.J.J.J.J.J.",
"J.J.J.J.J.J.J.X $ O X O f O.:.7 O 5 B $ X $ $ % % #   .                   . $ B $ $ $ X B P - O 7 5 $ . # . $ # # $ J.J.J.J.J.J.",
"J.J.J.J.J.J.J.. $ O . . - ! O.7 X 7 M $ # $ B M X X X                     . . $ L * $ # % Y S X O.% $ . . O $ . O $ J.J.J.J.J.J.",
"J.J.J.J.J.J.J.O X . . . $ B f ! 7 7 % $ $ $ # . X $ X   X   X X     . . X X # . # $ # $ % B S 7 Q % $ . . . O O . J.J.J.J.J.J.J.",
"J.J.J.J.J.J.J.5 $ o % % z.m.<.c.m.e.Q n.B # . X $ # $ O O X X O   . X X X X $ $ . o %.n.n.J c.m.e.c.n.5 B # $ % X J.J.J.J.J.J.J.",
"J.J.J.J.J.J.J.. . . O $ % l.7 ! v.w B 3.$ $ 7 $ $ $ + % + % %   X % % % % $ $ O 7 # & Y e.+ J v.% S S $ $ . . . . J.J.J.J.J.J.J.",
"J.J.J.J.J.J.J.. . . o $ - 8.O.X X X 3.Q # $ % V P Q P P *.*.l % % P l P P % f B - # $ <.z.S X . O 8.f $ # . . . . J.J.J.J.J.J.J.",
"J.J.J.J.J.J.J.. # . . O O b.3.! Q ! 3.c.# $ $ M P l P ! l % % % P l % % + + J - $ $ # l.c.Y Q ! 3.n.- X . . . # . J.J.J.J.J.J.J.",
"J.J.J.J.J.J.. . . . B % c.S.S.S.S.S.S.S.8.* f c.c.c.g.e.*.c.c.c.c.e.X           V M S S.S.S.S.S.S.F.n.5 B # . . . J.J.J.J.J.J.J.",
"J.J.J.J.J.O O # . X % % n.N.N.N.N.A.N.A.n.$ O n.N.N.N.N.c.c.v.@ X               . # c.N.A.A.A.A.N.N.N.Q % $ . X O . J.J.J.J.J.J.",
"J.J.J.J.J.. o . # X X % P P ! ! Q Q ! ! ! O X X X X X X X   X           .       . X 7 S Q L ! S ! ! B B X X . X o . J.J.J.J.J.J.",
"J.J.J.J.J.J.. . . X X X X O O X X X X X O X J.J.K.K.K.K.K.K.K.K.J.J.J.J.J.J.J.J.J.J.X O X O X O X O X X X . . . . . J.J.J.J.J.J.",
"J.J.J.J.J.J.J.J.J.J.J.J.J.J.J.J.J.J.J.J.J.J.J.J.J.J.J.J.J.J.J.J.J.J.J.J.J.J.J.J.J.J.J.J.J.J.J.J.J.J.J.J.J.J.J.J.J.J.J.J.J.J.J.J.",
"J.J.J.J.J.J.J.J.J.J.J.J.J.J.J.J.J.J.J.J.J.J.J.J.J.J.J.J.J.J.J.J.J.J.J.J.J.J.J.J.J.J.J.J.J.J.J.J.J.J.J.J.J.J.J.J.J.J.J.J.J.J.J.J.",
"J.J.J.J.J.J.J.J.J.J.J.J.J.J.J.J.J.J.J.J.J.J.J.J.J.J.J.J.J.J.J.J.J.J.J.J.J.J.J.J.J.J.J.J.J.J.J.J.J.J.J.J.J.J.J.J.J.J.J.J.J.J.J.J.",
"J.J.J.J.J.J.J.J.J.J.J.J.J.J.J.J.J.J.J.J.J.J.J.J.J.J.J.J.J.J.J.J.J.J.J.J.J.J.J.J.J.J.J.J.J.J.J.J.J.J.J.J.J.J.J.J.J.J.J.J.J.J.J.J.",
"J.J.J.J.J.J.J.J.J.J.J.J.J.J.J.J.J.J.J.J.J.J.J.J.J.J.J.J.J.J.J.J.J.J.J.J.J.J.J.J.J.J.J.J.J.J.J.J.J.J.J.J.J.J.J.J.J.J.J.J.J.J.J.J.",
"J.J.J.J.J.J.J.J.J.J.J.J.J.J.J.J.J.J.J.J.J.J.J.J.J.J.J.J.J.J.J.J.J.J.J.J.J.J.J.J.J.J.J.J.J.J.J.J.J.J.J.J.J.J.J.J.J.J.J.J.J.J.J.J.",
"J.J.J.J.J.J.J.J.J.J.J.J.J.J.J.J.J.J.J.J.J.J.J.J.J.J.J.J.J.J.J.J.J.J.J.J.J.J.J.J.J.J.J.J.J.J.J.J.J.J.J.J.J.J.J.J.J.J.J.J.J.J.J.J.",
"J.J.J.J.J.J.J.J.J.J.J.J.J.J.J.J.J.J.J.J.J.J.J.J.J.J.J.J.J.J.J.J.J.J.J.J.J.J.J.J.J.J.J.J.J.J.J.J.J.J.J.J.J.J.J.J.J.J.J.J.J.J.J.J."
};
