/* XPM */
static char *xpm_[] = {
/* columns rows colors chars-per-pixel */
"64 64 157 2 ",
"   c #141213",
".  c #181617",
"X  c #15161B",
"o  c #18171B",
"O  c #17181D",
"+  c #1A1A1E",
"@  c #1E201E",
"#  c #20211F",
"$  c #161721",
"%  c #161821",
"&  c #1C1C22",
"*  c #201F24",
"=  c #1E2223",
"-  c #212225",
";  c #202324",
":  c #222225",
">  c #232225",
",  c #232325",
"<  c #222126",
"1  c #232126",
"2  c #232226",
"3  c #232326",
"4  c #232227",
"5  c #232327",
"6  c #212025",
"7  c #242326",
"8  c #242227",
"9  c #242327",
"0  c #212424",
"q  c #212524",
"w  c #212525",
"e  c #222524",
"r  c #222525",
"t  c #222526",
"y  c #232526",
"u  c #212626",
"i  c #222626",
"p  c #232726",
"a  c #222727",
"s  c #232727",
"d  c #242426",
"f  c #242427",
"g  c #252527",
"h  c #242627",
"j  c #242727",
"k  c #252727",
"l  c #232225",
"z  c #2A2424",
"x  c #222827",
"c  c #292924",
"v  c #2E2B24",
"b  c #2D2C25",
"n  c #2E2D25",
"m  c #2E2C26",
"M  c #2D2A25",
"N  c #232228",
"B  c #242328",
"V  c #252328",
"C  c #222628",
"Z  c #232728",
"A  c #252428",
"S  c #252528",
"D  c #252429",
"F  c #262528",
"G  c #262529",
"H  c #262628",
"J  c #262629",
"K  c #272629",
"L  c #272729",
"P  c #26252A",
"I  c #27252A",
"U  c #27262A",
"Y  c #27272A",
"T  c #27262B",
"R  c #27272B",
"E  c #262529",
"W  c #28272A",
"Q  c #28272B",
"!  c #28272C",
"~  c #28272A",
"^  c #222828",
"/  c #232828",
"(  c #232829",
")  c #242828",
"_  c #242929",
"`  c #252A29",
"'  c #272B29",
"]  c #24292A",
"[  c #25292A",
"{  c #262A2A",
"}  c #262C2B",
"|  c #272C2B",
" . c #262A29",
".. c #282B29",
"X. c #28282A",
"o. c #28282B",
"O. c #29282B",
"+. c #29292B",
"@. c #2A292B",
"#. c #282C2A",
"$. c #282D2B",
"%. c #29282C",
"&. c #29292C",
"*. c #2A292C",
"=. c #2A282D",
"-. c #2A292D",
";. c #2A2A2C",
":. c #2A2A2D",
">. c #2B2A2D",
",. c #2B2B2D",
"<. c #2B2A2E",
"1. c #2B2B2E",
"2. c #2C2B2D",
"3. c #2C2A2E",
"4. c #2C2B2E",
"5. c #282D2C",
"6. c #2B2F2C",
"7. c #2A2E2D",
"8. c #2C2F2D",
"9. c #2C2C2E",
"0. c #2D2D2F",
"q. c #2B2B2D",
"w. c #312E27",
"e. c #322E27",
"r. c #332F28",
"t. c #2E312A",
"y. c #2C302D",
"u. c #2D302D",
"i. c #2C302E",
"p. c #2D302E",
"a. c #2F332F",
"s. c #323229",
"d. c #363228",
"f. c #35332C",
"g. c #38342B",
"h. c #3A342A",
"j. c #3B382D",
"k. c #2E2E30",
"l. c #2E2D30",
"z. c #312F32",
"x. c #303032",
"c. c #333233",
"v. c #393737",
"b. c #393837",
"n. c #373638",
"m. c #383739",
"M. c #3C3B3B",
"N. c #403E3F",
"B. c #464233",
"V. c #4F4C36",
"C. c #524F3A",
"Z. c #403E40",
"A. c #464544",
"S. c #494746",
"D. c #494846",
"F. c None",
"G. c black",
/* pixels */
"F.F.F.F.F.F.F.F.F.F.F.F.F.F.F.F.F.F.F.F.F.F.F.F.F.F.F.F.F.F.F.F.F.F.F.F.F.F.F.F.F.F.F.F.F.F.F.F.F.F.F.F.F.F.F.F.F.F.F.F.F.F.F.F.",
"F.F.F.F.F.F.F.F.F.F.F.F.F.F.F.F.F.F.F.F.F.F.F.F.F.F.F.F.F.F.F.F.F.F.F.F.F.F.F.F.F.F.F.F.F.F.F.F.F.F.F.F.F.F.F.F.F.F.F.F.F.F.F.F.",
"F.F.F.F.F.F.F.F.F.F.F.F.F.F.F.F.F.F.F.F.F.F.F.F.F.F.F.F.F.F.F.F.F.F.F.F.F.F.F.F.F.F.F.F.F.F.F.F.F.F.F.F.F.F.F.F.F.F.F.F.F.F.F.F.",
"F.F.F.F.F.F.F.F.F.F.F.F.F.F.F.F.F.F.F.F.F.F.F.F.F.F.F.F.F.F.F.F.F.F.F.F.F.F.F.F.F.F.F.F.F.F.F.F.F.F.F.F.F.F.F.F.F.F.F.F.F.F.F.F.",
"F.F.F.F.F.F.F.F.F.F.F.F.F.F.F.F.F.F.F.F.F.F.F.F.F.X X X X O O X O & & X X O X F.F.F.F.F.F.F.F.F.F.F.F.F.F.F.F.F.F.F.F.F.F.F.F.F.",
"F.F.F.F.F.F.F.F.F.F.F.F.F.F.F.F.F.F.F.F.F.F.O o O < 8 O X O X X O O X X & & O X O F.F.F.F.F.F.F.F.F.F.F.F.F.F.F.F.F.F.F.F.F.F.F.",
"F.F.F.F.F.F.F.F.F.F.F.F.F.F.F.F.F.F.F.F.F.o & % O 8 % O & < ' A ' < & O O O X O < O F.F.F.F.F.F.F.F.F.F.F.F.F.F.F.F.F.F.F.F.F.F.",
"F.F.F.F.F.F.F.F.F.F.F.F.F.F.F.F.F.F.X X X X & % O * @.*.*.0.~ A @.4.1.*.*.< O O % X X X X F.F.F.F.F.F.F.F.F.F.F.F.F.F.F.F.F.F.F.",
"F.F.F.F.F.F.F.F.F.F.F.F.F.F.F.F.X X X & & X X A 0.8 ' *.*.*.@.@.@.@.*.1.*.y 0.A % X + & X X   F.F.F.F.F.F.F.F.F.F.F.F.F.F.F.F.F.",
"F.F.F.F.F.F.F.F.F.F.F.F.F.F.F.& O X O & & O A *.@.A @.~ V ' @.A @.o.Z A *.A ' ~ ~ & O * % X $ O X F.F.F.F.F.F.F.F.F.F.F.F.F.F.F.",
"F.F.F.F.F.F.F.F.F.F.F.F.F.F.X V A % X X * V < A y 4.l.~ < < = & < < < A 0.x.' A V < < X X $ & = O F.F.F.F.F.F.F.F.F.F.F.F.F.F.F.",
"F.F.F.F.F.F.F.F.F.F.F.F.F.O X O % X   & < < V < *.A & & < & = + & & < & & A *.< < V 8 * X X X X X O X F.F.F.F.F.F.F.F.F.F.F.F.F.",
"F.F.F.F.F.F.F.F.F.F.F.F.X & & O X X y @.< < V < < < & + O O & = + O O O & = < < V < < y *.X   X % & o X F.F.F.F.F.F.F.F.F.F.F.F.",
"F.F.F.F.F.F.F.F.F.F.O % O X O X X & A *.y < * < & + & = = = = = = y = = = O & < & N N 1.~ y X X O O X O o F.F.F.F.F.F.F.F.F.F.F.",
"F.F.F.F.F.F.F.F.F.F.O = & % & O O V y A 4.< ; + O = + @ @ @ | a.y.= O @ + = O O < * @.~ 8 < & X * O % < & F.F.F.F.F.F.F.F.F.F.F.",
"F.F.F.F.F.F.F.F.F.F.X X O X O X < < V A 8 < + @ + = = @ + = | t.y.y + @ @ = = @ O < < A < 8 A O X O X O X F.F.F.F.F.F.F.F.F.F.F.",
"F.F.F.F.F.F.F.F.F.F.O & & & X & A V < 8 * & O h.; x = n v < | h.' y # s.+ x @ d.; + * < V V 8 < X & % = O F.F.F.F.F.F.F.F.F.F.F.",
"F.F.F.F.F.F.F.F.F.F.X & & O X A < < 8 < * O ; k q _ y y y x | = x ' x x x ' q e , + & * < * V A X o & & X F.F.F.F.F.F.F.F.F.F.F.",
"F.F.F.F.F.F.F.F.F.F.& < & = + A A < y * + @ 1.t.y.| | t.y.| _ = _ | t.y.1.` y.y.0.e + 8 < < T A < & & & * F.F.F.F.F.F.F.F.F.F.F.",
"F.F.F.F.F.F.F.F.F.F.< *.< % 8 @.l.*.< & O + + O + = + O O @ x = _ = O O + = + O o = O + * *.A *.4.% * ! V F.F.F.F.F.F.F.F.F.F.F.",
"F.F.F.F.F.F.F.F.F.F.X * O X 8 A V *.* & O = @ n + k = c e = ' s.' y @ c + ' + v # x + + * ! V V ~ O X & % o F.F.F.F.F.F.F.F.F.F.",
"F.F.F.F.F.F.F.F.F.X % O X X 8 8 8 8 * + O = @ s.; Z @ c v = ' s.' = ; n @ x = s.# x ; o * * * V ~ O X o & O F.F.F.F.F.F.F.F.F.F.",
"F.F.F.F.F.F.F.F.F.o ~ & o O V V * * ; o O x ' #.' ' ' #.@.' k @ Z ' ' #.| | ..#.` ` = O & * V N < * X + ~ & F.F.F.F.F.F.F.F.F.F.",
"F.F.F.F.F.F.F.F.F.X O O X O * * & & & o O < #.#.#.Z ' 1.#.| ; + & ' #.#.#.k #.#.#.k + X & & * * + + X X O X F.F.F.F.F.F.F.F.F.F.",
"F.F.F.F.F.F.F.F.F.o % & A 1.0.4.4.4.4.4.< & ; e e c e e # # e c y y q e p p p e < ; < q.4.q.4.r.l.*.*.& + X F.F.F.F.F.F.F.F.F.F.",
"F.F.F.F.F.F.F.F.F.o & 8 l.m.M.M.M.M.M.n.~ X                       .                 < n.M.M.M.M.M.M.c.A & O F.F.F.F.F.F.F.F.F.F.",
"F.F.F.F.F.F.F.F.F.X o & A l.z.z.z.c.z.4.& X                                         O ~ z.c.c.z.z.z.@.O o X F.F.F.F.F.F.F.F.F.F.",
"F.F.F.F.F.F.F.F.F.X X X < *.*.4.A 8 8 * $ X                                       X o * 8 A 4.~ l.A & X X X F.F.F.F.F.F.F.F.F.F.",
"F.F.F.F.F.F.F.F.X O % X < l.4.l.8 V * & o $                                       X $ + < A c.~ n.< & X & & X F.F.F.F.F.F.F.F.F.",
"F.F.F.F.F.F.F.+ & & & X < 0.*.4.V A * & $ $                                       X % % < A x.~ c.* & X * = * & F.F.F.F.F.F.F.F.",
"F.F.F.F.F.F.F.& * o $ X < 0.*.4.V ~ * & % * o                                   . < & O < ~ c.@.c.< &   o o V * F.F.F.F.F.F.F.F.",
"F.F.F.F.F.F.F.+ & o * o < 0.~ 4.< * * & & & o                                   X * % o * < l.A z.< % O < % X % F.F.F.F.F.F.F.F.",
"F.F.F.F.F.F.O 4.*.% N & < l.! l.V V * & & & o                                   X & & % < ~ c.~ c.< & o & % & < O F.F.F.F.F.F.F.",
"F.F.F.F.F.F.o & & O X   < l.*.l.V A < & $ & %                                   X & % % * ~ z.@.c.< &   X X & = O F.F.F.F.F.F.F.",
"F.F.F.F.F.F.F.O & % X X < l.*.*.V V V & $ $ o                                   o $ $ + < ~ z.~ z.; & X X X % & + + F.F.F.F.F.F.",
"F.F.F.F.F.F.F.= < O X X * 4.*.l.V * & % & & $                                   X 8 & O * < 0.~ c.< % X O X & l.@.< & F.F.F.F.F.",
"F.F.F.F.F.F.F.& O X O X < z.*.l.* V * * $ * $                                   o & & O < A z.@.c.< &   X X X & & O F.F.F.F.F.F.",
"F.F.F.F.F.F.F.F.X & O X N 4.< c.v.! & & $ & o                                   X % & % < & c.M.r.& & X % & X   F.F.F.F.F.F.F.F.",
"F.F.F.F.F.F.F.F.F.< < O < l.+ @.q.* * & X =.e.                                  q.g.& O * & y w.N & & X O & F.F.F.F.F.F.F.F.F.F.",
"F.F.F.F.F.F.F.F.F.O O X N r.+ + @ + & + X h.V.                                  B.V.& O & & + + % * & X O X F.F.F.F.F.F.F.F.F.F.",
"F.F.F.F.F.F.F.F.F.X X X N l.+ ~ z.@ + * X e.M o                                 z d.* o < * 8 c.= & & X X X F.F.F.F.F.F.F.F.F.F.",
"F.F.F.F.F.F.F.F.X X X   < l.O c.N.8 * * X * *                                   * z X o < < 0.N.y & & X X X X F.F.F.F.F.F.F.F.F.",
"F.F.F.F.F.F.% * O O O X < l.& l.M.I * & o * *                                   o 4.$ & 8 V A M.< * & X X % O * & F.F.F.F.F.F.F.",
"F.F.F.F.F.F.& * O < % X = l.& 0.@.* * + & z o                                   X r.& o & * * r.A & O X O < O & & F.F.F.F.F.F.F.",
"F.F.F.F.F.F.X X o O O X 8 4.; q.z.* * & $ * X                                   X * & o * * @ c.* * & X O O X X o F.F.F.F.F.F.F.",
"F.F.F.F.F.F.F.o * O O O 8 ~ @.8 + 8 V & $ & $                                   o $ $ & * ! , + 8 8 & X O O & O % & F.F.F.F.F.F.",
"F.F.F.F.F.F.F.X & O X X ; ~ 4.8 o 8 * & & & $ o o o .                     X     X & & $ * ! I o ~ < & X o % & o O & F.F.F.F.F.F.",
"F.F.F.F.F.F.F.O o X X X & V 8 ~ 8 y * & $ $ & + o o o X   o o o         o X o   X $ $ & * I I 8 @.* & X X X O O X F.F.F.F.F.F.F.",
"F.F.F.F.F.F.F.< & O * * r.M.l.c.N.r.! v.< $ & N < & + + . + + . . . o o + . + o X O A M.n.L c.M.0.c.n.; 8 O & < o F.F.F.F.F.F.F.",
"F.F.F.F.F.F.F.X X X + * & l.< ~ n.* 8 4.% * N ! < & * ; * * * . o & & * * & . + + y & *.r.; @.n.* L 8 * & X X X X F.F.F.F.F.F.F.",
"F.F.F.F.F.F.F.X X X O & & l.@.o X + r.! % & * * * z ~ A @.~ z # * ~ L I I * ; I V % % @.l.A o   + z., + % X X X X F.F.F.F.F.F.F.",
"F.F.F.F.F.F.F.o % X X O + M.*.~ ! N l.c.& & l.o z @.~ ~ z * * * z z * z + & ~ 8 8 % % l.c.! ~ ~ q.n.* o X X O % X F.F.F.F.F.F.F.",
"F.F.F.F.F.F.X X X o N * c.D.A.A.A.A.A.A.l.* A r.c.c.f.r.@.c.c.v.c.=..       .   . o A A.S.A.A.A.A.D.v.8 8 % X X X F.F.F.F.F.F.F.",
"F.F.F.F.F.O O % X $ * * M.M.Z.Z.Z.Z.N.Z.v.+ o v.v.N.N.N.c.c.c.* . .               . c.M.N.Z.N.N.N.N.N.=.* + X O O X F.F.F.F.F.F.",
"F.F.F.F.F.X O O O o o * I ~ A ~ ! I I ~ ~ O   o . + . + . . .         .     .     o 8 ~ ~ I A ~ ~ ~ ~ * o o o o O X F.F.F.F.F.F.",
"F.F.F.F.F.F.X X X X o o o + O O o + o + O o F.F.G.G.G.G.G.G.G.G.F.F.F.F.F.F.F.F.F.F.O o + O O O O O o o o o X X X X F.F.F.F.F.F.",
"F.F.F.F.F.F.F.F.F.F.F.F.F.F.F.F.F.F.F.F.F.F.F.F.F.F.F.F.F.F.F.F.F.F.F.F.F.F.F.F.F.F.F.F.F.F.F.F.F.F.F.F.F.F.F.F.F.F.F.F.F.F.F.F.",
"F.F.F.F.F.F.F.F.F.F.F.F.F.F.F.F.F.F.F.F.F.F.F.F.F.F.F.F.F.F.F.F.F.F.F.F.F.F.F.F.F.F.F.F.F.F.F.F.F.F.F.F.F.F.F.F.F.F.F.F.F.F.F.F.",
"F.F.F.F.F.F.F.F.F.F.F.F.F.F.F.F.F.F.F.F.F.F.F.F.F.F.F.F.F.F.F.F.F.F.F.F.F.F.F.F.F.F.F.F.F.F.F.F.F.F.F.F.F.F.F.F.F.F.F.F.F.F.F.F.",
"F.F.F.F.F.F.F.F.F.F.F.F.F.F.F.F.F.F.F.F.F.F.F.F.F.F.F.F.F.F.F.F.F.F.F.F.F.F.F.F.F.F.F.F.F.F.F.F.F.F.F.F.F.F.F.F.F.F.F.F.F.F.F.F.",
"F.F.F.F.F.F.F.F.F.F.F.F.F.F.F.F.F.F.F.F.F.F.F.F.F.F.F.F.F.F.F.F.F.F.F.F.F.F.F.F.F.F.F.F.F.F.F.F.F.F.F.F.F.F.F.F.F.F.F.F.F.F.F.F.",
"F.F.F.F.F.F.F.F.F.F.F.F.F.F.F.F.F.F.F.F.F.F.F.F.F.F.F.F.F.F.F.F.F.F.F.F.F.F.F.F.F.F.F.F.F.F.F.F.F.F.F.F.F.F.F.F.F.F.F.F.F.F.F.F.",
"F.F.F.F.F.F.F.F.F.F.F.F.F.F.F.F.F.F.F.F.F.F.F.F.F.F.F.F.F.F.F.F.F.F.F.F.F.F.F.F.F.F.F.F.F.F.F.F.F.F.F.F.F.F.F.F.F.F.F.F.F.F.F.F.",
"F.F.F.F.F.F.F.F.F.F.F.F.F.F.F.F.F.F.F.F.F.F.F.F.F.F.F.F.F.F.F.F.F.F.F.F.F.F.F.F.F.F.F.F.F.F.F.F.F.F.F.F.F.F.F.F.F.F.F.F.F.F.F.F."
};
