/* XPM */
static char *xpm_[] = {
/* columns rows colors chars-per-pixel */
"64 64 160 2 ",
"   c #141213",
".  c #181617",
"X  c #15161B",
"o  c #18171B",
"O  c #17181D",
"+  c #1A1A1E",
"@  c #201C1E",
"#  c #1E201E",
"$  c #20211F",
"%  c #161721",
"&  c #171921",
"*  c #1C1C22",
"=  c #1E1F28",
"-  c #201F24",
";  c #1E2223",
":  c #1F2128",
">  c #212225",
",  c #202324",
"<  c #222225",
"1  c #232225",
"2  c #232325",
"3  c #222126",
"4  c #232126",
"5  c #232226",
"6  c #232326",
"7  c #232227",
"8  c #232327",
"9  c #212025",
"0  c #242326",
"q  c #242227",
"w  c #242327",
"e  c #212424",
"r  c #212524",
"t  c #212525",
"y  c #222524",
"u  c #222525",
"i  c #222526",
"p  c #232526",
"a  c #212626",
"s  c #222626",
"d  c #232726",
"f  c #222727",
"g  c #232727",
"h  c #242426",
"j  c #242427",
"k  c #252527",
"l  c #242627",
"z  c #242727",
"x  c #252727",
"c  c #232225",
"v  c #282427",
"b  c #222827",
"n  c #292924",
"m  c #2E2B24",
"M  c #2D2C25",
"N  c #2E2D25",
"B  c #2E2C26",
"V  c #2B2926",
"C  c #232228",
"Z  c #242328",
"A  c #252328",
"S  c #222628",
"D  c #232728",
"F  c #252428",
"G  c #252528",
"H  c #252429",
"J  c #262528",
"K  c #262529",
"L  c #262628",
"P  c #262629",
"I  c #272629",
"U  c #272729",
"Y  c #26252A",
"T  c #27252A",
"R  c #27262A",
"E  c #27272A",
"W  c #27262B",
"Q  c #27272B",
"!  c #262529",
"~  c #28272A",
"^  c #28272B",
"/  c #28272C",
"(  c #28272A",
")  c #222828",
"_  c #232828",
"`  c #232829",
"'  c #242828",
"]  c #242929",
"[  c #252A29",
"{  c #272B29",
"}  c #24292A",
"|  c #25292A",
" . c #262A2A",
".. c #262C2B",
"X. c #272C2B",
"o. c #262A29",
"O. c #282B29",
"+. c #28282A",
"@. c #28282B",
"#. c #29282B",
"$. c #29292B",
"%. c #2A292B",
"&. c #282C2A",
"*. c #282D2B",
"=. c #29282C",
"-. c #29292C",
";. c #2A292C",
":. c #2A282D",
">. c #2A292D",
",. c #2A2A2C",
"<. c #2A2A2D",
"1. c #2B2A2D",
"2. c #2B2B2D",
"3. c #2B2B2E",
"4. c #2B2A2E",
"5. c #2C2B2D",
"6. c #2C2B2E",
"7. c #2C2A2E",
"8. c #282D2C",
"9. c #2A2E2D",
"0. c #2B2F2C",
"q. c #2C2F2D",
"w. c #2C2C2E",
"e. c #2D2D2F",
"r. c #2B2B2D",
"t. c #312E27",
"y. c #322D27",
"u. c #332F28",
"i. c #2E312A",
"p. c #2C302D",
"a. c #2D302D",
"s. c #2C302E",
"d. c #2D302E",
"f. c #2F332F",
"g. c #323229",
"h. c #363228",
"j. c #363129",
"k. c #38342B",
"l. c #3A342A",
"z. c #3D392C",
"x. c #2E2E30",
"c. c #2E2D30",
"v. c #312F32",
"b. c #303032",
"n. c #333234",
"m. c #393737",
"M. c #3C3C37",
"N. c #373638",
"B. c #393739",
"V. c #3C3B3B",
"C. c #403E3F",
"Z. c #414137",
"A. c #5D5B3F",
"S. c #635F3F",
"D. c #403E40",
"F. c #464544",
"G. c #494746",
"H. c #494846",
"J. c None",
"K. c black",
/* pixels */
"J.J.J.J.J.J.J.J.J.J.J.J.J.J.J.J.J.J.J.J.J.J.J.J.J.J.J.J.J.J.J.J.J.J.J.J.J.J.J.J.J.J.J.J.J.J.J.J.J.J.J.J.J.J.J.J.J.J.J.J.J.J.J.J.",
"J.J.J.J.J.J.J.J.J.J.J.J.J.J.J.J.J.J.J.J.J.J.J.J.J.J.J.J.J.J.J.J.J.J.J.J.J.J.J.J.J.J.J.J.J.J.J.J.J.J.J.J.J.J.J.J.J.J.J.J.J.J.J.J.",
"J.J.J.J.J.J.J.J.J.J.J.J.J.J.J.J.J.J.J.J.J.J.J.J.J.J.J.J.J.J.J.J.J.J.J.J.J.J.J.J.J.J.J.J.J.J.J.J.J.J.J.J.J.J.J.J.J.J.J.J.J.J.J.J.",
"J.J.J.J.J.J.J.J.J.J.J.J.J.J.J.J.J.J.J.J.J.J.J.J.J.J.J.J.J.J.J.J.J.J.J.J.J.J.J.J.J.J.J.J.J.J.J.J.J.J.J.J.J.J.J.J.J.J.J.J.J.J.J.J.",
"J.J.J.J.J.J.J.J.J.J.J.J.J.J.J.J.J.J.J.J.J.J.J.J.J.X O X X + X X + - & X X X X J.J.J.J.J.J.J.J.J.J.J.J.J.J.J.J.J.J.J.J.J.J.J.J.J.",
"J.J.J.J.J.J.J.J.J.J.J.J.J.J.J.J.J.J.J.J.J.J.O X O 4 4 O X O X X X O X X * ; O X O J.J.J.J.J.J.J.J.J.J.J.J.J.J.J.J.J.J.J.J.J.J.J.",
"J.J.J.J.J.J.J.J.J.J.J.J.J.J.J.J.J.J.J.J.J.X 4 + + C & O & 4  .j T 4 * O O + X O * + J.J.J.J.J.J.J.J.J.J.J.J.J.J.J.J.J.J.J.J.J.J.",
"J.J.J.J.J.J.J.J.J.J.J.J.J.J.J.J.J.J.X X X X & + + * ( 2.+.e.( ( T e.X.2.2.- + O + O X X X J.J.J.J.J.J.J.J.J.J.J.J.J.J.J.J.J.J.J.",
"J.J.J.J.J.J.J.J.J.J.J.J.J.J.J.J.X X X * * X O C e.2 U e.e.2.+. .+.+.e.2.T t e./ + X + * O X X J.J.J.J.J.J.J.J.J.J.J.J.J.J.J.J.J.",
"J.J.J.J.J.J.J.J.J.J.J.J.J.J.J.* O X X * & + 4 2.+.( +.j q +.+.T 2.+.t T 2.T +.+.T * + * % X X X X J.J.J.J.J.J.J.J.J.J.J.J.J.J.J.",
"J.J.J.J.J.J.J.J.J.J.J.J.J.J.O q T + X X - j 4 T j e.e.( 4 4 ; * ; 4 4 T 0.v. .T C 4 4 O X X * * + J.J.J.J.J.J.J.J.J.J.J.J.J.J.J.",
"J.J.J.J.J.J.J.J.J.J.J.J.J.O O O O X X * 4 4 S 4 +.( * * 4 * ; + * * 4 * + T 2.4 4 C 4 - X X O O O O X J.J.J.J.J.J.J.J.J.J.J.J.J.",
"J.J.J.J.J.J.J.J.J.J.J.J.X * & O X X t T 4 4 q 4 - q * + + + + ; + + + O * ; 4 4 T 4 C j +.O X X O * O X J.J.J.J.J.J.J.J.J.J.J.J.",
"J.J.J.J.J.J.J.J.J.J.+ O O O O X X * T 2.j 4 - , * + + ; ; ; ; ; t ; ; ; ; O * t * 4 4 2. .4   X O O X O + J.J.J.J.J.J.J.J.J.J.J.",
"J.J.J.J.J.J.J.J.J.J.+ ; * + * O O 4 4 T 2.4 , + X ; ; + + ; O.f.a.; ; + + ; O + ; * 2.T q 4 * X - & & - & J.J.J.J.J.J.J.J.J.J.J.",
"J.J.J.J.J.J.J.J.J.J.X X O X O X 4 4 S T T * + $ + t ; # # ; 8.i.O.t + # + _ + # & 4 4 ( 4 4 T O X O X O O J.J.J.J.J.J.J.J.J.J.J.",
"J.J.J.J.J.J.J.J.J.J.+ * * * X * T 4 - q - * + k., b ; N m t ..k.+.t $ g.# b + h.2 + * 4 C A 4 - X * & * O J.J.J.J.J.J.J.J.J.J.J.",
"J.J.J.J.J.J.J.J.J.J.O + * O X A 4 4 q ; - + , j r _ r j j t ..; b  .t b t { y b r + * - 4 - A T X o * * O J.J.J.J.J.J.J.J.J.J.J.",
"J.J.J.J.J.J.J.J.J.J.* 4 * ; * j T 4 4 4 + + 0.a.p. .O.p.a.{ _ ; _ O.p.p.0._ p.p.q.j + 4 4 4 A T 4 * * , - J.J.J.J.J.J.J.J.J.J.J.",
"J.J.J.J.J.J.J.J.J.J.4 / 4 & 4 +.c.X.4 * + + + O + r + O + # _ ; _ ; O O + t + O + # + * * 2.A c.2.* * ( A J.J.J.J.J.J.J.J.J.J.J.",
"J.J.J.J.J.J.J.J.J.J.O * + X q A A e.- - O ; # N # t ; n n 4  .g.{ t # n +  .+ N # b + + - T A A T O O * + X J.J.J.J.J.J.J.J.J.J.",
"J.J.J.J.J.J.J.J.J.X + O X X q q - - - + + ; # g.$ _ ; n n ;  .g.{ _ , N ; _ # g.$ b ; + - - - A q + X X + O J.J.J.J.J.J.J.J.J.J.",
"J.J.J.J.J.J.J.J.J.O T * X + q A - - , O + b { O. . . . . . .b # t  .+.O.{ { { O.{ { ; X - - - A 4 * X * / * J.J.J.J.J.J.J.J.J.J.",
"J.J.J.J.J.J.J.J.J.X O O X O - - * * * X O t O.O.O. .+.0.O.{ ; # ;  .0.O... .O.O.O.x + X * - - - * + X X + O J.J.J.J.J.J.J.J.J.J.",
"J.J.J.J.K.K.K.K.K.o & * j 2.e.e.e.:.y.c.- - , 2 n n , n + $ $ $ j j y y n y y y q , , e.r.e.v.:.e.e. .* + X J.J.J.J.J.J.J.J.J.J.",
"J.J.J.J.K.K.K.K.K.+ * q v.B.V.V.V.V.V.N.T X                 . .   .         . .     q n.m.C.V.V.V.B.n.T * O J.J.J.J.J.J.J.J.J.J.",
"J.J.J.J.K.K.K.K.J.X o + A c.v.v.n.v.v.:.* X                                         O T v.n.v.v.v.v.( + O X J.J.J.J.J.J.J.J.J.J.",
"J.J.J.J.K.K.K.K.J.X X + - r.( e.A A A - & %                                       X & - - T y./ c.A * X X X J.J.J.J.J.J.J.J.J.J.",
"J.J.J.J.J.J.K.K.X + & X 4 e.:.v.A A - * & &                                       X & + , T n.( N.- * X * * O J.J.J.J.J.J.J.J.J.",
"J.J.J.J.J.J.K.+ * * * X q e.:.e.A Y - * & & o                                   o O & + - j n.+.v.4 * X 4 * 4 * J.J.J.J.J.J.J.J.",
"J.J.J.J.J.J.J.+ - O O X q e.( :.A Y - * & * -                                   2 + & + 4 ( n.( n.4 * X + X T * J.J.J.J.J.J.J.J.",
"J.J.J.J.J.J.J.& * O * O 4 e.( e.- - - * * & * *                                 & & & + * 4 e.T v.- + o * + O + J.J.J.J.J.J.J.J.",
"J.J.J.J.J.J.+ e./ & = * - c.e.c.q A - * & = C &                                 = : & + 4 T n.T n.4 * O * % * 4 + J.J.J.J.J.J.J.",
"J.J.J.J.J.J.O * * O X X A y./ / A T q * & & ; &                                 = * % & 4 T n.+.n.4 *     X * ; O J.J.J.J.J.J.J.",
"J.J.J.J.J.J.J.O * & O   C c.:.e.A T - * & & O &                               X % O % + 4 ( n.+.n.4 * X X X + * + + J.J.J.J.J.J.",
"J.J.J.J.J.J.J.; - + O X - 4.( e.- - - * & * 2 &                               X q & & O * 4 e.T n.; O X + X * e.( 4 * J.J.J.J.J.",
"J.J.J.J.J.J.J.* + X X X q e.r.v.- q - - & & 4 *                               X 4 + % + - U v.( n.4 * X X X X * * + J.J.J.J.J.J.",
"J.J.J.J.J.J.J.J.X * O X q e.- n.V.( - * & * & &                               X * * * + - - n.M.e.* * X + * X X J.J.J.J.J.J.J.J.",
"J.J.J.J.J.J.J.J.J.4 4 O q e.+ +.r.- * + O q Z.@                               . Z.h.& + - * j q.4 * * o O & J.J.J.J.J.J.J.J.J.J.",
"J.J.J.J.J.J.J.J.J.O % X - e.- + @ + - + o n S.@                               + H.z.O + + - + + + * * X O X J.J.J.J.J.J.J.J.J.J.",
"J.J.J.J.J.J.J.J.J.X O X ; c.+ ( n.+ - + O q j.@                               X y.y.O O 4 , q n., * * X O X J.J.J.J.J.J.J.J.J.J.",
"J.J.J.J.J.J.J.J.  X X X 4 c.+ v.V.v - * O * y.o                                 y.- & + 4 4 e.C.j + * X X X O J.J.J.J.J.J.J.J.J.",
"J.J.J.J.J.J.+ * & + O X 4 c.* e.V.U - * O q y.o                               X q B o O 4 q T V.4 - * X X O O * * J.J.J.J.J.J.J.",
"J.J.J.J.J.J.& 4 O ; & X * e.- e.r., - + O q v %                               X - v & O - * ; u.( * & X % * O * * J.J.J.J.J.J.J.",
"J.J.J.J.J.J.X X O + O X 4 e.q +.u.4 q * * * - &                               X - + & + - - @ n.- , + X O O X X O J.J.J.J.J.J.J.",
"J.J.J.J.J.J.J.o * + O O 4 2.+.q & 4 q * & & * &                               o * & & + - ( 2 + q 4 * O + O * O + * J.J.J.J.J.J.",
"J.J.J.J.J.J.J.X * + X X 4 +.2.q o 4 4 * % C * % o . o                 .     X X * - = & v :.( + ( - * X O O * O O & J.J.J.J.J.J.",
"J.J.J.J.J.J.J.+ X X X X * j j T 4 j 4 * & % % & + o o   o o   o     X X o X o X % % & * - - q q ( - - X X X + + X J.J.J.J.J.J.J.",
"J.J.J.J.J.J.J.* * + - - e.V.( N.C.u./ B.A O O * - * * + + + o +   o o o O + + + % X T B.m.U n.V.e.n.m.- - * * - O J.J.J.J.J.J.J.",
"J.J.J.J.J.J.J.O O O + * - v.q ( m.- q e.* & q * C * - - 2 - -   o + - - - @ o + * + * 2.y., +.N.- U q - + X X X X J.J.J.J.J.J.J.",
"J.J.J.J.J.J.J.X X X O * - c.n o X o v.v & * - - - v ( T v v V @ v T ( T v - - U A & & 2.c.T o   + e.4 + & X X X X J.J.J.J.J.J.J.",
"J.J.J.J.J.J.J.O O X X O + N.2.( ( T e.v.* % - + v v U ( v - - - v 2 - q + @ U U - & % c.n./ ( ( e.m., + X X O O X J.J.J.J.J.J.J.",
"J.J.J.J.J.J.X X X O - - n.G.F.F.F.F.F.F.c.* - y.n.n.u.v.V n.n.m.n.y.            o * ( F.G.F.F.F.F.G.V.- q + X O X J.J.J.J.J.J.J.",
"J.J.J.J.J.+ O O X * - - B.C.C.D.C.C.C.C.B.+ o m.C.C.C.C.k.n.n.- +                 X n.C.C.C.C.C.C.C.C.:.- * X O + X J.J.J.J.J.J.",
"J.J.J.J.J.X O O O X X - T T ( ( T T T T ( + . o . o . + X   o           X         o 4 T ( T T T ( ( T - o X O o + X J.J.J.J.J.J.",
"J.J.J.J.J.J.O X X o X o + O O O + + O + + O K.K.J.J.K.K.K.K.K.K.K.K.K.K.J.J.J.J.J.J.o + O O O + o O O o X o X X X X J.J.J.J.J.J.",
"K.K.K.K.K.K.K.K.K.K.K.K.K.K.K.K.K.K.K.K.K.K.K.K.K.K.K.K.K.K.K.K.K.K.K.K.K.K.K.K.J.J.J.J.J.J.J.J.J.J.J.J.J.J.J.J.J.J.J.J.J.J.J.J.",
"K.K.K.K.K.K.K.K.K.K.K.K.K.K.K.K.K.K.K.K.K.K.K.K.K.K.K.K.K.K.K.K.K.K.K.K.K.K.K.K.J.J.J.J.J.J.J.J.J.J.J.J.J.J.J.J.J.J.J.J.J.J.J.J.",
"K.K.K.K.K.K.K.K.K.K.K.K.K.K.K.K.K.K.K.K.K.K.K.K.K.K.K.K.K.K.K.K.K.K.K.K.K.K.K.K.J.J.J.J.J.J.J.J.J.J.J.J.J.J.J.J.J.J.J.J.J.J.J.J.",
"K.K.K.K.K.K.K.K.K.K.K.K.K.K.K.K.K.K.K.K.K.K.K.K.K.K.K.K.K.K.K.K.K.K.K.K.K.K.K.K.J.J.J.J.J.J.J.J.J.J.J.J.J.J.J.J.J.J.J.J.J.J.J.J.",
"K.K.K.K.K.K.K.K.K.K.K.K.K.K.K.K.K.K.K.K.K.K.K.K.K.K.K.K.K.K.K.K.K.K.K.K.K.K.K.K.J.J.J.J.J.J.J.J.J.J.J.J.J.J.J.J.J.J.J.J.J.J.J.J.",
"K.K.K.K.K.K.K.K.K.K.K.K.K.K.K.K.K.K.K.K.K.K.K.K.K.K.K.K.K.K.K.K.K.K.K.K.K.K.K.K.J.J.J.J.J.J.J.J.J.J.J.J.J.J.J.J.J.J.J.J.J.J.J.J.",
"K.K.K.K.K.K.K.K.K.K.K.K.K.K.K.K.K.K.K.K.K.K.K.K.K.K.K.K.K.K.K.K.K.K.K.K.K.K.K.K.J.J.J.J.J.J.J.J.J.J.J.J.J.J.J.J.J.J.J.J.J.J.J.J.",
"K.K.K.K.K.K.K.K.K.K.K.K.K.K.K.K.K.K.K.K.K.K.K.K.K.K.K.K.K.K.K.K.K.K.K.K.K.K.K.K.J.J.J.J.J.J.J.J.J.J.J.J.J.J.J.J.J.J.J.J.J.J.J.J."
};
