/* XPM */
static char *xpm_[] = {
/* columns rows colors chars-per-pixel */
"64 64 171 2 ",
"   c #15161B",
".  c #18171C",
"X  c #17181C",
"o  c #1A1A1E",
"O  c #1E201F",
"+  c #21221E",
"@  c #1D1D22",
"#  c #201F24",
"$  c #1E2223",
"%  c #212225",
"&  c #202324",
"*  c #222225",
"=  c #232225",
"-  c #232325",
";  c #222126",
":  c #232126",
">  c #232226",
",  c #232326",
"<  c #232227",
"1  c #232327",
"2  c #212025",
"3  c #242326",
"4  c #242227",
"5  c #242327",
"6  c #212424",
"7  c #212524",
"8  c #212525",
"9  c #222524",
"0  c #222525",
"q  c #222526",
"w  c #232526",
"e  c #212626",
"r  c #222626",
"t  c #232726",
"y  c #222727",
"u  c #232727",
"i  c #242426",
"p  c #242427",
"a  c #252527",
"s  c #242727",
"d  c #252727",
"f  c #222325",
"g  c #292622",
"h  c #222827",
"j  c #252826",
"k  c #292924",
"l  c #2E2B24",
"z  c #2D2C25",
"x  c #2E2D25",
"c  c #2E2C26",
"v  c #2C2A25",
"b  c #232228",
"n  c #242328",
"m  c #252328",
"M  c #222628",
"N  c #232728",
"B  c #252428",
"V  c #252528",
"C  c #252429",
"Z  c #262528",
"A  c #262529",
"S  c #262629",
"D  c #272629",
"F  c #272729",
"G  c #262628",
"H  c #26252A",
"J  c #27252A",
"K  c #27262A",
"L  c #27272A",
"P  c #27272B",
"I  c #27262B",
"U  c #252529",
"Y  c #28272B",
"T  c #28272C",
"R  c #28272B",
"E  c #222828",
"W  c #232828",
"Q  c #232829",
"!  c #242828",
"~  c #242929",
"^  c #252A29",
"/  c #272B29",
"(  c #25292A",
")  c #262A2A",
"_  c #272C2B",
"`  c #242929",
"'  c #282B29",
"]  c #28282A",
"[  c #28282B",
"{  c #29282B",
"}  c #29292B",
"|  c #2A292B",
" . c #282D2B",
".. c #282C2A",
"X. c #29292C",
"o. c #29282C",
"O. c #2A292C",
"+. c #2A292D",
"@. c #2A282D",
"#. c #2A2A2C",
"$. c #2A2A2D",
"%. c #2B2B2D",
"&. c #2B2A2D",
"*. c #2B2B2E",
"=. c #2B2A2E",
"-. c #2C2B2D",
";. c #2C2B2E",
":. c #2C2A2E",
">. c #282D2C",
",. c #2A2E2D",
"<. c #2B2F2C",
"1. c #2C2F2D",
"2. c #2C2C2E",
"3. c #2D2D2F",
"4. c #2B2B2C",
"5. c #312E27",
"6. c #322D25",
"7. c #322F29",
"8. c #382E29",
"9. c #2E312A",
"0. c #2C302D",
"q. c #2D302D",
"w. c #2C302E",
"e. c #2D302E",
"r. c #2F332F",
"t. c #2E312E",
"y. c #343127",
"u. c #323229",
"i. c #363228",
"p. c #343229",
"a. c #38342B",
"s. c #3A342A",
"d. c #3B342A",
"f. c #3E382B",
"g. c #2E2E30",
"h. c #2E2D30",
"j. c #302F32",
"k. c #2F3330",
"l. c #303032",
"z. c #333233",
"x. c #3C3C34",
"c. c #373638",
"v. c #383738",
"b. c #3C3A3B",
"n. c #433C2C",
"m. c #493F2F",
"M. c #4A3F36",
"N. c #403E3F",
"B. c #47402D",
"V. c #454535",
"C. c #4E433A",
"Z. c #544B35",
"A. c #584D35",
"S. c #5B5036",
"D. c #51513E",
"F. c #676039",
"G. c #746C3F",
"H. c #464544",
"J. c #494746",
"K. c #494846",
"L. c #575841",
"P. c #837B46",
"I. c #8E864D",
"U. c #8B8250",
"Y. c #948B55",
"T. c #848760",
"R. c #888C65",
"E. c #BEBD6B",
"W. c #C0C06D",
"Q. c None",
"!. c black",
/* pixels */
"Q.Q.Q.Q.Q.Q.Q.Q.Q.Q.Q.Q.Q.Q.Q.Q.Q.Q.Q.Q.Q.Q.Q.Q.Q.Q.Q.Q.Q.Q.Q.Q.Q.Q.Q.Q.Q.Q.Q.Q.Q.Q.Q.Q.Q.Q.Q.Q.Q.Q.Q.Q.Q.Q.Q.Q.Q.Q.Q.Q.Q.Q.Q.Q.",
"Q.Q.Q.Q.Q.Q.Q.Q.Q.Q.Q.Q.Q.Q.Q.Q.Q.Q.Q.Q.Q.Q.Q.Q.Q.Q.Q.Q.Q.Q.Q.Q.Q.Q.Q.Q.Q.Q.Q.Q.Q.Q.Q.Q.Q.Q.Q.Q.Q.Q.Q.Q.Q.Q.Q.Q.Q.Q.Q.Q.Q.Q.Q.Q.",
"Q.Q.Q.Q.Q.Q.Q.Q.Q.Q.Q.Q.Q.Q.Q.Q.Q.Q.Q.Q.Q.Q.Q.Q.Q.Q.Q.Q.Q.Q.Q.Q.Q.Q.Q.Q.Q.Q.Q.Q.Q.Q.Q.Q.Q.Q.Q.Q.Q.Q.Q.Q.Q.Q.Q.Q.Q.Q.Q.Q.Q.Q.Q.Q.",
"Q.Q.Q.Q.Q.Q.Q.Q.Q.Q.Q.Q.Q.Q.Q.Q.Q.Q.Q.Q.Q.Q.Q.Q.Q.Q.Q.Q.Q.Q.Q.Q.Q.Q.Q.Q.Q.Q.Q.Q.Q.Q.Q.Q.Q.Q.Q.Q.Q.Q.Q.Q.Q.Q.Q.Q.Q.Q.Q.Q.Q.Q.Q.Q.",
"Q.Q.Q.Q.Q.Q.Q.Q.Q.Q.Q.Q.Q.Q.Q.Q.Q.Q.Q.Q.Q.Q.Q.Q.Q.        @ X   o @ @       X Q.Q.Q.Q.Q.Q.Q.Q.Q.Q.Q.Q.Q.Q.Q.Q.Q.Q.Q.Q.Q.Q.Q.Q.Q.",
"Q.Q.Q.Q.Q.Q.Q.Q.Q.Q.Q.Q.Q.Q.Q.Q.Q.Q.Q.Q.Q.Q.    . ; b                   @ @ X     Q.Q.Q.Q.Q.Q.Q.Q.Q.Q.Q.Q.Q.Q.Q.Q.Q.Q.Q.Q.Q.Q.Q.",
"Q.Q.Q.Q.Q.Q.Q.Q.Q.Q.Q.Q.Q.Q.Q.Q.Q.Q.Q.Q.Q.X @ @ o ; @   @ ; ) B B b @ o   @   X @ @ Q.Q.Q.Q.Q.Q.Q.Q.Q.Q.Q.Q.Q.Q.Q.Q.Q.Q.Q.Q.Q.Q.",
"Q.Q.Q.Q.Q.Q.Q.Q.Q.Q.Q.Q.Q.Q.Q.Q.Q.Q.        @ @ @ @ B =.) =.T B T ,.=.=.) @ @ X @         Q.Q.Q.Q.Q.Q.Q.Q.Q.Q.Q.Q.Q.Q.Q.Q.Q.Q.Q.",
"Q.Q.Q.Q.Q.Q.Q.Q.Q.Q.Q.Q.Q.Q.Q.Q.      @ @     m 2.6 i :.,.=.| | =.` :.=.| i 2.B o   @ @       Q.Q.Q.Q.Q.Q.Q.Q.Q.Q.Q.Q.Q.Q.Q.Q.Q.",
"Q.Q.Q.Q.Q.Q.Q.Q.Q.Q.Q.Q.Q.Q.Q.@ .     @   @ B =.| | | R 4 B =.B | | i B | B | | B @ @ @ @         Q.Q.Q.Q.Q.Q.Q.Q.Q.Q.Q.Q.Q.Q.Q.",
"Q.Q.Q.Q.Q.Q.Q.Q.Q.Q.Q.Q.Q.Q.  m B @     @ m ; B B 2.2.R ; ; $ @ # ; ; B ,.j.| B b b @       @ @ X Q.Q.Q.Q.Q.Q.Q.Q.Q.Q.Q.Q.Q.Q.Q.",
"Q.Q.Q.Q.Q.Q.Q.Q.Q.Q.Q.Q.Q.o   X .     @ b b b ; =.B @ @ # # @ @ @ @ ; # @ B =.; ; b b #           @   Q.Q.Q.Q.Q.Q.Q.Q.Q.Q.Q.Q.Q.",
"Q.Q.Q.Q.Q.Q.Q.Q.Q.Q.Q.Q.  @ @ X     4 ` ; ; m ; ; ; @ o X o o $ o o X X @ @ ; ; B ; m 4 |         @     Q.Q.Q.Q.Q.Q.Q.Q.Q.Q.Q.Q.",
"Q.Q.Q.Q.Q.Q.Q.Q.Q.Q.  @     @     @ B =.i ; # # @ o o @ $ $ $ $ $ $ $ $ @ @ @ $ @ b ; =.R 6       @     . Q.Q.Q.Q.Q.Q.Q.Q.Q.Q.Q.",
"Q.Q.Q.Q.Q.Q.Q.Q.Q.Q.@ @ @ @ @   o ; 4 ` :.; & o X $ $ o o $ / k.q.$ @ O @ $ X X $ # =.R M 4 @   @ @ @ @ @ Q.Q.Q.Q.Q.Q.Q.Q.Q.Q.Q.",
"Q.Q.Q.Q.Q.Q.Q.Q.Q.Q.            ; ; m B 4 ; o + o $ $ O O $ _ 9.0.6 o O X $ $ $ o # # T 4 ; m .       @   Q.Q.Q.Q.Q.Q.Q.Q.Q.Q.Q.",
"Q.Q.Q.Q.Q.Q.Q.Q.Q.Q.o @ @ @   @ C b # m # @ o a.9 j $ x x $ _ a.` M & u.o ` $ i.# o # # 4 4 4 #   @ @ @ @ Q.Q.Q.Q.Q.Q.Q.Q.Q.Q.Q.",
"Q.Q.Q.Q.Q.Q.Q.Q.Q.Q.  @ @ X   m b b m # # o & B 6 ~ $ i 6 ~ _ $ j j 9 j 6 ` 9 6 = o # # 4 # 4 R   @ @ @   !.Q.Q.Q.Q.Q.Q.Q.Q.Q.Q.",
"Q.Q.Q.Q.Q.Q.Q.Q.Q.Q.@ @ @ @ @ B B $ b # o O ,.2.q./ ..q.q./ ~ $ ~ / 0.0.q.` 9.0.2.i o # ; ; i B @ @ @ @ @ !.Q.Q.Q.Q.Q.Q.Q.Q.Q.Q.",
"Q.Q.Q.Q.Q.Q.Q.Q.Q.Q.; =.$ @ # T h.=.; @   o o X X 9 o X o @ ~ $ ~ $ X X o 6 o X X $ o o & | R =.=.@ @ $ m Q.Q.Q.Q.Q.Q.Q.Q.Q.Q.Q.",
"Q.Q.Q.Q.Q.Q.Q.Q.Q.Q.o @ o   4 B m T @ @ X 9 o x o j $ g k $ ` 9.` 6 $ k o ` o x + 7 o o # R 4 m I @   @ @   Q.Q.Q.Q.Q.Q.Q.Q.Q.Q.",
"Q.Q.Q.Q.Q.Q.Q.Q.Q.  o       4 4 4 4 # @ X 9 O y.$ ~ $ k k 6 ` u.` j & l O ~ O u.+ j $ o # # 4 4 @ @     @   Q.Q.Q.Q.Q.Q.Q.Q.Q.Q.",
"Q.Q.Q.Q.Q.Q.Q.Q.Q.  B @ . o m m # # # o o 6 / ..k ) ` ..| ` j $ $ / k ..` / / ../ ` $   # # 4 Z @ @ @ @ @ @ Q.Q.Q.Q.Q.Q.Q.Q.Q.Q.",
"Q.Q.Q.Q.Q.Q.Q.Q.Q.  @     o # # @ @ @ . X 6 ......` | ..,./ $ O $ ~ | ,...` ......j o   o @ # # @ @     @ @ Q.Q.Q.Q.Q.Q.Q.Q.Q.Q.",
"Q.Q.Q.Q.Q.Q.Q.Q.Q.  @ @ B :.2.:.:.:.:.:.& $ 9 i j / j j j E $ h ` ` j ~ ` ^ j j j $ 6 =.2.4.:.:.h.2.B @ @   Q.Q.Q.Q.Q.Q.Q.Q.Q.Q.",
"Q.Q.Q.Q.Q.Q.Q.Q.Q.  @ ; l.v.b.b.b.b.b.v.| $ $ $ $ $ $ $ $ $ $ $ $ 6 $ $ $ $ $ $ $ $ 6 c.b.b.b.b.b.b.l.B @   Q.Q.Q.Q.Q.Q.Q.Q.Q.Q.",
"Q.Q.Q.Q.Q.Q.Q.Q.Q.    @ m 2.j.z.z.z.j.:.@ $ $ $ $ O $ $ $ $ $ $ $ $ $ $ O $ $ $ $ O o R j.z.z.z.j.j.T @     Q.Q.Q.Q.Q.Q.Q.Q.Q.Q.",
"Q.Q.Q.Q.Q.Q.Q.Q.Q.      # | =.2.4 i 4 ; $ O X X o $ O X X $ $ $ ~ $ X X o $ O X o o ; $ 4 B :.R h.B @       Q.Q.Q.Q.Q.Q.Q.Q.Q.Q.",
"Q.Q.Q.Q.Q.Q.Q.Q.  o @   @ h.:.h.4 4 # @ # 6 o o O $ O o o $ ~ $ ~ 6 o o o E $ o o O i o # B z.R c.; @   @ @   Q.Q.Q.Q.Q.Q.Q.Q.Q.",
"Q.Q.Q.Q.Q.Q.Q.o @ @ @   b h.T =.m B ; @ ; 6 g p.$ $ $ 9.z $ ~ $ j 6 9 5.O E $ k k & B o ; R z.R z.# @   ; @ ; @ Q.Q.Q.Q.Q.Q.Q.Q.",
"Q.Q.Q.Q.Q.Q.Q.@ # . @   ; h.T =.m B 4 @ $ M $ g $ $ $ 6 9 $ ` $ $ E $ 9 O ~ 9 9 & $ B . ; R j.| z.# @     . b @ Q.Q.Q.Q.Q.Q.Q.Q.",
"Q.Q.Q.Q.Q.Q.Q.@ @   @   @ h.T h.; # # o $ ) ` ` _ _ _ _ j ~ ~ $ ~ _ ` / ~ ~ j ` | ` B o @ 4 h.R j.# o   @ @   @ Q.Q.Q.Q.Q.Q.Q.Q.",
"Q.Q.Q.Q.Q.Q.@ h.T @ ; o ; h.T h.m m # @ $ / ....>.$ / / _ _ $ $ $ >.0./ / $ _ >.....6 o ; B j.R z.4 @ . @ @ @ @ @ Q.Q.Q.Q.Q.Q.Q.",
"Q.Q.Q.Q.Q.Q.  @ @       ; h.:.T m m ; @ $ $ o X $ $ O X X $ _ $ $ $ X X O $ $ o o o M o ; R z.R z.; @       @ @ X Q.Q.Q.Q.Q.Q.Q.",
"Q.Q.Q.Q.Q.Q.Q.X @ X     4 :.:.h.m m ; @ ; 6 o & $ $ $ O $ $ _ $ _ ~ $ O $ $ $ O @ $ B o ; R j.R z.# o         @ @ o Q.Q.Q.Q.Q.Q.",
"Q.Q.Q.Q.Q.Q.Q.@ @ @     ; :.T h.# # @ @ $ 6 k f.$ $ $ u.u.$ $ $ E E 9 i.$ ~ $ z 5.$ M o # # j.R z.# o   X   @ h.B ; @ Q.Q.Q.Q.Q.",
"Q.Q.Q.Q.Q.Q.Q.@ X       # j.@.j.m Z # # $ M $ 6 $ E $ 6 $ $ _ $ E $ O j $ ~ $ $ & $ 6 o ; B z.R z.; @         @ @ o Q.Q.Q.Q.Q.Q.",
"Q.Q.Q.Q.Q.Q.Q.Q.  @ X   b h.# z.v.R @ @ $ _ ,.q.>.E / t.k.>.E $ E / 0.t./ j ` 0.0.,.B o # # z.b.7.@ @     @     Q.Q.Q.Q.Q.Q.Q.Q.",
"Q.Q.Q.Q.Q.Q.Q.Q.Q.b b   4 7.o R | # # @ 6 _ / / V.R.D.E >._ $ $ ~ _  ./ x.T.L.| _ _ ; o # @ 4 c m @ @   @ @ Q.Q.Q.Q.Q.Q.Q.Q.Q.Q.",
"Q.Q.Q.Q.Q.Q.Q.Q.Q.  @   & j.o o @ o @ o $ $ $ 6 G.W.P.^ $ $ E $ $ $ $ $ F.E.I.z $ $ 6 o @ @ . + @ @ @       Q.Q.Q.Q.Q.Q.Q.Q.Q.Q.",
"Q.Q.Q.Q.Q.Q.Q.Q.Q.      @ g.o R j.@ # @ # 6 $ j m.Y.A.i 6 6 E $ _ $ $ _ n.U.A.D ; $ 6 o = # = z.@ @ @       Q.Q.Q.Q.Q.Q.Q.Q.Q.Q.",
"Q.Q.Q.Q.Q.Q.Q.Q.        ; h.o z.N.g # o @ ; $ j 8.C.8.l $ $ $ $ $ $ $ _ 8.M.d.5.$ $ 6 o & 4 2.N.$ @ @         Q.Q.Q.Q.Q.Q.Q.Q.Q.",
"Q.Q.Q.Q.Q.Q.@ @ @ @ o   ; h.@ :.b.Z # # $ $ X + g # g 5.o $ j $ $ $ X j 6.@ + 5.  @ M o 4 4 D b.@ @ @     X @ @ o Q.Q.Q.Q.Q.Q.Q.",
"Q.Q.Q.Q.Q.Q.@ @ X @ @   $ =.# :.R # # o $ j + i.n.9.n.f.7 $ ~ $ E j O u.B.u.n.f.9 $ M o o # # 2.T @ @   @ @   @ @ Q.Q.Q.Q.Q.Q.Q.",
"Q.Q.Q.Q.Q.Q.      @     4 :.; 4.j.b # @ $ 6 k a.a.Z.f.u.u.$ $ $ E E 9 u.6.Z.n.x l & M . ; ; + c.b # @             Q.Q.Q.Q.Q.Q.Q.",
"Q.Q.Q.Q.Q.Q.Q.  @ o X   4 | R 4 o # m @ ; 6 & 6 $ _ $ $ $ $ _ $ E E $ j $ j 6 $ & 9 b @ ; B = o ; ; @   @   @ @ @ @ Q.Q.Q.Q.Q.Q.",
"Q.Q.Q.Q.Q.Q.Q.  @ o     & R | 4 . 4 b @ $ g.u.k.k.$ k.k.k.k.E $ E k.k.k.q.` 0.k.u.g.M . ; R B X =.# @     @ @     @ Q.Q.Q.Q.Q.Q.",
"Q.Q.Q.Q.Q.Q.Q.@         @ B i R = 4 # @ $ $ $ $ $ $ $ $ $ $ $ $ E $ $ $ $ 6 $ $ $ $ $ @ # 4 i i T # @         @   Q.Q.Q.Q.Q.Q.Q.",
"Q.Q.Q.Q.Q.Q.Q.b @   @ # h.b.=.z.b.u.| b.i $ X   o j O X X $ j $ ~ $ X X o 6 O X X o =.v.v.D z.b.2.j.v.4 # @ @ @   !.Q.Q.Q.Q.Q.Q.",
"Q.Q.Q.Q.Q.Q.Q.  X   @ @ # h.; | c.= 4 :.@ 9 9 u.O h $ k z $ ~ $ ~ j + x $ ~ 9 j k $ $ T 7.+ 4.z.& R 4 # @         !.Q.Q.Q.Q.Q.Q.",
"Q.Q.Q.Q.Q.Q.Q.        @ & h.| . . . :.T ; 6 9 x $ ~ $ k j $ ~ $ $ ~ & l O j $ j k $ M =.j.m .   o j.& o @         Q.Q.Q.Q.Q.Q.Q.",
"Q.Q.Q.Q.Q.Q.Q.  @       o c.:.R R T :.j.& j 6 j 6 ~ 6 6 j $ ~ $ ~ ~ 6 ` $ ~ $ j j i ; h.l.T T T 4.v.# .       .   Q.Q.Q.Q.Q.Q.Q.",
"Q.Q.Q.Q.Q.Q.      . # # j.J.H.H.H.H.J.J.k./ r.r.q.` 0.q.q.0.~ $ ~ >.k.k.0.` 0.k.q...| V.J.H.H.H.H.K.b.# # @       Q.Q.Q.Q.Q.Q.Q.",
"Q.Q.Q.Q.Q.X   @   @ # # b.N.N.N.N.N.N.N.v.` / 0.0...0.0...0.~ $ $ 0.0. .,.0.,...0.j z.N.N.N.N.N.N.N.N.@.# @   . @   Q.Q.Q.Q.Q.Q.",
"Q.Q.Q.Q.Q.  X     . . # Z R R m T Z m R T @ $ $ $ $ $ $ $ $ $ $ $ $ $ $ $ $ $ $ @ @ b T m C m T R Z Z # . .   .     Q.Q.Q.Q.Q.Q.",
"Q.Q.Q.Q.Q.Q.      . . . . o . . . o . . o   !.!.Q.Q.Q.Q.Q.Q.Q.Q.!.Q.Q.Q.Q.Q.Q.Q.Q.Q.  @ . @ . o . o o . . .         Q.Q.Q.Q.Q.Q.",
"Q.Q.Q.Q.Q.Q.Q.Q.Q.Q.Q.Q.Q.Q.Q.Q.!.!.!.!.!.!.!.!.!.!.!.!.!.!.!.!.!.!.!.!.!.!.!.!.Q.Q.Q.Q.Q.Q.Q.Q.Q.Q.Q.Q.Q.Q.Q.Q.Q.Q.Q.Q.Q.Q.Q.Q.",
"Q.Q.Q.Q.Q.Q.Q.Q.Q.Q.Q.Q.Q.Q.Q.Q.!.!.!.!.!.!.!.!.!.!.!.!.!.!.!.!.!.!.!.!.!.!.!.!.Q.Q.Q.Q.Q.Q.Q.Q.Q.Q.Q.Q.Q.Q.Q.Q.Q.Q.Q.Q.Q.Q.Q.Q.",
"Q.Q.Q.Q.Q.Q.Q.Q.Q.Q.Q.Q.Q.Q.Q.Q.!.!.!.!.!.!.!.!.!.!.!.!.!.!.!.!.!.!.!.!.!.!.!.!.Q.Q.Q.Q.Q.Q.Q.Q.Q.Q.Q.Q.Q.Q.Q.Q.Q.Q.Q.Q.Q.Q.Q.Q.",
"Q.Q.Q.Q.Q.Q.Q.Q.Q.Q.Q.Q.Q.Q.Q.Q.!.!.!.!.!.!.!.!.!.!.!.!.!.!.!.!.!.!.!.!.!.!.!.!.Q.Q.Q.Q.Q.Q.Q.Q.Q.Q.Q.Q.Q.Q.Q.Q.Q.Q.Q.Q.Q.Q.Q.Q.",
"Q.Q.Q.Q.Q.Q.Q.Q.Q.Q.Q.Q.Q.Q.Q.Q.!.!.!.!.!.!.!.!.!.!.!.!.!.!.!.!.!.!.!.!.!.!.!.!.Q.Q.Q.Q.Q.Q.Q.Q.Q.Q.Q.Q.Q.Q.Q.Q.Q.Q.Q.Q.Q.Q.Q.Q.",
"Q.Q.Q.Q.Q.Q.Q.Q.Q.Q.Q.Q.Q.Q.Q.Q.!.!.!.!.!.!.!.!.!.!.!.!.!.!.!.!.!.!.!.!.!.!.!.!.Q.Q.Q.Q.Q.Q.Q.Q.Q.Q.Q.Q.Q.Q.Q.Q.Q.Q.Q.Q.Q.Q.Q.Q.",
"Q.Q.Q.Q.Q.Q.Q.Q.Q.Q.Q.Q.Q.Q.Q.Q.!.!.!.!.!.!.!.!.!.!.!.!.!.!.!.!.!.!.!.!.!.!.!.!.Q.Q.Q.Q.Q.Q.Q.Q.Q.Q.Q.Q.Q.Q.Q.Q.Q.Q.Q.Q.Q.Q.Q.Q.",
"Q.Q.Q.Q.Q.Q.Q.Q.Q.Q.Q.Q.Q.Q.Q.Q.!.!.!.!.!.!.!.!.!.!.!.!.!.!.!.!.!.!.!.!.!.!.!.!.Q.Q.Q.Q.Q.Q.Q.Q.Q.Q.Q.Q.Q.Q.Q.Q.Q.Q.Q.Q.Q.Q.Q.Q."
};
