/* XPM */
static char *xpm_[] = {
/* columns rows colors chars-per-pixel */
"64 64 160 2 ",
"   c #141213",
".  c #15161B",
"X  c #18171B",
"o  c #17181D",
"O  c #191A1E",
"+  c #1E201E",
"@  c #20211F",
"#  c #161621",
"$  c #171921",
"%  c #1C1C22",
"&  c #201F24",
"*  c #1E2224",
"=  c #1F2229",
"-  c #212225",
";  c #202324",
":  c #222225",
">  c #232225",
",  c #232325",
"<  c #222126",
"1  c #232126",
"2  c #232226",
"3  c #232326",
"4  c #232227",
"5  c #232327",
"6  c #212025",
"7  c #242326",
"8  c #242227",
"9  c #242327",
"0  c #212424",
"q  c #212524",
"w  c #212525",
"e  c #222524",
"r  c #222525",
"t  c #222526",
"y  c #232526",
"u  c #212626",
"i  c #222626",
"p  c #232726",
"a  c #222727",
"s  c #232727",
"d  c #242426",
"f  c #242427",
"g  c #252527",
"h  c #242627",
"j  c #242727",
"k  c #252727",
"l  c #232225",
"z  c #292525",
"x  c #222827",
"c  c #292924",
"v  c #2E2B24",
"b  c #2D2C25",
"n  c #2E2D25",
"m  c #2E2C26",
"M  c #2C2A25",
"N  c #232228",
"B  c #242328",
"V  c #252328",
"C  c #222628",
"Z  c #232728",
"A  c #252428",
"S  c #252528",
"D  c #252429",
"F  c #262528",
"G  c #262529",
"H  c #262628",
"J  c #262629",
"K  c #272629",
"L  c #272729",
"P  c #26252A",
"I  c #27252A",
"U  c #27262A",
"Y  c #27272A",
"T  c #27262B",
"R  c #27272B",
"E  c #262529",
"W  c #28272A",
"Q  c #28272B",
"!  c #28272C",
"~  c #28272A",
"^  c #222828",
"/  c #232828",
"(  c #232829",
")  c #242828",
"_  c #242929",
"`  c #252A29",
"'  c #272B29",
"]  c #24292A",
"[  c #25292A",
"{  c #262A2A",
"}  c #262C2B",
"|  c #272C2B",
" . c #262A29",
".. c #282B29",
"X. c #28282A",
"o. c #28282B",
"O. c #29282B",
"+. c #29292B",
"@. c #2A292B",
"#. c #282C2A",
"$. c #282D2B",
"%. c #29282C",
"&. c #29292C",
"*. c #2A292C",
"=. c #2A282D",
"-. c #2A292D",
";. c #2A2A2C",
":. c #2A2A2D",
">. c #2B2A2D",
",. c #2B2B2D",
"<. c #2B2A2E",
"1. c #2B2B2E",
"2. c #2C2B2D",
"3. c #2C2B2E",
"4. c #2C2A2E",
"5. c #282D2C",
"6. c #2A2E2D",
"7. c #2B2F2C",
"8. c #2C2F2D",
"9. c #2C2C2E",
"0. c #2D2D2F",
"q. c #2B2B2D",
"w. c #312E27",
"e. c #342E27",
"r. c #322F2C",
"t. c #2E312A",
"y. c #2C302D",
"u. c #2D302D",
"i. c #2C302E",
"p. c #2D302E",
"a. c #2F332F",
"s. c #363026",
"d. c #323229",
"f. c #363228",
"g. c #35332B",
"h. c #38342B",
"j. c #3A342A",
"k. c #3A342A",
"l. c #2E2E30",
"z. c #2E2D30",
"x. c #312F32",
"c. c #303032",
"v. c #333234",
"b. c #393737",
"n. c #393836",
"m. c #373638",
"M. c #383739",
"N. c #3C3B3B",
"B. c #413D2D",
"V. c #403E3F",
"C. c #454439",
"Z. c #534D35",
"A. c #5C593E",
"S. c #403E40",
"D. c #464544",
"F. c #494746",
"G. c #494846",
"H. c #696744",
"J. c None",
"K. c black",
/* pixels */
"J.J.J.J.J.J.J.J.J.J.J.J.J.J.J.J.J.J.J.J.J.J.J.J.J.J.J.J.J.J.J.J.J.J.J.J.J.J.J.J.J.J.J.J.J.J.J.J.J.J.J.J.J.J.J.J.J.J.J.J.J.J.J.J.",
"J.J.J.J.J.J.J.J.J.J.J.J.J.J.J.J.J.J.J.J.J.J.J.J.J.J.J.J.J.J.J.J.J.J.J.J.J.J.J.J.J.J.J.J.J.J.J.J.J.J.J.J.J.J.J.J.J.J.J.J.J.J.J.J.",
"J.J.J.J.J.J.J.J.J.J.J.J.J.J.J.J.J.J.J.J.J.J.J.J.J.J.J.J.J.J.J.J.J.J.J.J.J.J.J.J.J.J.J.J.J.J.J.J.J.J.J.J.J.J.J.J.J.J.J.J.J.J.J.J.",
"J.J.J.J.J.J.J.J.J.J.J.J.J.J.J.J.J.J.J.J.J.J.J.J.J.J.J.J.J.J.J.J.J.J.J.J.J.J.J.J.J.J.J.J.J.J.J.J.J.J.J.J.J.J.J.J.J.J.J.J.J.J.J.J.",
"J.J.J.J.J.J.J.J.J.J.J.J.J.J.J.J.J.J.J.J.J.J.J.J.J.. O . . o o . O % $ . . . . J.J.J.J.J.J.J.J.J.J.J.J.J.J.J.J.J.J.J.J.J.J.J.J.J.",
"J.J.J.J.J.J.J.J.J.J.J.J.J.J.J.J.J.J.J.J.J.J.O . X < V . . . . . o X . . % * o . O J.J.J.J.J.J.J.J.J.J.J.J.J.J.J.J.J.J.J.J.J.J.J.",
"J.J.J.J.J.J.J.J.J.J.J.J.J.J.J.J.J.J.J.J.J.. < O O 8 $ . % < ' H ' < % o o o . o ; X J.J.J.J.J.J.J.J.J.J.J.J.J.J.J.J.J.J.J.J.J.J.",
"J.J.J.J.J.J.J.J.J.J.J.J.J.J.J.J.J.J.. . . . $ O $ % q.q.q.>.~ H ~ 0.q.>.>.< O o $ . . . . J.J.J.J.J.J.J.J.J.J.J.J.J.J.J.J.J.J.J.",
"J.J.J.J.J.J.J.J.J.J.J.J.J.J.J.J.. . . % % . o < 2.8 ~ q.>.>.~ ' q.q.>.>.~ d 0.H $   % % o . . J.J.J.J.J.J.J.J.J.J.J.J.J.J.J.J.J.",
"J.J.J.J.J.J.J.J.J.J.J.J.J.J.J.% O . . % $ O V >.q.d q.~ < ~ >.k H >.< C >.H ' ~ ~ % $ % o . . o . J.J.J.J.J.J.J.J.J.J.J.J.J.J.J.",
"J.J.J.J.J.J.J.J.J.J.J.J.J.J.o 8 V $ . . & 8 < H d 0.0.~ < < * % & < < H 0.z.' H V < 8 X . o $ % o J.J.J.J.J.J.J.J.J.J.J.J.J.J.J.",
"J.J.J.J.J.J.J.J.J.J.J.J.J.o o o o . . % 8 8 8 < >.H % % & ; * $ % & < % % H >.N < V < & . . o . o o o J.J.J.J.J.J.J.J.J.J.J.J.J.",
"J.J.J.J.J.J.J.J.J.J.J.J.. % $ X . . < ' < < H < % < % O O o + + O O O O $ * < < V < < d >.o . . o % o . J.J.J.J.J.J.J.J.J.J.J.J.",
"J.J.J.J.J.J.J.J.J.J.O o o o o . o % H >.H < & % & O O * * * * * w * * * * O % * % N < 0.H < . . o o . o X J.J.J.J.J.J.J.J.J.J.J.",
"J.J.J.J.J.J.J.J.J.J.O * % o % o X N < T >.< * O X + * O O * $.a.u.* O + O * X o < % >.H < < % o & $ $ & % J.J.J.J.J.J.J.J.J.J.J.",
"J.J.J.J.J.J.J.J.J.J.. . o o o . < < V H V * % + + = + + + * ' t.' x O + + = + + O < < ~ H < V X . o . o . J.J.J.J.J.J.J.J.J.J.J.",
"J.J.J.J.J.J.J.J.J.J.O % % % . % H V & V & % O j.; x * n n < ' k...w @ d.* ( + f.; O & < & V & & . % $ % o J.J.J.J.J.J.J.J.J.J.J.",
"J.J.J.J.J.J.J.J.J.J.o O % O . V < < 8 & & O ; d w ( w d w x ' * ( ' w x * ' * x ; O % & V V V H . X % % o J.J.J.J.J.J.J.J.J.J.J.",
"J.J.J.J.J.J.J.J.J.J.% < % % O H H * V & O O 6.u.t.' ..d.u...( = ( ' y.y.6.' y.y.0.d X < V & V H < % & % & J.J.J.J.J.J.J.J.J.J.J.",
"J.J.J.J.J.J.J.J.J.J.< ! < $ d q.z.>.< % o O O o o * * O o + ( * ( * o X O * O X o * O % & >.H 0.0.O % q.V J.J.J.J.J.J.J.J.J.J.J.",
"J.J.J.J.J.J.J.J.J.J.o % %   8 V H >.& % o * + n O k * @ c * ' d.' w + c O x + n @ q + O & ~ V V H O O % O . J.J.J.J.J.J.J.J.J.J.",
"J.J.J.J.J.J.J.J.J.. O o . . 8 8 < < & O O q + d.; ( * c c * ' d.' w ; n * ( + w.@ q * O & & & V 8 O . . O O J.J.J.J.J.J.J.J.J.J.",
"J.J.J.J.J.J.J.J.J.o T % o X 8 V & & & O O x ....' [ ' ' q.' x + C } q.' ' ' ' ..' ' * . & & & V < % X O ! % J.J.J.J.J.J.J.J.J.J.",
"J.J.J.J.J.J.J.J.J.. $ o . X & & % % % o X w ....' C ' q.6.' e O * ' ....6.( ......k O . O & & & % O . . $ o J.J.J.J.J.J.J.J.J.J.",
"J.J.J.J.K.K.K.K.K.X $ O V >.0.0.0.0.=.0.8 O e e z c e e @ c + @ w d c e q k c e < ; < 0.q.q.0.=.0.>.~ % O o J.J.J.J.J.J.J.J.J.J.",
"J.J.J.J.K.K.K.K.K.O & 8 x.M.N.N.N.N.N.m.~ X                   .                     < m.N.N.N.V.N.N.v.H % o J.J.J.J.J.J.J.J.J.J.",
"J.J.J.J.K.K.K.K.J.  X O 8 0.x.x.x.v.x.=.$ $                                       X $ ! x.x.v.x.x.x.~ O o . J.J.J.J.J.J.J.J.J.J.",
"J.J.J.J.K.K.K.K.J.. o O & 0.~ 0.d 8 8 & % $ #                                   X $ $ & 8 d 0.~ z.V % . . . J.J.J.J.J.J.J.J.J.J.",
"J.J.J.J.J.J.K.K.o $ $ o < 0.0.z.8 V & % X $ .                                   . $ $ X < d c.~ m.& % . % % X J.J.J.J.J.J.J.J.J.",
"J.J.J.J.J.J.K.O % % % o 8 0.! 0.V ~ 8 % $ % $ X                               . $ $ % X 8 ~ c.~ v.& % . & % & % J.J.J.J.J.J.J.J.",
"J.J.J.J.J.J.J.O & X o   8 0.~ =.V V V % $ % z & .                           . O z % $ O < ~ x.q.v.< % . o o H % J.J.J.J.J.J.J.J.",
"J.J.J.J.J.J.J.$ % X % $ < 0.~ 0.& & & O $ % $ % O                           O % % $ % X % 8 0.K x.& O o & O o O J.J.J.J.J.J.J.J.",
"J.J.J.J.J.J.X 0.! % & O & z.! z.8 8 < % $ = = %                               % N = % $ < ~ x.~ v.< % O % O O w O J.J.J.J.J.J.J.",
"J.J.J.J.J.J.o % % o . . < z.>.z.8 V 8 % # $ = = $                           O % % % $ $ ; ~ x.q.v.< O . . . % % O J.J.J.J.J.J.J.",
"J.J.J.J.J.J.J.O % o o . 8 0.>.>.V ~ < % $ $ # $ $                           O % # $ $ O & ~ x.~ x.; % . . . X & O O J.J.J.J.J.J.",
"J.J.J.J.J.J.J.< * O #   & 0.! z.< & & $ $ % V % X                           # % 8 % $ o & & x.~ c.& O . o . % x.~ < % J.J.J.J.J.",
"J.J.J.J.J.J.J.$ O o . . < x.>.z.8 8 & % % $ % N %                           o & & % $ o < d x.q.v.8 %   o o . $ % O J.J.J.J.J.J.",
"J.J.J.J.J.J.J.J.o $ X . < 0.& v.n.~ % & $ % % % %                           # % % % % $ & & v.n.0.& % . O $ . . J.J.J.J.J.J.J.J.",
"J.J.J.J.J.J.J.J.J.< N o V z.O q.q.& & O # % 0.C.%                           o n.h.= $ O & % z 2.8 O & X O $ J.J.J.J.J.J.J.J.J.J.",
"J.J.J.J.J.J.J.J.J.o o o & r.O O + O & O o # B.H.;                           O A.Z.% $ O O & O O O & O . o o J.J.J.J.J.J.J.J.J.J.",
"J.J.J.J.J.J.J.J.J.. . . N z.O ~ x.+ O & X % r.j.O                           X s.k.% $ O 8 & > v.& % % . o . J.J.J.J.J.J.J.J.J.J.",
"J.J.J.J.J.J.J.J.. . .   < z.O x.V.8 & & X $ < e.$                           X z z $ $ O ; 8 0.V.d % % . . . . J.J.J.J.J.J.J.J.J.",
"J.J.J.J.J.J.$ & $ O o . < 0.% 0.N.~ < % O $ 2.z $                           $ & j.$ $ O < 8 ~ N.; & % . o o o % % J.J.J.J.J.J.J.",
"J.J.J.J.J.J.O & X * $ . * 0.& 0.z & % % $ % K > %                           $ & M $ $ O & % & r.K % O . $ % o % % J.J.J.J.J.J.J.",
"J.J.J.J.J.J.. . . O X . & 0.& q.x.& 8 % O % & & $                           X % & % % $ & & + v.& & O . o o o o X J.J.J.J.J.J.J.",
"J.J.J.J.J.J.J.X & O o o 8 0.z 8 O ; 8 % $ % $ % %                           $ & % % % $ 8 I & + 8 < % O o o $ X $ % J.J.J.J.J.J.",
"J.J.J.J.J.J.J.o $ $ o o < ~ q.> X 8 < % # = N % X X X                       $ $ & & % $ & ~ ~ o ~ & % . o o % X O O J.J.J.J.J.J.",
"J.J.J.J.J.J.J.O o . .   % H K ~ > d < % $ $ $ # O O X   X   X X       o $ X $ # $ $ $ % & V 8 8 q.& & . o . O O . J.J.J.J.J.J.J.",
"J.J.J.J.J.J.J.% % O & & z.N.0.v.V.r.! M.8 $ . % % % % X O O O O   . X X X X $ & . o H N.n.K v.N.0.c.n.< N O $ < . J.J.J.J.J.J.J.",
"J.J.J.J.J.J.J.o o o O % & z.8 ~ n.& 8 0.% $ & & % & & & & & &   X & % & & % % % < $ % >.x.+ q.m.& d 8 & $ . O . . J.J.J.J.J.J.J.",
"J.J.J.J.J.J.J.. . . o % ; z.q.    O 0.~ $ $ & V 8 V V V z z z & 8 ~ z V H & 8 V < $ $ q.x.8 X   O x.8 O X . . o . J.J.J.J.J.J.J.",
"J.J.J.J.J.J.J.o o o   $ O m.>.q.~ ~ 0.v.% % % % z =.z ~ z & & & z z & z % % z & % % $ 0.v.~ ~ ~ 0.n.; o . . o o . J.J.J.J.J.J.J.",
"J.J.J.J.J.J.  # o O V & x.F.D.D.F.D.D.F.x.% V r.v.v.x.x.M M.v.b.v.q.        .   % * T D.F.F.D.D.D.F.N.& V $ . o . J.J.J.J.J.J.J.",
"J.J.J.J.J.O o o o $ % & N.V.V.V.S.S.V.S.M.% O b.N.V.B.V.v.x.v.@ X               . $ c.V.S.S.V.V.V.V.V.=.& O . O o . J.J.J.J.J.J.",
"J.J.J.J.J.. o o o   X & V ! V ~ ~ V ~ ! ~ O   O X X O O X   X               .     X V H ! V H H V ~ V & X X X # O . J.J.J.J.J.J.",
"J.J.J.J.J.J.o . . X X X X O X X $ X X X X X K.K.J.J.K.K.K.K.K.K.K.K.K.K.J.J.J.K.K.J.X X X $ X O X O O X X X   o . . J.J.J.J.J.J.",
"J.J.J.J.J.J.J.J.J.J.J.J.J.J.J.J.K.K.K.K.K.K.K.K.K.K.K.K.K.K.K.K.K.K.K.K.K.K.K.K.J.J.J.J.J.J.J.J.J.J.J.J.J.J.J.J.J.J.J.J.J.J.J.J.",
"J.J.J.J.J.J.J.J.J.J.J.J.J.J.J.J.K.K.K.K.K.K.K.K.K.K.K.K.K.K.K.K.K.K.K.K.K.K.K.K.J.J.J.J.J.J.J.J.J.J.J.J.J.J.J.J.J.J.J.J.J.J.J.J.",
"J.J.J.J.J.J.J.J.J.J.J.J.J.J.J.J.K.K.K.K.K.K.K.K.K.K.K.K.K.K.K.K.K.K.K.K.K.K.K.K.J.J.J.J.J.J.J.J.J.J.J.J.J.J.J.J.J.J.J.J.J.J.J.J.",
"J.J.J.J.J.J.J.J.J.J.J.J.J.J.J.J.K.K.K.K.K.K.K.K.K.K.K.K.K.K.K.K.K.K.K.K.K.K.K.K.J.J.J.J.J.J.J.J.J.J.J.J.J.J.J.J.J.J.J.J.J.J.J.J.",
"J.J.J.J.J.J.J.J.J.J.J.J.J.J.J.J.K.K.K.K.K.K.K.K.K.K.K.K.K.K.K.K.K.K.K.K.K.K.K.K.J.J.J.J.J.J.J.J.J.J.J.J.J.J.J.J.J.J.J.J.J.J.J.J.",
"J.J.J.J.J.J.J.J.J.J.J.J.J.J.J.J.K.K.K.K.K.K.K.K.K.K.K.K.K.K.K.K.K.K.K.K.K.K.K.K.J.J.J.J.J.J.J.J.J.J.J.J.J.J.J.J.J.J.J.J.J.J.J.J.",
"J.J.J.J.J.J.J.J.J.J.J.J.J.J.J.J.K.K.K.K.K.K.K.K.K.K.K.K.K.K.K.K.K.K.K.K.K.K.K.K.J.J.J.J.J.J.J.J.J.J.J.J.J.J.J.J.J.J.J.J.J.J.J.J.",
"J.J.J.J.J.J.J.J.J.J.J.J.J.J.J.J.K.K.K.K.K.K.K.K.K.K.K.K.K.K.K.K.K.K.K.K.K.K.K.K.J.J.J.J.J.J.J.J.J.J.J.J.J.J.J.J.J.J.J.J.J.J.J.J."
};
