/* XPM */
static char *xpm_[] = {
/* columns rows colors chars-per-pixel */
"64 64 169 2 ",
"   c #15161B",
".  c #18171C",
"X  c #17181C",
"o  c #1A1A1E",
"O  c #1E201E",
"+  c #21221E",
"@  c #1D1D21",
"#  c #201F24",
"$  c #1E2223",
"%  c #212225",
"&  c #202324",
"*  c #222225",
"=  c #232225",
"-  c #232325",
";  c #222126",
":  c #232126",
">  c #232226",
",  c #232326",
"<  c #232227",
"1  c #232327",
"2  c #212025",
"3  c #242326",
"4  c #242227",
"5  c #242327",
"6  c #212424",
"7  c #212524",
"8  c #212525",
"9  c #222524",
"0  c #222525",
"q  c #222526",
"w  c #232526",
"e  c #212626",
"r  c #222626",
"t  c #232726",
"y  c #222727",
"u  c #232727",
"i  c #242426",
"p  c #242427",
"a  c #252527",
"s  c #242727",
"d  c #252727",
"f  c #222325",
"g  c #292621",
"h  c #222827",
"j  c #252826",
"k  c #292924",
"l  c #2E2B24",
"z  c #2D2C25",
"x  c #2E2D25",
"c  c #2E2C26",
"v  c #2C2A25",
"b  c #232228",
"n  c #242328",
"m  c #252328",
"M  c #222628",
"N  c #232728",
"B  c #252428",
"V  c #252528",
"C  c #252429",
"Z  c #262528",
"A  c #262529",
"S  c #262629",
"D  c #272629",
"F  c #272729",
"G  c #262628",
"H  c #26252A",
"J  c #27252A",
"K  c #27262A",
"L  c #27272A",
"P  c #27272B",
"I  c #27262B",
"U  c #252529",
"Y  c #28272B",
"T  c #28272C",
"R  c #28272B",
"E  c #222828",
"W  c #232828",
"Q  c #232829",
"!  c #242828",
"~  c #242929",
"^  c #252A29",
"/  c #272B29",
"(  c #25292A",
")  c #262A2A",
"_  c #272C2B",
"`  c #252929",
"'  c #282B29",
"]  c #28282A",
"[  c #28282B",
"{  c #29282B",
"}  c #29292B",
"|  c #2A292B",
" . c #282D2B",
".. c #282C2A",
"X. c #29292C",
"o. c #29282C",
"O. c #2A292C",
"+. c #2A292D",
"@. c #2A282D",
"#. c #2A2A2C",
"$. c #2A2A2D",
"%. c #2B2B2D",
"&. c #2B2A2D",
"*. c #2B2B2E",
"=. c #2B2A2E",
"-. c #2C2B2D",
";. c #2C2B2E",
":. c #2C2A2E",
">. c #282D2C",
",. c #2A2E2D",
"<. c #2B2F2C",
"1. c #2C2F2D",
"2. c #2C2C2E",
"3. c #2D2D2F",
"4. c #2B2B2C",
"5. c #312E27",
"6. c #322D25",
"7. c #332E28",
"8. c #382D29",
"9. c #2E312A",
"0. c #2C302D",
"q. c #2D302D",
"w. c #2C302E",
"e. c #2D302E",
"r. c #2F332F",
"t. c #2D312E",
"y. c #343127",
"u. c #323229",
"i. c #363228",
"p. c #343229",
"a. c #38342B",
"s. c #3A342A",
"d. c #3A332A",
"f. c #3E382B",
"g. c #2E2E30",
"h. c #2E2D30",
"j. c #302F32",
"k. c #2F3330",
"l. c #303032",
"z. c #333233",
"x. c #3A3A34",
"c. c #373638",
"v. c #383738",
"b. c #3C3A3B",
"n. c #423B2C",
"m. c #493F2F",
"M. c #4A3F36",
"N. c #403E3F",
"B. c #454535",
"V. c #4E4439",
"C. c #4D4D3E",
"Z. c #554C35",
"A. c #5B5036",
"S. c #645A39",
"D. c #746C3F",
"F. c #464544",
"G. c #494746",
"H. c #494846",
"J. c #575840",
"K. c #807646",
"L. c #8E864D",
"P. c #8B8251",
"I. c #948B55",
"U. c #838662",
"Y. c #888C65",
"T. c #BDBC6C",
"R. c #C0BF6E",
"E. c None",
"W. c black",
/* pixels */
"E.E.E.E.E.E.E.E.E.E.E.E.E.E.E.E.E.E.E.E.E.E.E.E.E.E.E.E.E.E.E.E.E.E.E.E.E.E.E.E.E.E.E.E.E.E.E.E.E.E.E.E.E.E.E.E.E.E.E.E.E.E.E.E.",
"E.E.E.E.E.E.E.E.E.E.E.E.E.E.E.E.E.E.E.E.E.E.E.E.E.E.E.E.E.E.E.E.E.E.E.E.E.E.E.E.E.E.E.E.E.E.E.E.E.E.E.E.E.E.E.E.E.E.E.E.E.E.E.E.",
"E.E.E.E.E.E.E.E.E.E.E.E.E.E.E.E.E.E.E.E.E.E.E.E.E.E.E.E.E.E.E.E.E.E.E.E.E.E.E.E.E.E.E.E.E.E.E.E.E.E.E.E.E.E.E.E.E.E.E.E.E.E.E.E.",
"E.E.E.E.E.E.E.E.E.E.E.E.E.E.E.E.E.E.E.E.E.E.E.E.E.E.E.E.E.E.E.E.E.E.E.E.E.E.E.E.E.E.E.E.E.E.E.E.E.E.E.E.E.E.E.E.E.E.E.E.E.E.E.E.",
"E.E.E.E.E.E.E.E.E.E.E.E.E.E.E.E.E.E.E.E.E.E.E.E.E.  @       X   @ @ @         E.E.E.E.E.E.E.E.E.E.E.E.E.E.E.E.E.E.E.E.E.E.E.E.E.",
"E.E.E.E.E.E.E.E.E.E.E.E.E.E.E.E.E.E.E.E.E.E.      b b                   @ @ X     E.E.E.E.E.E.E.E.E.E.E.E.E.E.E.E.E.E.E.E.E.E.E.",
"E.E.E.E.E.E.E.E.E.E.E.E.E.E.E.E.E.E.E.E.E.  @ @ o b @   @ b ) n b b @ @   @   X @ o E.E.E.E.E.E.E.E.E.E.E.E.E.E.E.E.E.E.E.E.E.E.",
"E.E.E.E.E.E.E.E.E.E.E.E.E.E.E.E.E.E.        @ @ @ @ m O.O.O.O.C ^ O.O.O.) @ @ o @         E.E.E.E.E.E.E.E.E.E.E.E.E.E.E.E.E.E.E.",
"E.E.E.E.E.E.E.E.E.E.E.E.E.E.E.E.      @ @     m 2.6 R :.4.O.| | T O.O.O.| a 2.C o   o @ @     E.E.E.E.E.E.E.E.E.E.E.E.E.E.E.E.E.",
"E.E.E.E.E.E.E.E.E.E.E.E.E.E.E.@       @ @ @ m O.| a | R C C | C O.O.C C | C | | C @ o @ @         E.E.E.E.E.E.E.E.E.E.E.E.E.E.E.",
"E.E.E.E.E.E.E.E.E.E.E.E.E.E.  m C @     @ m b m C 2.2.R ; ; $ @ # ; 6 C 2.z.C R b b ;       @ @ X E.E.E.E.E.E.E.E.E.E.E.E.E.E.E.",
"E.E.E.E.E.E.E.E.E.E.E.E.E.o   X       @ # # b b | | @ @ ; @ $ @ @ @ ; # @ C O.; ; m ; #           @   E.E.E.E.E.E.E.E.E.E.E.E.E.",
"E.E.E.E.E.E.E.E.E.E.E.E.  @ @       ; | ; ; 6 ; @ ; @ o X X o $ @ o X @ @ $ # ; C ; b a |         @     E.E.E.E.E.E.E.E.E.E.E.E.",
"E.E.E.E.E.E.E.E.E.E.@       @     $ C | a ; ; ; # o @ @ $ $ $ $ $ $ $ $ @ @ @ $ @ ; b O.^ ;       @     . E.E.E.E.E.E.E.E.E.E.E.",
"E.E.E.E.E.E.E.E.E.E.@ @ @   @   X ; ; O.O.; ; o X $ @ X o $ ..r.w.$ O X X $ X o ; @ O.I m ; @   @ @ @ @ @ E.E.E.E.E.E.E.E.E.E.E.",
"E.E.E.E.E.E.E.E.E.E.  @     @   ; ; C C ; ; o + o $ $ O O $ _ 9._ 6 o O X E @ $ o # ; O.; 4 m . @     @   E.E.E.E.E.E.E.E.E.E.E.",
"E.E.E.E.E.E.E.E.E.E.o @ @ @   @ b b ; 4 # @ o a.6 ^ $ x l $ _ a._ n & y.@ ^ O i.# . # 4 4 4 4 #   @ @ @ @ E.E.E.E.E.E.E.E.E.E.E.",
"E.E.E.E.E.E.E.E.E.E.  @ @ X   b ; b m ; # o $ a 6 E 6 a a E _ $ h j 6 h 6 ^ 6 j - o # # 4 ; 4 a     @ @ @ W.E.E.E.E.E.E.E.E.E.E.",
"E.E.E.E.E.E.E.E.E.E.@ ; @ @ @ b C ; n @ o o 4.q.q.^ ..q.q.4.E $ h _ r.w.4.^ ..q.q.a . # ; & R a @ @ @ @ @ W.W.W.E.E.E.E.E.E.E.E.",
"E.E.E.E.E.E.E.E.E.E.; :.@ @ # h.h.O.; @ X o o X X $ O X X @ E $ E $ X X o $ o X X $ o o # -.C :.h.@ @ @ I W.W.W.E.E.E.E.E.E.E.E.",
"E.E.E.E.E.E.E.E.E.E.  @ o   4 C m T # @ X 6 o x o ^ $ g t $ _ u._ h + k o ^ O x + h o o # @.4 4 I @   @ @   W.W.E.E.E.E.E.E.E.E.",
"E.E.E.E.E.E.E.E.E.  o       4 4 4 4 # @ X h O y.+ ^ $ g l $ ^ u._ 6 + l @ ^ O 5.+ 6 $ o # # 4 4 @ @     @   W.W.E.E.E.E.E.E.E.E.",
"E.E.E.E.E.E.E.E.E.o C @   o m m # # @ . o 6 ' ..^ ^ ^ ....^ ^ O n ^ ^ ..^ ^ ^ ../ ^ $   # # 4 m @ @ @ @ b @ W.W.E.E.E.E.E.E.E.E.",
"E.E.E.E.E.E.E.E.E.  o     o # # @ @ @ o X 6 ......^ | ....| $ O $ ^ 4.....^ ......a o   o @ # # @ @         W.W.E.E.E.E.E.E.E.E.",
"E.E.E.E.E.E.E.E.E.  @ @ C 4.:.2.:.:.:.:.a $ & 6 9 6 t 9 h t O + j 9 t 6 t t 6 6 6 $ & -.-.-.:.:.O.h.I @ @   W.W.E.E.E.E.E.E.E.E.",
"E.E.E.E.E.E.E.E.E.. @ # j.v.b.b.b.b.b.v.O.o o O O O O O X O o X o X X O O O O O O o a z.b.b.b.b.b.v.z.b @ @ W.W.E.E.E.E.E.E.E.E.",
"E.E.E.E.E.E.E.E.E.    @ C h.j.z.z.j.j.:.o $ $ O $ $ $ $ $ $ $ $ 6 $ $ $ $ $ $ O $ $ @ R z.j.z.z.j.j.m @     W.W.E.E.E.E.E.E.E.E.",
"E.E.E.E.E.E.E.E.E.      # | O.:.4 a 4 ; 6 O o o X O o X X o $ O 6 O X X X $ O X o o $ @ 4 a :.R j.C @       W.W.E.E.E.E.E.E.E.E.",
"E.E.E.E.E.E.E.E.  @ @   @ =.:.h.4 4 # @ # 6 o o O h o o X $ E $ h 6 X X X E $ X X O a o ; C z.R c.# @   @ @   W.E.E.E.E.E.E.E.E.",
"E.E.E.E.E.E.E.o @ @ @   # h.@.:.4 R ; @ ; 6 9 i.$ E $ x x $ E o n j + 5.O ^ $ k l & n o ; R j.O.z.# @   b @ # @ E.E.E.E.E.E.E.E.",
"E.E.E.E.E.E.E.o #       b h.T @.m m 4 @ $ n $ 9 $ E $ 6 + $ ^ $ E h $ 9 O E 6 $ & & 4 o ; R j.R j.# @     . b @ E.E.E.E.E.E.E.E.",
"E.E.E.E.E.E.E.@ @   # @ # h.T h.# ; # o $ ) ^ ^ E E E _ _ ^ ^ @ h ^ ^ _ E ^ j _ ^ ^ a . # ; j.T j.@ @ . @ @   @ E.E.E.E.E.E.E.E.",
"E.E.E.E.E.E.@ h.T @ # @ ; h.T h.m m # @ $ ^ _ ..>.$ _ ..>._ $ $ h ^ _ .._ h ^ _ .._ 6 o @ I j.R z.; @ . @ @ @ # @ E.E.E.E.E.E.E.",
"E.E.E.E.E.E.  @ @       ; h.O.h.m m ; @ $ $ o o $ $ o X X $ $ $ n $ o o O $ O X o o 6 @ ; R z.R z.; @       @ @   E.E.E.E.E.E.E.",
"E.E.E.E.E.E.E.X @       4 2.O.O.m m ; @ $ 6 O O $ $ $ O $ $ _ $ E 6 @ O O j $ O O $ C o ; R j.| z.; @         @ @ o E.E.E.E.E.E.",
"E.E.E.E.E.E.E.@ @ @     ; :.T h.# # @ @ ; 6 k f.$ ^ $ u.u.$ $ $ E h 6 a.O h 6 ' 5.$ n o @ 4 h.R z.# .       @ h.R ; @ E.E.E.E.E.",
"E.E.E.E.E.E.E.@ @       ; h.:.h.m m # @ ; 6 $ 6 $ ^ $ $ $ $ _ $ h h $ 6 $ E ; $ $ $ n o ; a j.R z.; @         @ @ @ E.E.E.E.E.E.",
"E.E.E.E.E.E.E.E.  @     b h.; z.v.T # @ $ _ 4.w._ $  .t.k.>.$ $ h _ 0.t...E _ q.w.4.h o # # z.b.2.@ @   . @     E.E.E.E.E.E.E.E.",
"E.E.E.E.E.E.E.E.E.b b   b h.o R 7.# @ @ $ ^ ..j C.Y.C._ ,._ $ $ 6 _  ._ x.U.A.>.>.^ ; o # @ G c 4 @ @ .   @ E.E.E.E.E.E.E.E.E.E.",
"E.E.E.E.E.E.E.E.E.  @   # 7.o o @ . # . $ h $ 9 D.R.D.h $ $ $ O E $ $ $ S.T.L...$ 6 6 o o # o o o # o   @   E.E.E.E.E.E.E.E.E.E.",
"E.E.E.E.E.E.E.E.E.      @ h.o R j.@ @ # # 6 $ h B.I.Z.4 6 6 ^ $ E E $ $ n.P.A.G 6 $ h o ; & 4 z.@ @ @       E.E.E.E.E.E.E.E.E.E.",
"E.E.E.E.E.E.E.E.        b h.o z.b.m # @ @ ; $ j 8.V.8.6.$ $ $ @ E $ $ ^ 8.M.8.5.$ $ 6 o ; 4 2.N.b @ @         E.E.E.E.E.E.E.E.E.",
"E.E.E.E.E.E.@ @ @   @   ; h.@ h.b.C ; @ $ $ X + g @ - 6.X O ^ O E 6 X 9 l @ 9 6.X @ n X ; 4 R b.@ @ @     @ @ @ o E.E.E.E.E.E.E.",
"E.E.E.E.E.E.@ @   @ @   $ :.# :.-.; @ o 6 h + i.n.y.f.a.+ $ ^ $ E 6 + y.n.i.n.f.6 $ n o @ @ ; 7.I @     @ @   @ @ E.E.E.E.E.E.E.",
"E.E.E.E.E.E.      @     ; -.# -.j.4 # @ & 6 g a.i.Z.f.7.5.$ E $ n E 9 y.6.Z.f.x x O 6 o ; 4 O z.b # @             E.E.E.E.E.E.E.",
"E.E.E.E.E.E.E.  @ .   X 4 -.@.- o # m @ $ a & 6 $ E $ 6 6 6 E O E E $ 6 & C 6 $ $ 6 C o ; m - o b ; @   @   @ @ @ @ E.E.E.E.E.E.",
"E.E.E.E.E.E.E.  @ @ .   & R -.4 . 4 # @ $ 0.q.l.k.E 4.k.k.w.E @ E 4.k.k.q.^ w.k.l.q.E o ; R C X T # @     @ @     @ E.E.E.E.E.E.",
"E.E.E.E.E.E.E.@ .       o 4 4 R - 4 & @ $ 6 $ $ $ $ $ $ $ $ h $ h 6 $ $ $ 6 $ $ $ $ $ @ # 4 a 4 T # @         @   E.E.E.E.E.E.E.",
"E.E.E.E.W.W.W.b @   # @ h.b.h.z.b.j.O.b.a $ . X o h O   X O E $ E 6   X o h o X X @ ) b.v.a z.N.h.j.v.& # @ @ @   W.W.W.W.W.W.W.",
"E.E.E.E.W.W.W.  @     @ # h.m R a.- 4 :.@ 6 6 5.O ^ O k k & ^ @ E 6 & x O ^ 6 k v $ @ O.7.# v z.& R 4 # @         W.W.W.W.W.W.W.",
"E.E.E.E.W.W.W.        @ & h.| .   o :.R ; 6 6 6.$ E $ k 9 & ^ & ^ 6 $ k $ j $ 9 9 $ n ) h.C     o j.4 o @         W.W.W.W.W.W.W.",
"E.E.E.E.W.W.W.        @ o c.O.R R | :.j.& j h h 6 h h h ^ | E 6 ^ ^ ^ j 6 ^ h h a j 6 h.z.T R T -.v.# .       .   W.W.W.W.W.W.W.",
"E.E.E.E.E.E.        m # j.H.G.G.G.F.G.G.h.) r.r.q.^ w.q.w.w._ ^ ^ g.w.w.k._ w.r.q...| F.G.F.F.F.F.H.v.4 4 o       W.W.W.W.W.W.W.",
"E.E.E.E.E.X   @   @ # # v.N.N.N.N.N.N.N.b.^ ....0.....w._ ^ h $ 6 E E >.4.w.....0.h z.N.N.N.N.N.N.N.N.@.# @   . @   W.W.W.W.W.W.",
"E.E.E.E.E.  X     . . # m T m R R m m R C @ $ $ $ $ $ $ o o O o O o @ $ $ $ $ $ @ o ; C T R R C R R R # . . . . @   W.W.W.W.W.W.",
"E.E.E.E.E.E.      . . . . . . . . o . o X X E.E.E.E.E.E.E.E.E.E.E.E.E.E.E.E.E.E.E.E.o o . . . o . . . .             W.W.W.W.W.W.",
"E.E.E.E.E.E.E.E.E.E.E.E.E.E.E.E.E.E.E.E.E.E.E.E.E.E.E.E.E.E.E.E.E.E.E.E.E.E.E.E.E.E.E.E.E.E.E.E.E.E.E.E.E.E.E.E.E.E.E.E.E.E.E.E.",
"E.E.E.E.E.E.E.E.E.E.E.E.E.E.E.E.E.E.E.E.E.E.E.E.E.E.E.E.E.E.E.E.E.E.E.E.E.E.E.E.E.E.E.E.E.E.E.E.E.E.E.E.E.E.E.E.E.E.E.E.E.E.E.E.",
"E.E.E.E.E.E.E.E.E.E.E.E.E.E.E.E.E.E.E.E.E.E.E.E.E.E.E.E.E.E.E.E.E.E.E.E.E.E.E.E.E.E.E.E.E.E.E.E.E.E.E.E.E.E.E.E.E.E.E.E.E.E.E.E.",
"E.E.E.E.E.E.E.E.E.E.E.E.E.E.E.E.E.E.E.E.E.E.E.E.E.E.E.E.E.E.E.E.E.E.E.E.E.E.E.E.E.E.E.E.E.E.E.E.E.E.E.E.E.E.E.E.E.E.E.E.E.E.E.E.",
"E.E.E.E.E.E.E.E.E.E.E.E.E.E.E.E.E.E.E.E.E.E.E.E.E.E.E.E.E.E.E.E.E.E.E.E.E.E.E.E.E.E.E.E.E.E.E.E.E.E.E.E.E.E.E.E.E.E.E.E.E.E.E.E.",
"E.E.E.E.E.E.E.E.E.E.E.E.E.E.E.E.E.E.E.E.E.E.E.E.E.E.E.E.E.E.E.E.E.E.E.E.E.E.E.E.E.E.E.E.E.E.E.E.E.E.E.E.E.E.E.E.E.E.E.E.E.E.E.E.",
"E.E.E.E.E.E.E.E.E.E.E.E.E.E.E.E.E.E.E.E.E.E.E.E.E.E.E.E.E.E.E.E.E.E.E.E.E.E.E.E.E.E.E.E.E.E.E.E.E.E.E.E.E.E.E.E.E.E.E.E.E.E.E.E.",
"E.E.E.E.E.E.E.E.E.E.E.E.E.E.E.E.E.E.E.E.E.E.E.E.E.E.E.E.E.E.E.E.E.E.E.E.E.E.E.E.E.E.E.E.E.E.E.E.E.E.E.E.E.E.E.E.E.E.E.E.E.E.E.E."
};
