/* XPM */
static char *xpm_[] = {
/* columns rows colors chars-per-pixel */
"64 64 154 2 ",
"   c #141213",
".  c #191616",
"X  c #15161B",
"o  c #18171B",
"O  c #17181D",
"+  c #1A1A1E",
"@  c #1E201E",
"#  c #21211E",
"$  c #1D1D22",
"%  c #201F24",
"&  c #1E2223",
"*  c #212225",
"=  c #202324",
"-  c #222225",
";  c #232225",
":  c #232325",
">  c #222126",
",  c #232126",
"<  c #232226",
"1  c #232326",
"2  c #232227",
"3  c #232327",
"4  c #212025",
"5  c #242326",
"6  c #242227",
"7  c #242327",
"8  c #212424",
"9  c #212524",
"0  c #212525",
"q  c #222524",
"w  c #222525",
"e  c #222526",
"r  c #232526",
"t  c #212626",
"y  c #222626",
"u  c #232726",
"i  c #222727",
"p  c #232727",
"a  c #242426",
"s  c #242427",
"d  c #252527",
"f  c #242627",
"g  c #242727",
"h  c #252727",
"j  c #232225",
"k  c #292624",
"l  c #222827",
"z  c #292924",
"x  c #2E2B24",
"c  c #2D2C25",
"v  c #2E2D25",
"b  c #2E2C26",
"n  c #2D2925",
"m  c #232228",
"M  c #242328",
"N  c #252328",
"B  c #222628",
"V  c #232728",
"C  c #252428",
"Z  c #252528",
"A  c #252429",
"S  c #262528",
"D  c #262529",
"F  c #262628",
"G  c #262629",
"H  c #272629",
"J  c #272729",
"K  c #26252A",
"L  c #27252A",
"P  c #27262A",
"I  c #27272A",
"U  c #27262B",
"Y  c #27272B",
"T  c #262529",
"R  c #28272A",
"E  c #28272B",
"W  c #28272C",
"Q  c #28262A",
"!  c #222828",
"~  c #232828",
"^  c #232829",
"/  c #242828",
"(  c #242929",
")  c #252A29",
"_  c #272B29",
"`  c #24292A",
"'  c #25292A",
"]  c #262A2A",
"[  c #262C2B",
"{  c #272C2B",
"}  c #262A29",
"|  c #282B29",
" . c #28282A",
".. c #28282B",
"X. c #29282B",
"o. c #29292B",
"O. c #2A292B",
"+. c #282C2A",
"@. c #282D2B",
"#. c #29282C",
"$. c #29292C",
"%. c #2A292C",
"&. c #2A282D",
"*. c #2A292D",
"=. c #2A2A2C",
"-. c #2A2A2D",
";. c #2B2A2D",
":. c #2B2B2D",
">. c #2B2A2E",
",. c #2B2B2E",
"<. c #2C2B2D",
"1. c #2C2A2E",
"2. c #2C2B2E",
"3. c #282D2C",
"4. c #2B2F2C",
"5. c #2A2E2D",
"6. c #2C2F2D",
"7. c #2C2C2E",
"8. c #2D2D2F",
"9. c #2B2A2D",
"0. c #312E27",
"q. c #312C26",
"w. c #322E2A",
"e. c #2E312A",
"r. c #2C302D",
"t. c #2D302D",
"y. c #2C302E",
"u. c #2D302E",
"i. c #2F332F",
"p. c #323229",
"a. c #363228",
"s. c #34322A",
"d. c #38342B",
"f. c #3A342A",
"g. c #3C392B",
"h. c #2E2E30",
"j. c #2E2D30",
"k. c #312F32",
"l. c #303032",
"z. c #333233",
"x. c #393737",
"c. c #393837",
"v. c #373638",
"b. c #393739",
"n. c #3C3B3B",
"m. c #403E3F",
"M. c #524F3B",
"N. c #57543A",
"B. c #403E40",
"V. c #464544",
"C. c #494746",
"Z. c #494846",
"A. c None",
"S. c black",
/* pixels */
"A.A.A.A.A.A.A.A.A.A.A.A.A.A.A.A.A.A.A.A.A.A.A.A.A.A.A.A.A.A.A.A.A.A.A.A.A.A.A.A.A.A.A.A.A.A.A.A.A.A.A.A.A.A.A.A.A.A.A.A.A.A.A.A.",
"A.A.A.A.A.A.A.A.A.A.A.A.A.A.A.A.A.A.A.A.A.A.A.A.A.A.A.A.A.A.A.A.A.A.A.A.A.A.A.A.A.A.A.A.A.A.A.A.A.A.A.A.A.A.A.A.A.A.A.A.A.A.A.A.",
"A.A.A.A.A.A.A.A.A.A.A.A.A.A.A.A.A.A.A.A.A.A.A.A.A.A.A.A.A.A.A.A.A.A.A.A.A.A.A.A.A.A.A.A.A.A.A.A.A.A.A.A.A.A.A.A.A.A.A.A.A.A.A.A.",
"A.A.A.A.A.A.A.A.A.A.A.A.A.A.A.A.A.A.A.A.A.A.A.A.A.A.A.A.A.A.A.A.A.A.A.A.A.A.A.A.A.A.A.A.A.A.A.A.A.A.A.A.A.A.A.A.A.A.A.A.A.A.A.A.",
"A.A.A.A.A.A.A.A.A.A.A.A.A.A.A.A.A.A.A.A.A.A.A.A.A.X X X O O X X $ $ $ X X X X A.A.A.A.A.A.A.A.A.A.A.A.A.A.A.A.A.A.A.A.A.A.A.A.A.",
"A.A.A.A.A.A.A.A.A.A.A.A.A.A.A.A.A.A.A.A.A.A.X X X m m X X O X X X O X X $ $ O X O A.A.A.A.A.A.A.A.A.A.A.A.A.A.A.A.A.A.A.A.A.A.A.",
"A.A.A.A.A.A.A.A.A.A.A.A.A.A.A.A.A.A.A.A.A.O $ $ + > $ O $ e A a ( > $ O X $ X O $ O A.A.A.A.A.A.A.A.A.A.A.A.A.A.A.A.A.A.A.A.A.A.",
"A.A.A.A.A.A.A.A.A.A.A.A.A.A.A.A.A.A.X X X X $ $ $ $ A &.$.&.&.] ] :.&.&.$.$ $ O $ X X X X A.A.A.A.A.A.A.A.A.A.A.A.A.A.A.A.A.A.A.",
"A.A.A.A.A.A.A.A.A.A.A.A.A.A.A.A.X X X $ $ X X M <.> ..&.<.......&.] &.:...a <...+ X + $ X X X A.A.A.A.A.A.A.A.A.A.A.A.A.A.A.A.A.",
"A.A.A.A.A.A.A.A.A.A.A.A.A.A.A.$ $ X X $ $ X M &.&.z ..Q a ..9.a $.$.a A ..] ....Q $ + $ $ X X $ X A.A.A.A.A.A.A.A.A.A.A.A.A.A.A.",
"A.A.A.A.A.A.A.A.A.A.A.A.A.A.X M A O X X $ A m A ] &.<.Q 7 > & $ $ > > A <.z...A > m % X X X $ $ O A.A.A.A.A.A.A.A.A.A.A.A.A.A.A.",
"A.A.A.A.A.A.A.A.A.A.A.A.A.+ X O $ X   $ & % m m &.] $ $ % % $ & $ % & > $ a &.> m m > > X X X X X O X A.A.A.A.A.A.A.A.A.A.A.A.A.",
"A.A.A.A.A.A.A.A.A.A.A.A.X $ $ O X X e ..> > 7 > % > $ + + O + & + + O + $ & > > M > > a &.O X X $ $ X X A.A.A.A.A.A.A.A.A.A.A.A.",
"A.A.A.A.A.A.A.A.A.A.O $ X X O X X $ A &.a > % > $ + $ & & & & & e & & & $ $ $ & % > e :.] > X X X X X $ o A.A.A.A.A.A.A.A.A.A.A.",
"A.A.A.A.A.A.A.A.A.A.$ $ $ $ $ $ + > > Q 1.> & + X & + + + & ) i.t.& + @ O & O O $ % &.A 7 > $ X $ $ $ $ $ A.A.A.A.A.A.A.A.A.A.A.",
"A.A.A.A.A.A.A.A.A.A.X X X X X X > > A A e > + # + l & @ @ & ) r.) l + @ @ & $ & + > > &.> 7 7 o X $ X X X A.A.A.A.A.A.A.A.A.A.A.",
"A.A.A.A.A.A.A.A.A.A.+ $ $ $ X $ A m > 7 % $ + d.4 l & v x & ) g.] e # p.& l @ a.% + % 7 7 7 7 % X $ $ $ $ A.A.A.A.A.A.A.A.A.A.A.",
"A.A.A.A.A.A.A.A.A.A.X $ $ O X m > > > > % + & a 9 ( 9 a e / [ & l ] 9 l 9 ] & l 7 + $ % 7 % 7 A X X $ $ $ S.A.A.A.A.A.A.A.A.A.A.",
"A.A.A.A.A.A.A.A.A.A.$ > $ $ $ A A > e > + @ :.t.t.] | r.t.3.( & l ) r.r.| ] r.r.t.a o % % 7 M Q $ $ $ $ $ S.S.S.A.A.A.A.A.A.A.A.",
"A.A.A.A.A.A.A.A.A.A.> &.& $ $ &.h.&.> $ O + + O O & @ O o @ ( & l e O O + e + O O & + + % 1.Q 1.j.$ $ & A S.S.S.A.A.A.A.A.A.A.A.",
"A.A.A.A.A.A.A.A.A.A.X $ + X 7 M A &.$ $ O & @ v @ e & k u & ) p.] e @ z + / @ v # & @ + % W 7 M U $ X $ $ X S.S.A.A.A.A.A.A.A.A.",
"A.A.A.A.A.A.A.A.A.X $ X X X 7 7 7 7 % + O & @ p.@ ] & z x & ) p.] e 4 v & ] @ 0.# l & + % % % M $ $ X X $ X S.S.A.A.A.A.A.A.A.A.",
"A.A.A.A.A.A.A.A.A.X U $ X + 7 M % % 4 + + l _ | ) { ) ) | ) l @ l ) | | ) ) ) | ] ] & X % % 7 L $ $ $ $ $ $ S.S.A.A.A.A.A.A.A.A.",
"A.A.A.A.A.A.A.A.A.X $ X X o % > $ $ $ o X e | | | ] | :.:.| & @ & ] | | | ( :.| | l + X + $ % % $ $ X X $ X S.S.A.A.A.A.A.A.A.A.",
"A.A.A.A.A.A.A.A.A.X $ $ > :.<.1.&.1.1.1.7 $ 4 4 k u u k # # @ 9 a / u k u u u # 4 # e ..<.<.1.1.j.<.U $ $ X A.A.A.A.A.A.A.A.A.A.",
"A.A.A.A.A.A.A.A.A.X $ > z.b.n.n.n.n.n.x.W X                 .                 .     > v.n.m.n.n.n.b.z.M $ o A.A.A.A.A.A.A.A.A.A.",
"A.A.A.A.A.A.A.A.A.X X $ A j.z.z.k.z.k.1.o                                           X ] k.k.z.z.z.j.U $ X X A.A.A.A.A.A.A.A.A.A.",
"A.A.A.A.A.A.A.A.A.X X X % ....1.A a 7 > o                                           X $ 7 a 1.Q j.A $ X X X A.A.A.A.A.A.A.A.A.A.",
"A.A.A.A.A.A.A.A.X $ $ X $ j.&.j.7 M % $ X                                             + > A z.Q v.> $ X $ & X A.A.A.A.A.A.A.A.A.",
"A.A.A.A.A.A.A.+ $ $ $ X m j.1.&.M M % $ X                                           X + > A z...z.% $ X $ > % $ A.A.A.A.A.A.A.A.",
"A.A.A.A.A.A.A.$ $ X $ X > 1.W 1.M L % $ o                                           X + > A z...z.> $ X X X m $ A.A.A.A.A.A.A.A.",
"A.A.A.A.A.A.A.+ $ X $ X & j.W j.% 7 % $ X                                           X + $ 7 j.A k.$ + X $ $ X $ A.A.A.A.A.A.A.A.",
"A.A.A.A.A.A.$ &.U $ > + > j.&.j.% % % $ X                                           X + > A k.Q z.7 $ o $ $ $ $ $ A.A.A.A.A.A.A.",
"A.A.A.A.A.A.X $ $ O X X 7 <.1.&.&.U % $ X                                           X o > Q z...z.> $ X X X $ $ O A.A.A.A.A.A.A.",
"A.A.A.A.A.A.S.$ $ O X X 7 <.&.1.% &.% $ X                                           X + > Q k...z.& $   X X X $ + $ A.A.A.A.A.A.",
"A.A.A.A.A.A.S.$ & O O X > 1.W j.% % $ $ X                                           X o $ 7 <.Q k.$ $ X O X $ j.Q > $ A.A.A.A.A.",
"A.A.A.A.S.S.S.$ $ X X X 7 k.1.j.% % % % .                                           X + > A l.$.v.% $ X X X X $ $ + A.A.A.A.A.A.",
"A.A.A.A.S.S.S.S.X $ X X a <.% z.m.&.% % .                                           X + > $ z.c.j.$ $ X X $ X X A.A.A.A.A.A.A.A.",
"A.A.A.A.S.S.S.S.S.$ & $ 7 <.+ ..&.% % $ # d.                                      s.: + $ $ m &.7 $ $ X $ $ A.A.A.A.A.A.A.A.A.A.",
"A.A.A.A.S.S.S.S.S.X $ X > <.$ + % o $ o # N..                                   o M.g.+ $ $ X $ + $ $ X X X A.A.A.A.A.A.A.A.A.A.",
"A.A.A.A.A.A.A.A.A.X X X & j.+ Q k.$ $ + k q.+                                     n n + 4 4 k j.$ $ $ X X X A.A.A.A.A.A.A.A.A.A.",
"A.A.A.A.A.A.A.A.X X X X & j.+ z.m.% % $ + n o                                   X n % $ > 7 &.M.& $ $ X X X X A.A.A.A.A.A.A.A.A.",
"A.A.A.A.A.A.$ $ $ X X X m j.$ 1.m.M % $ . q..                                   . # # o > > A n.& $ $ X X $ $ $ + A.A.A.A.A.A.A.",
"A.A.A.A.A.A.$ $ $ $ $ X $ j.% 1.n % % $ o n                                       # % o % $ 4 w.U $ X X $ $ X $ $ A.A.A.A.A.A.A.",
"A.A.A.A.A.A.X X X $ X X 7 1.% 9.k.7 % % o .                                       . o o % % % z.% % $ X X X X X X A.A.A.A.A.A.A.",
"A.A.A.A.A.A.A.X $ X O O 7 9.Q 7 + % 7 + o     .                             .       X $ % U % @ M m $ X $ X $ $ $ $ A.A.A.A.A.A.",
"A.A.A.A.A.A.A.X $ $ X X 4 Q ..7 o 7 7 $ o   o o o o .                     X     .   o o M U M o W % $ X X $ $ X X $ A.A.A.A.A.A.",
"A.A.A.A.A.A.A.$ o X X X $ a 7 Q : 7 4 $ o o % + o o . X X . X .         X X X   . . o $ % M A 7 j.% $ X X X X $ X A.A.A.A.A.A.A.",
"A.A.A.A.A.A.A.> $ O % $ j.n.1.v.n.w...c.A 7 N 7 : $ + + + o o o X . o . o + + o . o a n.v.z z.n.j.z.v.> $ $ $ $ $ A.A.A.A.A.A.A.",
"A.A.A.A.A.A.A.X X X + $ % j.> Q x.: 7 1.$ Q Q Q 7 @ @ % % % % . . $ % % % @ o + + 4 + &.j.4 ..v.$ A a $ $ X X X X A.A.A.A.A.A.A.",
"A.A.A.A.A.A.A.X X X O $ 4 j.... o o 1.W $ Q N : % N L L Q Q N % % U n L 7 % 7 M A Q $ ..k.a X   + j.7 + $   X X X A.A.A.A.A.A.A.",
"A.A.A.A.A.A.A.$ O X X + + c.1...W Q 1.k.% b.z.o % Q Q Q % # k k N N % % $ $ Q A a Q % <.z...Q W &.x.% + X X $ X X A.A.A.A.A.A.A.",
"A.A.A.A.A.A.X X X $ M % z.C.C.V.V.V.V.C.k.w.Q w.m.w.d.k.Q x.z.z.x.n .       .       7 V.C.C.V.V.C.Z.c.7 M $ X X X A.A.A.A.A.A.A.",
"A.A.A.A.A.O X $ X o % % c.B.B.n.m.B.m.B.b.o . x.m.m.m.m.z.w.z.% o                 . k.m.B.B.m.m.m.m.m.W $ + X $ $ X A.A.A.A.A.A.",
"A.A.A.A.A.X O X X X X % W A A W W W A W A +   + . o . o . . .       .             o 7 Q M M W A A Q A % o o X o X X A.A.A.A.A.A.",
"A.A.A.A.A.A.X X X X o o o + o + o + o o + o A.A.S.S.S.S.S.S.A.A.A.A.A.A.A.A.A.A.A.A.o o $ o o + + + + o X o X X X X A.A.A.A.A.A.",
"A.A.A.A.A.A.A.A.A.A.A.A.A.A.A.A.A.A.A.A.A.A.A.A.A.A.A.A.A.A.A.A.A.A.A.A.A.A.A.A.A.A.A.A.A.A.A.A.A.A.A.A.A.A.A.A.A.A.A.A.A.A.A.A.",
"A.A.A.A.A.A.A.A.A.A.A.A.A.A.A.A.A.A.A.A.A.A.A.A.A.A.A.A.A.A.A.A.A.A.A.A.A.A.A.A.A.A.A.A.A.A.A.A.A.A.A.A.A.A.A.A.A.A.A.A.A.A.A.A.",
"A.A.A.A.A.A.A.A.A.A.A.A.A.A.A.A.A.A.A.A.A.A.A.A.A.A.A.A.A.A.A.A.A.A.A.A.A.A.A.A.A.A.A.A.A.A.A.A.A.A.A.A.A.A.A.A.A.A.A.A.A.A.A.A.",
"A.A.A.A.A.A.A.A.A.A.A.A.A.A.A.A.A.A.A.A.A.A.A.A.A.A.A.A.A.A.A.A.A.A.A.A.A.A.A.A.A.A.A.A.A.A.A.A.A.A.A.A.A.A.A.A.A.A.A.A.A.A.A.A.",
"A.A.A.A.A.A.A.A.A.A.A.A.A.A.A.A.A.A.A.A.A.A.A.A.A.A.A.A.A.A.A.A.A.A.A.A.A.A.A.A.A.A.A.A.A.A.A.A.A.A.A.A.A.A.A.A.A.A.A.A.A.A.A.A.",
"A.A.A.A.A.A.A.A.A.A.A.A.A.A.A.A.A.A.A.A.A.A.A.A.A.A.A.A.A.A.A.A.A.A.A.A.A.A.A.A.A.A.A.A.A.A.A.A.A.A.A.A.A.A.A.A.A.A.A.A.A.A.A.A.",
"A.A.A.A.A.A.A.A.A.A.A.A.A.A.A.A.A.A.A.A.A.A.A.A.A.A.A.A.A.A.A.A.A.A.A.A.A.A.A.A.A.A.A.A.A.A.A.A.A.A.A.A.A.A.A.A.A.A.A.A.A.A.A.A.",
"A.A.A.A.A.A.A.A.A.A.A.A.A.A.A.A.A.A.A.A.A.A.A.A.A.A.A.A.A.A.A.A.A.A.A.A.A.A.A.A.A.A.A.A.A.A.A.A.A.A.A.A.A.A.A.A.A.A.A.A.A.A.A.A."
};
