/* XPM */
static char *xpm_[] = {
/* columns rows colors chars-per-pixel */
"64 64 244 2 ",
"   c #2C2708",
".  c #332808",
"X  c #363109",
"o  c #2C2516",
"O  c #332C1C",
"+  c #362A17",
"@  c #36331A",
"#  c #1E2E3A",
"$  c #1E393C",
"%  c #2D2B23",
"&  c #2D2C2C",
"*  c #282827",
"=  c #342B24",
"-  c #332D2B",
";  c #392A28",
":  c #2B3229",
">  c #343224",
",  c #3A3225",
"<  c #34332B",
"1  c #3B342C",
"2  c #393A29",
"3  c #2C2C32",
"4  c #252D3B",
"5  c #282D37",
"6  c #322D35",
"7  c #293339",
"8  c #33343B",
"9  c #3C3A3C",
"0  c #393737",
"q  c #473816",
"w  c #4B320D",
"e  c #6F1C31",
"r  c #453B2D",
"t  c #47382A",
"y  c #482836",
"u  c #423C34",
"i  c #433C3A",
"p  c #483933",
"a  c #4F302B",
"s  c #682938",
"d  c #722A32",
"f  c #602324",
"g  c #3A423D",
"h  c #5B4B1B",
"j  c #584B12",
"k  c #685818",
"l  c #694E12",
"z  c #77641A",
"x  c #6D621C",
"c  c #47422B",
"v  c #574A28",
"b  c #5B542C",
"n  c #494538",
"m  c #564839",
"M  c #585339",
"N  c #485132",
"B  c #675929",
"V  c #675A3A",
"C  c #6C5430",
"Z  c #766628",
"A  c #766838",
"S  c #6D642B",
"D  c #1C2F46",
"F  c #252E45",
"G  c #293646",
"H  c #333543",
"J  c #343943",
"K  c #3D3B43",
"L  c #383A4A",
"P  c #273958",
"I  c #303554",
"U  c #2B3A6A",
"Y  c #1A2E61",
"T  c #423E44",
"R  c #453C48",
"E  c #573D44",
"W  c #733144",
"Q  c #394448",
"!  c #364457",
"~  c #294248",
"^  c #384768",
"/  c #374C76",
"(  c #484747",
")  c #554D47",
"_  c #575647",
"`  c #4A4A54",
"'  c #524C57",
"]  c #4A5559",
"[  c #565658",
"{  c #46524E",
"}  c #665B46",
"|  c #655C54",
" . c #614F4B",
".. c #5E6148",
"X. c #6A6446",
"o. c #756A47",
"O. c #7B734A",
"+. c #656354",
"@. c #676456",
"#. c #736A59",
"$. c #787559",
"%. c #6C7151",
"&. c #465569",
"*. c #465775",
"=. c #515667",
"-. c #655761",
";. c #5A646A",
":. c #536878",
">. c #676968",
",. c #787867",
"<. c #687579",
"1. c #797A78",
"2. c #6C6C72",
"3. c #861A2E",
"4. c #892638",
"5. c #972B37",
"6. c #902F34",
"7. c #88793B",
"8. c #8A7135",
"9. c #956726",
"0. c #912C44",
"q. c #877947",
"w. c #857757",
"e. c #8F714D",
"r. c #AB7651",
"t. c #847D68",
"y. c #827D73",
"u. c #9D7A66",
"i. c #975667",
"p. c #7A847B",
"a. c #758370",
"s. c #7D815E",
"d. c #94853C",
"f. c #A88B37",
"g. c #9A884A",
"h. c #958A58",
"j. c #958C51",
"k. c #A8974A",
"l. c #A48D57",
"z. c #A69659",
"x. c #B49C56",
"c. c #B18A4B",
"v. c #B8A256",
"b. c #B7AB50",
"n. c #86876A",
"m. c #988C66",
"M. c #99956A",
"N. c #898675",
"B. c #938B74",
"V. c #8D9377",
"C. c #9A9877",
"Z. c #A79867",
"A. c #A59C78",
"S. c #B4936D",
"D. c #9DA179",
"F. c #B8A968",
"G. c #A3A27C",
"H. c #AAA376",
"J. c #B7A877",
"K. c #B8B173",
"L. c #C29853",
"P. c #C6AA5A",
"I. c #CCB958",
"U. c #D5B858",
"Y. c #D0B249",
"T. c #C49A72",
"R. c #C5A863",
"E. c #C9B668",
"W. c #D4B867",
"Q. c #C8B879",
"!. c #D4BA74",
"~. c #D1AE75",
"^. c #E3BC66",
"/. c #E1C458",
"(. c #D8C469",
"). c #D7C476",
"_. c #D1C778",
"`. c #E6CA68",
"'. c #E8D26C",
"]. c #E7C973",
"[. c #E8D678",
"{. c #F8DB79",
"}. c #F1CC72",
"|. c #F8E379",
" X c #EEE07D",
".X c #465683",
"XX c #536A91",
"oX c #777B89",
"OX c #6B7888",
"+X c #857C8B",
"@X c #778689",
"#X c #75898E",
"$X c #7084A7",
"%X c #898888",
"&X c #989988",
"*X c #889798",
"=X c #919A97",
"-X c #91918C",
";X c #A69D85",
":X c #A29E92",
">X c #9CA28B",
",X c #ADAB8B",
"<X c #A9A686",
"1X c #B4A987",
"2X c #B6B48A",
"3X c #ABA794",
"4X c #B3AE93",
"5X c #B5B393",
"6X c #BCBC95",
"7X c #B9B799",
"8X c #AAB28E",
"9X c #9092A9",
"0X c #98A9AA",
"qX c #BABAA7",
"wX c #ABB2B2",
"eX c #C6B986",
"rX c #C5BC97",
"tX c #D2B88E",
"yX c #C3BCA2",
"uX c #C3B8B3",
"iX c #BDC193",
"pX c #D4C886",
"aX c #C9C396",
"sX c #D9CD97",
"dX c #D3CB89",
"fX c #E8CC86",
"gX c #E7D688",
"hX c #F6DA87",
"jX c #EADA95",
"kX c #FBDD97",
"lX c #E3CE94",
"zX c #FCE483",
"xX c #F6E689",
"cX c #FAE496",
"vX c #EDE28A",
"bX c #C3C2A5",
"nX c #CECAB2",
"mX c #ECDBA6",
"MX c #F4E4A7",
"NX c #EEE5A9",
"BX c #A8B1CB",
"VX c #C2BACD",
"CX c #C6C1D5",
"ZX c None",
/* pixels */
"ZXZXZXZXZXZXZXZXZXZXZXZXZXZXZXZXZXZXZXZXZXZXZXZXZXZXZXZXZXZXZXZXZXZXZXZXZXZXZXZXZXZXZXZXZXZXZXZXZXZXZXZXZXZXZXZXZXZXZXZXZXZXZXZX",
"ZXZXZXZXZXZXZXZXZXZXZXZXZXZXZXZXZXZXZXZXZXZXZXZXZXZXZXZXZXZXZXZXZXZXZXZXZXZXZXZXZXZXZXZXZXZXZXZXZXZXZXZXZXZXZXZXZXZXZXZXZXZXZXZX",
"ZXZXZXZXZXZXZXZX, t r ZXZXZXZXZXZXZXZXZXZXZXZXZXZXZXZXZXZXZXZXZXZXZXZXZXZXZXZXZXZXZXZXZXZXZXZXZXZXZXZXZXZXZXZXZXZXZXZXZXZXZXZXZX",
"ZXZXZXZXZXZX9 > m.eXX.; ZXZXZXZXZXZXZXZXZXZXZXZXZXZXZXZXZXZXZXZXZXZXZXZXZXZXZXZXZXZXZXZXZXZXZXZXZXZXZXZXZXZXZXZXZXZXZXZXZXZXZXZX",
"ZXZXZXZXZXK n q F.cXr.q i ZXZXZXZXZXZXZXZXZXZXZXZXZXZXZXZXZXZXZXZXZXZXZXZXZXZXZXZXZXZXZXZXZXZXZXZXZXZXZXZXZXZXZXZXZXZXZXZXZXZXZX",
"ZXZXZXZXJ < h.F._.xX!.J.#.6 ZXZXZXZXZXZXZXZXZXZXZXZXZXZXZXZXZXZXZXZXZXZXZXZXZXZXZXZXZXZXZXZXZXZXZXZXZXZXZXZXZXZXZXZXZXZXZXZXZXZX",
"ZXZXZXZXK > z.I.'.|./.E.w.- T ZXZXZXZXZXZXZXZXZXZXZXZXZXZXZXZXZXZXZXZXZXZXZXy y a ZXZXZXZXZXZXZXZXZXZXZXZXZXZXZXZXZXZXZXZXZXZXZX",
"ZXZXZX| 0 . k.I. X X`.W.q.+ p ZXZXZXZXZXZXZXZXZXZXZXZXZXZXZXZXZXZXZX- 6 y y s d W s y ; 6 ZXZXZXZXZXZXZXZXZXZXZXZXZXZXZXZXZXZXZX",
"ZXZX' ) } q.7.d.'.xXR.g.q.A X.n ZXZXZXZXZXZXZXZXZXZXZXZXZXZXZXZX) ) #.a y W e 3.0.d s E -.) ZXZXZXZXZXZXZXZXZXZXZXZXZXZXZXZXZXZX",
"ZXZXL 6 eXMXZ w v.cXq.. l.NXM.@ ZXZXZXZXZXZXZXZXZXZXZXZXZXZXZX<.%XwXuXw.e 4.0.5.5.0.0.i.qX*XG D ZXZXZXZXZXZXZXZXZXZXZXZXZXZXZXZX",
"ZXZX6 u tXlXC . F.kXt.. j.NXM.X ZXZXZXZXZXZXZXZXZXZXZXF P U / XXXXoX$X-.e 3.5.5.3.0.0.i.9X$X/ / / / ZXZXZXZXZXZXZXZXZXZXZXZXZXZX",
"ZXZX8 ; tXMXA w v.cXe.. j.NXZ.o i ZXZXZXZXZXZXZXZXZXF F I .X.X.X.X*.&.E e 5.5.3.3.3.0.W &./ XXXXXX.XI ZXZXZXZXZXZXZXZXZXZXZXZXZX",
"ZXZXZXE @.O.m.F.).xXE.F.m.X. .) ZXZXZXZXZXZXZXZXZX3 0 ;.>.#X0X#X9X=XD.A e 3.4.e e 4.0.i.tX<X=X*X9X*XG ZXZXZXZXZXZXZXZXZXZXZXZXZX",
"ZXZXZX| 9 O 1XMXvXxXhXMXn.O ( ZXZXZXZXZXZXZXZXZX- 1 g $.-X8XiXqXqXyXK.8.f e e e f e 4.r.kXjX6XqXwX0XQ ZXZXZXZXZXZXZXZXZXZXZXZXZX",
"ZXZXZXZXZX_ m b k.(.q.C  .' ZXZXZXZXZXZXZXZXZX>.,.w.%.X.X.+.+.,.2.;X_.!.^.r.h h h 8.L.^.hX).O.>.OXXXG ZXZXZXZXZXZXZXZXZXZXZXZXZX",
"ZXZXZXZXZX[ n j k.(.8.a ) [ ZXZXZXZXZXZXZXZXK 1.N.a.n.M M V } ) M C.F.Q.hXl.l Z z 7.R.^.}.!.B X.;.*.! ZXZXZXZXZXZXZXZXZXZXZXZXZX",
"ZXZXZXZXK , J.fXgXcXsXsXn.- T ZXZXZXZXZXZXZX4 L L J g M b eXlX8.b x x k Z l.P.W. Xk.x S 9.7.fXQ._ { &./ ZXZXZXZXZXZXZXZXZXZXZXZX",
"ZXZXZXZXH , z.pXeXrXdXiX%.% ( ZXZXZXZXZXZXZXH ! Q Q ( N B pX[.f.Z Z Z k j g.W.`.|.I.h h Z 7.jXfXS { <.<.7 ZXZXZXZXZXZXZXZXZXZXZX",
"ZXZXZXZXL & , = =.=.Q 2 : : ( ZXZXZXZXZXZXZXQ p.#X-Xa.b k v.(.I.I.E.E.d.l d.^.}.xXE.j 7.E._.kX).h A 3X0X{ ZXZXZXZXZXZXZXZXZXZXZX",
"ZXZXZXZXZXZX8 5 U .XL * 9 Q ZXZXZXZXZXZXZX7 g ;.+.$.w.q.7.f.f.I.~.x.d.k j 8.c.L.R.d.j b g.k.R.F.g.h.M.V.g ZXZXZXZXZXZXZXZXZXZXZX",
"ZXZXZXZXZXZXZX4 Y Y D 7 ( ZXZXZXZXZXZXZX7 G # 7 n N b F.I.z l x.~.Z + @ @ v j l l v + > + @ k 8.kXfXS b : ZXZXZXZXZXZXZXZXZXZXZX",
"ZXZXZXZXZXZXZX7 U / ! $ Q ZXZXZXZXZXZXZXQ &.;.;._ _ S K.b.z l x.!.k o O O V g.c.Z.O.O < > @ B Z !.!.k b 2 ZXZXZXZXZXZXZXZXZXZXZX",
"ZXZXZXZXZXZXZX5 / / P D ` ZXZXZXZXZXZXZXQ #X#X#XN._ V K._.Z l b.E.z X X X d.W.).MXv.X   X q h Z W.R.V n < ZXZXZXZXZXZXZXZXZXZXZX",
"ZXZXZXZXZXZXZXZX! ! I G G ZXZXZXZXZXZXZXg { ] [ { 0 c o.A x l x.(.k.j.h.j.v.I.'.xX_.j.j.h.j.h B 8.A ..{ < ZXZXZXZXZXZXZXZXZXZXZX",
"ZXZXZXZXZXZXZXZXZXD P P D # ZXZXZXZXZXZX7 8 H 8 H H 0 m M b B S.Q.~.Q.Q.Q.E.R.pXjXpXeXeXeXS.b b b N ] :.5 ZXZXZXZXZXZXZXZXZXZXZX",
"ZXZXZXZXZXZXZXZXZX4 ! ^ ! $ ZXZXZXZXZX3 K 1.<.oXOX<.OX1.a.n + O.m.m.m.m.m.A v h b o.m.m.B.w.@ n s.#X0XBX! ZXZXZXZXZXZXZXZXZXZXZX",
"ZXZXZXZXZXZXZXZXZX% Q =.Q 7 ZXZXZXZXZX< ( p.OX#X#X#X#Xa.<.g 8 2.1.y.y.+X+X' ; , * ) +X+Xy.-.8 J p.#XBX$X! ZXZXZXZXZXZXZXZXZXZXZX",
"ZXZXZXZXZXZXZXZXZX@ g { 9 5 ZXZXZXZXZX: < 7 g g D ~ $ ~ ~ G F G 0 >.+XwXVX2.6 * H -.VX9XH H F G ~ ~ *.:./ &.ZXZXZXZXZXZXZXZXZXZX",
"ZXZXZXZXZXZXZXZXZX= c m r 6 ZXZXZXZXZX3 0 Q { ] ] $ $ ~ $ # J 4 3 2.oX9XVX+X' ' ` +XVX9X3 8 F D D ! :.:.:.<.J ZXZXZXZXZXZXZXZXZX",
"ZXZXZXZXZXZXZXZXZX, s m p ; R ZXZXZXZX8 Q p.-XwX0Xg * o % : % % * 2.%XwXVXVXuXuXuXVXVX-X% % 7 H 7 Q #X#XBXwX{ ZXZXZXZXZXZXZXZXZX",
"ZXZXZXZXZXZXZXZXZX- p m t - R ZXZXZXZX3 0 >.>.N.s.X.A S Z S C A V } +.1.y.3XrXtXnX4Xy.N.X.M % & ; 0 ;.<.p.a.ZXZXZXZXZXZXZXZXZXZX",
"ZXZXZXZXZXZXZXZXZX& t p p - R ZXZXZXZX< < O @   j F.W.W.I.W.!.~.tXC   @ O w.eXpXMXA.+ V K.z.X + + O & 4 : ZXZXZXZXZXZXZXZXZXZXZX",
"ZXZXZXZXZXZXZXZXZX1 a m p ; T ZXZXZXZXZXc w.7.7.d.).}.}.`.}.}.].}.k.7.b   w.E.'.cXZ.@ } pX(.z.l.z.e.u 0 6 ZXZXZXZXZXZXZXZXZXZXZX",
"ZXZXZXZXZXZXZXZXZX, a m t ; T ZXZXZXZXZXb Q.!.E.^.hXzXzX|.zX{.zX{.`.!.A o t.2X_.NXA.+ o.vXvXcXkXjXdXv O , ZXZXZXZXZXZXZXZXZXZXZX",
"ZXZXZXZXZXZXZXZXZX; p m t ; T ZXZXZXZXZXv Q.b.x z gXvX|.|.|.|.zXzXhXfX8.+ ( [ <.@X;.- A xX{.{.hX|.hXF.F.F.F.ZXZXZXZXZXZXZXZXZXZX",
"ZXZXZXZXZXZXZXZXZX; a p t ; 9 ZXZXZXZXZXb 2Xh.j l dXjXjXgX[.gXgXfXkXkXe.q : G ! *.Q > o.lXkXhXhX[.[.jXjXxXgXb ZXZXZXZXZXZXZXZXZX",
"ZXZXZXZXZXZXZXZXZX; r m t ; 0 ZXZXZXZXZXZXm v O.%.b M m m V m b b K.vX[.pX$.< 8 : %.aXH.M v v v v B v C E.!.v ZXZXZXZXZXZXZXZXZX",
"ZXZXZXZXZXZXZXZXZXZXp p t , u T ZXZXZXZXZXZXm B.B.n p i n c r r g D.dXpXsXO.% %   %.sXA.a n c c r r ; p z.Z.ZXZXZXZXZXZXZXZXZXZX",
"ZXZXZXZXZXZXZXZXZXZXt t p n 9 3 9 ZXZXZXZX&X3X4X5X<X&X,X5X8X5X5X2XX.2 c u > ; > @ @ t @.3X7X8X7X7X3XH * 2 @ ZXZXZXZXZXZXZXZXZXZX",
"ZXZXZXZXZXZXZXZXZXZXp O r m i & 0 i ( M X.A.C.7X5Xn.n.<X8X2X7X5X5X%.m n ) ( m m m ) c $.qX5XiX5X7X=XK 8 ( { ( ZXZXZXZXZXZXZXZXZX",
"ZXZXZXZXZXZXZXZXZXZXu ; t m u > O o b Q.K.z.h.;XC.1 @ s.M.D.C.<XH.D.D.D.>X&X;X;X;X;X;X;XD.D.G.G.G.V.2 0 -X&Xg ZXZXZXZXZXZXZXZXZX",
"ZXZXZXZXZXZXZXZXZXZXu = , r 1 = v A d._._.F.K.C.B., 2 n.V.<X2X<X1XK.K.H.,X,X4X1X1X4X3X,X8X<X8XG.$.%..._ <XG.j.$.ZXZXZXZXZXZXZXZX",
"ZXZXZXZXZXZXZXZXZXZXi , O , = + } eX).xXxXhXsXm.n.r 0 &X3X7XaXrXrX6XiXiXiX6XrXrX6X6X6XiX6XiXyX<X> g A.J.Q.tXjXjX .ZXZXZXZXZXZXZX",
"ZXZXZXZXZXZXZXZXZXZX) | #.t.t.t.t.S g.xX[.xXsXo.) ZXZX[ | &X1X1X1X2X,X2X1X2X8X8X8X8XK.,X1XC.,.+.> c H.R.W.U.{.kXV o ZXZXZXZXZXZX",
"ZXZXZXZXZXZXZXZXZX8 +.N.3XyXyXyXt.X Z vXvXcXrXZXZXZXZXZX< B.A.<XG.G.;XA.A.<XG.D.G.G.A.<X<Xy.> % > c J.E.U.U.{.{.C t ( ZXZXZXZXZX",
"ZXZXZXZXZXZXZXZXZX3 @.B.A.,X,X3Xy.O S NXpXA } ZXZXZXZXZX& B.<X<X7X5X7X7X5X5X2X2X2X7X5XB.) _ ( ZX[ ) B z Y.Y././.~.4X@.0 ZXZXZXZX",
"ZXZXZXZXZXZXZXZXZX: +.N.C.A.G.<Xy.o V mX1XZXZXZXZXZXZXZXZXN.<X4X5X6X6XyXrX6XeXaX2X6XqX%XZXZXZXZXZXZX= j x.I.Y.I.jXmXo.@ 9 ZXZXZX",
"ZXZXZXZXZXZXZXZXZX& +.B.<XrXrXqXN.> , m ZXZXZXZXZXZXZXZXZXZXn $.C.D.<X<X<X;XG.H.1Xn.n ZXZXZXZXZXZXZX- @ K.(.I.I.(.tXJ.,X+.6 L ZX",
"ZXZXZXZXZXZXZXZXZXZX_ ,.C.<X3X3X,.- ; - ZXZXZXZXZXZXZXZXZXZXo ,.V.C.<X<X;X;X;XS.,X$.+ ZXZXZXZXZXZX` u v A.E.K.K.Q.2X2XbX+.% Q ZX",
"ZXZXZXZXZXZXZXZXZXZX( 2 > 2 1 2 u * 8 ZXZXZXZXZXZXZXZXZXZXZX< n.<X5XrXrXrXrXyXuXyXN.O ZXZXZXZXZX8 K y.n.m.h.h.h.h.M.2XbXX.* K ZX",
"ZXZXZXZXZXZXZXZXZXZXZX% = 2 1 = & L L ZXZXZXZXZXZXZXZXZXZXZX< a.C.J.2X2X6X5X1XrX5Xn.= 0 ZXZXZXZXL T >.#.B.B.n.m.M.M.8XbX+.- R ZX",
"ZXZXZXZXZXZXZXZXZXZXZX- i m r - H ` ZXZXZXZXZXZXZXZXZXZXZX9 > #.h.A.1XA.A.G.;X1XD.$.+ R ZXZXZXZXZX[ < u y.B.B.B.7X6XbXqX+.& L ZX",
"ZXZXZXZXZXZXZXZXZXZXZXZXi i t t i 9 ZXZXZXZXZXZXZXZXZXZX) y q u.T.8.e.T.tXS.r.;XtXS.y E E ` ZXZXZXZX( ( | | #.| ,.y.n.p.[ 9 ZXZX",
"ZXZXZXZXZXZXZXZXZXZXZXZXT ; t m r O 9 ZXZXZXZXZXZXZXZXy a a f S.tX9.f S.kXf.l r.MXT.d E ; 0 ZXZXZXZXZXZX1 O % % - * * & K ZXZXZX",
"ZXZXZXZXZXZXZXZXZXZXZXZXZX; q t t + i ZXZXZXZXZXZXZXR | } w.e.~.}.L.9.Y.`.Y.r.~.kXT.a a ; K ZXZXZXZXZXZX` ) ( ` ZXZXZXZXZXZXZXZX",
"ZXZXZXZXZXZXZXZXZXZXZXZXZX+ q h t + 0 ZXZXZXZXZXZXZX8 p.N.A.S.lXkX^.^.Y.Y.Y./.}.kXS.w q - T [ ZXZXZXZXZXZXZXZXZXZXZXZXZXZXZXZXZX",
"ZXZXZXZXZXZXZXZXZXZXZXZXZX+ C Z.O.+ ZXZXZXZXZXZXZXZX@ >X5X8X6XO.C x.W.(.|.'.zXv.B X.,.t.-Xy.1 ( ZXZXZXZXZXZXZXZXZXZXZXZXZXZXZXZX",
"ZXZXZXZXZXZXZXZXZXZXZXZXZXq A _.M.@ ZXZXZXZXZXZXZX@ g <X7X4X5Xm . h.W.'.|.xXcXg.  m n.>XnX&Xg n =.ZXZXZXZXZXZXZXZXZXZXZXZXZXZXZX",
"ZXZXZXZXZXZXZXZXZXZXZXZXZXo q.NXM.X ZXZXZXZXZXZXZXs.n.&X3X_ R ; w l.W.'.|.hXcXl.+ _ V.V.3X>XV.a.8 L ZXZXZXZXZXZXZXZXZXZXZXZXZXZX",
"ZXZXZXZXZXZXZXZXZXZXZXZXZXX s.jXZ.@ ZXZXZXZXZX7 g <.oX-X*XR 6 ; + g.W.`.{.{.kXl.@ n a.a.p.#X*X#XH L ZXZXZXZXZXZXZXZXZXZXZXZXZXZX",
"ZXZXZXZXZXZXZXZXZXZXZXZXZX= o.aXm.+ ; ZXZX7 F G D P P / *.F 6 < + h.(./.U.[.kXl.o & 7 : P ^ .X.X*.&.H ZXZXZXZXZXZXZXZXZXZXZXZXZX",
"ZXZXZXZXZXZXZXZXZXZXZXZXZX0 X.M.#.0 i ZX( 4 4 G D ~ P ^ &.! H 9 r O.j.g.k.x.J.w.< 8 Q Q D P / / &.! 4 8 ZXZXZXZXZXZXZXZXZXZXZXZX",
"ZXZXZXZXZXZXZXZXZXZXZXZXZXR r @ i ( ZXZXL H 3 5 3 7 D F J ] =.ZX| ( ; O @ O , - 3 K =.{ 5 5 H F F G F H ZXZXZXZXZXZXZXZXZXZXZXZX",
"ZXZXZXZXZXZXZXZXZXZXZXZXZXZXZX0 ZXZXZXZXZXR i Q n g Q 8 J ZXZXZXZXR 8 0 J 0 8 L L Q ZX( 0 < 1 K L G J H ZXZXZXZXZXZXZXZXZXZXZXZX"
};
