/* XPM */
static char *xpm_[] = {
/* columns rows colors chars-per-pixel */
"64 64 248 2 ",
"   c #2D291A",
".  c #362C19",
"X  c #373316",
"o  c #2F2909",
"O  c #2D2D2D",
"+  c #2B2823",
"@  c #332C24",
"#  c #372A2A",
"$  c #2D3329",
"%  c #3C3324",
"&  c #38352C",
"*  c #2B2C33",
"=  c #272C3B",
"-  c #332D33",
";  c #372C38",
":  c #2B3334",
">  c #283439",
",  c #343434",
"<  c #3B3534",
"1  c #34343D",
"2  c #3B3A3B",
"3  c #3A3839",
"4  c #1C3427",
"5  c #48371A",
"6  c #462D1F",
"7  c #7A1A2C",
"8  c #4A3929",
"9  c #433B34",
"0  c #463739",
"q  c #55373D",
"w  c #4F2B2F",
"e  c #792737",
"r  c #6D2D35",
"t  c #692B0F",
"y  c #3A433A",
"u  c #324233",
"i  c #3E421D",
"p  c #584C16",
"a  c #51460F",
"s  c #665619",
"d  c #725615",
"f  c #7D6B18",
"g  c #4A472A",
"h  c #554729",
"j  c #5C542A",
"k  c #484639",
"l  c #554737",
"z  c #575537",
"x  c #4D512F",
"c  c #614D25",
"v  c #675727",
"b  c #625737",
"n  c #6E532B",
"m  c #696539",
"M  c #796839",
"N  c #7B7539",
"B  c #7C7024",
"V  c #1D2F48",
"C  c #2A2C43",
"Z  c #293546",
"A  c #383A45",
"S  c #273554",
"D  c #313252",
"F  c #463B49",
"G  c #4C3F52",
"H  c #7A2F4C",
"J  c #3C4748",
"K  c #394659",
"L  c #2F454C",
"P  c #354C6E",
"I  c #356070",
"U  c #43424A",
"Y  c #4A444C",
"T  c #464946",
"R  c #544A48",
"E  c #495347",
"W  c #585849",
"Q  c #444352",
"!  c #4C4856",
"~  c #544959",
"^  c #495357",
"/  c #575757",
"(  c #635B48",
")  c #645C56",
"_  c #784850",
"`  c #5B6155",
"'  c #65654C",
"]  c #766A46",
"[  c #7C7749",
"{  c #696757",
"}  c #776B56",
"|  c #7A7659",
" . c #6D7053",
".. c #4B5566",
"X. c #5A5C66",
"o. c #445777",
"O. c #53516D",
"+. c #615D66",
"@. c #725166",
"#. c #596463",
"$. c #50696C",
"%. c #686566",
"&. c #756C66",
"*. c #797568",
"=. c #79787A",
"-. c #6E6F73",
";. c #872C39",
":. c #861B37",
">. c #834230",
",. c #89793B",
"<. c #8B6E33",
"1. c #95662A",
"2. c #8F3046",
"3. c #98514F",
"4. c #887948",
"5. c #857656",
"6. c #90734A",
"7. c #887D65",
"8. c #837C77",
"9. c #956C7A",
"0. c #A66945",
"q. c #7D8474",
"w. c #7D825A",
"e. c #9B873B",
"r. c #8F832F",
"t. c #AE9B35",
"y. c #98854B",
"u. c #8B8856",
"i. c #998957",
"p. c #999357",
"a. c #A99B5B",
"s. c #B69A57",
"d. c #AD964C",
"f. c #BBA65A",
"g. c #B7A74E",
"h. c #898668",
"j. c #978B66",
"k. c #9A9568",
"l. c #8B8474",
"z. c #8B8A75",
"x. c #948C78",
"c. c #8D917A",
"v. c #9B9978",
"b. c #A39A67",
"n. c #A69A76",
"m. c #B4956E",
"M. c #9FA376",
"N. c #A5A369",
"B. c #B7A668",
"V. c #BEB36B",
"C. c #A7A57A",
"Z. c #B8A879",
"A. c #B9B278",
"S. c #CEB55A",
"D. c #DAB958",
"F. c #CCAE54",
"G. c #C49176",
"H. c #C9B468",
"J. c #D5BA6A",
"K. c #C9B779",
"L. c #D3BC76",
"P. c #C7AA6B",
"I. c #CC855B",
"U. c #DAC25B",
"Y. c #D9C367",
"T. c #CEC27A",
"R. c #D8C479",
"E. c #DCD07C",
"W. c #E6CB79",
"Q. c #EBD877",
"!. c #F6DB79",
"~. c #EACC68",
"^. c #FAE17C",
"/. c #E0C85E",
"(. c #455A85",
"). c #566E90",
"_. c #797787",
"`. c #6A7589",
"'. c #9B7D88",
"]. c #798484",
"[. c #798B9A",
"{. c #7A93AC",
"}. c #878688",
"|. c #958A89",
" X c #999686",
".X c #99979A",
"XX c #8B8D93",
"oX c #A29C82",
"OX c #A99C8A",
"+X c #A89E96",
"@X c #9DA289",
"#X c #9EA293",
"$X c #AAA787",
"%X c #B4AA89",
"&X c #B8B68A",
"*X c #A7A998",
"=X c #ACB19B",
"-X c #BBB494",
";X c #B4B29C",
":X c #BBB49B",
">X c #B9BA95",
",X c #B4AC97",
"<X c #9E9BA2",
"1X c #9895A5",
"2X c #8E99B3",
"3X c #A19EA4",
"4X c #A69EA9",
"5X c #A39BB0",
"6X c #9BA4A3",
"7X c #92A7A9",
"8X c #A4A3A5",
"9X c #A9A8A9",
"0X c #B2ADA9",
"qX c #B3B3AC",
"wX c #B7B7A6",
"eX c #ADA9B5",
"rX c #B2AFB3",
"tX c #B5B3B3",
"yX c #B9B6B4",
"uX c #B9B7B9",
"iX c #ACB2B1",
"pX c #C3B995",
"aX c #CDB28B",
"sX c #ECB68C",
"dX c #C4B4A8",
"fX c #BEC291",
"gX c #B9C2AE",
"hX c #C9C38A",
"jX c #C5C49C",
"kX c #D7CB93",
"lX c #E8CC86",
"zX c #E8D589",
"xX c #F8DB85",
"cX c #E7D896",
"vX c #F3D898",
"bX c #F3CA95",
"nX c #FEE587",
"mX c #F7E497",
"MX c #ECE19C",
"NX c #C9C6AE",
"BX c #EADBA5",
"VX c #E4D5B8",
"CX c #F7E7A6",
"ZX c #EEE9AE",
"AX c #B6B4C1",
"SX c #C9BDCC",
"DX c #C2C2CC",
"FX c None",
/* pixels */
"FXFXFXFXFXFXFXFXFXFXFXFXFXFXFXFXFXFXFXFXFXFXFXFXFXFXFXFXFXFXFXFXFXFXFXFXFXFXFXFXFXFXFXFXFXFXFXFXFXFXFXFXFXFXFXFXFXFXFXFXFXFXFXFX",
"FXFXFXFXFXFXFXFXFXFXFXFXFXFXFXFXFXFXFXFXFXFXFXFXFXFXFXFXFXFXFXFXFXFXFXFXFXFXFXFXFXFXFXFXFXFXFXFXFXFXFXFXFXFXFXFXFXFXFXFXFXFXFXFX",
"FXFXFXFXFXFXFXFXFXFXFXFXFXFXFXFXFXFXFXFXFXFXFXFXFXFXFXFXFXFXF F 0 w 0 FXFXFXFXFXFXFXFXFXFXFXFXFXFXFXFXFXFXFXFXFXFXFXFXFXFXFXFXFX",
"FXFXFXFXFXFXFXFXFXFXFXFXFXFXFXFXFXFXFXFXFXFXFXFXFXFXFXFXFX; # # w r q w # - FXFXFXFXFXFXFXFXFXFXFXFXFXFXFXFXFXFXFXFXFXFXFXFXFXFX",
"FXFXFXFXFXFXFXFXFXFXFXFXFXFXFXFXFXFXFXFXFXFXFXFXFXFXFXFXJ 9 q w r r e r w F R FXFXFXFXFXFXFXFXFXFXFXFXFXFXFXFXFXFXFXFXFXFXFXFXFX",
"FXFXFXFXFXFXFXFXFXFXFXFXFXFXFXFXFXFXFXFXFXFXFXFXFXFXFXV ^ }.OX_ 7 2.2.;.9.'.0 FXFXFXFXFXFXFXFXFXFXFXFXFXFXFXFXFXFXFXFXFXFXFXFXFX",
"FXFXFXFXFXFXFXFXFXFXFXFXFXFXFXFXFXFXFXFXFXFXFXFXFXFXFXV $.7X9X_ e 2.2.2.'.5XZ C FXFXFXFXFXFXFXFXFXFXFXFXFXFXFXFXFXFXFXFXFXFXFXFX",
"FXFXFXFXFXFXFXFXFXFXFXFXFXFXFXFXFXFXFXFXFXFXFXFXFXFXS P I $.-.q 2.:.:.2.@.-.o.o.FXFXFXFXFXFXFXFXFXFXFXFXFXFXFXFXFXFXFXFXFXFXFXFX",
"FXFXFXFXFXFXFXFXFXFXFXFXFXFXFXFXFXFXFXFXFXFXFXFXFXC S P I I O.q e ;.7 H G (.(.(.P FXFXFXFXFXFXFXFXFXFXFXFXFXFXFXFXFXFXFXFXFXFXFX",
"FXFXFXFXFXFXFXFXFXFXFXFXFXFXFXFXFXFXFXFXFXFXFXFXFX1 o.[.{.XX9.r 7 7 e H '.eX2X2XO.FXFXFXFXFXFXFXFXFXFXFXFXFXFXFXFXFXFXFXFXFXFXFX",
"FXFXFXFXFXFXFXFXFXFXFXFXFXFXFXFXFXFXFXFXFXFXFXFX+ k c.*XgXNXaX>.t 7 7 ;.m.VXgXgX-.FXFXFXFXFXFXFXFXFXFXFXFXFXFXFXFXFXFXFXFXFXFXFX",
"FXFXFXFXFXFXFXFXFXFXFXFXFXFXFXFXFXFXFXFXFXFXFXE E z [ k.@Xv.J.0.;.e 3.3.%XkX@X#X` FXFXFXFXFXFXFXFXFXFXFXFXFXFXFXFXFXFXFXFXFXFXFX",
"FXFXFXFXFXFXFXFXFXFXFXFXFXFXFXFXFXFXFXFXFXFX3 *.v.| j z / &.aXbXm.6.dXdX,X+XE ` ^ FXFXFXFXFXFXFXFXFXFXFXFXFXFXFXFXFXFXFXFXFXFXFX",
"FXFXFXFXFXFXFXFXFXFXFXFXFXFXFXFXFXFXFXFXFXFX* #.=.*.j ] / { Z.kXj.} wXyXrX.X$.$.K D FXFXFXFXFXFXFXFXFXFXFXFXFXFXFXFXFXFXFXFXFXFX",
"FXFXFXFXFXFXFXFXFXFXFXFXFXFXFXl.7.FXFXFXFXFX> L D J v V.k.j s n j.*XwXtXrX0X*X#...P FXFXFXFXFXFXFXFXFXFXFXFXFXFXFXFXFXFXFXFXFXFX",
"FXFXFXFXFXFXFXFXFXFXFXFXFXFXX n.u.FXFXFXFXFX> > D A s T.g.s s p h.wXqXqXyXyX*X{ ...., FXFXFXFXFXFXFXFXFXFXFXFXFXFXFXFXFXFXFXFXFX",
"FXFXFXFXFXFXFXFXFXFXFXFXFXFXb.E.L.p.FXFXFXFX: %._.*.n f.F.g.f.M h.yXqXiX0XwX;X) q.|., FXFXFXFXFXFXFXFXFXFXFXFXFXFXFXFXFXFXFXFXFX",
"FXFXFXFXFXFXFXFXFXFXFXFXFXp f.!.Q.s.FXFXFXFX: -.}.h.d d.U.U.P.M l.uX=XwXyX0X,X] x. X2 FXFXFXFXFXFXFXFXFXFXFXFXFXFXFXFXFXFXFXFXFX",
"FXFXFXFXFXFXFXFXFXFXFXFXm p.W.!.!.R.6.FXFXFXFXE `  .y.r.t.g.<.q =.iX=XgXwX;XpX%Xk.' O FXFXFXFXFXFXFXFXFXFXFXFXFXFXFXFXFXFXFXFXFX",
"FXFXFXFXFXFXFXFXFXFXFXFXm T.mXmXnXxXL.b FXFXFXFXi m H.f r.t.X + *.wXwXwX=XdXhXBXk.h $ FXFXFXFXFXFXFXFXFXFXFXFXFXFXFXFXFXFXFXFXFX",
"FXFXFXFXFXFXFXFXFXFXFXFXN T.B.lXT.g.hXv FXFXFX` z m V.f e.N.& # | >XwXwXOX8.i.hXp.x $ FXFXFXFXFXFXFXFXFXFXFXFXFXFXFXFXFXFXFXFXFX",
"FXFXFXFXFXFXFXFXFXFXFXFXr.Y.5 G.a.a cXn FXk ].XX{ ] K.B e.a.X o ] pXwXqX} X s B.u.i O FXFXFXFXFXFXFXFXFXFXFXFXFXFXFXFXFXFXFXFXFX",
"FXFXFXFXFXFXFXFXFXFXFXFXN E.d L.B.d cXm FXF `.-.X.( m.n r.F.v s y.K.:XwX7.h v b.| T 1 FXFXFXFXFXFXFXFXFXFXFXFXFXFXFXFXFXFXFXFXFX",
"FXFXFXFXFXFXFXFXFXFXFXFXN MXL.lXW.L.cXm   > D S A < z s e.H.P.J.J.K.-XwXpXn.c j W ^ = FXFXFXFXFXFXFXFXFXFXFXFXFXFXFXFXFXFXFXFXFX",
"FXFXFXFXFXFXFXFXFXFXFXFX[ kXJ.!.W.W.kX( : > L S Z y x v ,.H.L.P.V.Z.;X;X-Xn.c b W ` > FXFXFXFXFXFXFXFXFXFXFXFXFXFXFXFXFXFXFXFXFX",
"FXFXFXFXFXFXFXFXFXFXFXFXFXM W.nX!.J.b FXy J ].]._.q.q.i m k.7.j.m j *X Xl.| 8 &.6XXXZ FXFXFXFXFXFXFXFXFXFXFXFXFXFXFXFXFXFXFXFXFX",
"FXFXFXFXFXFXFXFXFXFXFXFXFXh xX!.^.R.FXFXJ L ].].[.].q.u E =.'.|.W E iXXX_.%.3 =.7X{.Z FXFXFXFXFXFXFXFXFXFXFXFXFXFXFXFXFXFXFXFXFX",
"FXFXFXFXFXFXFXFXFXFXFXFXFXg L.Q.!.P.FXFXL u E J ^ ^ J u Z o._.5X-.* X.1X_.G = K $.`.K FXFXFXFXFXFXFXFXFXFXFXFXFXFXFXFXFXFXFXFXFX",
"FXFXFXFXFXFXFXFXFXFXFXFXFXFXf.Q.~.g.FXFXJ > = Z Z L V Z V K _.eX`.= C 5X_.= S V P (.o.D FXFXFXFXFXFXFXFXFXFXFXFXFXFXFXFXFXFXFXFX",
"FXFXFXFXFXFXFXFXFXFXFXFXFXFXR.!.!.H.FXFXA = #.-...V C Z = J }.uXXX'._.AX_.= Z V I `.`.D FXFXFXFXFXFXFXFXFXFXFXFXFXFXFXFXFXFXFXFX",
"FXFXFXFXFXFXFXFXFXFXFXFXFXFXcXmXmXhXFXFX2 T c.0Xq.+ O , O A =.iXSXAXSXSX*.+ > > #.6XqXT FXFXFXFXFXFXFXFXFXFXFXFXFXFXFXFXFXFXFXFX",
"FXFXFXFXFXFXFXFXFXFXFXFXFXFX$X&X&Xv.FXFXA < } j.| z b b z ( { |.8XNXdX+X} z + $ E =.c.T FXFXFXFXFXFXFXFXFXFXFXFXFXFXFXFXFXFXFXFX",
"FXFXFXFXFXFXFXFXFXFXFXFXFXFX, FXFX> FXFXF 1 # X M R.H.H.J.b.X X 5.aXBXc ,.b.o @ + , , ~ FXFXFXFXFXFXFXFXFXFXFXFXFXFXFXFXFXFXFXFX",
"FXFXFXFXFXFXFXFXFXFXFXFXFXFXZ FXFXZ FXFXA O q 5 r.S.U./.D.g.g X ,.R.zXs ,.B.c h 9 O , ! FXFXFXFXFXFXFXFXFXFXFXFXFXFXFXFXFXFXFXFX",
"FXFXFXFXFXFXFXFXFXFXFXFXFXFXC FXFX1 FXFX& h a.F./.^.^.!.!.xXB.a B T.BXc y.MXzXkXh.  - +.FXFXFXFXFXFXFXFXFXFXFXFXFXFXFXFXFXFXFXFX",
"FXFXFXFXFXFXFXFXFXFXFXFXFXFXC FXFX3 FXFXFXh H.F.Y.^.!.!.!.xXK.p N hXVXh i.mXmXmX6.X 8 ~ FXFXFXFXFXFXFXFXFXFXFXFXFXFXFXFXFXFXFXFX",
"FXFXFXFXFXFXFXFXFXFXFXFXFXFXFXA 0 l 0 FXFX8 B.<.t.nXnX^.xXxXbXb u ^ -.9 b.vXxXnXlXL.Z.z FXFXFXFXFXFXFXFXFXFXFXFXFXFXFXFXFXFXFXFX",
"FXFXFXFXFXFXFXFXFXFXFXFXFXFXFX2 l ( # FXFXl Z.s 6.CXmXmXnXvXvXj 4 A ^ y j.CXCXzXmXmXBXh FXFXFXFXFXFXFXFXFXFXFXFXFXFXFXFXFXFXFXFX",
"FXFXFXFXFXFXFXFXFXFXFXFXFXFXFXFX8 l - FXFXT } b } 5.| 5.4.y.vXA.' X y h.h.4.4.4.4.i.hXj FXFXFXFXFXFXFXFXFXFXFXFXFXFXFXFXFXFXFXFX",
"FXFXFXFXFXFXFXFXFXFXFXFXFXFXFXFX8 9 < FXFXFX. *.)     o o j BXZXx.  5 dXh.o o . o z C.g FXFXFXFXFXFXFXFXFXFXFXFXFXFXFXFXFXFXFXFX",
"FXFXFXFXFXFXFXFXFXFXFXFXFXFXFXFX8 q , FXFXFXW |.q.W  .' m [ n.n.{ @ 6 l.h.{ ' ' x i w.x FXFXFXFXFXFXFXFXFXFXFXFXFXFXFXFXFXFXFXFX",
"FXFXFXFXFXFXFXFXFXFXFXFXFXFXFXFX6 h & FXFXk  X;X=X*XfX>XfXM.X . @ + @ +  .gXwXgX .X X FXFXFXFXFXFXFXFXFXFXFXFXFXFXFXFXFXFXFXFXFX",
"FXFXFXFXFXFXFXFXFXFXFXFXFXFXFXFX8 8 < FXFXb v.;X#Xc.>X&XfXN.g k k k k k h.>XwXwX} % T ~ FXFXFXFXFXFXFXFXFXFXFXFXFXFXFXFXFXFXFXFX",
"FXFXFXFXFXFXFXFXFXFXFXFXFXFXFXFX5 h @ FX] A.k.v. .k h.k.b.N.v.*X@X@X X@Xv.C.OX$X) l  X0 FXFXFXFXFXFXFXFXFXFXFXFXFXFXFXFXFXFXFXFX",
"FXFXFXFXFXFXFXFXFXFXFXFXFXFXFXFX5 8 k FX,.Z.p.N.{ k l.OXC.C.$X@X$X$X%XC.C.$X@Xv.( W  Xz FXFXFXFXFXFXFXFXFXFXFXFXFXFXFXFXFXFXFXFX",
"FXFXFXFXFXFXFXFXFXFXFXFXFXFXFX=.j.b  XFX4.vXkXC.' 9  X:X&X>X>X>XpX%XpX&X>X>X%XW ' n.fXfX*.FXFXFXFXFXFXFXFXFXFXFXFXFXFXFXFXFXFXFX",
"FXFXFXFXFXFXFXFXFXFXFXFXFXFXFX Xx.b :XFX,.mXmXN.W T OXpXpX>XfXfX>XjX>XfXfXgX:Xl ] A.V.BX7.FXFXFXFXFXFXFXFXFXFXFXFXFXFXFXFXFXFXFX",
"FXFXFXFXFXFXFXFXFXFXFXFXFXFXFX XOXx.:XFXy.MXcX[ k k R v.$X%X$XM.%XC.C.C.$X X) X ,.V.R.cX5.FXFXFXFXFXFXFXFXFXFXFXFXFXFXFXFXFXFXFX",
"FXFXFXFXFXFXFXFXFXFXFXFXFXFXFX X;XOXdXFX4.MXZXj FXy & l.OX$XM.M.n.C.C.k.$Xl.# @ ,.H.Y.xX4.FXFXFXFXFXFXFXFXFXFXFXFXFXFXFXFXFXFXFX",
"FXFXFXFXFXFXFXFXFXFXFXFXFXFXFX8.oXoXOXFXu.cXk.z FXFX& l.$X%X$X&X%X$X&X=Xz.{ F k v e.S.W.Z.} FXFXFXFXFXFXFXFXFXFXFXFXFXFXFXFXFXFX",
"FXFXFXFXFXFXFXFXFXFXFXFXFXFXFX&.c.h.h.g 4.jX% FXFXFX< 8.%XpX-XdXjX&XjXNX%., / FXFXv J.S.lXK.FXFXFXFXFXFXFXFXFXFXFXFXFXFXFXFXFXFX",
"FXFXFXFXFXFXFXFXFXFXFXFXFXFXFX/ q.c.x.l ] v.9 Y ! G G } n.pXpXpXfXA.>X X{ J X.FXFXj P.S.W.K.FXFXFXFXFXFXFXFXFXFXFXFXFXFXFXFXFXFX",
"FXFXFXFXFXFXFXFXFXFXFXFXFXFXFXFX` *X XR . # F G G ~ ~ w ] OX%XOXv.$Xx.h R X.FXFXFXh H.Y.J.K.,XFXFXFXFXFXFXFXFXFXFXFXFXFXFXFXFXFX",
"FXFXFXFXFXFXFXFXFXFXFXFXFXFXFXFXW  X}.R < < ! ! ! ~ ~ < ] n.7.,XOXn.%Xh q FXFXFXFXb A.P.P.pX>XFXFXFXFXFXFXFXFXFXFXFXFXFXFXFXFXFX",
"FXFXFXFXFXFXFXFXFXFXFXFXFXFXFXFXy 2 2 O < R J U G F 0 w 6.s.n aXI.0.sX0.w FXFXFXW z.k.u.k.N.=XFXFXFXFXFXFXFXFXFXFXFXFXFXFXFXFXFX",
"FXFXFXFXFXFXFXFXFXFXFXFXFXFXFXFXF $ + & A F ^ J U U # 6 ,.I.t W.I.0.bX3.8 0 / , { z.z.h.h.v.=XFXFXFXFXFXFXFXFXFXFXFXFXFXFXFXFXFX",
"FXFXFX}.8X.X.X.X.X<X.X1X=.FXFXY F @ 0 # F ! J u : U &.8 0.W.t.D.F.P.vXv 6 - F ; 2 W l.x.n.&X-XFXFXFXFXXX<X<X.X.X<X<X.XFXFXFXFXFX",
"FXFXFX.XqXwXyXqXqXuXuXtX}.! U Y < 8 8 6 F Q J u > F 8.5 e.xXD.D.D.J.zXs X - C C : k }.l.%XpX:Xk FXFXFX<XtXtXyXtXtXuX8XFXFXFXFXFX",
"FXFX}.8XyXqXqXqXqXyXyXyX3X}.}.}.+.9 h.h , Q 1 > Z A ) 4.f.~.D.D.D.Q.^.a.( ; P P L : ` W { &.%.-.8.}.}.iXyXtXtXtXtXtXiXXXFXFXFXFX",
"FXFX9XyXyXqXqXqXyXqX0XyXtXyXuXuX8.< -Xz & U > = C C # n.L.S.J.Y.W.mXmXCX8.; (.(.L 4 $ + + + , 6XAXrXtXyXtXtXqXqXtXiXtXrX=.FXFXFX",
"FXFX9XtXuXtXtXqXqXtXtXuXrXrXtXrXXX{ h.g ~ +.1 C S C , | u.y.y.y.k.N.b.$X{ 1 ..P Z u ` W / %.#.9XuXrXtXrXtXtXqXtXtXtXtXeXFXFXFXFX",
"FXFXeXuXrXtXtXtXtXtXuXAXtXtXuXrXuX*X%   -.1X1 1 = * O @ . X X o X X . . @ * = C > ^ qXwXuXtXiXiXuXtXuXtXtXtXqXyXtXtXuXtXFXFXFXFX",
"FXFX1X<X3X8X8X8X8X3X3X3X3X8X8X8X6XXX& < -..X3 3 A 1 , 3 < # , 3 & < 0 - 2 3 * 1 C ! <X8X4X3X9X8X3X8X<X8X<X*X8X*X*X.X8X3XFXFXFXFX",
"FXFXFXFXFXFXFXFXFXFXFX%.+.+.+.#.#.` / ) ~ +.X./ / / Y Y Y ! Q G F G ! F R 2 T J Q ! R ! ~ ~ R / +.%.FXFXFXFXFXFXFXFXFXFXFXFXFXFX"
};
