/* XPM */
static char *xpm_[] = {
/* columns rows colors chars-per-pixel */
"64 64 236 2 ",
"   c #372A09",
".  c #39310D",
"X  c #2E2A14",
"o  c #2A2A1D",
"O  c #2C2615",
"+  c #332C1D",
"@  c #372B13",
"#  c #3C341E",
"$  c #373317",
"%  c #2F2F14",
"&  c #1E2A31",
"*  c #2B2C23",
"=  c #2D2D2B",
"-  c #2E2520",
";  c #332C22",
":  c #332C2C",
">  c #3A2D26",
",  c #2D312C",
"<  c #2E3525",
"1  c #333425",
"2  c #3C3927",
"3  c #33332C",
"4  c #39332C",
"5  c #3A3726",
"6  c #2D2C33",
"7  c #292E3A",
"8  c #322C37",
"9  c #2D3333",
"0  c #25333B",
"q  c #2A3439",
"w  c #343234",
"e  c #3B3433",
"r  c #3C3A35",
"t  c #33333A",
"y  c #3A383B",
"u  c #2F1F10",
"i  c #48390A",
"p  c #433B1D",
"a  c #473B16",
"s  c #4A3510",
"d  c #662F1A",
"f  c #781D33",
"g  c #661E21",
"h  c #433C24",
"j  c #453A26",
"k  c #592534",
"l  c #453E3B",
"z  c #463B37",
"x  c #4F2830",
"c  c #762638",
"v  c #72242C",
"b  c #3C4736",
"n  c #5F4C07",
"m  c #4A431E",
"M  c #5E5318",
"N  c #5F5204",
"B  c #634B17",
"V  c #6A5819",
"C  c #735E1F",
"Z  c #71671C",
"A  c #4D452B",
"S  c #46452B",
"D  c #554724",
"F  c #5D522D",
"G  c #43433B",
"H  c #474637",
"J  c #554938",
"K  c #4B513C",
"L  c #5A5639",
"P  c #684B21",
"I  c #695829",
"U  c #655837",
"Y  c #76682A",
"T  c #7C7521",
"R  c #6E6438",
"E  c #74663A",
"W  c #7F733C",
"Q  c #6F6729",
"!  c #2A2D43",
"~  c #392F42",
"^  c #243445",
"/  c #2C3344",
"(  c #2A344C",
")  c #393844",
"_  c #293856",
"`  c #333B55",
"'  c #443D43",
"]  c #423B49",
"[  c #5F3052",
"{  c #773142",
"}  c #6D3046",
"|  c #2D404A",
" . c #3B434B",
".. c #3C4245",
"X. c #364655",
"o. c #3D5057",
"O. c #2A4160",
"+. c #454543",
"@. c #43454A",
"#. c #4C4A4D",
"$. c #4B4847",
"%. c #564844",
"&. c #4C5444",
"*. c #595648",
"=. c #454854",
"-. c #544758",
";. c #54545D",
":. c #595755",
">. c #4A5959",
",. c #675D45",
"<. c #6F5758",
"1. c #5D6357",
"2. c #646343",
"3. c #69674A",
"4. c #746946",
"5. c #7B724A",
"6. c #696857",
"7. c #78775C",
"8. c #736C54",
"9. c #595664",
"0. c #45537C",
"q. c #52526E",
"w. c #655B64",
"e. c #645670",
"r. c #5D6371",
"t. c #6A6A67",
"y. c #747962",
"u. c #7D7C79",
"i. c #787A73",
"p. c #697070",
"a. c #831E2E",
"s. c #8A263A",
"d. c #992A3E",
"f. c #826E28",
"g. c #84752C",
"h. c #897737",
"j. c #967B38",
"k. c #89663B",
"l. c #944A3D",
"z. c #87324A",
"x. c #854747",
"c. c #A14F5B",
"v. c #82754A",
"b. c #837758",
"n. c #8F7748",
"m. c #A06C44",
"M. c #855563",
"N. c #867B65",
"B. c #7E847A",
"V. c #988136",
"C. c #9F903B",
"Z. c #A8923C",
"A. c #9B8A48",
"S. c #8C8659",
"D. c #948557",
"F. c #958F4F",
"G. c #AD9847",
"H. c #AB9859",
"J. c #AB9254",
"K. c #B6A857",
"L. c #888569",
"P. c #968B67",
"I. c #8D936D",
"U. c #9D976B",
"Y. c #868575",
"T. c #938E74",
"R. c #8E9377",
"E. c #989477",
"W. c #A49669",
"Q. c #A49977",
"!. c #B59E68",
"~. c #ABA26C",
"^. c #B4A364",
"/. c #B7A96A",
"(. c #BFB862",
"). c #A8A378",
"_. c #B6A876",
"`. c #BEB773",
"'. c #C6A95E",
"]. c #CEB95F",
"[. c #D3B75B",
"{. c #C49962",
"}. c #C7AA65",
"|. c #D3A869",
" X c #CABA69",
".X c #D4BC66",
"XX c #C8B878",
"oX c #D5B875",
"OX c #C5AC77",
"+X c #CDC167",
"@X c #D9C977",
"#X c #D5C26E",
"$X c #F2DB7E",
"%X c #E6D176",
"&X c #3B578B",
"*X c #36639D",
"=X c #3F70A8",
"-X c #555B83",
";X c #446293",
":X c #49668C",
">X c #687B81",
",X c #4674A5",
"<X c #7D8180",
"1X c #858582",
"2X c #969686",
"3X c #8C9193",
"4X c #AC9E82",
"5X c #B29995",
"6X c #9BA390",
"7X c #A8A588",
"8X c #B6AD8B",
"9X c #A6A698",
"0X c #B3B597",
"qX c #AFB28C",
"wX c #AAAAA1",
"eX c #B7B9A5",
"rX c #AFAEAE",
"tX c #96A9B7",
"yX c #CAB885",
"uX c #D7BB86",
"iX c #D3B49F",
"pX c #B9C29B",
"aX c #D7C485",
"sX c #C7C394",
"dX c #D9CB97",
"fX c #EAD989",
"gX c #F5DB87",
"hX c #EBD897",
"jX c #F7DD99",
"kX c #EBCB90",
"lX c #F1E39C",
"zX c #C3C2AD",
"xX c #E6D6A2",
"cX c #FAE5A1",
"vX c #EFE1A2",
"bX c None",
/* pixels */
"bXbXbXbXbXbXbXbXbXbXbXbXbXbXbXbXbXbXbXbXbXbXbXbXbXbXbXbXbXbXbXbXbXbXbXbXbXbXbXbXbXbXbXbXbXbXbXbXbXbXbXbXbXbXbXbXbXbXbXbXbXbXbXbX",
"bXbXbXbXbXbXbXbXbXbXbXbXbXbXbXbXbXbXbXbXbXbXbXbXbXbXbXbXbXbXbXbXbXbXbXbXbXbXbXbXbXbXbXbXbXbXbXbXbXbXbXbXbXbXbXbXbXbXbXbXbXbXbXbX",
"bXbXbXbXbXbXbXbXbXbXbXbXbXbXbXbXbXbXbXbXbXbXbXbXbXbXbXbXbXbXbXbXbXbXbXbXbXbXbXbXbXbXbXbXbXbXbXbXbXbXbXbXbXbXbXbXbXbXbXbXbXbXbXbX",
"bXbXbXbXbXbXbXbXbXbXbXbXbXbXbXbXbXbXbXbXbXbXbXbXbXbXbXbXbXbXbXbXbXbXbXbXbXbXbXbXbXbXbXbXbXbXbXbXbXbXbXbXbXbXbXbXbXbXbXbXbXbXbXbX",
"bXbXbXbXbXbXbXbXbXbXbXbXbXbXbXbXbXbXbXbXbXbXbXbXbXbXbXbXbXbXbXbXbXbXbXbXbXbXbXbXbXbXbXbXbXbXbXbXbXbXbXbXbXbXbXbXbXbXbXbXbXbXbXbX",
"bXbXbXbXbXbXbXbXbXbXbXbXbXbXbXbXbXbXbXbXbXbXbXbXbXbXbXbXbXbXbXbXbXbXbXbXbXbXbXbXbXbXbXbXbXbXbXbXbXbXbXbXbXbXbXbXbXbXbXbXbXbXbXbX",
"bXbXbXbXbXbXbXbXbXbXbXbXbXbXbXbXbXbXbXbXbXbXbXbXbXbXbXbXbXbXbXbXbXbXbXbXbXbXbXbXbXbXbXbXbXbXbXbXbXbXbXbXbXbXbXbXbXbXbXbXbXbXbXbX",
"bXbXbXbXbXbXbXbXbXbXbXbXbXbXbXbXbXbXbXbXbXbXbXbXbXbXbXbXbXbXbXbXbXbXbXbXbXbXbXbXbXbXbXbXbXbXbXbXbXbXbXbXbXbXbXbXbXbXbXbXbXbXbXbX",
"bXbXbXbXbXbXbXbXbXbXbXbXbXbXbXbXbXbXbXbXbXbXbXbXbXbXbXbXbXbXbXbXbXbXbXbXbXbXbXbXbXbXbXbXbXbXbXbXbXbXbXbXbXbXbXbXbXbXbXbXbXbXbXbX",
"bXbXbXbXbXbXbXbXbXbXbXbXbXbXbXbXbXbXbXbXbXbXbXbXbXbXbXbXbXbXbXbXbXbXbXbXbXbXbXbXbXbXbXbXbXbXbXbXbXbXbXbXbXbXbXbXbXbXbXbXbXbXbXbX",
"bXbXbXbXbXbXbXbXbXbXbXbXbXbXbXbXbXbXbXbXbXbXbXbXbXbXbXbXbXbXbXbXbXbXbXbXbXbXbXbXbXbXbXbXbXbXbXbXbXbXbXbXbXbXbXbXbXbXbXbXbXbXbXbX",
"bXbXbXbXbXbXbXbXbXbXbXbXbXbXbXbXbXbXbXbXbXbXbXbXbXbXbXbXbXbXbXbXbXbXbXbXbXbXbXbXbXbXbXbXbXbXbXbXbXbXbXbXbXbXbXbXbXbXbXbXbXbXbXbX",
"bXbXbXbXbXbXbXbXbXbXbXbXbXbXbXbXbXbXbXbXbXbXbXbXbXbXbXbXbXbXbXbXbXbXbXbXbXbXbXbXbXbXbXbXbXbXbXbXbXbXbXbXbXbXbXbXbXbXbXbXbXbXbXbX",
"bXbXbXbXbXbXbXbXbXbXbXbXbXbXbXbXbXbXbXbXbXbXbXbXbXbXbXbXbXbXbXbXbXbXbXbXbXbXbXbXbXbXbXbXbXbXbXbXbXbXbXbXbXbXbXbXbXbXbXbXbXbXbXbX",
"bXbXbXbXbXbXbXbXbXbXbXbXbXbXbXbXbXbXbXbXbXbXbXbXbXbXbXbXbXbXbXbXbXbXbXbXbXbXbXbXbXbXbXbXbXbXbXbXbXbXbXbXbXbXbXbXbXbXbXbXbXbXbXbX",
"bXbXbXbXbXbXbXbXbXbXbXbXbXbXbXbXbXbXbXbXbXbXbXbXbXbXbXbXbXbXbXbXbXbXbXbXbXbXbXbXbXbXbXbXbXbXbXbXbXbXbXbXbXbXbXbXbXbXbXbXbXbXbXbX",
"bXbXbXbXbXbXbXbXbXbXbXbXbXbXbXbXbXbXbXbXbXbXbXbXbXbXbXbXbXbXbXbXbXbXbXbXbXbXbXbXbXbXbXbXbXbXbXbXbXbXbXbXbXbXbXbXbXbXbXbXbXbXbXbX",
"bXbXbXbXbXbXbXbXbXbXbXbXbXbXbXbXbXbXbXbXbXbXbXbXbXbXbXbXbXbXbXbXbXbXbXbXbXbXbXbXbXbXbXbXbXbXbXbXbXbXbXbXbXbXbXbXbXbXbXbXbXbXbXbX",
"bXbXbXbXbXbXbXbXbXbXbXbXbXbXbXbXbXbXbXbXbXbXbXbXbXbXbXbXbXbXbXbXbXbXbXbXbXbXbXbXbXbXbXbXbXbXbXbXbXbXbXbXbXbXbXbXbXbXbXbXbXbXbXbX",
"bXbXbXbXbXbXbXbXbXbXbXbXbXbXbXbXbXbXbXbXbXbXbXbXbXbXbXbXbXbXbXbXbXbXbXbXbXbXbXbXbXbXbXbXbXbXbXbXbXbXbXbXbXbXbXbXbXbXbXbXbXbXbXbX",
"bXbXbXbXbXbXbXbXbXbXbXbXbXbXbXbXbXbXbXbXbXbXbXbXbXbXbXbXbXbXbXbXbXbXbXbXbXbXbXbXbXbXbXbXbXbXbXbXbXbXbXbXbXbXbXbXbXbXbXbXbXbXbXbX",
"bXbXbXbXbXbXbXbXbXbXbXbXbXbXbXbXbXbXbXbXbXbXbXbXbXbXbXbXbXbXbXbXbXbXbXbXbXbXbXbXbXbXbXbXbXbXbXbXbXbXbXbXbXbXbXbXbXbXbXbXbXbXbXbX",
"bXbXbXbXbXbXbXbXbXbXbXbXbXbXbXbXbXbXbXbXbXbXbXbXbXbXbXbXbXbXbXbXbXbXbXbXbXbXbXbXbXbXbXbXbXbXbXbXbXbXbXbXbXbXbXbXbXbXbXbXbXbXbXbX",
"bXbXbXbXbXbXbXbXbXbXbXbXbXbXbXbXbXbXbXbXbXbXbXbXbXbXbXbXbXbXbXbXbXbXbXbXbXbXbXbXbXbXbXbXbXbXbXbXbXbXbXbXbXbXbXbXbXbXbXbXbXbXbXbX",
"bXbXbXbXbXbXbXbXbXbXbXbXbXbXbXbXbXbXbXbXbXbXbXbXbXbXbXbXbXbXbXbXbXbXbXbXbXbXbXbXbXbXbXbXbXbXbXbXbXbXbXbXbXbXbXbXbXbXbXbXbXbXbXbX",
"bXbXbXbXbXbXbXbXbXbXbXbXbXbXbXbXbXbXbXbXbXbXbXbXbXbXbXbXbXbXbXbXbXbXbXbXbXbXbXbXbXbXbXbXbXbXbXbXbXbXbXbXbXbXbXbXbXbXbXbXbXbXbXbX",
"bXbXbXbXbXbXbXbXbXbXbXbXbXbXbXbXbXbXbXbXbXbXbXbXbXbXbXbXbXbXbXbXbXbXbXbXbXbXbXbXbXbXbXbXbXbXbXbXbXbXbXbXbXbXbXbXbXbXbXbXbXbXbXbX",
"bXbXbXbXbXbXbXbXbXbXbXbXbXbXbXbXbXbXbXbXbXbXbXbXbXbXbXbXbXbXbXbXbXbXx x bXbXbXbXbXbXbXbXbXbXbXbXbXbXbXbXbXbXbXbXbXbXbXbXbXbXbXbX",
"bXbXbXbXbXbXbXbXbXbXbXbXbXbXbXbXbXbXbXbXbXbXbXbXbXbXbXbXbXbXbXbXbXbXk { } bXbXbXbXbXbXbXbXbXbXbXbXbXbXbXbXbXbXbXbXbXbXbXbXbXbXbX",
"bXbXbXbXbXbXbXbXbXbXbXbXbXbXbXbXbXbXbXbXbXbXbXbXbXbXbXbXbXbX' $.x k v s.{ x %.bXbXbXbXbXbXbXbXbXbXbXbXbXbXbXbXbXbXbXbXbXbXbXbXbX",
"bXbXbXbXbXbXbXbXbXbXbXbXbXbXbXbXbXbXbXbXbXbXbXbXbXbXbXbXbX*.1XrX<.c d.d.d.x.5Xt.bXbXbXbXbXbXbXbXbXbXbXbXbXbXbXbXbXbXbXbXbXbXbXbX",
"bXbXbXbXbXbXbXbXbXbXbXbXbXbXbXbXbXbXbXbXbXbXbXbXbXbXbX/ / q.<XrXM.c d.d.d.z.rX9.^ ` bXbXbXbXbXbXbXbXbXbXbXbXbXbXbXbXbXbXbXbXbXbX",
"bXbXbXbXbXbXbXbXbXbXbXbXbXbXbXbXbXbXbXbXbXbXbXbXbXbX^ _ &X&X*X-X[ c z.a.a.z.-X;X*X*XO.bXbXbXbXbXbXbXbXbXbXbXbXbXbXbXbXbXbXbXbXbX",
"bXbXbXbXbXbXbXbXbXbXbXbXbXbXbXbXbXbXbXbXbXbXbXbXbXbX^ O.&X&X:Xr.[ f z.a.a.{ e.:X=X<XO.bXbXbXbXbXbXbXbXbXbXbXbXbXbXbXbXbXbXbXbXbX",
"bXbXbXbXbXbXbXbXbXbXbXbXbXbXbXbXbXbXbXbXbXbXbXbXbX, G B.6XwX9XqXx.g c f d.c.iXzXtXtX=.bXbXbXbXbXbXbXbXbXbXbXbXbXbXbXbXbXbXbXbXbX",
"bXbXbXbXbXbXbXbXbXbXbXbXbXbXbXbXbXbXbXbXbXbXbXbXbX1 K L.0XpX`.yXk.d d v a.x.kXdXeXrX#.@.bXbXbXbXbXbXbXbXbXbXbXbXbXbXbXbXbXbXbXbX",
"bXbXbXbXbXbXbXbXbXbXbXbXbXbXbXbXbXbXbXbXbXbXbXbXy.y.8.2.2.2.7.8XuX{.P P m.|.jXH.1.>X|  .bXbXbXbXbXbXbXbXbXbXbXbXbXbXbXbXbXbXbXbX",
"bXbXbXbXbXbXbXbXbXbXbXbXbXbXbXbXbXbXbXbXbXbXbXy B.Y.B.L 2.L 3.8XkXoXV N j.|.jXm.*.>.| X.bXbXbXbXbXbXbXbXbXbXbXbXbXbXbXbXbXbXbXbX",
"bXbXbXbXbXbXbXbXbXbXbXbXbXbXbXbXbXbXbXbXbXbXbX! =.#.S F ~.P.U 4.k.n.G.+XG.f.j.!.7X1.>.X. .bXbXbXbXbXbXbXbXbXbXbXbXbXbXbXbXbXbXbX",
"bXbXbXbXbXbXbXbXbXbXbXbXbXbXbXbXbXbXbXbXbXbXbX^ ! 9 2 R dX^.B V B f.].$XK.N n }.uXL >.X.0 bXbXbXbXbXbXbXbXbXbXbXbXbXbXbXbXbXbXbX",
"bXbXbXbXbXbXbXbXbXbXbXbXbXbXbXbXbXbXbXbXbXbXbX9 p.p.8.I }.}.G.G.Y g.].%XK.V Z.%XoXU T.p.6 bXbXbXbXbXbXbXbXbXbXbXbXbXbXbXbXbXbXbX",
"bXbXbXbXbXbXbXbXbXbXbXbXbXbXbXbXbXbXbXbXbXbXbXb Y.2Xv.I {.[.[..Xh.Y +XgX!.Q (.kXuXF 7X2X3 bXbXbXbXbXbXbXbXbXbXbXbXbXbXbXbXbXbXbX",
"bXbXbXbXbXbXbXbXbXbXbXbXbXbXbXbXbXbXbXbXbXbXbX< $.*.W A.V.G.'.Y D D h.V.U m R 5.b.h 3.L 1 bXbXbXbXbXbXbXbXbXbXbXbXbXbXbXbXbXbXbX",
"bXbXbXbXbXbXbXbXbXbXbXbXbXbXbXbXbXbXbXbXbXbXo $ X m W (.Z j.K.i   j B B D X X S A $ S S 4 bXbXbXbXbXbXbXbXbXbXbXbXbXbXbXbXbXbXbX",
"bXbXbXbXbXbXbXbXbXbXbXbXbXbXbXbXbXbXbXbXbXbXU S.S.Q T  XZ V.^.i @ P G.{.v.@ < A R U.L 4 8 bXbXbXbXbXbXbXbXbXbXbXbXbXbXbXbXbXbXbX",
"bXbXbXbXbXbXbXbXbXbXbXbXbXbXbXbXbXbXbXbXbXbXv.XXXXg.T (.Z A./.i   I .XgXP.s . . h.xXU u z bXbXbXbXbXbXbXbXbXbXbXbXbXbXbXbXbXbXbX",
"bXbXbXbXbXbXbXbXbXbXbXbXbXbXbXbXbXbXbXbXbXbXv./.k.F.H.V.Q h.}.j.f.C.[.$X|.h.j.Y h.hXK.H.N.J bXbXbXbXbXbXbXbXbXbXbXbXbXbXbXbXbXbX",
"bXbXbXbXbXbXbXbXbXbXbXbXbXbXbXbXbXbXbXbXbX# v./.i _.@XM P n.uXoXXX X+XfXkXoXXXj.h.hXlXcXxXj bXbXbXbXbXbXbXbXbXbXbXbXbXbXbXbXbXbX",
"bXbXbXbXbXbXbXbXbXbXbXbXbXbXbXbXbXbXbXbXbX4 L 5.U b.b.A j 8.4X4XU.U.v.n.Q.Q.W.4.F P.D.~.aXa bXbXbXbXbXbXbXbXbXbXbXbXbXbXbXbXbXbX",
"bXbXbXbXbXbXbXbXbXbXbXbXbXbXbXbXbXbXbXbXbXo X 2 I.H X X ; :.N.Y.I.6.> + %.Y.Y.J > X @ E _.D @.bXbXbXbXbXbXbXbXbXbXbXbXbXbXbXbXbX",
"bXbXbXbXbXbXbXbXbXbXbXbXbXbXbXbXbXbX) +.j 3.2.2.T.7.3.6.8.6.w.u.t.#.8 6 ' w.u.&.b 6.j J 7.2 $.bXbXbXbXbXbXbXbXbXbXbXbXbXbXbXbXbX",
"bXbXbXbXbXbXbXbXbXbXbXbXbXbXbX* * : = o p ~.~.P.4X7X8XeXzXi.r u.=.9 6 8 ' ] i.&.&.wX*.; X o +.bXbXbXbXbXbXbXbXbXbXbXbXbXbXbXbXbX",
"bXbXbXbXbXbXbXbXbXbXbXbXbXbX:.6.1.2.2.R Y XXOX_.4XT.E.0X0X7.1 i.#.= : 3 8 e :.b &.9X%.H *.2 l bXbXbXbXbXbXbXbXbXbXbXbXbXbXbXbXbX",
"bXbXbXbXbXbXbXbXbXbXbXbXbXr 0XzXpXpXqX). XfXjXhXQ.N.T.7X6X6.r i.#.4 5 + o w ; < K 2XH 6.8Xj + w bXbXbXbXbXbXbXbXbXbXbXbXbXbXbXbX",
"bXbXbXbXbXbXbXbXbXbXbXbXbX4 N.R.I.I.S.U.aXgXjXkXb.N.N.L.L.*.r t.l j I U J 1 * * G u.z *.P.5.J e -.bXbXbXbXbXbXbXbXbXbXbXbXbXbXbX",
"bXbXbXbXbXbXbXbXbXbXbXbXbX+ @ @   %   k.lXjXcXaXa 8.8.4 o < o > > L XXhXU.X w = : - ; # s dXN.; w bXbXbXbXbXbXbXbXbXbXbXbXbXbXbX",
"bXbXbXbXbXbXbXbXbXbXbXbXbXU U I I I V h.OXOXyXQ.h *.t.y j D U U j F +XfXU.% < 9 = : * p Y yXS.A &.G bXbXbXbXbXbXbXbXbXbXbXbXbXbX",
"bXbXbXbXbXbXbXbXbXbXbXbX,.yXjXjXjXhXaXA.s   $ $ < , =.1Xp N.kXuX,.U `.hXU.< , 9 ! - 1 3._.U.L.E.eX*.o bXbXbXbXbXbXbXbXbXbXbXbXbX",
"bXbXbXbXbXbXbXbXbXbXbXbXR aX@XgX$X$X%XA.s j * 9 q 0 X.i.F A.gX.XU J 2XzXL.* 0 ` _ _ 8 6.qXS.I.6X0X6.$.*.bXbXbXbXbXbXbXbXbXbXbXbX",
"bXbXbXbXbXbXbXbXbXbXbXbX4.vX#X].+X|.gX_.@ ' ) 0 0 ^ / r W.OX#X X4.* y ;.+., 0 O.0.-X6 *.I.I.7XeXzXeXeXwX$.bXbXbXbXbXbXbXbXbXbXbX",
"bXbXbXbXbXbXbXbXbXbXbXbX3.sX/.K.^.!.uXQ.z bX .7 ^ ( / w I._.H.!.L 3 ( =.) w 0 X.0.O.) &.B.7.2XwX9X9X9X3X) ) bXbXbXbXbXbXbXbXbXbX",
"bXbXbXbXbXbXbXbXbXbXbXbXbXp . a . p > 5 bXbXbX7 ^ ! 7 w # # p p 1 8 ! ! t q & ^ ( ( t 3 $ 1 , 3 e 4 r y 6 ) bXbXbXbXbXbXbXbXbXbX",
"bXbXbXbXbXbXbXbXbXbXbXbXbXz r 4 , r y ' bXbXbXt ~ ~ 8 w 2 $ 4 , , 9 w t w 9 q / / q = 4 = r w w * 4 r 6 ) @.bXbXbXbXbXbXbXbXbXbX",
"bXbXbXbXbXbXbXbXbXbXbXbXbX9.;.9.;.9.;.bXbXbXbXw.-.w.;.G H +.@.=...+.+.#.@. .=. .=.@.+.$.] #.] @.+.:.:.;.9.bXbXbXbXbXbXbXbXbXbXbX"
};
