/* XPM */
static char *xpm_[] = {
/* columns rows colors chars-per-pixel */
"64 64 231 2 ",
"   c #2B2608",
".  c #342C0B",
"X  c #2D2A18",
"o  c #342E1A",
"O  c #343216",
"+  c #3A3413",
"@  c #3A361C",
"#  c #343616",
"$  c #391F28",
"%  c #1A3939",
"&  c #113529",
"*  c #2C2B24",
"=  c #2C2B2C",
"-  c #242D2D",
";  c #332D23",
":  c #332D2C",
">  c #372B27",
",  c #2C312D",
"<  c #2E3424",
"1  c #343422",
"2  c #3D3222",
"3  c #34322B",
"4  c #3A332B",
"5  c #3B3A2D",
"6  c #353B29",
"7  c #2D2C33",
"8  c #212F30",
"9  c #322D34",
"0  c #3B2D3B",
"q  c #382D37",
"w  c #2C3434",
"e  c #25333B",
"r  c #2B333B",
"t  c #283533",
"y  c #343234",
"u  c #3C3532",
"i  c #353B35",
"p  c #3B3B36",
"a  c #3B363C",
"s  c #37393B",
"d  c #453819",
"f  c #473B06",
"g  c #662313",
"h  c #751C26",
"j  c #781F33",
"k  c #433A26",
"l  c #42352D",
"z  c #493C29",
"x  c #592935",
"c  c #433A32",
"v  c #512E2D",
"b  c #782428",
"n  c #7A3326",
"m  c #672935",
"M  c #77323E",
"N  c #752734",
"B  c #5B4A1B",
"V  c #65570B",
"C  c #67551A",
"Z  c #6B4C15",
"A  c #6D641C",
"S  c #756514",
"D  c #74660E",
"F  c #494529",
"G  c #574B2A",
"H  c #5E5125",
"J  c #5F5A22",
"K  c #44433B",
"L  c #4A4737",
"P  c #554C36",
"I  c #595537",
"U  c #4D523B",
"Y  c #665929",
"T  c #745F24",
"R  c #685C37",
"E  c #644F22",
"W  c #5C602D",
"Q  c #6C6326",
"!  c #796526",
"~  c #6E6136",
"^  c #796935",
"/  c #1D3F40",
"(  c #2C3444",
")  c #293349",
"_  c #353445",
"`  c #2C3047",
"'  c #423D4C",
"]  c #583E59",
"[  c #7D3749",
"{  c #6F3A44",
"}  c #1E4242",
"|  c #374557",
" . c #2E414C",
".. c #364665",
"X. c #3D567A",
"o. c #324C63",
"O. c #474445",
"+. c #524B4D",
"@. c #575546",
"#. c #4A4A55",
"$. c #514E52",
"%. c #475456",
"&. c #5A5759",
"*. c #635949",
"=. c #635A57",
"-. c #7A575E",
";. c #5D6152",
":. c #6D664A",
">. c #776946",
",. c #7E7548",
"<. c #666857",
"1. c #736D57",
"2. c #7B785D",
"3. c #485466",
"4. c #55516F",
"5. c #586566",
"6. c #5C747E",
"7. c #646364",
"8. c #6D6D6B",
"9. c #6C6A67",
"0. c #787967",
"q. c #696D77",
"w. c #786971",
"e. c #767779",
"r. c #776967",
"t. c #841F34",
"y. c #8A2A39",
"u. c #8D3132",
"i. c #856C39",
"p. c #887738",
"a. c #937F34",
"s. c #893647",
"d. c #9E2F40",
"f. c #857846",
"g. c #847B58",
"h. c #907444",
"j. c #AB7249",
"k. c #837C6A",
"l. c #896979",
"z. c #827977",
"x. c #927C76",
"c. c #95853C",
"v. c #9F903B",
"b. c #9B8846",
"n. c #968A55",
"m. c #9D925B",
"M. c #8B894E",
"N. c #A89749",
"B. c #A88F59",
"V. c #A99856",
"C. c #B39A56",
"Z. c #B6974B",
"A. c #ABA15B",
"S. c #B7A559",
"D. c #B3A14B",
"F. c #898568",
"G. c #938A62",
"H. c #918C6C",
"J. c #95916A",
"K. c #898774",
"L. c #998E77",
"P. c #8F927C",
"I. c #999779",
"U. c #AB8A6A",
"Y. c #A39965",
"T. c #B59F6F",
"R. c #A99E77",
"E. c #B99670",
"W. c #B5A364",
"Q. c #BAAB64",
"!. c #B8A868",
"~. c #A9A27D",
"^. c #B3A676",
"/. c #B5AF6E",
"(. c #D2BA58",
"). c #C0936C",
"_. c #C8AB66",
"`. c #C8B667",
"'. c #D5BA6B",
"]. c #C7A973",
"[. c #C7B679",
"{. c #D6AF6A",
"}. c #E1B26E",
"|. c #D1C058",
" X c #DCC979",
".X c #DCCF73",
"XX c #E4D06E",
"oX c #E5D578",
"OX c #F4DC79",
"+X c #E8C971",
"@X c #F8E57C",
"#X c #3E5082",
"$X c #445784",
"%X c #4B678D",
"&X c #7C7984",
"*X c #65758C",
"=X c #837B8A",
"-X c #75859B",
";X c #6C889D",
":X c #7991A9",
">X c #868785",
",X c #999787",
"<X c #A29E84",
"1X c #AA8D94",
"2X c #A5A689",
"3X c #BEB286",
"4X c #A8A897",
"5X c #B8B799",
"6X c #B1AD90",
"7X c #999AAF",
"8X c #B9B9A9",
"9X c #B7A8AD",
"0X c #C5BA86",
"qX c #BFC09E",
"wX c #BBC3AE",
"eX c #DBC987",
"rX c #D8C994",
"tX c #CBC082",
"yX c #ECCD86",
"uX c #E7CA85",
"iX c #EAD689",
"pX c #E2CE97",
"aX c #EBD798",
"sX c #F4DB94",
"dX c #F6E388",
"fX c #FBE298",
"gX c #EEE193",
"hX c #C6C3A9",
"jX c #EAD8A9",
"kX c #F9E8B2",
"lX c None",
/* pixels */
"lXlXlXlXlXlXlXlXlXlXlXlXlXlXlXlXlXlXlXlXlXlXlXlXlXlXlXlXlXlXlXlXlXlXlXlXlXlXlXlXlXlXlXlXlXlXlXlXlXlXlXlXlXlXlXlXlXlXlXlXlXlXlXlX",
"lXlXlXlXlXlXlXlXlXlXlXlXlXlXlXlXlXlXlXlXlXlXlXlXlXlXlXlXlXlXlXlXlXlXlXlXlXlXlXlXlXlXlXlXlXlXlXlXlXlXlXlXlXlXlXlXlXlXlXlXlXlXlXlX",
"lXlXlXlXlXlXlXlXlXlXlXlXlXlXlXlXlXlXlXlXlXlXlXlXlXlXlXlXlXlXlXlXlXlXlXlXlXlXlXlXlXlXlXlXlXlXlXlXlXlXlXlXlXlXlXlXlXlXlXlXlXlXlXlX",
"lXlXlXlXlXlXlXlXlXlXlXlXlXlXlXlXlXlXlXlXlXlXlXlXlXlXlXlXlXlXlXlXlXlXlXlXlXlXlXlXlXlXlXlXlXlXlXlXlXlXlXlXlXlXlXlXlXlXlXlXlXlXlXlX",
"lXlXlXlXlXlXlXlXlXlXlXlXlXlXlXlXlXlXlXlXlXlXlXlXlXlXlXlXlXlXlXlXlXlXlXlXlXlXlXlXlXlXlXlXlXlXlXlXlXlXlXlXlXlXlXlXlXlXlXlXlXlXlXlX",
"lXlXlXlXlXlXlXlXlXlXlXlXlXlXlXlXlXlXlXlXlXlXlXlXlXlXlXlXlXlXlXlXlXlXlXlXlXlXlXlXlXlXlXlXlXlXlXlXlXlXlXlXlXlXlXlXlXlXlXlXlXlXlXlX",
"lXlXlXlXlXlXlXlXlXlXlXlXlXlXlXlXlXlXlXlXlXlXlXlXlXlXlXlXlXlXlXlXlXlXlXlXlXlXlXlXlXlXlXlXlXlXlXlXlXlXlXlXlXlXlXlXlXlXlXlXlXlXlXlX",
"lXlXlXlXlXlXlXlXlXlXlXlXlXlXlXlXlXlXlXlXlXlXlXlXlXlXlXlXlXlXlXlXlXlXlXlXlXlXlXlXlXlXlXlXlXlXlXlXlXlXlXlXlXlXlXlXlXlXlXlXlXlXlXlX",
"lXlXlXlXlXlXlXlXlXlXlXlXlXlXlXlXlXlXlXlXlXlXlXlXlXlXlXlXlXlXlXlXlXlXlXlXlXlXlXlXlXlXlXlXlXlXlXlXlXlXlXlXlXlXlXlXlXlXlXlXlXlXlXlX",
"lXlXlXlXlXlXlXlXlXlXlXlXlXlXlXlXlXlXlXlXlXlXlXlXlXlXlXlXlXlXlXlXlXlXlXlXlXlXlXlXlXlXlXlXlXlXlXlXlXlXlXlXlXlXlXlXlXlXlXlXlXlXlXlX",
"lXlXlXlXlXlXlXlXlXlXlXlXlXlXlXlXlXlXlXlXlXlXlXlXlXlXlXlXlXlXlXlXlXlXlXlXlXlXlXlXlXlXlXlXlXlXlXlXlXlXlXlXlXlXlXlXlXlXlXlXlXlXlXlX",
"lXlXlXlXlXlXlXlXlXlXlXlXlXlXlXlXlXlXlXlXlXlXlXlXlXlXlXlXlXlXlXlXlXlXlXlXlXlXlXlXlXlXlXlXlXlXlXlXlXlXlXlXlXlXlXlXlXlXlXlXlXlXlXlX",
"lXlXlXlXlXlXlXlXlXlXlXlXlXlXlXlXlXlXlXlXlXlXlXlXlXlXlXlXlXlXlXlXlXlXlXlXlXlXlXlXlXlXlXlXlXlXlXlXlXlXlXlXlXlXlXlXlXlXlXlXlXlXlXlX",
"lXlXlXlXlXlXlXlXlXlXlXlXlXlXlXlXlXlXlXlXlXlXlXlXlXlXlXlXlXlXlXlXlXlXlXlXlXlXlXlXlXlXlXlXlXlXlXlXlXlXlXlXlXlXlXlXlXlXlXlXlXlXlXlX",
"lXlXlXlXlXlXlXlXlXlXlXlXlXlXlXlXlXlXlXlXlXlXlXlXlXlXlXlXlXlXlXlXlXlXlXlXlXlXlXlXlXlXlXlXlXlXlXlXlXlXlXlXlXlXlXlXlXlXlXlXlXlXlXlX",
"lXlXlXlXlXlXlXlXlXlXlXlXlXlXlXlXlXlXlXlXlXlXlXlXlXlXlXlXlXlXlXlXlXlXlXlXlXlXlXlXlXlXlXlXlXlXlXlXlXlXlXlXlXlXlXlXlXlXlXlXlXlXlXlX",
"lXlXlXlXlXlXlXlXlXlXlXlXlXlXlXlXlXlXlXlXlXlXlXlXlXlXlXlXlXlXlXlXlXlXlXlXlXlXlXlXlXlXlXlXlXlXlXlXlXlXlXlXlXlXlXlXlXlXlXlXlXlXlXlX",
"lXlXlXlXlXlXlXlXlXlXlXlXlXlXlXlXlXlXlXlXlXlXlXlXlXlXlXlXlXlXlXlXlXlXlXlXlXlXlXlXlXlXlXlXlXlXlXlXlXlXlXlXlXlXlXlXlXlXlXlXlXlXlXlX",
"lXlXlXlXlXlXlXlXlXlXlXlXlXlXlXlXlXlXlXlXlXlXlXlXlXlXlXlXlXlXlXlXlXlXlXlXlXlXlXlXlXlXlXlXlXlXlXlXlXlXlXlXlXlXlXlXlXlXlXlXlXlXlXlX",
"lXlXlXlXlXlXlXlXlXlXlXlXlXlXlXlXlXlXlXlXlXlXlXlXlXlXlXlXlXlXlXlXlXlXlXlXlXlXlXlXlXlXlXlXlXlXlXlXlXlXlXlXlXlXlXlXlXlXlXlXlXlXlXlX",
"lXlXlXlXlXlXlXlXlXlXlXlXlXlXlXlXlXlXlXlXlXlXlXlXlXlXlXlXlXlXlXlXlXlXlXlXlXlXlXlXlXlXlXlXlXlXlXlXlXlXlXlXlXlXlXlXlXlXlXlXlXlXlXlX",
"lXlXlXlXlXlXlXlXlXlXlXlXlXlXlXlXlXlXlXlXlXlXlXlXlXlXlXlXlXlXlXlXlXlXlXlXlXlXlXlXlXlXlXlXlXlXlXlXlXlXlXlXlXlXlXlXlXlXlXlXlXlXlXlX",
"lXlXlXlXlXlXlXlXlXlXlXlXlXlXlXlXlXlXlXlXlXlXlXlXlXlXlXlXlXlXlXlXlXlXlXlXlXlXlXlXlXlXlXlXlXlXlXlXlXlXlXlXlXlXlXlXlXlXlXlXlXlXlXlX",
"lXlXlXlXlXlXlXlXlXlXlXlXlXlXlXlXlXlXlXlXlXlXlXlXlXlXlXlXlXlXlXlXlXlXlXlXlXlXlXlXlXlXlXlXlXlXlXlXlXlXlXlXlXlXlXlXlXlXlXlXlXlXlXlX",
"lXlXlXlXlXlXlXlXlXlXlXlXlXlXlXlXlXlXlXlXlXlXlXlXlXlXlXlXlXlXlXlXlXlXlXlXlXlXlXlXlXlXlXlXlXlXlXlXlXlXlXlXlXlXlXlXlXlXlXlXlXlXlXlX",
"lXlXlXlXlXlXlXlXlXlXlXlXlXlXlXlXlXlXlXlXlXlXlXlXlXlXlXlXlXlXlXlXlXlXlXlXlXlXlXlXlXlXlXlXlXlXlXlXlXlXlXlXlXlXlXlXlXlXlXlXlXlXlXlX",
"lXlXlXlXlXlXlXlXlXlXlXlXlXlXlXlXlXlXlXlXlXlXlXlXlXlXlXlXlXlXlXlXlXl lXlXlXlXlXlXlXlXlXlXlXlXlXlXlXlXlXlXlXlXlXlXlXlXlXlXlXlXlXlX",
"lXlXlXlXlXlXlXlXlXlXlXlXlXlXlXlXlXlXlXlXlXlXlXlXlXlXlXlXlXlXlXlXlXx x lXlXlXlXlXlXlXlXlXlXlXlXlXlXlXlXlXlXlXlXlXlXlXlXlXlXlXlXlX",
"lXlXlXlXlXlXlXlXlXlXlXlXlXlXlXlXlXlXlXlXlXlXlXlXlXlXlXlXlX: q $ x m { x > lXlXlXlXlXlXlXlXlXlXlXlXlXlXlXlXlXlXlXlXlXlXlXlXlXlXlX",
"lXlXlXlXlXlXlXlXlXlXlXlXlXlXlXlXlXlXlXlXlXlXlXlXlXlXlXlX&.w.-.x b y.s.m -.w._ lXlXlXlXlXlXlXlXlXlXlXlXlXlXlXlXlXlXlXlXlXlXlXlXlX",
"lXlXlXlXlXlXlXlXlXlXlXlXlXlXlXlXlXlXlXlXlXlXlXlXlXlXr O.>X9X1Xx y.u.y.M 1X1Xa r lXlXlXlXlXlXlXlXlXlXlXlXlXlXlXlXlXlXlXlXlXlXlXlX",
"lXlXlXlXlXlXlXlXlXlXlXlXlXlXlXlXlXlXlXlXlXlXlXlXlXe ( | q.&X=Xx y.d.t.s.l.=X3.| | lXlXlXlXlXlXlXlXlXlXlXlXlXlXlXlXlXlXlXlXlXlXlX",
"lXlXlXlXlXlXlXlXlXlXlXlXlXlXlXlXlXlXlXlXlXlXlXlXlX% o.$X3.$X] m d.t.h [ ] $X%X$Xo.lXlXlXlXlXlXlXlXlXlXlXlXlXlXlXlXlXlXlXlXlXlXlX",
"lXlXlXlXlXlXlXlXlXlXlXlXlXlXlXlXlXlXlXlXlXlXlXlXt 3.*X-X;X&Xl.m j t.j M =X7X*X7X6.% lXlXlXlXlXlXlXlXlXlXlXlXlXlXlXlXlXlXlXlXlXlX",
"lXlXlXlXlXlXlXlXlXlXlXlXlXlXlXlXlXlXlXlXlXlXlX* 3 0.4XhXwX8XU.g h b b n ).jXhXhX>Xs lXlXlXlXlXlXlXlXlXlXlXlXlXlXlXlXlXlXlXlXlXlX",
"lXlXlXlXlXlXlXlXlXlXlXlXlXlXlXlXlXlXlXlXlXlXlX=.&.1.F.G.J.2X].j.n b n j.}.yXL.,X8.7 lXlXlXlXlXlXlXlXlXlXlXlXlXlXlXlXlXlXlXlXlXlX",
"lXlXlXlXlXlXlXlXlXlXlXlXlXlXlXlXlXlXlXlXlXlX9.,XK.I P G @.L.rXsXh.Z C _.yXuXP =.3.` lXlXlXlXlXlXlXlXlXlXlXlXlXlXlXlXlXlXlXlXlXlX",
"lXlXlXlXlXlXlXlXlXlXlXlXlXlXlXlXlXlXlXlXlXlX$.7.:.I ,.G.*.2.m.S.b.c.v.v.C.E.L.9.3.o.lXlXlXlXlXlXlXlXlXlXlXlXlXlXlXlXlXlXlXlXlXlX",
"lXlXlXlXlXlXlXlXlXlXlXlXlXlXlXlXlXlXlXlXlXlX( t < F A.tX~ C B C Z..XXXD Z i.jX2.%.3.e lXlXlXlXlXlXlXlXlXlXlXlXlXlXlXlXlXlXlXlXlX",
"lXlXlXlXlXlXlXlXlXlXlXlXlXlXlXlXlXlXlXlXlXlX%.%.@.I b.oXa.p.i.C D.oXXXD i.B.aXf.;.e.s lXlXlXlXlXlXlXlXlXlXlXlXlXlXlXlXlXlXlXlXlX",
"lXlXlXlXlXlXlXlXlXlXlXlXlXlXlXlXlXlXlXlXlXlX9.P.H.Y c.'.(.'.T.V C.eXiX! b. XfXa.,.8Xp lXlXlXlXlXlXlXlXlXlXlXlXlXlXlXlXlXlXlXlXlX",
"lXlXlXlXlXlXlXlXlXlXlXlXlXlXlXlXlXlXlXlXlX0 @.1.2.p.b.Z.{.Z.p.B b.W.T.Y ~ V.Q.T ~ H.5 O.lXlXlXlXlXlXlXlXlXlXlXlXlXlXlXlXlXlXlXlX",
"lXlXlXlXlXlXlXlXlXlXlXlXlXlXlXlXlXlXlXlXy 3   + J A.v.D _.T   O B B G . O @ G d d I 5 O.lXlXlXlXlXlXlXlXlXlXlXlXlXlXlXlXlXlXlXlX",
"lXlXlXlXlXlXlXlXlXlXlXlXlXlXlXlXlXlXlXlXl *.~ Q A /.c.V `.T o 1 >.h.f.d @ 5 L >.R k 6 K lXlXlXlXlXlXlXlXlXlXlXlXlXlXlXlXlXlXlXlX",
"lXlXlXlXlXlXlXlXlXlXlXlXlXlXlXlXlXlXlXlXz !.eXV.V S.b.J `.A   O N.uXuXB   @ Y 0X~.@ X O.lXlXlXlXlXlXlXlXlXlXlXlXlXlXlXlXlXlXlXlX",
"lXlXlXlXlXlXlXlXlXlXlXlXlXlXlXlXlXlXlXlXB [.V.b.c.V.c.Q _.c.J Q Z.+XyXi.Y Y C 0X0X~ :.&.lXlXlXlXlXlXlXlXlXlXlXlXlXlXlXlXlXlXlXlX",
"lXlXlXlXlXlXlXlXlXlXlXlXlXlXlXlXlXlXlX4 E ^.E i.aX! B ^ _.{.'.`.'.XXdX'.'.S.T [.fXsXkXF.< lXlXlXlXlXlXlXlXlXlXlXlXlXlXlXlXlXlXlX",
"lXlXlXlXlXlXlXlXlXlXlXlXlXlXlXlXlXlXlXc F G.R >.^.Y G H E.].W.W.N.C./.!.!.B.B U.].[.eXn.< lXlXlXlXlXlXlXlXlXlXlXlXlXlXlXlXlXlXlX",
"lXlXlXlXlXlXlXlXlXlXlXlXlXlXlXlXlXlXlX' o ; 1.1.O # * c x.x.z.K.F # k 0.k.r.4 > 4 @ /.M.1 lXlXlXlXlXlXlXlXlXlXlXlXlXlXlXlXlXlXlX",
"lXlXlXlXlXlXlXlXlXlXlXlXlXlXlXlXlXlXK K L @.0.0.U @.@.&.=.e.>Xq.s , s 5.=X&Xy O.O.p M.W 4 lXlXlXlXlXlXlXlXlXlXlXlXlXlXlXlXlXlXlX",
"lXlXlXlXlXlXlXlXlXlXlXlXlXlX9 7 = : X n.0Xn.R.I.I.qX8X2XK <.8., i = * 3 7.7.5 ,XK.o X 1 5 lXlXlXlXlXlXlXlXlXlXlXlXlXlXlXlXlXlXlX",
"lXlXlXlXlXlXlXlXlXlXlXlXO.+.+.$.+.L G n.`.C.I.R.~.6X6X2X6 <.8.3 * * 4 = &.7.5 P.K.o P z 4 $.lXlXlXlXlXlXlXlXlXlXlXlXlXlXlXlXlXlX",
"lXlXlXlXlXlXlXlXlXlXlXlXK.8X8X8X4X2X[..XdXiX~.K.H.I.<XP.6 5.q.: ; ; 3 - t , X K.F.+ ^.f.X 0 lXlXlXlXlXlXlXlXlXlXlXlXlXlXlXlXlXlX",
"lXlXlXlXlXlXlXlXlXlXlXlX2.2X,X4X,XG.`.XX@XfXR.k.H.H.P.0.p %.=.4 G G U 4 , = 6 <.:.@ n.f.I 4 +.lXlXlXlXlXlXlXlXlXlXlXlXlXlXlXlXlX",
"lXlXlXlXlXlXlXlXlXlXlXX 1 d o ; ; G eXdX@XgX>.L F.F < 3 3 4 : 2 B.eXrXG * 7 = : 4 o + F.qX5 X i lXlXlXlXlXlXlXlXlXlXlXlXlXlXlXlX",
"lXlXlXlXlXlXlXlXlXlXlXP G G Y H G H !. X X0X@.L 2.F i p L I k d B.yXpXd 3 7 7 : > d F J.qXF L U lXlXlXlXlXlXlXlXlXlXlXlXlXlXlXlX",
"lXlXlXlXlXlXlXlXlXlXlXR.uXiXiXiXuXA.B d d k * < @ 0.=.F rXtXm.f N.yXrXz 4 w = : : l V.W.G.F.4XK.3 : lXlXlXlXlXlXlXlXlXlXlXlXlXlX",
"lXlXlXlXlXlXlXlXlXlXz [.uXOXOX@XXX`.z l > = r 7 i <.*.R uX Xn.f n.0X5XL w r ( _ _ c Y.A.G.L.6X<XL K K lXlXlXlXlXlXlXlXlXlXlXlXlX",
"lXlXlXlXlXlXlXlXlXlXG rXoX|.|.(.XXeXF lXa r ) ) e i g.[.`.(.Y.o 3 | 5.} & } #X$X.._ F.H.I.qXqX5X8X8Xe.a lXlXlXlXlXlXlXlXlXlXlXlX",
"lXlXlXlXlXlXlXlXlXlXlX3X/.D.S.S.].0XP lXlXt ) ) ( - :.^.S./.n.1 (  .o.} % } X.#X..) 8.0.k.2X2X4X4X4X0.y lXlXlXlXlXlXlXlXlXlXlXlX",
"lXlXlXlXlXlXlXlXlXlXlXL F k k 2 d z lXlXlXt t 8 t w c c l v @ 4 7 ` ( ( 8 8 ( ( r 7 p u : c 4 4 s p y = #.lXlXlXlXlXlXlXlXlXlXlX",
"lXlXlXlXlXlXlXlXlXlXlXlX9 a 0 _ a lXlXlXlXlXr i , = 0 _ 0 0 : 3 q _ r q s w y w s y = y q a u a y w a _ lXlXlXlXlXlXlXlXlXlXlXlX",
"lXlXlXlXlXlXlXlXlXlXlXlXlXlXlXlXlXlXlXlXlXlXlXlXlXlXlXlXlXlXlXlXlXlXlXlX#.lXlXlXlXlXlXlXlX' ' #.$.&.&.lXlXlXlXlXlXlXlXlXlXlXlXlX",
"lXlXlXlXlXlXlXlXlXlXlXlXlXlXlXlXlXlXlXlXlXlXlXlXlXlXlXlXlXlXlXlXlXlXlXlXlXlXlXlXlXlXlXlXlXlXlXlXlXlXlXlXlXlXlXlXlXlXlXlXlXlXlXlX"
};
