/* XPM */
static char *xpm_[] = {
/* columns rows colors chars-per-pixel */
"64 64 236 2 ",
"   c #34290A",
".  c #3B3718",
"X  c #302F14",
"o  c #2A2B2A",
"O  c #362D27",
"+  c #2C3329",
"@  c #383728",
"#  c #2A2C36",
"$  c #342E37",
"%  c #2E3232",
"&  c #2E333C",
"*  c #2A3538",
"=  c #323434",
"-  c #3C3A34",
";  c #33343C",
":  c #3A3C3B",
">  c #383837",
",  c #463A17",
"<  c #423008",
"1  c #463928",
"2  c #433B34",
"3  c #433B3A",
"4  c #513C29",
"5  c #37423C",
"6  c #3E4122",
"7  c #5B4816",
"8  c #6E5A1B",
"9  c #715E1A",
"0  c #46462C",
"q  c #554A28",
"w  c #4B4333",
"e  c #484739",
"r  c #564A39",
"t  c #59553A",
"y  c #5C572D",
"u  c #6A5726",
"i  c #725D29",
"p  c #635C3B",
"a  c #645934",
"s  c #614E2F",
"d  c #58623F",
"f  c #6A6439",
"g  c #766A39",
"h  c #76692D",
"j  c #786715",
"k  c #2B2E41",
"l  c #332E49",
"z  c #2D3343",
"x  c #293849",
"c  c #343B44",
"v  c #3A3C44",
"b  c #343B4D",
"n  c #373547",
"m  c #3C3D53",
"M  c #213455",
"N  c #1E344B",
"B  c #433D4B",
"V  c #4A3F54",
"C  c #52374A",
"Z  c #3C464A",
"A  c #3A4452",
"S  c #384D6D",
"D  c #444345",
"F  c #45434C",
"G  c #4A4C4B",
"H  c #494946",
"J  c #554946",
"K  c #57564A",
"L  c #464553",
"P  c #4A4555",
"I  c #4C4A54",
"U  c #484A5B",
"Y  c #554D56",
"T  c #565559",
"R  c #4E5A4A",
"E  c #625A44",
"W  c #65594C",
"Q  c #685954",
"!  c #5B6249",
"~  c #596458",
"^  c #686447",
"/  c #776545",
"(  c #686859",
")  c #756D55",
"_  c #787458",
"`  c #717551",
"'  c #434A62",
"]  c #544F68",
"[  c #495568",
"{  c #5B5563",
"}  c #595768",
"|  c #595C77",
" . c #625D68",
".. c #7A5866",
"X. c #566269",
"o. c #666B68",
"O. c #787A66",
"+. c #756C71",
"@. c #6B7576",
"#. c #787878",
"$. c #6F6D6B",
"%. c #8B742A",
"&. c #887738",
"*. c #8D6F35",
"=. c #875F5F",
"-. c #957C47",
";. c #867857",
":. c #8C704E",
">. c #AC7C44",
",. c #867A65",
"<. c #826D6F",
"1. c #778374",
"2. c #9B823F",
"3. c #A38F3E",
"4. c #998B44",
"5. c #8B815B",
"6. c #988958",
"7. c #999658",
"8. c #A28556",
"9. c #A99656",
"0. c #AD934B",
"q. c #B9A35B",
"w. c #888967",
"e. c #928967",
"r. c #999568",
"t. c #8B8979",
"y. c #938B76",
"u. c #9D9C7C",
"i. c #989679",
"p. c #8E937D",
"a. c #A79765",
"s. c #B89869",
"d. c #A29D7C",
"f. c #A59576",
"g. c #B58C60",
"h. c #ACA467",
"j. c #B6A667",
"k. c #A6A67C",
"l. c #B8AA75",
"z. c #BDB36F",
"x. c #D5B556",
"c. c #CFAB58",
"v. c #C99661",
"b. c #C9B569",
"n. c #D5BB68",
"m. c #C6AC78",
"M. c #C8B978",
"N. c #D3BD74",
"B. c #CCAD6D",
"V. c #E0B566",
"C. c #D2C474",
"Z. c #E6C76C",
"A. c #E7CB78",
"S. c #485B82",
"D. c #7C7A82",
"F. c #7C7B86",
"G. c #616E8E",
"H. c #817E88",
"J. c #8A898C",
"K. c #868689",
"L. c #948789",
"P. c #9A9989",
"I. c #888993",
"U. c #928F96",
"Y. c #949395",
"T. c #95949A",
"R. c #9A959D",
"E. c #9B999D",
"W. c #999792",
"Q. c #869393",
"!. c #AA9E85",
"~. c #A79986",
"^. c #A29896",
"/. c #99A391",
"(. c #ABA583",
"). c #A9AB84",
"_. c #A8A488",
"`. c #B7AD8A",
"'. c #AAA696",
"]. c #BBBB95",
"[. c #B8B597",
"{. c #B2B090",
"}. c #9D9CA3",
"|. c #989AA4",
" X c #8E91A4",
".X c #A19EA4",
"XX c #A19EB1",
"oX c #9AA7A9",
"OX c #A4A3A4",
"+X c #ACACA5",
"@X c #A5A3A9",
"#X c #ADACAC",
"$X c #A9A7A8",
"%X c #B0AFAC",
"&X c #B2ACA3",
"*X c #AFB0AA",
"=X c #ACB5A6",
"-X c #B3B3AC",
";X c #BAB3AB",
":X c #B6B4A6",
">X c #AEACB1",
",X c #A9AAB1",
"<X c #B2AEB4",
"1X c #B5B4B3",
"2X c #B9B6B4",
"3X c #B9B9B4",
"4X c #B4B4BA",
"5X c #B9B6B9",
"6X c #BBBABC",
"7X c #B7B8B3",
"8X c #CDBD82",
"9X c #C6B789",
"0X c #C9BB97",
"qX c #CEB08A",
"wX c #C6B2A9",
"eX c #C6B3B7",
"rX c #BEC098",
"tX c #D6C285",
"yX c #DACA8A",
"uX c #C3C49A",
"iX c #D9CA92",
"pX c #DFD49E",
"aX c #EADB8B",
"sX c #EAD99A",
"dX c #F7DE96",
"fX c #F1D885",
"gX c #FFE283",
"hX c #FBE88A",
"jX c #F4E39D",
"kX c #D1C8AF",
"lX c #E5DAA7",
"zX c #E3CBA7",
"xX c #F5E4AA",
"cX c #C1BACA",
"vX c #CDC2C6",
"bX c None",
/* pixels */
"bXbXbXbXbXbXbXbXbXbXbXbXbXbXbXbXbXbXbXbXbXbXbXbXbXbXbXbXbXbXbXbXbXbXbXbXbXbXbXbXbXbXbXbXbXbXbXbXbXbXbXbXbXbXbXbXbXbXbXbXbXbXbXbX",
"bXbXbXbXbXbXbXbXbXbXbXbXbXbXbXbXbXbXbXbXbXbXbXbXbXbXbXbXbXbXbX#.1X>XT.bXbXbXbXbXbXbXbXbXbXbXbXbXbXbXbXbXbXbXbXbXbXbXbXbXbXbXbXbX",
"bXbXbXbXbXbXbXbXbXbXbXbXbXbXbXbXbXbXbXbXbXbXbXbXbXbXbXbXbXbX+.U.#X7X@XbXbXbXbXbXbXbXbXbXbXbXbXbXbXbXbXbXbXbXbXbXbXbXbXbXbXbXbXbX",
"bXbXbXbXbXbXbXbXbXbXbXbXbXbXbXbXbXbXbXbXbXbXbXbXbXbXbXbXbXH.1X<X1X7X1XT.bXbXbXbXbXbXbXbXbXbXbXbXbXbXbXbXbXbXbXbXbXbXbXbXbXbXbXbX",
"bXbXbXbXbXbXbXbXbXbXbXbXbXbXbXbXbXbXbXbXbXbXbXbXbXbXbXbXbXT.5X%X7X*X-X<XbXbXbXbXbXbXbXbXbXbXbXbXbXbXbXbXbXbXbXbXbXbXbXbXbXbXbXbX",
"bXbXbXbXbXbXbXbXbXbXbXbXbXbXbXbXbXbXbXbXbXbXbXbXbXbXbXbXK.1X2X%X*X*X1X4X}.bXbXbXbXbXbXbXbXbXbXbXbXbXbXbXbXbXbXbXbXbXbXbXbXbXbXbX",
"bXbXbXbXbXbXbXbXbXbXbXbXbXbXbXbXbXbXbXbXbXbXbXbXbXbXbXbXK.5X%X7X-X-X*X<X#XbXbXbXbXbXbXbXbXbXbXbXbXbXbXbXbXbXbXbXbXbXbXbXbXbXbXbX",
"bXbXbXbXbXbXbXbXbXbXbXbXbXbXbXbXbXbXbXbXbXbXbXbXbXbXbXbXI.4X%X2X=X7X1X5X}.bXbXbXbXbXbXbXbXbXbXbXbXbXbXbXbXbXbXbXbXbXbXbXbXbXbXbX",
"bXbXbXbXbXbXbXbXbXbXbXbXbXbXbXbXbXbXbXbXbXbXbXbXbXbXbXbXJ.1X*X;X:X:X7X-XOXbXbXbXbXbXbXbXbXbXbXbXbXbXbXbXbXbXbXbXbXbXbXbXbXbXbXbX",
"bXbXbXbXbXbXbXbXbXbXbXbXbXbXbXbXbXbXbXbXbXbXbXbXbXbXbXbXK.1X1X-X-X=X-X<X@XbXbXbXbXbXbXbXbXbXbXbXbXbXbXbXbXbXbXbXbXbXbXbXbXbXbXbX",
"bXbXbXbXbXbXbXbXbXbXbXbXbXbXbXbXbXbXbXbXbXbXbXbXbXbXbXbXK.5X-X-X=X-X3X1X@XbXbXbXbXbXbXbXbXbXbXbXbXbXbXbXbXbXbXbXbXbXbXbXbXbXbXbX",
"bXbXbXbXbXbXbXbXbXbXbXbXbXbXbXbXbXbXbXbXbXbXbXbXbXbXbXbXD.>X-X;X-X-X7X1X@XbXbXbXbXbXbXbXbXbXbXbXbXbXbXbXbXbXbXbXbXbXbXbXbXbXbXbX",
"bXbXbXbXbXbXbXbXbXbXbXbXbXbXbXbXbXbXbXbXbXbXbXbXbXbXbXbXI J.1X%X7X=X<X1XoXbXbXbXbXbXbXbXbXbXbXbXbXbXbXbXbXbXbXbXbXbXbXbXbXbXbXbX",
"bXbXbXbXbXbXbXbXbXbXbXbXbXbXbXbXbXbXbXbXbXbXbXbXbXbXbXbXF +.$X7X:X-X7X-XK.bXbXbXbXbXbXbXbXbXbXbXbXbXbXbXbXbXbXbXbXbXbXbXbXbXbXbX",
"bXbXbXbXbXbXbXbXbXbXbXbXbXbXbXbXbXbXbXbXbXbXbXbXbXbXbXbXF G #.-X*X-X7XE.} bXbXbXbXbXbXbXbXbXbXbXbXbXbXbXbXbXbXbXbXbXbXbXbXbXbXbX",
"bXbXbXbXbXbXbXbXbXbXbXbXbXbXbXbXbXbXbXbXbXbXbXbXbXbXbXbXD - #.-X7X-XOXF.F bXbXbXbXbXbXbXbXbXbXbXbXbXbXbXbXbXbXbXbXbXbXbXbXbXbXbX",
"bXbXbXbXbXbXbXbXbXbXbXbXbXbXbXbXbXbXbXbXbXbXbXbXbXbXbXbX: o o.-X1X%XT.; ' bXbXbXbXbXbXbXbXbXbXbXbXbXbXbXbXbXbXbXbXbXbXbXbXbXbXbX",
"bXbXbXbXbXbXbXbXbXbXbXbXbXbXbXbXbXbXbXbXbXbXbXbXbXbXbX> G o.Y.;X-X1X$X$.b bXbXbXbXbXbXbXbXbXbXbXbXbXbXbXbXbXbXbXbXbXbXbXbXbXbXbX",
"bXbXbXbXbXbXbXbXbXbXbXbXbXbXbXbXbXbXbXbXbXbXbXbXbXbXm $ X.oX-X;X&X;X;XE.b k bXbXbXbXbXbXbXbXbXbXbXbXbXbXbXbXbXbXbXbXbXbXbXbXbXbX",
"bXbXbXbXbXbXbXbXbXbXbXbXbXbXbXbXbXbXbXbXbXbXbXbXbXbX$ A X.@.+.L.;X'.<.#.[ ' bXbXbXbXbXbXbXbXbXbXbXbXbXbXbXbXbXbXbXbXbXbXbXbXbXbX",
"bXbXbXbXbXbXbXbXbXbXbXbXbXbXbXbXbXbXbXbXbXbXbXbXbXn l ' [ | C =.eXU.J Q | | b bXbXbXbXbXbXbXbXbXbXbXbXbXbXbXbXbXbXbXbXbXbXbXbXbX",
"bXbXbXbXbXbXbXbXbXbXbXbXbXbXbXbXbXbXbXbXbXbXbXbXB > o.Q.oX,X=.=.wX~.=.wX4X Xb bXbXbXbXbXbXbXbXbXbXbXbXbXbXbXbXbXbXbXbXbXbXbXbXbX",
"bXbXbXbXbXbXbXbXbXbXbXbXbXbXbXbXbXbXbXbXbXbXbXbX5 @ o./.=X=X-.:.qXf.-.zX=XoXA bXbXbXbXbXbXbXbXbXbXbXbXbXbXbXbXbXbXbXbXbXbXbXbXbX",
"bXbXbXbXbXbXbXbXbXbXbXbXbXbXbXbXbXbXbXbXbXbXbXD $.w.! R ! r.tXs.:.qXqXiX^ ( ; bXbXbXbXbXbXbXbXbXbXbXbXbXbXbXbXbXbXbXbXbXbXbXbXbX",
"bXbXbXbXbXbXbXbXbXbXbXbXbXbXbXbXbXbXbXbXbXbXbXv o.O.~ ^ f 5.B.s.;.`.m.m.) R Z bXbXbXbXbXbXbXbXbXbXbXbXbXbXbXbXbXbXbXbXbXbXbXbXbX",
"bXbXbXbXbXbXbXbXbXbXbXbXbXbXbXbXbXbXbXbXbXbXbXn + @ 0 k.6.7 8 -.qXf.8 :.9X^ G n bXbXbXbXbXbXbXbXbXbXbXbXbXbXbXbXbXbXbXbXbXbXbXbX",
"bXbXbXbXbXbXbXbXbXbXbXbXbXbXbXbXbXbXbXbXbXbXbXc Z d q h.s.%.j &.9Xa.8 4.C.f ( Z bXbXbXbXbXbXbXbXbXbXbXbXbXbXbXbXbXbXbXbXbXbXbXbX",
"bXbXbXbXbXbXbXbXbXbXbXbXbXbXbXbXbXbXbXbXbXbXbXc 1.1./ 9.n.n.4.&.9Xa.g C.yXh P.D bXbXbXbXbXbXbXbXbXbXbXbXbXbXbXbXbXbXbXbXbXbXbXbX",
"bXbXbXbXbXbXbXbXbXbXbXbXbXbXbXbXbXbXbXbXbXbXL z R o.5.4.q.9.u f f.i.q 5.h.r.t.5 bXbXbXbXbXbXbXbXbXbXbXbXbXbXbXbXbXbXbXbXbXbXbXbX",
"bXbXbXbXbXbXbXbXbXbXbXbXbXbXbXbXbXbXbXbXbXbXc c * e s.*.0.*.  , ;.e.X , i yXy @ bXbXbXbXbXbXbXbXbXbXbXbXbXbXbXbXbXbXbXbXbXbXbXbX",
"bXbXbXbXbXbXbXbXbXbXbXbXbXbXbXbXbXbXbXbXbXbX= R o.d 9.%.3.&.  W (.e.+ @ *.m.f @ bXbXbXbXbXbXbXbXbXbXbXbXbXbXbXbXbXbXbXbXbXbXbXbX",
"bXbXbXbXbXbXbXbXbXbXbXbXbXbXbXbXbXbXbXbXbXbXZ @.1.( a.%.3.%.  / 0Xe.. . u j.K + bXbXbXbXbXbXbXbXbXbXbXbXbXbXbXbXbXbXbXbXbXbXbXbX",
"bXbXbXbXbXbXbXbXbXbXbXbXbXbXbXbXbXbXbXbXbXbX* Z A D p 9 4.v.3.q.qXm.7.4.u ^ { B bXbXbXbXbXbXbXbXbXbXbXbXbXbXbXbXbXbXbXbXbXbXbXbX",
"bXbXbXbXbXbXbXbXbXbXbXbXbXbXbXbXbXbXbXbXbXA * z A * e q 6.N.b.b.l.9Xz.h.y ! ] l ] bXbXbXbXbXbXbXbXbXbXbXbXbXbXbXbXbXbXbXbXbXbXbX",
"bXbXbXbXbXbXbXbXbXbXbXbXbXbXbXbXbXbXbXbXbXB c @.#.1.t.J ^ y.w.` O.'.t._ 6 1.W.F T bXbXbXbXbXbXbXbXbXbXbXbXbXbXbXbXbXbXbXbXbXbXbX",
"bXbXbXbXbXbXbXbXbXbXbXbXbXbXbXbXbXbX0 w 3 P & @.1.#.#.K T #.J.~ Y E.I.X.Z 1.oXZ I bXbXbXbXbXbXbXbXbXbXbXbXbXbXbXbXbXbXbXbXbXbXbX",
"bXbXbXbXbXbXbXbXbXbXbXbXbXbXbXbXbXj.b.r.0 I * * : + + + $  .|.F.# } Q.b N S S S b bXbXbXbXbXbXbXbXbXbXbXbXbXbXbXbXbXbXbXbXbXbXbX",
"bXbXbXbXbXbXbXbXbXbXbXbXbXbXbXbX:.A.n.z.y 5 = + * e t t 3 { XX XY D.|.k N M S.G.b bXbXbXbXbXbXbXbXbXbXbXbXbXbXbXbXbXbXbXbXbXbXbX",
"bXbXbXbXbXbXbXbXbXbXbXbXbXbXbXbXaXA.hXaXh.6 X @ X 6.C.l./ W E.cX5XvXW.O o 5 Q.=XB bXbXbXbXbXbXbXbXbXbXbXbXbXbXbXbXbXbXbXbXbXbXbX",
"bXbXbXbXbXbXbXbXbXbXbXbXbXbXbX( C.q.A.q.l.7 . p g b.A.A.9./ $.W.eXwX,.,.;._ ^ O.Y bXbXbXbXbXbXbXbXbXbXbXbXbXbXbXbXbXbXbXbXbXbXbX",
"bXbXbXbXbXbXbXbXbXbXbXbXbXbXbXO.l.9 N.7 tX4 < j.C.A.A.gXhX6.  f iXB.i sXjXiX, X T bXbXbXbXbXbXbXbXbXbXbXbXbXbXbXbXbXbXbXbXbXbXbX",
"bXbXbXbXbXbXbXbXbXbXbXbXbXbXbXbX;.9.tX6.;.4 , a.2.n.hXgXdXM.f f iXj.8 xXaXaXa.y.K bXbXbXbXbXbXbXbXbXbXbXbXbXbXbXbXbXbXbXbXbXbXbX",
"bXbXbXbXbXbXbXbXbXbXbXbXbXbXbXbXa tXaXj.bXbX3 f.q B.jXjXsXxXr.f uXk.f zXxXjXjXlXt bXbXbXbXbXbXbXbXbXbXbXbXbXbXbXbXbXbXbXbXbXbXbX",
"bXbXbXbXbXbXbXbXbXbXbXbXbXbXbXbX^ sXaX8XbXbXB K ) f f g g l.w.6 ` ( 0 p g h h l.r bXbXbXbXbXbXbXbXbXbXbXbXbXbXbXbXbXbXbXbXbXbXbX",
"bXbXbXbXbXbXbXbXbXbXbXbXbXbXbXbXW lXsX9XbXbXbX2 1.0 .   . e.p.= c L + . . . , u.r bXbXbXbXbXbXbXbXbXbXbXbXbXbXbXbXbXbXbXbXbXbXbX",
"bXbXbXbXbXbXbXbXbXbXbXbXbXbXbXbXbXbXbXbXbXbX- #.'.i.u._.(._ 2 o l z e _.k.r.0 3 bXbXbXbXbXbXbXbXbXbXbXbXbXbXbXbXbXbXbXbXbXbXbXbX",
"bXbXbXbXbXbXbXbXbXbXbXbXbXbXbXbXbXbXbXbXbXbX0 r.{./._.[.].;.- 2 5 - K ].]._.e : bXbXbXbXbXbXbXbXbXbXbXbXbXbXbXbXbXbXbXbXbXbXbXbX",
"bXbXbXbXbXbXT.<X<X,XbXbXbXbXbXbXbXbXbXK bXe r.r.k.t _ u.(.u.i.i.i.p.u.).k.r.0 <.P bXbXbXbXbXbXbXbXbX,X$X#X,X,X.XbXbXbXbXbXbXbXbX",
"bXbXbXbXbXbX@X1X<X1XK.bXbXbXbXbXbXbXt t J 4 z.h.u.r ) d.{.(.).(.).k.).).d.w.t i.( bXbXbXbXbXbXbXbX#X3X-X-X3X-X*XbXbXbXbXbXbXbXbX",
"bXbXbXbXbX@X6X<X2X2X#X+.bXbXbXbXbXK d.E ~.s iXsXd.r O.[.].].].uXrXrXuX]._.y e.uXkXbXbXbXbXbXbXbX%XbXbX:X-X-X*X1X>XbXbXbXbXbXbXbX",
"bXbXbXbXbX>X1X1X;X#X6XY.bXbXbXbXbXY _.5.~.s tXlX,.w ^ d.{.{.0X'.).[.{.{.O.1 l.z.sXbXbXbXbXbXbXF.6XbXbX;X7X=X-X1X#XbXbXbXbXbXbXbX",
"bXbXbXbX@X<X-X2X-X-X7X#XD.bXbXbXbXY {.`.!.s iXlXE bX2 _ k.f.~.^.'._.~.e.O 4 l.C.iXbXbXbXbXbXbXD.1X-XbXbX*X7X1X-X>XbXbXbXbXbXbXbX",
"bXbXbXbX<X7X-X-X-X5X-X5X}.bXbXbXbXR d.u.i.0 ` 5.H bXD K y.(.qX`.`.y.) Q H q &.j.aX8.bXbXbXbXbXT.1X-XbX-X*X-X1X4X<XbXbXbXbXbXbXbX",
"bX<X$XbXOX-X1X*X:X-X-X1X1XH.bXbXbXG O.w._ 6 X + bXbXbX2 ) 9XqXqXqX~.O 2 bXbXbXq.b.sXbXbXbXbXI.4X1X1X*X-X7X-X-X-XOXbXbXbXT.4XI.bX",
"bX1X.XbX$X3X;X-X-X:X;X1X5X@X+.bXbXbX( p.w.0 - bXbXbXbX1 :.8.v.qX>.qX1 3 bXbXbXq.N.tXf.bXbXbXH.1X<X*X*X7X7X-X*X7X5XbXbXD.,X<X.XD.",
"bX#X@XbX$X-X-X;X-X-X*X-X<X4XT.bXbXbX5 P.p.5 bXbXbXbXbX1 -.*.>.v.>.qX4 $ bXbXbXh.M.M.0XbXbXbXK.1X*X3X7X*X-X-X*X3X$XbXbX|.4X4X6XJ.",
"bXbXbXbXbX$X;X%X-X:X-X:X-X1XJ.bXbXbXZ H 5 = F bXb $ Q q 0.n.x.c.V.m.1 $ c : @ 5.r.r.[.bXbX#.&X;X7X=X*X-X*X-X-X*XbXbXbX}.4X#X5XJ.",
"bXbXbXbXbX|.1X3X-X:X:X7X7X-XJ.bXbXbXbX= 5 = D B k l o.a 9.Z.x.x.V.B.4 o z # 5 O.e.r.{.bXbXY.;X+X-X7X7X7X-X7X*XOXbXbXbXJ.<X5X#XK.",
"bXbXbXbXbXbX.X<X7X-X-X-X-X;X-XOX+X'.L.r p.2 v n l bX- 5.M.n.x.Z.hXjX!.D bXbXc 1.y.).rXbXO.+X3XeX#X3X*X*X-X-X1X<XbXbXbXbXR.5XK.T ",
"bXbXbXbXbXbXR.1X-X#X;X-X#X%X5X3X;X;X~.^ y.2 { n l n + _ a.9.q.s.N.qX!.3 bXbXz o.O././.T Q.-X2X<X1X7X*X1X1X1X1XT.bXbXbXbXH.@X#.bX",
"bXbXbXbXbXbXbX}.5X5X2X2X2X5X1X#X;X:X;XP.2 - P.H # # = O @ . . , . , @ o ; & # ; % o : K.1X5X%X7X1X5X1X1X1X5XOXbXbXbXbXbXbXbXbXbX",
"bXbXbXbXbXbXbXK.Y.T.T.Y.T.E.R.R.W.E.Y.L.2 D t.G v v : * > > @ 3 - > ; : ; ; ; c n v n D.T.E.R.Y.T.T.E.|.T.E.I.bXbXbXbXbXbXbXbXbX",
"bXbXbXbXbXbXbXbXbXbXbXbXbXbXbXbXbXbXbX}  .{  .T } | U F P V V B B U U P F Y F P L L F bXbXbXbXbXbXbXbXbXbXbXbXbXbXbXbXbXbXbXbXbX",
"bXbXbXbXbXbXbXbXbXbXbXbXbXbXbXbXbXbXbXbX]  .T { | } U I V V V ] ' A m U F F I V P F bXbXbXbXbXbXbXbXbXbXbXbXbXbXbXbXbXbXbXbXbXbX"
};
