/* XPM */
static char *xpm_[] = {
/* columns rows colors chars-per-pixel */
"64 64 223 2 ",
"   c #312B13",
".  c #3C2C19",
"X  c #3D3214",
"o  c #33321A",
"O  c #3C351A",
"+  c #322A0B",
"@  c #1E2F32",
"#  c #2C2B25",
"$  c #2B2D2D",
"%  c #352D24",
"&  c #342E2A",
"*  c #2D312B",
"=  c #3B3325",
"-  c #34342C",
";  c #3C382C",
":  c #393625",
">  c #2C2D39",
",  c #262B35",
"<  c #312E35",
"1  c #382C38",
"2  c #2B3538",
"3  c #3C3434",
"4  c #343B32",
"5  c #3A3C34",
"6  c #33343B",
"7  c #3B353B",
"8  c #383939",
"9  c #43381A",
"0  c #5F2011",
"q  c #6C2516",
"w  c #443D25",
"e  c #4A3A29",
"r  c #4D2836",
"t  c #592435",
"y  c #413639",
"u  c #453B3A",
"i  c #483D36",
"p  c #542F33",
"a  c #74282A",
"s  c #7A2A3B",
"d  c #753232",
"f  c #3D4132",
"g  c #3E413C",
"h  c #4A4319",
"j  c #5A551A",
"k  c #5A4A16",
"l  c #66571A",
"z  c #77521C",
"x  c #776418",
"c  c #4A432E",
"v  c #4A4728",
"b  c #544E26",
"n  c #57522B",
"m  c #424134",
"M  c #4A4A3B",
"N  c #4A4438",
"B  c #5C593E",
"V  c #565439",
"C  c #4E503A",
"Z  c #675927",
"A  c #715B26",
"S  c #675A35",
"D  c #745E39",
"F  c #746427",
"G  c #6C6339",
"H  c #73633C",
"J  c #7A6C38",
"K  c #6A602F",
"L  c #2A3845",
"P  c #3B3543",
"I  c #3E3D44",
"U  c #39394A",
"Y  c #363F52",
"T  c #2D2D49",
"R  c #423C43",
"E  c #443E4C",
"W  c #483741",
"Q  c #423B56",
"!  c #6B3542",
"~  c #3C424F",
"^  c #3E4244",
"/  c #3C4453",
"(  c #3A4A6E",
")  c #45434F",
"_  c #484849",
"`  c #524946",
"'  c #5A5648",
"]  c #4D4B53",
"[  c #494458",
"{  c #574C5B",
"}  c #595657",
"|  c #45525B",
" . c #764949",
".. c #665948",
"X. c #665956",
"o. c #714249",
"O. c #566150",
"+. c #6A6844",
"@. c #786B46",
"#. c #787344",
"$. c #676356",
"%. c #7A6C53",
"&. c #7D7857",
"*. c #6F714C",
"=. c #474B65",
"-. c #4C5667",
";. c #5E5766",
":. c #515F72",
">. c #564F71",
",. c #586A74",
"<. c #6A6868",
"1. c #746767",
"2. c #6D7266",
"3. c #767265",
"4. c #6C6874",
"5. c #737174",
"6. c #767479",
"7. c #79787A",
"8. c #7D6E71",
"9. c #832936",
"0. c #905C35",
"q. c #816D28",
"w. c #907A3C",
"e. c #943C4C",
"r. c #845A4B",
"t. c #83734B",
"y. c #937444",
"u. c #867B5C",
"i. c #906F4A",
"p. c #835265",
"a. c #847869",
"s. c #837E76",
"d. c #926D74",
"f. c #988739",
"g. c #A4973B",
"h. c #978648",
"j. c #988C5A",
"k. c #8F825F",
"l. c #AC9A4D",
"z. c #A58754",
"x. c #A6955D",
"c. c #A08A41",
"v. c #B9A94C",
"b. c #B9A95B",
"n. c #A9A05B",
"m. c #84846E",
"M. c #96886A",
"N. c #989363",
"B. c #8B8779",
"V. c #938C77",
"C. c #96967C",
"Z. c #989976",
"A. c #AA9B68",
"S. c #A59A74",
"D. c #AC8A65",
"F. c #B8A464",
"G. c #A6A477",
"H. c #BDAC73",
"J. c #B6A976",
"K. c #BCB178",
"L. c #C2AF58",
"P. c #C49964",
"I. c #C8B57A",
"U. c #D4B97A",
"Y. c #CDB56F",
"T. c #DAC273",
"R. c #CBC17C",
"E. c #E3CB78",
"W. c #E4C76B",
"Q. c #676787",
"!. c #7C7C86",
"~. c #827E8A",
"^. c #847689",
"/. c #7F8085",
"(. c #888688",
"). c #979786",
"_. c #8D8997",
"`. c #918E95",
"'. c #928F9A",
"]. c #97949C",
"[. c #98959B",
"{. c #989698",
"}. c #8F9A9C",
"|. c #A69583",
" X c #97A493",
".X c #B8AA88",
"XX c #AEB28E",
"oX c #BCB487",
"OX c #A9A897",
"+X c #B4B29A",
"@X c #AEAF8F",
"#X c #9D99A7",
"$X c #A59AAB",
"%X c #9BA6B0",
"&X c #A2A1A5",
"*X c #ADACAD",
"=X c #A8A7A9",
"-X c #B0AFAE",
";X c #B3B2AD",
":X c #BABDA3",
">X c #AEACB2",
",X c #ADABB9",
"<X c #B1AFB2",
"1X c #B2AEB8",
"2X c #B5B3B3",
"3X c #B6B3BA",
"4X c #B9B7BA",
"5X c #BAB9B8",
"6X c #CDBD80",
"7X c #C7BC83",
"8X c #CFB7AB",
"9X c #D2C48D",
"0X c #DACA88",
"qX c #D5C798",
"wX c #D5CD92",
"eX c #E3CB84",
"rX c #F3DB94",
"tX c #ECD595",
"yX c #F5E397",
"uX c #EEDCB8",
"iX c #E8D8A5",
"pX c #A5B0C6",
"aX c None",
/* pixels */
"aXaXaXaXaXaXaXaXaXaXaXaXaXaXaXaXaXaXaXaXaXaXaXaXaXaXaXaXaXaXaX6.6.4.!.aXaXaXaXaXaXaXaXaXaXaXaXaXaXaXaXaXaXaXaXaXaXaXaXaXaXaXaXaX",
"aXaXaXaXaXaXaXaXaXaXaXaXaXaXaXaXaXaXaXaXaXaXaXaXaXaXaXaXaXaX(.<X>X<X&XaXaXaXaXaXaXaXaXaXaXaXaXaXaXaXaXaXaXaXaXaXaXaXaXaXaXaXaXaX",
"aXaXaXaXaXaXaXaXaXaXaXaXaXaXaXaXaXaXaXaXaXaXaXaXaXaXaXaXaX!.=X3X2X2X-X'.(.<.~.'._.~.aX~.aXaXaXaXaXaXaXaXaXaXaXaXaXaXaXaXaXaXaXaX",
"aXaXaXaXaXaXaXaXaXaXaXaXaXaXaXaXaXaXaXaXaXaXaXaXaXaXaXaXaX].3X2X4X-X;X8X>X5.[.3X1X_.aXaXaXaXaXaXaXaXaXaXaXaXaXaXaXaXaXaXaXaXaXaX",
"aXaXaXaXaXaXaXaXaXaXaXaXaXaXaXaXaXaXaXaXaXaXaXaXaXaXaXaXaX].1X4X;X;X;X*X3X5.{.3X'.aXaXaXaXaXaXaXaXaXaXaXaXaXaXaXaXaXaXaXaXaXaXaX",
"aXaXaXaXaXaXaXaXaXaXaXaXaXaXaXaXaXaXaXaXaXaXaXaXaXaXaXaXaXaX'.&X;X;X5X*X{.aXaX].aXaXaXaXaXaXaXaXaXaXaXaXaXaXaXaXaXaXaXaXaXaXaXaX",
"aXaXaXaXaXaXaXaXaXaXaXaXaXaXaXaXaXaXaXaXaXaXaXaXaXaXaXaXaXaXaXaX4X;X<X*XaXaXaXaXaXaXaXaXaXaXaXaXaXaXaXaXaXaXaXaXaXaXaXaXaXaXaXaX",
"aXaXaXaXaXaXaXaXaXaXaXaXaXaXaXaXaXaXaXaXaXaXaXaXaXaXaXaXaXaXaXaXaXaXaXaXaXaXaXaXaXaXaXaXaXaXaXaXaXaXaXaXaXaXaXaXaXaXaXaXaXaXaXaX",
"aXaXaXaXaXaXaXaXaXaXaXaXaXaXaXaXaXaXaXaXaXaXaXaXaXaXaXaXaXaXaXaXaXaXaXaXaXaXaXaXaXaXaXaXaXaXaXaXaXaXaXaXaXaXaXaXaXaXaXaXaXaXaXaX",
"aXaXaXaXaXaXaXaXaXaXaXaXaXaXaXaXaXaXaXaXaXaXaXaXaXaXaXaXaXaXaXaXaXaXaXaXaXaXaXaXaXaXaXaXaXaXaXaXaXaXaXaXaXaXaXaXaXaXaXaXaXaXaXaX",
"aXaXaXaXaXaXaXaXaXaXaXaXaXaXaXaXaXaXaXaXaXaXaXaXaXaXaXaXaXaXaXaXaXaXaXaXaXaXaXaXaXaXaXaXaXaXaXaXaXaXaXaXaXaXaXaXaXaXaXaXaXaXaXaX",
"aXaXaXaXaXaXaXaXaXaXaXaXaXaXaXaXaXaXaXaXaXaXaXaXaXaXaXaXaXaXaXaXaXaXaXaXaXaXaXaXaXaXaXaXaXaXaXaXaXaXaXaXaXaXaXaXaXaXaXaXaXaXaXaX",
"aXaXaXaXaXaXaXaXaXaXaXaXaXaXaXaXaXaXaXaXaXaXaXaXaXaXaXaXaXaXaXaXaXaXaXaXaXaXaXaXaXaXaXaXaXaXaXaXaXaXaXaXaXaXaXaXaXaXaXaXaXaXaXaX",
"aXaXaXaXaXaXaXaXaXaXaXaXaXaXaXaXaXaXaXaXaXaXaXaXaXaXaXaXaXaXaXaXaXaXaXaXaXaXaXaXaXaXaXaXaXaXaXaXaXaXaXaXaXaXaXaXaXaXaXaXaXaXaXaX",
"aXaXaXaXaXaXaXaXaXaXaXaXaXaXaXaXaXaXaXaXaXaXaXaXaXaXaXaXaXaXaXaXaXaXaXaXaXaXaXaXaXaXaXaXaXaXaXaXaXaXaXaXaXaXaXaXaXaXaXaXaXaXaXaX",
"aXaXaXaXaXaXaXaXaXaXaXaXaXaXaXaXaXaXaXaXaXaXaXaXaXaXaXaXaXaXaXaXaXaXaXaXaXaXaXaXaXaXaXaXaXaXaXaXaXaXaXaXaXaXaXaXaXaXaXaXaXaXaXaX",
"aXaXaXaXaXaXaXaXaXaXaXaXaXaXaXaXaXaXaXaXaXaXaXaXaXaXaXaXaXaXaXaXaXaXaXaXaXaXaXaXaXaXaXaXaXaXaXaXaXaXaXaXaXaXaXaXaXaXaXaXaXaXaXaX",
"aXaXaXaXaXaXaXaXaXaXaXaXaXaXaXaXaXaXaXaXaXaXaXaXaXaXaXaXaXaXaXaXaXaXaXaXaXaXaXaXaXaXaXaXaXaXaXaXaXaXaXaXaXaXaXaXaXaXaXaXaXaXaXaX",
"aXaXaXaXaXaXaXaXaXaXaXaXaXaXaXaXaXaXaXaXaXaXaXaXaXaXaXaXaXaXaXaXaXaXaXaXaXaXaXaXaXaXaXaXaXaXaXaXaXaXaXaXaXaXaXaXaXaXaXaXaXaXaXaX",
"aXaXaXaXaXaXaXaXaXaXaXaXaXaXaXaXaXaXaXaXaXaXaXaXaXaXaXaXaXaXaXaXaXaXaXaXaXaXaXaXaXaXaXaXaXaXaXaXaXaXaXaXaXaXaXaXaXaXaXaXaXaXaXaX",
"aXaXaXaXaXaXaXaXaXaXaXaXaXaXaXaXaXaXaXaXaXaXaXaXaXaXaXaXaXaXaXaXaXaXaXaXaXaXaXaXaXaXaXaXaXaXaXaXaXaXaXaXaXaXaXaXaXaXaXaXaXaXaXaX",
"aXaXaXaXaXaXaXaXaXaXaXaXaXaXaXaXaXaXaXaXaXaXaXaXaXaXaXaXaXaXaXaXaXaXaXaXaXaXaXaXaXaXaXaXaXaXaXaXaXaXaXaXaXaXaXaXaXaXaXaXaXaXaXaX",
"aXaXaXaXaXaXaXaXaXaXaXaXaXaXaXaXaXaXaXaXaXaXaXaXaXaXaXaXaXaXaXaXaXaXaXaXaXaXaXaXaXaXaXaXaXaXaXaXaXaXaXaXaXaXaXaXaXaXaXaXaXaXaXaX",
"aXaXaXaXaXaXaXaXaXaXaXaXaXaXaXaXaXaXaXaXaXaXaXaXaXaXaXaXaXaXaXaXaXaXaXaXaXaXaXaXaXaXaXaXaXaXaXaXaXaXaXaXaXaXaXaXaXaXaXaXaXaXaXaX",
"aXaXaXaXaXaXaXaXaXaXaXaXaXaXaXaXaXaXaXaXaXaXaXaXaXaXaXaXaXaXaXaXaXaXaXaXaXaXaXaXaXaXaXaXaXaXaXaXaXaXaXaXaXaXaXaXaXaXaXaXaXaXaXaX",
"aXaXaXaXaXaXaXaXaXaXaXaXaXaXaXaXaXaXaXaXaXaXaXaXaXaXaXaXaXaXaXaXaXaXaXaXaXaXaXaXaXaXaXaXaXaXaXaXaXaXaXaXaXaXaXaXaXaXaXaXaXaXaXaX",
"aXaXaXaXaXaXaXaXaXaXaXaXaXaXaXaXaXaXaXaXaXaXaXaXaXaXaXaXaXaXaXaXaXaXaXaXaXaXaXaXaXaXaXaXaXaXaXaXaXaXaXaXaXaXaXaXaXaXaXaXaXaXaXaX",
"aXaXaXaXaXaXaXaXaXaXaXaXaXaXaXaXaXaXaXaXaXaXaXaXaXaXaXaXaXaXaXaXaXaXaXaXaXaXaXaXaXaXaXaXaXaXaXaXaXaXaXaXaXaXaXaXaXaXaXaXaXaXaXaX",
"aXaXaXaXaXaXaXaXaXaXaXaXaXaXaXaXaXaXaXaXaXaXaXaXaXaXaXaXaXaXaXaXaXaXaXaXaXaXaXaXaXaXaXaXaXaXaXaXaXaXaXaXaXaXaXaXaXaXaXaXaXaXaXaX",
"aXaXaXaXaXaXaXaXaXaXaXaXaXaXaXaXaXaXaXaXaXaXaXaXaXaXaXaXaXaXaXaXaXaXaXaXaXaXaXaXaXaXaXaXaXaXaXaXaXaXaXaXaXaXaXaXaXaXaXaXaXaXaXaX",
"aXaXaXaXaXaXaXaXaXaXaXaXaXaXaXaXaXaXaXaXaXaXaXaXaXaXaXaXaXaXaXaXaXaXaXaXaXaXaXaXaXaXaXaXaXaXaXaXaXaXaXaXaXaXaXaXaXaXaXaXaXaXaXaX",
"aXaXaXaXaXaXaXaXaXaXaXaXaXaXaXaXaXaXaXaXaXaXaXaXaXaXaXaXaXaXaXaXaXaXaXaXaXaXaXaXaXaXaXaXaXaXaXaXaXaXaXaXaXaXaXaXaXaXaXaXaXaXaXaX",
"aXaXaXaXaXaXaXaXaXaXaXaXaXaXaXaXaXaXaXaXaXaXaXaXaXaXaXaXaXaXaXaXaXaXaXaXaXaXaXaXaXaXaXaXaXaXaXaXaXaXaXaXaXaXaXaXaXaXaXaXaXaXaXaX",
"aXaXaXaXaXaXaXaXaXaXaXaXaXaXaXaXaXaXaXaXaXaXaXaXaXaXaXaXaXaXaXaXaXaXaXaXaXaXaXaXaXaXaXaXaXaXaXaXaXaXaXaXaXaXaXaXaXaXaXaXaXaXaXaX",
"aXaXaXaXaXaXaXaXaXaXaXaXaXaXaXaXaXaXaXaXaXaXaXaXaXaXaXaXaXaXaXaXaXaXaXaXaXaXaXaXaXaXaXaXaXaXaXaXaXaXaXaXaXaXaXaXaXaXaXaXaXaXaXaX",
"aXaXaXaXaXaXaXaXaXaXaXaXaXaXaXaXaXaXaXaXaXaXaXaXaXaXaXaXaXaXaXaXaXaXaXaXaXaXaXaXaXaXaXaXaXaXaXaXaXaXaXaXaXaXaXaXaXaXaXaXaXaXaXaX",
"aXaXaXaXaXaXaXaXaXaXaXaXaXaXaXaXaXaXaXaXaXaXaXaXaXaXaXaXaXaXaXr t ! r W aXaXaXaXaXaXaXaXaXaXaXaXaXaXaXaXaXaXaXaXaXaXaXaXaXaXaXaX",
"aXaXaXaXaXaXaXaXaXaXaXaXaXaXaXaXaXaXaXaXaXaXaXaXaXaXaXaX~ ] p t s ! t ;.Q Q aXaXaXaXaXaXaXaXaXaXaXaXaXaXaXaXaXaXaXaXaXaXaXaXaXaX",
"aXaXaXaXaXaXaXaXaXaXaXaXaXaXaXaXaXaXaXaXaXaXaXaXaXaXaXL ,.%Xd.d e.9.p.$XY T { aXaXaXaXaXaXaXaXaXaXaXaXaXaX&X2X*XaXaXaXaXaXaXaXaX",
"aXaXaXaXaXaXaX`.aXaXaXaXaXaXaXaXaXaXaXaXaXaXaXaXaXaXT / :./.o.d 9.9.! ^.>.=.) aXaXaXaXaXaXaXaXaXaXaXaXaX(.3X2X<X`.aXaXaXaXaXaXaX",
"aXaXaXaXaXaX>X3X3XaXaXaXaXaXaXaXaXaXaXaXaXaXaXaXaX> U :.:.-.o.a 9.a !  .Q.Q.Y _ aXaXaXaXaXaXaXaXaXaXaX5.3X2X;X2X3XaXaXaXaXaXaXaX",
"aXaXaXaXaX&X3X<X<X=XaXaXaXaXaXaXaXaXaXaXaXaXaXaX* g !.%X%X2X .0 a q r.8X,XpX-.~ aXaXaXaXaXaXaXaXaXaXaXaX;X;X2X;X*XaXaXaXaXaXaXaX",
"aXaXaXaXaX2X4X2X2X2X6.aXaXaXaXaXaXaXaXaXaXaXaX_ _ ' 2.). XXXD.0.q 9.i.uXOX}.| ~ aXaXaXaXaXaXaXaXaXaXaXaX4X*X5X;X5XaXaXaXaXaXaXaX",
"aXaXaXaXaX2X*X2X2X*X5.aXaXaXaXaXaXaXaXaXaXaX~ ^ B.m.V n V Z.tXP.0.0.6XqX*.O.^ =.aXaXaXaXaXaXaXaXaXaXaXaX*X;X2X2X<XaXaXaXaXaXaXaX",
"aXaXaXaXaX4X2X3X2X5X5.aXaXaXaXaXaXaXaXaXaXaXU P ] M S G.#.K i.z.P.P.w.f.G.*.] U ] aXaXaXaXaXaXaXaXaXaXaX7.2X;X*X7.aXaXaXaXaXaXaX",
"aXaXaXaXaX&X2X2X2X[.<.aXaXaXaXaXaXaXaXaXaXaXU U 7 N B 9Xh.F A y.W.Y.l q.wX#.} ] ) aXaXaXaXaXaXaXaXaXaXaXaX*X2X2XaXaXaXaXaXaXaXaX",
"aXaXaXaXaXaX=X;X;X<.aXaXaXaXaXaXaXaXaXaXaXaXE ^ B.a.l v.L.b.h.y.E.W.q.K.wXJ |.<.) aXaXaXaXaXaXaXaXaXaXaXaX*X3X*XaXaXaXaXaXaXaXaX",
"aXaXaXaXaXaX-X2X*X<.aXaXaXaXaXaXaXaXaXaXaXR 3 5 $.*.f.g.L.g.l A g.w.q #.x.Z &.' E aXaXaXaXaXaXaXaXaXaXaXaX>X<X(.aXaXaXaXaXaXaXaX",
"aXaXaXaXaXaX*X;X*XaXaXaXaXaXaXaXaXaXaXaXaXP 3 O 9 K F.x v.A + 9 l k 9   b 9 e e ` ;.aXaXaXaXaXaXaXaXaXaXaX=X3XaXaXaXaXaXaXaXaXaX",
"aXaXaXaXaXaXaXOX;XaXaXaXaXaXaXaXaXaXaXaXaXP S S.N.F F.x l.x + G I.A.X 9 j J.J X W { aXaXaXaXaXaXaXaXaXaXaXaX#XaXaXaXaXaXaXaXaXaX",
"aXaXaXaXaXaXaX*X{.aXaXaXaXaXaXaXaXaXaXaXaXy @.Y.z.h.x.F l.f.l w.T.T.x j A U.j.H X.` aXaXaXaXaXaXaXaXaXaXaXaX$XaXaXaXaXaXaXaXaXaX",
"aXaXaXaXaXaXaX$XaXaXaXaXaXaXaXaXaXaXaXaXaXW D z.l 9XK A A.I.I.6XT.rXU.H.F 9XiXuXV.i aXaXaXaXaXaXaXaXaXaXaXaX#XaXaXaXaXaXaXaXaXaX",
"aXaXaXaXaXaXaXaXaXaXaXaXaXaXaXaXaXaXaXaXaXW w +.#.G v i 3.S.S.&.H &.V.V.v G *.@Xs.y aXaXaXaXaXaXaXaXaXaXaXaXaXaXaXaXaXaXaXaXaXaX",
"aXaXaXaXaXaXaXaXaXaXaXaXaXaXaXaXaXaXaXaXR u c n &.v f M 1.8.s.' o i 5.7.f : O 3.X.W aXaXaXaXaXaXaXaXaXaXaXaXaXaXaXaXaXaXaXaXaXaX",
"aXaXaXaXaXaXaXaXaXaXaXaXaXaXaXaXaX$ & = . %.S.j. XZ.XXXX' 1.} = % % _ 6.4 C...% _ R aXaXaXaXaXaXaXaXaXaXaXaXaXaXaXaXaXaXaXaXaXaX",
"aXaXaXaXaXaXaXaXaXaXaXaXaXaXaXaX<.2.2.$.H A.U.H.N.Z.XXXX` $.} # o % 4 ] 5 C.B V M 7 aXaXaXaXaXaXaXaXaXaXaXaXaXaXaXaXaXaXaXaXaXaX",
"aXaXaXaXaXaXaXaXaXaXaXaXaXaXaX_ OX:X:XG.K.0XrXeXN.V.Z.).M $.' o 9 9 % - - m.V u.&.= y aXaXaXaXaXaXaXaXaXaXaXaXaXaXaXaXaXaXaXaXaX",
"aXaXaXaXaXaXaXaXaXaXaXaXaXaXaX: v b v j n.yXyXI.S 8.C C : o : B J.S.: * * N O 9 M.M.= aXaXaXaXaXaXaXaXaXaXaXaXaXaXaXaXaXaXaXaXaX",
"aXaXaXaXaXaXaXaXaXaXaXaXaXaXaXn G Z j j j.oXoXM.y <._   n G 9 #.qX7Xo - - #   h N.N.c ..aXaXaXaXaXaXaXaXaXaXaXaXaXaXaXaXaXaXaXaX",
"aXaXaXaXaXaXaXaXaXaXaXaXaXaXaXoXtXyXyXR.J X o ; < U 2.c K.9Xt.H qXoX: $ , 2 f &.G.N.C. X- - aXaXaXaXaXaXaXaXaXaXaXaXaXaXaXaXaXaX",
"aXaXaXaXaXaXaXaXaXaX[ E aXaXB qXE.W.W.tXt.. : * > 6 ' u.I.U.t.p 5./.@ ~ ( ( T 2.).V.+X+XV.V.aXaXaXaXaXaXaXaXaXaXaXaXaXaXaXaXaXaX",
"aXaXaXaXaXaXaXaXaXaX[ Q aXaX` qXP.L.b.7X%.N m * 2 > ; M.F.I...= ~ / @ @ ( ( Y } s.V.OXOXXX).] aXaXaXaXaXaXaXaXaXaXaXaXaXaXaXaXaX",
"aXaXaXaX&X>X*X*XaX_.aXaXaXaXaXc e e h M ~ Y ^ $ 2 # ; ; c : * - $ L @ @ ~ @ > 6 u ; i m m 5 8 U aXaXaXaXaXaXaXaXaXaXaXaXaXaXaXaX",
"aXaXaXaX{.).(.(.aX~.4.aXaXaX{ y W 7 g 6 aX-.) I 5 5 4 - - 4 4 4 3 7 f 2 2 g 6 6 - 3 ; - 5 5 ^ ) aXaXaXaXaXaXaXaXaXaXaXaXaXaXaXaX"
};
