/* XPM */
static char *xpm_[] = {
/* columns rows colors chars-per-pixel */
"64 64 221 2 ",
"   c #372E0B",
".  c #2A2B1B",
"X  c #332C1C",
"o  c #372A15",
"O  c #34351C",
"+  c #3C3817",
"@  c #353514",
"#  c #2D2C23",
"$  c #2C2B2A",
"%  c #252F2E",
"&  c #352D22",
"*  c #2D322D",
"=  c #2D3525",
"-  c #343124",
";  c #393527",
":  c #262E38",
">  c #3A2B33",
",  c #2A3337",
"<  c #333434",
"1  c #3C3C34",
"2  c #33333A",
"3  c #3C3C3B",
"4  c #363938",
"5  c #6D1F15",
"6  c #443A15",
"7  c #4B370C",
"8  c #763216",
"9  c #6B1A2B",
"0  c #423B28",
"q  c #423E3C",
"w  c #443D35",
"e  c #58333D",
"r  c #4A2B37",
"t  c #782839",
"y  c #70322D",
"u  c #3E4438",
"i  c #56471A",
"p  c #4D4717",
"a  c #665418",
"s  c #755A1A",
"d  c #6C5416",
"f  c #766219",
"g  c #4C452E",
"h  c #484626",
"j  c #554A26",
"k  c #45433E",
"l  c #4E4B3A",
"z  c #474736",
"x  c #53483A",
"c  c #5A5439",
"v  c #555836",
"b  c #65572A",
"n  c #695B3A",
"m  c #6E4725",
"M  c #786726",
"N  c #6A6337",
"B  c #796939",
"V  c #6B692C",
"C  c #262D47",
"Z  c #2B3242",
"A  c #2A3641",
"S  c #3D3E4B",
"D  c #373B45",
"F  c #333D52",
"G  c #413C43",
"H  c #5B334B",
"J  c #6F374B",
"K  c #3C454A",
"L  c #3A4854",
"P  c #394E69",
"I  c #43434C",
"U  c #49464A",
"Y  c #484644",
"T  c #4E5549",
"R  c #595547",
"E  c #484A53",
"W  c #524E55",
"Q  c #545353",
"!  c #5C5B55",
"~  c #5B575B",
"^  c #534C44",
"/  c #635D4D",
"(  c #675A44",
")  c #615B58",
"_  c #6D4A4D",
"`  c #596457",
"'  c #696646",
"]  c #776B49",
"[  c #79734D",
"{  c #777448",
"}  c #696859",
"|  c #736D52",
" . c #776C57",
".. c #7B7559",
"X. c #6C724C",
"o. c #5A5467",
"O. c #4E5671",
"+. c #675A6C",
"@. c #7B516F",
"#. c #51627C",
"$. c #68676B",
"%. c #687265",
"&. c #76776C",
"*. c #6A6675",
"=. c #78767A",
"-. c #736D70",
";. c #811E3A",
":. c #846A1F",
">. c #9D5E29",
",. c #827129",
"<. c #897A39",
"1. c #907537",
"2. c #942D42",
"3. c #852D42",
"4. c #887B4A",
"5. c #937E48",
"6. c #867B58",
"7. c #877A6A",
"8. c #7C8375",
"9. c #9D8839",
"0. c #89865D",
"q. c #958756",
"w. c #9B915A",
"e. c #8C814B",
"r. c #A68C45",
"t. c #BB9B4B",
"y. c #A48A59",
"u. c #A4935B",
"i. c #AD9755",
"p. c #B5A15C",
"a. c #848268",
"s. c #968C66",
"d. c #9B936A",
"f. c #8A8672",
"g. c #938877",
"h. c #9B9775",
"j. c #A79967",
"k. c #A69568",
"l. c #B6A669",
"z. c #ACA479",
"x. c #B6A876",
"c. c #BDB278",
"v. c #CAAE59",
"b. c #C5AD64",
"n. c #CAB96A",
"m. c #D3BC64",
"M. c #C4AA7B",
"N. c #C6B779",
"B. c #D1BD78",
"V. c #D2C873",
"C. c #E8D67C",
"Z. c #E1C572",
"A. c #596A88",
"S. c #7D7A84",
"D. c #6F6C8B",
"F. c #6877A1",
"G. c #817F85",
"H. c #837F92",
"J. c #748285",
"K. c #84828A",
"L. c #89868F",
"P. c #888889",
"I. c #928D8C",
"U. c #999988",
"Y. c #8C8B93",
"T. c #898595",
"R. c #9C9B9D",
"E. c #96959A",
"W. c #A39D88",
"Q. c #B79093",
"!. c #A8A688",
"~. c #B7AB84",
"^. c #AAA794",
"/. c #B3AB91",
"(. c #BAB88D",
"). c #9C9AA2",
"_. c #9A96A6",
"`. c #A19EAA",
"'. c #A3A3A4",
"]. c #ACACA6",
"[. c #A6A4AA",
"{. c #ACACAA",
"}. c #AAA7AE",
"|. c #B0AFAD",
" X c #AFB0AD",
".X c #B3B3AC",
"XX c #B8B8AA",
"oX c #AEADB3",
"OX c #A9A6B3",
"+X c #B0AEB4",
"@X c #B1AEBE",
"#X c #B4B4B3",
"$X c #B8B5B4",
"%X c #B5BAB2",
"&X c #BAB9B5",
"*X c #B5B3BA",
"=X c #B9B7BC",
"-X c #BAB9BB",
";X c #D09C84",
":X c #C9B788",
">X c #C8B192",
",X c #E8B983",
"<X c #C2BBAC",
"1X c #C3BDB3",
"2X c #BBC19F",
"3X c #BFC0A1",
"4X c #DAC887",
"5X c #DAC599",
"6X c #D2CC8E",
"7X c #E3C989",
"8X c #EBD488",
"9X c #F5D687",
"0X c #E8D795",
"qX c #F0D795",
"wX c #F8E79F",
"eX c #C3C3A2",
"rX c #E9DAA5",
"tX c #F8DFA9",
"yX c #FDE8A7",
"uX c #B8B6C1",
"iX c None",
/* pixels */
"iXiXiXiXiXiXiXiXiXiXiXiXiXiXiXiXiXiXiXiXiXiXiXiXiXiXiXiXiXiXiXiXiXiXiXiXiXiXiXiXiXiXiXiXiXiXiXiXiXiXiXiXiXiXiXiXiXiXiXiXiXiXiXiX",
"iXiXiXiXiXiXiXiXiXiXiXiXiXiXiXiXiXiXiXiXiXiXiXiXiXiXiXiXY.R.).E.'.).-.iXiXiXiXiXiXiXiXiXiXiXiXiXiXiXiXiXiXiXiXiXiXiXiXiXiXiXiXiX",
"iXiXiXiXiXiXiXiXiXiXiXiXiXiXiXiXiXiXiXiXiXiXiXiXiXiXiX=.+X*X%X#X|.#XP.iXiXiXiXiXiXiXiXiXiXiXiXiXiXiXiXiXiXiXiXiXiXiXiXiXiXiXiXiX",
"iXiXiXiXiXiXiXiXiXiXiXiXiXiXiXiXiXiXiXiXiXiXiXiXiXiX$._.=X#X{.%X#X$X#X{.K.iXiXiXiXiXiXiXiXiXiXiXiXiXiXiXiXiXiXiXiXiXiXiXiXiXiXiX",
"iXiXiXiXiXiXiXiXiXiXiXiXiXiXiXiXiXiXiXiXiXiXiXiXiXiXK.+X*X XXX.X#X|.|.&XR.iXiXiXiXiXiXiXiXiXiXiXiXiXiXiXiXiXiXiXiXiXiXiXiXiXiXiX",
"iXiXiXiXiXiXiXiXiXiXiXiXiXiXiXiXiXiXiXiXiXiXiXiXiXiX[.*X#X{.%X.X.X$X|.#X*XL.iXiXiXiXiXiXiXiXiXiXiXiXiXiXiXiXiXiXiXiXiXiXiXiXiXiX",
"iXiXiXiXiXiXiXiXiXiXiXiXiXiXiXiXiXiXiXiXiXiXiXiXiXiX*X*X#X X%X.X].&X&X+X#XiXiXiXiXiXiXiXiXiXiXiXiXiXiXiXiXiXiXiXiXiXiXiXiXiXiXiX",
"iXiXiXiXiXiXiXiXiXiXiXiXiXiXiXiXiXiXiXiXiXiXiXiXiXiXE.[. X%X].XX&X]..X}.[.iXiXiXiXiXiXiXiXiXiXiXiXiXiXiXiXiXiXiXiXiXiXiXiXiXiXiX",
"iXiXiXiXiXiXiXiXiXiXiXiXiXiXiXiXiXiXiXiXiXiXiXiXiXiXiXiX}.%X%X.X.X#X$XG.iXiXiXiXiXiXiXiXiXiXiXiXiXiXiXiXiXiXiXiXiXiXiXiXiXiXiXiX",
"iXiXiXiXiXiXiXiXiXiXiXiXiXiXiXiXiXiXiXiXiXiXiXiXiXiXiXiXK.P.[.#X-XE.G.iXiXiXiXiXiXiXiXiXiXiXiXiXiXiXiXiXiXiXiXiXiXiXiXiXiXiXiXiX",
"iXiXiXiXiXiXiXiXiXiXiXiXiXiXiXiXiXiXiXiXiXiXiXiXiXiXiXiXiXiXR.%X+XiXiXiXiXiXiXiXiXiXiXiXiXiXiXiXiXiXiXiXiXiXiXiXiXiXiXiXiXiXiXiX",
"iXiXiXiXiXiXiXiXiXiXiXiXiXiXiXiXiXiXiXiXiXiXiXiXiXiXiXiXiXiX).*XiXiXiXiXiXiXiXiXiXiXiXiXiXiXiXiXiXiXiXiXiXiXiXiXiXiXiXiXiXiXiXiX",
"iXiXiXiXiXiXiXiXiXiXiXiXiXiXiXiXiXiXiXiXiXiXiXiXiXiXiXiXiXiX'.+XiXiXiXiXiXiXiXiXiXiXiXiXiXiXiXiXiXiXiXiXiXiXiXiXiXiXiXiXiXiXiXiX",
"iXiXiXiXiXiXiXiXiXiXiXiXiXiXiXiXiXiXiXiXiXiXiXiXiXiXiXiXiXiXE.*XiXiXiXiXiXiXiXiXiXiXiXiXiXiXiXiXiXiXiXiXiXiXiXiXiXiXiXiXiXiXiXiX",
"iXiXiXiXiXiXiXiXiXiXiXiXiXiXiXiXiXiXiXiXiXiXiXiXiXiXiXiXiXiXiX[.iXiXiXiXiXiXiXiXiXiXiXiXiXiXiXiXiXiXiXiXiXiXiXiXiXiXiXiXiXiXiXiX",
"iXiXiXiXiXiXiXiXiXiXiXiXiXiXiXiXiXiXiXiXiXiXiXiXiXiXiXiXiXiXiXiXiXiXiXiXiXiXiXiXiXiXiXiXiXiXiXiXiXiXiXiXiXiXiXiXiXiXiXiXiXiXiXiX",
"iXiXiXiXiXiXiXiXiXiXiXiXiXiXiXiXiXiXiXiXiXiXiXiXiXiXiXiXiXiXiXiXiXiXiXiXiXiXiXiXiXiXiXiXiXiXiXiXiXiXiXiXiXiXiXiXiXiXiXiXiXiXiXiX",
"iXiXiXiXiXiXiXiXiXiXiXiXiXiXiXiXiXiXiXiXiXiXiXiXiXiXiXiXiXiXiXiXiXiXiXiXiXiXiXiXiXiXiXiXiXiXiXiXiXiXiXiXiXiXiXiXiXiXiXiXiXiXiXiX",
"iXiXiXiXiXiXiXiXiXiXiXiXiXiXiXiXiXiXiXiXiXiXiXiXiXiXiXiXiXiXiXiXiXiXiXiXiXiXiXiXiXiXiXiXiXiXiXiXiXiXiXiXiXiXiXiXiXiXiXiXiXiXiXiX",
"iXiXiXiXiXiXiXiXiXiXiXiXiXiXiXiXiXiXiXiXiXiXiXiXiXiXiXiXiXiXiXiXiXiXiXiXiXiXiXiXiXiXiXiXiXiXiXiXiXiXiXiXiXiXiXiXiXiXiXiXiXiXiXiX",
"iXiXiXiXiXiXiXiXiXiXiXiXiXiXiXiXiXiXiXiXiXiXiXiXiXiXiXiXiXiXiXiXiXiXiXiXiXiXiXiXiXiXiXiXiXiXiXiXiXiXiXiXiXiXiXiXiXiXiXiXiXiXiXiX",
"iXiXiXiXiXiXiXiXiXiXiXiXiXiXiXiXiXiXiXiXiXiXiXiXiXiXiXiXiXiXiXiXiXiXiXiXiXiXiXiXiXiXiXiXiXiXiXiXiXiXiXiXiXiXiXiXiXiXiXiXiXiXiXiX",
"iXiXiXiXiXiXiXiXiXiXiXiXiXiXiXiXiXiXiXiXiXiXiXiXiXiXiXiXiXiXiXiXiXiXiXiXiXiXiXiXiXiXiXiXiXiXiXiXiXiXiXiXiXiXiXiXiXiXiXiXiXiXiXiX",
"iXiXiXiXiXiXiXiXiXiXiXiXiXiXiXiXiXiXiXiXiXiXiXiXiXiXiXiXiXiXiXiXiXiXiXiXiXiXiXiXiXiXiXiXiXiXiXiXiXiXiXiXiXiXiXiXiXiXiXiXiXiXiXiX",
"iXiXiXiXiXiXiXiXiXiXiXiXiXiXiXiXiXiXiXiXiXiXiXiXiXiXiXiXiXiXiXiXiXiXiXiXiXiXiXiXiXiXiXiXiXiXiXiXiXiXiXiXiXiXiXiXiXiXiXiXiXiXiXiX",
"iXiXiXiXiXiXiXiXiXiXiXiXiXiXiXiXiXiXiXiXiXiXiXiXiXiXiXiXiXiXiXiXiXiXiXiXiXiXiXiXiXiXiXiXiXiXiXiXiXiXiXiXiXiXiXiXiXiXiXiXiXiXiXiX",
"iXiXiXiXiXiXiXiXiXiXiXiXiXiXiXiXiXiXiXiXiXiXiXiXiXiXiXiXiXiXiXiXiXiXiXiXiXiXiXiXiXiXiXiXiXiXiXiXiXiXiXiXiXiXiXiXiXiXiXiXiXiXiXiX",
"iXiXiXiXiXiXiXiXiXiXiXiXiXiXiXiXiXiXiXiXiXiXiXiXiXiXiXiXiXiXiXiXiXiXiXiXiXiXiXiXiXiXiXiXiXiXiXiXiXiXiXiXiXiXiXiXiXiXiXiXiXiXiXiX",
"iXiXiXiXiXiXiXiXiXiXiXiXiXiXiXiXiXiXiXiXiXiXiXiXiXiXiXiXiXiXiXiXiXiXiXiXiXiXiXiXiXiXiXiXiXiXiXiXiXiXiXiXiXiXiXiXiXiXiXiXiXiXiXiX",
"iXiXiXiXiXiXiXiXiXiXiXiXiXiXiXiXiXiXiXiXiXiXiXiXiXiXiXiXiXiXiXiXiXiXiXiXiXiXiXiXiXiXiXiXiXiXiXiXiXiXiXiXiXiXiXiXiXiXiXiXiXiXiXiX",
"iXiXiXiXiXiXiXiXiXiXiXiXiXiXiXiXiXiXiXiXiXiXiXiXiXiXiXiXiXiXiXiXiXiXiXiXiXiXiXiXiXiXiXiXiXiXiXiXiXiXiXiXiXiXiXiXiXiXiXiXiXiXiXiX",
"iXiXiXiXiXiXiXiXiXiXiXiXiXiXiXiXiXiXiXiXiXiXiXiXiXiXiXiX> > r J r iXiXiXiXiXiXiXiXiXiXiXiXiXiXiXiXiXiXiXiXiXiXiXiXiXiXiXiXiXiXiX",
"iXiXiXiXiXiXiXiXiXiXiXiXiXiXiXiXiXiXiXiXiXiXiXiXiXiXiXT ) e 9 2.y _ iXiXiXiXiXiXiXiXiXiXiXiXiXiXiXiXiXiXiXiXiXiXiXiXiXiXiXiXiXiX",
"iXiXiXiXiXiXiXiXiXiXiXiXiXiXiXiXiXiXiXiXiXiXiXiXiXiX, S.[._ 2.2.t Q.+.iXiXiXiXiXiXiXiXiXiXiXiXiXiXiXiXiXiXiXiXiXiXiXiXiXiXiXiXiX",
"iXiXiXiXiXiXiXiXiXiXiXiXiXiXiXiXiXiXiXiXiXiXiXiXiXA P A.D.H J ;.J @.iXiXiXiXiXiXiXiXiXiXiXiXiXiXiXiXiXiXiXiXiXiXiXiXiXiXiXiXiXiX",
"iXiXiXiXiXiXiXiXiXiXiXiXiXiXiXiXiXiXiXiXiXiXiXiXiXL #.#.+.e t t J 7.D.F.iXiXiXiXiXiXiXiXiXiXiXiXiXiXiXiXiXiXiXiXiXiXiXiXiXiXiXiX",
"iXiXiXiXiXiXiXiXiXiXiXiXiXiXiXiXiXiXiXiXiXiXiXiXG =.#X&X>Xy 5 5 y ;X3X2X` iXiXiXiXiXiXiXiXiXiXiXiXiXiXiXiXiXiXiXiXiXiXiXiXiXiXiX",
"iXiXiXiXiXiXiXiXiXiXiXiXiXiXiXiXiXiXiXiXiXiXiX! ) &.g.h.;X5.m 8 >.,X(.U.` iXiXiXiXiXiXiXiXiXiXiXiXiXiXiXiXiXiXiXiXiXiXiXiXiXiXiX",
"iXiXiXiXiXiXiXiXiXiXiXiXiXiXiXiXiXiXiXiXiXiXT 8.8.l l ' c.0X1.s t.7X0.T L iXiXiXiXiXiXiXiXiXiXiXiXiXiXiXiXiXiXiXiXiXiXiXiXiXiXiX",
"iXiXiXiXiXiXiXiXiXiXiXiXiXiXiXiXiXiXiXiXiXiXu u u ' !.N M <.r.n.9.,.z.8.E L iXiXiXiXiXiXiXiXiXiXiXiXiXiXiXiXiXiXiXiXiXiXiXiXiXiX",
"iXiXiXiXiXiXiXiXiXiXiXiXiXiXiXiXiXiXiXiXiXI , u h N 4X,.M d t.9X1.d N.d.R E iXiXiXiXiXiXiXiXiXiXiXiXiXiXiXiXiXiXiXiXiXiXiXiXiXiX",
"iXiXiXiXiXiXiXiXiXiXiXiXiXiXiXiXiXiXiXiXiXK K 8.6.B b.m.p.M t.9Xe.i.8Xu.s.&.U iXiXiXiXiXiXiXiXiXiXiXiXiXiXiXiXiXiXiXiXiXiXiXiXiX",
"iXiXiXiXiXG.L.G.S.iXiXiXiXiXiXiXiXiXiXiXE A F $.[ 1.r.b.e.v <.u.n n w.k.w.c q iXiXiXiXiXiXiXiXiXiXiXiXiXiXiXiXiXiXiXiXiXiXiXiXiX",
"iXiXiXiXiX}.*X*X+X$.iXiXiXiXiXiXiXiXiXiXS : F % N p.:.i.i   i b 6 7 i z.k.h u iXiXiXiXiXiXiXiXiXiXiXiXiXiXiXiXiXiXiXiXiXiXiXiXiX",
"iXiXiXiX).#X#X-X$XR.~ iXiXiXiXiXiXiXiXiX3 U &. .b b.f l.i 7 r.n.b o 7 u.q.+ u iXiXiXiXiXiXiXiXiXiXiXiXiXiXiXiXiXiXiXiXiXiXiXiXiX",
"iXiXiXiXoX#X|.|.|.#XG.W iXiXiXiXiXiXiXiXG G  .4.1.r.:.p.b m t.8X5.i a 4.{ z I iXiXiXiXiXiXiXiXiXiXiXiXiXiXiXiXiXiXiXiXiXiXiXiXiX",
"iXiXiXiX+X#XXX|..X|.[.$.iXiXiXiXiXiXiXiXS $ 0 i p.s s M.N.N.n.8XN.N.1.b ` K S o.iXiXiXiXiXiXiXiXiX).uX*X).iXiXiXiXiXiXiXiXiXiXiX",
"iXiXiXiX+X|..XXX.XXX&X$.iXiXiXiXiXiXiXiXD w 6.q.:Xr.a y.l.k.5.4.j.j.M [ %.4 I +.iXiXiXiXiXiXiXiXS.+X+X*X=XY.iXiXiXiXiXiXiXiXiXiX",
"iXiXiXiXOX+X&X.X.XXX.X$.iXiXiXiXiXiXiXiXq R M.B.wX7Xm  .f.7.w . } 8.v k.q.6 ^ ~ iXiXiXiXiXiXiXiX[.&X#X#X#X#XiXiXiXiXiXiXiXiXiXiX",
"iX'.).iX}.+X$X.XXX].+X$.iXiXiXiXiXiXiXiX3 c l.s qXtX>XR &.E 2 2 4 &.x d.tX:X7.H iXiXiXiXiXiXiXiX[..X X X+X*XiXiXiXiXiXiXiXiXiXiX",
"iX+X[.iX+X&X.X]..X$X=X*.iXiXiXiXiXiXiXiXI R ..B c.:Xz.z %.K % % % T l 6.>X>Xs.w iXiXiXiXiXiXiXiX]..X#X#X#X#XiXiXiXiXiXiXiXiXiXiX",
"iXoX[.iX].&X].XX.X-XOX*.iXiXiXiXiXiXiXiXI k w [ 6   @ O ` u = . * $ # o 7 6.7.q iXiXiXiXiXiXiXiX'..X#X%X#X%XiXiXiXiXiXiXiXiXiXiX",
"iXiXiXiXG..X%X.X.X*XK.o.iXiXiXiXiXiXiXiXG G 7.h.{ 8...8.! ; ] s.x } 8.6.v x ) W iXiXiXiXiXiXiXiX].%X#X.X X#XiXiXiXiXL.iXiXiXiXiX",
"iXiXiXiXiX'.].XX.XoX$.iXiXiXiXiXiXiXiXU k R ^./.z.eX<X^.^ ; u.rX| g.eX2XX.O q ~ iXiXiXiXiXiXiXiXE..X.X.X#X*XiXiXiXL.uXY.iXiXiXiX",
"iXiXiXiXiXiXiX'..X.X+.iXiXiXiXG 4 # O + b w.h.h.v f./.W.g.j l.rX' 7.!.z.X.'  .q iXiXiXiXiXiXiXiXiX'..X#X-X+XiXiXiXL.uXT.iXiXiXiX",
"iXiXiXiXiXiXiX'..X.XiXiXiXiXiXW T ` v v B N.x.7.0 g.!./.!.g 6.x.( &.^.h.V { s.R iXiXiXiXiXiXiXiXiX'.%X%XoXR.iXiXiXiX_.S.iXiXiXiX",
"iXiXiXiXiXiXiX}..X.XiXiXiXiX3 =.1X<X/.x.4XqX5X6.l h.2X2X.XY 4 U 3 I.1X' <.n.6Xj.iXiXiXiXiXiXiXiXiX'.*X*XoXiXiXiXiXiXiXiXiXiXiXiX",
"iXiXiXiXiXiXiXiX}.#XE.iXiXiX0 g |  .( 5.0XwX6Xc h ` ' X.' ; < 3 4 Q } g e.n.4Xw.iXiXiXiXiXiXiXiXiX[.+XS.=.iXiXiXiXiXiXiXiXiXiXiX",
"iXiXiXiXiXiXiXiX_.OXuXiXiXiXiX6 6 7 7 B 4X0Xx.+ k - @ + + 0   g ; X $ - B c.6Xp.+ z iXiXiXiXiXiXiX[.*XiXiXiXiXiXiXiXiXH.T.iXiXiX",
"iXiXiXiXiXiXiXiXiXiXiXiXiXiX' 6X5X7X:Xq.i p z = 4 %.j (.l.l.M.:Xb - $ $ ; e.x.w.s.f.< iXiXiXiXiX).*X*XiXiXiXiXiXiXiXiXiXiXiXiXiX",
"iXiXiXiXiXiXiXiXiXiXiXiXiXiX0.6XC.C.8Xj.  - 2 Z D X.V V.m.m.Z.8Xy.0 D F < } h.s./.W.~ Q iXiXiXiXY.Y.Y.iXiXiXiXiXiXiXiXiXiXiXiXiX",
"iXiXiXiXiXiXiXiXiXiXiXiXiXiXd.0Xn.m.V.j.0 S C C % u c.n.m.m.7XyXrX| E P K ` f.z.<X<X1XI.k iXiXiXiXiXiXiXiXiXiXiXiXiXiXiXiXiXiXiX",
"iXiXiXiXiXiXiXiXiXI.I.iXiXiXiX' n N ] / q G Z : < & ( n n B { ' ..w Z L , u l ( / / %.Q $ W P.P.I.K.iXiXS.Y.iXiXiXiXiXiXiXiXiXiX",
"iXiXiXiXiX[.iXiX^.XXXX=XiXiXiXiXX X X ; E F Z : * & & ; X X . . # < A C , % # O X & . = 4 o. X%X-X}.iXiX).uXiXiXY.iXiXiXiXiXiXiX"
};
