/* XPM */
static char *xpm_[] = {
/* columns rows colors chars-per-pixel */
"64 64 228 2 ",
"   c #352B0B",
".  c #2D2B1D",
"X  c #332A13",
"o  c #372B1A",
"O  c #2D3017",
"+  c #3B351B",
"@  c #3D391C",
"#  c #373418",
"$  c #39330F",
"%  c #1E2B34",
"&  c #2E2C2A",
"*  c #282A29",
"=  c #322D2B",
"-  c #362927",
";  c #25312C",
":  c #2C312D",
">  c #2E3123",
",  c #33322C",
"<  c #3C332B",
"1  c #3B3B2D",
"2  c #393625",
"3  c #2E2C32",
"4  c #2A2D3C",
"5  c #342E31",
"6  c #392E3B",
"7  c #243233",
"8  c #2B3233",
"9  c #24353C",
"0  c #2A333B",
"q  c #2C3B3D",
"w  c #2A3937",
"e  c #323234",
"r  c #3C3533",
"t  c #333B34",
"y  c #3B3A34",
"u  c #33333C",
"i  c #3C333B",
"p  c #3C3B3B",
"a  c #353A3C",
"s  c #463C0C",
"d  c #443917",
"f  c #46330B",
"g  c #6A2110",
"h  c #6D1E27",
"j  c #463425",
"k  c #463C26",
"l  c #482730",
"z  c #423D3C",
"x  c #443937",
"c  c #53242F",
"v  c #77232A",
"b  c #682533",
"n  c #6D2827",
"m  c #701817",
"M  c #3B4339",
"N  c #49421D",
"B  c #594C1B",
"V  c #5D5318",
"C  c #4A410A",
"Z  c #68570C",
"A  c #675619",
"S  c #765B15",
"D  c #6B4E16",
"F  c #7E651E",
"G  c #726203",
"H  c #4B432A",
"J  c #594C2B",
"K  c #585329",
"L  c #4A4737",
"P  c #554935",
"I  c #49523B",
"U  c #595338",
"Y  c #654C28",
"T  c #665629",
"R  c #765726",
"E  c #685836",
"W  c #604B3A",
"Q  c #686229",
"!  c #79662A",
"~  c #6B6637",
"^  c #776739",
"/  c #79722D",
"(  c #1E3046",
")  c #22354C",
"_  c #293146",
"`  c #393B45",
"'  c #343644",
"]  c #303A55",
"[  c #543A4A",
"{  c #7A3E4A",
"}  c #354147",
"|  c #344756",
" . c #354D57",
".. c #3B4C6A",
"X. c #3F4C75",
"o. c #3D516A",
"O. c #474C49",
"+. c #544D44",
"@. c #555649",
"#. c #4A4B59",
"$. c #485559",
"%. c #575A57",
"&. c #6F424F",
"*. c #576354",
"=. c #6B6847",
"-. c #766B4A",
";. c #676559",
":. c #68765B",
">. c #7B7958",
",. c #706F53",
"<. c #595865",
"1. c #435374",
"2. c #4C526E",
"3. c #7C5861",
"4. c #6C5D60",
"5. c #58656A",
"6. c #656662",
"7. c #736B65",
"8. c #7B7D65",
"9. c #666A75",
"0. c #6D777A",
"q. c #7B7A7A",
"w. c #842C3B",
"e. c #882834",
"r. c #912C34",
"t. c #8C4735",
"y. c #846A2A",
"u. c #897837",
"i. c #8A7432",
"p. c #883242",
"a. c #8D414D",
"s. c #887B4B",
"d. c #847A55",
"f. c #957845",
"g. c #B77457",
"h. c #915761",
"j. c #966971",
"k. c #867C6C",
"l. c #7F8165",
"z. c #7D8B7A",
"x. c #A48A3E",
"c. c #A69021",
"v. c #988548",
"b. c #8C8559",
"n. c #998659",
"m. c #9A9556",
"M. c #A68A4B",
"N. c #A7944E",
"B. c #A28C58",
"V. c #A89B59",
"C. c #B79F5C",
"Z. c #B7A259",
"A. c #B7A953",
"S. c #86856C",
"D. c #958D6B",
"F. c #98966A",
"G. c #8A8677",
"H. c #958E75",
"J. c #989573",
"K. c #8B9079",
"L. c #A5986A",
"P. c #A89C77",
"I. c #B2986A",
"U. c #ABA163",
"Y. c #B8A969",
"T. c #AEA67B",
"R. c #B4AA74",
"E. c #B8AA7B",
"W. c #BFB464",
"Q. c #C6B348",
"!. c #C1A758",
"~. c #C5B259",
"^. c #D5BA59",
"/. c #C9996A",
"(. c #D79F6C",
"). c #C4A868",
"_. c #C7B26A",
"`. c #D5BB68",
"'. c #C8B677",
"]. c #D5BC77",
"[. c #D0AD6B",
"{. c #D6C15A",
"}. c #D5C479",
"|. c #E4CC77",
" X c #E9D172",
".X c #4F5F92",
"XX c #4A6290",
"oX c #7B7983",
"OX c #837C8E",
"+X c #7F90BC",
"@X c #858D84",
"#X c #999A86",
"$X c #989895",
"%X c #908691",
"&X c #9EA18C",
"*X c #A8A587",
"=X c #B8B385",
"-X c #A8A994",
";X c #BAB996",
":X c #B0A683",
">X c #8592A9",
",X c #8495B1",
"<X c #87A1B0",
"1X c #BAB9A6",
"2X c #AFB0AC",
"3X c #C8B885",
"4X c #C5BD93",
"5X c #D7BD89",
"6X c #C2BDA8",
"7X c #C6B2B4",
"8X c #BECA9C",
"9X c #D6C484",
"0X c #D0C99A",
"qX c #E7CA89",
"wX c #E7D489",
"eX c #F7DB85",
"rX c #E9D898",
"tX c #F2D995",
"yX c #F9E286",
"uX c #F7E092",
"iX c #C3C4A4",
"pX c #F0DCA9",
"aX c #F9E5A4",
"sX c #F4E5B2",
"dX c #E7E0AA",
"fX c #819AC3",
"gX c #B1C3C7",
"hX c None",
/* pixels */
"hXhXhXhXhXhXhXhXhXhXhXhXhXhXhXhXhXhXhXhXhXhXhXhXhXhXhXhXhXhXhXhXhXhXhXhXhXhXhXhXhXhXhXhXhXhXhXhXhXhXhXhXhXhXhXhXhXhXhXhXhXhXhXhX",
"hXhXhXhXhXhXhXhXhXhXhXhXhXhXhXhXhXhXhXhXhXhXhXhXhXhXhXhXhXhXhXhXhXhXhXhXhXhXhXhXhXhXhXhXhXhXhXhXhXhXhXhXhXhXhXhXhXhXhXhXhXhXhXhX",
"hXhXhXhXhXhXhXhXhXhXhXhXhXhXhXhXhXhXhXhXhXhXhXhXhXhXhXhXhXhXhXhXhXhXhXhXhXhXhXhXhXhXhXhXhXhXhXhXhXhXhXhXhXhXhXhXhXhXhXhXhXhXhXhX",
"hXhXhXhXhXhXhXhXhXhXhXhXhXhXhXhXhXhXhXhXhXhXhXhXhXhXhXhXhXhXhXhXhXhXhXhXhXhXhXhXhXhXhXhXhXhXhXhXhXhXhXhXhXhXhXhXhXhXhXhXhXhXhXhX",
"hXhXhXhXhXhXhXhXhXhXhXhXhXhXhXhXhXhXhXhXhXhXhXhXhXhXhXhXhXhXhXhXhXhXhXhXhXhXhXhXhXhXhXhXhXhXhXhXhXhXhXhXhXhXhXhXhXhXhXhXhXhXhXhX",
"hXhXhXhXhXhXhXhXhXhXhXhXhXhXhXhXhXhXhXhXhXhXhXhXhXhXhXhXhXhXhXhXhXhXhXhXhXhXhXhXhXhXhXhXhXhXhXhXhXhXhXhXhXhXhXhXhXhXhXhXhXhXhXhX",
"hXhXhXhXhXhXhXhXhXhXhXhXhXhXhXhXhXhXhXhXhXhXhXhXhXhXhXhXhXhXhXhXhXhXhXhXhXhXhXhXhXhXhXhXhXhXhXhXhXhXhXhXhXhXhXhXhXhXhXhXhXhXhXhX",
"hXhXhXhXhXhXhXhXhXhXhXhXhXhXhXhXhXhXhXhXhXhXhXhXhXhXhXhXhXhXhXhXhXhXhXhXhXhXhXhXhXhXhXhXhXhXhXhXhXhXhXhXhXhXhXhXhXhXhXhXhXhXhXhX",
"hXhXhXhXhXhXhXhXhXhXhXhXhXhXhXhXhXhXhXhXhXhXhXhXhXhXhXhXhXhXhXhXhXhXhXhXhXhXhXhXhXhXhXhXhXhXhXhXhXhXhXhXhXhXhXhXhXhXhXhXhXhXhXhX",
"hXhXhXhXhXhXhXhXhXhXhXhXhXhXhXhXhXhXhXhXhXhXhXhXhXhXhXhXhXhXhXhXhXhXhXhXhXhXhXhXhXhXhXhXhXhXhXhXhXhXhXhXhXhXhXhXhXhXhXhXhXhXhXhX",
"hXhXhXhXhXhXhXhXhXhXhXhXhXhXhXhXhXhXhXhXhXhXhXhXhXhXhXhXhXhXhXhXhXhXhXhXhXhXhXhXhXhXhXhXhXhXhXhXhXhXhXhXhXhXhXhXhXhXhXhXhXhXhXhX",
"hXhXhXhXhXhXhXhXhXhXhXhXhXhXhXhXhXhXhXhXhXhXhXhXhXhXhXhXhXhXhXhXhXhXhXhXhXhXhXhXhXhXhXhXhXhXhXhXhXhXhXhXhXhXhXhXhXhXhXhXhXhXhXhX",
"hXhXhXhXhXhXhXhXhXhXhXhXhXhXhXhXhXhXhXhXhXhXhXhXhXhXhXhXhXhXhXhXhXhXhXhXhXhXhXhXhXhXhXhXhXhXhXhXhXhXhXhXhXhXhXhXhXhXhXhXhXhXhXhX",
"hXhXhXhXhXhXhXhXhXhXhXhXhXhXhXhXhXhXhXhXhXhXhXhXhXhXhXhXhXhXhXhXhXhXhXhXhXhXhXhXhXhXhXhXhXhXhXhXhXhXhXhXhXhXhXhXhXhXhXhXhXhXhXhX",
"hXhXhXhXhXhXhXhXhXhXhXhXhXhXhXhXhXhXhXhXhXhXhXhXhXhXhXhXhXhXhXhXhXhXhXhXhXhXhXhXhXhXhXhXhXhXhXhXhXhXhXhXhXhXhXhXhXhXhXhXhXhXhXhX",
"hXhXhXhXhXhXhXhXhXhXhXhXhXhXhXhXhXhXhXhXhXhXhXhXhXhXhXhXhXhXhXhXhXhXhXhXhXhXhXhXhXhXhXhXhXhXhXhXhXhXhXhXhXhXhXhXhXhXhXhXhXhXhXhX",
"hXhXhXhXhXhXhXhXhXhXhXhXhXhXhXhXhXhXhXhXhXhXhXhXhXhXhXhXhXhXhXhXhXhXhXhXhXhXhXhXhXhXhXhXhXhXhXhXhXhXhXhXhXhXhXhXhXhXhXhXhXhXhXhX",
"hXhXhXhXhXhXhXhXhXhXhXhXhXhXhXhXhXhXhXhXhXhXhXhXhXhXhXhXhXhXhXhXhXhXhXhXhXhXhXhXhXhXhXhXhXhXhXhXhXhXhXhXhXhXhXhXhXhXhXhXhXhXhXhX",
"hXhXhXhXhXhXhXhXhXhXhXhXhXhXhXhXhXhXhXhXhXhXhXhXhXhXhXhXhXhXhXhXhXhXhXhXhXhXhXhXhXhXhXhXhXhXhXhXhXhXhXhXhXhXhXhXhXhXhXhXhXhXhXhX",
"hXhXhXhXhXhXhXhXhXhXhXhXhXhXhXhXhXhXhXhXhXhXhXhXhXhXhXhXhXhXhXhXhXhXhXhXhXhXhXhXhXhXhXhXhXhXhXhXhXhXhXhXhXhXhXhXhXhXhXhXhXhXhXhX",
"hXhXhXhXhXhXhXhXhXhXhXhXhXhXhXhXhXhXhXhXhXhXhXhXhXhXhXhXhXhXhXhXhXhXhXhXhXhXhXhXhXhXhXhXhXhXhXhXhXhXhXhXhXhXhXhXhXhXhXhXhXhXhXhX",
"hXhXhXhXhXhXhXhXhXhXhXhXhXhXhXhXhXhXhXhXhXhXhXhXhXhXhXhXhXhXhXhXhXhXhXhXhXhXhXhXhXhXhXhXhXhXhXhXhXhXhXhXhXhXhXhXhXhXhXhXhXhXhXhX",
"hXhXhXhXhXhXhXhXhXhXhXhXhXhXhXhXhXhXhXhXhXhXhXhXhXhXhXhXhXhXhXhXhXhXhXhXhXhXhXhXhXhXhXhXhXhXhXhXhXhXhXhXhXhXhXhXhXhXhXhXhXhXhXhX",
"hXhXhXhXhXhXhXhXhXhXhXhXhXhXhXhXhXhXhXhXhXhXhXhXhXhXhXhXhXhXhXhXhXhXhXhXhXhXhXhXhXhXhXhXhXhXhXhXhXhXhXhXhXhXhXhXhXhXhXhXhXhXhXhX",
"hXhXhXhXhXhXhXhXhXhXhXhXhXhXhXhXhXhXhXhXhXhXhXhXhXhXhXhXhXhXhXhXhXhXhXhXhXhXhXhXhXhXhXhXhXhXhXhXhXhXhXhXhXhXhXhXhXhXhXhXhXhXhXhX",
"hXhXhXhXhXhXhXhXhXhXhXhXhXhXhXhXhXhXhXhXhXhXhXhXhXhXhXhXhXhXhXhXhXhXhXhXhXhXhXhXhXhXhXhXhXhXhXhXhXhXhXhXhXhXhXhXhXhXhXhXhXhXhXhX",
"hXhXhXhXhXhXhXhXhXhXhXhXhXhXhXhXhXhXhXhXhXhXhXhXhXhXhXhXhXhXhXhXhXhXhXhXhXhXhXhXhXhXhXhXhXhXhXhXhXhXhXhXhXhXhXhXhXhXhXhXhXhXhXhX",
"hXhXhXhXhXhXhXhXhXhXhXhXhXhXhXhXhXhXhXhXhXhXhXhXhXhXhXhXhXhXhXhXl hXhXhXhXhXhXhXhXhXhXhXhXhXhXhXhXhXhXhXhXhXhXhXhXhXhXhXhXhXhXhX",
"hXhXhXhXhXhXhXhXhXhXhXhXhXhXhXhXhXhXhXhXhXhXhXhXhXhXhX8 & 5 c c b &.c hXhXhXhXhXhXhXhXhXhXhXhXhXhXhXhXhXhXhXhXhXhXhXhXhXhXhXhXhX",
"hXhXhXhXhXhXhXhXhXhXhXhXhXhXhXhXhXhXhXhXhXhXhXhXhXhX} #.4.&.c b w.p.b [ 7.hXhXhXhXhXhXhXhXhXhXhXhXhXhXhXhXhXhXhXhXhXhXhXhXhXhXhX",
"hXhXhXhXhXhXhXhXhXhXhXhXhXhXhXhXhXhXhXhXhXhXhXhXhX; %.$X7Xj.b p.r.r.p.j.1X#._ hXhXhXhXhXhXhXhXhXhXhXhXhXhXhXhXhXhXhXhXhXhXhXhXhX",
"hXhXhXhXhXhXhXhXhXhXhXhXhXhXhXhXhXhXhXhXhXhXhXhX0 | <.oX%X3.h w.p.r.w.h.%X2.| o.hXhXhXhXhXhXhXhXhXhXhXhXhXhXhXhXhXhXhXhXhXhXhXhX",
"hXhXhXhXhXhXhXhXhXhXhXhXhXhXhXhXhXhXhXhXhXhXhXw ) 1.1.X.2.[ b e.e.e.e.&.<.XXXX.X] hXhXhXhXhXhXhXhXhXhXhXhXhXhXhXhXhXhXhXhXhXhXhX",
"hXhXhXhXhXhXhXhXhXhXhXhXhXhXhXhXhXhXhXhXhXhX;  .0.>X<X>X%X4.h e.v m r.h.2X>XfX+X#.hXhXhXhXhXhXhXhXhXhXhXhXhXhXhXhXhXhXhXhXhXhXhX",
"hXhXhXhXhXhXhXhXhXhXhXhXhXhXhXhXhXhXhXhXhX, 2 *.#X2X2X6X4Xf.g m h h e.g.dX8X2XgX%.hXhXhXhXhXhXhXhXhXhXhXhXhXhXhXhXhXhXhXhXhXhXhX",
"hXhXhXhXhXhXhXhXhXhXhXhXhXhXhXhXhXhXhXhX<.:.:.,.-.-.8.k.'.[.(.t.v t.g.(.tXm.:.z.} hXhXhXhXhXhXhXhXhXhXhXhXhXhXhXhXhXhXhXhXhXhXhX",
"hXhXhXhXhXhXhXhXhXhXhXhXhXhXhXhXhXhXhXhX5.@Xz.=.Y Y +.;.E.wXqXy.D R /.qXwX/ *.5.| hXhXhXhXhXhXhXhXhXhXhXhXhXhXhXhXhXhXhXhXhXhXhX",
"hXhXhXhXhXhXhXhXhXhXhXhXhXhXhXhXhXhXhX: } O.} I ^ 3XS.U Q / u.N._._.i.F y.W.&X$. . .hXhXhXhXhXhXhXhXhXhXhXhXhXhXhXhXhXhXhXhXhXhX",
"hXhXhXhXhXhXhXhXhXhXhXhXhXhXhXhXhXhXhX8 q w e L ! tXV.V A A Z !. XyXy.Z S 9X;XI *.$.* hXhXhXhXhXhXhXhXhXhXhXhXhXhXhXhXhXhXhXhXhX",
"hXhXhXhXhXhXhXhXhXhXhXhXhXhXhXhXhXhXhX: 5.oXk.;.y.~.W.A.Y.f.S !.|.eX! u.~.rX9XK #X@Xt hXhXhXhXhXhXhXhXhXhXhXhXhXhXhXhXhXhXhXhXhX",
"hXhXhXhXhXhXhXhXhXhXhXhXhXhXhXhXhXhXhX& ;.G.k.^ / A.Q.{.A.u.R I.[.9XT ^ E.5XY.B J.K.: hXhXhXhXhXhXhXhXhXhXhXhXhXhXhXhXhXhXhXhXhX",
"hXhXhXhXhXhXhXhXhXhXhXhXhXhXhXhXhXhX= - > j T B.A.G c.Q.B $ f Y R R N H d J R f J U & hXhXhXhXhXhXhXhXhXhXhXhXhXhXhXhXhXhXhXhXhX",
"hXhXhXhXhXhXhXhXhXhXhXhXhXhXhXhXhXz o E J K A N.Y.Z M.C.@ O   ! / / # > , P Y T J H , hXhXhXhXhXhXhXhXhXhXhXhXhXhXhXhXhXhXhXhXhX",
"hXhXhXhXhXhXhXhXhXhXhXhXhXhXhXhXhX< U E.'.U.D M.Y.Z M.Y.N   C Z.}.wXK O > H v.pXE o . hXhXhXhXhXhXhXhXhXhXhXhXhXhXhXhXhXhXhXhXhX",
"hXhXhXhXhXhXhXhXhXhXhXhXhXhXhXhXhX2 T '.L.v.v.B.B.Z x.[.^ A F !.{.yX/ V Q V u.tXn.^ ~ @.hXhXhXhXhXhXhXhXhXhXhXhXhXhXhXhXhXhXhXhX",
"hXhXhXhXhXhXhXhXhXhXhXhXhXhXhXhXhX2 T 3XV V pXn.Y R M.'.'.3X`.`.|.uX9X'.E.i.f.pXsXsXdX=.1 hXhXhXhXhXhXhXhXhXhXhXhXhXhXhXhXhXhXhX",
"hXhXhXhXhXhXhXhXhXhXhXhXhXhXhXhXhX5 L d.~ Q D.-.k k d.:X*XP.T.s.B.L.:XP.P.E R I.L.E.0X~ + hXhXhXhXhXhXhXhXhXhXhXhXhXhXhXhXhXhXhX",
"hXhXhXhXhXhXhXhXhXhXhXhXhXhXhXhXhXr o   :.l.  O o X @.S.k.q.k.2 o < 7.G.k.k o X X U '.T 1 hXhXhXhXhXhXhXhXhXhXhXhXhXhXhXhXhXhXhX",
"hXhXhXhXhXhXhXhXhXhXhXhXhXhXhXp < ,.d.Q b.D.,.>.>.>.=.%.oX9.+.5 5 5 +.;.k.x L 8.H k ,.P r hXhXhXhXhXhXhXhXhXhXhXhXhXhXhXhXhXhXhX",
"hXhXhXhXhXhXhXhXhXhX, - < , > O $ F.R.n.F.T.T.;XiXiX;.5 OX<.3 3 3 & 8 O.+XO.@.6XU #   o i hXhXhXhXhXhXhXhXhXhXhXhXhXhXhXhXhXhXhX",
"hXhXhXhXhXhXhXhXhX@.K.G.S.S.d.b.v.}.wX9XT.H.H.#X=X-X;.i oX<.: , , > ; t L ; O.-X+.H b.J - [ hXhXhXhXhXhXhXhXhXhXhXhXhXhXhXhXhXhX",
"hXhXhXhXhXhXhXhX< 7.6X6X1X1X*XT.}. XyXtXR.D.G.$X&X#X%.i q.%.> O # + O : ; ; %.$XL U 4XE - & O.hXhXhXhXhXhXhXhXhXhXhXhXhXhXhXhXhX",
"hXhXhXhXhXhXhXhX, y @.@.@.@.I >.wX XyXaXd.P G.;.@.I M 1 L , @ b.U.R.L e ; ; t O.[ x J n.J.2 8 ` hXhXhXhXhXhXhXhXhXhXhXhXhXhXhXhX",
"hXhXhXhXhXhXhXhX2 d @ k # @ # ~ rXwXtXrXE L q.%.> O @ O # d d R.wXrXP & 8 : : : * - d E.4XH t t hXhXhXhXhXhXhXhXhXhXhXhXhXhXhXhX",
"hXhXhXhXhXhXhXx m.Y.].].5X5XY.v.Y W K U M t ` 6.;.$ s.9XR.Q C U.qXqXW - 5 = , = - E L.I.D.>.J.H.y r hXhXhXhXhXhXhXhXhXhXhXhXhXhX",
"hXhXhXhXhXhXhXj Y.|.yX XeXeX|.M.f o . > % % ' <.k.s N.uX}.i.s L.3X0X+.= 3 u 4 e . U =XF.H.H.:X-XL z p hXhXhXhXhXhXhXhXhXhXhXhXhX",
"hXhXhXhXhXhXhXk }. X~.{.^.^.eX).$ z M w ) ) ) u k Y.`.`.].s.2 p #.9.M % ( X.X.1.w I S.K.F.8X4X;X-X1X$Xp hXhXhXhXhXhXhXhXhXhXhXhX",
"hXhXhXhXhXhXhXx R.}.A.Z.Z.Z.[.V.j hXhX_ ( ) _ 8 W n.C.C.I.=.& 4 ] o.9 9 ) X.X.X.q M :.l.l.#X&X*X-X-X@XM hXhXhXhXhXhXhXhXhXhXhXhX",
"hXhXhXhXhXhXhXhXM @ $ @ + 2 k 1 hXhXhXw 7 7 8 = o j j j r = e 8 7 M % 9 0 0 _ _ 0 8 a a 8 r r r < < y & hXhXhXhXhXhXhXhXhXhXhXhX",
"hXhXhXhXhXhXhXhXhXy p p ` ` ` hXhXhXhXhXhX[ y r 6 x i ' 6 u p 8 t w _ ' u 8 u a a u 4 ' u 6 6 x r r hXhXhXhXhXhXhXhXhXhXhXhXhXhX",
"hXhXhXhXhXhXhXhXhXhXhXhXhXhXhXhXhXhXhXhXhXhXhXhXhXhXhXhXhXhXhXhXhXhXhXhXhXhXhXhXhXhXhXhXhXhXhXhXhXhXhXhXhXhXhXhXhXhXhXhXhXhXhXhX",
"hXhXhXhXhXhXhXhXhXhXhXhXhXhXhXhXhXhXhXhXhXhXhXhXhXhXhXhXhXhXhXhXhXhXhXhXhXhXhXhXhXhXhXhXhXhXhXhXhXhXhXhXhXhXhXhXhXhXhXhXhXhXhXhX",
"hXhXhXhXhXhXhXhXhXhXhXhXhXhXhXhXhXhXhXhXhXhXhXhXhXhXhXhXhXhXhXhXhXhXhXhXhXhXhXhXhXhXhXhXhXhXhXhXhXhXhXhXhXhXhXhXhXhXhXhXhXhXhXhX",
"hXhXhXhXhXhXhXhXhXhXhXhXhXhXhXhXhXhXhXhXhXhXhXhXhXhXhXhXhXhXhXhXhXhXhXhXhXhXhXhXhXhXhXhXhXhXhXhXhXhXhXhXhXhXhXhXhXhXhXhXhXhXhXhX"
};
