/* XPM */
static char *xpm_[] = {
/* columns rows colors chars-per-pixel */
"64 64 232 2 ",
"   c #2D2808",
".  c #322E0C",
"X  c #3A2C0A",
"o  c #39360A",
"O  c #2B2D1D",
"+  c #2B2819",
"@  c #342C14",
"#  c #3C2D13",
"$  c #332C1B",
"%  c #37291A",
"&  c #35331C",
"*  c #383717",
"=  c #2B2C23",
"-  c #2C2C2C",
";  c #282A2A",
":  c #342D23",
">  c #322C2C",
",  c #392B27",
"<  c #2A3326",
"1  c #3A3225",
"2  c #34332C",
"3  c #3B332D",
"4  c #373728",
"5  c #2C2C33",
"6  c #2B2D3B",
"7  c #262D3A",
"8  c #332D32",
"9  c #392E37",
"0  c #2D3233",
"q  c #2C323D",
"w  c #253337",
"e  c #323333",
"r  c #3C3534",
"t  c #3B3B35",
"y  c #35353C",
"u  c #353B3C",
"i  c #3C3D3A",
"p  c #3A353C",
"a  c #443805",
"s  c #453916",
"d  c #523B19",
"f  c #6E2C1A",
"g  c #621E24",
"h  c #721A28",
"j  c #7D1C36",
"k  c #6E1F32",
"l  c #433C23",
"z  c #483B28",
"x  c #552833",
"c  c #443837",
"v  c #482E32",
"b  c #742634",
"n  c #6A2932",
"m  c #3D4137",
"M  c #4A441A",
"N  c #584B1D",
"B  c #5A531A",
"V  c #52430C",
"C  c #68560D",
"Z  c #66591B",
"A  c #725B19",
"S  c #724917",
"D  c #746212",
"F  c #484327",
"G  c #564828",
"H  c #5A522D",
"J  c #5C5826",
"K  c #43433E",
"L  c #4A4737",
"P  c #594738",
"I  c #595737",
"U  c #475234",
"Y  c #635524",
"T  c #685A28",
"R  c #745928",
"E  c #655C39",
"W  c #734432",
"Q  c #796A28",
"!  c #6C6438",
"~  c #7B6D32",
"^  c #786837",
"/  c #776B32",
"(  c #272C45",
")  c #2C3243",
"_  c #28364C",
"`  c #323A44",
"'  c #3B3C42",
"]  c #373944",
"[  c #2A3B54",
"{  c #313E57",
"}  c #273E67",
"|  c #443D47",
" . c #5A3046",
".. c #7C3443",
"X. c #693340",
"o. c #3B4445",
"O. c #3B4859",
"+. c #384663",
"@. c #3A5773",
"#. c #484746",
"$. c #534E46",
"%. c #5A5A47",
"&. c #4A4655",
"*. c #565553",
"=. c #495353",
"-. c #665743",
";. c #615A54",
":. c #734D54",
">. c #5C6243",
",. c #6A634E",
"<. c #776A45",
"1. c #6B6459",
"2. c #676959",
"3. c #756D53",
"4. c #6B735B",
"5. c #757459",
"6. c #7F714E",
"7. c #595D66",
"8. c #485A7A",
"9. c #52536D",
"0. c #6F4761",
"q. c #5D6767",
"w. c #576F79",
"e. c #636367",
"r. c #7A766A",
"t. c #646D76",
"y. c #726E75",
"u. c #7B7A77",
"i. c #852A3C",
"p. c #83641E",
"a. c #854138",
"s. c #877528",
"d. c #906C36",
"f. c #882B42",
"g. c #923343",
"h. c #89384B",
"j. c #887947",
"k. c #837A5B",
"l. c #887A54",
"z. c #917754",
"x. c #895C63",
"c. c #857C67",
"v. c #807E71",
"b. c #9D803A",
"n. c #A9903C",
"m. c #978C48",
"M. c #8B835A",
"N. c #95895A",
"B. c #9A915C",
"V. c #87864E",
"C. c #A99449",
"Z. c #B59D49",
"A. c #A7975A",
"S. c #B19A55",
"D. c #A58C4A",
"F. c #BDA658",
"G. c #AFA05F",
"H. c #85886C",
"J. c #968A67",
"K. c #9C946A",
"L. c #878478",
"P. c #978B73",
"I. c #969477",
"U. c #8D9473",
"Y. c #A59966",
"T. c #A3926A",
"R. c #ADA26D",
"E. c #B1A265",
"W. c #B3A469",
"Q. c #BBAB6A",
"!. c #A8A477",
"~. c #B1A475",
"^. c #BAA879",
"/. c #BEB778",
"(. c #C3AF5C",
"). c #CAB35C",
"_. c #C9A667",
"`. c #C5B263",
"'. c #CBB868",
"]. c #D3BC64",
"[. c #C6B678",
"{. c #D3BD79",
"}. c #CDAE70",
"|. c #DAC567",
" X c #D8C677",
".X c #E1CC6A",
"XX c #E9D27C",
"oX c #44638C",
"OX c #566D85",
"+X c #6A7B89",
"@X c #757B9E",
"#X c #657E92",
"$X c #8F7D8D",
"%X c #A67F9A",
"&X c #7E8185",
"*X c #838784",
"=X c #8D9487",
"-X c #989587",
";X c #939496",
":X c #9EA28C",
">X c #ADA282",
",X c #A7A489",
"<X c #BAB685",
"1X c #A5A594",
"2X c #B5B395",
"3X c #B8A084",
"4X c #BF96A4",
"5X c #BCBCA8",
"6X c #B6B4B8",
"7X c #AAAFAC",
"8X c #C6B886",
"9X c #C7BB93",
"0X c #DBAD9D",
"qX c #C2BFAE",
"wX c #D8C688",
"eX c #D6CC9A",
"rX c #DFD08F",
"tX c #E4C888",
"yX c #E9D588",
"uX c #E2CC96",
"iX c #ECDB93",
"pX c #EAD998",
"aX c #F9D98C",
"sX c #FAE183",
"dX c #FAE396",
"fX c #EEE298",
"gX c #CCCAAD",
"hX c #ECDCA0",
"jX c #F5E4A6",
"kX c #E0E1A8",
"lX c #AEB5C6",
"zX c None",
/* pixels */
"zXzXzXzXzXzXzXzXzXzXzXzXzXzXzXzXzXzXzXzXzXzXzXzXzXzXzXzXzXzXzXzXzXzXzXzXzXzXzXzXzXzXzXzXzXzXzXzXzXzXzXzXzXzXzXzXzXzXzXzXzXzXzXzX",
"zXzXzXzXzXzXzXzXzXzXzXzXzXzXzXzXzXzXzXzXzXzXzXzXzXzXzXzXzXzXzXzXzXzXzXzXzXzXzXzXzXzXzXzXzXzXzXzXzXzXzXzXzXzXzXzXzXzXzXzXzXzXzXzX",
"zXzXzXzXzXzXzXzXzXzXzXzXzXzXzXzXzXzXzXzXzXzXzXzXzXzXzXzXzXzXzXzXzXzXzXzXzXzXzXzXzXzXzXzXzXzXzXzXzXzXzXzXzXzXzXzXzXzXzXzXzXzXzXzX",
"zXzXzXzXzXzXzXzXzXzXzXzXzXzXzXzXzXzXzXzXzXzXzXzXzXzXzXzXzXzXzXzXzXzXzXzXzXzXzXzXzXzXzXzXzXzXzXzXzXzXzXzXzXzXzXzXzXzXzXzXzXzXzXzX",
"zXzXzXzXzXzXzXzXzXzXzXzXzXzXzXzXzXzXzXzXzXzXzXzXzXzXzXzXzXzXzXzXzXzXzXzXzXzXzXzXzXzXzXzXzXzXzXzXzXzXzXzXzXzXzXzXzXzXzXzXzXzXzXzX",
"zXzXzXzXzXzXzXzXzXzXzXzXzXzXzXzXzXzXzXzXzXzXzXzXzXzXzXzXzXzXzXzXzXzXzXzXzXzXzXzXzXzXzXzXzXzXzXzXzXzXzXzXzXzXzXzXzXzXzXzXzXzXzXzX",
"zXzXzXzXzXzXzXzXzXzXzXzXzXzXzXzXzXzXzXzXzXzXzXzXzXzXzXzXzXzXzXzXzXzXzXzXzXzXzXzXzXzXzXzXzXzXzXzXzXzXzXzXzXzXzXzXzXzXzXzXzXzXzXzX",
"zXzXzXzXzXzXzXzXzXzXzXzXzXzXzXzXzXzXzXzXzXzXzXzXzXzXzXzXzXzXzXzXzXzXzXzXzXzXzXzXzXzXzXzXzXzXzXzXzXzXzXzXzXzXzXzXzXzXzXzXzXzXzXzX",
"zXzXzXzXzXzXzXzXzXzXzXzXzXzXzXzXzXzXzXzXzXzXzXzXzXzXzXzXzXzXzXzXzXzXzXzXzXzXzXzXzXzXzXzXzXzXzXzXzXzXzXzXzXzXzXzXzXzXzXzXzXzXzXzX",
"zXzXzXzXzXzXzXzXzXzXzXzXzXzXzXzXzXzXzXzXzXzXzXzXzXzXzXzXzXzXzXzXzXzXzXzXzXzXzXzXzXzXzXzXzXzXzXzXzXzXzXzXzXzXzXzXzXzXzXzXzXzXzXzX",
"zXzXzXzXzXzXzXzXzXzXzXzXzXzXzXzXzXzXzXzXzXzXzXzXzXzXzXzXzXzXzXzXzXzXzXzXzXzXzXzXzXzXzXzXzXzXzXzXzXzXzXzXzXzXzXzXzXzXzXzXzXzXzXzX",
"zXzXzXzXzXzXzXzXzXzXzXzXzXzXzXzXzXzXzXzXzXzXzXzXzXzXzXzXzXzXzXzXzXzXzXzXzXzXzXzXzXzXzXzXzXzXzXzXzXzXzXzXzXzXzXzXzXzXzXzXzXzXzXzX",
"zXzXzXzXzXzXzXzXzXzXzXzXzXzXzXzXzXzXzXzXzXzXzXzXzXzXzXzXzXzXzXzXzXzXzXzXzXzXzXzXzXzXzXzXzXzXzXzXzXzXzXzXzXzXzXzXzXzXzXzXzXzXzXzX",
"zXzXzXzXzXzXzXzXzXzXzXzXzXzXzXzXzXzXzXzXzXzXzXzXzXzXzXzXzXzXzXzXzXzXzXzXzXzXzXzXzXzXzXzXzXzXzXzXzXzXzXzXzXzXzXzXzXzXzXzXzXzXzXzX",
"zXzXzXzXzXzXzXzXzXzXzXzXzXzXzXzXzXzXzXzXzXzXzXzXzXzXzXzXzXzXzXzXzXzXzXzXzXzXzXzXzXzXzXzXzXzXzXzXzXzXzXzXzXzXzXzXzXzXzXzXzXzXzXzX",
"zXzXzXzXzXzXzXzXzXzXzXzXzXzXzXzXzXzXzXzXzXzXzXzXzXzXzXzXzXzXzXzXzXzXzXzXzXzXzXzXzXzXzXzXzXzXzXzXzXzXzXzXzXzXzXzXzXzXzXzXzXzXzXzX",
"zXzXzXzXzXzXzXzXzXzXzXzXzXzXzXzXzXzXzXzXzXzXzXzXzXzXzXzXzXzXzXzXzXzXzXzXzXzXzXzXzXzXzXzXzXzXzXzXzXzXzXzXzXzXzXzXzXzXzXzXzXzXzXzX",
"zXzXzXzXzXzXzXzXzXzXzXzXzXzXzXzXzXzXzXzXzXzXzXzXzXzXzXzXzXzXzXzXzXzXzXzXzXzXzXzXzXzXzXzXzXzXzXzXzXzXzXzXzXzXzXzXzXzXzXzXzXzXzXzX",
"zXzXzXzXzXzXzXzXzXzXzXzXzXzXzXzXzXzXzXzXzXzXzXzXzXzXzXzXzXzXzXzXzXzXzXzXzXzXzXzXzXzXzXzXzXzXzXzXzXzXzXzXzXzXzXzXzXzXzXzXzXzXzXzX",
"zXzXzXzXzXzXzXzXzXzXzXzXzXzXzXzXzXzXzXzXzXzXzXzXzXzXzXzXzXzXzXzXzXzXzXzXzXzXzXzXzXzXzXzXzXzXzXzXzXzXzXzXzXzXzXzXzXzXzXzXzXzXzXzX",
"zXzXzXzXzXzXzXzXzXzXzXzXzXzXzXzXzXzXzXzXzXzXzXzXzXzXzXzXzXzXzXzXzXzXzXzXzXzXzXzXzXzXzXzXzXzXzXzXzXzXzXzXzXzXzXzXzXzXzXzXzXzXzXzX",
"zXzXzXzXzXzXzXzXzXzXzXzXzXzXzXzXzXzXzXzXzXzXzXzXzXzXzXzXzXzXzXzXzXzXzXzXzXzXzXzXzXzXzXzXzXzXzXzXzXzXzXzXzXzXzXzXzXzXzXzXzXzXzXzX",
"zXzXzXzXzXzXzXzXzXzXzXzXzXzXzXzXzXzXzXzXzXzXzXzXzXzXzXzXzXzXzXzXzXzXzXzXzXzXzXzXzXzXzXzXzXzXzXzXzXzXzXzXzXzXzXzXzXzXzXzXzXzXzXzX",
"zXzXzXzXzXzXzXzXzXzXzXzXzXzXzXzXzXzXzXzXzXzXzXzXzXzXzXzXzXzXzXzXzXzXzXzXzXzXzXzXzXzXzXzXzXzXzXzXzXzXzXzXzXzXzXzXzXzXzXzXzXzXzXzX",
"zXzXzXzXzXzXzXzXzXzXzXzXzXzXzXzXzXzXzXzXzXzXzXzXzXzXzXzXzXzXzXzXzXzXzXzXzXzXzXzXzXzXzXzXzXzXzXzXzXzXzXzXzXzXzXzXzXzXzXzXzXzXzXzX",
"zXzXzXzXzXzXzXzXzXzXzXzXzXzXzXzXzXzXzXzXzXzXzXzXzXzXzXzXzXzXzXzXzXzXzXzXzXzXzXzXzXzXzXzXzXzXzXzXzXzXzXzXzXzXzXzXzXzXzXzXzXzXzXzX",
"zXzXzXzXzXzXzXzXzXzXzXzXzXzXzXzXzXzXzXzXzXzXzXzXzXzXzXzXzXzXzXzXzXzXzXzXzXzXzXzXzXzXzXzXzXzXzXzXzXzXzXzXzXzXzXzXzXzXzXzXzXzXzXzX",
"zXzXzXzXzXzXzXzXzXzXzXzXzXzXzXzXzXzXzXzXzXzXzXzXzXzXzXzXzXzXzXzXzXzXzXzXzXzXzXzXzXzXzXzXzXzXzXzXzXzXzXzXzXzXzXzXzXzXzXzXzXzXzXzX",
"zXzXzXzXzXzXzXzXzXzXzXzXzXzXzXzXzXzXzXzXzXzXzXzXzXzXzXzXzXzXzXzXzXx c zXzXzXzXzXzXzXzXzXzXzXzXzXzXzXzXzXzXzXzXzXzXzXzXzXzXzXzXzX",
"zXzXzXzXzXzXzXzXzXzXzXzXzXzXzXzXzXzXzXzXzXzXzXzXzXzXzXzXzX; zXzXzXn X.n zXzXzXzXzXzXzXzXzXzXzXzXzXzXzXzXzXzXzXzXzXzXzXzXzXzXzXzX",
"zXzXzXzXzXzXzXzXzXzXzXzXzXzXzXzXzXzXzXzXzXzXzXzXzXzXzXzXzXL ;.z g b ....x :.zXzXzXzXzXzXzXzXzXzXzXzXzXzXzXzXzXzXzXzXzXzXzXzXzXzX",
"zXzXzXzXzXzXzXzXzXzXzXzXzXzXzXzXzXzXzXzXzXzXzXzXzXzXzXzXt.;X6X:.b g.f...h.4X$X] zXzXzXzXzXzXzXzXzXzXzXzXzXzXzXzXzXzXzXzXzXzXzXzX",
"zXzXzXzXzXzXzXzXzXzXzXzXzXzXzXzXzXzXzXzXzXzXzXzXzXzX_ O.oX@XlX0.k g.i.f.h.%X@X} } zXzXzXzXzXzXzXzXzXzXzXzXzXzXzXzXzXzXzXzXzXzXzX",
"zXzXzXzXzXzXzXzXzXzXzXzXzXzXzXzXzXzXzXzXzXzXzXzXzXw _ @.@.9.9. .b g.i.j ..0.oXoXoX@.zXzXzXzXzXzXzXzXzXzXzXzXzXzXzXzXzXzXzXzXzXzX",
"zXzXzXzXzXzXzXzXzXzXzXzXzXzXzXzXzXzXzXzXzXzXzXzXzXo.=.OXOXt.;.W k f.j i.h.x.y.+X&X@.zXzXzXzXzXzXzXzXzXzXzXzXzXzXzXzXzXzXzXzXzXzX",
"zXzXzXzXzXzXzXzXzXzXzXzXzXzXzXzXzXzXzXzXzXzXzXzX5 e.=X6XlXlX2XR g k h h i.0XgX6XlX&Xq zXzXzXzXzXzXzXzXzXzXzXzXzXzXzXzXzXzXzXzXzX",
"zXzXzXzXzXzXzXzXzXzXzXzXzXzXzXzXzXzXzXzXzXzXzX' #.2.H.1X7X1X9Xd.a.f f f d.uX0X2X7X#Xw zXzXzXzXzXzXzXzXzXzXzXzXzXzXzXzXzXzXzXzXzX",
"zXzXzXzXzXzXzXzXzXzXzXzXzXzXzXzXzXzXzXzXzXzXq.&XL.,.I H 0.c.8XwX(.a.S d.].aXQ.I e.O.q zXzXzXzXzXzXzXzXzXzXzXzXzXzXzXzXzXzXzXzXzX",
"zXzXzXzXzXzXzXzXzXzXzXzXzXzXzXzXzXzXzXzXzXzXq.&Xv.! Z / -.,.W. X).p.p.b.(. XQ.! q.O.[ zXzXzXzXzXzXzXzXzXzXzXzXzXzXzXzXzXzXzXzXzX",
"zXzXzXzXzXzXzXzXzXzXzXzXzXzXzXzXzXzXzXzXzXzXq w 2 F / iXV.E Z C s.). X(.S C C.rX2.9.O.O.zXzXzXzXzXzXzXzXzXzXzXzXzXzXzXzXzXzXzXzX",
"zXzXzXzXzXzXzXzXzXzXzXzXzXzXzXzXzXzXzXzXzXzX` ] u G ~ XXD.R C C s.`.sXF.C A n.pX3.$.q.` zXzXzXzXzXzXzXzXzXzXzXzXzXzXzXzXzXzXzXzX",
"zXzXzXzXzXzXzXzXzXzXzXzXzXzXzXzXzXzXzXzXzXzX7.*XL.! Q ].(.`./.~ Q ].iX'.R S.].iX^ v.1X' zXzXzXzXzXzXzXzXzXzXzXzXzXzXzXzXzXzXzXzX",
"zXzXzXzXzXzXzXzXzXzXzXzXzXzXzXzXzXzXzXzXzX8 *.L.H.<.s.F.).].~.^ Q [.wXY.Y A. XwXT M.:Xm zXzXzXzXzXzXzXzXzXzXzXzXzXzXzXzXzXzXzXzX",
"zXzXzXzXzXzXzXzXzXzXzXzXzXzXzXzXzXzXzXzXzX= l F H Y.A.D n.Z.G s s T ^ Y o s B Y M M >.4 | zXzXzXzXzXzXzXzXzXzXzXzXzXzXzXzXzXzXzX",
"zXzXzXzXzXzXzXzXzXzXzXzXzXzXzXzXzXzXzXzX$ s M a B B.W.C Z.S.a @ M Y R N % % F H M M L 2 #.zXzXzXzXzXzXzXzXzXzXzXzXzXzXzXzXzXzXzX",
"zXzXzXzXzXzXzXzXzXzXzXzXzXzXzXzXzXzXzXzXF Y.E.S.D m.Q.A D.D.s X Y Q.tXA.# @ s I <XM.s % #.zXzXzXzXzXzXzXzXzXzXzXzXzXzXzXzXzXzXzX",
"zXzXzXzXzXzXzXzXzXzXzXzXzXzXzXzXzXzXzXzXz [.[.S.C A.W.S C.Z.d a A (.aXS.a s M ! rXA.a z P zXzXzXzXzXzXzXzXzXzXzXzXzXzXzXzXzXzXzX",
"zXzXzXzXzXzXzXzXzXzXzXzXzXzXzXzXzXzXzXzXd ^.j.A  Xm.T Y C._.E.E.Q.].sXXXE.Y.V.T wXyXwX9Xc.zXzXzXzXzXzXzXzXzXzXzXzXzXzXzXzXzXzXzX",
"zXzXzXzXzXzXzXzXzXzXzXzXzXzXzXzXzXzXzXzXP 3X<.G kXV.H G Y.{.8X[.[.}.tXpX[.[.T.E wXpXiXjXJ.$ zXzXzXzXzXzXzXzXzXzXzXzXzXzXzXzXzXzX",
"zXzXzXzXzXzXzXzXzXzXzXzXzXzXzXzXzXzXzXc % P %.c.J * * l <.J.T.J.j.B N R N.J.<.s H B Q /.l.z zXzXzXzXzXzXzXzXzXzXzXzXzXzXzXzXzXzX",
"zXzXzXzXzXzXzXzXzXzXzXzXzXzXzXzXzXzXzXc : & ,.k.* * 4 1 1.v.L.v.2.2 + #.v.P.*.: O   o !.5., zXzXzXzXzXzXzXzXzXzXzXzXzXzXzXzXzXzX",
"zXzXzXzXzXzXzXzXzXzXzXzXzXzXzXzX] 9 3 1.P.6.U.I.H.U.-X-X;.*.u.=.u ; 5 ] #.y.e.u U.5.. G L 3 zXzXzXzXzXzXzXzXzXzXzXzXzXzXzXzXzXzX",
"zXzXzXzXzXzXzXzXzXzXzXzXzXr , 3 v , X j.[.B.T.>X:X2XqXqX;.c &X#.0 e e 5 9 y.e.e 1Xr.s X % v zXzXzXzXzXzXzXzXzXzXzXzXzXzXzXzXzXzX",
"zXzXzXzXzXzXzXzXzXzXzXzXL.-XI.-X*XP.m.`.yXrX3XT.U.,X,X,X*.c *Xm + : > > 9 | | t ;X5.# J.,., r zXzXzXzXzXzXzXzXzXzXzXzXzXzXzXzXzX",
"zXzXzXzXzXzXzXzXzXzXzXm 1X5XqXqX2X!.|.XXXXdX3Xc.P.I.1X1X*.| u.$.1 # # : , 9 ; e =X4.F >X5.& + zXzXzXzXzXzXzXzXzXzXzXzXzXzXzXzXzX",
"zXzXzXzXzXzXzXzXzXzXm O I ;.%.%.>.!  XXXsXdXT.I H.3.$.$.c r L 1 G N.~.M.$ > 0 e $.K & I M.K.L 2 zXzXzXzXzXzXzXzXzXzXzXzXzXzXzXzX",
"zXzXzXzXzXzXzXzXzXzXc + * . . .   M wXjXdXjXk.l H.U = = 2 $ $ . T [.fXW.* < < e - > + * N.eXF + 2 zXzXzXzXzXzXzXzXzXzXzXzXzXzXzX",
"zXzXzXzXzXzXzXzXzXp %.H.T.R.R.R.Y.m.~ ^ <.6.U < U >.,.@ k.!.M.N J <XfXR.. < 0 5 5 > t 5.Y.~.3.L.r.K zXzXzXzXzXzXzXzXzXzXzXzXzXzX",
"zXzXzXzXzXzXzXzXzX, -.wXiXdXdXdXXXW.d # @ & < w < 4.r.M E.iX{.Y J <XkX!.& = 7 ) ) 8 L >X~.B.J.1X1X4 = zXzXzXzXzXzXzXzXzXzXzXzXzX",
"zXzXzXzXzXzXzXzXzXv <.uX X.X|.|.tX{.G z 4 0 ) w w #.E V.Q.|.'.Y F 4.H.4.: e _ +.+.) z K.K.H.>X2X5XL.L.r.zXzXzXzXzXzXzXzXzXzXzXzX",
"zXzXzXzXzXzXzXzXzX, 6.pX X].].]. XuXP  .&.) _ _ ) y P <X{.'.[.E - _ O.O.0 ) +.8.8.O.z 5.H.U.2XgX2XqXgX1Xp zXzXzXzXzXzXzXzXzXzXzX",
"zXzXzXzXzXzXzXzXzXc I N.Q Q ~ Q j.k.c zXzX( ( ( 7 7 v 6.^ ~ <.z 5 _ { { 7 7 [ +.{ ` e I %.>.2.4.r.4.e.q.e zXzXzXzXzXzXzXzXzXzXzX",
"zXzXzXzXzXzXzXzXzXzXm O + $ & : O O zXzXzXp 7 ) ) q 5 :   % 1 ; 0 5 8 - 0 w 7 7 ) 6 - ; - 8 - ; = = + 0 - zXzXzXzXzXzXzXzXzXzXzX",
"zXzXzXzXzXzXzXzXzXzXzXm K ' &.o.o.#.zXzXzX' #.o.o.' e i i t r t i p c r t u ` ) ' ] ' p | p ] ` t L i #.| 9.zXzXzXzXzXzXzXzXzXzX"
};
