/* XPM */
static char *xpm_[] = {
/* columns rows colors chars-per-pixel */
"64 64 242 2 ",
"   c #2B291B",
".  c #322C1B",
"X  c #3A351D",
"o  c #313016",
"O  c #2D2C24",
"+  c #2D2D2C",
"@  c #292929",
"#  c #322D25",
"$  c #322D2C",
"%  c #382B28",
"&  c #2D312C",
"*  c #2C3127",
"=  c #3B3125",
"-  c #34332C",
";  c #3A322A",
":  c #383728",
">  c #2E2E32",
",  c #2C2D3B",
"<  c #322D32",
"1  c #362F38",
"2  c #2C3234",
"3  c #24323C",
"4  c #2A323C",
"5  c #263135",
"6  c #3C3B34",
"7  c #373637",
"8  c #423A1B",
"9  c #781934",
"0  c #731A2D",
"q  c #453A28",
"w  c #563D2B",
"e  c #5A3B36",
"r  c #4F2B31",
"t  c #752629",
"y  c #722F30",
"u  c #3D413D",
"i  c #3D411F",
"p  c #4D451D",
"a  c #5C4C1B",
"s  c #5F521A",
"d  c #64551B",
"f  c #73611E",
"g  c #4B4326",
"h  c #5A402B",
"j  c #574A28",
"k  c #5B5229",
"l  c #44423B",
"z  c #4C4A3B",
"x  c #494537",
"c  c #564B34",
"v  c #595536",
"b  c #4C5535",
"n  c #665627",
"m  c #675B39",
"M  c #6A5729",
"N  c #7B6927",
"B  c #756836",
"V  c #736C35",
"C  c #1B3559",
"Z  c #1F3441",
"A  c #253344",
"S  c #283447",
"D  c #363C45",
"F  c #233658",
"G  c #2B3147",
"H  c #1B3865",
"J  c #233B60",
"K  c #58334A",
"L  c #334352",
"P  c #3B5168",
"I  c #2D4B73",
"U  c #1D416A",
"Y  c #474746",
"T  c #514D48",
"R  c #4C524A",
"E  c #585749",
"W  c #4C5458",
"Q  c #645C45",
"!  c #635D54",
"~  c #7C4D4D",
"^  c #5C6258",
"/  c #666249",
"(  c #786B46",
")  c #7A7245",
"_  c #686758",
"`  c #736A56",
"'  c #78745A",
"]  c #6F7455",
"[  c #4C5766",
"{  c #566369",
"}  c #576A75",
"|  c #676767",
" . c #726E62",
".. c #7A7868",
"X. c #767A77",
"o. c #627172",
"O. c #6F4C6A",
"+. c #8A2437",
"@. c #96283B",
"#. c #8C3430",
"$. c #821C2D",
"%. c #897538",
"&. c #8C7031",
"*. c #A15E3B",
"=. c #923042",
"-. c #897948",
";. c #847955",
":. c #917252",
">. c #B27553",
",. c #817D69",
"<. c #857F77",
"1. c #97615D",
"2. c #7E8171",
"3. c #7F8057",
"4. c #9A863D",
"5. c #8A803E",
"6. c #A5903E",
"7. c #988548",
"8. c #8B8559",
"9. c #958656",
"0. c #948A52",
"q. c #A48B44",
"w. c #A99648",
"e. c #B39D49",
"r. c #A5965D",
"t. c #A79657",
"y. c #B29D57",
"u. c #AB8D50",
"i. c #BAA659",
"p. c #BBA954",
"a. c #85836C",
"s. c #89886C",
"d. c #938C6A",
"f. c #8C8B74",
"g. c #8C8C7A",
"h. c #868575",
"j. c #928C75",
"k. c #9C9A7B",
"l. c #979578",
"z. c #989166",
"x. c #A59867",
"c. c #A79977",
"v. c #B49872",
"b. c #B9A665",
"n. c #A5A17D",
"m. c #AFA773",
"M. c #B9AA78",
"N. c #BFB373",
"B. c #9EA178",
"V. c #D8BA4D",
"C. c #C8AD58",
"Z. c #C9B557",
"A. c #D5BA53",
"S. c #DBBC54",
"D. c #D7B858",
"F. c #CBAB52",
"G. c #C9B567",
"H. c #D8BB67",
"J. c #C7B778",
"K. c #CDAE6E",
"L. c #E3B96F",
"P. c #CB915A",
"I. c #B7C774",
"U. c #9FC27B",
"Y. c #C8C15B",
"T. c #DBC156",
"R. c #E8CA5E",
"E. c #D8C365",
"W. c #D4C676",
"Q. c #E6CA67",
"!. c #EBD36B",
"~. c #F1D46A",
"^. c #E7CD77",
"/. c #FCDD7C",
"(. c #F5DA76",
"). c #EAD074",
"_. c #FCE27C",
"`. c #F9E37C",
"'. c #2D5288",
"]. c #345787",
"[. c #315691",
"{. c #3B659B",
"}. c #3C68A2",
"|. c #485883",
" X c #4D6A95",
".X c #797985",
"XX c #6D7B8A",
"oX c #436DA8",
"OX c #827C85",
"+X c #877F92",
"@X c #7F8189",
"#X c #778C9D",
"$X c #69B793",
"%X c #7FE7BD",
"&X c #6FF1D2",
"*X c #9C9B83",
"=X c #8C8C91",
"-X c #A39F84",
";X c #9EAA97",
":X c #A5A282",
">X c #A9A584",
",X c #ADAA85",
"<X c #ADAB8A",
"1X c #A8A78A",
"2X c #B2AE8A",
"3X c #B5AD87",
"4X c #B5B38C",
"5X c #BBB98F",
"6X c #B7B58D",
"7X c #BAB692",
"8X c #BDBA92",
"9X c #B6B697",
"0X c #B1AE95",
"qX c #9B99AB",
"wX c #A8A7BC",
"eX c #C9B887",
"rX c #C1BD94",
"tX c #C2BE9B",
"yX c #D0AE8B",
"uX c #D0B7A8",
"iX c #BDC09A",
"pX c #92E3B0",
"aX c #AFE7AB",
"sX c #DAC885",
"dX c #C3C29A",
"fX c #D9CD8F",
"gX c #EAD785",
"hX c #FBDE82",
"jX c #F6DB89",
"kX c #F6DC92",
"lX c #E7D392",
"zX c #FDE383",
"xX c #FCE48C",
"cX c #F5E488",
"vX c #F9E493",
"bX c #E6E890",
"nX c #FEE8A2",
"mX c #BCB9D5",
"MX c #B5B2C9",
"NX c #C2BDD4",
"BX c #C5BBCA",
"VX c None",
/* pixels */
"VXVXVXVXVXVXVXVXVXVXVXVXVXVXVXVXVXVXVXVXVXVXVXVXVXVXVXVXVXVXVXVXVXVXVXVXVXVXVXVXVXVXVXVXVXVXVXVXVXVXVXVXVXVXVXVXVXVXVXVXVXVXVXVX",
"VXVXVXVXVXVXVXVX$ VXVXVXVXVXVXVXVXVXVXVXVXVXVXVXVXVXVXVXVXVXVXVXVXVXVXVXVXVXVXVXVXVXVXVXVXVXVXVXVXVXVXVXVXVXVXVXVXVXVXVXVXVXVXVX",
"VXVXVXVXVXVXVXT / ` VXVXVXVXVXVXVXVXVXVXVXVXVXVXVXVXVXVXVXVXVXVXVXVXVXVXVXVXVXVXVXVXVXVXVXVXVXVXVXVXVXVXVXVXVXVXVXVXVXVXVXVXVXVX",
"VXVXVXVXVXVX% k lXsXw VXVXVXVXVXVXVXVXVXVXVXVXVXVXVXVXVXVXVXVXVXVXVXVXVXVXVX$ $ < VXVXVXVXVXVXVXVXVXVXVXVXVXVXVXVXVXVXVXVXVXVXVX",
"VXVXVXVXVXVX) 7.jX^.%.( VXVXVXVXVXVXVXVXVXVXVXVXVXVXVXVXVXVXVXVXVXVXVXVXVXr r y K r VXVXVXVXVXVXVXVXVXVXVXVXVXVXVXVXVXVXVXVXVXVX",
"VXVXVXVX# k G.T._.(.T.K.g $ VXVXVXVXVXVXVXVXVXVXVXVXVXVXVXVXVX@ * # $ $ % r 9 +.=.y % - * VXVXVXVXVXVXVXVXVXVXVXVXVXVXVXVXVXVXVX",
"VXVXVXVX$ k Z.T./.(.A.C.g $ VXVXVXVXVXVXVXVXVXVXVXVXVXVXVXVXu _ ` h.<.e 0 +.+.@.@.@.y O.j. .VXVXVXVXVXVXVXVXVXVXVXVXVXVXVXVXVXVX",
"VXVXVXVX: n K.D._.(.D.C.a : VXVXVXVXVXVXVXVXVXVXVXVXVX> 2 5 6 =Xg.9XuXK 9 @.@.@.@.@.@.>.uXh.4 S VXVXVXVXVXVXVXVXVXVXVXVXVXVXVXVX",
"VXVXVX;.W.x.c B (.sXm n b.eXv + VXVXVXVXVXVXVXVXVXVXZ Z J '.'.{.{.oX XK 9 @.@.$.$.@.=.O. XoX{.I A VXVXVXVXVXVXVXVXVXVXVXVXVXVXVX",
"VXVX% B vXJ.o k jXsXi X sXvXv + VXVXVXVXVXVXVXVXVX& S L I }.}.{.}. X|.K 0 +.@.+.0 +.@.O. XoXoX XL l VXVXVXVXVXVXVXVXVXVXVXVXVXVX",
"VXVX* ) vXJ.o j kXsXq q sXjXv $ VXVXVXVXVXVXVXVXVX+ z 2.f.;X9X9X0XN.K.#.y 9 9 9 9 +.@.>.lXdX9X9X4Xl.: VXVXVXVXVXVXVXVXVXVXVXVXVX",
"VXVXVX:.eXx.m ) jX^.B m b.J.m , VXVXVXVXVXVXVXVXVXY E 3.8.n.n.;X>XG.D.*.=.y y t t #.*.P.xXsXn.:X;X=X< VXVXVXVXVXVXVXVXVXVXVXVXVX",
"VXVXVXVX= V kX`._.`./.fXc = VXVXVXVXVXVXVXVXVX@ R j.;.v n k E ].} m.S.(.hX%.n d a q.D.Q.zXC.n [ }.{.A VXVXVXVXVXVXVXVXVXVXVXVXVX",
"VXVXVXVXVXVXc.i.^.^.y.M.VXVXVXVXVXVXVXVXVXVXG , L o._ v M 7.8.[ { 8.q.p.i.4.&.-.7.q.6.e.b.y.0.,.} P 4 VXVXVXVXVXVXVXVXVXVXVXVXVX",
"VXVXVXVXVXVX  p G.i.8 . VXVXVXVXVXVXVXVXVX4 A F C C G k &.cX^.f k s s n d e.A.~.xXw.k n a 4.cXG.d j # @ VXVXVXVXVXVXVXVXVXVXVXVX",
"VXVXVXVXVXv r.y.^.E.t.x.c VXVXVXVXVXVXVXVX+ Y { { { ^ v V E.T.6.6.4.7.M d e.A.~.hXu.a N 6.F.cXG.s M a...VXVXVXVXVXVXVXVXVXVXVXVX",
"VXVXVXVXO m kXcXhXcXcXfXj * VXVXVXVXVXVXVX* E g.f.d.' k N Z.T.V.A.D.Z.&.n e.D.~.zXw.s 4.D.R.zXG.n ( rX<X6 VXVXVXVXVXVXVXVXVXVXVX",
"VXVXVXVX$ q / _ XX.X/ Q : < VXVXVXVXVXVXVX& D P E m %.e.6.&.&.F.S.~.~.E.G.4.N %.%.q.e.Y.(.Z.&.4.J.b.) / - + VXVXVXVXVXVXVXVXVXVX",
"VXVXVXVXVX+ 5 S ].'.Z * - VXVXVXVXVXVXVXVX7 G F L k &.A.p.d N Z.A.gXbXbXbX%.d M n w.W.W.bXb.a &.zXE.d k = < VXVXVXVXVXVXVXVXVXVX",
"VXVXVXVXVXVX5 A U C 3 2 VXVXVXVXVXVXVX$ Q a...<.] k N A.e.d f F.I.pX&X&X&XU.p.H.W.pX&X&X&X$Xb &.E.p.d j ; 1 VXVXVXVXVXVXVXVXVXVX",
"VXVXVXVXVXVX> 4 C F A < VXVXVXVXVXVXVX+ E 2.2.X._ b V p.u.d f F.I.pX&X&X&XI.V.~.bXaX&X&X&X$Xb &.p.t.E R & * VXVXVXVXVXVXVXVXVXVX",
"VXVXVXVXVXVX5 S ].].S < VXVXVXVXVXVXVX2 S C H H C A 7 v M k f Z.T.Y.Y.p.D.Z.A.!._.!.Y.Z.Y.w.s d n R |.P A 5 VXVXVXVXVXVXVXVXVXVX",
"VXVXVXVXVXVXVXD I I S , D VXVXVXVXVXVX2 L P P P [ P W / m j k m.b.i.i.b.K.K.eXfXlXJ.b.i.b.:.g k / _ XX X2 & VXVXVXVXVXVXVXVXVXVX",
"VXVXVXVXVXVXVXVX> A F F 3 1 VXVXVXVXVX+ / g.f.f.g.f.j.j...- 7 .X=X@X@X@XOXwXNXNXNXqX.X@X+X| # Y f.l.iX;Xu * VXVXVXVXVXVXVXVXVXVX",
"VXVXVXVXVXVXVXVX1 S I U S 2 VXVXVXVXVX> Y { { [ { [ { { [ S S W ^ .X.XqXqXOX.X.X.X+XqX.X[ W A D } |.#XXX7 < VXVXVXVXVXVXVXVXVXVX",
"VXVXVXVXVXVXVXVX> S ].[.S + VXVXVXVXVX4 A C C C C H C C C C S 5 > X.+XMXmXW @ @ @ .XmX+X@ 3 C H C U [.'.A + VXVXVXVXVXVXVXVXVXVX",
"VXVXVXVXVXVXVXVX1 , W Y 1 $ VXVXVXVXVX+ R o.} o.W G Z 3 3 A G > > X.OXMXNXqX=X=X=XwXmXOX< , A 3 A L XX2.g.g.l VXVXVXVXVXVXVXVXVX",
"VXVXVXVXVXVXVXVX% = e x = $ VXVXVXVXVX$ ! g.g.g. .: - - : = = : 6 X..XwXMXMXmXBXmXmXmXX.% 1 $ & & l s.j.9X0Xx + VXVXVXVXVXVXVXVX",
"VXVXVXVXVXVXVXVX* = e h = * VXVXVXVXVX$ 6 u u i m y.e.e.e.e.e.e.r.c D R T x.J.^.lXj.T ( b.V . < + 4 l E 7X0Xe > VXVXVXVXVXVXVXVX",
"VXVXVXVXVXVXVXVX> = h h ; + VXVXVXVXVX& : q q p V E.T.S.S.T.T.T.G.n q * % u.A.!.cX7.  %.W.w.g z z q O u -X0XY VXVXVXVXVXVXVXVXVX",
"VXVXVXVXVXVXVXVX+ = h h ; > VXVXVXVXVX. %.C.Z.F.H./.(././.(._./.(.Z.i.g X w.A.~.xX;.  9.jX/.^.).gXN.X + 6 6 VXVXVXVXVXVXVXVXVXVX",
"VXVXVXVXVXVXVXVX< = h w = $ VXVXVXVXVX# -.D.F.6.C.zX/.hX/./._./.(.R.E.k o ' r.M.tX`   -.xXhX/./.hXW.B m Q / VXVXVXVXVXVXVXVXVXVX",
"VXVXVXVXVXVXVXVX$ = h h = 2 VXVXVXVXVX# -.E.%.o V xX_._.zX_._._./.hXjXc @ S C '.].L @ 8.xX_.zXzXzXzXzXhXcXfXc + VXVXVXVXVXVXVXVX",
"VXVXVXVXVXVXVXVX+ q h w ; $ VXVXVXVXVXVX8.7.) E ' x.x.r.r.x.t.t.y.gXjXt.' l S U I ^ ;.9.x.t.t.r.r.r.t.y.!.W.g + VXVXVXVXVXVXVXVX",
"VXVXVXVXVXVXVXVX+ = h h ; $ VXVXVXVXVXVXVX# E f._ # #   O O #   8 W.zXzXvXm + 4 + x.nX9.  O O   * + $ 8 Z.b.g > VXVXVXVXVXVXVXVX",
"VXVXVXVXVXVXVXVX< = w w ; < VXVXVXVXVXVX.. .s.,Xl.' ..a.a.a.a.a.a.;.-.' ;.x $ & O Q ;.8.a.a.a.a.2. .< q m B VXVXVXVXVXVXVXVXVXVX",
"VXVXVXVXVXVXVXVXVX= h h ; < VXVXVXVX- *  .1X2XiX0X-X<X8XdXdXdXdX4Xx O + $ < - - - +   ] dXrXdXdXiX>X- < $ $ VXVXVXVXVXVXVXVXVXVX",
"VXVXVXVXVXVXVXVXVXVX; = w w ; < 1 % V t.z.j.k.<Xf.z ! k.k.,Xm.1X>Xf.a.a.a.a.a.a.a.a.a.l.<X,X,Xn.,Xf.# 6 ..a.u VXVXVXVXVXVXVXVXVX",
"VXVXVXVXVXVXVXVXVXVX< = h h ; & : 8 w.E.i.z.l.>X'   x f.j.n.n.n.>X>X:X>X>X>X>X>X>X>X>Xc.-X>X>Xn.k.h.q z n.*Xb l VXVXVXVXVXVXVXVX",
"VXVXVXVXVXVXVXVXVXVX2 % h h : . 0.p.Q.`.(.gXJ.j.] O T *X>X8X8X8X8X7X8X8X8X8X8X8X8X8X8XrX5XrXtXk.i R =Xk.6XeXsXsXv + VXVXVXVXVXVX",
"VXVXVXVXVXVXVXVXVXVX& - q g - o t.R.)./.hXzXJ.'  .VXE g.l.6X8X5X7X7X6X6X8X6X5X5X7X7X5X5X5X2X:X..* x m.m.eXJ.cXgXk < VXVXVXVXVXVX",
"VXVXVXVXVXVXVXVXVXVX$ + % $ > # K.zX`.`._.xXr.# VXVXVX1 z -X:Xn.:X:X:X:X:X:X:X:X:X:X:X:X<X..: 7 O j G.A.V.V.`.gXc @ VXVXVXVXVXVX",
"VXVXVXVXVXVXVXVXVXVXT R ! ! / / d.i.W.hXH.b.x.VXVXVXVXO l *X:X,X,X,X,X,Xm.,X,X,X,X,X<Xl...| VXVXVXb 9.q.A.A.!.^.-.) VXVXVXVXVXVX",
"VXVXVXVXVXVXVXVXVX6 h.f.7XrXtX8XE o b.nX8.. VXVXVXVXVX# x c.>XiXrXiX8XdXrXrXdXrXdX8XdX..O VXVXVXVXVX# p C.A.A.S./.kXm + VXVXVXVX",
"VXVXVXVXVXVXVXVX$ 6 <.j.,X2X2X0XT # Q d.( VXVXVXVXVXVX+ x j.k.<X4X2X4X2X2X2X3X2X4X2X4X' + VXVXVXVXVX$ p p.T.S.D.^.fXd...E VXVXVX",
"VXVXVXVXVXVXVXVX< 6 ,.j.B.n.n.*Xv + $ % VXVXVXVXVXVXVX< l h.f.-Xn.n.c.:X-X:Xn.n.-X-X:X` $ VXVXVXVXVX$ g i.A.A.Z.J.rXiXdX/ + VXVX",
"VXVXVXVXVXVXVXVX+ 6 s.f.2X7X7X9Xv & VXVXVXVXVXVXVXVXVXVXVXT E *X:X4X4X6X4X6X6X6X7X,.T T VXVXVXVXVXY ` ..x.r.r.r.B.l.9X9X! O VXVX",
"VXVXVXVXVXVXVXVXVXu X.s.<X9X9X9XE @ VXVXVXVXVXVXVXVXVXVXVX+ q k.:X8X8X8X8XrX5XrXtX` O VXVXVXVXVX$ l a.s.f.f.s.s.f.z.4XtXQ + VXVX",
"VXVXVXVXVXVXVXVXVXVXY 6 x z z Y VXVXVXVXVXVXVXVXVXVXVXVXVX> 6 h.j.-X>X>X>X>X>X>X<X/ * VXVXVXVXVXVXY D z a.f.f.g.0X7XtXtX/ O VXVX",
"VXVXVXVXVXVXVXVXVXVX> % = % $ $ VXVXVXVXVXVXVXVXVXVXVXVXVX> 6 s.l.-X>X>X>X>X>X-X1X_ * VXVXVXVXVXVXVX4 u ..,.,.,.n.1X1X1X! @ VXVX",
"VXVXVXVXVXVXVXVXVXVX$ ; x e ; % VXVXVXVXVXVXVXVXVXVXVXVXVX$ q l.c.8XtXtXrXrXyXtXtX` @ 4 VXVXVXVXVXVXVXT 7 1 7 - : 6 6 7 Y VXVXVX",
"VXVXVXVXVXVXVXVXVXVXVXVXq q q q VXVXVXVXVXVXVXVXVXVXVXVXVX1 e v.M.v.v.eXyXM.v.yXuX;.r K VXVXVXVXVXVXVXVX1 1 2 + VXVXVXVXVXVXVXVX",
"VXVXVXVXVXVXVXVXVXVXVXVX- = w c ; < VXVXVXVXVXVXVXVXVX+ r r y F.P.t t L.kX*.@.D.kXP.+.y % VXVXVXVXVXVXVXVXVXVXVXVXVXVXVXVXVXVXVX",
"VXVXVXVXVXVXVXVXVXVXVXVXVX% w w q + VXVXVXVXVXVXVXVXY E T 1.:.H.Q.>.*.D.~.>.*.L.vX>.w r % > VXVXVXVXVXVXVXVXVXVXVXVXVXVXVXVXVXVX",
"VXVXVXVXVXVXVXVXVXVXVXVX+ % w w q $ VXVXVXVXVXVXVX$ l g.d.-Xm.kXhXT.S.V.V.V.D.(.vX-.. % < 1 VXVXVXVXVXVXVXVXVXVXVXVXVXVXVXVXVXVX",
"VXVXVXVXVXVXVXVXVXVXVXVX$ = -.u.j $ VXVXVXVXVXVXVX+ b 1X>XyX,X;.-.C.V.R.~.~.).u.) ` _  .g.` - VXVXVXVXVXVXVXVXVXVXVXVXVXVXVXVXVX",
"VXVXVXVXVXVXVXVXVXVXVXVX< = y.H.n # VXVXVXVXVXVXVX* E iX8X8X>X: 8 p.V.(._._.hX(   ^ h.:XiXs.: 7 VXVXVXVXVXVXVXVXVXVXVXVXVXVXVXVX",
"VXVXVXVXVXVXVXVXVXVXVXVX$ X J.gXm O VXVXVXVXVX+ R ..2.1Xk.E Y - 8 i.S.(.zX/.cX)   _ g.k.n.n.s.o.$ VXVXVXVXVXVXVXVXVXVXVXVXVXVXVX",
"VXVXVXVXVXVXVXVXVXVXVXVX- : J.jXm # VXVXVXVXVX& R <.2.*X@X$ * & q i.D.~.(.`.cX( O ! a.f.k.*X=X2.4 D VXVXVXVXVXVXVXVXVXVXVXVXVXVX",
"VXVXVXVXVXVXVXVXVXVXVXVX$ X r.E.M $ VXVXVX4 S F F J I {.|.2 - < 8 i.V.S.S.(.vX) O - 7 D L '.}.}.[.I S VXVXVXVXVXVXVXVXVXVXVXVXVX",
"VXVXVXVXVXVXVXVXVXVXVXVXVXX 0.r.m VXVXVXVX2 3 S C C H '.I , VXVXq t.e.e.e.G.J.Q   # VXS C U '.'.].I G VXVXVXVXVXVXVXVXVXVXVXVXVX",
"VXVXVXVXVXVXVXVXVXVXVXVXVXVX: : VXVXVXVXVX< > 2 2 1 2 2 G VXVXVXVX: - - = : ; $ 1 VXVXVX& & 2 2 > 2 < VXVXVXVXVXVXVXVXVXVXVXVXVX",
"VXVXVXVXVXVXVXVXVXVXVXVXVXVXVXVXVXVXVXVXVXVXVXVXVXVXVXVXVXVXVXVXVXVXVXVXVXVXVXVXVXVXVXVXVXVXVXVXVXVXVXVXVXVXVXVXVXVXVXVXVXVXVXVX",
"VXVXVXVXVXVXVXVXVXVXVXVXVXVXVXVXVXVXVXVXVXVXVXVXVXVXVXVXVXVXVXVXVXVXVXVXVXVXVXVXVXVXVXVXVXVXVXVXVXVXVXVXVXVXVXVXVXVXVXVXVXVXVXVX"
};
