/* XPM */
static char *b1330e4329594c39be53419d2c8ac9918XkgP8mKlyECRuRd[] = {
/* columns rows colors chars-per-pixel */
"64 64 232 2 ",
"   c None",
".  c #2D2D2D",
"X  c #27282A",
"o  c #302F2D",
"O  c #3C2B2E",
"+  c #2E302F",
"@  c #33312D",
"#  c #3B342C",
"$  c #3D392E",
"%  c #2D2E31",
"&  c #272C34",
"*  c #2E3134",
"=  c #2C333B",
"-  c #27303E",
";  c #323232",
":  c #3C3B34",
">  c #3C3D3A",
",  c #363538",
"<  c #302F31",
"1  c #741932",
"2  c #691A31",
"3  c #543B26",
"4  c #5D3F24",
"5  c #413E33",
"6  c #453939",
"7  c #4B3030",
"8  c #702E33",
"9  c #5C4F25",
"0  c #574C25",
"q  c #5E5125",
"w  c #43423C",
"e  c #4A4637",
"r  c #524A38",
"t  c #5A543E",
"y  c #58533A",
"u  c #4B422F",
"i  c #624025",
"p  c #625425",
"a  c #685A29",
"s  c #635B3A",
"d  c #72622C",
"f  c #79672E",
"g  c #6C633D",
"h  c #7A6933",
"j  c #6F612F",
"k  c #1A345C",
"l  c #1A3259",
"z  c #293547",
"x  c #323945",
"c  c #293C55",
"v  c #183562",
"b  c #1B3E71",
"n  c #733345",
"m  c #394248",
"M  c #334458",
"N  c #1E4279",
"B  c #2C4467",
"V  c #324865",
"C  c #314B6D",
"Z  c #4B4B43",
"A  c #464645",
"S  c #514E43",
"D  c #545343",
"F  c #55544A",
"G  c #5A594D",
"H  c #5C5845",
"J  c #4A5356",
"K  c #5C5D51",
"L  c #4C4F4F",
"P  c #625D44",
"I  c #605F51",
"U  c #696346",
"Y  c #746D4A",
"T  c #766D47",
"R  c #636253",
"E  c #6C6B5A",
"W  c #6D6A55",
"Q  c #716E59",
"!  c #7A7458",
"~  c #7B7147",
"^  c #455668",
"/  c #545F68",
"(  c #455B74",
")  c #526371",
"_  c #656B6B",
"`  c #757561",
"'  c #7C7B65",
"]  c #757768",
"[  c #75747C",
"{  c #676D6F",
"}  c #605364",
"|  c #811E35",
" . c #892237",
".. c #99273A",
"X. c #83373E",
"o. c #A02A3B",
"O. c #8D4F3C",
"+. c #836F33",
"@. c #89773B",
"#. c #947338",
"$. c #A9473E",
"%. c #913643",
"&. c #877A46",
"*. c #857C53",
"=. c #B97053",
"-. c #817F68",
";. c #9B6461",
":. c #995F5C",
">. c #C07A59",
",. c #7D8174",
"<. c #97823B",
"1. c #A48C3C",
"2. c #998644",
"3. c #8B8154",
"4. c #998C58",
"5. c #988B57",
"6. c #9B925B",
"7. c #A28D46",
"8. c #AA9447",
"9. c #B59B45",
"0. c #A8995D",
"q. c #BDA246",
"w. c #BDA34A",
"e. c #BAA658",
"r. c #85846B",
"t. c #89876D",
"y. c #87856A",
"u. c #8D8B71",
"i. c #868773",
"p. c #918E73",
"a. c #959376",
"s. c #9C9475",
"d. c #9D9B7B",
"f. c #989677",
"g. c #8F9075",
"h. c #AB9D61",
"j. c #A19F7E",
"k. c #A09575",
"l. c #91AC72",
"z. c #B9A964",
"x. c #A2A07F",
"c. c #AAA478",
"v. c #B0A46A",
"b. c #C88650",
"n. c #CAAD4A",
"m. c #C3A749",
"M. c #CFB14C",
"N. c #D4B44C",
"B. c #D9B64A",
"V. c #DABA4E",
"C. c #D7B84D",
"Z. c #C4AC58",
"A. c #CCB659",
"S. c #DBBC52",
"D. c #D6BA56",
"F. c #C8B669",
"G. c #D7BB65",
"H. c #D0AE6D",
"J. c #D59F69",
"K. c #AECB7D",
"L. c #E1C156",
"P. c #E3C45C",
"I. c #E8C75F",
"U. c #DAC572",
"Y. c #DBC775",
"T. c #D5C46A",
"R. c #E6CA67",
"E. c #EED16C",
"W. c #F1D36D",
"Q. c #EDD67A",
"!. c #EFD97A",
"~. c #E8D174",
"^. c #F3D673",
"/. c #F3DB7B",
"(. c #FBDE7C",
"). c #F6D976",
"_. c #E2CC75",
"`. c #FDE27F",
"'. c #F5E07E",
"]. c #DEC15C",
"[. c #274E86",
"{. c #2A5798",
"}. c #27518D",
"|. c #3A6399",
" X c #265BA8",
".X c #3265AC",
"XX c #537192",
"oX c #7C7C88",
"OX c #637B8E",
"+X c #446DA2",
"@X c #2A6AC9",
"#X c #7C929B",
"$X c #7A878E",
"%X c #7F99AA",
"&X c #57A1AE",
"*X c #45FEF7",
"=X c #5CF2DB",
"-X c #848893",
";X c #98A493",
":X c #A5A381",
">X c #A9A784",
",X c #ABA985",
"<X c #A9A98B",
"1X c #B1AE89",
"2X c #B9A885",
"3X c #B4B18C",
"4X c #BAB68D",
"5X c #BAB790",
"6X c #BDBA92",
"7X c #B0B194",
"8X c #B4AD94",
"9X c #9498AC",
"0X c #ACA9B9",
"qX c #C3BB8A",
"wX c #C1BE94",
"eX c #C5BBB4",
"rX c #93D89B",
"tX c #8FD99E",
"yX c #A6D994",
"uX c #B6ECAB",
"iX c #AAEAAE",
"pX c #C5C295",
"aX c #D3CD87",
"sX c #F2DA82",
"dX c #FEE581",
"fX c #FFE982",
"gX c #D0C4B3",
"hX c #ABAAC4",
"jX c #B8B6D4",
"kX c #B2B1CD",
"lX c #C1BEDD",
"zX c #CAC3C2",
/* pixels */
"                                                                                                                                ",
"                , ,                                                                                                             ",
"                ; ;                                                                                                             ",
"            . D z.h.w ;                                                                                                         ",
"            $ s /._.r :                                                                                                         ",
"        % y 9.Z.(.^.m.9.e ;                                               , ; ; ;                                               ",
"        . y N.L.(.).S.n.u .                                               O O 7 7 6                                             ",
"        X y N.L.(.).S.n.e .                                   ; . . . * ; 2 1  ...7 + . . ;                                     ",
"      D U T 7.w./.^.8.7.T U Z                               A Z Z F F 7 7 2 1 ..o.8 7 r G F                                     ",
"    . Y '.z.@ t !.Y.w 5 T.Q.H .                       @ o . : r.p.3X4X%.1 ............;.pXt.. o o @                             ",
"    . Y `.F.. y !.Y.5 : U./.t .                   , x z z B V OXOX#X#Xn 1 ...... .....;.-XOXC C C V ,                           ",
"    . Y dXF.. y !.Y.: : U./.t .                   o - k b  X X X X X Xn 1 ....| 1  .o.}  X X@X@X@X X* ;                         ",
"      H *.3.6.v./.Q.0.6.3.*.S ;               ; ; . > / { #X#X#X#Xg.i.n 1 |  .1 1  ...;.;X;X%X%X9X$X; *                         ",
"        X P /.`.(.(.`.~.e .                 , @ @ . Z t.f.6XwXwXqXD.N.O.1 1 1 1 1  ...b.`.sXwXwXpXj.; ;                         ",
"          S U &.S.D.T U Z                 ; F Q E Q W g g ~ ! XXOXZ.V.J.J.O.4 i 4 #.b.G.dXF.~ ] &XXX; ;                         ",
"            ; y N.m.e ;                 ; . F i.i.i.! q p a t {.|.e.N.E.!.@.p a a 1.N.R./.e.a K .X{.= ;                         ",
"        . P F.Y.).^.U.F.r ;             ; . x B B B M 9 h T.F.H y j d h h 8.m.D.U.7.d h h 2.U.e.D J }.[.= ;                     ",
"        . H U.Y.aXaXY.F.e .             ; . z B B B M 9 h ^.R.h a a a p q 9.V.E.dX8.9 p a 7.dXF.p D +X|., @                     ",
"        . @ 5 A |.|.A 5 @ .             ; . F i.r.i.! 9 f C.S.n.n.n.m.d 9 9.V.E.dX8.0 #.n.].fXF.9 U 7X:X: .                     ",
"        . . . z }.[.= . ; ;             x - L ] ] *.*.h @.9.q.N.V.L.S.2.@.8.q.A.G.7.f 8.P.].T.e.@.&.c.p.: .                     ",
"            . * v k % o             . @ z v v v m q +.N.q.a d n.S.^.(.(.^.@.9 p q 1.B.I.`.Z.p &./.G.a 9 @ ;                     ",
"            . = N N * @             . . m ^ ^ ^ L 9 +.C.q.p d n.D.uXuXuXuX6.@.<.2.l.yXyXuXl.9 @.E.A.a 0 @ ;                     ",
"            . x  X{.= @             . . R p.u.u.! 9 +.V.q.p d n.A.=X*X*X*XK.B.E.`.iX*X*X*X&Xq +.V.q.a 0 @ ;                     ",
"              x B B z z ,           . . A / / / J m D <.@.p d n.D.rXtXtXrXT.B.E.`.aXtXtXtX,.q d <.&.^ V ; @                     ",
"                o % k k * .         . . z v k v v v c 9 q q d n.N.B.B.B.B.N.N.E.`.R.B.B.B.1.q q q D  X{.= @                     ",
"                o = [.[.= .         . . L _ _ _ _ _ _ ! Y 5 r p.s.s.s.s.s.8XeXgXgX8Xs.s.k.! $ r ! r.;X$X, ;                     ",
"                o = {.{.x .         . . K u.t.u.t.t.t.u.` ; > [ oXoXoXoX-X0XjXjXkX9XoXoXoX/ . Z y.a.5X>X> *                     ",
"                . ; r r ; .         . . x V V V M w w w > . ; A L [ -X0XhX{ L L L -XkXoX6 x l c V C +X+X}.[.x ;                 ",
"                o @ 4 4 @ .         . . z k k k z 5 5 5 5 w 5 . , [ -XhXjX_ , > > -XlXoX. - k k k b {..X.X|.= @                 ",
"                o @ 4 4 @ .         . . % & & & s m.m.m.m.m.8.: ; [ -XkXjXkXhXhXhXkXlXoXX . & & & m ,.g.7X<Xw .                 ",
"                . @ 4 4 @ .         . . 5 r r r &.L.L.L.L.L.A.U P { [ 9X9X0XeXeXzX0X9X[ t t t t t P ` ' d.f.w %                 ",
"                . @ 4 4 @ .         . . @.N.M.N.L.(.(.(.(.(.(./.U.e % ; , 8.S.E.dX3.% 3.!.Q.Q.Q./.F., + ; ,                     ",
"                . @ 4 4 @ .           . @.V.w.2.Z.(.(.(.(.(.(.`.Q.*.U : . 7.V.E.`.*.X 3.`.`.`.`.`.Y.~ Y Y U A                   ",
"                . @ 4 4 @ .         . . @.V.@.X ~ `.dX`.`.`.`.`.`.`.Q.t . 8.V.W.dX*.X 3.dX`.`.`.`.`.`.`.`._.e %                 ",
"                . @ 4 4 @ .             g @.T G W 4.4.4.4.4.4.5.0.Q./.t . U ! g.;XR X P 4.4.4.4.4.4.5.0.R.G.e .                 ",
"                . @ 4 4 @ .             ; X G p.E . . . . . . X : U.!.t . l v }. XB . . . . . . . . . e n.m.e .                 ",
"                . @ 4 4 @ .           % K ` u.,Xf.` ' y.y.y.y.t.y.! Y : . = z c B x . G t.y.y.y.t.Q ; # s g w                   ",
"                . @ 4 4 @ .         ; @ Q >X1XwX3Xj.,XwXwXwXwXpX3Xw . ; ; @ @ @ @ @ . Q pXwXwXwXpXj.; . . ;                     ",
"                    # # 3 3 # ; % < @.8.6.u.d.,Xt.Z R f.d.>X>X>X:Xt.r.r.r.r.r.r.r.r.r.a.>X>X>X>X,Xu.; : ' ' > ;                 ",
"                    . @ 4 i # . # $ 7.L.z.p.f.x.` X w t.p.:X:X:X:X>X>X>X>X>X>X>X>X>X>X:X:X:X:Xj.f.r.: Z d.d.r 5                 ",
"                    + @ 4 i # o 2.w.R.).!.Q.F.p.E X Z d.>X4X5X5X5X5X5X5X5X5X5X5X5X5X5X5X5X6XwXf.w D u.f.3X6XY.F.D %             ",
"                    + @ 3 3 @ @ 8.L.W.`.`.`.F.-.R . Z u.f.4X5X5X5X5X5X5X5X5X5X5X5X5X5X5X5X1X>Xr.. e c.c.qXpXdX/.y .             ",
"                    . . . . . . z.`.(.(.`.dXz.        ; Z d.:X:X:X:X:X:X:X:X:X:X:X:X:X:X>X' : ; . r M.C.D.D.(.Q.y .             ",
"                  > Z Z F G G G 6.z._.`.U.F.6.        . e d.:X>X,X,X,X,X,X,X,X,X,X,X,Xf.-.R ; ; ; r 7.8.N.S.E.R.*.U S           ",
"                . > -.u.3X6X6X6XG . h.fX5.;           . Z d.>X6X6X6X6X6X6X6X6X6X6X6XwX' . ,         @ e n.V.N.S.^.!.P .         ",
"                . : -.u.,X3X3X1XF X ~ h.!             . Z a.d.1X3X3X3X3X3X3X3X3X3X3X3X` . ;         . u n.V.N.C.Y.aXy.E F ,     ",
"                . > -.u.d.x.x.j.S . . .               . w t.p.j.j.j.j.j.j.j.j.j.j.x.>XE . ;         . u n.V.V.C.qX6XwXwXR .     ",
"                . > -.u.,X3X3X1XF . ;                   w F R d.:X1X3X3X3X3X3X3X3Xr.I F         ; A R W 0.h.h.h.j.:X3XwXR .     ",
"                . : -.u.3X6X6X6XG .                       . > f.>X5X6X6X6X6X6X6XwXE X ;         . w t.u.u.u.t.t.t.u.1XwXR .     ",
"                    Z Z F G G G Z                         . > t.a.>X,X,X,X,X,X,X,XR . ;         . w y.u.u.r.F Z ' u.1XwXR .     ",
"                    . . . . . .                           . : r.u.j.:X:X:X:X:X:X:XR . ;         . w r.y.y.' : ; ' p.,X3XR .     ",
"                    . o 3 3 @ .                           . > a.j.3X5X5X5X5X5X5X5XE . ;             w w w > @ , d.3XR Z A       ",
"                    . @ 3 4 # @                           O 6 s.c.2X2XqXpX2X2XqXpX! O O             . . . . . ; a.,XF X         ",
"                        ; @ 3 4 # .                   . O 2 8 m.n.X.X.G.sX=.%.J.dX>...8 . ;                 . @ : >             ",
"                        ; o 3 i # .                 A A r n O.D.D.O.O.G.^.=.$.J.dX=.8 7 . ;                 ; . . .             ",
"                        @ o 3 4 # .               . Z y.u.d.c./.(.S.N.N.C.N.N.E.dX*.. . . %                                     ",
"                        ; @ f #.u .               . Z d.x.,X,Xh.h.M.V.L.P.P.R.z.0.! D G R G                                     ",
"                        ; @ 9.C.s .               X F 6XwXpX,X: $ q.V.^.`.`.(.Y X R u.:XpXt.. .                                 ",
"                        ; ; e.R.s .           ; Z K ` 1X:X` W ; : q.V.^.`.(.`.Y X R u.d.3Xa.E K ,                               ",
"                        . $ F.`.U .         , . D u.a.x.t.; . . 5 q.V.^.`.(.`.Y X R u.a.j.x.>Xr.; ;                             ",
"                        % @ e.P.s .       ; x z c ^ ( XXXX; . . 5 q.V.L.P.).`.Y . w Z J ^ ) XXXX[.C ; ;                         ",
"                        ; # 8.M.s .     ; . z v v k b  X}.* . . : 9.N.M.M.R.!.Y . . . z k N  X X X}.* ;                         ",
"                            r r e       ; . * = = = - x x         r r r r y t : . ;   = = = x x x x . ;                         ",
"                            % .         ; . . . . . . . @         % . . . . . . .     , . . . . . . . ;                         "
};
