/* XPM */
static char *xpm_[] = {
/* columns rows colors chars-per-pixel */
"64 64 247 2 ",
"   c #2D2B1A",
".  c #322D1E",
"X  c #352B16",
"o  c #3A331B",
"O  c #352B0F",
"+  c #2D2C23",
"@  c #2D2D2C",
"#  c #262E2C",
"$  c #322D24",
"%  c #322D2B",
"&  c #3A2C2A",
"*  c #2C312D",
"=  c #2C3128",
"-  c #333124",
";  c #3C3523",
":  c #33312B",
">  c #3B362B",
",  c #2D2E34",
"<  c #2C2E3A",
"1  c #252C31",
"2  c #312D32",
"3  c #3C2631",
"4  c #2A3135",
"5  c #26323C",
"6  c #2B323B",
"7  c #263235",
"8  c #343333",
"9  c #393836",
"0  c #43391C",
"q  c #741A2F",
"w  c #472A2B",
"e  c #453A28",
"r  c #533E29",
"t  c #533E27",
"y  c #472B34",
"u  c #433B33",
"i  c #553A36",
"p  c #532231",
"a  c #672829",
"s  c #772E33",
"d  c #602315",
"f  c #5A4B1D",
"g  c #634C1A",
"h  c #64541A",
"j  c #494129",
"k  c #5D4226",
"l  c #564828",
"z  c #5A5227",
"x  c #484638",
"c  c #554833",
"v  c #595539",
"b  c #644A25",
"n  c #645527",
"m  c #685C37",
"M  c #6C612C",
"N  c #786529",
"B  c #776939",
"V  c #6D623C",
"C  c #5E603E",
"Z  c #1C3655",
"A  c #1F364E",
"S  c #243344",
"D  c #24334B",
"F  c #2A3749",
"G  c #253C55",
"H  c #2B3C53",
"J  c #243958",
"K  c #323A4A",
"L  c #1E3965",
"P  c #3B4958",
"I  c #2E4156",
"U  c #29476B",
"Y  c #384B66",
"T  c #2C4974",
"R  c #365278",
"E  c #484845",
"W  c #575647",
"Q  c #575A5A",
"!  c #4B504C",
"~  c #625C48",
"^  c #6D5150",
"/  c #5C635A",
"(  c #69654B",
")  c #646352",
"_  c #696959",
"`  c #73735C",
"'  c #7B7759",
"]  c #776F4C",
"[  c #555B65",
"{  c #45587A",
"}  c #425760",
"|  c #55666F",
" . c #666C6C",
".. c #747363",
"X. c #797866",
"o. c #6D6A75",
"O. c #6A7575",
"+. c #757B75",
"@. c #6F7268",
"#. c #6E4363",
"$. c #5C3450",
"%. c #892338",
"&. c #97283A",
"*. c #863429",
"=. c #871F36",
"-. c #857537",
";. c #907233",
":. c #965C2D",
">. c #922E44",
",. c #887A49",
"<. c #857A57",
"1. c #8C6D4B",
"2. c #A7794A",
"3. c #857E71",
"4. c #A9766D",
"5. c #825664",
"6. c #7B827C",
"7. c #7B8177",
"8. c #72A676",
"9. c #9A873C",
"0. c #A38C3D",
"q. c #9A8749",
"w. c #8A8358",
"e. c #968755",
"r. c #938F50",
"t. c #A28D49",
"y. c #AA9548",
"u. c #B59C4A",
"i. c #A79758",
"p. c #B09154",
"a. c #B7A44C",
"s. c #BBA75A",
"d. c #ABA05B",
"f. c #83826C",
"g. c #8D896D",
"h. c #898467",
"j. c #978A69",
"k. c #8C8B73",
"l. c #878878",
"z. c #9C9C7C",
"x. c #979479",
"c. c #949070",
"v. c #AB9D6B",
"b. c #A89A64",
"n. c #A39E7B",
"m. c #B2946C",
"M. c #ACA169",
"N. c #B6A567",
"B. c #A5A27D",
"V. c #ABA37A",
"C. c #B9AB75",
"Z. c #9EA867",
"A. c #D7BA4D",
"S. c #C4AB57",
"D. c #C9B75A",
"F. c #D4BB54",
"G. c #D3BA5B",
"H. c #D7B857",
"J. c #D9AA5E",
"K. c #C99766",
"L. c #C2AD6C",
"P. c #C9B868",
"I. c #D4BA66",
"U. c #C8B977",
"Y. c #D2BE78",
"T. c #D4AD64",
"R. c #CA9251",
"E. c #B1CA7D",
"W. c #D3C157",
"Q. c #E1C65F",
"!. c #C2C169",
"~. c #DAC368",
"^. c #D6C478",
"/. c #D3C572",
"(. c #E9CA67",
"). c #EED36B",
"_. c #F1D26C",
"`. c #E7CC73",
"'. c #EBD577",
"]. c #F7DB78",
"[. c #FDE27C",
"{. c #FFE377",
"}. c #385788",
"|. c #355E95",
" X c #2D5184",
".X c #396296",
"XX c #36618A",
"oX c #3C70AF",
"OX c #445A85",
"+X c #4E6D93",
"@X c #7A7888",
"#X c #6A7E91",
"$X c #496AAE",
"%X c #827E86",
"&X c #7A878D",
"*X c #6AAF88",
"=X c #7EE7BA",
"-X c #77F1D3",
";X c #858D88",
":X c #9C9D85",
">X c #858593",
",X c #8B9492",
"<X c #A49F82",
"1X c #A6A282",
"2X c #ADA986",
"3X c #A8A688",
"4X c #B1AD8A",
"5X c #B6AC83",
"6X c #B7B48B",
"7X c #ACAE97",
"8X c #BAB692",
"9X c #BCBA93",
"0X c #BAB897",
"qX c #ADAE93",
"wX c #9C9AA7",
"eX c #9DADA9",
"rX c #99AEB0",
"tX c #AAA6B9",
"yX c #ACB0AC",
"uX c #9BAD9C",
"iX c #C7B787",
"pX c #C1BD97",
"aX c #C1BE9A",
"sX c #D0BC81",
"dX c #C5BEAC",
"fX c #ABCC8F",
"gX c #85E6B6",
"hX c #AEDAA2",
"jX c #D7C586",
"kX c #D3D18C",
"lX c #E8D587",
"zX c #F6DB86",
"xX c #E8DB93",
"cX c #EFD48D",
"vX c #FDE384",
"bX c #FDE38B",
"nX c #F6E588",
"mX c #FDE493",
"MX c #F6E495",
"NX c #EFE198",
"BX c #C5C2A3",
"VX c #D6CAB0",
"CX c #D6EDA0",
"ZX c #D5EE9C",
"AX c #B7B5CB",
"SX c #C2BFD5",
"DX c None",
/* pixels */
"DXDXDXDXDXDXDXDXDXDXDXDXDXDXDXDXDXDXDXDXDXDXDXDXDXDXDXDXDXDXDXDXDXDXDXDXDXDXDXDXDXDXDXDXDXDXDXDXDXDXDXDXDXDXDXDXDXDXDXDXDXDXDXDX",
"DXDXDXDXDXDXDXDXDX8 DXDXDXDXDXDXDXDXDXDXDXDXDXDXDXDXDXDXDXDXDXDXDXDXDXDXDXDXDXDXDXDXDXDXDXDXDXDXDXDXDXDXDXDXDXDXDXDXDXDXDXDXDXDX",
"DXDXDXDXDXDXDXDXDXu u DXDXDXDXDXDXDXDXDXDXDXDXDXDXDXDXDXDXDXDXDXDXDXDXDXDXDXDXDXDXDXDXDXDXDXDXDXDXDXDXDXDXDXDXDXDXDXDXDXDXDXDXDX",
"DXDXDXDXDXDXDX  ( jXV.X DXDXDXDXDXDXDXDXDXDXDXDXDXDXDXDXDXDXDXDXDXDXDXDXDXDX2 2 DXDXDXDXDXDXDXDXDXDXDXDXDXDXDXDXDXDXDXDXDXDXDXDX",
"DXDXDXDXDXDXDXl ,.bXP.z c DXDXDXDXDXDXDXDXDXDXDXDXDXDXDXDXDXDXDXDXDXDXDXDXy w w u DXDXDXDXDXDXDXDXDXDXDXDXDXDXDXDXDXDXDXDXDXDXDX",
"DXDXDXDXDX+ V L.~.vX_.P.i.- DXDXDXDXDXDXDXDXDXDXDXDXDXDXDXDXDXDX2 # # @ 3 p q s >.a w % @ DXDXDXDXDXDXDXDXDXDXDXDXDXDXDXDXDXDXDX",
"DXDXDXDXDX+ M G.Q.]._.H.y.o 8 DXDXDXDXDXDXDXDXDXDXDXDXDXDXDXDX! W ) ) i p q =.&.&.s p ^ _ Q DXDXDXDXDXDXDXDXDXDXDXDXDXDXDXDXDXDX",
"DXDXDXDXDX  M I.(.]._.F.i.o % DXDXDXDXDXDXDXDXDXDXDXDX6 6 4 * @.;X7XdX5.a %.&.>.&.&.&.4.BX+.1 S 6 6 DXDXDXDXDXDXDXDXDXDXDXDXDXDX",
"DXDXDXDX<.V.e.M t.bXY.N ,.b.j.; DXDXDXDXDXDXDXDXDXDX5 S D U T OX+X#X#X#.q =.&.&.=.&.>.5.&X+XR  X XY F DXDXDXDXDXDXDXDXDXDXDXDXDX",
"DXDXDX$ ,.MXM.O B MXL.X n MXsX; @ DXDXDXDXDXDXDXDX8 6 F I }..X.X|.OXOX$.q &.>.%.q =.>.#.OXoXoXoX$X{ , DXDXDXDXDXDXDXDXDXDXDXDXDX",
"DXDXDX$ ,.mXN.X V mXL.O m MXY.; , DXDXDXDXDXDXDX* 4 7  .7.,XeXeXuX3XV.>.a q =.q q &.&.4.BX0XeXrXtX6., DXDXDXDXDXDXDXDXDXDXDXDXDX",
"DXDXDXDXw.jXb.j ,.zXP.z B jXC.> DXDXDXDXDXDXDXu x > j ` h.3XqX7X7XU.~.;.*.s a a q *.&.R.bXjX5X7XeX&X* DXDXDXDXDXDXDXDXDXDXDXDXDX",
"DXDXDXDXDXe ] xXzXvXvXcX5Xe i DXDXDXDXDXDX, 8 +.l.f.f.( n n W { | z.W.`.zX2.g b b 2.H.(.bXN.z | +X{ 7 DXDXDXDXDXDXDXDXDXDXDXDXDX",
"DXDXDXDXDXDX,.N.P.'.~.C.iXDXDXDXDXDXDXDXDX, 8  . . . .v n -.w./ Y w.y.s.P.9.;.-.9.0.0.s.P.u.q.' { R I I DXDXDXDXDXDXDXDXDXDXDXDX",
"DXDXDXDXDXDXDXX n G.t.X DXDXDXDXDXDXDXDXDX* 5 S Z Z S v n ~.MX-.z h h h g 0.W.`.bXy.g h g t.bXN.z Y }.R 5 DXDXDXDXDXDXDXDXDXDXDX",
"DXDXDXDXDXDX( j.s.`.I.i.j.DXDXDXDXDXDXDXDX, 9 [ [ | / v n S.(.0.0.0.q.N g y.F.).vXi.f B t.S.vXs.h / ,XO.* DXDXDXDXDXDXDXDXDXDXDX",
"DXDXDXDXDX% ] xXnXxXNXMXC.o @ DXDXDXDXDXDX, 9 +.l.k.g.m h a.A.A.W.W.W.9.h y.F.(.nXy.h 9.F.(.bXs.z ,.BX;X: DXDXDXDXDXDXDXDXDXDXDX",
"DXDXDXDXDX% e ~ / #XO.C v 8 6 DXDXDXDXDX5 S D Y P ~ V y.a.;.;.S.A.Q.'.~./.9.N -.-.9.u.F.'.S.;.0./.d.] m * DXDXDXDXDXDXDXDXDXDXDX",
"DXDXDXDXDXDX% % H }.T 7 % < DXDXDXDXDX* 4 K H I I z h a.D.N h u.A.'.ZXZXZXr.h N N r.E.kXZXZ.f 9.nXS.h l : DXDXDXDXDXDXDXDXDXDXDX",
"DXDXDXDXDXDXDX, S L Z 7 % DXDXDXDXDXDX@ 9 +.&X6.7.m h S.G.N n u.W.gX-X-X=XfXs.~.'.hX-X-X-X*Xz 9.~.y.n j - DXDXDXDXDXDXDXDXDXDXDX",
"DXDXDXDXDXDXDX2 H L I 5 , DXDXDXDXDXDX4 9  .O.O.O.! x e.u.N h u.W.fX=X=XgXE.F.(.[.hXgXgXgX8.z B u.w.Q P = DXDXDXDXDXDXDXDXDXDXDX",
"DXDXDXDXDXDXDX, J }.T S , DXDXDXDXDXDX6 5 S A Z Z Z S v z h n u.D.!.!.!.P.G.F.`.nX/.!.!.!.q.f n z ! R R 7 DXDXDXDXDXDXDXDXDXDXDX",
"DXDXDXDXDXDXDXDXH Y J D F 2 DXDXDXDXDX: 6 Q [ [ [ / / ( ] l e h.b.v.M.b.m.5XiXBXxXiXM.N.v.<.j v ] 7.&XO.7 DXDXDXDXDXDXDXDXDXDXDX",
"DXDXDXDXDXDXDXDXDX, S L D , % DXDXDXDX: 9 7.l.;X;Xk.l.k.f.P 2  .l.@Xl.6.3.tXSXAXAXwX&X6.3.Q , ! k.:XyX,X4 5 DXDXDXDXDXDXDXDXDXDX",
"DXDXDXDXDXDXDXDXDX, F  XT < , DXDXDXDX8 6 P P Y Y Y Y Y P G D P E o.@XwXtX@X[ [ [ %XAX@XK K D H Y R #X+XR Y 7 DXDXDXDXDXDXDXDXDX",
"DXDXDXDXDXDXDXDXDX@ I }.R < @ DXDXDXDX< 5 F I G I G I I G G H 6 1  .@XAXAXo.K 9 < @XSX@X1 F I J I U XX.X+XR 7 * DXDXDXDXDXDXDXDX",
"DXDXDXDXDXDXDXDXDX@ > E E % DXDXDXDXDX@ 9 +.6.6.7.7.7.7.6.6.+.E @  .%XAXSXAXtXtXAXAXSX@X% ! %X+.7.6.&X;XtX;X8 * DXDXDXDXDXDXDXDX",
"DXDXDXDXDXDXDXDXDX* w b t : DXDXDXDXDX% 9  .O.+.+...X...X.X.@.x % Q o.>XwXyXdXdXdXyXwX .@ E +.O.+.+...7.:Xl.: DXDXDXDXDXDXDXDXDX",
"DXDXDXDXDXDXDXDXDX4 w k t $ DXDXDXDXDXDX6 D J Z A 4 = = - - - - + - = 6 3 ,.I.lXMXh.: @ # 5 J J Z S 4 : > 8 DXDXDXDXDXDXDXDXDXDX",
"DXDXDXDXDXDXDXDXDX% e r r % DXDXDXDXDXDXDXS S S 5 ( B B B B B B B B B j X 2.H.(.bXe.. c ] v 5 D S S DXDXDXDXDXDXDXDXDXDXDXDXDXDX",
"DXDXDXDXDXDXDXDXDX, e b r % 2 DXDXDXDXDXDX+ $ $ 0 s.W.F.G.F.G.G.H.H.I.M   r.P.`.MXw.  B I.,.. $ - DXDXDXDXDXDXDXDXDXDXDXDXDXDXDX",
"DXDXDXDXDXDXDXDXDX@ ; r r % 8 DXDXDXDXDXDXm.e.q.t.~.)._._._._._._.Q.D.M + ! / O.;X} + q.'.I.N.M.N.j.DXDXDXDXDXDXDXDXDXDXDXDXDXDX",
"DXDXDXDXDXDXDXDXDX@ w b r & DXDXDXDXDX@ j L.W.D.I.zX[.].].[.[.zX].(.I.B o 6 G T }.P o e.bXvXzXbXbXC.e e e j DXDXDXDXDXDXDXDXDXDX",
"DXDXDXDXDXDXDXDXDX@ e r r % DXDXDXDXDX$ j s.D.h f ^.[.[.vX[.[.vX{.].'.`.^.( 1 S 7 7.jX'.vX[.{.{.[.'.^.^.^.M.: DXDXDXDXDXDXDXDXDX",
"DXDXDXDXDXDXDXDXDX@ e r r % DXDXDXDXDXDXf i.i.c c C.^.^.Y.Y./.Y.Y._.[.vXbXe.z c c d.zXlXY./.Y./.Y.Y.jX`.].N.; 4 DXDXDXDXDXDXDXDX",
"DXDXDXDXDXDXDXDXDX@ ; c k $ DXDXDXDXDXDXDXo e X.X.x ; ; ; ; o w 0 L.mXbXbXzXzXzXzXbXmXi.O ; ; ; o ; 0 m ~.i.. 8 DXDXDXDXDXDXDXDX",
"DXDXDXDXDXDXDXDXDXDXDXi e e y DXDXDXDXDXDX_ Q x.z.) W ) ) ( ( _ ( e.M.b.M.d.M.d.b.b.M.w.( ( ) ) ) W @ c e.,.> DXDXDXDXDXDXDXDXDX",
"DXDXDXDXDXDXDXDXDXDXDX$ w c j : 8 DXDXDXe z.3X9X9X2X3X9X9XBXfXaXBXW   .     . . . . X ` BXpXaXfXBXl.* * . . DXDXDXDXDXDXDXDXDXDX",
"DXDXDXDXDXDXDXDXDXDXDX= o k r - , 8 x e.,.c.z.3X3X_ ) x.1X2X4X4X4Xf.` ` ..........` ` c.qX4X4X4X4Xf.+ x ` @.DXDXDXDXDXDXDXDXDXDX",
"DXDXDXDXDXDXDXDXDXDXDX* > k i $ % o f L.P.b.j.n.z.u - X.g.z.B.B.B.B.1X1X3X3X1XB.1X1X1X1X<Xn.1X<X:XX.- W 1Xf.o ; DXDXDXDXDXDXDXDX",
"DXDXDXDXDXDXDXDXDXDXDX, % ; $ # j i.a.`.zXlXjXb.k.u - k.1X4X9X6X9X9X8X8X6X9X9X6X9X8X8X8X9X9X9Xk.j Q l.n.8XpXU.v.> DXDXDXDXDXDXDX",
"DXDXDXDXDXDXDXDXDXDXDXu u x x x v b.S.].].[.zXh.+.x > l.x.qX9X9X9X9X9X8X9X9X9X9X9X9X9X9X9X4X3XX.+ m V.C.sX^.MXU.; 4 DXDXDXDXDXDX",
"DXDXDXDXDXDXDXDXDX@ E f.k.qX8X8XB.j n lX[.vXlXc 9 DXDXDX> k.1XB.1X1XB.B.n.1X1X<X1XB.B.1X4XX.> 8 @ m P.G.F.~.vXU.o % DXDXDXDXDXDX",
"DXDXDXDXDXDXDXDXDX8 x l.x.8X6X8Xz.: l lX[.N.V.DXDXDXDXDX: k.1X3X2X2X2X2X4X2X2X2X2X2X2Xx.X._ DXDXDXm q.u.A.W.).I.B ( DXDXDXDXDXDX",
"DXDXDXDXDXDXDXDXDX, x l.c.n.<Xn.k.: j xXkXl & DXDXDXDXDX: l.3X8XaXaX9XaXpXpXpXpXpXBXBXX.. DXDXDXDXDX. m !.W.A.~.MXjX; DXDXDXDXDX",
"DXDXDXDXDXDXDXDXDX% x k.c.6X6X8X:X9 e ,.w.DXDXDXDXDXDXDXDX) ) c.1X2X4X4X4X4X4X4X4Xg.` ) DXDXDXDXDXDX@ v M.d.d.N.C.V.<...DXDXDXDX",
"DXDXDXDXDXDXDXDXDX% x l.x.0X9XfX3X9 $ + DXDXDXDXDXDXDXDXDX@ + ` g.n.B.B.B.B.B.n.1X) + DXDXDXDXDXDXDX% x g.g.g.g.g.c.aX7X9 2 DXDX",
"DXDXDXDXDXDXDXDXDXDXDXE E W W W E = % DXDXDXDXDXDXDXDXDXDX, : 3.z.4X8X8X8X8X8X8X9X` # DXDXDXDXDXDXW ..X.k.k.k.c.4X6XaX3X> 2 DXDX",
"DXDXDXDXDXDXDXDXDXDXDX% % % $ % @ * DXDXDXDXDXDXDXDXDXDXDX< % f.<X6X9X6XiXpXpXaX9X` @ DXDXDXDXDX, ! 3.f.k.k.g.x.pXpX4X:X9 DXDXDX",
"DXDXDXDXDXDXDXDXDXDXDX: & c e $ % DXDXDXDXDXDXDXDXDXDXDXDX2 : ..c.B.V.B.<X1X1X3X3X) + DXDXDXDXDXDXDX8 W l.k.k.n.aX1Xx x DXDXDXDX",
"DXDXDXDXDXDXDXDXDXDXDXDX& r r e y DXDXDXDXDXDXDXDXDXDXDXDXy p <.b.j.4.V.iXm.4.m.iX1.w y DXDXDXDXDXDXDXE ....` X.x.;X9 DXDXDXDXDX",
"DXDXDXDXDXDXDXDXDXDXDXDXDX$ w c x & 2 DXDXDXDXDXDXDXDX@ 3 p a p.T.:.q K.cX2.*.R.zXm.>.i & DXDXDXDXDXDXDX2 : : : & DXDXDXDXDXDXDX",
"DXDXDXDXDXDXDXDXDXDXDXDXDX* ; r r $ 2 DXDXDXDXDXDXDXDXW ^ _ 1.T.(.p.:.J.(.R.2.J.zX4.a i $ DXDXDXDXDXDXDXDXDXDXDXDXDXDXDXDXDXDXDX",
"DXDXDXDXDXDXDXDXDXDXDXDXDX4 w g f $ 2 DXDXDXDXDXDX4 8 ..k.<Xn.lXcX(.H.A.A.A.A._.mX<.. $ & 3 DXDXDXDXDXDXDXDXDXDXDXDXDXDXDXDXDXDX",
"DXDXDXDXDXDXDXDXDXDXDXDXDX@ j t.,.e 2 DXDXDXDXDXDX2 8 :X4X6X6X<.B u.A.(.'._.).p.( ] ` 3.:X..@ DXDXDXDXDXDXDXDXDXDXDXDXDXDXDXDXDX",
"DXDXDXDXDXDXDXDXDXDXDXDXDX& z I.s.e % DXDXDXDXDXDX9 u 1XpX6X7XW O t.H.(.vX].nX1.  ) k.<XfXf.> 9 DXDXDXDXDXDXDXDXDXDXDXDXDXDXDXDX",
"DXDXDXDXDXDXDXDXDXDXDXDXDX% b lX^.o : DXDXDXDX4 * @.X.<X1XW x 8 . t.A._.{.[.bX,.  / k.z.B.z.;X..@ DXDXDXDXDXDXDXDXDXDXDXDXDXDXDX",
"DXDXDXDXDXDXDXDXDXDXDXDXDX@ z lXP.0 - DXDXDXDX6 5  .@X;X;XE # @ . t.H.(._.{.nX,.+ W X.+.6.;X,XO.H K DXDXDXDXDXDXDXDXDXDXDXDXDXDX",
"DXDXDXDXDXDXDXDXDXDXDXDXDX* l U.N.o % DXDX4 6 D G G L }.OXH 7 * o t.I.W.W.'.mXw.. % 8 F I T .X.X|.Y < DXDXDXDXDXDXDXDXDXDXDXDXDX",
"DXDXDXDXDXDXDXDXDXDXDXDXDXDXc ,.<.; DXDXDX4 4 5 S D Z U Y H DXDXDX,.w.-.,.e.b.m % DXDXDXG G T U U K , DXDXDXDXDXDXDXDXDXDXDXDXDX",
"DXDXDXDXDXDXDXDXDXDXDXDXDXDXDX. DXDXDXDXDX, , , 4 , 4 5 < DXDXDXDXDX$ $ o $ $ $ 4 DXDXDX< , < 4 4 4 6 DXDXDXDXDXDXDXDXDXDXDXDXDX",
"DXDXDXDXDXDXDXDXDXDXDXDXDXDXDXDXDXDXDXDXDXDXDXDXDXDXDXDXDXDXDXDXDXDXDXDXDXDXDXDXDXDXDXDXDXDXDXDXDXDXDXDXDXDXDXDXDXDXDXDXDXDXDXDX",
"DXDXDXDXDXDXDXDXDXDXDXDXDXDXDXDXDXDXDXDXDXDXDXDXDXDXDXDXDXDXDXDXDXDXDXDXDXDXDXDXDXDXDXDXDXDXDXDXDXDXDXDXDXDXDXDXDXDXDXDXDXDXDXDX",
"DXDXDXDXDXDXDXDXDXDXDXDXDXDXDXDXDXDXDXDXDXDXDXDXDXDXDXDXDXDXDXDXDXDXDXDXDXDXDXDXDXDXDXDXDXDXDXDXDXDXDXDXDXDXDXDXDXDXDXDXDXDXDXDX"
};
