/* XPM */
static char *_6e38c5690f54f64d0ccf7008ddd6019mse4UzN0CmPlRSho[] = {
/* columns rows colors chars-per-pixel */
"64 64 241 2 ",
"   c None",
".  c #302C1E",
"X  c #2C2C24",
"o  c #2D2D2C",
"O  c #282828",
"+  c #322C26",
"@  c #322D2B",
"#  c #382A29",
"$  c #2C302B",
"%  c #2A3026",
"&  c #343225",
"*  c #34332B",
"=  c #3A362A",
"-  c #2E2D32",
";  c #282E37",
":  c #322C32",
">  c #382D37",
",  c #2C3133",
"<  c #2B333B",
"1  c #25323B",
"2  c #333433",
"3  c #3B3C34",
"4  c #373938",
"5  c #741C2D",
"6  c #751933",
"7  c #6E172E",
"8  c #45392B",
"9  c #4C3929",
"0  c #483827",
"q  c #423E37",
"w  c #522B30",
"e  c #6C2834",
"r  c #722E33",
"t  c #4A391F",
"y  c #3D4135",
"u  c #5E501E",
"i  c #64491F",
"p  c #4A442D",
"a  c #5A492A",
"s  c #5B5428",
"d  c #44443B",
"f  c #484636",
"g  c #564C36",
"h  c #5A5538",
"j  c #4D5133",
"k  c #624226",
"l  c #614B27",
"z  c #625324",
"x  c #685927",
"c  c #635B34",
"v  c #655A37",
"b  c #725E23",
"n  c #77652B",
"m  c #6B643B",
"M  c #766939",
"N  c #7F743B",
"B  c #1B335C",
"V  c #193558",
"C  c #1C3254",
"Z  c #283547",
"A  c #373E47",
"S  c #273955",
"D  c #292E40",
"F  c #1C3768",
"G  c #4A3C49",
"H  c #703E5E",
"J  c #28415B",
"K  c #35455A",
"L  c #384547",
"P  c #1C4275",
"I  c #274366",
"U  c #2B4B76",
"Y  c #394F6B",
"T  c #4A4946",
"R  c #4F5244",
"E  c #5C5B4D",
"W  c #565447",
"Q  c #565758",
"!  c #4D5453",
"~  c #635C49",
"^  c #6D4A44",
"/  c #6A6347",
"(  c #776A46",
")  c #7D7347",
"_  c #666556",
"`  c #79745C",
"'  c #776E51",
"]  c #455566",
"[  c #525E69",
"{  c #535D64",
"}  c #455776",
"|  c #54636E",
" . c #656E6B",
".. c #65646A",
"X. c #6A746B",
"o. c #747263",
"O. c #7B7A64",
"+. c #7A7968",
"@. c #707171",
"#. c #60605B",
"$. c #831D36",
"%. c #892537",
"&. c #9D2A3A",
"*. c #95253A",
"=. c #8F3936",
"-. c #A0283D",
";. c #897638",
":. c #8E7634",
">. c #A05039",
",. c #91574D",
"<. c #A65C58",
"1. c #867848",
"2. c #847954",
"3. c #957E43",
"4. c #B37444",
"5. c #837D69",
"6. c #837F7E",
"7. c #824261",
"8. c #7C8570",
"9. c #98863B",
"0. c #AA953E",
"q. c #998849",
"w. c #948553",
"e. c #998B57",
"r. c #928754",
"t. c #A28C49",
"y. c #AF9B4B",
"u. c #A69248",
"i. c #B49C47",
"p. c #A49555",
"a. c #B29C56",
"s. c #B6875A",
"d. c #BAA44C",
"f. c #BAA65A",
"g. c #A6A957",
"h. c #84846C",
"j. c #8B8B6E",
"k. c #898669",
"l. c #948C6A",
"z. c #8C8B73",
"x. c #8C8D7A",
"c. c #868575",
"v. c #9C9A7B",
"b. c #969477",
"n. c #919071",
"m. c #A89B62",
"M. c #A29D7D",
"N. c #A49877",
"B. c #B89C68",
"V. c #B1A162",
"C. c #B8A767",
"Z. c #A4A17E",
"A. c #ACA57A",
"S. c #B7AB71",
"D. c #C79155",
"F. c #C5A84C",
"G. c #DABA4D",
"H. c #D4B94C",
"J. c #C3AB5C",
"K. c #C7AB56",
"L. c #CBB757",
"P. c #D4BB53",
"I. c #D8B957",
"U. c #D0B14F",
"Y. c #CB9866",
"T. c #C9B566",
"R. c #D4BA65",
"E. c #CAB776",
"W. c #CCB46E",
"Q. c #E4BF5F",
"!. c #BCC56A",
"~. c #DCC155",
"^. c #CBC15C",
"/. c #E3C35A",
"(. c #DAC576",
"). c #D2C86E",
"_. c #E8CB66",
"`. c #EDD268",
"'. c #E4CC78",
"]. c #F5DD7C",
"[. c #FCDF7D",
"{. c #F5D876",
"}. c #EDD375",
"|. c #FDE27D",
" X c #2C558A",
".X c #2A5A97",
"XX c #35588F",
"oX c #3A6498",
"OX c #2B5CA5",
"+X c #3A6CAB",
"@X c #446896",
"#X c #597497",
"$X c #506F90",
"%X c #6A7489",
"&X c #456AA1",
"*X c #867F86",
"=X c #748691",
"-X c #71D5B1",
";X c #5DF6DC",
":X c #72F5D2",
">X c #5FF6E2",
",X c #9D9B86",
"<X c #8A8B9A",
"1X c #8A8D8C",
"2X c #A09D81",
"3X c #9DA48D",
"4X c #A6A383",
"5X c #ABA784",
"6X c #ADAA85",
"7X c #ADAA8A",
"8X c #A7A486",
"9X c #B3AB88",
"0X c #B5B28C",
"qX c #B9B78C",
"wX c #BCB992",
"eX c #B8B896",
"rX c #A7B097",
"tX c #8E8EA0",
"yX c #9391A3",
"uX c #ABB1A4",
"iX c #A5A2B2",
"pX c #C1BD94",
"aX c #CBBD85",
"sX c #CDB9A2",
"dX c #9CD08B",
"fX c #91E1A5",
"gX c #B9C791",
"hX c #DBC885",
"jX c #C3C197",
"kX c #D6C491",
"lX c #F6DC85",
"zX c #E9D589",
"xX c #FEE383",
"cX c #FEE48A",
"vX c #FAE787",
"bX c #EDE88B",
"nX c #CED4A4",
"mX c #BEBBD6",
"MX c #BFBCCD",
"NX c #C2BCCC",
"BX c #C1C0CC",
/* pixels */
"                                                                                                                                ",
"                2 o                                                                                                             ",
"                ~ / W                                                                                                           ",
"              + B.cX1.O                                                     - $ o                                               ",
"            m M R.|.a.M v                                                 w w w w w                                             ",
"          & u.P.`.|._.P.1.:                                   o o + $ $ o w 5 %.&.r @ % % $                                     ",
"          # u.G.`.[._.G.;.o                                 * E _ O.k.^ w 6 %.*.-.%.e ^ 5.o.2 :                                 ",
"        2 = u.I.`.|._.P.N &                           : - - < o.x.rXjX,.6 %.&.&.&.&.&.<.sX,X2 , : <                             ",
"        C.T.M s T.xXe.a w.E.r.X                     < Z C U  XoX@X&X#XH 6 %.&.*.$.%.&.7.#X&X.X.X.X XZ                           ",
"      & E.cXm X V.cX1.X e.vXp.X o                 @ , S I XX+XoXoXoXoXG 5 %.&.%.6 %.&.^ @X+X+X+X+X&X< @                         ",
"      = E.cXm X C.cX2.O e.vXp.o :             - - - 2 o.8.3XuXuXuXS.S.,.7 6 6 5 5 $.*.<.kXjXuXuXuX3X4 -                         ",
"      = E.aX) a T.|.e.g e.(.e.X               G q q d ` k.A.9XrXrXT.G.4.=.%.e e e %.>.4.xXzX9X9XrX,X3 @                         ",
"          8 S.lX[.|.].lXr.=               @ d h.j.k.h.v z s h } oXN.G._.lXp.a l l ;.I.Q.|.).x E +XoX< o                         ",
"            m.C.'.}.R.S.A.                o 4  .X.X. .h z ;.3.[ Y r.y.K.R.u.:.:.:.q.i.d.T.f.9.` @XXXI S                         ",
"            o X 9.I.n .                   ; D S B B S j x (.lX1.a s s z i 9.P._.xXC.u z z ;.lX(.c W XX XZ                       ",
"            ' w.J._.a.w.'                 $ 2 { [ [ { s x T._.u.:.9.9.n l 9.H._.xXJ.u n :.i.|.(.x h =X=X4 o                     ",
"          # E.vXcXcXxXcXr.X               - d z.z.z.j.v x F.H.G.G.G.P.:.a 9.G._.xXJ.i :.P./.xX(.x v qX0Xd -                     ",
"          @ / ) 8.=X+.2.g o             1 Z S ] ! / M q.u.:.:.F.G./.`.I.J.u.:.3.q.q.0.F.`.R.t.u.f.f.2.) = o                     ",
"          , X O U OXI ; o *           $ 1 S V B Z a x F.H.n l i.P.}.bXbXbXp.u z z ;.^.).bX).z n |.'.x a * o                     ",
"            $ @ S P Z o               @ y X.X.@.o.h x F.H.n s i.P.fX:X:X:XdXi.F.R.gX-X:X:X-Xs n I.L.x s * :                     ",
"              : S F D @               : T 8.c.c.+.h s d.K.n s i.P.fX;X;X>XdXI._.|.nX:X;X>X-Xs n K.d.c g * :                     ",
"              , U .XJ $               - < S S J J S Z c b z s d.G.T.!.!.).L.H._.xX'.!.!.^.g.s s x v XXXX< @                     ",
"              < U  XJ ; <             o < K K K K K K E c a a u.J.J.J.J.J.T.W.hXzXhXJ.J.J.p.a s c E $X@XZ @                     ",
"                > < Z B Z $           o d c.c.z.c.c.c.z.k.d * o.1X*X*X6.6.iXNXNXBXiXc.c.1Xo.& p k.n.eXrXy o                     ",
"                  @ S P S @           o 4  . . . . . . . .A D Q ..@.=X<XyXtX<X<X<X<XyX1X..{ < A  .X.tX<XY S                     ",
"                  $ U OXI $           @ < B V B B B B C C B B ; $ ..=XiXmX@.X @ O ..mXtX- 1 B V V F .XOXOX.XZ $                 ",
"                  o K } A $           o 4 [ [ [ [ [ [ [ [ [ [ 4 $ ..*XiXNXyX@.%X%XtXmXtXo 4 { [ [ | $X#X=X=XA @                 ",
"                  @ 9 a 0 @           o d z.x.z.z.x.z.x.x.z.z.d @ ..*XiXmXmXNXNXmXmXmXtXo f z.z.z.x.x.x.eXeXT @                 ",
"                  $ 9 i 0 ,           o 4 ] ] ] ] ! R R R R R 2 o T T Q ..b.aXkXnX9X..! o 4 ] ] ] ] R R ~ _ d                   ",
"                  o 9 k 8 o           o ; C V B S 2 & & & & * * * & & + X ;.P._.xXm.X @ # 2 C V B C ; o o X                     ",
"                  o 9 k 8 o               ; , ; 3 t.y.y.y.y.y.y.y.y.y.c + ;.G._.xXm.X g a.1., ; < D                             ",
"                  o 9 k 8 o               p 8 8 s L.~.~.~.~.~.~.~.G.I.m X ) J.R.zXl.o c ~.d.p f p p                             ",
"                  o 9 k 8 o             c J.K.F.L.}.{.{.{.{.{.{.{./.P.m % Z K Y @XY - / ].{.'.'.'.E.q O o                       ",
"                  o 9 k 8 o           % s H.U.y.f.].[.[.[.[.[.[.[._./.3.h L C I  XY h w.xX[.|.|.xX'.m h h ~                     ",
"                  o 9 k 8 o           X g P.d.0 a }.|.|.|.|.|.|.|.|.[.lXlX2.O - ; ' lX].|.|.|.xXxXxXlXlX].zXh -                 ",
"                  o 9 k 8 o               t.q.h ~ m.V.V.V.V.V.V.V.'.|.|.|.f.( ) ) m.xX'.V.V.V.V.V.V.B.C._._.g :                 ",
"                  o 9 k 0 @               + 3 8.8.* o o o o X X + C.xXxXxXxXcXxXxXxXxXC.. o X o o + @ 0 f.L.p -                 ",
"                      t 0 9 8             o.o.2X2X` _ o.O.O.O.O.O.r.w.w.w.w.w.w.w.w.w.r.` +.O.O.O.' 2 * M 1.f                   ",
"                      + 9 k 9 @ >     X j M.5XwXpX5X4XwXjXpXjXjXjXE X o o o o o o o O E jXjXjXjXjX7X3 o @ +                     ",
"                      , 0 k 9 : 2 , h u.e.n.b.6XZ.~ E b.M.5X7X7X7Xz.O.O.O.O.O.O.O.O.O.z.7X6X6X6X6Xv.3 2 ` 5.                    ",
"                      $ 8 a 8 $ & * v I.T.l.b.M.n.= * +.z.M.4X4X4X4X4X4X8X8X8X8X8X4XZ.Z.4X4X4X4Xv.j.3 y b.M.j 3                 ",
"                      o * # * o c i.K.{.{.'.hXb.c.3 3 x.4X0XqXqXqXqXqXqXwXwXwXwXwXqXqXqXwXwXwX4XT R k.n.0XwXE.E.v @             ",
"                    3 3 q q d 3 m f.R.|.|.xXzXk.5.3 3 x.b.0XwXwXwXwXwXwXwXwXwXwXwXwXwXwXwXwX7Xb.2 q N.A.pXaX].xXc X             ",
"                  - _ h.v.0X9X0Xk.= ( lX|.xX(.p 3     q 8 n.5X4X4X4X4X4X4X4X4X4X4X4X4X4X5Xz.q 3 @ p J.P.P.I.{.bXh O             ",
"                  o _ z.4XwXqXwXk.o / vX}.W.S.q       o * z.4X5X5X5X5X5X5X5X5X5X5X5X6Xv.h.+.*   o p p.i.U.G.`.}.1.v             ",
"                  o _ z.b.4X4X8XO.O / xXE.0 =         @ * z.8XwXpXpXpXpXpXpXpXpXpXpXjXb.*           * 0 d.G.I.I.}.lX/ O         ",
"                  @ _ z.v.9X9X9X5.X g m.e.                o.+.,X6X9X0X0X0X0X0X0X0XZ.j.+.            o = p.f.f.f.E.aX2._ W       ",
"                  - _ z.8XjXpXjXz.@ o o                   o @ o.z.v.Z.Z.Z.Z.Z.Z.4X` o o             o 2 5.l.l.k.j.j.9XjX_ o     ",
"                    ! E _ ` ` o.E o o                     @ * +.v.5X0X0X0X0X0X0X0Xh.o -           3 E _ c.z.z.j.,X5XqXpX_ o     ",
"                      o + + @ o o $                       * & h.4X0XpXpXpXpXpXpXjXj.o -         o 3 h.n.z.z.z.j.0XpXwXeX_ o     ",
"                      @ = 9 8 @ o                         o * O.b.4X6X6X6X6X6X6X7XO.o -             T R h.j.z.z.0XpX` E         ",
"                      @ 8 p 9 # *                         : : ` l.N.M.M.A.M.M.M.A.` # >             o 2 +.c.h.j.7XeXE O         ",
"                          & 0 9 9 :                   o # w e s.K.,.r Y.lXs.=.s.lXY.%.r #               G d d d f f             ",
"                          @ 0 a 9 @ -                 3 8 r r D.Q.>.r D.[.D.=.D.xXY.%.e @ o               o o o o               ",
"                          @ 0 a 9 @ 2             @ 2 +.h.b.N.'.|.I.U.H.P.U.U._.xXa.# @ o o                                     ",
"                          @ a ;.l @ :             , 4 z.,X8XA.S.W.I.G.I./././.R.W.e.f T W W                                     ",
"                          o M I.q.@ :             % 3 7XpXpXpXW # t.G.`.[.[.|.p.+ R j.v.eXv.& o                                 ",
"                          o ) _.u.+ -             W E 4X9Xj.h.f X q.G.`.|.|.xXe.o R j.b.0XM.~ E                                 ",
"                          o 2.xXf.% ,         - 4 c.x.2X2Xd o @ & t.I.`.|.lXcXl.o R z.b.4X4X8Xx.* :                             ",
"                          o ) `.p.X -       1 D Z ] [ #X#XA o @ & t.I./._.{.xXe.X y W Q | | #X$XU I Z                           ",
"                          o M L.q.@       , 1 S B B V .XXXZ @ : $ q.H.H.H._.vXe.+ X o D C F OXOXOX X< :                         ",
"                            g c v         - , 1 D D D S S         v c h h v m f -       D Z S S S S 2 @                         ",
"                              @             @ @ $ $ - o             o o - o X o -       - $ $ o o @ @                           ",
"                                                                                                                                "
};
