/* XPM */
static char *xpm_[] = {
/* columns rows colors chars-per-pixel */
"64 64 245 2 ",
"   c #2E2B1D",
".  c #2D2816",
"X  c #332D1C",
"o  c #332A17",
"O  c #36321A",
"+  c #2D2C24",
"@  c #2D2D2C",
"#  c #292B29",
"$  c #322C24",
"%  c #322D2C",
"&  c #3A2D29",
"*  c #2C312C",
"=  c #2C3226",
"-  c #343325",
";  c #3C3324",
":  c #35322B",
">  c #3B342C",
",  c #3D3B2C",
"<  c #2C2E33",
"1  c #2A2D39",
"2  c #312D31",
"3  c #3C2A31",
"4  c #2B3132",
"5  c #25333D",
"6  c #283339",
"7  c #343332",
"8  c #383838",
"9  c #46381C",
"0  c #751B32",
"q  c #49282D",
"w  c #463A28",
"e  c #553E2B",
"r  c #513B23",
"t  c #423B35",
"y  c #532A30",
"u  c #69232B",
"i  c #702632",
"p  c #6D271A",
"a  c #3B4139",
"s  c #58481A",
"d  c #5C521A",
"f  c #444015",
"g  c #66541C",
"h  c #624E1A",
"j  c #4A4629",
"k  c #5C4229",
"l  c #564928",
"z  c #5A5327",
"x  c #494639",
"c  c #544732",
"v  c #5A5537",
"b  c #4F523E",
"n  c #684727",
"m  c #655827",
"M  c #665B38",
"N  c #724E27",
"B  c #7A6929",
"V  c #676236",
"C  c #786A3D",
"Z  c #79743B",
"A  c #69622C",
"S  c #1D3455",
"D  c #1C3759",
"F  c #1D3549",
"G  c #253243",
"H  c #283547",
"J  c #263855",
"K  c #383E48",
"L  c #243D6F",
"P  c #1E3861",
"I  c #623842",
"U  c #2B415B",
"Y  c #384655",
"T  c #2A4466",
"R  c #394C68",
"E  c #294874",
"W  c #375377",
"Q  c #484745",
"!  c #574D47",
"~  c #585649",
"^  c #565855",
"/  c #4A4D56",
"(  c #645D47",
")  c #615B54",
"_  c #666345",
"`  c #786B47",
"'  c #7B734A",
"]  c #6D6B5B",
"[  c #686657",
"{  c #76735A",
"}  c #716956",
"|  c #445563",
" . c #4D5871",
".. c #5D696C",
"X. c #5A6468",
"o. c #536978",
"O. c #676965",
"+. c #716E63",
"@. c #7E7D6B",
"#. c #787765",
"$. c #6A7676",
"%. c #727071",
"&. c #851C39",
"*. c #8A1E32",
"=. c #99293B",
"-. c #8C3137",
";. c #A12939",
":. c #984B33",
">. c #897638",
",. c #8A7130",
"<. c #8E3045",
"1. c #897848",
"2. c #8E7558",
"3. c #847C6A",
"4. c #8A7C71",
"5. c #AD7A62",
"6. c #AF784A",
"7. c #7D8376",
"8. c #628C60",
"9. c #988438",
"0. c #A58E3B",
"q. c #998647",
"w. c #8B8458",
"e. c #988856",
"r. c #978D51",
"t. c #A9964A",
"y. c #A2935B",
"u. c #A99856",
"i. c #B1924C",
"p. c #BAA24D",
"a. c #BAA65B",
"s. c #ACA15B",
"d. c #83826C",
"f. c #8C8A6E",
"g. c #888468",
"h. c #988A63",
"j. c #9A9268",
"k. c #8C8A73",
"l. c #888779",
"z. c #928C73",
"x. c #989578",
"c. c #899270",
"v. c #A39764",
"b. c #A19D7C",
"n. c #AE8E6C",
"m. c #BAAA67",
"M. c #A5A17D",
"N. c #A9A57F",
"B. c #BBB174",
"V. c #9FA55B",
"C. c #C99752",
"Z. c #D9BA4A",
"A. c #C4AA58",
"S. c #CAB75A",
"D. c #D3BA53",
"F. c #DDBD5B",
"G. c #D7BA58",
"H. c #D3A854",
"J. c #C3AA6A",
"K. c #C9B567",
"L. c #D7BC65",
"P. c #CAB978",
"I. c #C7AD73",
"U. c #E4B474",
"Y. c #B4C776",
"T. c #B6C76D",
"R. c #DCC156",
"E. c #C7C15C",
"W. c #E3C459",
"Q. c #DCC467",
"!. c #DBC778",
"~. c #CAC76C",
"^. c #E5C664",
"/. c #ECD269",
"(. c #FBDD7C",
"). c #F5D977",
"_. c #E8CF78",
"`. c #FAE27A",
"'. c #375788",
"]. c #335D98",
"[. c #2E5182",
"{. c #32629F",
"}. c #506C88",
"|. c #717C87",
" X c #48699A",
".X c #847B8B",
"XX c #6E8492",
"oX c #7A8CA7",
"OX c #7DE6BE",
"+X c #74EEC9",
"@X c #868784",
"#X c #9A9A84",
"$X c #858394",
"%X c #8D948C",
"&X c #A39E85",
"*X c #B69486",
"=X c #A5A383",
"-X c #AAA683",
";X c #ADAA85",
":X c #A9A78B",
">X c #B2AE89",
",X c #B9AF8B",
"<X c #B9B68D",
"1X c #A9AA93",
"2X c #B9B591",
"3X c #BDBA94",
"4X c #B7B898",
"5X c #B1B498",
"6X c #9495A6",
"7X c #8997A1",
"8X c #8FA1A4",
"9X c #B2B3B7",
"0X c #9BAD9A",
"qX c #C7B985",
"wX c #C1BD95",
"eX c #C1BD9A",
"rX c #C3B795",
"tX c #D3BA84",
"yX c #C2BDB4",
"uX c #B6C890",
"iX c #98DCA3",
"pX c #B9C2A9",
"aX c #98EAB5",
"sX c #D5C687",
"dX c #C3C29D",
"fX c #D1C78B",
"gX c #E5CC87",
"hX c #E9D486",
"jX c #FCDF82",
"kX c #F5D886",
"lX c #E7D795",
"zX c #F5D98F",
"xX c #FCE383",
"cX c #FCE48B",
"vX c #F6E48A",
"bX c #E8E897",
"nX c #F9E495",
"mX c #EAE88F",
"MX c #CDC7A2",
"NX c #EADF96",
"BX c #B8B5C9",
"VX c #B6B6CC",
"CX c #C3BCC5",
"ZX c #8CEFC8",
"AX c None",
/* pixels */
"AXAXAXAXAXAXAXAXAXAXAXAXAXAXAXAXAXAXAXAXAXAXAXAXAXAXAXAXAXAXAXAXAXAXAXAXAXAXAXAXAXAXAXAXAXAXAXAXAXAXAXAXAXAXAXAXAXAXAXAXAXAXAXAX",
"AXAXAXAXAXAXAXAXAXAXAXAXAXAXAXAXAXAXAXAXAXAXAXAXAXAXAXAXAXAXAXAXAXAXAXAXAXAXAXAXAXAXAXAXAXAXAXAXAXAXAXAXAXAXAXAXAXAXAXAXAXAXAXAX",
"AXAXAXAXAXAXAXw w AXAXAXAXAXAXAXAXAXAXAXAXAXAXAXAXAXAXAXAXAXAXAXAXAXAXAXAXAXAXAXAXAXAXAXAXAXAXAXAXAXAXAXAXAXAXAXAXAXAXAXAXAXAXAX",
"AXAXAXAXAXAXc qXqXc AXAXAXAXAXAXAXAXAXAXAXAXAXAXAXAXAXAXAXAXAXAXAXAXAXAXAXAXAXAXAXAXAXAXAXAXAXAXAXAXAXAXAXAXAXAXAXAXAXAXAXAXAXAX",
"AXAXAXAXAXj m kXkXm c AXAXAXAXAXAXAXAXAXAXAXAXAXAXAXAXAXAXAXAXAXAXAXAXAXAX3 q q y AXAXAXAXAXAXAXAXAXAXAXAXAXAXAXAXAXAXAXAXAXAXAX",
"AXAXAXAXv m.G.).(.K.m.v AXAXAXAXAXAXAXAXAXAXAXAXAXAXAXAXAXAXAX@ @ # @ @ q u 0 i I q & & AXAXAXAXAXAXAXAXAXAXAXAXAXAXAXAXAXAXAXAX",
"AXAXAX+ z K.F.`.).R.S.l % AXAXAXAXAXAXAXAXAXAXAXAXAXAXAXAXAXQ ! ! ~ I q u 0 =.<.-.u y ( ) ! AXAXAXAXAXAXAXAXAXAXAXAXAXAXAXAXAXAX",
"AXAXAX  k L.Z.(.`.R.G.l + AXAXAXAXAXAXAXAXAXAXAXAXAXAX4 * < O.l.1XdX#Xu 0 <.;.;.=.=.-.*X9X[ < AXAXAXAXAXAXAXAXAXAXAXAXAXAXAXAXAX",
"AXAXAXj.w.>.q.kX).q.>.w.e._ AXAXAXAXAXAXAXAXAXAXAXAXG H U T o.}.XXoX%.0 0 =.;.*.*.=.<..XoX}.E T AXAXAXAXAXAXAXAXAXAXAXAXAXAXAXAX",
"AX$ ' nXP.O j hXhXj O B.nX{ % AXAXAXAXAXAXAXAXAXAX< G S [.{.{.{.].'.R u *.=.=.0 0 =.=. .].{. XE 2 AXAXAXAXAXAXAXAXAXAXAXAXAXAXAX",
"AX@ ` cXP.X j hXhXl O K.nX` # AXAXAXAXAXAXAXAXAX2 7 X.$.XX8X8X8X#Xb.2.0 &.&.&.0 p =.<.*X4X0X8X7X#X3.AXAXAXAXAXAXAXAXAXAXAXAXAXAX",
"AXAX' lXI.9 z hXgXN 9 B.lX` # AXAXAXAXAXAXAXAXAX7 , #.k.>XuX5X5XqXL.5.p i u i i p =.;.U.nXsXqX5X9X@.% AXAXAXAXAXAXAXAXAXAXAXAXAX",
"AXAXAXv ` tX!.jXjX!.sXC c AXAXAXAXAXAXAXAXAXAX8 %.@.M A A _ o.o.c.L.L._.J.n n n N C.H./.cXr.V .. X .G AXAXAXAXAXAXAXAXAXAXAXAXAX",
"AXAXAXAX_ fX!.).).!.tX( AXAXAXAXAXAXAXAXAXAX5 8 $.@.v z A ` ^  .#.a.S._.J.B B B ,.i.A.Q.!.q.Z X.}.W 6 AXAXAXAXAXAXAXAXAXAXAXAXAX",
"AXAXAXAXAX; s A.J.s 9 AXAXAXAXAXAXAXAXAX4 6 5 S D 5 b m K.zXe.l v g g g ,.A.D._._.B m m g J.nXy.b x @ AXAXAXAXAXAXAXAXAXAXAXAXAX",
"AXAXAXAXAX1.1.Q.L.1.` ! AXAXAXAXAXAXAXAX* 8 | | | / v h S.).t.,.,.,.B z ,.H.R.(.hXB d B ,.R.xXt.z v _ +.AXAXAXAXAXAXAXAXAXAXAXAX",
"AXAXAXX M bXnXnXzXvXbXM $ AXAXAXAXAXAXAX% a @X@Xk.f.M d p.S.Z.Z.G.S.t.d B L.L.jX_.B g p.D./.cXt.h 1.eX#X: AXAXAXAXAXAXAXAXAXAXAX",
"AXAXAX@ j 2.w.%X#Xg.7.f % AXAXAXAXAXAXAX4 8 X.^ ] ' q.9.9.9.p.Z.W./.L.p.t.9.9.t.t.0.0.E./.a.i.u.s.u.w.} - AXAXAXAXAXAXAXAXAXAXAX",
"AXAXAX< @ @ G [.'.G = = @ AXAXAXAXAXAXAX* 4 G H b g A.G.,.d 0.Z.Q.mXbXbX~.g d d m m.T._.bXw.s V.cXA.n j - AXAXAXAXAXAXAXAXAXAXAX",
"AXAXAXAXAX@ G L L G * AXAXAXAXAXAXAXAXQ #.+.$.+.z g p.S.B h 0.E.uXZXZXZXiXV.p.K.Y.iXOXZXaX8.d t.^.i.z x - AXAXAXAXAXAXAXAXAXAXAX",
"AXAXAXAXAX= 5 D P G * AXAXAXAXAXAXAX@ Q 7.7.7.7.~ z s.S.,.h 0.E.uX+X+X+XiXT.W.(.bXaX+X+X+X8.z 9.S.q.~ Q * AXAXAXAXAXAXAXAXAXAXAX",
"AXAXAXAXAX4 G [.[.G 4 AXAXAXAXAXAXAX< K U U U U J 6 v A m h t.G.E.T.Y.T.E.G.F.(.vX~.Y.Y.Y.Z d m A ^ W R 6 AXAXAXAXAXAXAXAXAXAXAX",
"AXAXAXAXAXAXJ W W G 1 K AXAXAXAXAXAX6 H Y Y Y Y Y / ~ ( z l 2.I.m.m.m.T.J.P.tXlXlXK.V.m.m.` l z _ O.}. .6 AXAXAXAXAXAXAXAXAXAXAX",
"AXAXAXAXAXAXAX5 F S H G : AXAXAXAXAX* Q @X@X7.l.l.l.k.f.x + X.4.k.l.d.7.%XCXCXCX9X@Xl.l.l.! $ ( z.#XpX%X= AXAXAXAXAXAXAXAXAXAXAX",
"AXAXAXAXAXAXAX: 5 T E F < AXAXAXAXAX* a ................Y 5 / X.%.|.$X6X6X$X.X$X.X6X6X%.X.K H R ..XXoX|.4 AXAXAXAXAXAXAXAXAXAXAX",
"AXAXAXAXAXAXAX% 5 '.'.J 2 AXAXAXAXAX< G H F S S S S S S S J G # ^ .X6XCX6X1 2 2 1 9XVX/ < H D D F T ].T 6 AXAXAXAXAXAXAXAXAXAXAX",
"AXAXAXAXAXAXAX< < / / K @ AXAXAXAXAX< K X...X.X.H G G G G 5 4 % ^ |.6XVXVX.X.X$X$XBXBX/ 2 1 G 5 5 R |.|.7.l.AXAXAXAXAXAXAXAXAXAX",
"AXAXAXAXAXAXAX< $ e k & : AXAXAXAXAX% x l.l.c.7.w ; - - ; - ; O ! .X6XBXVXCXCXCXCXBXBX^ X & < * = ~ c.x.pX=X> AXAXAXAXAXAXAXAXAX",
"AXAXAXAXAXAXAX: & e k ; @ AXAXAXAXAX@ : Q Q x c y.u.t.t.u.i.u.u.` x Q ! } qXtXlXMX] ! h.y.z # 6 1 8 x [ dX1X3 2 AXAXAXAXAXAXAXAX",
"AXAXAXAXAXAXAX4 % k k ; < AXAXAXAXAX= - w w 9 s K.F.R.R.R.W.F.W.q.9 , + l S.F.).hXl O u.Q.,.j j j 8 + b 1X&X: AXAXAXAXAXAXAXAXAX",
"AXAXAXAXAXAXAX: - e k ; @ AXAXAXAXAX@ v a.A.a.S._.(.(.).).(.(.).Q.a.w.. z K.F.`.hXj O I.jXhXgX_.hXh.. - , AXAXAXAXAXAXAXAXAXAXAX",
"AXAXAXAXAXAXAX* & k k - 4 AXAXAXAXAX% m L.S.i.p.).jXjXjXxX`.(.(./.Q.r.O x x.v.3X5Xx O P.cXjX`.`.xXJ.M M M ` AXAXAXAXAXAXAXAXAXAX",
"AXAXAXAXAXAXAX: $ e k ; < AXAXAXAXAX@ m P.a.9 f hX`.vXxXcXxXxXxXxXxXm.  1 H J '.W 8 O P.xXxXxXxXcXzXnXzXvXP.w AXAXAXAXAXAXAXAXAX",
"AXAXAXAXAXAXAX% - e k w * AXAXAXAXAXAXAXe.' v _ w.y.y.y.y.y.v.y.K.xXL.1.} 5 J W R { w.r.y.v.j.v.v.y.u.a._.K.O & AXAXAXAXAXAXAXAX",
"AXAXAXAXAXAXAX4 & k k ; < AXAXAXAXAXAXAXo w c.7., X     X X   . e.cXcXnXqX- @ 1 a fXnXv .   +       o m ~.s.; : AXAXAXAXAXAXAXAX",
"AXAXAXAXAXAXAX2 & e k ; % AXAXAXAXAXAX~ 3.d.:X=X3.#.k.k.k.d.f.k.3.` 1.` _ - % % > _ ' g.f.f.f.f.l.[ @ w V _ AXAXAXAXAXAXAXAXAXAX",
"AXAXAXAXAXAXAXAX& c c ; % AXAXAXAXt ; ~ =X-X4X4XM.=X3XeXwXwXwXdX@.$ - - - : : : - : - &XwXuXdXdXdXd.@ : * : AXAXAXAXAXAXAXAXAXAX",
"AXAXAXAXAXAXAXAXAX> & r e w 7 1 % M s.u.h.j.:X#Xb x g.x.N.N.N.-Xx.f.k.k.k.k.k.k.f.k.k.b.;X-X:X:X:X#.+ Q l.@.: AXAXAXAXAXAXAXAXAX",
"AXAXAXAXAXAXAXAXAXAX% e n ; = a 9 >.Q.K.u.b.b.x., - 3.z.b.:XN.N.N.-XN.-X-X-X-XN.N.-X-X-X-X-X;Xx.z.{ 8 ( ;Xj.v x AXAXAXAXAXAXAXAX",
"AXAXAXAXAXAXAXAXAXAX% e l -   ' K.Q.`.kXkXsXz.d., : l.&X5X3X3X3X3X3X3X3XwX3X3X3XwX3XwX3X3X3XdX{ - _ &X&XrXqXgXfXj 2 AXAXAXAXAXAX",
"AXAXAXAXAXAXAXAXAXAX- w e :   q.^./.(.xX`.!.{ +.8 , #.7.-X2X2X<X<X2X2X2X2X2X<X2X<X2X2X2X<Xb.z.^   ( B.m.P.!.vXgXe @ AXAXAXAXAXAX",
"AXAXAXAXAXAXAXAXAX* $ X X +   e.cX(.(.zXcXsXw AXAXAXAX- d.M.M.M.N.M.M.b.M.M.b.M.b.b.=X=X1X~ % < # ` K.D.D.R.`.gX9 + AXAXAXAXAXAX",
"AXAXAXAXAXAXAXAXAX~ ~ ] #.#.{ 2.e.J.cX!.e.h.AXAXAXAXAX: d.=X;X>X>X,X>X>X>X>X>X>X>X>X;X#.] ! AXAXAXM 1.q.D.Z.^.U.r.e.AXAXAXAXAXAX",
"AXAXAXAXAXAXAXAX7 7.z.2XdXeXdX{ . 1.nXB.o AXAXAXAXAXAX@ @.=X2X3X4XeXuX3XwXwXwXrX3XwX3Xb + AXAXAXAXAX  m S.Z.Z.F.jXlXv % AXAXAXAX",
"AXAXAXAXAXAXAX< : 3.k.-X;X;X;X[ @ j ` ' AXAXAXAXAXAXAX: +.x.=X;X>X;X;X-X;X;X>X;X;X;X:Xx : AXAXAXAXAX@ m K.Z.Z.S.!.sXb.l.^ AXAXAX",
"AXAXAXAXAXAXAX% , #.c.b.=X-X=X[ $ @ + AXAXAXAXAXAXAXAX: +.k.x.M.=X&XM.M.M.N.b.b.-X#X#XQ @ AXAXAXAXAX& M K.S.S.K.qX<XwXuX~ + AXAX",
"AXAXAXAXAXAXAX2 7 7.k.>X3X3X4X{ + AXAXAXAXAXAXAXAXAXAXAXAXa #.=X>X3X3X3X3X<X3X3X>Xb x AXAXAXAXAX@ ~ @.g.j.y.y.j.x.x.2X3X~ + AXAX",
"AXAXAXAXAXAXAXAX8 +.3.#X&X:X:X+.AXAXAXAXAXAXAXAXAXAXAXAXAX+ +.&X:X3X2X3X3X3X3X3X5Xx + AXAXAXAXAX@ / @.3.k.k.f.f.z.x.2XwX~ + AXAX",
"AXAXAXAXAXAXAXAXAX7 7 > > > > AXAXAXAXAXAXAXAXAXAXAXAXAXAX$ [ k.x.N.M.M.b.N.b.N.#Xx @ AXAXAXAXAXAXAX: b k.k.k.x.5X3XdXeX~ @ AXAX",
"AXAXAXAXAXAXAXAXAXAX% > t & & AXAXAXAXAXAXAXAXAXAXAXAXAXAX@ ] x.b.;X;X;X>X;X;X;X#Xt < AXAXAXAXAXAXAXAXQ O.] ] { f.c.k.l.^ AXAXAX",
"AXAXAXAXAXAXAXAXAXAX: c c w $ AXAXAXAXAXAXAXAXAXAXAXAXAXAX% { &X,XwXrXwXrXeXrXqX,Xx 1 / AXAXAXAXAXAXAXAX% : % % * : @ % AXAXAXAX",
"AXAXAXAXAXAXAXAXAXAXAXw w w w 8 AXAXAXAXAXAXAXAXAXAXAXAXy y 2.I.n.2.n.gXtX5.5.gXtXN i Q t AXAXAXAXAXAXAXAXAXAXAXAXAXAXAXAXAXAXAX",
"AXAXAXAXAXAXAXAXAXAXAXAX& w c q % AXAXAXAXAXAXAXAXAX* & y u 6.W.,.p :.nXU.-.:.kXzX:.( y 3 AXAXAXAXAXAXAXAXAXAXAXAXAXAXAXAXAXAXAX",
"AXAXAXAXAXAXAXAXAXAXAXAX% r n w % AXAXAXAXAXAXAXAX8 O.+.3.5.I./.F.6.C.^.G.C.C.(.zXi q q % AXAXAXAXAXAXAXAXAXAXAXAXAXAXAXAXAXAXAX",
"AXAXAXAXAXAXAXAXAXAXAXAX+ l N r % AXAXAXAXAXAXAX2 : @.z.#X-XfXhX^.D.F.F.D.Z.R._.sXc ; , 8 x AXAXAXAXAXAXAXAXAXAXAXAXAXAXAXAXAXAX",
"AXAXAXAXAXAXAXAXAXAXAXAX$ 1.J.C + AXAXAXAXAXAXAX@ > b.3X2X3X{ j >.Z.W.(.(.).!.z b #.d.#X1X^ # AXAXAXAXAXAXAXAXAXAXAXAXAXAXAXAXAX",
"AXAXAXAXAXAXAXAXAXAXAX% O r.!.>.  AXAXAXAXAXAXAXx x =X4X-X&X^ . Z F.^.`.jXxXsX9 : @.z.>X4X] Q AXAXAXAXAXAXAXAXAXAXAXAXAXAXAXAXAX",
"AXAXAXAXAXAXAXAXAXAXAX% X m.nX1.+ AXAXAXAXAXAX, 7.k.#X:X~ ; 7   Z G.W.xXjXxXsX9 8 d.z.=X=X=X#X[ @ AXAXAXAXAXAXAXAXAXAXAXAXAXAXAX",
"AXAXAXAXAXAXAXAXAXAXAXAX$ u.hXq.  AXAXAXAXAXG H o...XXXXQ @ % $ Z H.R././.`.!.9 7 ^ [ %.$.XXXX}.J AXAXAXAXAXAXAXAXAXAXAXAXAXAXAX",
"AXAXAXAXAXAXAXAXAXAXAXAX$ r.~.` + AXAXAX1 G J J S P '.'.J 4 * $ 1.L.D.D.^.vXsXj @ * * H J E {.{.].W 6 AXAXAXAXAXAXAXAXAXAXAXAXAX",
"AXAXAXAXAXAXAXAXAXAXAXAXAX' Z AXAXAXAXAX4 6 5 G G F J T AXAXAXAX( C C C ` 1.` > 2 AXAXG H J T T U K 4 AXAXAXAXAXAXAXAXAXAXAXAXAX",
"AXAXAXAXAXAXAXAXAXAXAXAXAXAX  AXAXAXAXAX* * * 4 4 < 4 4 AXAXAXAXAX+ + $ $ X + < AXAXAXAX4 < < < 2 * @ AXAXAXAXAXAXAXAXAXAXAXAXAX",
"AXAXAXAXAXAXAXAXAXAXAXAXAXAXAXAXAXAXAXAXAXAXAXAXAXAXAXAXAXAXAXAXAXAXAXAXAXAXAXAXAXAXAXAXAXAXAXAXAXAXAXAXAXAXAXAXAXAXAXAXAXAXAXAX",
"AXAXAXAXAXAXAXAXAXAXAXAXAXAXAXAXAXAXAXAXAXAXAXAXAXAXAXAXAXAXAXAXAXAXAXAXAXAXAXAXAXAXAXAXAXAXAXAXAXAXAXAXAXAXAXAXAXAXAXAXAXAXAXAX"
};
