/* XPM */
static char *_0ddd0b6b8d44bf7defcf6eed114f3e8oF5hA7X2tymUhZac[] = {
/* columns rows colors chars-per-pixel */
"64 64 232 2 ",
"   c None",
".  c #2D2D2D",
"X  c #25272A",
"o  c #312F2E",
"O  c #3C2B2E",
"+  c #2F302F",
"@  c #32312E",
"#  c #3C352D",
"$  c #2D2F31",
"%  c #272D38",
"&  c #2E3032",
"*  c #2B323B",
"=  c #333232",
"-  c #3B3A34",
";  c #343539",
":  c #3B3A3B",
">  c #383736",
",  c #362F33",
"<  c #741A33",
"1  c #771B34",
"2  c #6B1E32",
"3  c #4D3827",
"4  c #43352A",
"5  c #4B3828",
"6  c #483B29",
"7  c #553B26",
"8  c #482C31",
"9  c #443836",
"0  c #532430",
"q  c #6D2D30",
"w  c #5B4E23",
"e  c #544824",
"r  c #5E5024",
"t  c #464232",
"y  c #43443D",
"u  c #4E4A3B",
"i  c #4A4737",
"p  c #534C37",
"a  c #5C553C",
"s  c #5A5237",
"d  c #644123",
"f  c #615224",
"g  c #6A5B29",
"h  c #645A38",
"j  c #6E623A",
"k  c #786937",
"l  c #73642F",
"z  c #5E4E1F",
"x  c #19345C",
"c  c #1A3359",
"v  c #1F324F",
"b  c #23334A",
"n  c #2B3645",
"m  c #363B44",
"M  c #253B59",
"N  c #193662",
"B  c #1B3D71",
"V  c #253E62",
"C  c #403E43",
"Z  c #334459",
"A  c #2C4464",
"S  c #294367",
"D  c #284876",
"F  c #374D69",
"G  c #1F4377",
"H  c #4C4C44",
"J  c #444544",
"K  c #535145",
"L  c #545349",
"P  c #5B5949",
"I  c #4B5455",
"U  c #5A5954",
"Y  c #4E4E4C",
"T  c #635D43",
"R  c #695545",
"E  c #605F51",
"W  c #6E544B",
"Q  c #5E6359",
"!  c #6A6448",
"~  c #736B47",
"^  c #7B734D",
"/  c #646354",
"(  c #696858",
")  c #706F5A",
"_  c #777357",
"`  c #415366",
"'  c #4A5A68",
"]  c #565D66",
"[  c #56587F",
"{  c #54636D",
"}  c #676C67",
"|  c #6B726D",
" . c #7C7A65",
".. c #757462",
"X. c #6D7278",
"o. c #9A2639",
"O. c #982639",
"+. c #892838",
"@. c #8A7739",
"#. c #927E39",
"$. c #9E613F",
"%. c #9C563D",
"&. c #A33A42",
"*. c #8C514B",
"=. c #83794E",
"-. c #867A49",
";. c #877D51",
":. c #9E614B",
">. c #B47049",
",. c #8B7C67",
"<. c #B5594C",
"1. c #748776",
"2. c #5B9D7D",
"3. c #9A843B",
"4. c #A58C3D",
"5. c #A9903E",
"6. c #9A8644",
"7. c #8A8258",
"8. c #958956",
"9. c #9B925A",
"0. c #A28E48",
"q. c #AB9448",
"w. c #B39A43",
"e. c #B49848",
"r. c #A6975B",
"t. c #B29452",
"y. c #BBA149",
"u. c #B9A457",
"i. c #84836B",
"p. c #8C8A6F",
"a. c #888568",
"s. c #98896A",
"d. c #999169",
"f. c #8D8B71",
"g. c #848672",
"h. c #918F73",
"j. c #949275",
"k. c #9C9A7B",
"l. c #989678",
"z. c #8C907D",
"x. c #AA9D62",
"c. c #A09E7E",
"v. c #A39C74",
"b. c #A48470",
"n. c #B9A966",
"m. c #A2A07F",
"M. c #AAA070",
"N. c #B8AC7A",
"B. c #B2AA6A",
"V. c #C6A949",
"C. c #CAAD49",
"Z. c #C6A748",
"A. c #D4B54C",
"S. c #D7B84D",
"D. c #DABA4E",
"F. c #DAB74A",
"G. c #C6AD59",
"H. c #CAB559",
"J. c #DCBD52",
"K. c #D5B956",
"L. c #D0AE53",
"P. c #C3AE64",
"I. c #C8B669",
"U. c #C8B778",
"Y. c #D2BB68",
"T. c #DCAA68",
"R. c #B8C873",
"E. c #DFC058",
"W. c #E2C45A",
"Q. c #E3C356",
"!. c #D9C268",
"~. c #D5C374",
"^. c #E7CA66",
"/. c #EFD16B",
"(. c #F1D36E",
"). c #E5CA74",
"_. c #EAD378",
"`. c #F6DA75",
"'. c #F5DB7C",
"]. c #FBDE7C",
"[. c #F7D976",
"{. c #F1CC74",
"}. c #FCE17F",
"|. c #F6E27F",
" X c #274E85",
".X c #2A538C",
"XX c #27569A",
"oX c #31588C",
"OX c #275CA8",
"+X c #2C62AE",
"@X c #3365A7",
"#X c #2A62B6",
"$X c #4D6E91",
"%X c #6F7784",
"&X c #507AAD",
"*X c #42578F",
"=X c #2B6BCA",
"-X c #5880B0",
";X c #6C8AA1",
":X c #75E6BD",
">X c #4FFCF0",
",X c #6EF0D2",
"<X c #959984",
"1X c #88928A",
"2X c #9CA288",
"3X c #97A59D",
"4X c #A4A381",
"5X c #A9A684",
"6X c #ACA985",
"7X c #AFAC88",
"8X c #B1AE89",
"9X c #B6B38C",
"0X c #BAB78E",
"qX c #BEBB92",
"wX c #B9B893",
"eX c #A9B19B",
"rX c #9D9BB3",
"tX c #9197A8",
"yX c #A5A4BB",
"uX c #A1999A",
"iX c #C1BE94",
"pX c #C5BB81",
"aX c #8FE2AC",
"sX c #C4C196",
"dX c #CECB8A",
"fX c #ECD789",
"gX c #D8E896",
"hX c #FEE480",
"jX c #FDE882",
"kX c #BAB8D5",
"lX c #B3B1C8",
"zX c #C4BEC6",
/* pixels */
"                                                                                                                                ",
"            = . >                                                                                                               ",
"            T ! P                                                                                                               ",
"        & . x.hX;.X >                                                                                                           ",
"      > j k I.hXu.k h >                                                 > > > =                                                 ",
"    = @ q.D./.}.^.D.#.. =                                               = . . .                                                 ",
"    = @ q.D./.}.^.D.#.. =                                   = = = & & , 0 0 q q 8 & = =                                         ",
"    > - 0.A./.}.^.A.-.= >                                 : = = = = o O < 1 o.o.8 o = = >                                       ",
"$ - x.I.~ p n.hXr.i -.I.9.= =                     = @ @ o K _ i.c.s.2 2 O.O.o.o.+.+.,.m.( . . . =                               ",
". - ~.}.T X x.hX7.X =.jXn.. =                     ; $ * * I g.<XeX<X1 1 o.o.o.o.o.o.b.wX} * n n m                               ",
". - ~.}.T X x.hX;.X =.jXn.o =                 > = b x D XXOX@X@X@X*X2 1 o.o.+.1 O.o.[ @X+X#X#X#X X= =                           ",
". - x.I.^ P P.hXr.a 7.I.9.= =                 = . Z F *X&X&X&X$X$X[ 2 1 O.O.1 < O.o.X.&X&X-X&X-X*X. @                           ",
"    > - n.}.].}.].|.r.@ >                 = . . . / f.4XqXqXqXU.K.e.1 < < < < < O.o.T.hXdXwXqXqXp.. +                           ",
"    = = 7.r.Y./.I.r.^ =                 : L L L L ! _ 7.d.z.tX<XS.C.>.:.q q q q %.>.T.hXU.d.<XtXX.. +                           ",
"        . . 6.D.k X >                 = = ..f.f.f.~ r r w I OX$XA.W.}.).l w w f w.D.(.hX0.w ' =XoX. .                           ",
"      > ;.r.Y./.P.9.^ =               = = I ' ' ' K r @.u.7.` Q #.3.0.0.4.4.t.u.6.#.6.0.t.u.a.' F D A = =                       ",
"    = @ n.hX].hX].hX9.. =             = $ c N N N y w t.hXu.f f r r w g C.J.[.].@.w r w u.jXu.z I +X.X& =                       ",
"    = @ a ! X.;X| ! u . =             = = Q | | | T w 0.W.L.w.w.w.4.f g C.J.[.].@.w 3.w.!.hXu.w ~ 3X1.= =                       ",
"    = . . X D OXS . . . =             & = ..g.p.a.~ g 3.C.A.D.D.J.V.l k Z.A.)._.@.g w.J.^._.t.g =.0Xj.= =                       ",
"        + . M B b . =             = ; v c V A a g 3.C.3.g 3.S.W.`.(.).Y.k g l k w.Z.^.[.t.l q.).u.j s @ =                       ",
"        . . M B b . =             . & Z A A A u r 4.D.3.w #.F.!.gXgXgXdXk l k k B.R.dXgX8.w 0.[.u.r e . =                       ",
"        . . D OXS . =             . >  .g.p.g.j r 5.D.3.w #.F.R.>X>X>X,XH.A./._.,X>X>X>X2.w 3.Q.w.f e . =                       ",
"          o S  XM * n             . > Q | | } L i @.w.@.w #.F.R.:X:X:XaXH.J.[.hXaX:X:X:X1.w @.w.-.I J . =                       ",
"            = o b N b . =         o & c N N N N N y f r r #.D.S.S.S.S.S.S.J.[.}.W.S.S.D.#.r f f I OX X& =                       ",
"            . . M  XM . @         . = ' { ] ] ] ] / ~ a 6 j G.G.G.G.G.P.U.U.fXfXU.G.G.G.j 6 a ~ ..;X%X= =                       ",
"            . . D +XD . .         . >  .f.p.p.p.f.f.f.U X >             lX              J . P f.k.sXk.= =                       ",
"            . . m I C . o         . = F ` ` ` ` ` ` ` Z b n > m     lXrX] I I U tXlX] : n v Z ` [ -X$X XD ; >                   ",
"            . . 5 d 3 . o         . & M N N N x x x x x N b . >     kXyXJ = = > tXkX] . b N x x G OX+X+XoX& @                   ",
"            . . 5 d 3 . .         . > }  .<X2XI % % % % % $ . :     kXkXrXrXrXrXlXkX] . $ * * $ Y 1.1XeX1X> =                   ",
"            . . 5 d 3 . .         . = ) i.m.6X! 6 t t t t t t u   %XyXyXlXzXzXzXlXyX} t # . . . H  .p.6Xl.> =                   ",
"            . . 5 d 3 . .         . @ = > > > 6.C.V.V.V.V.V.C.6.= = : K G.K.'.fX/ : 6.C.j . . X @ > > - :                       ",
"            . . 5 d 3 . .         . @ p s s s y.W.W.W.W.W.W.W.u.h p . t V.D.[.'.T . q.W.6.T T T u . . . =                       ",
"            . . 5 d 3 . .         . - y.S.S.S.(.].].].].].].]./.S.w.@ t C.J.[.'.T . n.}.].'.'.].r.X . . $                       ",
"            . . 5 d 3 . .         . - y.S.6.#.!.}.].].].].].}.[.^.u.= - ^ 7.2X2XH . n.hX].}.].}.Y.=.=.=.^ y                     ",
"            . . 5 d 3 . .         . - Z.A.p . n.hX}.}.}.}.}.}.}.hXI.> $ x N XXOXn . n.hX}.}.}.}.}.}.}.hX~.- =                   ",
"            . . 5 d 3 . .           9 j k / / ^ =.=.=.=.=.=.^ r.}._.r.8.m b M A 7.r.7.=.=.=.=.=.=.=.9.^.G.- =                   ",
"              . 5 d 5 o =             = =  .h.H . . . . . . X ! _.].}.~.t . . @ I.|.~ X . . . . . X p C.w.- =                   ",
"                # # 4 7 5 =       $ :  .a.5X8Xj.i.h.k.k.k.k.k.a.T T T a @ . . @ a T a.k.k.k.k.k.) . # s s                       ",
"                = . 4 d 7 . .     9 u j.4X9XqXm.l.6XqXqXqXqXiXj.> > > > > > > > > > h.iXqXqXqXiXp.. @ > >                       ",
"                = . 4 d 7 . . X t w.y.s.f.c.5XP : ) j.k.5X4X5Xc.j.j.j.j.j.j.j.j.j.j.k.5X4X4X5X6X .. y h.,.> =                   ",
"                = . 4 7 5 . @ i h K.K.M.v.k.k.H . ( h.k.5X5X5X5X5X5X5X5X5X5X5X5X5X5X5X5X5X5Xk.p.) y / 5Xk.P K                   ",
"                $ . . . . . p C.J.[.].'.'.v.f.H . ) 4X8XqXqXqXqXqXqXqXqXqXqXqXqXqXqXqXqXiXsX,.@ P k.4XqXsX'.~.i =               ",
"                H H P / / / ~ 6.q.'.}.}.'.a.( J $ /  .l.9X9X9X9X9X9X9X9X9X9X9X9X9X9X9X9Xk.f./ . P B.N.U.~.hX).i .               ",
"            . . E f.m.iXiXsXk.= u _.}.}.'.P .     = . ( 4Xm.m.m.m.m.m.m.m.m.m.m.m.m.4X5X/ . . X j D.D.F.J.].).t X               ",
"            . . E f.k.8X8X9Xh.= u _.'.r.7.K       = . ( 4X5X8X8X8X8X8X8X8X8X8X8X8X8X ./ L       a k 6.S.J.^.!.r.8.K ;           ",
"            . . E f.j.4Xm.4Xi.+ u _.).u X         = . ( 4X6XiXqXqXqXqXqXqXqXqXqXqXqXE .           X s A.S.F.J.]._.a .           ",
"            . . E f.k.9X9X0Xj.@ - ! !                 H L ) k.c.6X6X6X6X6X6X6X5X) P H             X s A.S.F.K.dXdXk.f.L =       ",
"              . U p.k.9X9X0Xj.= . X X                   . K f.j.4X4X4X4X4X4X4Xc.H .             : = a L.A.A.H.0XwXiXiXP .       ",
"                y y y H H H y @ .                       . P k.5X0X0X0X0X0X0X0X9XK .           = H  .a.d.d.d.d.j.j.9XqXL .       ",
"                $ . o @ o . . . $                       . P k.5X0XwXwXwX0X0XwX9XK .           . H  .i.f.f.f.f.h.j.9XqXL .       ",
"                = . 4 7 3 . &                           . L f.j.5X5X4X4X5X5X4Xc.H .               = H p.f.f.j.0XqXiXqXP .       ",
"                  . 4 7 3 # #                         8 8 R x.d.,.s.N.N.b.b.N.N.R 8 9             . J ) ) ) ..h.j.j.j.L .       ",
"                      . 4 d 7 o .                 $ . 0 < %.D.e.< *.'.{.&.&.).'.<.o.0 +               = @ @ @ @ @ @ =           ",
"                      . 4 d 7 o .               > Y P W *.t.^.L.$.>.^.W.>.>.{.].*.q 8 .                                         ",
"                      . # d 7 o +             = . / f.l.4XpXhX(.D.S.S.S.S.J.[.'.T X . .                                         ",
"                      . p 4.@.@ .             = . ..6X7X9Xl.^ 6.S.J./././.^.7.^ ( /  .a.U $                                     ",
"                      X h J.e.@ .             > = p.iXqXqXi.X s A.J.].].}._.u X ..h.8XsX) + >                                   ",
"                      X ! `.P.@ .         = = / ..j.6X .K y X h A.J.].}.}._.u . ..f.c.6Xj.a./ . =                               ",
"                      X ~ ].I.= $         = & ( g.z.<X/ . . X h F.J.[.[.}._.u . ( i.f.j.<X<X} * m                               ",
"                      X h Q.e.@ .     = = b x V S oX@XF . . X h S.D.J.W.}._.u . > > Z S oX@X@XXXD = =                           ",
"                      . h w.6.> .     = . b c v v D .XS . . . h w.w.w.e.I.n.i . . . b v D .X.X.XS . =                           ",
"                          @ >         = . . $ $ $ & & >         = @ @ @ = = @ .     & $ & & & & & . .                           ",
"                                                                                                                                ",
"                                                                                                                                "
};
