/* XPM */
static char *xpm_[] = {
/* columns rows colors chars-per-pixel */
"64 64 244 2 ",
"   c #000000",
".  c #070906",
"X  c #0B0A06",
"o  c #0C0C0B",
"O  c #110F0F",
"+  c #14120B",
"@  c #1C190D",
"#  c #121213",
"$  c #1C1715",
"%  c #1C1A14",
"&  c #17161A",
"*  c #18161B",
"=  c #1B1A1D",
"-  c #211D0F",
";  c #211D13",
":  c #221C1C",
">  c #1F201F",
",  c #26220F",
"<  c #292514",
"1  c #292617",
"2  c #312B16",
"3  c #362A15",
"4  c #332E1A",
"5  c #393318",
"6  c #1E1D21",
"7  c #211E23",
"8  c #232225",
"9  c #272626",
"0  c #262429",
"q  c #29272C",
"w  c #2B2A2D",
"e  c #3A3523",
"r  c #282730",
"t  c #2E2D31",
"y  c #302F33",
"u  c #323134",
"i  c #363539",
"p  c #3B3A3C",
"a  c #453C1B",
"s  c #4D3D1F",
"d  c #463C24",
"f  c #433F32",
"g  c #4D421C",
"h  c #55471D",
"j  c #67561D",
"k  c #78661B",
"l  c #4B4224",
"z  c #49482B",
"x  c #574922",
"c  c #5C5426",
"v  c #535336",
"b  c #664C25",
"n  c #655726",
"m  c #775B26",
"M  c #665C31",
"N  c #5E623D",
"B  c #7D682A",
"V  c #7D702E",
"C  c #65613B",
"Z  c #757439",
"A  c #263946",
"S  c #3D3B40",
"D  c #1C597E",
"F  c #2A5E74",
"G  c #265D79",
"H  c #355D71",
"J  c #34636C",
"K  c #3B656B",
"L  c #35686E",
"P  c #3A6968",
"I  c #3D6B6B",
"U  c #2C6375",
"Y  c #2A627A",
"T  c #336471",
"R  c #3C6A71",
"E  c #444346",
"W  c #5B5E41",
"Q  c #5E6644",
"!  c #45685B",
"~  c #4C6E5C",
"^  c #596C56",
"/  c #4C725D",
"(  c #49745E",
")  c #547355",
"_  c #5B7655",
"`  c #567854",
"'  c #5B7956",
"]  c #53745C",
"[  c #5A765B",
"{  c #55795E",
"}  c #5B7B5B",
"|  c #656848",
" . c #7A684B",
".. c #677648",
"X. c #637B4D",
"o. c #6B7B4C",
"O. c #757A47",
"+. c #666654",
"@. c #6F6D57",
"#. c #716657",
"$. c #657C54",
"%. c #6C7B53",
"&. c #667659",
"*. c #767853",
"=. c #446C63",
"-. c #4B6E63",
";. c #436569",
":. c #436E6A",
">. c #4D7362",
",. c #487367",
"<. c #4B736A",
"1. c #547563",
"2. c #567666",
"3. c #557964",
"4. c #5B7C64",
"5. c #53796B",
"6. c #5A7D6A",
"7. c #426E73",
"8. c #457071",
"9. c #862B3C",
"0. c #B52423",
"q. c #DB0918",
"w. c #D71818",
"e. c #E3011A",
"r. c #CD2815",
"t. c #C93817",
"y. c #D53219",
"u. c #D01B22",
"i. c #D03724",
"p. c #BE611E",
"a. c #9A5C36",
"s. c #B84A27",
"d. c #BA5827",
"f. c #A64F32",
"g. c #A85B33",
"h. c #84672B",
"j. c #8E6A2B",
"k. c #99682B",
"l. c #8B7429",
"z. c #9F752F",
"x. c #836737",
"c. c #9B6635",
"v. c #8A7938",
"b. c #8D7B3B",
"n. c #9B7936",
"m. c #AA672D",
"M. c #B66929",
"N. c #A8712C",
"B. c #BB7D25",
"V. c #BB7529",
"C. c #A26933",
"Z. c #B06630",
"A. c #A77733",
"S. c #B87731",
"D. c #C54E1C",
"F. c #D0461F",
"G. c #C3541D",
"H. c #C75E1D",
"J. c #C5661D",
"K. c #C9761B",
"L. c #D5701F",
"P. c #D54821",
"I. c #C35421",
"U. c #C85026",
"Y. c #C25D21",
"T. c #D35521",
"R. c #C66525",
"E. c #C36C22",
"W. c #C36D2A",
"Q. c #D06F29",
"!. c #C87827",
"~. c #855A44",
"^. c #8F5749",
"/. c #856546",
"(. c #877A45",
"). c #957941",
"_. c #806E51",
"`. c #7C823F",
"'. c #6F8046",
"]. c #6C824E",
"[. c #778544",
"{. c #7B8443",
"}. c #74824C",
"|. c #7C854B",
" X c #7A8A4A",
".X c #6C8355",
"XX c #65835C",
"oX c #6B845B",
"OX c #69875A",
"+X c #768753",
"@X c #748C5B",
"#X c #7A8C5B",
"$X c #7E9257",
"%X c #578167",
"&X c #668462",
"*X c #7F8966",
"=X c #98831E",
"-X c #B99614",
";X c #958528",
":X c #8A873B",
">X c #998637",
",X c #938B3C",
"<X c #95943B",
"1X c #99933B",
"2X c #A38C29",
"3X c #B7852C",
"4X c #BB932E",
"5X c #AA8433",
"6X c #A78935",
"7X c #B88B31",
"8X c #A59338",
"9X c #A49A3B",
"0X c #B29231",
"qX c #B99633",
"wX c #C99417",
"eX c #CBA80F",
"rX c #DAB00B",
"tX c #C8A615",
"yX c #CCA914",
"uX c #D7A419",
"iX c #DCB717",
"pX c #E1B80F",
"aX c #C68927",
"sX c #C59629",
"dX c #CF962D",
"fX c #CEA22F",
"gX c #838341",
"hX c #8C8542",
"jX c #848C43",
"kX c #8A8A47",
"lX c #948743",
"zX c #89934A",
"xX c #999441",
"cX c #92875D",
"vX c #829355",
"bX c #879655",
"nX c #A78940",
"mX c #A39841",
"MX c #959369",
"NX c #B4AA7E",
"BX c #DBAF73",
"VX c #195885",
"CX c #245E83",
"ZX c #226082",
/* pixels */
"                                                        , B !.Q.L.!.h.,                                                         ",
"                                                      a Z.y.w.q.e.w.i.M.5                                                       ",
"                              X . .                 2 S.w.q.q.q.e.e.e.w.V.<                 . . X                               ",
"                    X , s b h.>Xc.a.m x %         X j.s.^.~. .x.f.0.u.u.i.j..         @ g m a.c.n.h.b g < X                     ",
"                @ b j.0X!.s.A.3Xt.d.).qXc         ; V.9.;.&.W *XMX@. . .0.M.;       . M qX).d.t.3XA.U.!.4Xj.x -                 ",
"            + c 7XH.g.(.M.#.+.Z./.;.&.z X         5 Q.9.MXcXl NXBXS.3XS.r.Y.4         o v &.;./.Z.+.#.Z.v.g.R.0Xb +             ",
"          5 N.d.n.M.+.|.*.F kX&.VX2.z             4 W.0.U.U.!.Q.D.r.L.J.r.R.<             z <.CX&.kXG *.*.+.m.n.d.z.5           ",
"        s 5XK.g.+.lXU bXY 2.vXVXR v               + N.w.q.q.i.q.w.i.P.P.r.N.+               v R VXvX2.F bXH lX&.g.K.5Xd         ",
"      g d.C.n._.,.#XU @XVXvX7.ZXQ o                 b T.q.e.e.e.e.e.w.q.T.b                 o | ZXI vXD @XY #X-._.z.C.d.h       ",
"    5 4XT./.{.&.P %XU %XU #XVX2.2                   + j.P.q.e.e.e.e.q.P.j.o                   4 5.VX$XU 6.T 6.I $.[._.T.sX3     ",
"  + g.M.A.&.} +XU 5.R 5.:.6.CXQ .                     + B W.P.y.y.P.W.B +                     . Q Y %XI 5.T 5.Y +X&.&.n.M.k.+   ",
"  j K.g.$.*XK bXG 5.L 5.<.:.<.e                           < b m m b <                           d <.:.<.<.R 5.G vXI #X%.f.L.c   ",
"+ A.3XA.=.@XF @XL 5.;.3.%.,XxX%                         O             O                         ; xXkX.X6.P 5.T @XF @X! C.3Xz.@ ",
"d M.x.hX[ <.8.:.%XI ) ).M.(.Z X                       + d O         O l +                       o Z v.m.).] 7.4.:.8.<.{ hX/.M.g ",
"l.aX).~ vXF 6.T &X/ nXt.f.;.|                         a B @         $ h.g                         Q ;.f.t.6X] 4.T 6.U vX~ ).aXl.",
"C.N.1X>.>.4.T %X=.lXaXr._.CXC                       o l.l.; .     . % l.V o                       Q CX~.t.aXlX=.6.T 4.>./ <XV.N.",
"dXV.O.+XL <.<.P .Xd.c.g.+.CXQ                       2 8Xl.; # o o # ; j.2X2                     . W CX#.g.c.d.}.L <.<.K #XO.Z.fX",
"sX:XzX) 6.7.:.{ ).r.~.%.*.VXQ .                     h 0Xm < $ g a & < m 0Xx                     . Q CX&.#.a.r.).3.:.P %X) zX>XsX",
"K.x.$.#X>.>.5.` aXr.^.K vXU &.+                     x l.3 d 3 =X=X5 d 2 l.x                     # &.F vXK ^.r.7X` 5.>.,.vX' x.K.",
"uX5X.XP 5.4.( '.5XC.g.H 4.[ 1.4                     @ 5 $ ; d b n d % % 4 #                     4 1.3.&.H g.c.8X'.>.[ 4.K OX5XuX",
"aXv.jXvX1.=.3.(.p.+. .&.Y &X) v                     . : l z e 1 < e d l : .                     N ] &XF %.*.+.d.gX{ =.1.vXjXv.aX",
"sX6X*.] } XX$.,XD.^.J +X3.R }.1X<                   o = l MXcXe e MXMXd : X                   2 ,X}.T 1.@XH a.F.lX} XX} ~ }.5XfX",
"2X:X}.vX&X] <.kX3Xm.*.J XX3.] 3Xj.+                 . y 0 e C 5 d C d 0 y .                 + k.3X) 2.XXJ *.g.7XkX>.>.XXvX}.v.>X",
"B S.O.( =.-.:.o.N.+.$.@X>.' |.B.M.h.+                 = E u * > = * y E &                 + B E.B.jX} >.+X%.+.N.O.:.<.=./ O.3XB ",
"5 4X>X XXX3.<.%.d.s.+.;.1.{ [.B.H.W.j.%                 = p 6 y t = p =                 ; j.W.H.B.[.) 1.;.#.s.d.%.<.6.XX|.>XqXa ",
"+ k.M.(..X1.>.' 7XM.c.(.+XXX].0XY.Y.R.A.g o             o 8 6 0 0 : 8 o             + l A.R.Y.Y.0X%.XX+X(.a.M.0X[ 1.3.$.(.d.k.+ ",
"  n aXv.].$.` &.<XA. .^ ) 3.] hXM.G.G.p.W.k.d +         % < 8 y u 0 : %         @ l k.W.R.G.G.M.:X[ ] ) ^ /.5X,X' } X.}.b.aXn   ",
"  @ N.m.).zXOX[ ` S.M.b.}.{ -.$.2XH.G.I.I.R.W.N.h.l 2 , m j % : 6 * j m ; 3 l h.N.V.R.G.G.G.J.5X&.-.{ }.b.V.A.' } .X XlXm.A.@   ",
"    b aX:X[..X{ ) [.4Xa./.*.@X{ o.6XR.D.I.G.G.Y.R.W.V.S.wXiXk 5 5 k iXwXS.V.W.R.Y.I.G.I.G.J.6XX.) +X*.x.a.qX{.) { .X Xn.aXb     ",
"    + n.>X[ P 1.3.' {.V.C...&.} ) X.,XaXJ.G.I.I.I.I.G.p.wXpXiXeXeXiXpXwXp.Y.G.Y.I.I.G.J.3X,XX./ 3._ +.A.!.O.' 1.2.I 3.>Xn.+     ",
"      5 hX*.#X( 3.1.[ jX6Xc.O.$.XX{ { }.>XB.J.G.I.I.G.K.eXyXtXrXrXeXtXuXK.G.D.I.U.R.B.>X[.) ] XX$.*.C.6XjX] ) 1.( #X%.gX4       ",
"        x mX..OX/ 4.) [ *.1X>XgX$.{ $.=.( _ gX5XV.E.p.k.wXeXtX-X-XeXyX-Xk.J.E.V.5XgX' <.=.$.[ $.gX>X8Xo.[ [ 4.>.oXX.8Xx         ",
"          n 9XX.XX` } =.5.` ,X2X:XO..X>.=.5.P >.X.{.lXC 2XyXyXyXeXeXtX2XC hX{.$.>.;.5.I 1..XO.,X8X,X) 3.~ } } OXX.9Xc           ",
"          . M 9X{..X>.&XP 4.( o.1X6XgX}.-.} 3.=.3.( ~ +.B yXtXpXpXtXyXB | ~ <.3.=.3.} / .X:X6X<Xo.~ 3.I %X3..X[.mXc .           ",
"            . x <XkX].[ 3./ 6.,.' |.,X<X1X`.|.' _ } ' W e k =XiXiX=Xk e W [ XX) ' |.gX<X1X,X}.' -.6.-.4.' ].jX1Xx X             ",
"                5 :X9X[.}.oX( OX) >.] X.jX8X8X9X,XgX..f r $ < h h < $ q f Z jX:X9X8X1X{.X.) ( ( XX/ oX}.[.mXl.5                 ",
"                  + c 8X<XjXO.].oX,.} 3.>.' ].[.:X9XM w w & & * & * = r t C 9X,X[.].} >.3.} ( .X].}.:X<X8Xc +                   ",
"                      ; n :X9XhXjX}.X.oX' ' XX{ <.} A u w & & * * = * r i A 3.~ ) XX' } .XX.}.kX:X8X:Xn @                       ",
"                          + d V ,X9X1X:XzX[.}.+X) 1.A p 0 & * 0 0 * & 0 p A 1._  X].[.zXjX1X9X:XB a +                           ",
"                                + 4 c B ;X<XxX9X<X}.i p 0 * 6 u u 6 = 8 S i *.1X9X<X1X;XV c 5 +                                 ",
"                                      . X @ 2 5 l v 8 i 8 = 7 i i 6 * 0 i 0 v l a 2 + X .                                       ",
"                                                & r & y 0 & 0 u u 0 * 0 w * 9 *                                                 ",
"                                                u 8 & q w * 0 u u 6 * 0 q * 0 u                                                 ",
"                                              . S 6 * 0 w * 7 y t 0 * r 0 * 7 p .                                               ",
"                                              . p 8 & 6 r * 7 u u 8 * t 7 * 7 p .                                               ",
"                                              . p 8 & = t * 6 u u 6 * t 6 & 7 p .         . .                                   ",
"                                                i 8 * = t * 6 y u 6 * r = * 6 p       o = 8 > o                                 ",
"                                              . i 8 * * r 6 6 u u 6 6 r * * 7 p     # t 8 = * o                                 ",
"                                                i > * = q 6 6 u y = 7 q & & 8 i   o u 6 & o                                     ",
"                                                u 9 * * q 6 * t y = 7 q & & 8 u   9 0 # .                                       ",
"                                                9 r * * 0 6 = r q = 7 9 & & q 9 . t = X                                         ",
"                                                # r & * 0 7 = 6 7 = 7 0 * & w # # w &                                           ",
"                                                . 0 & & 0 8 = 0 7 = 7 7 * = 0 . 8 0 #                                           ",
"                                                  = = = 0 8 = r y * 7 q * = =   9 > o                                           ",
"                                                  o = & 8 0 * t y * q 7 * 6 o . w = .                                           ",
"                                                  . = & 6 0 * 0 7 * r 7 = =   o 9 =                                             ",
"                                                  . % 8 8 r 6 8 9 7 t 7 7 = o = = O                                             ",
"                                                  # y u t u u w y u y t y y 8 = & .                                             ",
"                                                  o r r 0 w 0 6 7 0 q q q w 8 & .                                               ",
"                                                  . o # O # # o o O O O # O o                                                   ",
"                                                                                                                                ",
"                                                                                                                                ",
"                                                                                                                                ",
"                                                                                                                                "
};
