/* XPM */
static char *xpm_[] = {
/* columns rows colors chars-per-pixel */
"64 64 190 2 ",
"   c #1C0E0A",
".  c #141004",
"X  c #1C1306",
"o  c #171008",
"O  c #1E120C",
"+  c #131415",
"@  c #1C1615",
"#  c #1E1811",
"$  c #16151C",
"%  c #1C191A",
"&  c #241606",
"*  c #281607",
"=  c #231B07",
"-  c #291A07",
";  c #24140C",
":  c #2C160C",
">  c #251D0A",
",  c #2B1C0C",
"<  c #31170D",
"1  c #341B0D",
"2  c #3B1D0E",
"3  c #2D1710",
"4  c #231C15",
"5  c #2B1E11",
"6  c #221C1F",
"7  c #291D18",
"8  c #341C11",
"9  c #3D1E11",
"0  c #2D220E",
"q  c #33230E",
"w  c #3A210F",
"e  c #2E2411",
"r  c #2F241D",
"t  c #332512",
"y  c #3B2413",
"u  c #352913",
"i  c #3C2C16",
"p  c #33241A",
"a  c #3B271C",
"s  c #35291C",
"d  c #3E2D19",
"f  c #151623",
"g  c #1B1A23",
"h  c #15192B",
"j  c #1A1B2C",
"k  c #221F24",
"l  c #1F202F",
"z  c #1D2033",
"x  c #282424",
"c  c #22212B",
"v  c #2B242A",
"b  c #372A20",
"n  c #3B2D23",
"m  c #3A2E2C",
"M  c #3E3125",
"N  c #3C3028",
"B  c #252533",
"V  c #292733",
"C  c #2D2830",
"Z  c #212439",
"A  c #26283E",
"S  c #2B2B3B",
"D  c #362F35",
"F  c #421F0F",
"G  c #43200F",
"H  c #442313",
"J  c #4C2514",
"K  c #422C16",
"L  c #4C2917",
"P  c #442618",
"I  c #4B221A",
"U  c #422E19",
"Y  c #4C2D1A",
"T  c #522716",
"R  c #532917",
"E  c #582A17",
"W  c #542B1A",
"Q  c #5B2C1A",
"!  c #44311A",
"~  c #4B341E",
"^  c #53321E",
"/  c #5B311E",
"(  c #51381E",
")  c #622E1D",
"_  c #63311E",
"`  c #69321E",
"'  c #643A1D",
"]  c #432F22",
"[  c #492A21",
"{  c #433224",
"}  c #4E3620",
"|  c #4E3926",
" . c #453529",
".. c #49372A",
"X. c #47392D",
"o. c #4C3A2D",
"O. c #513722",
"+. c #513622",
"@. c #523722",
"#. c #533722",
"$. c #533723",
"%. c #513721",
"&. c #513721",
"*. c #5B3521",
"=. c #523821",
"-. c #533821",
";. c #533822",
":. c #533823",
">. c #513821",
",. c #543822",
"<. c #543823",
"1. c #553923",
"2. c #553921",
"3. c #553824",
"4. c #553924",
"5. c #563924",
"6. c #573924",
"7. c #573A24",
"8. c #553923",
"9. c #5B3D23",
"0. c #583A25",
"q. c #593B25",
"w. c #593A25",
"e. c #593A26",
"r. c #593B26",
"t. c #583B26",
"y. c #5A3B26",
"u. c #5A3A27",
"i. c #593A25",
"p. c #5B3C27",
"a. c #5D3C27",
"s. c #5A3B26",
"d. c #533C2B",
"f. c #5D3C28",
"g. c #5C3D28",
"h. c #5E3D29",
"j. c #5D3E28",
"k. c #5D3D29",
"l. c #4F3D30",
"z. c #513E31",
"x. c #612F20",
"c. c #643421",
"v. c #6B3422",
"b. c #653C27",
"n. c #613F29",
"m. c #603E2A",
"M. c #613F2B",
"N. c #633F2B",
"B. c #613E2A",
"V. c #6B3C29",
"C. c #723624",
"Z. c #763926",
"A. c #733C2B",
"S. c #56402F",
"D. c #5D412C",
"F. c #544133",
"G. c #564436",
"H. c #554234",
"J. c #594537",
"K. c #5E4634",
"L. c #5E4637",
"P. c #5A4334",
"I. c #524539",
"U. c #594538",
"Y. c #5A4739",
"T. c #5A4739",
"R. c #5F4B3C",
"E. c #5D493B",
"W. c #63402C",
"Q. c #64412C",
"!. c #6A432F",
"~. c #724229",
"^. c #6D4531",
"/. c #674836",
"(. c #604C3D",
"). c #614D3E",
"_. c #6A4A38",
"`. c #764935",
"'. c #2E2F42",
"]. c #303144",
"[. c #644F41",
"{. c #665142",
"}. c #6A5546",
"|. c #6B5646",
" X c #6C5646",
".X c #6D5848",
"XX c #6F5949",
"oX c #705A49",
"OX c #814223",
"+X c #934C2E",
/* pixels */
"~ d ! ! ~ ! u U ! ( ! ~ %.,.q.q.d U 9.} } 9.%.~ } %.%.} M.u.%.~ %.~ ~ 7.3.%.} b } } ! <.$.<.q.q.6.~ 3.u.u.~ h.7.! } ,.h.7.} ! <.",
"~ ~ u u ! i ~ | u 2.! ~ ! %.q.} } ! } i } <.>.} %.7.N.7.%.~ q.M.} h.h.q.,.9.b h r d 7.u.} | ~ ~ %.%.q.q.p.q.} %.7.7.~ W.u.$.>.} ",
"~ ~ ! ( t.~ ~ t.| ( ! ~ ~ ! U ! ! ~ } %.! ~ ~ >.! ( ! U U q.~ %.~ ! %.a r p 4 B '.+ M  . .{ n { } $.N.q.~ h.u.%.$.%.} } } 7.u.%.",
"! 0 i q.9.~ t.~ ! 9.~ ~ } >.U ~ ! ~ h.>.d >.>.>.~ ~ 4 l i d 6 c x g g g g j g g S g M R..X}.R.o. .} u.u.%.} 7.7.u.q.%.} } %.%.%.",
"~ u U ( 2.! ~ ~ u >.} U d u K ! u ! ,.! ~ ~ } 3.q.~ $ z C c Z S '.D V c $ B S B l $ ..R.oX|.XX|.H. .p >.W.%.~ >.q.m.$.q.7.%.%.} ",
"( ~ ! ~ d ! ( ~ U ~ %.7.i >.! d i U ~ 9.N.~ ~ } ~ %.d p r p p % % i p $ f j S V m p <.Y.T.T.|.XXT.J.7.d ! ~ ~ %.} 3.} q.7.3.%.} ",
"! ! d u U ! ! ! d } ! h.,.7.9.d u U %.q.q.! } q.q.( 7.M.%.~ ~ ~ ~ e.~ p 4 % f z C p } L.H.T.{.G.{.K.M...r d ~ ~ ~ } 3.q.3.q.$.%.",
"! d t ! ~ ! ( ( u %.7.} ( ~ U u t t } 7.>.} q.~ q.~ q.u.%.7.,.7.U U ~ 9.~ t . g ].g ~ 7.R.).H.)._.^.N.X.b p 9.7.q.$.%.u.} } 3.h.",
"! t > 0 d ~ i d d 7.u.q.U ! >.i d U 7.! h.M.a.} ~ 6.u.q.9.q.W.~ } 3.3.u p b x j Z g +.$.z.P.z.P.d.u.b.z.l.4 t ! q.%.3.~ ~ 7.3.q.",
"} U u 3 = > > w i h.! ( ~ U 7.7.! U %.%.} q.~ 7.u.%.q.%.~ ~ ( y p 5 5 n ..J.] g v @ ] z.I.W./.I P Y ! P P : 8 9 3 } M.~ ! 3.q.( ",
"~ u u < 2 G : 9 H e } 3.%.~ >.M.! ! $.q.7.3.7.%.6.~ t d ~ i Y H F ; ..J.o.z.n x.+Xv.T.X.l.z.N.d W ( 7.*.b.) ` J 8 : u %.3.7.} ~ ",
"} ~ i , 2 Q Q H J 2 t 3.7.u.q.,.%.} 7.~ ~ 3.u.%.d U +.Y ~ ~ ^ W Y < z.[... .P 9 J 5 l.k.d.d.N.i } 7.u.W C.Z.` Q Q E F a h.q.3.~ ",
"~ ,.~ } i q H J H Q H H M.%.~ 3.9.} q.h.N.h.9.! i q.} P H E H K ~ i ] ..l.F.d.T ) F %.!.9.d.3.d 7.*.} ! J Q J Q E L G y q.%.~ %.",
"! ,.i ! ~ d i u : 2 T J H t U q.q.~ 7.q.W.h.u - K ~ ~ U t i W J P *.K P ] U a H Q 9 a [ [ K K U ~ T W K L H ) H J R H 0 ~ } %.} ",
"i ! ~ ~ ! d q.U e u 8 T Q W R y K } b.!.} 8 9 W *.W K u t 0 > t W W J R ) E J E W H T Q Q R Q h.~ 2 H H 5 : H _ R E ^ > i ! W.h.",
"7.i ! %.q.! } } i q.] : < Q Q E P y } ~ y P J W J 9 , u } 7.~ > < J H R E J Y F T ) v.c.Q v.Q q.a.P 2 ; ; > < ^ ~ E J - d ~ h.} ",
",.} ! ~ ! >.t.! U q.W.} ; : H Y ^ *.U K ~ Y w w 1 ; d p.7.! ~ ! , 2 Q *.Y E E ) v.C._ Q Q E Q Q R 1   t >.d X P %.W R q ! ,.~ ~ ",
"~ d i ! ! t.7.>.d M.~ ! ! U : 2 d W.q.( ,.L 2 : > } h.9.! ~ ~ <.U : ~ 9.<.q.E / v.A.C.) v./ c.T J : O U >.} = 8 b.%.~ p >.,.q.,.",
"~ d u i } ! ! } ! >.~ ~ q.q.a 8 y ~ i u K 1 - d ~ } h.%.~ ! ! 7.u.1 t W <.p.E ` ) v.v.Q Q Q v.T U > t 9.} 7.t > 3.Y ! L q.N.h.9.",
"W.,.i t i U } ~ ~ ,.>.! $.3.,.9.w 1 > > , - d %.h.<.$.q.7.7.<.} 9.! > u %.%.^ ) E ) c.Q E J J ( q > U u.9.,.! = ! ~ W y u.h.} 3.",
"~ 7.%.i ! d ! ~ d %.t u } 7.~ 3.3.+.i i ~ ( q.%.h.h.7.~ 7.q.u.} } $.e = ~ L E P Q ) x.c.) H Y d 0 q ! q.N.u.~ > ~ ,.y < ~ u.q.3.",
"U $.! u >.} ! >.! h.d U $.! } } m.~ u.N.b.q.%.%.7.! ! } %.>.} 7.} ~ ! , J T J Q *.Y W x.R Y ~ ! 0 u ~ u.7.p.} , %.*.J : d q.~ ! ",
"%.>.! e ! ~ ! ~ d <.7.7.} } 9.7.~ i 3.3.7.q.3.q.u.~ >.} ! 7.q.} q.%.~ t q *.Y b.} $.u.3.*.x.W 6.t q 7.%.! h.d.0 U ^ u.1 t 9.U U ",
"} ! } u ~ ! } 9.! ! } } ! U ~ >.%.i %.3.%.7.u.$.u.u.%.7.%.7.$.$.3.%.9.! ; 3.m.3.7.} 6.*.E T J H : t q.u.u.^.Q.w L U %.Y H W.d U ",
"%.d u u ~ ,.9.9.! ! ! ! ! ! %.~ ~ i ! %.3.u.M.q.>.7.$.q.7.} ~ $.3.} 7.K   t ! ! ~ U P Y d a a s ; 0 h.h.} %.u.t F ^ ( K 8 7.~ } ",
"Q.~ u e ( d ~ ~ ! <.! i >.~ d } %.~ } u.u.%.7.h.%.%.u.N.u.} ! ~ >.} 7.~ # M | ~ 3.%.~ W.d.P.d.z.s q %.u.u.%.%.5 2 _ ~ d t h.7.>.",
"7.! ! u d t ~ 7.d >.7.d ,.7.} ! } U ~ h.7.%.%.3.! } M.Q.%.3.u.7.h.7.%.} e ~ h.D.N.u.d.d.d.6.h.d...e ~ N.u.%.u.! 1 R J H y | >.~ ",
"t.! u u d u d ~ i ! ~ d ~ d d ~ ~ ~ 7.7.%.7.3.%.3.%.3.q.%.q.} %.~ 9.3.p > | %.h.d.n l.E.z.z. .{ n 4 3.h.^.M.3.d ; T G w , ~ ~ ! ",
"7.i u i >.~ ,.! ! 9.} ~ ! } i } %.! } %.,.} U ~ q.%.! ~ } %.! } ~ 9.| 0 U $.%.~ } ] z.o...z.l.z.N # ! p.e.} %.U 8 Y W H : h.~ 3.",
"M.! i u q | %.! i } ! ~ ! <.! $.~ ~ ! 7.7.q.} $.3.%.h.,.7.~ $.7.%.Q.~ X ! W.<.7.+.| 3.| l.z.T.] { 1 0 u i ~ 6.} a.E J Q 8 d p.q.",
"%.~ i 0 d ~ 7.( i ~ d ~ q.7.3.q.%.} U $.M.h.$.q.~ ~ a.u.%.u.h.%.~ 9.! u s z.F.l.R...l.X.z.E...W c.c.L W ~.~ a ] / ) T Q P 8 Y +.",
"3.~ U u ,.! d ( d ~ } q.! d U ! ~ $.! 7.7.q.} 7.u.~ ~ 7.} <.q.u.7.q.d d.n M X.l.z.R...z.z.X.Y I d U Q Z.OXq.a y F Q E E H F Q P ",
">.~ i 0 } } d ! %.~ 7.p.d ! ! } h.q.U ! %.~ %.u.$.h.u.q.~ u.%.%.7.7.U P. .s H.[.z.G.[.Y.X.F.n [ / / 8 : J K 5 < ; 8 9 8 < 0 ! q.",
"9.>.~ q ~ 7.~ ! ~ ! %.} ! %.%.} ~ ~ U q.%.} } %.7.u.u.u.%.%.7.} 7.} ~ L.z.p n F.S.d.F.F.z.X.T.X.I.X.b e y q.%.d u u U ~ ~ D.q.7.",
"~ ~ ~ i t | i U ~ 7.7.} ~ d 7.%.} h.~ q.h.q.%.7.N.p.%.q.h.M.M.q.} d ~ 9.,.! e d !.9.{ G.R.H.J.o.R.I.F.{ s ~ ~ 9.m.3.~ u.h.h.9.$.",
"! d d 0 u d } $.! ~ u ~ ~ i <.%.,.~ d q.N.~ ! 7.d h.^.u.%.3.h.7.U u d.d.i ! | p p M T.R.F.o.J.F.G.l.R.E.i U ~ } u.u.3.~ N.7.%.} ",
"~ u 0 u e d 9.} u ~ U ! t i } ~ ~ } ! ~ ! } } $.~ } h.h.7.q.h.7.! d <.n { 7.| <.z.m  .F.Y.T. .R.R.z.G.o.<.i } ~ <.<.$.} %.~ %.} ",
"7.~ u ! U i 7.7.~ >.<.~ i ! } } ~ h.%.h.~ } U N.7.} h.p.} ! ! 7.! ! | o.l.{ ~ o.l...n n  .F.M n J.d.} %.~ d } %.} u.7.<.! %.} 7.",
">.! i u i ! ,.~ } d ~ 7.7.U i <.} ! ! %.N.N.3.7.$.$.h.<.~ 9.t.( p  .E.d.<.~ ~ d.$.d.d.d s d S.h.~ ~ | { d d u q.p.%.p.9.~ k.$.$.",
",.! u d d ~ N.M.! ~ %.} q.>.~ } ~ 7.~ ! q.~ q.~ } %.q.7.7.h.t.d  .o. .....{ { <.a.U d.,.! u u y y p 7 a U a q ! q.h.$.h.h.7.p.q.",
">.d i ! d ! D.9.>.9.$.$.! %.<.h.i } ! 7.} i ! <.~ 3.q.3.3.7.| q 1 J 1 ; : : O X , u d 0 p ! 0 . , 2 2 F H E y 0 } W.q.3.N.u.k.u.",
"! d d 9.( ~ ,.~ ! 7.} } ! ~ <.h.~ ! U ~ } i ! } d.$.3.m.m.q.~ < T Q Q J E H & p ! ~ u.9.h.h.>.~ d U Q _ R E K > } q.q.%.7.^.<.} ",
"~ ( U ! i ! ~ ( K >.,.} h.<.h.} %.! i $.( U | ,.7.7.~ %.3.6.%.1 F L E E E w > Q.q.} M.7.7.} 7.W.p u K Q J W L * %.! >.u.u.u.} 7.",
"U ( d U ! i <.9.! } } } ~ } 7.q.>.%.! } 9.d ~ ,.3.%.~ } a.a.t : J Q E E 9 & ~ u.u.a.M.d d 7.} p.~ K 9.V.) ' / 2 ! %.! u.q.q.q.~ ",
"| } d >.~ d ! D.! } p.~ } ( 7.! 7.~ U ! ! u } } %.7.} $.7.q.a 9 v.) T J 1 , ~ ~ %.3.7.U ! } $.7.9.! ! E W Y E P ~ ~ } ~ %.~ } 7.",
"( ~ ! 9.} ~ } 7.! 7.q.} q.>.! ! ~ } } %.U u ! >.q.} 7.7.%.,.y H v.Q R G 1 > ~ %.~ ,.q.7.h.7.N.7.~ i t V.h.%.7.U i 7.} 7.7.$.} u.",
"! ~ d 9.~ ! ! ~ } ~ } ! ~ ~ ! ! d } 3.%.! q.q.$.7.<.~ 7.7.d y T T J J : > e %.,.>.q.%.%.} ~ %.u.~ ~ d q.`.^.Y y e i <.7.7.h.%.%.",
"d ,.u ! ! d ~ ,.U d ~ ~ ! ! d i U >.~ 7.%.! >.<.h.7.7.<.7.y - E H J J < , U ! %.h.%.} %.~ ~ } } ( h.~ w Y 7.d ~ t q p.h.q.u.} $.",
"U 7.u u i ! ( | ( 9.<.} ! } } i d >.~ 9.>.d ~ M.9.7.u.} q.P J ) J T J 2 y 7.%.~ %.%.~ ~ $.$.~ } 7.t.! > 9 ~ %.Q.q.d %.M.q.7.%.M.",
"u d ~ ! u ! ~ ! u ( ! ! h.p.| u ~ ~ ! >.! ! ~ ! ~ 7.N.%.} L Q E E Q T J i ! ~ M.7.~ ~ } } %.u.! <.p.>.d Y %.~ u.!.~ d Q.~ %.3.M.",
"! i ! ! u d ! ( ~ } >.t.~ ! ~ ! K ~ U U ! ! ~ ~ ! 3.7.7.*.H R J E E T T t ~ U %.! ~ 7.~ ! 7.q.d ~ $.! u i a.,.!.c.Y u ! ~ q.3.~ ",
"i ! ! ~ ( ! | ( ~ <.! ! i u d ~ u ~ i u ! ~ >.%.q.3.! | u : J Q ) _ J 1 i ~ ! q.%.%.! ~ M.N.7.} } ~ %.9.~ ( / Q Q J i t 7.3.3.%.",
"u ! i i ~ d i ( ~ ! ~ >.! 0 U 9.~ %.! U U ! >.! } 9.} | > * 2 T Q J H y $.3.} 7.7.3.%.7.u.M.M.7.<.>.q.7.~ u K J ) R 1 t q.M.,.,.",
"U d ! ~ ! ~ ! ~ d ! >.d u ~ } ! 7.q.! } ~ %.9.~ ~ h.h.! t q - H E 1 1 ~ %.} 7.7.%.%.~ ~ q.q.%.q.! 7.M.~ } i w ^ J 9 F 8 ~ %.%.~ ",
"( ! d i u d u ! ! d ! i d i ! d %.>.} ! d } M.q.h.7.} ! u K ( U H y ~ q.} } 7.>.7.Q.N.7.q.} } q.~ ! %.} } ! y P P Y H : 7.9.~ >.",
"~ d d i i ! i ~ ! ! t.>.>.! i ! ~ d U ~ ~ ~ } 9.u.%.p.! ! ~ ~ U i t 3.3.7.} 7.! >.h.u.h.} 3.%.%.~ ~ } >.%.%.i t ( 7.J 9 ~ ~ M.%.",
"u ~ ! ! ~ ! ! ~ ! ( >.! i d ! i ! ~ ! ~ %.~ >.h.p.h.~ d d W / u u d } } 7.u.q.h.u.} ~ >.7.} $.7.} ~ ~ ! >.^.7.t d ~ E J y ~ h.~ ",
"u ~ ~ ( ( ! ! ~ u ~ 9.i i u d d >.%.! ,.~ ! ~ q.~ ~ ! i ! K E ~ 0 ( 9.7.%.} %.~ $.q.7.%.7.~ } 3.h.u.%.~ } q.%.i t ~ L P > ( ~ ! ",
"u ( ~ d ~ i ! ! d ! ! u i ! ( 2.d ( ~ ! ! ,.q.} ~ ,.~ 0 Q *./ > i ! >.h.q.} q.~ u.7.%.} } q.} } >.>.~ } h.! ~ ~ q ! %.L J U ,.! ",
"u d ~ u u i ~ u d d d u ~ ~ i ! ~ >.~ ! ~ q.! %.~ ~ u w ^ ~ w > ( ! ~ >.9.~ ! U q.h.$.7.%.3.3.%.} U } M.~ ! ( K * t ^ ` H ~ 9.q.",
"i ! ! i ! ! ! u i ( ~ ~ i i e u ! ! i d u %.,.7.} t : L 6.! : P ~ ~ %.~ ! ! ! ! %.u.7.$.} 7.7.9.} ~ d 9.,.i i p 1 W Q J 2 Y +.3.",
"d d d u u i ! ! d ! ! ( ! u u i U ! ~ ! ! ( ~ | ! q J *.M.i 0 u ,.~ ,.U ! 7.$.} %.} u.k.7.$.$.} ~ 7.~ } a : - H H J T H 1 * U U ",
"i i i i d ! ~ i ( ( ~ d ~ ! ! ( U } >.>.u ~ U y L 3.M.9.( u ! i } p.q.} ~ <.p.} 7.q.h.Q.7.! 7.u.<.} U H 9 I E E ) T H J : y %.~ ",
"i u i u 0 i i d ( S.~ d ~ 9.d ! u i i ! , - y W *.%.$.U ! U ! t ! p.h.,.| >.p.p.u.u.q.h.! 7.~ } } i 9 H L H T J 9 : y y y K %.3."
};
