/* XPM */
static char *xpm_[] = {
/* columns rows colors chars-per-pixel */
"64 64 212 2 ",
"   c #070700",
".  c #090903",
"X  c #0F0F0F",
"o  c #110D04",
"O  c #1A0F05",
"+  c #100F0F",
"@  c #0F100F",
"#  c #1C1506",
"$  c #1F1804",
"%  c #13110E",
"&  c #1B140C",
"*  c #1E190C",
"=  c #0E0E10",
"-  c #100F10",
";  c #0F1013",
":  c #141312",
">  c #1A1612",
",  c #151A12",
"<  c #1C1C13",
"1  c #15141C",
"2  c #1C191A",
"3  c #23160C",
"4  c #2B170B",
"5  c #241A0D",
"6  c #2B1B0E",
"7  c #331C0E",
"8  c #3B1E0E",
"9  c #241C13",
"0  c #2B1D11",
"q  c #211D1D",
"w  c #281D18",
"e  c #341E11",
"r  c #3C1F11",
"t  c #1B2216",
"y  c #1A251A",
"u  c #2B210E",
"i  c #252115",
"p  c #2C2215",
"a  c #242319",
"s  c #2C241B",
"d  c #252A1F",
"f  c #2D2A1C",
"g  c #332413",
"h  c #3B2213",
"j  c #362815",
"k  c #3C2D16",
"l  c #362419",
"z  c #332A1B",
"x  c #3D2C1A",
"c  c #36301F",
"v  c #161620",
"b  c #1B1B26",
"n  c #1D1D28",
"m  c #201F26",
"M  c #2A2325",
"N  c #22212C",
"B  c #29242C",
"V  c #332924",
"C  c #392B22",
"Z  c #372B28",
"A  c #3B2D2A",
"S  c #253023",
"D  c #3C302F",
"F  c #252531",
"G  c #292730",
"H  c #2B2A35",
"J  c #342E35",
"K  c #352F37",
"L  c #3A3134",
"P  c #37333E",
"I  c #3B343C",
"U  c #432213",
"Y  c #4D2615",
"T  c #402E17",
"R  c #412F1A",
"E  c #4D281A",
"W  c #502715",
"Q  c #532816",
"!  c #552919",
"~  c #5B2C1B",
"^  c #44311A",
"/  c #4A341D",
"(  c #4C3818",
")  c #5D331F",
"_  c #622F1D",
"`  c #622F1E",
"'  c #66311E",
"]  c #64391D",
"[  c #482F26",
"{  c #552E21",
"}  c #592F23",
"|  c #443223",
" . c #4E3522",
".. c #4A352B",
"X. c #49362C",
"o. c #513622",
"O. c #5D3321",
"+. c #543924",
"@. c #593B26",
"#. c #543A2B",
"$. c #5C3C2B",
"%. c #443533",
"&. c #443639",
"*. c #4C3A39",
"=. c #523B35",
"-. c #583E34",
";. c #673120",
":. c #643221",
">. c #6A3321",
",. c #6D3422",
"<. c #6E3422",
"1. c #653B23",
"2. c #713623",
"3. c #733723",
"4. c #723624",
"5. c #743724",
"6. c #753824",
"7. c #763825",
"8. c #793927",
"9. c #7A3927",
"0. c #773B2B",
"q. c #7A3A28",
"w. c #7D3A29",
"e. c #7D3B2A",
"r. c #7F3B2B",
"t. c #69401E",
"y. c #7E5A1E",
"u. c #58442D",
"i. c #574237",
"p. c #63412D",
"a. c #6D4A2B",
"s. c #7D532A",
"d. c #624234",
"f. c #6B4734",
"g. c #6B4C3C",
"h. c #764E3D",
"j. c #333142",
"k. c #3C3642",
"l. c #3D394A",
"z. c #423943",
"x. c #4C3D43",
"c. c #423C4B",
"v. c #564443",
"b. c #52434B",
"n. c #4B4251",
"m. c #444259",
"M. c #4A455B",
"N. c #4C485C",
"B. c #504652",
"V. c #694F49",
"C. c #775445",
"Z. c #795444",
"A. c #725349",
"S. c #7D5A4C",
"D. c #484869",
"F. c #534D66",
"G. c #56506A",
"H. c #56577B",
"J. c #813C2C",
"K. c #833D2D",
"L. c #863E2E",
"P. c #883F2F",
"I. c #805B1E",
"U. c #89422E",
"Y. c #88482D",
"T. c #924E2F",
"R. c #8B5426",
"E. c #97592C",
"W. c #894030",
"Q. c #8D4232",
"!. c #8E4232",
"~. c #914433",
"^. c #924533",
"/. c #964932",
"(. c #964833",
"). c #9C4D33",
"_. c #9E5131",
"`. c #A25332",
"'. c #A75931",
"]. c #AA5D30",
"[. c #8D6429",
"{. c #93652B",
"}. c #987126",
"|. c #AF632F",
" X c #B1652F",
".X c #B56B2F",
"XX c #B86E2F",
"oX c #AE7827",
"OX c #B37C26",
"+X c #BD752F",
"@X c #BE792E",
"#X c #AD6030",
"$X c #B46930",
"%X c #BB7130",
"&X c #C27B2E",
"*X c #815D4C",
"=X c #896659",
"-X c #916F63",
";X c #B48325",
":X c #BD8228",
">X c #C68F27",
",X c #C6822D",
"<X c #C9852D",
"1X c #C6892A",
"2X c #CD8C2B",
"3X c #D08F2C",
"4X c #CA9129",
"5X c #D1922B",
"6X c #D59A29",
"7X c #D89E29",
"8X c #D9A427",
"9X c #DCA528",
/* pixels */
"X = % X = % X @ X X X X = = X X = X = + X % % % # - > > , i p 0 4 4 3 3 # & : : = - - = = - @ @ X X = @ X X X X X X % X = X X = ",
"X X = X X X = X @ = X @ % X X @ = : + : : 9 4 3 3 3 9 0 0 0 e 7 4 7 7 7 7 5 5 6 6 9 3 > : : : % X X X X X @ @ X @ = = X X @ X @ ",
"X @ X @ @ X @ = X X X % % , , > 3 3 9 5 5 e U U U U ! ! ! ! W ~ ~ ~ ! ~ ! U U U U e e 0 < , > & & 3 % : @ @ X X X X = X X X X X ",
"X = X X - X X @ X % : < & < < 9 e e U U ! ~ ~ _ _ _ >.>.>._ ,.,.' ' ' ' ` ` ' _ ~ ! ! U h 7 6 0 e 6 < , % % + + X @ @ X = X @ - ",
"X = @ = % X @ = : 5 6 6 6 0 8 U ! ! _ ;.;.,.;.,.,.4.3.3.,.,.,.,.,.,.,.,.>.>.3.>.>.,.>.>.;.~ ! U 8 e 9 9 * 3 % + = X X @ % @ X X ",
"X % X X X = @ : < 0 p 8 U Q ~ _ >.>.,.4.4.5.5.5.3.8.8.8.7.7.5.5.5.5.8.5.8.3.3.3.4.4.3.,.5.,.;._ ~ Y r 7 3 3 & % % @ X = X = = X ",
"= X X X X X : < i g U Y _ >.3.3.,.5.5.5.5.5.q.w.5.8.q.q.8.w.8.w.8.9.8.8.5.8.q.5.5.8.5.5.5.3.3.3.3.' ~ W U 7 5 6 : X X X % = @ X ",
"@ X = @ X % 6 r U Q _ ,.3.3.3.7.q.w.w.r.5.w.J.K.w.w.w.w.w.J.w.J.P.J.J.w.J.w.w.w.q.w.q.q.w.5.8.3.3.3.3.,.] Q 8 8 < % X = X @ X X ",
"X X + X + # 7 Y _ 3.3.5.3.5.3.8.w.J.w.J.K.K.P.P.K.!.P.W.P.K.K.P.!.!.J.J.P.~.!.K.P.J.w.w.J.w.J.w.7.5.q.q.q.,.~ Y g < + + + X X X ",
"X X X : 3 8 W ;.4.8.8.w.J.w.w.w.J.J.w.J.P.P.P.P.~.~.~.^.P.!.~.~.!.!.!.U.!.!.!.P.!.P.!.P.P.P.K.P.J.w.q.q.q.q.4._ W 7 3 & + X = X ",
"X + : 5 r Q ;.q.J.w.w.J.J.w.J.J.P.P.P.P.P.~.~.~.~.~.^.^.(.(.~././.~.~.~.^./.~.~.~.~.~.!.P.P.P.P.J.J.J.J.w.q.q.w.,.Q 8 4 & - + X ",
"% > 0 r ~ ,.w.w.J.J.J.P.P.P.!.P.^.P.^.~.(.(.~.(.(./.(.).).).).).)._./././.)./.)./.~.~.~.(.~.^.P.!.!.K.J.J.w.r.J.w.' Q h 0 & + = ",
"# 3 4 Y _ 8.w.J.K.K.P.~.~.~.~.!.~.^.(.).).).).).`.).).`.'.).).`.`.`.`.'.).`.).).).)./.).(.(.(.^.~.!.W.!.!.W.K.J.e.q.~ Y 0 6 & + ",
"3 4 r ! 3.J.K.P.P.P.!.^.~.~.)./.).).).).).`.`.'.].'.].].|.'.'.'.'.].#X].'.'.'.'.'.`.`.`.).).(.(.~.~.~.~.~.!.U.K.J.J.4.~ U p 3 & ",
"% 5 W ;.J.J.K.P.!.!.^.^./.).).).`.).`.`.`.'.]. X#X X X X X|. X X X X X].#X X'.'.'.].'.'.`.`.).).^.)./.!.~.~.W.K.W.K.w.>.! p < < ",
"y a ! ,.P.!.!.!.~.^./.~.).).).`.].].'.`.]. X#X X X$X X%X.XXX+XXX X.X.X.X+X.X$X X X].].].].].`.`.'.'.)./.(.(.^.!.!.W.J.,.! 0 9 , ",
"y a ! 3.J.!.~.~.~.).).).).`.`.|. X|.|.|. X.X.X&X.X XXX+X+X&X&X+X+X&X&X+X+X X+X+X.X X.X X X#X X'.`.`.`.).).).~.^.~.P.K.,.~ r 8 i ",
"e 0 ~ ,.W.~.~.~./.)./.).`.'.].|.|.|. X.X X.X.X&X&X&X&X,X&X&X&X&X&X+X+X@X+X&X+X%X.X.X+X.X$X X X].].'.'.`.)./.(.^.~.(.!.5.~ r 8 h ",
"p 6 ! 3.W./.~.).).).`.'.'.`.#X|. X.X.X.XXX&X&X&X2X<X<X5X3X3X<X5X2X,X<X<X,X&X&X&X&X+X&X+X%X+X$X X X].'.'.'.).)./.^.^.P.5.~ 8 e g ",
"< 9 g _ w./.).).).`.`.'.|. X X.X.X&X&X+X&X&X&X5X2X:XOXy.I.OX6X8X7XOXI.I.OX@X2X<X<X&X&X&X%X&X&X X X X'.'.`.`.).).).(.w.' g i 0 < ",
"e 3 w { 8././._.'.#X].#X X.X X%X&X&X&X&X<X<X5X1XI.k g > * ( oX>XoX( 5 , p k y.>X<X<X,X,X&X&X%XXX X$X X].'.'.`.)./.~.8.O.7 < t t ",
"6 9 e h ~ J./._.].#X]. X X.XXXXX&X&X&X<X<X2X>Xs.a t / j f z A X.C C s l ( i a y.5X5X<X<X,X&X&X+XXX%X X X X'.'._.).J.` r e g 9 5 ",
"9 w p p p ;.J.).]. X|.|.|..X+X+X&X&X&X2X<X5X1XI.| M z ^ Z | D I D C Z ^ f M ^ R.4X2X2X<X<X&X&X@X%XXX X X X].`._.U.' e 0 e e 0 : ",
": 9 9 5 5 i ;.U.`.#X X X X X+X&X&X<X3X5X5X6X7X7X;X+.D D P l.m.D.m.l.P D Z u.;X9X9X6X6X2X2X&X%X%XXXXX$X$X X'.`.U.' 7 4 e e 6 % + ",
"X : 3 * 3 < p ;.W._.]. X$X+X+X%X&X&X3X3X5X6X7X}.u.=.o.%.&.z.c.m.c.x.&.%.o...u.}.6X8X5X2X&X@X%X&X+X+X.X$X]._.U.;.6 3 0 g 6 & - - ",
"X = = , 9 9 3 6 E 0.~.`.$X%X+X&X&X<X1X3X5X7X>Xs.%.=.$.k.N.F.B.i.B.F.M.k.-.=.%.s.<X6X5X5X2X&X&X%X+X X#X`.~.q.E e & # > > % - + = ",
"= X = - & 3 3 * 5 p { e._.'.$X%X&X&X<X<X5X7X4Xa.I x.d.l.D.H.G.A.F.H.D.l.$.x.I a.1X6X5X4X<X&X&X&X%X].~.w.{ 0 3 0 4 4 % - = X + X ",
"X @ % = - & 9 4 5 9 9 g o.U./.#X+X&X,X&X<X2X1X[.-.z.b.x.n.D.D.A.M.D.M.b.b.z.i.[.>X5X<X4X<X&X%X#X).w.} p w < & & 9 3 - - X + X = ",
"X X X @ = @ % 0 0 3 9 9 < s / ;.Y.T. XXX,X<X2X5X@X{.V.A.h.v.i.i.v.i.h.A.g.{.1X5X5X1X<X.X#XT.U.@./ p 9 9 i t < & % X ; = + X X - ",
"@ = X X X X X : w 0 9 5 0 3 & 5 i p o.) T.E.%X@X&X,X@X+X{.f d S d z {.@X,X%X%X%X$X_./.:.+.z a y 9 y S y a t < : X @ X X = X X X ",
"X X = = X X = @ & 9 w a a 0 6 i 9 y y t p g ] ;.;.1.p.t.g 5 i f a 9 g ] ] O.+.O.o.l i p 6 9 < t < > 9 < 9 < : X % X X X = X X = ",
"@ X % X = % X X @ X & : , # 6 h k s c c z z j p p a $ * 4 3 & t & # 4 6 6 p a x z g k k p h p 0 * # # O X % X X X X = X % + X + ",
"X X X X X X % : % . . . 5 j ^ @.p.d.g.C.Z.S.C.A.g.g.-.@./ k u u g ^ @.f.f.A.S.*X*X*XZ.g.d.-.@.+.T x 5 o . . % @ @ X X X X X X X ",
"X X @ X X X @ . . . * k /  .$.=.=.L J L %.*.&.L j.c.c.V.h.p.o./ +.f.Z.V.c.c.k.L &.*.%.A K K &.=.1.-. .^ & o . . X @ X X X X X X ",
"X X @ X X . . o * g k x %.J H N n < & i ;.R.O.> o 1 N j.p.$.#.p. .@.d.j.N : + 3 ) R.) 0 & < b B H J %. .^ j p o . . % X X X X X ",
"X @ X X . . 5 T x k V B n b n N N g # 1 Z #.Z , % # & a j | n.*XB.X.x f & # + , Z #.Z 1 % g N N n n n B C | ^ g * . . X X % = X ",
"X X .   . j T T ^ 2 b v 1 : v N P ..9 : @ X = : & p k ^ ..l.G.-XG.l.-.o.j p & = + - = - 9 =.K N v 1 , v b q k k T g . . . X X X ",
"+ X     o k ^ / x 2 1 i g 0 9 1 b J %.C M 2 2 9 p z o.#.K j.N.-XM.j.L $.@.z a 9 q q q C %.K m > 9 j x 9 1 1 ^ ^ ^ ^ o . . X X X ",
"X .     . k / ^ x : 1 k +.+./ k u < n B H B M Z |  .[ N N H z.=Xc.H B B %. . .C B G H G m < u k / o.o.x 1 1 k T T R . .     X X ",
"X       . u k /  .x 9 < g ^ ^ / / k 6 1 n n V #.1...A B B F k.S.k.F B m A ..$.o.M m b , 5 x /  .@.R 0 1 3 g ^ k ^ R .       X X ",
"X         . 3 / +./ / x g p / / ^ k g : 1 1 a ^ ^ ^ j x x A L Z.D Z l R g j k k < 1 1 : k / o./ / g j x ^ ^ ^ k 6 o .     . X X ",
"X           . p ^ ^ / ^ ^ / o./ j ^ x : ; q x ^ k ^ ^ j 3 5 g $.l 3 5 g j ^ ( / x a 1 - ^ +.o.+. ./ o.^ ^ / x 5 . .         X X ",
"            .   o $ k ^ o./ ^ / ^ k k 5 9 R ^ k k ^ ( k k u $ # $ u ^ / ^ ^ ^ / / x 9 0 ^ k ^ o./ / ^ ^ x 5 . .               X ",
"                . . 5 x ^  . ./ ^  .^ ^ k / +./ x ( x ^ / x u $ u k ^ ^ ^ / ( o./ ^ ^ k k T k / ^  ./ ^ 6 .                   X ",
"                      . 6 ^ / +./ / ^ x ^ / / / ^ x ^ ^ k T k g k ^ ^ ^ / / / / / o.^ k ^ T k T / ^ 5 o                       X ",
"                        . 6 / / ^ k / ^ ^ ^ ^  .^ ^ ^ ^ ( k k ^  .^ ^ ^ / ^ / T +.o.k ^ ^ ^ / ^ k 5 . .                       . ",
"                        . . o 5 ^ T k ^ ^ / ^ / ^ ^ ( / / ^ / / k ^ ^  .T ^ ^ / / ^ / ^ k ^  .u .                               ",
"                          . . . p ^ / / / / ^ k ^ x / x / ^ k ^ / / ^ ^ / ^ ^ / ^ ^ ^ T k ^ p . . .                             ",
"                              . X % p ^ / ^ ^ ^ ^ ^ ^ ^ / k ^ ^ ^ ^ ^ ^ k / / ^ / / j k p : X . .                               ",
"                              . X X + p  ./ / R k k k R ^ R T ^ / / ^ ^ o./ R / / ^ R 9 X X X                               . . ",
"                              . X X X X > g ^ R R T ^ j ^ / k T ^ ^ x x o./ / ^ ^ i : @ X X X                               . X ",
".                               X X X X + - s R R ^ ^ x ^ ^ x k k k R ^ ^ ^ x R p % X X X X X                               . X ",
"X .                           . X X X X X X + : % > : > : : : % % : : : : : % : % X X X X X X .                           . = = ",
"= .                             X X X X = X + @ X X X X X + X X % = @ @ X X % @ X X X X X X X                             . = ; ",
"@ X                           . X X @ X % X @ X X @ X @ X X X X X X X @ X X X X X X X X X X X                           . X @ = ",
"= : .                         . X @ = X X = = X X X X = + X X X X X X X X X ; = X X X X X X X             .           . . X X @ ",
"@ = = .                         X X X X X X X X @ = X = X X = X X @ = @ X = @ X X X X @ X X X                         . = = @ X ",
"= @ @ .                       . X X X X X X X X X X X X = X @ % X X X % X X X X = X @ = X X X .                     . . = @ = X ",
": X @ = .                     . X X X X X X X X @ X = % @ X X = X @ X = X X @ = = % X = = = X                       . = X @ @ X ",
"X X = @ .                       X X X X X X X X = X X @ X X X X X = X X X = X % X X @ X % X X .                     . @ @ = X X ",
"= X = X X .                   . X X X X @ - X @ % X X X X @ X @ @ X X % = X @ X % = @ X X X X .                 . . X X X @ X X ",
"X X X X @ .                     X X X X X X X = X = = @ = X X = X X = = @ X % = X @ X @ X X X                     . X @ X = = X ",
"= @ = @ = X       .     .   . . X X @ = X X @ X X % @ X = % @ - = @ X X @ X X X X = = X X X X       .       .   . = X X X X % X ",
"% X X X = = X X X X X X X X = = X X X X % = X X = = X X X X X X X X X @ = X X = X X X X X X X X X X X X X X X X X = @ = X @ = X "
};
