/* XPM */
static char *xpm_[] = {
/* columns rows colors chars-per-pixel */
"64 64 256 2 ",
"   c #010304",
".  c #02020C",
"X  c #040B0D",
"o  c #0C0C0D",
"O  c #0A0B03",
"+  c #110C03",
"@  c #140C0B",
"#  c #180C08",
"$  c #0B110D",
"%  c #15130B",
"&  c #1B130C",
"*  c #181407",
"=  c #030C14",
"-  c #0B0D14",
";  c #030D1A",
":  c #070A16",
">  c #140D13",
",  c #051215",
"<  c #0B1214",
"1  c #04131C",
"2  c #0C141C",
"3  c #0A1A18",
"4  c #141414",
"5  c #151A13",
"6  c #13141B",
"7  c #1B1D1C",
"8  c #191916",
"9  c #27180C",
"0  c #351B0C",
"q  c #241C14",
"w  c #2C1D13",
"e  c #241A19",
"r  c #321D13",
"t  c #381C14",
"y  c #220C10",
"u  c #1B211A",
"i  c #02201E",
"p  c #2D220D",
"a  c #2C2214",
"s  c #23221D",
"d  c #2C241B",
"f  c #2C2B1D",
"g  c #252819",
"h  c #342315",
"j  c #3B2514",
"k  c #3C2B14",
"l  c #33241B",
"z  c #3A261C",
"x  c #342A1C",
"c  c #3B2C1D",
"v  c #312817",
"b  c #2C321C",
"n  c #3B321D",
"m  c #34331B",
"M  c #37220D",
"N  c #0B1823",
"B  c #171B22",
"V  c #1A2627",
"C  c #192D30",
"Z  c #232424",
"A  c #262C25",
"S  c #2C2B24",
"D  c #29252A",
"F  c #232B2B",
"G  c #2C2C2B",
"H  c #272426",
"J  c #342C23",
"K  c #3A2C23",
"L  c #352724",
"P  c #2C322C",
"I  c #29352B",
"U  c #353223",
"Y  c #3C3324",
"T  c #3C3B24",
"R  c #33342B",
"E  c #3C342A",
"W  c #3C3A2B",
"Q  c #353929",
"!  c #2B3B3A",
"~  c #283634",
"^  c #343C34",
"/  c #3B3B34",
"(  c #393734",
")  c #2A2D36",
"_  c #271E21",
"`  c #461D0D",
"'  c #481D13",
"]  c #531D11",
"[  c #442314",
"{  c #442C15",
"}  c #432D1C",
"|  c #4A2E1B",
" . c #492515",
".. c #522D1B",
"X. c #542918",
"o. c #4B3216",
"O. c #44321C",
"+. c #4B331D",
"@. c #4C3B1E",
"#. c #413318",
"$. c #53351C",
"%. c #543B1D",
"&. c #5B3B1C",
"*. c #593619",
"=. c #45220C",
"-. c #623C1E",
";. c #673619",
":. c #783818",
">. c #693114",
",. c #432D23",
"<. c #492D24",
"1. c #433323",
"2. c #4B3423",
"3. c #443A25",
"4. c #4B3A24",
"5. c #43342B",
"6. c #4B3429",
"7. c #443B2C",
"8. c #4B3C2C",
"9. c #533423",
"0. c #543B24",
"q. c #5A3C24",
"w. c #533D2B",
"e. c #593929",
"r. c #443C33",
"t. c #4B3C33",
"y. c #443B38",
"u. c #533D32",
"i. c #573E35",
"p. c #532D23",
"a. c #633D24",
"s. c #663A23",
"d. c #29433B",
"f. c #3A433B",
"g. c #3D4B3D",
"h. c #354438",
"j. c #3B4831",
"k. c #56421D",
"l. c #40401E",
"z. c #69431C",
"x. c #794417",
"c. c #4C432D",
"v. c #49432A",
"b. c #544124",
"n. c #5C4325",
"m. c #53432B",
"M. c #5C432B",
"N. c #54492D",
"B. c #5C4A2C",
"V. c #5B4A27",
"C. c #454333",
"Z. c #4C4332",
"A. c #4C4A33",
"S. c #44443B",
"D. c #4B4539",
"F. c #444C3B",
"G. c #4C4B3D",
"H. c #464837",
"J. c #534433",
"K. c #5B4533",
"L. c #544A33",
"P. c #5B4C33",
"I. c #53443B",
"U. c #544B3B",
"Y. c #5B4B3B",
"T. c #5B473B",
"R. c #4C513D",
"E. c #5D5233",
"W. c #59553B",
"Q. c #5B532F",
"!. c #6A4522",
"~. c #64442B",
"^. c #634B2C",
"/. c #6B4B2B",
"(. c #684826",
"). c #774926",
"_. c #65522B",
"`. c #634D34",
"'. c #644D39",
"]. c #6B4B38",
"[. c #734E35",
"{. c #645234",
"}. c #6B5435",
"|. c #63533A",
" X c #6C543B",
".X c #6B5B3B",
"XX c #675A37",
"oX c #72553B",
"OX c #745B3C",
"+X c #775936",
"@X c #79542A",
"#X c #6F603D",
"$X c #73603D",
"%X c #303D44",
"&X c #493D41",
"*X c #1D565D",
"=X c #2A4243",
"-X c #344444",
";X c #3A4845",
":X c #375547",
">X c #2B5458",
",X c #325A61",
"<X c #346666",
"1X c #31665C",
"2X c #4B4C44",
"3X c #444B46",
"4X c #564C43",
"5X c #4B534C",
"6X c #4C5A4B",
"7X c #465749",
"8X c #585647",
"9X c #495953",
"0X c #5C5E50",
"qX c #6C5B43",
"wX c #645A4B",
"eX c #685645",
"rX c #735C43",
"tX c #735844",
"yX c #665B52",
"uX c #624A45",
"iX c #496758",
"pX c #596458",
"aX c #55614A",
"sX c #6A654C",
"dX c #766748",
"fX c #666855",
"gX c #786B54",
"hX c #7A715D",
"jX c #546C63",
"kX c #476A64",
"lX c #786666",
"zX c #803D13",
"xX c #83461A",
"cX c #834922",
"vX c #85552C",
"bX c #89683C",
"nX c #9A6A3A",
"mX c #97733E",
"MX c #835A45",
"NX c #876A45",
"BX c #8D7547",
"VX c #997B4A",
"CX c #847358",
"ZX c #997E53",
"AX c #9D6B42",
"SX c #807360",
"DX c #658270",
"FX c #9D8656",
"GX c #9A804D",
"HX c #A68952",
"JX c #A78C55",
"KX c #AF9862",
"LX c #BFA45F",
"PX c #D8A35B",
"IX c #C2A85E",
"UX c #C1A766",
/* pixels */
"+.1.0.M.@.m.%.m.n.K.L.P.m.A.|.L.c.B.P.A.`.L.m.b.m.D.b.4.| 2.E o.{ 1.+.+.J.b.8.q.b.L.N.Q.c.P.V.Y.L.Q.Z.Z.N.L.M.n.b.b.N.4.%.4.3.o.",
"D M S ) =.S P { ~ m #.P #.$.! { +.d.Q } ~ K [ ~ 1.j ~ t a C 0 e H 0 C c j C x h P { K ~ } Q -X| } ~ +.#.P +.x ! j / A j G F 0 Z ",
"g.cX6X7XvX6X6XbXiXsXnXjXhXbX<XNXAXiXdXbXiXdXAX<XdXXX:X[.`.:X(.D.C.(.:X`.}.:X#X+X,XAXdXkXbXgXjXmXNX<XbXhXjXnXfXiXBX6X6XvX7X3Xx.;X",
"Q z.Q Q >.W 3.>.%Xj.x.f.C.!.d.M.x.f.t.~.=Xk.z.g.&.%.~ &.%.A >.K c >.A %.*.^ @.&.d.z.k.%X~.T.j.x.n.! !.H.h.x.j.%X;.T 7.:.m T z.U ",
"c :.,.Y :.$.5.:.R %.xXY %.:.R ~.xX6.9.x.^ -.).^ -.*.R ;.-.L ;...p.>.Y ;.s.P *.s.( x.-.^ cXq.5.xX!.P x.q.1.xX$.W :.6.p.zXY 1.:.x ",
"o & @ + > 9 O * @ * y @ 4 q + * & o < 9 o & q @ + & 8 + # + @ + + @ + + % & @ # @ % # 8 q < o & & + & % @ y % o & + & > @ % + @ ",
", N , < 1 4XZ 1 < 1 = = = = < x n $ ; = : : = 2 4 V 4X< = < i < < 1 < , < 8XV < 2 = ; B X : 4 c K 6 = = , = 1 N 2 u 8X, 2 < N = ",
"~ iXd.< ^ qXy.7 bXBXFXZXHXdXB [.oXY sXFXGXVXBXbXB D.8XY 2 %XiXF C iX-X; U wXr.Z bXbXZXGXFXsXK +X(.V sXJXZXZXAXbXB y.qX^ : d.iX~ ",
"g.t.:XV w.8XyX6 0.PXHX;XpXUXV./.@X`.KXfXF.KXPX0.6 8XY.t.V 3X/ h.I r.F.V u.T.8XB 9.PXKX;XfXKX|.@X).m.IXpX;XHXPX8.8 wXuXt.V :Xt.F.",
"Q ;Xh.h.i.1XU.J.^ K.#Xg.g.BX#.7.D.Y bX;X7XXXm.G I.A.<Xu.^ h.D.Q ^ C.d./ u.<XL.D.S I.#X2Xf.bXY D.7.+.BX;X7X$Xq.P U.2X<XK.h.-Xf.U ",
"Y 7.7.E 5.*Xy.4XW.Y.}.4X;XMXn.;Xh.k.+X;XW.{.J._.0.r.*X6.Q f.r.R P T f.U <.*Xr.0.|.L.E.W.g.+Xk.f.-X~.dX;X8XXXL.E.K./ *X5.Y r.C.U ",
"V K A 4 c 5.} 8.(.{./.XXh.}./.^ 7.(..X^ }.oX`./.} ,.<.#.6 R m H d U A 4 } K ,.} /././.XX^ .Xz./ h.(.#Xg._./.{./.2.c E k 4 A Y V ",
"5 S u = L ,.6.0.L.Z.].OXG.U.~.o.M.M.8X2XqX{.Z.I.8.n 2.f 6 u A < 6 f $ < f 5.n c.Z.A.{.rX2X8X9.B.*.a.8X4X.X].i.I.0.5.,.L 2 5 f 8 ",
"n   5 4 8 t.8./.{.|.'.'..XA.[.m.~.OXE.CX.X_._.`.(.o.2.Z 5 $ . 7 B   $ 6 8 4.q./.^._.{. XgXW.+Xq.0.}.L.$X|.{.{./.(.4.1.6 B 4   n ",
"NX: , 2 2 e o .       q B.N.bXk z NXA.L.w .   = . X 4 B 1 < . dXdXX 2 1 = e - . =   . q P.A.NXt l bXL.V.e       . o y 2 B N = NX",
"1.E r.m C.Y n 3.1.1.E m A ) |.U.D.XXI F d r.Y E r.T / 5.1./ f 2.O.S W Y r.W j.E W E C.f S I XXA.R..X) S x 5.E 3.Y m U C.T E E 1.",
"l 4.e.Z.C.8.].U.D.'.W.|.2XpXNXgXqXdXfX8X`.OXU.b.w.Z.J.0.6.7.0.9 0 8.3.6.0.J.Z.w.0.U..X`.8XfXdXdXgXNXjX2X|.W./.G.L.uXK.7.3.M.2.d ",
"a.} K E t.J.+.n.8.8.A.{.P.F.fXeX X8XU.{.qX8.4X0.0.8.8.7.d c | e.9.| c l t.7.3.+.q.T.8.qXE.U.wXeXeXaXG.B.|.D.v.t.(.+.I.8.E J ,.s.",
"| w.c +.%.@.4.0.q.I.7. X].U.4X8XP.G.G..XoX4.8.0.w.8.$.%.4.c r.( Q 8.c w.q.$.4.4.m.8.0. XXXG.8XQ.0X4Xc./.eXy.K.0.8.c.@.$.9.c 8.o.",
"e.q.[ 0 ' ' =.' '  .n.tXyX|.J.5X5XL.P.qXtX`.t =.` ' X.=.0 ' e.6.6.e.| t ` X.' ` ` t '.tXrXP.P.5X5XZ.P.eXtXK. .' [ X.` ' 0 { $.s.",
"9.*.w.s Z H Z F Z S rXoXrXOXL.S.S.M.eX.XtXoXY V S D H s u 3.z.-.z.!.8.s Z H D S Z Y }.tX.XqXm.G.r.L.OXtX[.OXS A ) H D V s 9.e.$.",
"9.9.+.P.P.L.J.B.P.E.'. XrXZ.7 u.G.s t.tX'.Y.^.B.N.J.8.8.Z.O.q.9.0.M.4.8.c.w.c.B.E.`.`.Y.oXu.e 2Xy.7 Z.rX`.}.P.Y.P.m.Y.`.B.$.9.9.",
"| +.#.9.{ 7.Y 1.K.K.t.].+XZ < v.t.- H }.`.P.C.! 7.S Y } 1.1. .9.e.| 1.K } E f 7.! C.P.|.oXH 2 7.w.o A oX[.8.uX`.1.5.5.n 2.} O.o.",
"..+.4.z 8.8.b.t.~.l.K.+Xw.; N 8 5 3 - 8. XV.4.w.M.1.0.&.q.+.o.| | +.{ ~.q.0.4.w.w.4.n. X8.= i 8 7 N , 8.+XL.Z.~.8.b.@.6.,.4.$...",
"r / g.;X2X3X9X7X9X9XiX;XJ f S S A J I c ;XaX7X9X5X7XS.S.f.3X( w w ( ;X/ D.F.5X9X9X9X6X;Xc A S S f f S J :X6X9X9X7X9X5X3X;X3X^ w ",
"z l J x x n K K Y O.E O.t.5.7.5.W u.<.7.5.1.W 1.c n K x l l h z x z l h c K c x 1.Y r.1.3.6.u.T E t.5.t.,.Y } Y Y x Y x Y l x z ",
"x a O.f 3.m @.E K n.,.(.~ M.I L.W.Q B.7.E v.b.f b.J 4.7 a %.d x h d *.g u 4.d b.l P.8.E Q V.( wXU.G b.P [.K n.1.1.4.m 3.S { x Y ",
"+.~.q.q.M.0.M.'./.|.z.dXb..XXXdXBX+XqX/.).P.|.s.'.$.m.2.6.0.$.q.n...%.2.2.M.+.|.a..XK.z.(..X+XNXdX}.sX%.dXz.XXn.{.M.%.K.n.q.~.+.",
"~.t t z  .h 2.w.2.0.J q.J 0.9.Y.'.O.0.2.r 5.*.z $.x { x 2. .r $.$.a  .{ h  .n $.K *.1.l +.w.} ].`.6.0.E *.L q.p.@.<.x ` z  .c ~.",
"p w D w l Y E Y 1.j R O./ { h sXdXG #.m K K h c M J x S x w H J L H 9 w f l U k n j c K Y { Z dXsXx 2.( #.U j 1.x J c l l G a h ",
"9 * 0 l 0 J c h t x z d K h 4X XgXtX0 S h l x w d l 9 h l q 9 9 9 9 e s 0 9 x S h a l x S p  XsXeXW.l x x l x l h l d h x h # 9 ",
"- q `.Y X 2 < - - - o X G & 0XgXCXyXu 1.; o o - - X 6 5 Y M.* = = & M.E X 2 6 - : - - : 3.8 eXCXCXsX5 G X - - , - - - o W P.q : ",
"< q |.E @ N - X = - < $ R 5 0XhXCXwX7 8.: o < - o , 6 = ,.J.9 = X 9 ~.E X 6 2 - - < - ; r.7 wXCXCX0X% R X - - , o - 2 6 E '.s : ",
"9 # 0 z z d h l z h l d x r uXrXsX}.p S l l d r s z p 0 a a & 9 9 # s 9 h K w a w v l r J w }.gXtX4Xr K l x l r h l d c r r # 9 ",
"r w d J x m m J } k U #.( } L sXdXJ #.J K Y h c j E J x a w Z K L Z w x U l G j j j Y ,.x { G dXwXd } ( k W k 1.K J 7.h a _ w a ",
"~.h | l ` x  .9.2.9.l q.E 9.6.{.`.,.9.2.r } $.x q.J { h c X.e $.0.q  .n k o.x o.z $.,.l 4.0.4.'.{.6.9.Y *.J $.<.4.2.x  .z ' M ~.",
"O.~.V.q.B.9.^.^.(.XX!.rXk.qXXXdXNX+X.X(.z.E.{.s. X+.n.+.2.0.*.a.-.o.b.2.,.K.p.].s.{.L.z.(.qX+XBXdX}..Xb.rX(.|.(.`.M.0.T.%.q.a.o.",
"x K | L 3.U O.j.c q.E /.P m.A U.wXP ^.T E C.M.E V.f 4.u a %.w f l d *.a s @.f b.x b.c.Q 7._.( 8XU.S b.^ /.Y V.K T @.m 3.S O.h x ",
"l x L J c J K U Y } 3.1.r.5.t.Y 7.7.| 7.n 6.7.5.K } K K z l h L k j l z c J n K 1.E 1.Y C.9.D.Y 7.7.5.t.} E O.U Y c Y K m L l l ",
"w W j.3X2X5X5X5X9XiX6X;XJ S U S H J I c ;X6X7X9X5X3Xg.D./ 3XR 0 w R ;Xf.H.S.5X7X9X6X7X3XY A x A f I S J ;X6X9X9X7X5X5XG.g.;X/ r ",
"p.w.9.c 8.0.c.u.M.4.W.+X9.N N 7 8 N ; 7.}.B.2.m.w.3.0.q.q.{ $.{ } O.| M.%.q.7.0.K.2.B.].8., N 5 6 N 1 0.+XA.3.`.c.c.8.4.{ 4.| ..",
"6.eXO.2.} 7.Y O.`.P.D.].oXV o 7.r., d oX].P.C.~ 7.S Y c 1.1.} e.e.| } 1.} Y f 7.~ r.K.{.}.D , 8.c.X A }.oXt.M.K.1.Y r.,.+.o.O.o.",
"e.tX9.E.L.L.W.M.T.Y.{.].+XZ.e D.U.s 8.eXP.{.^.Y.M.m.m.4.8.1.q.~.9.q.O.8.m.w.m.N.K._.{.Y.oXu.e 2XD.e c.OX]..XP.K.B.m.J.Y.`.0.9.p.",
"w.rX9.s F H D F P R OX[.tXoXJ.C.S.J. XqXtXtXU s D D F H e 8./.-.-.!.4.7 s F D A V Y oXtXqXqXm.D.D.J.OXtXtXrXS Z D D G V e 9.$.e.",
"e.gX[ 0 ' ` ` [ X.[ ~.tXyXL.C.4X5XL.uXdX X`.t ' =.` ] ` 0 | a.2.4.e. .0 `  .' `  .0 `.tXqX`.L.5X8Xt.'.tXrXn.[ ] t ' ] ` t k q.9.",
"p.fXn 8.2.%.b.b.9.J.r.eX/.U.4X0XK.R.R..X Xw.8.%.8.4.%.%.2.E t.( R u.x 4.$.$.2.c.V.6.8.tX.XG.R.N.8X5XG.].eXv.J.@.0.4.@.%.@.Y w...",
"s.eXL K t.K.7.^.J.7.C.|.K.G.0X8X|.yX4XP.+Xt.I.m.o.3.8.8.x c { q.e.o.K d 8.1.7.0.M.I.Z. X{.G.wX XeXpX2XP.eXC.t.Z.V.+.w.8.E E } s.",
",.yXw.7.7.0.eXJ.D.Y..X|.5XpXNXdXdXdXfX8X`.rXL.b.I.t.8.e.J.3.4.0 0 3.4.6.0.u.L.K.@.U.oX`.8XfX#XdXdXdXfX5XP..XP.Z.U.`.w.W C.M.9.a ",
"t.yX5.T r.E Y 1.1.T 5.L D ) .XA.A.XX~ S J r.E 7.( T Q r.W ( m 1.1.b ( 5.7.U v.r.W 7.r.S A I #XC.A.#X) S S Y Y 3.1.n Y r.3.E E 1.",
"VX%XN 2 2 e - .       q B.m.bXc L bXc.L.e .   = . X q 2 1 2 . dXdX. 2 , - 8 , . .   . q L.C.NXt c NXc.B.q     . . o e 6 3 2 : NX",
"Y V 4 6 B 4.4.^./.{.|.|.#XA..XM.n.+XW.gX}.{._.~.!.%.J.8 4 <   7 7   < 8 7 8.+.(.^._. X}.gXE.+Xq.M.[.A.#X X`.{.^.^.8.t.B 6 %   Y ",
"u r.7 : L <.1.0.D.J.`..XF.4X~.$.V.9.W.5X$X|.Z.U.8.Y 7.x = < b 6 6 g < 2 U 6.c 8.I.Z.}.#X5XW.q.`.@.n.8XF.tX].J.J.@.1.<.x , % f 5 ",
"I 0XA 4 k E ,.O./. X(.XXh..X/.^ r.z.XX/ }.[.^./.} ,.<.,.2 S b H H b S u <.,.,.} /.^.[.XXf.XX!.S./ (.+X^ {./.}._.8.<.( { 8 I J C ",
"L yX/ 7.1.*X/ K.E.B.}.8X;XNXa.;Xh.&.+X;XW.|.L.{.4.r.*X,.U h.3.P R Y f./ <.*Xr.4.Q.P.|.W.;X@Xk.h.;Xn.tX;X8X}.K.{.'.3X*X1.1./ 7.n ",
"U 9X;Xh.u.<XG.D.I 0..X7X:XBXO.v.C.K bXg.6XXXm.S I.A.,Xw./ d.8.R R Z.d.S.u.,XG.A.S L.E.6X;XbXK D.7.O.BX:XF.XXb.~ I.G.<Xw.f.f.-XQ ",
"7XlX:XV J.uXwX8 +.PXHX-XpXUXM.!.@XXXKXfX;XJXPX9.B 8XY.J.V 3XW ^ I r.7XV m.Y.8XB 0.PXJX3XfXKX'.@X!.~.IXpX;XHXPXw.B yXuXZ.V :Xt.g.",
"=XDX=X, ( qX3X7 NXmXGXZXJXdXZ (.[.1.sXJXFXZXBXbXV y.wXU < =XiXF C iX-X2 U wXS.V bXBXVXFXFXsXY }./.Z sXJXVXGXVXNX7 y.tX^ X d.iX! ",
"2 -X2 - , 8XZ , 2 1 = ; = = 3 K E o = = : 2 ; 2 < V 8X4 , 3 N < < i < - < 8XV o 2 ; ; X = , @ K U 6 = = , = 1 2 1 Z 8X1 - - N = ",
"% 2X+ + * & + * o & y > 4 & + & & @ - & 6 q @ @ @ * & o + O + @ # + + 4 o & * # @ # 9 8 & 4 o & % + & 4 > y * @ & + & > @ @ o % ",
",.MX1.Y :.p.4.:.Q $.:.3.&.x.~ a.cX5.q.x./ z.x.P &.-.G s.;.K ;.X.p.>.Y >.;.F ;.-.P x.(.^ x.0.5.cX~.I x.*.Y xX$.U :.1.0.zXY n :.c ",
"( rX7.R >.v.W >.-Xv.).f.Z.z.! &.x.j.L.).=X0.(.=X*.0.~ -.+.S ;.c x >.U +.q.^ %.-.d.!.q.d.!.J.C.xXa.! z.A.h.).7.=X>.v.U :.m W >.W ",
"3XCX2X:XvXR.9XbXiXsXnXiXhXbX<XNXAXiXfXNXkXdXnX9X+X.X:X@X`.:X/.C.C.~.:X^.).>XsX+XkXAXdXkXNXfXiXmXNX<XbXhXjXnXsXiXbX6X7XvX7X7XcX3X",
"A ,.s I  .f A 2.! U +.P O.2.! #.2.^ / #.I U O.F c a ~ a x P t Z s j V x M C p k ~ 2.Y I  .E ~ +.O.~ 4.1.P +.n ~ j P S [ H S #.Z ",
"o.} 4.4.+.m.P.c.n.P.m.B.Z.A.B.L.c.P.E.Z.E.B.c.n.0.v.b.Y 2.0.n { | n +.O.2.m.8.M.b.c.L.P.A.P.B.c.L.^.L.U.N.N.K.n.b.b.0.@.4.v.3.+."
};
