/* XPM */
static char *xpm_[] = {
/* columns rows colors chars-per-pixel */
"64 64 256 2 ",
"   c #050200",
".  c #0B0300",
"X  c #0D0B03",
"o  c #0E0D0A",
"O  c #070903",
"+  c #130500",
"@  c #1C0400",
"#  c #130B03",
"$  c #1B0C02",
"%  c #120D0A",
"&  c #1A0E0A",
"*  c #0E1107",
"=  c #141104",
"-  c #1C1204",
";  c #13120B",
":  c #1B130B",
">  c #1C190B",
",  c #151411",
"<  c #1B1512",
"1  c #191B15",
"2  c #120E12",
"3  c #220B02",
"4  c #280401",
"5  c #330700",
"6  c #251303",
"7  c #2A1A04",
"8  c #22150C",
"9  c #241A0C",
"0  c #2C1C0C",
"q  c #291706",
"w  c #341B04",
"e  c #3B1D0B",
"r  c #361806",
"t  c #231B12",
"y  c #2B1D13",
"u  c #271B18",
"i  c #341E15",
"p  c #1B231A",
"a  c #2C210A",
"s  c #3D220D",
"d  c #35240A",
"f  c #2B2314",
"g  c #2C241A",
"h  c #272619",
"j  c #322314",
"k  c #3B2414",
"l  c #33241B",
"z  c #332B1C",
"x  c #3B2C1C",
"c  c #3A2818",
"v  c #3B321C",
"b  c #182A25",
"n  c #2B2A24",
"m  c #342C23",
"M  c #372B24",
"N  c #28312B",
"B  c #343225",
"V  c #3B3224",
"C  c #3B332B",
"Z  c #38372B",
"A  c #393A34",
"S  c #2C3334",
"D  c #470601",
"F  c #451C05",
"G  c #4F1B0A",
"H  c #462509",
"J  c #572508",
"K  c #432512",
"L  c #472A17",
"P  c #552B16",
"I  c #49331B",
"U  c #583519",
"Y  c #54310E",
"T  c #67391C",
"R  c #76391A",
"E  c #6C2911",
"W  c #442C24",
"Q  c #443424",
"!  c #4B3422",
"~  c #4C3B24",
"^  c #43352B",
"/  c #443B2C",
"(  c #4A3A2A",
")  c #543C25",
"_  c #5C3C24",
"`  c #553828",
"'  c #433B33",
"]  c #473B36",
"[  c #583C35",
"{  c #502E24",
"}  c #643C23",
"|  c #6A3B27",
" . c #763B24",
".. c #703A30",
"X. c #7A1D0C",
"o. c #3A453D",
"O. c #29453E",
"+. c #71441A",
"@. c #4A422C",
"#. c #5C432C",
"$. c #57462A",
"%. c #4C4434",
"&. c #43443B",
"*. c #4A4639",
"=. c #544334",
"-. c #5B4534",
";. c #544B3C",
":. c #5C4B3B",
">. c #574838",
",. c #5A513D",
"<. c #684529",
"1. c #764829",
"2. c #7B542C",
"3. c #644B34",
"4. c #644C3A",
"5. c #6B4C3C",
"6. c #674835",
"7. c #784B36",
"8. c #68543A",
"9. c #745435",
"0. c #7C5333",
"q. c #73533B",
"w. c #7B543A",
"e. c #7A5B38",
"r. c #6E502E",
"t. c #7B623E",
"y. c #5D4119",
"u. c #363E42",
"i. c #394644",
"p. c #3C5450",
"a. c #474B45",
"s. c #534C42",
"d. c #584B45",
"f. c #595548",
"g. c #465854",
"h. c #575C55",
"j. c #4A524A",
"k. c #674C45",
"l. c #645343",
"z. c #6B5443",
"x. c #6C5A44",
"c. c #645C4C",
"v. c #685849",
"b. c #755946",
"n. c #685C55",
"m. c #755C54",
"M. c #724C43",
"N. c #576258",
"B. c #46625C",
"V. c #786449",
"C. c #6C6353",
"Z. c #676559",
"A. c #7B6C54",
"S. c #7C6C5C",
"D. c #776658",
"F. c #7B725A",
"G. c #6B644A",
"H. c #576766",
"J. c #577878",
"K. c #546C69",
"L. c #696B63",
"P. c #756B65",
"I. c #66736A",
"U. c #7A7466",
"Y. c #677977",
"T. c #757D75",
"R. c #445F66",
"E. c #8A3818",
"W. c #97371A",
"Q. c #8C2710",
"!. c #A8381B",
"~. c #A02911",
"^. c #8B3C29",
"/. c #AB3A23",
"(. c #B83D25",
"). c #821E04",
"_. c #854A2C",
"`. c #984729",
"'. c #86562A",
"]. c #875937",
"[. c #945B38",
"{. c #8D4737",
"}. c #A74627",
"|. c #AD4D30",
" X c #88633A",
".X c #94653C",
"XX c #AF643C",
"oX c #8D421A",
"OX c #C15E3B",
"+X c #835A45",
"@X c #975742",
"#X c #A95E46",
"$X c #876748",
"%X c #956A46",
"&X c #98734C",
"*X c #846A56",
"=X c #986B55",
"-X c #82735B",
";X c #897557",
":X c #987757",
">X c #8D734A",
",X c #A67955",
"<X c #A9704D",
"1X c #856C62",
"2X c #837463",
"3X c #867867",
"4X c #967A65",
"5X c #897D72",
"6X c #A97B66",
"7X c #C76E4F",
"8X c #CD6E51",
"9X c #5B837F",
"0X c #748479",
"qX c #97825D",
"wX c #A6855B",
"eX c #B3855A",
"rX c #9C8668",
"tX c #8D8674",
"yX c #988A77",
"uX c #918973",
"iX c #A78867",
"pX c #B68867",
"aX c #AB936B",
"sX c #B9936A",
"dX c #A98C76",
"fX c #A99677",
"gX c #B59875",
"hX c #B68B74",
"jX c #B8A27B",
"kX c #D0916C",
"lX c #E69575",
"zX c #CAA378",
"xX c #EEA77D",
"cX c #768582",
"vX c #929388",
"bX c #A99A86",
"nX c #B59C88",
"mX c #BAA987",
"MX c #B4A991",
"NX c #A8AEA3",
"BX c #C6AA88",
"VX c #C3B18C",
"CX c #C8B697",
"ZX c #D4B392",
"AX c #EEB28D",
"SX c #CEBCA3",
"DX c #D5C49C",
"FX c #EEC49D",
"GX c #D7C7A8",
"HX c #D3C8AC",
"JX c #E3C9A4",
"KX c #E4D6B5",
"LX c #ECD4AE",
"PX c #F3E5BE",
"IX c #FBECCB",
"UX c #E3D9C0",
/* pixels */
"= ; ; 1 *   X 8 $ $ 4 @ & @ Q L @ q $ M 8 # 3 r 3 8 n u f.f . % % X &.@.h a @ r q @ + c 8 & 8 q { 9 # o = $ + 8 8 # X = X * X ; ",
"# ; 1 ; v 0X= f M >.1Xi . ^ F.l.^ q 3 D.' + L =X-.@ s.g B 9 t , o X z m *.v 5 =X5.3 3 D.] $ l >.m.D.# X ( 2X( V 8 t vXB X ; ; o ",
"X O & . o.KXMXa . ( KXS.@ M S.8.c y 3 m.' + _.XX2.q g X # z ] A 1 o . ; h 3 | [.1.e @ m.] 8 l [ V.l.# 9 nXCX9   Q MXUXV . O   o ",
"> c.V   O uXHXjX>.. 0 K 3 @ y q $ & $ 8 & 4 `.XX1.7   g 2X( C f.S % 2 % % + | _._.F @ u 8 u & 4 k $ # 8 v $ # F.MXGXrX    n f.u ",
"m MXSXdX@.a V.uXbXuX@.> # . . # # . ; % & @ R .X<.6   5XVXe.S.U.' < # & o @ U 1.1.r @ % , o X # . + O = j c.yXbXrXV.6 $.fXHXbXn ",
"& 3XMXVXGXmXqXA.G.8.$.G.f.=.n 9 8 9 # + . 3 F 1.K @ @ yXVXV.%.m C g # = % + r <._ 4 @ % > 9 = : h C ;.v.G.$.x.V.;X;XCXHXmXfXU.= ",
"X g nXZXzX.XzXiXwXqXA.x.q.yX;.bXhXT ) ] C X - $ # # X L.U.l.C C C m # = * % + 8 & + 9 ] l._ 5.mXP.C.dXe.V.;XiXiXaXjX%XzXCXbXz . ",
"; X f rXFXeXLXV.V.jX:XgXb.*Xs.U.BX1.9.l.c.&.O * & o o 1 . < A B C m : X o o % # o > f.k.b.} 1.BX,.C.V.:XaX:XBXq.qXLX,XFXyX9 # : ",
"*     O a $.;X$.t.rX$X9.d A.F.f.ZX.X].4.^ c.B X % o % o < + C A m / < & * o , * X *.f.$.7.1.$XnX;.tX-.L $XV.fXq.3.F.@.w .   . # ",
"= C.s.B l j L I I y.$.3.8.%.Z.c.ZX%XJ =X4XG.c.> X % o ; % % S ] C C < o ; O * * n C.V.:X{.P hXrXc.s.;.8.#.y.U I I d j d z f.G.# ",
"f MXDXmXVXBXjXeXpX&X$XuXf.1 Z.3XV.dX..=X6X=XV./ X * % + % X i.A m ^ < % o ; . t 8.*X6X6X+X..dXG.uXh N 0XtX9.:XeXaXjXVXVXVXHXMX- ",
"X yXKXmXiX>XsXwXsX>Xx.F.N.o.a.C.4.CX6X| E _.*X2Xh X : < X 1 h.A B C < 2 & # : ' *X$X{.X.+XnXyXf.l.o.i.H.x.L &XeXqXgX>XwXmXKX-XX ",
"# 8 tXHXSXaXZXiX>X9.8.=.g.O.p C.D.;.GX+X . .W l.C.f X O O a.h.n C C u . % . V 2Xx.w. .| rXbX*.uXB h p.B.v.I w.:XpXSXiXDXHX2X> X ",
"$ . . . @ $ s #.].$X<.D.0Xi.i.B Z.;.C.BX..T G ` x.G.f o a.n.a.C n B C C $ ^ n.v.<.} ..=XyXC Z.&.o.o.N.0Xl.w.$X2.Y w 3 - X .   * ",
"# %.@.$.V.jXBXBX,X+.+.q.h.p.i.h s.5XC c.6X7.^.^.L m.n.d.U.s.&.A n m C 1X;.D.8.P | {.+X1X/ Z.I.b n u.j.%.e Y '.sXZXjXrX8.$.@.@.* ",
"/ KXKXLXJXaXpX.X&X XT q.s.g.i.h.&.a.L.] 6.hX{.{.<.` :.C.P.[ &.Z n z M S.m.V.q.7...=X3XA Z.N.i.H.u.j.*.f.L Y wX'.&XgXjXLXGXKXHXz ",
"f HXLXJXLXaXzXDX,Xr.$X*XL.Y.h.h.N i.f.Z.' 1XkX .R ..[ n.-X-.%.' Z m ] 1X:.5._.| @XvX[ h.n.a.b i.R.H.T.f.-Xq.9.iXJXgXjXLXDXPXMX- ",
"O z mXJXJXjXt.y.r.iX*X6.a.h.i.o.g.o.C Z.L.W 1XdX1.].5.b.1X4.>.%.*.] l.1X6.+X[.%X4X] d.Z.] S g.O.a.j.N.g U  XiXy.r.>XVXJXDXjXa * ",
"* O + @ # O v wXjX'.].1.} Q ' H.h.S *.C d.1X^ m.fX+X` k.4Xm.-.>.>.-.A.+XT '.6X4X' n.L.M *.Z o.h.j.v d <.2.'. XjX;Xd . X # . O ; ",
"* ; . M D.MXmX>XqXsX_._.T } ,.Z.a.&.Z ^ W [ P.A k.nXdXm.1X-XV.k.8.m.3XV.=XhX+X^ L.j.] ] B &.o.N.c.I :X2.'.'.gXqXrXMXbXf.9 = X = ",
"> X z bXMXzX2.sXgXy. X+.Y q.P I Z.j.m a.A C [ m.k.d.yX1X;.yXS.D.D.2X5X;.bXm.{ m.k.] n u.A A L.Z.e Y %XT 2.2.$.mXwX.XBXVXyXa X , ",
"# # v bXCXPXsXU d ;X>X].1.].[.} ~ f.j.a.a.u.] [ k.n.] d.C f.yX5XtXvX;.A d.k.m.[ i ] j.u.j.j.s.( U <.1.R .X$XV.a <.BXLXCXbXj % * ",
"X . # d.2Xx.$ d jX$X].[._.R ].T K =.j.N.g.i.a.M W ..k.m.' n @.S.D.' n *.b.M.[ W ] &.g.R.N.s.Q K 7.1.].[.[.[.>XaX6 7 C.U.*.O . = ",
", &.X     . 8.SXqXgX2.,X<X+.T +.r.I ;.H.h.g.a.u.^ L W [ C g d a f x l W [ { W u.a.R.h.L.j.l <.<.1._..X.X[.[.gXrXSXQ   O   ; &.* ",
"O.NXb O = fXHXaXKXqXqXwXsX2.2.+.1.<.8.V f.N.B.g.i.o.o.A :.I H H Y U _ 6./ A a.g.B.K.I.%.~ r.+.9.<.r..XwXwX$XjXDXgXKXF.# X N NXb ",
"O.vXN   c.IXDXIXF.qXgXaXwXr..X2.+.0.<.L Q f.I.H.g.p.p.a.x.e.9.t.t.$Xe.8.a.i.p.B.K.9X] ) U $XT 1.r.2.2.zXqXjX8.jXLXDXIXQ   A cXb ",
"o.vX,   V SXHX$.y.DXVXJXe.aX Xe.%X].+X} ` m.P.I.K.K.p.J.v.3.q.8.V.8.4.c.K.R.J.Y.I.L.#.<.r.].1.2.2.wX>XqXJXaXCXv qXKXNX0 . n NXb ",
"h yXj.Z   = . - mXVXIXt.qXjX XwX.X.X:X<.M...s.Z.Y.I.H.T.*Xw.} +.U T 3.l.Y.J.Y.I.c.c w.0.r.+X$X&XqX>XjX8.jXPXMXyX  = =   ^ a.tX* ",
"6 x.bXB X ; X V KXIX*X$.ZXaX>XwX XwX2.2.$X1.<.6.k.d.C.A.R `.}.}.|.`.{.H Z.Z.s.;.) r.'..X%X].>XiXaX XjXjXd DXIXCXf X = O ;.bX:.3 ",
"$ A.fX$ O * ; X ,.v + bXGXr.gXqX.XaXt.$X%X1.1.1.w.<.U T E <X#XOXOX7X#XF _ -._ [ r.%X%X.X&X:X;X$XCX;Xt.KX,.X G.@.. % ; O 9 bXx.3 ",
"X F.U.. ; ; X o O O 1 NXc.$.GXt.aXaXG.rX&X.X X.X]..X[.%Xr _ | 1.1.+.P 5 0. X'.0.].%X&X%X&X XaXA.rXHX> uXuX. . . : X o * X uXC.X ",
". Z.] . = = * 1 ; ; ; < O 3XuXI HXG.yXrX$X].&X.X%X[.[.%Xw a 8 y j 0 0 d %XXX[.%X%X,X&X$XwXV.rXfXa MX*.O t # 2 2 % % o o   d.Z.X ",
"+ ' n t X % 2 1 % % o o X f # C 3Xc CX8.aX2.,X X%X[.[.%Xq n.n p g l =.w &X.X'.XX].&X.X:X;XfXd tX# > t * X % % o % X * ; p C a.. ",
"# : C C ; o < < % o % % = X # :   C c.I hXU $Xe.%X%X0.,X5 bXP.1 , n.1X5 pX,X.X&X$X>Xr.gXv 3X- . ; = ; X % % o ; X = * X ' A < % ",
"# : g & # > C >   n h.; O & # . < 1   h j %.$.x.6.b.` +XG |.iXz 0 dX@XD :X;X;X8.8.l.v :.8 . 2 % . & > ; 8 g : . g c.& X > n & X ",
"+ y : X : g ' g 1 z c.+ % # c x > ; * X X 8 $ z q c i K R `.+X{ ` =X{.E ! V :.f m = >   % < # & V M : . 9 x u u l n.# & # 9 8 $ ",
"r 4X>.& X h V v ,.- L $ # x +X$X#.# # ; % O # + # o o 8 %X.X7.[ 7...&X>X@ > : # . O = ; % & # I *X*XL + 0 z n f.3 W & = 9 z.=X4 ",
"K 4XS.f = < V x v.3 L 4 6 3.].].<.e + % o & M : % , 2 *. X'._.P | ]..Xt./ * 1 + g t # = . # a t. X%Xr.3 q M z m.5 L # > c ;Xw.F ",
"! *Xv.M % m D.8 M r ..4 F 2.'.'.'.H 4 0 . V m.%.X ; , n.qX X2. Xw.0..X:Xl.< # 8 :.4.9 + i @ Y  X+.2.>Xr 7 c.> M D ..8 * Q A.` H ",
"x d.8 y X n D.3 M r ..4 H 1.'.[.'.J { m.@ =.-X,.> , S L.qX.Xe.qX$Xe.:X:XZ.N + i k.-X9 8 1Xr U  X2. X.Xr v uX> v D ..8 ; 9 8 ^ y ",
"t L.n.1 o u a.] P.j [ 4 G 0.2.1.].H _ D.@ %.-Xx.8 o g.J.*.>X.Xt.].$X;X@.Y.g.  i C.,.a y 2XK U %X2.2.%XH - A C S.i M.3 o 1 h.a.# ",
"M L.g.S O u ' l =.M v.@ r 5.0.1.0.F 6 x + >.qX>.8 2 J.J.K.G.I 2.9.I f.I.J.K.o y =.,.f # W 4 P =X].$Xw.5 $ n h s.i m.& X u.g.a.h ",
"M n.b N o h ' > u # g @ 3 ~ dX4X#.3 @ + $ ^ ,.>.3 < 9XJ.9Xp.*.A.G.*.B.9XJ.J.% l C.( l # # $ 7 3.dXfX#.@ q &.< n & m o 1 N h m f ",
": n.h.h.X > h n c.8 a.. f 0 V.$Xk y # # + Q D.:.4 M L.cX9XB.N.0XI.N.B.9XcXh.L 5 l.n.t + > > - k $XV.d 0 y C.C Z.% d.O o f.h.z $ ",
"$ s.s.> O h j.> B h s.+ L.;.K K D.h.. > f j >.P D @X..D.Y.N.T.Z.G.0XN.T.l.} ^.D ` %.8 M u O Z.C.K L G.Z.. V > C > a.- X h ;.8 @ ",
"m C.z $ > h o.B D.9 d.@ p U.1X;XP., X t j z 3 4 Q./.=XM.8.D.2Xl.A.U.2X4.<.#X|.).4 3 t M m . 1 U.1X1XZ.; 1 V M S.> s.- h + V ' t ",
"A I.x I l g d.f ( x yX# o O b.l.9 # = f ' *.@ D /.}.lX.XJ [.@X| Y 6X@XE [.kX(.|.5 @ g ' ] # # t k.m.. % ; g q >.9 yX= v x f n.S ",
"2 vX>.Q - C 5Xy l Q P.. ; # C / n.= = f ' [ @ E |.OXxXoXQ.8XAX[.2.kX<XQ.oXxXOX|.P 4 u ] [ # ; c.' ^ % % t s.i x j L.* t Q k.H.2 ",
"# i M 0 X v Z.u M l ' . , O ] P.f.+ # g n.c 4 {.^.lXlX~.W.8XkX{._.8XkXW.!.lXlX_.{.4 c n.l + & f.L.] X X N D.f x 8 Z X = 9 x @ + ",
"K D.W + O = f : M 8 : # X . f 5X^ . # $ 8 @ 5  .} FXOX/.E.lX8X[.}.OXlXW.(.OXFX} | 4 $ 0 . #   / 5X8 . . z f.8 j 8 8 # # $ k l.r ",
"P nX*Xs a a 7 7 0 7 7 a a 9 7 d 9 0 j 0 0 r F 5 $XAX!.(.E.lX7X!.!.OXlXoX(.~.FXe.5 k r 0 9 0 a a f 7 0 0 a - 0 7 8 0 9 a d *XgXF ",
"6 3.3.*XV.A.F.F.-X;XA.8.8.V.-X*XS.8.:.D.z.q.7._ aX<X~.(.W.AXXX!.!.7XxXW.}.~.wXaX4.l.[ z.F.F.F.F.A.*XV.*XA.G.v.G.-Xm.8.A.;XU H 4 ",
"$ x I 4XF.3X3X3X2X3X-XV.8.$.A.F.-X>.' l.b.I Y Y U J /./.E.AX}.!.!./.AXR !./.G $.4.I P <.2XF.D.F.-X-X-X4XF.F.A.F.U.=.$._ r.s + - ",
"* ;.D.{ %.v >.2XM ( =.@.@.v V F.V / f.f s T Y T <.J W.).'.lX}.(.(.W.AX_.X./.F L P L | K v %.z ;.C.I >.=.@.v A.=.v %.~ I I x.- X ",
"= D.-.e *.y Q Q g B ;.h *.a k ( f Z n s.3.T '.,X3.F  ._.'.lX|.}./.}.xX1.R R K #.].+.P 6.c z > C V Q M ] h u @.j z s.m ^ x >.l X ",
"& Q q { :.l L ~ & ] s.M Q y 7 [ f B z / ) >XzX'.w q @X<XH eXXX!.!.XXzXH ].$Xd 7 2.kXe.K Q z 9 m ( x Q W m u _ r h f.C ' K r y + ",
"# >.Y >Xw.L T 9.0 ( G.5.4.e F q.a *.Q a 6.*X].U k ! +X[.U kX#XW.E.{.iXy.&X9.a f J _.V.~ ) ( 3 ` <.I [ { W l 7.P H x.l.8.6.P c + ",
"@ D._ U P J T .XU ! L *XP P | $X>.,.` :.3.s U U 6.5. .| ) +XR Q.X.E 1.U y.L 9 =.} T H 3.q.-.U q.$XH H P { { =X .<.L x.8.G ].! # ",
"8 c.%.=.0.J E .XG } k.v.| E ].;XA.8.*Xr.<.%X<.r.*XH _ +X<.<.<X1. .<X<.U <.7.x ( w.T .X.X+X<._ V.*X$.5 U P  .:X+XT 7.S.3.7.} r $ ",
"8 U.d.S.=X_.Y Y R <XbX1X6X@X0.w.-XA.A.b.T [.H <.7.w.*Xb.r.w.6X{.@XpX7.} 7.iXD.[ q.H %X_.1.e.=X*X;XrX$X=X=X1.P 7.7.+Xm.:.hX6X` 8 ",
"u D.^ | $X=Xr.<.w.:X;X4X=X6X$X$X;X4.! V.5.U _ | =X:Xb.L 6.$Xb.M...` q.6.` A.*X$X4.) _ b.6.$X:X:X;X;X4X4X4X*X<.*Xb.! [ ! V.*Xb.d ",
"l m.K k K e d 0 r r r F W i s e s k k 7 e e K F q w s K K s K F F K K L K s K 0 d d c i s e r r K e e k e a k i k L c k K s K 7 ",
"i 4.6.m.;X` k.k.D.S.b.6.} z.=.@.` [ d.1Xb.M.k.m.yXG.3.) ) ! ` +X-.5.k.{ | M.l.3X:.x.) q.M.m.5X4.5.b.#.I 4.$.<.4.z.k.[ 1Xm.k.6.s ",
"F _ M.b.1Xl.b.n.m.n.m.6.[ 5.:.~ -.-.k.P.M.4.M.b.F.G.-.I =.$.| b.$.8.6.L | b.n.P.l.b._ b.+XM.P.>.z.M.! ! 4.4.4.b.m.M.-.3Xm.v.3.s "
};
