/* XPM */
static char *xpm_[] = {
/* columns rows colors chars-per-pixel */
"64 64 255 2 ",
"   c #060501",
".  c #0B0505",
"X  c #0C0901",
"o  c #0F0F0F",
"O  c #060B01",
"+  c #130D02",
"@  c #1A0E05",
"#  c #130C0B",
"$  c #1B0E0A",
"%  c #151101",
"&  c #1B1301",
"*  c #1E1805",
"=  c #11100F",
"-  c #1C140C",
";  c #1E1A0F",
":  c #1D1511",
">  c #1A1713",
",  c #121010",
"<  c #270B06",
"1  c #231206",
"2  c #251409",
"3  c #2B160A",
"4  c #241B09",
"5  c #2C1B0B",
"6  c #271806",
"7  c #331A0D",
"8  c #3B1D0F",
"9  c #35140A",
"0  c #241B14",
"q  c #2A1E14",
"w  c #251A17",
"e  c #3D1E10",
"r  c #381A1B",
"t  c #3F0707",
"y  c #16241A",
"u  c #2B220E",
"i  c #26200B",
"p  c #33240F",
"a  c #3D200F",
"s  c #2D2411",
"d  c #2C231A",
"f  c #2A2716",
"g  c #312612",
"h  c #3C2211",
"j  c #352A13",
"k  c #3B2D15",
"l  c #352A1B",
"z  c #3E2C1A",
"x  c #33251C",
"c  c #3C3119",
"v  c #281B22",
"b  c #2D2129",
"n  c #2C2F25",
"m  c #352523",
"M  c #3C2E22",
"N  c #382825",
"B  c #3A3728",
"V  c #3D3E31",
"C  c #322E2C",
"Z  c #490805",
"A  c #580201",
"S  c #441B0E",
"D  c #4A170C",
"F  c #56130B",
"G  c #431F11",
"H  c #4D1B12",
"J  c #571D12",
"K  c #660101",
"L  c #770000",
"P  c #70180F",
"I  c #6B1A15",
"U  c #761B13",
"Y  c #64140C",
"T  c #5E220D",
"R  c #442212",
"E  c #4B2514",
"W  c #422D16",
"Q  c #422D1B",
"!  c #4C2C1B",
"~  c #492918",
"^  c #512616",
"/  c #542916",
"(  c #582B17",
")  c #5A221B",
"_  c #552A19",
"`  c #5B2C1A",
"'  c #572318",
"]  c #413017",
"[  c #45321A",
"{  c #4B341D",
"}  c #48381E",
"|  c #54331E",
" . c #5C311D",
".. c #5E3618",
"X. c #41200F",
"o. c #622E1D",
"O. c #692A1D",
"+. c #7C2A1C",
"@. c #752719",
"#. c #64311D",
"$. c #69331E",
"%. c #66361A",
"&. c #743918",
"*. c #4A2D2B",
"=. c #452B26",
"-. c #592A26",
";. c #453325",
":. c #4E3521",
">. c #45352A",
",. c #4C3B2D",
"<. c #49382B",
"1. c #523622",
"2. c #5C3423",
"3. c #553924",
"4. c #5A3A26",
"5. c #5B352A",
"6. c #55392B",
"7. c #5D3C29",
"8. c #53352C",
"9. c #4B3334",
"0. c #493739",
"q. c #533433",
"w. c #583936",
"e. c #6A2922",
"r. c #653323",
"t. c #6C3322",
"y. c #623E2B",
"u. c #6C3B2A",
"i. c #683925",
"p. c #723624",
"a. c #753A25",
"s. c #7A3B25",
"d. c #743A2A",
"f. c #7C3B2A",
"g. c #7B3527",
"h. c #6B3C33",
"j. c #653D3A",
"k. c #683C39",
"l. c #763226",
"z. c #7F521C",
"x. c #774A1C",
"c. c #5A422D",
"v. c #484635",
"b. c #594435",
"n. c #4C412A",
"m. c #65412D",
"M. c #69432E",
"N. c #6B4626",
"B. c #7B4224",
"V. c #784629",
"C. c #6F5128",
"Z. c #634332",
"A. c #6D4532",
"S. c #6C4934",
"D. c #68483C",
"F. c #714634",
"G. c #7C4334",
"H. c #724935",
"J. c #7A4B34",
"K. c #754C39",
"L. c #7A4E3A",
"P. c #77443A",
"I. c #7C523D",
"U. c #7E5437",
"Y. c #6E532F",
"T. c #3B3543",
"R. c #443742",
"E. c #564F53",
"W. c #6A4B44",
"Q. c #794F42",
"!. c #665445",
"~. c #7E5440",
"^. c #7A5646",
"/. c #6E575A",
"(. c #6E634A",
"). c #6E5965",
"_. c #830000",
"`. c #801D15",
"'. c #833915",
"]. c #953919",
"[. c #852D1C",
"{. c #832D21",
"}. c #843E2D",
"|. c #843929",
" X c #8A3F31",
".X c #943721",
"XX c #814A1F",
"oX c #99471D",
"OX c #85591C",
"+X c #844527",
"@X c #8A4B26",
"#X c #85422A",
"$X c #8B442D",
"%X c #8C4A2B",
"&X c #864825",
"*X c #91462F",
"=X c #934B2C",
"-X c #9A4D2C",
";X c #924927",
":X c #8A5625",
">X c #94512A",
",X c #9C542E",
"<X c #9D5A2B",
"1X c #965825",
"2X c #8B4231",
"3X c #844733",
"4X c #924631",
"5X c #954A32",
"6X c #9A4C32",
"7X c #885538",
"8X c #9B5332",
"9X c #975834",
"0X c #AB5D2C",
"qX c #A4582B",
"wX c #A14F33",
"eX c #A35432",
"rX c #A55A31",
"tX c #AA5A32",
"yX c #A15F3A",
"uX c #B25E29",
"iX c #97683C",
"pX c #896234",
"aX c #AB642C",
"sX c #B2672F",
"dX c #AE7329",
"fX c #B8752E",
"gX c #A96934",
"hX c #B46831",
"jX c #BB7530",
"kX c #B07237",
"lX c #C3772E",
"zX c #C57831",
"xX c #825641",
"cX c #855A44",
"vX c #895D45",
"bX c #815F48",
"nX c #814F49",
"mX c #8B6249",
"MX c #8A6445",
"NX c #92644C",
"BX c #9B6949",
"VX c #9C7248",
"CX c #9B6B53",
"ZX c #946951",
"AX c #9C7157",
"SX c #876351",
"DX c #A27258",
"FX c #B88334",
"GX c #C8872B",
"HX c #D1872D",
"JX c #CE9829",
"KX c #D7982B",
"LX c #D6A425",
"PX c #E5A929",
"IX c #B18264",
/* pixels */
"o o o o o o o = o o = o o o o o o o o o o ; j p j k p k j p J JXT p j j k k z k j p ; = = = o o o o o o o o o o o o o o o o o o ",
"o o # o o o o o o o o o o o o o o o o o ; j k k k c [ k l ~ $X).$XW l Q W W k k W c j ; = o o o o o o o o o = o o o o = o o o o ",
"o o o o o o o = o o o o o o o o o o ; g k M 5.s.b.H.$X,Xy.1.fXkXfX1.y.-X#Xu.<...N.~ Q Q i ; o o = o o o o o o o o o o o o o o o ",
"o o o o o o o o o o o o o o o o = ; ~ a.3XH.nXBX7XnXkXKXVX9XGXPXGXgXVXKXkX^.cXgXMXF.G.y.:.[ ; o o o o o o o o o o o o o o o o = ",
"o o o o o o o o o o o o o o o > h _ f.8X^.cXlXSXMX<XCXMX9Xw.p.#Xp.h.9XMXAXtXmXSXjXSX^.eX$X! s s ; o o o o o o o o o o o o o o o ",
"o o o o o = o o o o o o o > ; $ _ 8 e ` k.gX9XD.j.F.A.q.p.XXOXOXz.N.q.w.V.h.F.D.9XgXA.r.8 7 E $ f ; = o o o o o o o = o o o o o ",
"o o o o o o o o o o = o = g f # t.e 3 3 E 2.*.q.R.=.=.0.q.eXzXHXsXq.0.=.=.0.q.=.=.~ G 3 7 7 p.$ x w u = o o o o o o o o o o = o ",
"o o o o o o o o o o = ; s x ;.q >X` ) 3 1 m *.u.BXC.C.BXJ.=XlXJXhXF.NXM.N.iXh.-.=.r 1 2 ` R -Xq >.M j s ; o o o o o o o o o o o ",
"o o o o o o o o o = s k d >.b.l qXa.,X&X3 ^ p.$X0XzXHXHXzX:Xs.1XB.:XlXzXhXwX4Xf.2.h 7 B.>X..<Xx b.,.M s j g = o o o o o o o o = ",
"o o o o = o o o ; s k s M b.!.>.*X=X+X:X5 R ( o.p.#X-XrX>XXXx.OXx.%.s.|.f.t.O.` S 3 $ %XB.|.*X;.!.b.B d j k u ; o o o o o o o o ",
"o o o o o o = ; k j s d ;.D.!.>.5.eXsXdX$ $ G ^ ` o.t.g.|.1X1X:X&Xp.` ` / ^ a 8 5 $ $ dXhXwX5.>.!.D.;.f u k c j ; = = = o o o o ",
"o o o o o ; p c k s u ; d <.b.;.G.h.fXLX4 # $ 7 R R E ( $.s.$X%X&Xp.o./ R 8 7 2 @ . 1 LXjXk.P.;.b.,.d - 4 j k j c s ; o o o o o ",
"o o o o ; j ] k k u * + ; m M d m 9XL.GX4 N q # $ 3 8 7 8 8 R R R R e 8 7 7 3 @ # 0 4 fXP.9Xm d M d , . & u j k ] c j 4 = o = o ",
"o o ; s k c ] j u * X X . ; w f 0 9XkXU.$ ,.>.0 . 3 3 3 7 7 8 7 7 7 3 3 3 1 < # q >.w L.kX9X0 0 ; , . X + 1 g k [ :.] k s ; o o ",
"= ; j ] } { c j u 4 u u * X # d w b 8XgX- <.=.> # 8 7 1 1 1 2 1 < 2 2 1 1 7 8 # d >.0 dX8Xb w : - + - 4 k z { W k [ { { ] j ; = ",
"g k [ 1.| } 6.S.7XI.K.m.k i X # 0 ; b j.0 M l - # o.f.R r G 7 q 5 7 x E G p.` # w N d j.b > - - @ 6 [ 7.H.K.K.L.c.z [ :.{ c j s ",
"j [ | } { y.xXCXCXCXCXNXL.y.k * # - : > w f w # # ) B.a.L.gX;XP P %XcX=Xt.a.' # > l x > 0 : > . 4 ] y.H.7X~.xXvXQ.y.{ } 1.:.[ k ",
"k [ { } 4.I.vXCXCXvXNXNXvXK.1.k 4 . # : w > # . . =.w.=XoX>X$XU `.;X0XqX,Xq.N # - m q 0 - # # @ k m.H.~.cXMXZXvXcXI.m.} } | [ k ",
"j [ { } y.cXNXNXZXNXmXvXvXF.1.[ j 4 .   . # . # # Q k.P.g.gXiXjXjXiXgXg.L.H.*.# # w : # . .   * [ y.A.J.L.3Xg.BX/.9X!.i.S } [ j ",
"k [ [ 4.M.L.cXvXCXCXZXmXxXA.4.1.[ k 5 6.=.: #   . -.c.W.Q.S.b.^.~.b.K.D.D.D.f.# . .     # : b.S.3.d.D.7X(.sX].].^.^.(.M.@.F ] k ",
"W l i.0.F.D.W.D.I.Q.D.H.K.m.m.3.{ ] j c.y.S.K.8.=. .N i.y.G.R.P.xXR.3XL.*XJ.*.. # <.w.c.I.mXxXu.$XtX9X0.U.(.7X@.7XW.7Xb.J.O.Q k ",
"_ n 8XD.W.xXU.I.(.^.K.,Xm.>.:.:.n.c.S.Z.m.K.MXAXDXCXAXZXF.N r.V v.f.C l.@.%Xq.b.ZXDXIXDXNXcXA.y.3Xt.~ x :.6.H.bXZXDXCXNXvXxXy.j ",
"j s ! 1.5.*.r b.F.J.7XdXn.7Xl / U [.cX7XK.M.Z.S.L.vXZXAXDXZXU.^ R ^ b h.7X>X7XmXmX7XI.I.F.Z.E.E.vXM.4 u k { m.y.M.I.~.I.S.Z.[ u ",
":.4.m.K.J.S.b.Z.M.N.i.;.| f | R R -.{ k u u p u j k } 3.A.I.I.F.#.f.%XE.!.gX9Xi.z j z k z k d B.r.Q 7 X.^ t.f.a.! ! ' p.%XY.V <.",
"7.A.H.L.I.cX~.cX~.S.4.1.[ k * O y y i * % + % + % % % * * u ! }.*XV v.u.2.y n r.% X 4 & % + + @ 3 7 R / ` r.t.` ^ 8 F J V B V.l ",
":.4.7.3.r.G.3XV.F.i.i.2.| ~ h 7 1 < 7 5 3 3 7 7 8 h W / $.s.$X$X>X+XB.B.p.` _ ` R R a a 7 e E _ ` ` t.p.g.f.f.t.` E O.O.p. .` R ",
"~ | }.4XrXuXtXtXtX5X4X4X=X4X$X$X=X=X=X>X,X-XeXtXtXtXtXtXeXeX4X%X%X5X6X4X$Xg.t.p.p.O.` ` _ / ( ` ( / ` _ _ R 7 7 E $XtXtXwX2Xp.` ",
"^ t.4X2XtX6X6X5X5X5X2X$X$X2X$X$X$X$X#X%X%X$X$X#Xf.p.p.t.` t.r.` _ _ r.o.` / ^ o.t.t.t.#.p.p.t.$.o.o._ R 8 S E t. X6X4X6X2X$Xt.^ ",
"a ^ #.p.p.t.#.$.O.o.o.` ` ` ` ` _ ` ( #.` ` / / ^ _ ` ( ^ R E a E ` ` #.o.#.#.` / / / ( / ^ R a 8 8 R G ^ ` $.p.t.O.t.l.t.o.E e ",
"5 7 G E G 8 X.R R R 8 E E E ^ ^ ^ / ^ ^ ` ` ^ R E E ^ ^ R E E ^ ^ / ^ E / ^ _ #. .` ( ^ R 7 8 8 E E E ` ` E ^ ^ E h e E E 8 7 5 ",
"1 2 3 5 3 7 7 7 e e 7 e S 8 R h R ^ ` ^ R ^ / R E ^ ( `  .^ E ^ E ` ` ` / R 7 3 8 8 7 5 8 E ^ R h R 8 S 8 8 8 R 8 5 3 3 3 3 1 1 ",
"+ 1 2 2 3 3 3 3 3 3 7 7 7 7 8 R ^ E E / ^ ~ ( ` ` ^ R R E / ` / E E R e 8 8 8 E E E R R ( R S E R 8 7 7 3 7 3 3 5 3 5 3 2 2 & @ ",
"  + % 1 1 2 3 2 2 3 3 1 3 2 2 2 3 8 3 7 ^ E E R E ^ E G 7 3 h h h 5 3 5 8 E E G E S R E 8 7 8 3 1 < 3 3 2 2 3 3 1 2 1 1 & - +   ",
"4 j p 4 @ & & @ 1 1 @ 5 R _ O. .%.%.%.( 3 5 7 8 3 3 8 R S D Y P P Y F S E 8 5 3 3 3 7 2 3 ^ o.%.%.%.#.( 8 4 @ - @ * 1 @ 6 s j 6 ",
"* u k k ] z k k i 4 ` @.J.$Xk.P.$X+.#X[ k [ :.z e t.$X$.A L L _._._.L K t.;Xt.* 4 z k j u W @.+.P.h.f.F.[.#X .k g k z W c j j 4 ",
"X % u 4 j Q W p %.+.A.2.;.r.*.w.}.@.*X| 4.M.A.y.o.}.<X&XZ Z A K K K A F :XsX$X{ 1.y.y.m.4.4.+.I w.*. .;.! 5.{.%XN.W j j u 4 % X ",
"@ R / / ^ E ^ t.$X` 1.,.<.f.5.q. X[.aX}.g.f.*X2Xa.6X6X4Xs.' &.'.'.%.O.&X=X6X6Xp.2X4X$X$Xf.|.].[.k.*.t.w.,.y._ O.#X` / ` / / ^ @ ",
"X R ( ^ ^ E R t.D ] 3.h.5.! q.*.p.+.-XrX*Xs.}.f.t.6X5X}.,X1Xx c.:XS.r.p.6XwX4Xp. X6Xg.#X=X-X[.+.q.=.u.! 4.Z.3.D / X./ R R E E X ",
"X R ( / ( E h 8 ` J ( r.Z.3.5.w.k.}.O. X-XsXqX8Xa.2X%Xa.B.<XU.FXiX(.T.#.f.6X5X#X,X-XeX0X-X@. Xw.*.h.6.4.Z.p.J O.` R E 8 / ^ 7 X ",
"X S ^ ( / ^ E E R ' t.o.p.5.! i.h.w.j.g.l.2X].0X].uXoXqXJ ^ V.aX!.w.C ' s.].0XoXaX.XqXl.f.j.5.h.d.7.:.O.p.o.$.^ R ^ E E ( ^ 5   ",
"O + E / / ( ( / E R R ` G _ ) ! 3.u.t.V f.9.u.j.}.k.g.k.t.^ q.e.W.p.w.' 9.l.w.l.W.3X0.r.R.r.i.7.8.' ` D E ` R 8 E / R 8 E 8 X O ",
"  X E ( ( / / ^ / O.#./ _ _ D r.o.u.;.` p.=.u.q.r.q.2.m ^ G e.j.e.q.) R m 2.9.G.9.t.q.t.l.Q 1.|. .T ^ ( ! _ ` E ( ( / R ^ R X   ",
"  X 5 8 R E R E E ( ` ( R 8 5 8 < q H ` J x r.<.i.>.E 4 G e ~ -.5.-.! R f 7 f r.;.d.>.H s.$.h 9 8 a 8 8 G ^ _ ^ E E E E E 8 X   ",
"X + + % * - * 6 6 p u p p 5 g q g 8 5 4 3 3 1 < 3 8 o.|.eX#Xx e ;.H j R 6X#X^ R < 8 3 @ 2 7 6 4 4 p p 5 p u 4 6 * - * + + + X + ",
"& & * i j k ] [ | 1.1.1.c.m.A.A.M.m.1.4.| { k k { aXzXjX6X|.! w q - 2 q s.tXsXsX@X/ k l z :.1.4.M.M.m.1.{ [ ] k c k j i u & & & ",
"& & & u g k [ [ [ } 7.y.m.7.3.1.m.m.y.M.M.H.2X$XC.:X>XrXf.t.r.C V ` V n ^ p.qXaX:XU.$X>XK.S.7.1.1.4.c.1.} ] [ ] } c j s u & & & ",
"& & & u s j k [ { { y.2.{ [ [ 4.M.H.H.A.Z.m.M.n.) -.0.a.5X4X_ Z Y e.F Z R 5Xa.0.-.' ,.V.M.7.m.4.1.| { { [ [ } [ k k j u u & & & ",
"& & & u u j j j } { { } { { 1.m.M.M.A.K.H.A.:.B H ) b.#XwX2Xe > b e v , R }. .v.' H B 6.M.y.7.1.} { [ } | { [ j k k g u u & & & ",
"& & & u j c c ] [ { { [ { 1.1.m.A.y.7.y.M.M.A.4.c 4.|.$X6X*Xa.E 2.e E ` s.}.}.| n.c.m.A.Z.m.7.1.| { } 1.| { { ] k j g u i & & & ",
"& & & & g j k [ { { { } { 1.{ | 3.y.y.A.H.S.H.A.4.$Xt.a.s.|.%XB.&X&.B.s.l.r.}.y.M.M.F.F.M.M.y.3.:.{ 1.1.[ [ [ [ j j u u * & & & ",
"& & & & u g j j ] { } 1.3.1.} { :.1.y.y.A.A.F.m.4.2X}.s.p.s.$X&Xf.#Xs.f.$X}.f.1.m.m.A.A.7.4.4.4.3.1.{ { [ [ k j j j u u & & & & ",
"& & & & u j j j c [ [ | :.[ { [ { :.3.7.m.A.A.m.4.}.4X Xa.f.*X$Xp.p.d.g.a.a.s.{ y.M.A.A.4.4.:.{ 1.4.{ 1.{ [ c k j u g i & & & & ",
"& & & & u i k [ { { [ 1.1.} { | 1.3.y.m.4.4.y.4.1.f.a.s.#X+X@Xs.a.a.s.a.p.p.p.:.1.m.A.m.4.y.y.4.1.3.{ } { | { [ k j s u & & & & ",
"& & & & u s j c { { [ { { { 1.} [ 1.3.3.7.4.4.1.{ 2X,XeX*X}.#X%X%X$X,X-X$Xf.a.:.1.7.m.m.4.7.y.3.:.{ { [ } { { Q c j u u & & & & ",
"& & & & & u j j [ { { :.1.{ { [ :.1.} :.3.3.1.[ W f. X Xp.a.a.s.f.@X*X2Xf.g.a.[ 1.1.:.} { 3.4.:.{ 1.} { { { { k j g u 4 & & & & ",
"& & & & & u g j W [ { 1.y.4.{ 1.y.4.{ :.4.3.3.[ W }.4Xa.p.a.p.p.}.*X&Xt.f.s.p.W 1.1.1.1.{ 1.3.1.1.1.1.1.[ [ { [ j u u & % & & & ",
"& & & & & u j j k k } { { { | 1.1.3.4.3.7.4.1.} { 2X6XrX6X}.p.p.&X$X}.2X2X X}.z { 1.y.y.1.} { 3.1.| } { { c k j g u u & & & & & ",
"% & & & & u s j k c 1.{ { 4.7.7.1.2.4.Z.y.y.4.8.1. X}.$X6X%Xf.#X=X}.s.5XeX6X2X| 4.1.7.m.M.m.M.y.1.{ W } { j j j g g u & & & & & ",
"& & & & & u g j ] k [ 1.7.A.M.7.3.3.y.S.H.L.A.7.4. X2X#X;XeX6X4X2X#X#X%X5XwX2X4.M.K.K.H.M.M.m.7.7.m...} [ k k k j u u & % & & & ",
"& & & & & i j j j k [ { 7.M.A.y.7.y.F.S.F.7XxXL.y.4X$X*X=X=X=X5X=X$X#Xs.p.}.5Xm.H.K.K.F.m.m.y.1.7.m.c.[ [ k k j j u i % & & & & ",
"& & % & & & u j k } [ [ 1.7.A.I.H.A.A.S.F.xXxXK.M.5Xf.*X>X,X<X<X,X,X<X>X$Xf.6XM.I.xXK.L.7XxXI.M.m.m.4.{ ] j j j j i & & & & & & ",
"& & & & & & u ] } { { { 7.M.F.cXxXH.F.H.K.I.I.A.u.6X8X,X8X2XrXaXrXaXsXtX8X-X4XM.I.cXcXK.~.cXI.H.m.m.7.} ] j k [ [ g & & & & & & ",
"& & & & & & u k { { 4.m.M.A.M.M.S.K.7XxXK.H.I.K.A.2X6XeX;X=X$XwXeX8X6XwXwX5X2Xy.I.K.F.Z.A.I.K.H.y.4.{ k j p k c j 4 % & & & & & ",
"& & & & & & & 4 p z } 1.{ 4.4.1.7.4.4.7.A.M.A.K.1.l.}.$X4X2X$X5X5X4X2X2X X}.f.3.m.m.4.4.7.4.7.3.7.1.] k j j i 4 4 % & & & & & & "
};
