/* XPM */
static char *xpm_[] = {
/* columns rows colors chars-per-pixel */
"64 64 126 2 ",
"   c #231506",
".  c #291707",
"X  c #2B1609",
"o  c #251B0A",
"O  c #2C1C0B",
"+  c #341C0D",
"@  c #3B1E0E",
"#  c #261C14",
"$  c #291E13",
"%  c #301F10",
"&  c #3B1F10",
"*  c #2D210E",
"=  c #32210E",
"-  c #3C200F",
";  c #2E2311",
":  c #2B2018",
">  c #342511",
",  c #3B2412",
"<  c #362913",
"1  c #3C2C16",
"2  c #31251B",
"3  c #3A271A",
"4  c #36291C",
"5  c #3E2D19",
"6  c #372B21",
"7  c #3C2E22",
"8  c #3F3024",
"9  c #442413",
"0  c #4B2514",
"q  c #432A16",
"w  c #4C2916",
"e  c #442719",
"r  c #4C2718",
"t  c #422E19",
"y  c #4B2D1A",
"u  c #512716",
"i  c #532917",
"p  c #582A17",
"a  c #542C1A",
"s  c #5B2C1A",
"d  c #45311B",
"f  c #4B341E",
"g  c #53311E",
"h  c #5B331E",
"j  c #602E1B",
"k  c #64341E",
"l  c #422E21",
"z  c #4A2F20",
"x  c #433225",
"c  c #4E3620",
"v  c #4E3926",
"b  c #453528",
"n  c #4A362A",
"m  c #4C3A2D",
"M  c #513721",
"N  c #5B3522",
"B  c #553923",
"V  c #563924",
"C  c #563A24",
"Z  c #573A24",
"A  c #573A25",
"S  c #583925",
"D  c #583A24",
"F  c #583B26",
"G  c #593B26",
"H  c #5B3B26",
"J  c #5B3B27",
"K  c #5C3B27",
"L  c #593C26",
"P  c #5A3C26",
"I  c #5C3C27",
"U  c #543C2B",
"Y  c #523C2D",
"T  c #563F2D",
"R  c #583D29",
"E  c #5C3C28",
"W  c #5F3D29",
"Q  c #5F3F2A",
"!  c #5B3E2C",
"~  c #4F3D30",
"^  c #513E31",
"/  c #523E31",
"(  c #533F31",
")  c #523F32",
"_  c #563F30",
"`  c #643522",
"'  c #623925",
"]  c #603D29",
"[  c #613E2A",
"{  c #613F2B",
"}  c #713624",
"|  c #753C23",
" . c #54402F",
".. c #59412F",
"X. c #5D402D",
"o. c #564133",
"O. c #554233",
"+. c #554234",
"@. c #574334",
"#. c #594436",
"$. c #594536",
"%. c #594537",
"&. c #5F4635",
"*. c #5D4536",
"=. c #5B4738",
"-. c #5D493A",
";. c #5E4B3B",
":. c #62402C",
">. c #64412D",
",. c #64422E",
"<. c #6F432F",
"1. c #69442F",
"2. c #624231",
"3. c #644330",
"4. c #604535",
"5. c #684633",
"6. c #6D4430",
"7. c #6E4733",
"8. c #654837",
"9. c #6D4B37",
"0. c #654A38",
"q. c #634D3D",
"w. c #604C3E",
"e. c #644F3E",
"r. c #714A35",
"t. c #714E3A",
/* pixels */
"G M B M E B G B B G [ [ G A M A M d t c x c l 3 < y c c M f M A M M :.G M M f f f B P B f D f d B G B f f f f d d 1 5 f d d 1 f ",
"M A A M M M M B B G G f A [ B x d M A T m ~ 7 3 $ % , 5 d f d f M f B c f d f f M M f f d f d f f B f d d f f d f d 5 d 1 1 f f ",
"M M M f M M G G B B B G R c x A [ 1.7.9.~ #.7 0 i 9 , > = , 1 d f f f A I G c f f f f f f g f d d f f f f d f f B f f g f t d f ",
"c M M A B B E G B f f M t l m R r.t.8.8.=.E y 9 u t f y q @ @ - t f M P G M f G G G f d f X.f d d d f f f f X.f f D f X.B 1 1 d ",
"c M B B G M B c c f d 5 c ! &.2.5.9.3.,.] G t 9 + = e t 1 , q - 9 9 a [ I f g f f c f f f M d 1 d t 1 d d f f 1 f f f B f 1 1 f ",
"B M G B G B M f f f 5 > x T ! 0.8.{ 3.,.[ ! v , * f K J M c f d e , , f G B f P A f c E A f d 1 1 f f 5 G f f t f f d d d f f f ",
"E M c M B M B G A d * 5 v _ o.e.w.w.4.8.4.Y x t < < c A P M A f d c f d M A A G M c d A A c 1 < 1 D B B X.f f t 1 f d 1 1 1 d d ",
"G B A f M M M M t ; ; n _ ( #.@.#.@.;.;.m Y x r f 5 6 4 5 M M f f E P F P P G f c G M M A f 1 < < d f f f D f 1 f f f f d < 1 d ",
"M G M t f G y < < > & 9 0 e r 9 y e -.e._ ( l r r l v c 7 > + + 1 B f f B B g A M B E P f M d 1 1 c d d B P P 1 1 1 t < = * = d ",
"f c G G c 1 > 1 f ` j j i p i i i 9 =.=.( v J | | z c v U t O 9 9 w 9 , = 1 f B M M P M M M d d c g d f f f F , < * * * * - 9 d ",
"c M A G t 1 y B N k } } u s s s N e @._ J M f 9 9 7 b v 2.v + 0 i 0 0 9 q g d d f P B B A M d d X.F f g B f > 9 < = - - - - , f ",
"M f M B 1 t f s s i s p 0 0 u s N t m T U G t 0 u v ~ ~ n t 9 u 0 0 i 9 e f M d M E B f c A c g B C F B B 1 1 w 9 i i - = < f f ",
"M M M f > q c M i j 0 9 0 0 u 0 i 0 w x c z , 0 0 e l z e 9 p 0 0 0 9 @ 9 w y , , M K [ G G f G B f B F q w a q w 9 < 1 d f g f ",
"K E d 1 O y M f s 9 + + 9 0 & u s s N M V h 0 0 p y a h a 9 p 9 + . O + 9 0 u u , 1 G [ G B f B B d , - - w - * < d 1 d q d g d ",
"f c 1 1 O f B y y O O O + + 9 N N N [ A G ] N S f d c c a 0 9 = O f f f @ @ 9 p g t , M [ R c t t q 9 5 d - 1 < d h d d f d d 1 ",
"f f f d , g g M q o 1 f =   < f A V M U J [ 6.[ K G M c G a 9 * t f f f g t @ @ 9 f t 1 A a , , t w , - * f f 1 f f d F g d d B ",
"M G B M , f g K = * f g d * * q g :.P [ B >.<.1.G B g M B y + 1 c f d f G G B + X O , t q - - - @ @ + + f P G d f B c f f d f B ",
"P E E G e t f g * > g f f * * 1 f :.D D h ,.' X.K D B M g < = A M f f f B G M f +     - 9 + + + + + 1 d f c G t M M B d d 1 d f ",
"M M P G 9 0 f q . d h G X.1 * > f f f g I ' ' D E B A f < * d G M M N B G B M A B t O + - + - - + , c B A c M d c d f f 1 < 5 f ",
"G A G f + 9 p 0 * d X.X.G d ; * t d d h :.:.:.D w s y f * * f g M G B B f B G K P M y = + + = < c B B B d c M f f f t 5 < 5 M P ",
"d f B t + 9 0 u = f X.X.D f < * f f f g I g f h p 9 u 0 O t f c A M M B f f f B B A M f f h g g M c B f < 1 f t f d 5 5 1 f A f ",
"M t t > + 0 0 u 1 g g g g g < < f f f g g g h f a 0 p + > f M B M M M c M M M G M M A [ X.P f ..c M f c t t G d c d f c 1 d M d ",
"f 1 G , - a w 9 = g :.X.X.f < q B f h :.p h h f s p u + 1 M B B M B A B M A M K G A P B F f 1 f B A f c M A M t f f f d > d M f ",
"t < G 9 r a g y , X.X.f h X.= * q y g s p p i p p i u . 5 A M B B M B M B M G G B P A M F B 1 c M c d d c M d d X.f d f < f f g ",
"d t B , w a g d < K M c P A = O 1 3 t t x e 0 r r r &   t B M B M f M A G A A B g :.P g f f d f f f f f d d d d g X.f f 1 1 1 f ",
"d f A , t B M 1 < M c A R c > 4  . .@.o.=.m ( ( m n 7 # t A c M f f c P :.P M M X.C B X.X.f d f f 5 f f d f f d f d d f < 1 f X.",
"d f c , e f c < t B M E E M ; b ~ +.O.O.+.+.%.=.%.=.b : c c G K B A B M [ P f f X.f f X.X.f d f f f C f d f f d f f < 1 < d d B ",
"5 t f = & 9 y + t B K ,.:.f ; 7 8 ~ ~ ( %.~ x ( %.( b : > M G M M M A M A A M M f C g C h B f f f d 5 f d f d 1 f d < 1 < < 5 A ",
"M f B + 9 w r , d B g B G t * x ~ ~ ~ ~ ~ ( b m ~ m ~ 7 # c G f f f M f f f f G f d f C X.f f f f 5 f f f f X.d d c f c 1 < 1 B ",
"A A t @ a a p N f B g 9 < = = d b ~ ( ( n ( ~ ~ +.+.%.b # c R c B M c M A U M M C f X.g g d f f f f f f f f f 1 d C c 1 < 1 d X.",
"c d , e N p K M q 9 w k w u k h c n @.( n Y m &.+.( m 6 6 7 A c M G G M I P f M g C X.X.f d f C X.f X.f f 1 f 1 f C d 1 > 1 d g ",
"5 t 9 5 c g g 9 , @ a <.k p g w r z v Y Y M G A m n 8 7 ~ x A A G G A c G f f G X.f g C C f g f d d d d P c f d f d d f < d f C ",
"A d < > , @ @   + * q f + 1 h h y t c c :.! G M U ~ 6 b @.8 U B B M G c G G E A P g f f f d P P B f d 5 G A c f d 5 c f > 1 f M ",
"A A G f f t 1 1 q f M 5 > 1 d M c A c A R v A E Y 7 6 ~ =.m n A M A M M G G A A B B M B B d f f f B f d c c f f d f M d > d c P ",
"M G E P A f A A A f f 1 d A M G v A P R A c T =.8 6 8 ~ #.m d c G [ K K G B G E B f D I D f G f f B d f f B c f d d c < < f f f ",
"c M A :.M M G P c f t t R X.U A M B v B ! #.n 6 6 ~ b 8 ~ m 1 d B E G M K ,.[ d D f f ,.M d f M M M 1 f f 1 f d c c 5 < < 1 1 d ",
"c c f M f A M M c f 5 f B F A A U B P E M b 7 m ~ m m b 7 m t d B A G A E [ M f f B f f f f B f c c 1 < d d f 1 c P 1 > < < < f ",
"A c f f M G G M c c 5 b n U A G f f M f 5 7 c m m b n ( v c x t M f f M G K M B I f f f G M G f c f d 1 f c c f B B 1 d 1 1 f B ",
"B A P f G G A R M 5 8 8 b O.n v o.R 5 6 t c A U U c n v M A c 3 f G A f G E M B B B X.X.M d f c M 1 d A M f d f c M d 1 1 < d c ",
"G E P E K A K G d > 5 3 3 > 3 , 4 6 4 b v U d M c d d f f x c t t B K B G G M c f B f B f f M f c f M P f M c f I X.f 5 1 < d A ",
"G E [ [ A G [ f = 1 g w 9 = @ +   = t 4 < 5 < >   o O + O @ t , < f G A B G B c M f 1 M M f f 5 X.C f f C C P f I P d t d 1 1 f ",
"g A :.B M A A f O 9 g B P g q @ 1 B G G G G f t ,   9 w f G A w = f G K E B M B c d 5 f f d d f C g f d f f F d f B f f M d 5 d ",
"M M G P G M f M O 9 i f B d - = A B g A B [ M G I = @ a g A f 1 @ f A A B f B A B f d M M 1 d M g X.C X.f C C d f f f t d d f f ",
"c G P A G f f d - g B P [ D q d P B M d t E G P P d . , f f G y + < A A c c M B M f t B M d f B C C C f f f f d P f t d d d f d ",
"B M f M f f f f x M g g A f 5 M G M M d d A B M f f O = y f N [ , , B B B M B M M f < d d d f B f B f B f g F d X.f d f f d f f ",
"A M B B B g f t w a g ' :.5 1 f A E A P M G B f M f *   , f K [ q = M M B B M B f f < d f f f f d d g B f  .B f f f f f X.d f f ",
"M M I B G M t - 9 i k } i 1 f c P M f M M B A M B f > o * t v f q + 1 M B c B G B B B f B B f 1 d d f f f f f f f d d f B d f d ",
"M M K G I B < @ 0 9 p 0 , f P c M f f f M f M P c d d > > y y t f , , M M B A E D M f f B f B d 1 1 f d f f d d g f 1 d d 1 f d ",
"I M A G [ f t p s s 0 @ + d P A f f M B f f M B f B M 1 1 d f a D d q P C P D B P c d f P f f d 1 f B f f B B B B f d 1 1 1 c d ",
"E A M f I q i ` ' p u 9 , M A M f P f M f f f B P f d < y a s i p B f f f P C f f d d d c d f d 1 f C X.d f f 1 d f d 1 d d d < ",
"M A G f f - y G K B M , 1 d M f d D B f f B f f f d f < 0 u s i i w d f P D B f f f d d d d d d d f d d B f f f f d 1 1 d d 1 d ",
"M M A B 1 - f g p i i t M M f f f D :.I f f f B B f f 1 , 0 j j p p d d B f C P F f d d 1 1 d 1 d 1 1 1 d d B f f f d c d d d < ",
"B B E P < , f B f w - d M P M B G I [ I D f B B D g B c 1 9 i p h h d < f B P f d C d d d d C d C 1 < 5 B f f d f d d d d d d < ",
"f M M f < 1 y y f < 1 f M P M f P B I B f f B M D B c M f - @ i p f f = d D P f f P C d f f C C f f f 1 5 f d d f d d d d 1 1 d ",
"f f P c < t y f t < 1 f f M d f B f f P P :.[ B f B f B B y , 9 u i 9 - d f C P P P f 1 d f c B d f 1 5 1 d d 5 d < 1 < d 1 d f ",
"B I M f < y A f = = f M M M f f B f B M P P ..B f P f P M g , , u i 0 - q C C P F C f f f d 1 d 5 1 d f B B d d d 1 d d 1 1 d d ",
"d X.f 1 t y f 9 = f E B d f f c D M c M M c g P G G G B f f 1 @ 9 i i - q f h X.P C f c f d f d < d 1 d d v f d f d d d d d f 1 ",
"d f f > d d w 9 1 f f f f c P P B M c M B D A B f M M M G G t = 9 w i 0 - f f f C C d d c f B f d d < 1 1 P f 1 d d d c c f d < ",
"f g d t d w q + d 1 * d M f M B M M G f f M B P f G M G G B f < . 9 y 9 + f f f c C C d f c c d f f d 1 < d d 1 d d d d d f f < ",
"h X.f d g q >   > < * f U f f f M M B M B B P P d d f G M f f f = + q w @ 1 f f c d C d d d c f d d d d 1 d d 1 < d 1 < < f d < ",
"B B f < 1 f f > = 1 < M G d f f G B G g B B G M d d f d f M f f 1 + w s 0 + < f C C c 1 d d d 1 < < < d d f f 1 1 d d d 1 d d 1 ",
"d 1 * < d f g d t < O t f f B f M M M G E G M M f B B d d B f M < = 1 G h w - t f f c d d d d d 1 < < d c d f d 1 1 1 < < 1 d d ",
"f f < * 9 y f N h i 9 9 5 d f A G B f B [ P G B M G M f B D G f 1 t 1 M P I g d 1 1 d < f f f d f d d d d d v f d d d 1 1 1 < < ",
"f f d 1 > o > y 9 0 0 q d 1 f M G f f B E G B [ [ M M B I E f 1 < t 1 9 g B D D d 1 < * < d d 1 f C d f d d F v < 1 < < 1 1 < 1 "
};
