/* XPM */
static char *xpm_[] = {
/* columns rows colors chars-per-pixel */
"64 64 252 2 ",
"   c #0E0500",
".  c #0E0B02",
"X  c #120600",
"o  c #140C01",
"O  c #1B0D02",
"+  c #140D09",
"@  c #1A0E0A",
"#  c #1A0300",
"$  c #151103",
"%  c #1B1205",
"&  c #15120C",
"*  c #1C140A",
"=  c #1C190B",
"-  c #1A1804",
";  c #1C1511",
":  c #1C1812",
">  c #151611",
",  c #250801",
"<  c #330B01",
"1  c #3C0D02",
"2  c #340100",
"3  c #241302",
"4  c #2B1402",
"5  c #2C1A04",
"6  c #22160B",
"7  c #231A0C",
"8  c #2D1D0B",
"9  c #271809",
"0  c #341202",
"q  c #3B1304",
"w  c #331B03",
"e  c #3A140A",
"r  c #311E0B",
"t  c #3C1C06",
"y  c #231A12",
"u  c #2B1E11",
"i  c #231713",
"p  c #311E12",
"a  c #3A1F14",
"s  c #2B220E",
"d  c #2A2309",
"f  c #34220D",
"g  c #3B250D",
"h  c #38270C",
"j  c #2C2313",
"k  c #2E2716",
"l  c #342413",
"z  c #3A2513",
"x  c #332A15",
"c  c #3C2A15",
"v  c #34261A",
"b  c #342A1B",
"n  c #3C2C1B",
"m  c #3B261A",
"M  c #3D311D",
"N  c #3A321B",
"B  c #3C2D21",
"V  c #352A20",
"C  c #3D3323",
"Z  c #3C3626",
"A  c #470C00",
"S  c #421405",
"D  c #441902",
"F  c #471607",
"G  c #551A05",
"H  c #441B11",
"J  c #4B1C15",
"K  c #541B10",
"L  c #48250A",
"P  c #592407",
"I  c #422C15",
"U  c #422E1C",
"Y  c #4B2718",
"T  c #562719",
"R  c #443116",
"E  c #43321D",
"W  c #4A331C",
"Q  c #4C3A1E",
"!  c #49361A",
"~  c #553C1B",
"^  c #593718",
"/  c #59390A",
"(  c #682908",
")  c #772A03",
"_  c #793605",
"`  c #622A19",
"'  c #683718",
"]  c #7A3918",
"[  c #6A3609",
"{  c #432E22",
"}  c #492F22",
"|  c #532924",
" . c #443423",
".. c #493523",
"X. c #443A25",
"o. c #4C3A24",
"O. c #443529",
"+. c #4B362A",
"@. c #453A2A",
"#. c #4C3C2B",
"$. c #543C24",
"%. c #5B3C22",
"&. c #523D2B",
"*. c #573627",
"=. c #4B3D31",
"-. c #463931",
";. c #523E31",
":. c #673B26",
">. c #763C26",
",. c #663B34",
"<. c #622C20",
"1. c #691F02",
"2. c #5D4118",
"3. c #6B461B",
"4. c #76481A",
"5. c #784E0C",
"6. c #4B412C",
"7. c #4D4025",
"8. c #54432D",
"9. c #5A442C",
"0. c #5B492E",
"q. c #574326",
"w. c #4D4231",
"e. c #474030",
"r. c #544433",
"t. c #5A4633",
"y. c #554A34",
"u. c #5C4A34",
"i. c #544439",
"p. c #5A4538",
"a. c #554A3B",
"s. c #5C4C3B",
"d. c #5D523D",
"f. c #585136",
"g. c #64452B",
"h. c #6A442C",
"j. c #694827",
"k. c #774927",
"l. c #78562B",
"z. c #634D34",
"x. c #6A4D32",
"c. c #624E3A",
"v. c #684538",
"b. c #764937",
"n. c #6B5236",
"m. c #64523C",
"M. c #6B543C",
"N. c #6C593D",
"B. c #655539",
"V. c #785637",
"C. c #6D532A",
"Z. c #5C4D43",
"A. c #5E5242",
"S. c #634F41",
"D. c #6E4740",
"F. c #635443",
"G. c #695643",
"H. c #645A43",
"J. c #6C5B45",
"K. c #645649",
"L. c #655A4A",
"P. c #6C5C4A",
"I. c #69574A",
"U. c #725C44",
"Y. c #715E4A",
"T. c #775544",
"R. c #6B5E52",
"E. c #79544A",
"W. c #6C614B",
"Q. c #6D6146",
"!. c #73624C",
"~. c #75644A",
"^. c #6D6253",
"/. c #746452",
"(. c #796653",
"). c #7C6A54",
"_. c #7C6C5B",
"`. c #756857",
"'. c #7C715A",
"]. c #7D7060",
"[. c #883B08",
"{. c #8A3C11",
"}. c #883E21",
"|. c #89450C",
" X c #975809",
".X c #884A16",
"XX c #944B16",
"oX c #8B5617",
"OX c #945918",
"+X c #925609",
"@X c #A55E1E",
"#X c #A05D0E",
"$X c #9C6415",
"%X c #896417",
"&X c #AA651A",
"*X c #B2711B",
"=X c #864525",
"-X c #974E26",
";X c #87572A",
":X c #945929",
">X c #885737",
",X c #955736",
"<X c #8B4C37",
"1X c #AA5C2C",
"2X c #9A662B",
"3X c #8E6739",
"4X c #976936",
"5X c #8A6732",
"6X c #A76B28",
"7X c #B66A26",
"8X c #B67429",
"9X c #A56B35",
"0X c #A77439",
"qX c #B57636",
"wX c #A57126",
"eX c #C7792B",
"rX c #C57C37",
"tX c #CE7931",
"yX c #C5761A",
"uX c #865846",
"iX c #955946",
"pX c #8B6544",
"aX c #976940",
"sX c #836B58",
"dX c #85735D",
"fX c #986E53",
"gX c #A36647",
"hX c #B97A47",
"jX c #AE7B4E",
"kX c #887865",
"lX c #806C61",
"zX c #A67D68",
"xX c #BC8234",
"cX c #D3842E",
"vX c #C78337",
"bX c #DB8B33",
"nX c #D48A3D",
"mX c #DD8C3B",
"MX c #D48537",
"NX c #DB933C",
"BX c #CE802E",
"VX c #E38D3E",
"CX c #E5963B",
"ZX c #94856B",
"AX c #CC8943",
"SX c #D68B44",
"DX c #DA9247",
"FX c #DC9754",
"GX c #CB8954",
"HX c #E49545",
"JX c #E7944A",
"KX c #DC906C",
/* pixels */
"> & & $ - - $ - $ $ O 6 * 3 - % % 7 * $ O $ % + $ * 6 7 % o o % 7 o o % * * * o o 7 $ % % o y % 3 O O - = $ $ % % o % % % % ; > ",
"& & . $ - - $ - % 3 6 X X o O o X . o $ % O % % - o     $ * % o % o * % X o % * O * O % % o o o O O O O $ - $ . % O 3 3 $ $ = & ",
". & $ = X.N N N n B Z O.O.X.X.X.@.X.@.@. .C C Z B Z @.=.=.@.@.X.Z V  .@.@.X. .k Z b Z Z O.@.O.#.....U v V e.e.e.M R  ...8 % + & ",
"> . - N f.f.f.0.H.r.=.s.A.y.y.m.a.Z.Z.y.i.a.K.K.A.F.A.i.=.w.a.a.F.s.a.a.a.K.R.F.L.Z.F.w.w.A.i.s.u.s.F.L.A.a.e.6.u.B.f.N.b 6 & & ",
"> . $ k d.0.0.7.s.#.n  .r.H.(.).M #.#.v m X.X.v v v n X.s.L.p.C B r.S.a.B l l 7 n C #.l l w. .U kXdXI. .k N w.f.o.u.q.G.m % % * ",
"> $ o d H.7.0.c E +.+. .s.kXZX).f ..@.E  ...n 3 l  .#.r.s.H.t.n  .t.L.H.a.r.#.l 3 l +.E  .#.{ l M.sXdXd.@.y.8.M c 9.o.N.x O % ; ",
"= $ $ x Q.7.0.N o.t.t.;.u.J.m.0.5 l ..u.P.P.u.o.J.(.G.E 9 r n U U f 5 3 n G.).G...c.G.P.c...n 5 x.U.F.8.@.w.w.o.! 0.Q ~.z O * * ",
"= $ . s Q.7.0.h t.E n +.&.o.u.).U c ..m.P.u.E z U 8.8.m f I  .m U E U z c 8.8.n c #.8.!.F.U R c sXz.o.8.w.N  .y.c 0.R U.f O @ * ",
"X - $ x f.Q B.0.M...} +.+.W I c c.t.f O z $.8.P.!.t.c.~.m.N.J.u.8.(.m.m.J.J.t.!.!.8.Q z O 5 t.J.L I E 6.6.6.X.d.0.N.W z.c O * o ",
"* o o N Q.R 0.ZXY.} { ;.w r 9.W f X I m.(.).J.8.8.t.8.5 E E c s.c.f l R f o.8.9.o.P.).~.m.o., 4 o.9.r 3 X.M M /.ZXq.R N.n o o * ",
"* @ $ 5 Q.8.h N.sXI.+.U f ..m.f E t.dXG.m.U z 8.E t.m.o.s.t.c.t.u.m.m.8.u.J.m...8.I E m.J.kXu.c r n.o.s N @.W.'.N.h q.!.f O % * ",
"& * $ 7 Q.7.3 5 G.kX&.U r.8.&.E /.).m.f y.c o.t.8.G.&.s.m.o.t.5 , t.o.#.u.#.m...u...n u.r t.~.).I o.r.a.N e.].d.5 3 Q J.8 O * & ",
"; % X C d.x 7.7.m I.+.{ ;.m ..).m.X.l ..J.#./.M #.F.8 3  .E 8 o.r.l M t.s 8 s.s. .Y...P.X.f  .P.sXo.m @.b Z L.e.#.Q f m.C o + = ",
"& &   b A.8.~.d.m +.+.u 9 ;.W.P. ...E s.J.8 ..#...c t.E +.m.U `.P. .p.&.l 8.8 ....+.3 m.m.r.#.m Y.Y.#.7 7 Z Z C f.!.8.J.n o > + ",
"+ > o s W.A.m.X.+.m B # l `.P...r.r. .v p. .l p.r.m _.F.s.r.y.X.M F.s.u.s.kX .r.s.l  .i.v #.s. .n P._.v = Z k C X.d.F.W.j % > . ",
"> & $ j W...5 s. ., 6 u F.`.x  .F.w.H.n b P.r.r.r.F.p.f G.5 J.c c m.3 c.U r.S.p.i.i.R.n m y.#.!...v ^.A.7 7 - C p.5 ..P.k @ + > ",
"; o o n Q.h q.~.I { ,  .`.@.x 6.f.x . d.W.^.@.r.U ..*.*.%.g.j.j.q.C.j.q.$.%.} r =.i.R.^.s.3 f u.w.u i.R.+.3 U m U.M.z /.O.X + ; ",
"= + o s J.! n.U.z.m r ;.L.C 6.x x y.f.Q.6.6.U W %.j.h.j.4.k.l.4.3.C.3.j.k.b.x.v.O.B i.6.d.H.o.U Z -.-.K.p.8 t &.M.T.{ I.a X @ @ ",
"% % o 5 ~.0.N.z.*.} a S.c.@.y.6.d A.W.y.g R h.l.j.k.;X;X2X2X9X9X0X0X2X2X;X5.4.3.x.M.c ..p.P.H.u =.-.=.a.I.I ..g.t.(.t.Y.p X ; @ ",
"+ % o j ~.q.0.I &./.+.Y.r.n d y.'.f.Z x g.j.k.[ 2X9XqXqXxXAXAXAXxXxXxXvXxXqX6X4X] 3.V.g.c u.;.kXR.p =.#.Y.U T.Q Y G.;./.v @ 6 @ ",
"* % $ x J.R R 5 z t.Y Z.w.! 7.W. .U 8.%.l.4.4XqXqXnXnXMXMXtXSXtXNXNXNXNXbXBX8X8XqX0X' l.j...+.m K.V O.+.G.U v.W 0 ..m P.v o 6 * ",
"* $ o s Q.c o.Q G.+.+.s.y.N d.Q u.&.g.3.5X2XqX8XMXmXmXmXVXJXSXVXcXbXbXcXbXCXCXNX8X&X9Xl.' x.*.F.;.I.&.#.c.} U z.U 9.m L.m o * ; ",
"% % $ l Q.X.z.u.S.} m F.6.0.Q.2.~ :.k.;X4XqXFXJXmXmXVXmXtXSXrXrXSXMXnXbXbXbXcXbXHXDX8X2X;Xj.x.&.+.F.s...m.m o.Y.9.G...^.m @ * @ ",
"o & $ s Q.! 8.Q c.Y.8 G.n 0.c ! j.' ;X0XGXDXAXnXtXtXeX@XXX{.{.[.|.[.XX8XrXtXcXCXbXtXSXvXqX4.j.C.+.z S.m G.0 U.M.I s. .P.v % 6 o ",
"+ % o x H.X.E u.G.lX4 F.P.q.R C.[ :XqXqXFXFX&XrX@X_ ) hX}.A ` A G A iX-X) {.rX7XtXtXVXVX7X1X;X' n...&.m.U.5 (.U.c...m ^.v @ o % ",
"7 % . k Q.6.M n r.P.m S.9.Q q.2.5.&XrXvXSXqX_ ) XX-X( ( A K ,.A ` A <.` ' =X.X1.#XJXVXJXSX8X6X[ %.$.W &.9.z M.+.n  .#.^.j % % % ",
": % . k W.6.n n s.Z.+.I.o.! B./ OX*X8XSXFXqX.X_ A G A A J | | J T | A 2 J S ( [ [.tXtXtXMXeX8X4Xj.z.$.q.c.*.N.u.l  .#.^.k O % % ",
"* % o k H.X.N X.`.i.Y Y.R 7.C.5.*XBXHXJXAX_ :X<XA 2 <.D.fXuXD.E.uXgXE.D.J , K iXXX7XJXJXHXHX X6Xk.9.*.W N.R t.(.+.n m /.v + . = ",
"% % o x L.Z b M S.;.p G.z g.2.l.$XyXcXAX6X] 4.P T S b.b.>XuX>X;X;XiXb.T.*.4 J T [.1.tXtXmXHX*X9Xl.%.9.w T.g ..m.@.m b ^.v O o * ",
"= $ . v W.6.l s p +.m G.w n.~ 4X&XCXMXAXoX9Xk.D uX:.pX>X;X4X0X6X:X2X;XpXE.E.v.1 gX-X1XVXVXeXvX$X3Xq.n.4 ~.U R n 8 m @.R.y * % - ",
"= & o x W.6.N b B B m Y.g n.2.4X+XbXJX6XP ` D 1 x.x.>XaX4X$X$X*X&X*X2X>Xg.T.| 1 G ) ) eXHXMXMXoX3X^ n.w N.I h n m  .@.R.u % * @ ",
"+ % o k A.e.e.A.R.u p P.W n.~ 5X*X*XSX6XhX,Xk.Y F b.l.pX0XwX+X*X X&X0XaXV.t.t <.<X1X1X7XmXHX*XOX3XY n.W M.f f P.L.@.Z R.b O o $ ",
"i % @ u L. .X.i.a.N v d.I n.~ 3XoXnX8X_ _ ( G F e 0 g fXaX5X5.5.oX2XjXC.h 4 4 S K 1.{.[.tXVX*X%X3X~ z.R M.r v p.i.O.-.R.V + * 6 ",
"@ @ @ v /.E M C b k k W.f M.~ 3XoX6X@X|.XX=Xk.` H 0 < ,.V.fX;X4.5X4Xl.L 3 z *.,.<X}.{.{.&XvX$X%X5X~ n.w T.I { m B v Z R.V   O X ",
"@ + O p /.M c v Z Z s `.s x.q.;X2X+X|.OX;X-XiX:.T q , , h 3.;X3X=X4.L w 4 4 L ,.>.}.-X1X@X8X%X%Xl.q.V.4 E.n } B v v -.R.V o O o ",
"; + O u W...M N A.A.j ^.f q.x.3.4X5.[ |.4.] =X>.,.T I L L L 0 D q D < w H Y :.>X<X}.[.[.|.9X%X5.C.%.z.g Y.z ;.I.{ B -.R.V O - = ",
"; @ # u !...M M ^.A.V A.E $.n.^ ;X5X:XjXjX,X}.k.` F 1 Y uXuXL 2 P fXk.t , *.>.>.` 1XKXGX0XoXl.3X3.$.%.W M. .c._.{ B O.R.v o % * ",
"; + * m (.o.n c y.a.Z A.8.E g.g.V.l.l.4.;X( ] <Xk.T A < E.zXT , ' zXh.q , ^ >.<X}.}.iX-X;X5.C.C.q.q.$.o.t.&.s.i.V v Z R.b o $ o ",
"; + @ v !.E M Q a.A.N A.8.$.W x.R ^ pX>X,X1.>.] K T S 1 ,.zX*.< V.fXH H F K <.=X1.1.=X,X>Xl.0.2.z.$.9.8.z.} c.;.+.{ @.R.n $ % % ",
"> + % 8 P.o.7.y./.^.k d.u.t.Y z.q.R U.' ` A gXgXiX>.F < J sXT | D.pX2 A | D.uXgX>.( [ =Xj.n.q.o.z.h 8.c.G.f /.sXp.+.@.K.v O = * ",
"+ y o x P.R m.o.H.w.7 A.n c.*.E B.0.w :.^ D k.] ' K F F J H e H q Y F 1 J ` ` >.1.( ` ` T , t.F. .7.H.f m.f ..Y.#.P.n P.b . j . ",
"> & o 8 !.o.8.q.m.8.X.d.#.&.t.&.n J.z.0 k.P ' <X:.T 1 e | | J H Y Y Y q A ` uXiX<.` k.L Y t.^.b  .s.8. .Y.&...G.&.r.@.`.v o = $ ",
": + + 9 !.$.h ! u.9 @.^.m  .sXt.y.k m.U.L L h.:.*.T e e | *.H 2 *.Y Y H 2 T ,.<.S :.j.D M.F.v a.^.H.M ..t.U o.&.n m X.`.s $ % = ",
": + * k !.~ R d E F.M d.#.+.z S.i.a.M 9.n.^ < uXuXv.e , a ,.E.uXV.Y 1 < J D.fXuXL L g.x.&.#.O.A.y.b  .s.J.n G.z z .. .P.j $ - = ",
"& . $ C J.q.~.R o.J.C Z.S.+.p s.^.a.Q R x.x.V.$.} } a , e Y *.T Y Y < < | ,.Y 0 %.g.B.0.h X.P.Z.d.Z b 6.s.z J.c.E ).#.L.n o $ $ ",
"> & o n m.Q dXg.u.8 n A.Z.} S.+.7 H.`.J.R g 9.t.s.H.p.U U T :.:.%.g.Y H ,.D.v.D.M.9.5 d J.`.I.7 C a.Z L.P.U w o.8.kXE F.C . = $ ",
"> > o s N.I n.N.W E u B ].+.z  .X.w.z m.z.~.r c m w.Z.c.G.D.x.b.h.T.T.D.,.,.;.| I f B.Q.7.s t.+.Z Z X.A.X.f g t.m.m.c L.k $ = $ ",
"& & % d ).R I sXa z X +.`.Z.l r.F.s M R u.).8.F.@.@. .B *.*.*.:.$.W %.&.m +.;.+.p.d./.6.H.c r p.y.$ L.].v # I 5 ).E c `.s $ = . ",
"+ & o j N.7.M R o.o { 3 C kX6.l L.F.r.M 6...#.8.L.@.L.+.F.f !.l l (.5 F.;.H.r.P.r...#. .l s.s.L.x y.'.+.p m , O.B +.6.F.n o O % ",
"& : o s Q.B.B.H...x l p l Z./.r...n r.m r.l +.r.v ..'.r.s.s.s.p.s.;.F.t.#.kXm M a. .s F.X.#.c ..q.P.P.u i V p -.I.H.d.H.x 6 i * ",
"@ 6 $ s H.f.0.f.I p.E j c  .Q.L.X.c u.#./.n  . .+. .m 8 ..r.M (./.U #.@.r m ....n t.n P...p.=.E ).c.U 9 p i.;.m F.u.y.H.u 3 u # ",
"+ % $ x B.R d f ../.p.l #.#.N J.kXr.m r H.u.s.&.m.s.5 E p.E 8 l 8 m l m...O P.s.s.u...P.l 5 r.ZXz.o.r.p.p O._.;.p 4 E !.p X 6 @ ",
"i o o E Q.h w R Y.(.p.{ 6...R 7.t.P.).s.c r E J.E J.m.u.c.t.m.z c 8.c.u.u.Y.c.E u.E c l t.kX~.W W 7.&.p.{ { lX`.E 3 c ~.n X , 6 ",
"y X   x Q.Q 7.~.kXG.n #.l f N.c f 8.u.!.Y.P...n +. .J.E n 8.F.m.m.m.r.n E Y.E #...l U.(.).s.n I W z.5 4 ;.;.S._.dX7.c P.M O O O ",
"6 O X h H.7.0.sXU.&.z +.h h f.c g h f W m.!.J.J.N.E u.8.o.o.I W E ..z 8.8.8.8.m.P.!.(.u.c f c c g 8.I a } B } /.dXd.Q m.n O O , ",
"O 6 3 x B.o.7.0.&.+.&.U 8.7.d q.J.o.f 5 c f E 9.8.J.t.G.J.m.Y.m.J.N.G.M.m.m.m.0.8.W 5 E h 5 $.M.q.g Q z.+.+.;.+.8.0.8.N.n , 3 i ",
"7 % $ f W.Q m.E ;.;.+.+.;.u.N.~.5 r ..Y.sXP.8.o...u.u.f O , r f l 5 3 O r 9.c...o.8.Y.dX!...5 d U.~.S.+.+.+.;.;.E c.o.~.x O 3 6 ",
"O o   d N.Q t.n +.;.;.=.s.Y.Q.0.s c E 8.u.u...l G.P.H...n E ..n U E ..U ..F.(.F.l ..t.p.r...m 8 z.U.I.p.p.;.;.;.c 8. .J.f o O @ ",
"* % % x Q.6.u. .+.+.+.O.d.'.ZX'.c ..#.n n #. .l O f  .r.J.`.L.8.#.m.`.P.r. .l 3 l  .#.R n #.X.c dXkXlXS.=.O.O.+.B u.6./.n 3 6 6 ",
"$ o $ k A.r.a.+.Z.-.{ O.6.f.N.~.C w.=.n m @.#.C ;.#.@. .#.r.=.n n @.a.#.B X.w.#.B #.@.v n #.=.E !.(.S.O.{ O.-.i.@.u.r.H.v @ # O ",
"= = - b A.d.A.a.K.Z.Z.Z.A.y.6.f.d.A.F.a.a.A.A.A.K.F.Z.i.s.A.L.L.L.H.K.s.a.a.K.Z.Z.F.Z.a.a.A.A.s.y.d.a.a.Z.Z.Z.K.A.A.d.H.V 7 ; i ",
"o . . $ j s 7 j @ i V u s k d d s u j j l 7 u j 7 k b v k 7 6 7 7 * u k l v j % j j j k v j u j 8 l u u V p i i s 7 j j % o + @ ",
"& = - $ * $ X + ; i ; X o $ - . o o o o o o X o $ O o . o o % 7 u % O o   o $ O o X o o o o o o o O X X @ @ @ i o o $ 3 @ ; i : ",
"$ & - $ % % X i i # + * 7 $ - - % - % @ % * 6 6 - $ $ * 7 * o o @ o * y % % * - $ * 7 % % % 3 % % 3 6 6 * + + = 7 o % $ @ & + + "
};
