/* XPM */
static char *xpm_[] = {
/* columns rows colors chars-per-pixel */
"64 64 251 2 ",
"   c #050402",
".  c #0B0302",
"X  c #040A05",
"o  c #0B0A04",
"O  c #03060B",
"+  c #09060B",
"@  c #040A0C",
"#  c #0B0B0C",
"$  c #130400",
"%  c #1B0200",
"&  c #140B03",
"*  c #1B0C01",
"=  c #130D0B",
"-  c #1A0E0A",
";  c #0A100D",
":  c #13110C",
">  c #1C140B",
",  c #1B1408",
"<  c #040C12",
"1  c #0B0D12",
"2  c #080B15",
"3  c #130E12",
"4  c #0B1214",
"5  c #0C141A",
"6  c #061316",
"7  c #131313",
"8  c #1B1412",
"9  c #1C1915",
"0  c #14151A",
"q  c #141B1B",
"w  c #1D1C1B",
"e  c #1A1618",
"r  c #220B00",
"t  c #260B02",
"y  c #330800",
"u  c #241303",
"i  c #2B1301",
"p  c #24150B",
"a  c #231A0C",
"s  c #2C1B0D",
"d  c #2B1906",
"f  c #311601",
"g  c #321D05",
"h  c #331D0D",
"j  c #3A1907",
"k  c #211613",
"l  c #241B14",
"z  c #2B1C14",
"x  c #231C1A",
"c  c #2B1E1A",
"v  c #351C13",
"b  c #1C2218",
"n  c #35220C",
"m  c #3A230A",
"M  c #2D2315",
"N  c #24211B",
"B  c #2B231C",
"V  c #282619",
"C  c #332314",
"Z  c #3B2413",
"A  c #33241C",
"S  c #342A1D",
"D  c #3B2B1C",
"F  c #3C2817",
"G  c #322814",
"H  c #181C21",
"J  c #0C1921",
"K  c #281E23",
"L  c #1C2527",
"P  c #232323",
"I  c #2B2523",
"U  c #2C2A24",
"Y  c #262A2B",
"T  c #332622",
"R  c #342C23",
"E  c #3B2C23",
"W  c #332D2B",
"Q  c #3A2E29",
"!  c #3A2524",
"~  c #2C322D",
"^  c #3D3225",
"/  c #34322C",
"(  c #3C342B",
")  c #383428",
"_  c #2C3635",
"`  c #383937",
"'  c #2D2F31",
"]  c #460C02",
"[  c #471804",
"{  c #4E1A15",
"}  c #49290B",
"|  c #572708",
" . c #59320D",
".. c #432413",
"X. c #442B14",
"o. c #4B2C13",
"O. c #442C1B",
"+. c #4A2D1A",
"@. c #4B2417",
"#. c #562B16",
"$. c #44321C",
"%. c #4B341C",
"&. c #4A3416",
"*. c #543313",
"=. c #53341B",
"-. c #553B1D",
";. c #5B3B1D",
":. c #5A3517",
">. c #4D310A",
",. c #682A16",
"<. c #643A19",
"1. c #67320F",
"2. c #422D22",
"3. c #4D2C21",
"4. c #433224",
"5. c #4C3422",
"6. c #4C3A24",
"7. c #44342B",
"8. c #4A362A",
"9. c #45392C",
"0. c #4C3B2C",
"q. c #453A26",
"w. c #543B24",
"e. c #5B3D24",
"r. c #533D2C",
"t. c #5A3E2B",
"y. c #563525",
"u. c #433B34",
"i. c #4B3C33",
"p. c #463836",
"a. c #523D33",
"s. c #522928",
"d. c #633D24",
"f. c #653A27",
"g. c #723A29",
"h. c #38433D",
"j. c #68441D",
"k. c #76451A",
"l. c #5C4125",
"z. c #54422C",
"x. c #5B442C",
"c. c #5D4A2C",
"v. c #4D4235",
"b. c #484239",
"n. c #534334",
"m. c #5B4435",
"M. c #5C4B35",
"N. c #54463B",
"B. c #5A4A3B",
"V. c #56483A",
"C. c #594E39",
"Z. c #644324",
"A. c #6B4425",
"S. c #64442B",
"D. c #6C452C",
"F. c #644A2D",
"G. c #6B4A2C",
"H. c #6C4925",
"J. c #734B2C",
"K. c #764927",
"L. c #78532D",
"P. c #654B34",
"I. c #6C4D34",
"U. c #634D3B",
"Y. c #674837",
"T. c #724D32",
"R. c #774A35",
"E. c #6C5235",
"W. c #65533B",
"Q. c #6C533C",
"!. c #675237",
"~. c #745334",
"^. c #73553B",
"/. c #745A3D",
"(. c #7B5A3C",
"). c #7B5635",
"_. c #7E623B",
"`. c #3A3D42",
"'. c #453D41",
"]. c #3B4443",
"[. c #484946",
"{. c #5B4D43",
"}. c #534B44",
"|. c #5E5344",
" X c #585349",
".X c #565855",
"XX c #4C5450",
"oX c #644941",
"OX c #754D42",
"+X c #645344",
"@X c #6C5543",
"#X c #6C5A43",
"$X c #6B5A4B",
"%X c #655949",
"&X c #735442",
"*X c #755A44",
"=X c #7B5C44",
"-X c #785C4A",
";X c #665B55",
":X c #745E51",
">X c #6C634D",
",X c #7D624B",
"<X c #776248",
"1X c #696257",
"2X c #746353",
"3X c #7A6857",
"4X c #7D7156",
"5X c #6C7068",
"6X c #833D2A",
"7X c #88562C",
"8X c #835D3A",
"9X c #875A36",
"0X c #925B39",
"qX c #8A5331",
"wX c #83613D",
"eX c #8A6139",
"rX c #956639",
"tX c #94622C",
"yX c #A6703C",
"uX c #865C44",
"iX c #945C44",
"pX c #836243",
"aX c #836449",
"sX c #83694C",
"dX c #8C6B4C",
"fX c #8A6645",
"gX c #966B47",
"hX c #987248",
"jX c #866B56",
"kX c #8B745C",
"lX c #987859",
"zX c #956E54",
"xX c #A77748",
"cX c #A67A57",
"vX c #AB724F",
"bX c #847564",
"nX c #967A69",
"mX c #8C7F75",
"MX c #A47D65",
"NX c #AB8357",
"BX c #B7885B",
"VX c #998368",
"CX c #96846B",
"ZX c #A68567",
"AX c #B98963",
"SX c #B69168",
"DX c #AC9077",
"FX c #C48E58",
"GX c #C49363",
"HX c #A48E80",
"JX c #C0A286",
/* pixels */
"| :.m w.(.x.. z qX,.s.y.S.@.a.f.O.[ Y.y y g.o.[ ..y.g.| #.#.g.] ] { ] [ g.,.z.q.&.-X% s.y.=.g.g.v @.#.R.{ ] ] { <.).O.f f.y J.<.",
"xXgXd jXsXl.S +XuX0Xf.3.+.r.OXs.=XpXzX<.f.R.nX+.@X^.zX,.).iXvX| ,.iXR.9XiXg.#Xq.%.@X! a.zX=.s.@.OXf.f.iXqXqX,.,.9XdX@X2.Q.R.).fX",
"BX(.i 3Xm.0.1X3X9XcXuXu 8 ;XoX{ T.zXAXqXgX9XlX=.y.f.MXk.0XgXvX,.6XvXvX0XR.:.+XQ C 4..X+XDX~.- ! $Xy.s.uXgXvX6X6XJ./.n.V.(.).o.&X",
"K.| % d C M b D D.<.e.$ a B ..{ #.<.K.<.| A.d.} % ..qX1.1.7XK.] ,.,.6X1.1.o.2.p * s ^ M H.j.$ x ....[ f.K.K.,.,.<.P.A s S.} t ..",
"9Xd...o.&.F D &.H.:.e.o.X.%.=.#.:.=. . .;.S.d.=...e.j.1. .K.<.#.1.#.#.:.#.o.+.D O.O.v F -.:.Z 2.O.o.#.=.:.*.| =.f.=.2...Z.} o.} ",
"-XuX,X<X>X<X*X-X*X=XQ.*X-XQ./.@X@X&XQ.^.Q.Q.*X-X-X@X/./.aXuXuX=X^.Q.@X@XW.Q.#X@X$X@X+X@XQ.E.@X+X@X@XI.Q./.!.@X*X+X$X+X$X&X,XaXsX",
"E Q E T ^ E E E Q E 7.E E ^ R / Q E O.Z 2.( E E Q ^ ^ ^ 2.7.7.E E ! ) ) Q Q E 2.Q Q Q 7.4.D ! ( Q ^ q.$.4.8.7.( 7.7.7.7.7.4.0.9.",
"  . . . . . . .   7 3 o       X . . v v . . + =   .     O +     . O     O   .   # +   $ v D $ .       . . & :       . $ . . .   ",
"9   8 T A v z o o q Y 0   o + # o z R.R.! O 1 L 0 # 7 o X @ 1 ; #   < ; @ 4 < 5 P 0 + c g.OXp.+ < # .   : H 7 1 + k c v ! 8 + ; ",
"4   U S v m.8.!   ].].o 8 K 7 @   z @.@.K O 6 < 5 H 4 X : X 4 6 X < X ; @ 6 J J < 4 + - #.@.K 2 2 1 I B . ~ [.@ I 7.{.A c T @ @ ",
"+ 1 O S C sXS.h Y XX9 ! bX8.W 1 O . j v + < < @ @ H @ @ R o 6 6 < @ . I 7 + J 6 < @ 2 $ i v . # + 7.D 3XB.- XXL c s.jX2.x 1 6 @ ",
"+ 1 O 8 s 5.MX5.~ 5Xs -XY.s K   1   i.i.  < @ 4 # = @ ; %XG < @ <   - %Xk   4 X 6 @ 2   E B.  o + k Z t.jXd .X_ v nXa.t 9 O O < ",
"0 O 1 O P z -Xm.` .X@.R.3.E + 1 o ; 9 9 ; o X : a {.8 & -XU.; @ < + 4.-Xa . {.R ; @ @ # > l   7 2 O R F &XF XX].7.-Xv l o < @ 5 ",
"/   < < # P c z ` .Xa...2.e O O o R ) U R & o = i.M ) > #X2X,   + + W./.M ! Q 7.9 X   W R R R : O + 7 p.v m.XX[.k z z 7 X @   Y ",
"$.a 3 + @ P ~   `._ k E N   @ q a v.%X%X0.s 8 7 > $ i.p O.2XQ o + N 3XO.d 2.p , b ; l ^ $X%Xn.a N # # k ^ > ~ ].O w ` O 1 @ I z ",
"P.q.O @ 5 1X[.Y ~ ].` 9   @ @ # v.W.2X<XQ.v.: 7 ( E S D s m.i.$ . R +Xh z A 7.p.L . q.U.3X:X#Xz.9 O : @ 7 / ]._ L ]..XL 6 # A m.",
"0.& X   W  X` ].` Y < @ @ @ @ # a m.=X^.W.,   o V.V., ) M m.D S T T m.C c - N.{.3 o & n.<XE.@Xz   7 # @ @ @ L _ ].].` `.< < . O.",
"$.0.: @ & ) _ L h.q L 4 O 4 O P v.X.D.~.Z q.N : & ^ & S D U.&.%.w.O.x.F N 3 A p = > v.F S.E.+.5./ @ O 1 5 L 5 ].Y L ~ 7 < < q.w.",
"dXt.: # & , ) h.~ O P H O < O k U.sXy.=.pXQ.a o ( l 7 I O.;.~._.aXE.e...R 8 : ( 8 > x.dX-.-.(.=XB X X X 5 L O P _ U x = @ : 5.dX",
"R.I.B : & kX6., o O   7 5 ].= i.S.(.w.o.uXD.( ; / 7 q & :XuXhXJ.L.gXwXaXc 7 # U # B S.).F.o.).I.v.  h.b 6 @ @ . ; V mX*   > I.D.",
"f...* . $ ZXjX. M O 0 _ q `.1 > X.I.t.y.R.+.k O q q @   c.NXcXhXrXhXNXdX, @ @ 4 # : F c.t.o.~.;.l O ~ w ' q   C $ P.DXu . & C y.",
"*Xg $ B.% <XaX%.bX  @ 4 Y p.K   Z E.#.t.OX2.. 1 < < <   %.L.} rXhX1.j._.  < < < <   a U.t.e.R.w.. : ( ~ 4 4 . :XP.T.lX$ z.* % oX",
"@Xx.r DX(.y } &X|.X X b v.E I $ U.=XD.S.sXB.o < 6 @ ;   &.hX1.7XL.1.tXL.. @ O 2 ; X V.<XE.=.aX@Xp k E u.Y O   b.jXF f A.JXi q.|.",
"M C t aXcX#.% 3XR X X b |.v.x - A +.D.f.O.S 7 @ @ < X X n NXBXtXk.NXSX&.  < < < @ ; S D D.f.y.v 8 x i.{.' @   V bX% j MXdX* s R ",
"N   . Q.AXK.* >   + @ X N R 9 : . $ 8XfX. O   ` ].b X   $ F.BXyXtXBXwXt   < 5 [.`.# + . D.cX. + 7 w R c O # # # , * A.AX=X% . x ",
"5 # a i NX).%  Xx o X X : [.` .X1 . E.E.  < b  X}.h.@ X . r.cXxXxXNXE.$ # @ h..X}.x 5   w.aX  O [.` [.w   @ # x %Xu R.ZXj p + 3 ",
"0   E u C O.y.ZXa.$ ; X 4 `.b.`   O a 9 X X ) >X#Xv.7 < + > lX1.} VXF   @ 5 }.>XC.V   X p M   O L [.`.H O # & a.nXA...2.* 9.  4 ",
"3 . 8.! . $ y.R.U.. u.X < O 7 9 b + ; @ 6 X C.CXVX4XL O 1 o ~.j. .sXa X < b 4XVXlXW.o # O + < H b 9 O @ @ b.- r.L.f.$ . ! i.o # ",
"+ . p.a.N.% i nX7.p ;X$ + + + 9 P + 2 2 0 o v.lX_.VXl O O = U.G.j./.l @ @ = kXdXdX*Xo @ 0 2 1 q L 3   + . ;XD v ZX} $ 0.a.i.# + ",
"&   i.8.3Xt r Z $ n.>X$ . _ 9 ; # 1 2 5 1 . $ -.wXg & # @ : Q.A.A.Q.M . X o i (.F.* ; O + 0 + 1 1 3 ` $ $ {.m.$ v t r sX5.a.= # ",
"> M I v dXf.% 3.i zXW.& C }.7 1 7 + 7 K e o . 8.ZX$   <   l Y.K.T.I.! . # + $ bX|.& & e 0 3 # 1 7 # u.7.. m.@Xj O.% } lXv 2.p E ",
"n >X- r gXgXt h A.lX!.* 6.7.# 1 + 7 0 P }.+ . k i.& o @ + B e.d.R.t.i.$ + = . 7./ + . }.P + 7 # @ # E b., 0.*XS.v r 9XlXy r $X2.",
"t 3Xc $ 0XNX6.r wXdXx.u S ( + # 1 # 3 3 P o   o + o . $ $ a.Y.K.R.D.a.% $ . o = 7 o   9 7 # + + @ @ R 7.> 6.~.(.i o.NXxX$ z 3Xi ",
"* @X$X$ K.NX/.=.(.G.U.C / P o 7 7 + '.w > U b.  # e 1X$ r oXD.D.).g.^.i $ ;XI 3 1 / ( l 7 b.O 7 7 4 I i.a v.P.T.:.pXBX7X$ $X$Xr ",
". r.^.<. .xX8X8Xj.P.n.l / x   8 7 = e > n.A b.  o ( mX. d *XfX0X9X8XdXZ . 5X.X$ & ( D n.l 8 X 1 w   x p.c 7.I.Z.8XxXxX:.e.@Xi.$ ",
"M D R.A.L.rXrX9Xl.c.i.x ` o 7 u.w N B a #Xg C o > b.> o d aXeXqX9X9XiX+.  # N.c . c h @Xz B w 7 ` W . '.I E S.G.L.xX9X).^.I.2.a ",
"a.* Q.F.T.T.9XJ.l.z.7.T ( o [.W 9 ~ A O.&XX.0.. E U # & C pXeX7X0X9XgX-.  # c i.. Q &.Q.$.R U 7 N XX7 W W 2.t.T.H.9X).(.G.E.h C ",
"{.m.%.Q.).G.8X#.X.M.D A x & z * : , S O.*X+.M.  i.= # o n J.rXqX7XrX).&.. 7 = i.= 2.+./.$.D k > # - 8 8 7.A x.S.:.~.~.~.~.Z...oX",
"5.z.f W.aXA.J.#.+.B.h 4.* z 0.8.. i.7.Q m.s B = Q - $ . l.cXk.7XtXk.hXL.. & . p.8 c d t.D ( v.& ^ 9.M * 7.v y.e.=.G.L.wXF.=.r s.",
"Q.*X$ z.F.fXR.I.w.6.m m.B.B.oXz . |.A p 8.z ( o ! p mXu f hXBXxXyXBXcX*.* mXz z - I s 0.s l  X& & v.N.C.a.A 5.t.S.I.wXH.*Xr j &X",
"+.sX#X@Xz.^.(.S.m.C w.W.n S ( o $ 9.A A m.X.n.$ z N.bX% d o.8XK.j.D.t.j * 1X+Xd * 9.&.W.C C v.- . U B a C.z.g x.t.=X(.F.#XW.e.o.",
"kXkXx.n i m ^.o.6.&.<Xf g |.8 O   R 7.2.Q.&.|.$ a.n.. . $.E.=XE.e.f.^.m.. . 7.m.$ N.&.W.$.7.7.8 o X N.M , !.%.-.X.=X} u g 6.&XzX",
"jXkXOX@Xw.&.Q.=.F.,XdX_.(.n   # o v.m.q.m.8.}.& :X- o   z.S.E.I.y.-Xd.U.o o $ 3X& N.0.M.r.{.N.. # + u Q.~.dXsX!.o.(.&.-.F.F.=XaX",
"..-Xy.+.c.P.y.~.c.>.>.eXfXP.& X . S 8.v p l B l {.. # . z.F.;.#.@.S.~.Q.  @ . B.k l z s C 7.( + = . c.dXlXH.F l.,X>.F.!.&.=.e.h ",
"8.oXX.x.c.l.e.*X/.F m c.S.<X:X$ # e x z M l T 8 U . 1 o B.D.d.L.9XD.J.E.= 1 . T x I l C A M e + $ +XaXf.j.X.F !./.F.l.c.F.6.z Q ",
"p.U.+.-.Z.aX^.P.c.4X&.!.G.Z.<X4.  0 W A 2.E ) > l . @ . M.e.<.~.8Xd.G.M.= O . k k R ^ E A R w . Z sXG.I./.X.>XC.c.E.,XP.;.} v ! ",
"s.OXpX).:.t.^.I.$.>X>XW.&.S.^.*X. : D ! 4.D 4.a 9   o ( %X0.X.dXlXo.e.M.u.o o k k ! Q ^ D T 8   !.pX6.n M.>X%X9.-.).y.F.J.0X{ { ",
"{ OXL.wX:.I.I.m.W.>XD C.!.} <.=Xl . 7.4.4.^ 4.M N o    X>XV.6.#XjXX.M.#X|.o + 0 c 2.8.2.4.q.o - *X-.m $.%XM C.>X-.E.E.d.L.vX{ { ",
"s.s.zX1.j./.m.z 0.4X9.m >. .n o = . 4.r.5.5.4.M b   u >X%X2XC.z.C.$.4XW.#XM   w c 2.4.5.x.0.+ $ $ f ;.*.X.z.%Xz.s z.P./.} cX{ s.",
"] g.hX<.wXS.h $ y.t.M.%.wXSXVXg . . 4.@X6.+.5.A w . X.sXC.3XC.B S h.bXc.<Xw.. 3 c q.%.%.U.q.. o u jXSXhXw.P.%.z.% Z >.sX*._.g.] ",
"{ oX=X;.T.G.R.] cXL.E.-.rXxXhXl.. @ E 2Xg Z 0.A 9 . w.dXz.3X|.& : ) CXD _.W.. k c 8.O.* m.u.  . -.hXNXhXc.z.F.cX[ D.J.x.t.U.t.[ ",
"z :XU.l.e.I.0X1.0Xg.E.l.yXrXL.x.. o B D r.B.4.A 8 o P.dXw.1X|.$ = R 4Xm wX<X- 0 c q.M.M.$ B O   z.L.tXNXS.c.S.iX1.0Xf.m.4.a.Q.j ",
"i CX>X* a % k.xX9Xy 5.&.eXeX>.q.V o * v.+X% ( B w . =XzXO.+X2X$ . b.3Xn fXzX, K K p.% oXV.& o 8 q.} eXhX&.e.y R.xXK.r z * n.pX} ",
"@XCXs a S ..hXcXOX% p 6.H.dXw.0.C.> * %Xh M.b.x 7 $ /.~.+.B.2X$ . n.%Xg 8X~., 8 k 7.+Xv B.>   u.i.4.dX(.5.n $ I.yXxXm ^ p M <XeX",
"E v.s $.I.H.<.gX-Xp o . d jX+X9.|.S & * sX#X8 H 0 . F.I.5.r.kX$ $ %XW.D ).l.k w w k P.nX$ , a N.5.P.kXm $ $ a Q.gX6X| /.^ S o M ",
"o N ^ $.dX9X[ lXV.5XV l & a ^ C.%XE M 4.kXf $ 3 0 . l.=Xm.$.CX* $ 3Xc.F./.Y.- 7 : & * kXn.B l b.|.0.S $ A k 5X}.ZX[  .ZX6.( o o ",
"w p.7.t.NXwXu v.~ 5X9.2Xm.& . ` ) , z.x.m $.}.o 7 . X._.aX-.ZXf % lXZ.wX_.6.o ; o v.z.n -.n.> N ` = . 8.kX6.5X~ i.r G.ZXv./ e H ",
"' [.T O.lX;.S ; X N M HXa.W XX[.Y 9 n.%.m S.m r * , >.K.(.~.NXg t kX_.9XL.l.$ u , g F.X.&.W.x P `.[.'.! DXF b ; # ) c.kXz.l 8 Y ",
"Q ;X, E kXd v.V z $ * %X- 0 .X_ _ ' b.Z hXxXL.7XJ.rXxXtX .L.SXj % MXfX<.rXBXhXK.7XK.hXrXX.{.' ' ' _ P   C.M . 9 : {.m 4Xq.o x T ",
"8 [.V ( >Xa ~ S 0.4.B I Y 1 ].`.5 L P * H.GXBXyXxXxXGXxX~.&.ZXo.f nXG.L.xXGXxXyXyXyXBX_.* b.P H H `.@ P / 9 E E x ` d >Xi.9 8 = ",
"Q ;X[.'.b.  R V z.W.P L P Y w ].H L Y > . aXSXFXFXFXA.m kX5.jXz.%.2Xl.nXj ;.AXGXFXFXlX* & w P q _ P L L Y U p.N.N ~ & ( ` b.( R ",
"a. Xp.[.E & S s #X6.b 9 I ` 9 R .Xb.W B * i 1.rXtX| % d Z f x.Z Z x.n O.h % | 7XtXk.u & T p.W }.) b ` U x B G z.B R & G v.v.z 7.",
"/.I.S.Q.P.Q.S.e.E.F.x.z.U.Y.x.t.Q.l.S./.F.G.:.<. .j.I.I.G.(.d.S.S.I.(.Z.D.).<.K.K.;.J./.F.I.Q.T.T.S./.P.P.^.S.I.P.U.!.E.!.*XW.$.",
"j.*.o.D.<.Z.D.f.d.G.S.l.A.T.A.D.J.A.j.j.G.S.G.T.e.I.A.G.<.Z.d.d.G.A.K.H.:.R.A.D.A.H.H.K.Z.A.L.A.K.d.~.Z.j.j.A.T.f.D.H.j.j.G.-.c."
};
