/* XPM */
static char *xpm_[] = {
/* columns rows colors chars-per-pixel */
"64 64 97 2 ",
"   c #070700",
".  c #0B0703",
"X  c #0D0804",
"o  c #0F0F0F",
"O  c #100706",
"+  c #140B05",
"@  c #1B0F02",
"#  c #140C0A",
"$  c #1B0E09",
"%  c #1E1003",
"&  c #15100B",
"*  c #1E1009",
"=  c #231306",
"-  c #291507",
";  c #251309",
":  c #2B160A",
">  c #2E180B",
",  c #30170B",
"<  c #331A0C",
"1  c #3B1D0F",
"2  c #2D1610",
"3  c #301710",
"4  c #351A11",
"5  c #3D1E11",
"6  c #3F200F",
"7  c #3E2010",
"8  c #411F11",
"9  c #442212",
"0  c #492414",
"q  c #4B2514",
"w  c #4A2415",
"e  c #4C2414",
"r  c #4E2615",
"t  c #4F2716",
"y  c #472218",
"u  c #4C231A",
"i  c #4D2518",
"p  c #502616",
"a  c #512716",
"s  c #512817",
"d  c #532916",
"f  c #522917",
"g  c #512718",
"h  c #532818",
"j  c #532819",
"k  c #542819",
"l  c #542919",
"z  c #562A18",
"x  c #54291A",
"c  c #56291A",
"v  c #572A1B",
"b  c #582B18",
"n  c #592A1B",
"m  c #5B2C1A",
"M  c #5B2C1B",
"N  c #5C2D1A",
"B  c #5B2B1D",
"V  c #5D2C1C",
"C  c #5C2C1D",
"Z  c #602D1D",
"A  c #602E1C",
"S  c #622F1D",
"D  c #602E1E",
"F  c #622F1E",
"G  c #622F1F",
"H  c #62301E",
"J  c #66301F",
"K  c #67321E",
"L  c #68321F",
"P  c #622F20",
"I  c #642F21",
"U  c #663020",
"Y  c #673122",
"T  c #693221",
"R  c #6D3620",
"E  c #6D3424",
"W  c #723723",
"Q  c #733724",
"!  c #703526",
"~  c #733626",
"^  c #773B25",
"/  c #753826",
"(  c #793927",
")  c #7C3D27",
"_  c #773828",
"`  c #7B3A29",
"'  c #7D3A2B",
"]  c #7E3D2A",
"[  c #7B4023",
"{  c #803E28",
"}  c #803D2B",
"|  c #823D2B",
" . c #85402B",
".. c #88412D",
"X. c #8B432E",
"o. c #8C442D",
"O. c #994E2F",
/* pixels */
"o o o o o o o o o o o o o o o o o o o o o % % % % % : = = % = = = % > = * % % @ % % & o o o o o o o o o o o o o o o o o o o o o ",
"o o o o o o o o o o o o o o o o o o o o & + % * % % : = % = % = - - - - = = = % % % @ & o o o o o o o o o o o o o o o o o o o o ",
"o o o o o o o o o o o o o o o o & o O @ % % % % * = - = % % - - < ; - > = = % = % % % % @ O o o o o o o o o o o o o o o o o o o ",
"o o o o o o o o o o o o o o o o & & % % % % = % = - = = = m ) n T l ; = = % = = % = = ; % % & & o o o o o o o o o o o o o o o o ",
"o o o o o o o o o o o o o o o & @ @ @ = - - 1 , : e m 9 7 Q ..T Q U < t J 1 - 1 ; = = % % % = ; & o o o o o o o o o o o o o o o ",
"o o o o o o o o o o o o o # + % @ = , q n 9 9 l b m ] Q 9 : u P 5 $ > ^  .9 1 n 7 9 7 : - = = - % & o o o o o o o o o o o o o o ",
"o o o o o o o o o o o o o % % % @ - a D n D n 8 m m H o.C - # > $ ; l o.K 9 L 6 j U i j j = $ = % % % o o o o o o o o o o o o o ",
"o o o o o o o o o o o & @ % ; ; # $ $ 5 l j D E s J m U J 4 * * ; 9 R U 9 m R j ] s m q ; X # $ % % % % & & o o o o o o o o o o ",
"o o o o o o o o o o % % % = < 6 O . # # ; , 8 n 8 8 y 8 5 0 c E E U i 7 , 9 5 e l 4 : # X X . = > > = = = * & o o o o o o o o o ",
"o o o o o o o o & % % = = > < 6 $ : - > < - 1 < 5 , 2 : < 5 g ' O.' 9 9 2 > 4 < - = . X O X ; : < 7 : = = % % + o o o o o o o o ",
"o o o o o o & # @ % = 1 1 6 < 4 < g n u 7 ; > 8 a e C T T ~ c u T E B ' ~ D l 1 - $ ; , 5 = , < < 9 > > > = % @ + o o o o o o o ",
"o o o o o & % = = - 9 q 1 9 4 < 9 > : = $ @ $ , 5 8 N E ~ ` n 4 y y c ! H B 1 ; @ O $ 4 4 : < 9 7 < : 7 9 : = * % % & o o o o o ",
"o o o o # % % = 4 q j q 1 9 9 5 q 7 $ + + + $ = * - < 5 4 5 y l B j 4 < < 5 ; #     X = ; > q j 6 < < 9 9 < 6 - = % % & o o o o ",
"o o & % % % % < 9 9 q i 9 q q 1 , 9 8 5 ; O   # @ @ $ ; 4 9 l l i 9 9 , $ $ # X . . * 4 > > 7 e 1 1 , 1 9 , 7 - % % % % % & & o ",
"o & % % $ ; ; : 4 < 9 9 q 9 j q q q l n y 4 $ # O $ $ $ $ ; : : : * ; # # O   O + ; 5 9 q 9 5 9 1 < , > - : - = = = = % = % & o ",
"% % = = = : > ; ; = ; 4 g e P E E D E ` ' P g < $ + $ X O . .   X O # # O + + ; < e P U U U c m j q 1 - % % = > > > - % = % % % ",
"% % = - - - 4 < 4 4 < > * * - 1 j H L W W D D m n 5 ; # O .   X X O X + + q e C E Q E E T C l c q = * = < q 9 l 9 : - , ; % @ @ ",
"@ % = > ; > j n Q J E C 9 > = 1 D ( ( | ~ W J ~ ( E 8 : $ ; ; $ $ ; - - > T C H [ / U E E U c a 7 : < 9 q q j W N , = = : = = @ ",
"% = = - > 1 n T ( ~ ' ( U q > * 9 L / L L J E {  .E 5 > < j n q q D q q 7 ~ U C W ) T T T P n i > < 9 e a e H E D 9 - - > ; - % ",
"% = - > , s C ~ ' W ~ ~ ~ 9 - = - 9 H D H D E W W ` 8 ; q J ~ W H ~ T n l _ N j j m c B n g q 8 : > 5 t s e T T L s 1 - : - - @ ",
"% = ; - , C Q / ' ( ( Q L s < 5 < < 8 w d D C J E ` q > m L ( ~ D L L m a U n i j l j l n 5 5 < < 6 t U H C Q R D B T 8 8 : * % ",
"% = ; < 9 C C J W Q Q T C 9 q 9 1 < 4 5 8 e q i j 9 > ; e N J W N n q < 4 4 9 5 9 0 9 5 4 ; > 9 q t L / / T ( Q L ( ( d s 1 = @ ",
"% = , < a J N L T W J J a < q e g l w g 9 9 j ( ' l 4 - 1 d b s q 8 < : 5 9 m C C q 9 9 9 7 - , > 7 U ` ` W ` T D J W D D a , @ ",
"% = < 5 m L l T J J D a 1 > 5 U ~ W q q 4 : 5 q l | | L U N 9 , < q T ' / ~ T q 9 4 < 4 w l q < % = 9 j H J Q C D T ( D D m 1 - ",
"= - 9 1 e N N d D S d 8 > ; 4 U J 9 * $ + O O $ ; g D ~ ' ( J q l / ( J q 1 1 = # X O # $ , 9 1 + = 1 8 M D D k e s D S N N 8 8 ",
": < e e a d N m S S d 1 : = : 5 1 - # X .   X # # $ = 1 e n H b n 9 1 - $ $ * O   . X O # $ ; ; * 1 e a d e , , , 1 8 n e a 1 : ",
"< < 9 a e d D D n e 9 < > = * $ $ $ # X + + $ @ - , 5 e J W E q s , 4 < > = $ % % @ O O @ % ; ; , a 8 8 , = - 8 e M a n d b e , ",
"> , 9 d C J D T L b b e i l g 8 k 8 5 y 8 a 5 w n n T D L J P n J d J N q > 1 > 1 - = = = = = = ; , = * * = a ~ ( ~ D W L l q , ",
"= > 9 9 n e l U L J S e q n n q u 8 8 n n a w w a a n 8 8 n g q 8 1 e 1 : - , - , , , , , : - = * @ $ ; ; , l D E T l I a 1 < - ",
"$ * ; > < - : , 1 < , , > , , : = ; = - - - = , : - - - = , , ; = = 4 4 - - - = = * % = = = $ @ @ + = = * ; 4 8 1 4 , 8 , ; $ $ ",
"X # + $ # # $ $ $ $ $ @ @ % - : = ; @ $ * : = $ = ; $ % * $ * @ * % : 4 1 1 1 - = = ; = @ * @ + @ @ = @ @ $ $ @ $ $ # $ @ # # X ",
"    X O O O O # @ O O + $ + @ $ @ $ = : * = ; @ $ $ = % = = = = - - : ; ; = * # $ O $ O @ @ $ @ $ $ $ $ + # O + + O O O O O     ",
".       X O X O O O O O # O # $ * % % - ; ; = = = $ $ = > - - * $ * ; * ; $ $ $ $ % + @ * @ + % $ # O O X # X O O . . . .     . ",
"+ # # . .       . . . . O O X X X + O $ = = $ @ $ > = $ $ ; - $ @ @ + + + * % $ @ @ @ @ + + O # X X O O . . . .   . . . . X O + ",
"@ * $ $ # O X   . . . . . . . . X X   X X # @ O O @ @ @ + + + @ + + + $ @ + + O O + + X .   X X   . X X   . . . O O X o $ $ ; @ ",
"@ = ; - ; $ * * # # # $ $ # * * $ * , 4 : - < 1 = < 5 , 1 5 n 5 8 l 8 8 8 , = @ = - > > > = % = $ * $ $ $ # $ * $ ; ; ; - , - @ ",
"% = = = = = = , , , > , ; > > - , 9 l m a q q 8 , s C d D a ' N l ( E ` e n 8 , < q m H d 9 < 1 < 9 1 ; = < < , : - - > : : - @ ",
"@ @ @ = = = = 1 5 5 < 4 < 6 < < 9 q l C N 9 9 9 < q 9 n C d ( D a e n T 8 T d 1 9 9 s H l 1 1 9 8 e , > , < 1 < - - - - > - * @ ",
"@ @ = @ % = ; , 1 7 8 9 < 6 < 7 9 9 9 9 q 1 9 l 1 s e e e 9 ' ' D L a E 8 S l 1 e t , q 1 < , 1 5 9 < > 9 1 1 < : : , - - - = % ",
"@ @ = = = % % = - < 6 8 6 6 < < < > : 1 1 , q l 1 s L U T l ~ | / L T B D S n < q b t 8 , - > 1 < < > < 6 1 , = : - = % - = = @ ",
"@ @ = = > @ @ = % = > 6 6 > > 8 1 < 8 8 q q b d 6 s C W ' J D P U n ' / ~ N C 1 9 s D d > < , 1 < > , 8 4 1 , % : = @ % - = @ @ ",
"@ @ = - > = = = = = - > 6 < < 6 e e b b d 6 8 6 , e N L | Q e n U 9 E J L d N 1 9 q e d < 7 7 1 , > 1 8 , < , - - = @ @ = % @ @ ",
"% @ = - = - - - = < 1 - < 9 6 6 s S d b s 9 e 6 : q N n T ( C q n n L a n s s < d d 9 q 6 7 1 1 < > 8 , - , : % = % @ % = @ @ @ ",
"@ @ % - = = = = > 1 1 - > , : 7 e s s s 9 q s 9 1 q e a q H a a T H J 9 m 9 e 1 d s 9 1 1 1 < < , > , - - , , - - * = = - % @ @ ",
"@ @ @ @ @ @ % - = = * $ = = = < 6 6 6 < - - > - - 9 d E v P Q ` ` C n M T 9 e - 1 , - , - - = = = = = $ $ * * * @ @ @ $ @ O @ @ ",
"@ @ @ = = % : : - * * = > - < < 9 9 < : , 6 6 : > s Q Q Y ` ` ~ l g g n J N e = = - - : > = = ; , , = = = * = = @ * @ @ @ @ @ @ ",
"@ @ % , : - : , < ; = > 9 9 < 9 0 0 - > 6 6 9 6 < l l b q A A U T D n 9 s e 9 > < 8 1 1 1 < , - < 1 > - : ; : , = , - = @ @ @ @ ",
"@ @ $ : = = - , > = > : 6 < > 8 0 t 6 > 6 6 6 6 < t C q t Y E Y n l a e N l 9 < 9 9 q q 1 < > > , = - < : : : = - : , = @ @ @ @ ",
"@ @ @ - ; = = : , , < - > ; < q s 9 6 9 8 6 > > > 6 s s j Q ] _ T L d s n : 9 < q q 9 9 4 > > > - ; ; , < > > ; ; - > - % % @ % ",
"@ @ @ % = = - > , 4 4 - ; ; 1 q q 9 < q 7 7 7 7 : 6 9 9 t 0 U B N N 8 8 9 1 1 , q e 9 < - : > - = - < < 4 < - - ; ; ; = % % @ @ ",
"@ @ @ % = : ; > , < , - = ; < < 7 7 > 7 6 9 6 7 > 9 7 8 q q l l T L d s s e q : 9 1 4 6 < > < ; = ; < 6 < > ; : ; ; = = % @ @ @ ",
"@ @ @ @ * ; > - , < , < ; ; , > < > > < q s 6 < > 9 > 9 q q s 1 s l 9 e e s 9 > 5 < 1 4 > : - ; = ; < > : > > : ; = = * @ @ @ @ ",
"@ @ @ % - = > ; > > : 7 - ; > - : - - : 6 e 7 > > 9 4 b < B l t q q 9 4 6 < 1 : 9 1 1 1 > 1 - = = ; : : ; : > : ; = % % @ @ @ @ ",
"@ @ @ = > = - - > > > < ; > < ; 7 < 7 4 6 7 1 : - 9 s j < T T q l q < 9 8 1 1 : < < 1 > > 4 > ; ; < : ; ; < 4 > - : = % @ @ @ @ ",
"@ @ @ @ @ = = > < < - ; = 7 7 = : 7 6 < 9 > : = = 7 Q Q < H E L R U e < 6 < 1 - = - - : - - > - ; > > ; - > > - : : % @ @ % @ @ ",
"@ @ @ @ @ = - > > > : > ; < > ; < 6 < < > < ; : - 6 H T 9 C l q q 7 9 9 5 < 4 = - - = - = ; ; ; = = - ; ; = ; - > : % @ @ @ @ @ ",
"@ @ % @ @ = > - > > > 4 < 1 < ; 7 6 = ; < : = = = 1 T E s C q 9 q c t q 5 < 5 = - = = = = = = = ; ; ; - ; ; ; ; > > % @ @ @ @ @ ",
"% @ @ @ % = - = > > : > ; ; < - 6 > = ; 6 : ; = - 9 n H A U j q E T e q q q e > > = : > ; - = = ; % ; * % ; - - - : % % @ @ @ @ ",
"@ @ @ @ % = > : > , < < ; > 9 1 < - - : 9 < - = - 9 7 e H U 0 < j b 9 7 < q e : > - > > < < < > = % ; ; ; ; : : ; : % % @ @ @ @ ",
"@ @ @ @ % - = > , , , - - 1 q 9 8 : , 6 9 t 4 < < 6 t B B A U j E K q 0 s H s > 8 5 9 1 < < < : : > > - % ; ; : ; - % % @ @ @ @ ",
"@ @ @ @ % % = > < : > = - 4 s 9 9 9 1 6 9 d d 5 < 7 H C t K T U A m l 9 1 9 q < q 9 7 7 > 9 > ; - > > ; ; = : : ; % % @ % @ @ @ ",
"% @ @ @ @ @ % = < < < > > < e q s 6 6 1 1 q q 1 < 7 t s t j q W U H t l l 9 9 < t e 9 9 0 e 9 < < > > > > ; > - = % @ @ @ @ @ @ ",
"@ @ @ @ % % % - 8 < - > 9 9 b H C 9 6 6 9 q q 1 < j D N c j U [ _ m j B _ J t 1 9 t q 6 0 t 9 7 > : ; > > - - 7 - % @ @ @ @ @ @ ",
"@ % @ @ % % - < 8 < 6 9 q e d l d 9 e e 8 8 q 1 < l / ( _ / U l B j m q q t 9 6 9 9 6 7 6 9 9 7 > - ; : : ; : > 7 % % @ @ @ @ @ "
};
