/* XPM */
static const char *ZWd5cHQ0KyUyODElMjk_[] = {
/* columns rows colors chars-per-pixel */
"64 64 256 2 ",
"   c #391D14",
".  c #2B1B13",
"X  c #28231B",
"o  c #362214",
"O  c #3B2315",
"+  c #3B251A",
"@  c #3D2A1C",
"#  c #36241A",
"$  c #3E2911",
"%  c #231B25",
"&  c #262625",
"*  c #3A2923",
"=  c #302A2C",
"-  c #141B1F",
";  c #461F17",
":  c #43241B",
">  c #4C251B",
",  c #432B1D",
"<  c #4B2B1D",
"1  c #472815",
"2  c #542B1C",
"3  c #592A1A",
"4  c #4B311C",
"5  c #54331C",
"6  c #5A331D",
"7  c #5C3A1D",
"8  c #563317",
"9  c #45240C",
"0  c #65361B",
"q  c #6D3318",
"w  c #442D22",
"e  c #4B2D22",
"r  c #462926",
"t  c #532D21",
"y  c #5A2E23",
"u  c #463223",
"i  c #4C3324",
"p  c #4C352A",
"a  c #4D392C",
"s  c #483628",
"d  c #533324",
"f  c #5C3324",
"g  c #543925",
"h  c #5C3B24",
"j  c #55362A",
"k  c #5B352A",
"l  c #533B2B",
"z  c #5B3D2C",
"x  c #533E32",
"c  c #5B3E31",
"v  c #513433",
"b  c #4D3932",
"n  c #672E24",
"m  c #623424",
"M  c #633C24",
"N  c #6B3B24",
"B  c #633C2C",
"V  c #6A3829",
"C  c #763B2A",
"Z  c #663D33",
"A  c #73431E",
"S  c #5C412E",
"D  c #58412A",
"F  c #4E4134",
"G  c #5B4233",
"H  c #5B4539",
"J  c #584538",
"K  c #6C4424",
"L  c #63432D",
"P  c #6B452C",
"I  c #664428",
"U  c #744C2C",
"Y  c #784729",
"T  c #634533",
"R  c #654A35",
"E  c #6C4C35",
"W  c #64443B",
"Q  c #634C3D",
"!  c #6C4D3C",
"~  c #6B4439",
"^  c #724C33",
"/  c #734C3A",
"(  c #784736",
")  c #6D533D",
"_  c #6A553B",
"`  c #7C5433",
"'  c #73533C",
"]  c #7B553B",
"[  c #795838",
"{  c #76522C",
"}  c #5A4D44",
"|  c #6B4C42",
" . c #664943",
".. c #764D45",
"X. c #6C5243",
"o. c #6B5648",
"O. c #735544",
"+. c #745A45",
"@. c #7B5B45",
"#. c #75544A",
"$. c #7B5C4B",
"%. c #775849",
"&. c #7B5A53",
"*. c #6C5E51",
"=. c #7A614B",
"-. c #7A6855",
";. c #756E59",
":. c #797167",
">. c #883B1C",
",. c #914B1E",
"<. c #884A29",
"1. c #86542E",
"2. c #864A37",
"3. c #845334",
"4. c #855B3B",
"5. c #8B5C3C",
"6. c #885737",
"7. c #955A38",
"8. c #964E28",
"9. c #A75A34",
"0. c #A25126",
"q. c #8C623D",
"w. c #896238",
"e. c #94643D",
"r. c #996639",
"t. c #9D753D",
"y. c #A96A39",
"u. c #875B46",
"i. c #955B47",
"p. c #84544D",
"a. c #8B6443",
"s. c #83654C",
"d. c #8B654A",
"f. c #8C6A4B",
"g. c #866647",
"h. c #936443",
"j. c #936A43",
"k. c #9C6B44",
"l. c #93654D",
"z. c #946C4C",
"x. c #9A6D4B",
"c. c #9B6443",
"v. c #9D724C",
"b. c #9A7349",
"n. c #886855",
"m. c #9B6D53",
"M. c #956A55",
"N. c #89735A",
"B. c #9B7454",
"V. c #9A745B",
"C. c #9C7A5B",
"Z. c #957758",
"A. c #8F714F",
"S. c #A36C48",
"D. c #A37344",
"F. c #A3744B",
"G. c #AA764D",
"H. c #AC7B4B",
"J. c #A77947",
"K. c #B47A4D",
"L. c #A37554",
"P. c #A37B55",
"I. c #AC7C54",
"U. c #A47C5B",
"Y. c #AA7B5C",
"T. c #A77457",
"R. c #B27C55",
"E. c #AC624B",
"W. c #887766",
"Q. c #9B7B63",
"!. c #977865",
"~. c #927466",
"^. c #A77E63",
"/. c #AD7D6A",
"(. c #AA824B",
"). c #B2824D",
"_. c #BA854A",
"`. c #A5835D",
"'. c #AC825C",
"]. c #AC8457",
"[. c #B38454",
"{. c #B3845B",
"}. c #B58B5C",
"|. c #BB8C5C",
" X c #BA8756",
".X c #BA915C",
"XX c #9B8267",
"oX c #968971",
"OX c #A48363",
"+X c #AC8463",
"@X c #A5866B",
"#X c #AC8A6B",
"$X c #A98867",
"%X c #B38563",
"&X c #B48A64",
"*X c #BB8D63",
"=X c #B38C6A",
"-X c #BB8C6B",
";X c #B58568",
":X c #BD9365",
">X c #B5926C",
",X c #BB936C",
"<X c #B99668",
"1X c #AC8D72",
"2X c #A68A74",
"3X c #B88B73",
"4X c #AB9379",
"5X c #B39373",
"6X c #BC9471",
"7X c #BC9A74",
"8X c #BC9B7C",
"9X c #B6967A",
"0X c #B1976E",
"qX c #C18C5A",
"wX c #C6965C",
"eX c #C39464",
"rX c #C2946B",
"tX c #C49B6D",
"yX c #CB9B6B",
"uX c #C79965",
"iX c #C39572",
"pX c #C39B74",
"aX c #CB9D74",
"sX c #C39C7B",
"dX c #CA9E7C",
"fX c #C69069",
"gX c #C9A16C",
"hX c #C5A27C",
"jX c #CBA47B",
"kX c #CAA577",
"lX c #D4A778",
"zX c #DBAC72",
"xX c #A99682",
"cX c #BA9C84",
"vX c #AD8D80",
"bX c #BCA288",
"nX c #C09E83",
"mX c #CBA583",
"MX c #CDAB84",
"NX c #CCAC8A",
"BX c #C5A785",
"VX c #D3AC83",
"CX c #D2AD8B",
"ZX c #D8AC86",
"AX c #D4B28B",
"SX c #D9B588",
"DX c #CCB495",
"FX c #DAB994",
"GX c #CFAE91",
"HX c #E6B889",
"JX c #E3BA94",
"KX c #D4BBA3",
"LX c #E8C49A",
"PX c #EBC08B",
"IX c #ECCCA6",
"UX c #DEC5A3",
/* pixels */
"E E %.n.l.i.u.u.l.m.^.=XOXz.u.3.| T / m k k B ~ Z B ~  .~ | | #.| p  .o.~ ..$.s.p.&.%.#.#.|  . . . .| #...#.&.#.#.&.#.&.~.!.!.n.",
"%.W | p...( Z Z ( ( l.m.V.l.V.M.n...( p.p.( V C ( C ( p.2.p.p.p.~ z c $.......#.~ ..' &.n.] ..#. .W W | ....s.~.n.n.$.&.!.Q.Q.Q.",
"#.~ ....Z P P ( ] ( P ] l.u.M.M.l.i.i.i.i.i.2.2.2.<.2.2.i.m.M.i.l.d./ @...p...~ W #.+.o. .! | W  .Z c W W W %.M.n.$.$.n.V.!.M.^.",
"u.M.V.l.B.L.L.+X6X;XU.-X-X^.-X=X=X=X+XL.S.T.iX3X3X-X/.T./.iX1XcX=XU.B.m.V.m.V.M.Q.Q.C.~.!.U.M.u.n.d.n.M.s.u.M.V.V.d.M.Q.!.M.d.M.",
"a.B.U.=XdXdX6XpXsX=XhXVXjXVXAXAX8XmXMXVXpX:XZXCXCXLXJXdXaXsX@XDXsXB.=XdXdX6X,X7XmXsX$XM.1XdXY.Y.;X%X&X%XV.V.;X/.z.z.z.M.^.@XT.B.",
"u.m.m.-X=XdXhX,XBX8XAX=XsXMX>XMX5X8XMXZXuXeXZXNX5XZXFXmXjXhX@XDXNXC.6XVXjXZXhXhXmX8X+X%.N.5X+X;X{.G.I.{.T.T.^.L.z.;Xm.5.U.Y.L.x.",
"u.T.U.-X+XsXCX6XsXNXCX$XmXmX&XSX8X5XNXSXaXyXJXNX5XAXAXCXSXJXDXIXGX$XsXmXhXJXCXmXrX{.*X/.V.].*XqXR.F.F.{.rX-X&XY.+XiXL.a.Y.v.+XP.",
"( x.I.*XrX=XdX+XhXmX6X7XAXmXpXaX9Xf.#XhXlX|.7XZ.5XAXNXCXAXFXKXKXNX@XmXdXmXCXmX8X=X+XU.n.%.g.U.T.-X%XI.I.%X&X*XtXpX&Xa.h.T.h.iX%X",
"^ d.'.*X%X&X,X&XpXkXdXCXCXkXeXaXmX5X6XiXrX|.'.=XjXVXCXCXFXFXUXGXhX=XhXNXBXmXZXaXnXC.d.u.g.@.j.l.h.m.T.T.;X'.sX8X`.m.u.j.z.u.I.G.",
"3.h.G.{.].dX7XpXpXVXZXFXSX<XjXmXSXjXlXlX|..XgXlXlXlXVXFXJXFXFXNXhX7XBXAXlXkXpXFXJXrXY.T.S.x.R.{.;Xl.Y.'.:X*XaXJXlXR.S.F.6./ h.Y.",
"W O.s.+.*.;.-.;.;.oXoXoXoX:.:.:.W.-.!.xXN.N.-.=.[ f.N.XXoXXXXXXXW.4X8X$X8XZ.+.;.oX2X!.n.s.!.`.@X@XQ.2X@XC.Z.XXn.-.o. .%.H } Q s.",
"Z O.$.X.=.+.=.-.=.o.X.-.-.W.W.Z.W.) s.N.=.n.-.N.N.N.-.;.W.W.W.:.:.2X4X4X4X!.W.*.W.xXxXoX@X2XQ.XX`.@XN.:.:.:.:.;.*.} } o.Q J  .) ",
"Y i.j.'.&X,X&X{.n.^.}.+X;X:XkX(.v.I.}.H.].&X<X.X>X>X$X7XmXNXGXDX7XMXGXBXMX8X5X2XnX5XcXsXiX%XI.;X%X{.U.Q.!.W.W.XXA.N.~.n.n.*.&.o.",
"V u.+X,X-X&X+X].r O.<X>X+XgXhX&XP.v.j.'.pX`.=X,X.XyXlXHXPXLXLXLXVXFXIXVXkX&XpXZXVX<XhXtX X{.uX%X$.U.{.H.x.a.T.G. Xn.>XfX{.v.h.u.",
"N h.*X|.].v.&XB.%.! .XtX].:X'.tX{.L.x.'.pXtXjX6XgXgXtXtXVXLXFXOXH =.5XJXpX;XiXrXrXrXsX,X[.R.aXl.X @.J.H.{.5.r.K.B.& _ rXd.j.j.u.",
"0 h.I.uX*X+X8Xf.A.T b.I.Y.tX3XwXyX].&X,X<XgXkXiXgXZXZXjXSXLX5X$ & = + #XIXtX&XA.{.&XOX&X}.j.}.g.o.[ |.qXR.S.I. XS.} [  Xu.`.q.%.",
"m t.G.-XrX.X<X .e.b o.gX-X=Xa.yXyXQ.@XyXlXOX>X*XU.lXAXFXHXIXJ X # X % } SX=XQ.Z.*X;XB.].G.k.m.&.;XL j.D.G.S.F._.f.%.E |.r.h.z.P.",
"V J.I.Y.*XyXb.#.l.N.D =XzX,X@XwXwXC.`.|. X<X<X X].lXJXlXzX7XX & & X * * XXSXdXgXjX:XP.&X|.{.P E 5Xz ) P.G.L.F.}.[ H T rXaX'.v.a.",
"( h.z.+XtX{.w.l.f.M.A.@.zXlX>XwX|.z.A.[.qXkXuX_.<XlXlXgXPXn.- % & - & % s.HXGXZXMXkX:XI.}.w.a.$X}.^.E T.eXt.K.R._ J G z.rX[.(.u.",
"N 4.` }.}.F.*Xx.` i.'.Z.P.lXeXeXG.d.u.I.ZXpXkXeX,X`.`.eXHX} - v * - & % @.HXKXFXVXpXuX|.3.a.jX+X XiX9X5.eX XK.S.' | X.4.{.).J.4.",
"0 h.M P.b.{.HXI.` i.S.jX@..XqX*Xk.l.L.*XZX=X'.m.I.].].zXlXs u 7.v o U r =.HXFXFXMXVXD.k.l.sXaXdXdXMXBXbXOX-X6XB.l.%.' 5.F.H.e.u.",
"Y x.K e.(.rXlXuX5.m.S.{.1XJ.fX}. XF.{.eXaXpX7X#X*XH.lXzXr.( 7.9.9.{ r.a.&XHXJXFXMXVX&XY.*XjXY.{./.'.|.$Xz.c.B.q.c./ ` e.h.x.` 4.",
"Y F.5.j.*XfXuXuXx.k.*Xe.kXrXY..XeXI.[.:X*XeX}.Y.].eX{.e.,.9.y.y.y.2.0 H.zXzXSXjXdXZXhXsX XyXL.6.5. X_.t.j.S.S.x.x./ ` r.3.u.a.j.",
"Y D.e.{.{.*XwXgXb.6.).I.|.,XC.J.rXiX{.|.{. X).k.OX=XU.7.9.9.7.2.7.E.6.gXVXCXCXNXlXCXhXtXuX Xw.l.l.S. X{.k.e.c.C.L.! [ t.5.u.B.J.",
"( 3.1.x.k.K.wXqX] Y t.wXuX[.'.}.eXaX{.H.H.h.5.7.7.0.{.k.0.E.3.N 9.K.K.HXJXMXAXMXjXmXhXdXeX XH.H.e.m.J. Xm.e.x.I.m.4.4.G.e.d.C.P.",
"( 6.1.k.x.R. X X^ N r. XeXeX&XrXtX:X{.H.D.e.<.3.7.0.S.L.0.8.x.Y <.<.|.JXVXmXVXpXVXhXsXpXaXyXH.H.b.-XJ.[.iXv.Y.{.l.B.x.G.F.z.B.%X",
"Y 1.Y 1.e.D.).H./ Y r.[.}.}.U.kXSXlXrXJ.D.h.Y 3.9.y.7.B.<.A I.:XY *XSXJXkXVXkXkXsXsXNXMXlXyXJ.J.j.-X X X&X&X-XY.z.U.B.G.I.z.C.iX",
"3.c.7.k.S.D.).k.^ 3.H.|.:X:X`.tXlXZXaX).).5.C 2.8.9.8.C.c.e.r.lXaXSXkXkXVXjXkXjXsXNXAXNXkX:XD.J.h.%XJ.).j.P.jX%Xx.B.P.G.{.B.+X,X",
"3.S.7.c.S.D.H.Y ` 5.).yXeXJ.P.kXtXaXtX|.[.Y Y 2.<.8.,.`.m.5.r.lXHXeX:XkXAXAXmXsXmXFXNXBXhX:XJ.j.q.L.t.t.v.q.*X;Xh.V.U.F.I.U.&X{.",
"3.S.1.7.S. XI.U 4.q.|.lXaX(.%XVXtXtX*X XD.Y 5.C 3 8.8.&X1XY y.lXgXlXlXSXAXFXAXmXMXAXhXhXhXtX{.v.3.v.K.).F.4.D.%Xq.V.B.j.L.z.U.|.",
"3.c.6.c.I.|.j.^ { h.wXyXtXtX-X&X:X:X*X[.e.Y 2.Y N 8.,.I.vXN H.lXSXVXSXSXFXMXAXAXVXmX7X7X6X6X,X&X` I.I.wXe.K (.I.4.z.d.e.v.5.j. X",
"6.5.<.e.G.[.{ u.3.5. X[.5.1.K Y |.&X%X{.5.Y Y T.u.>.0.S.~.q ).FXAXjXAXAXFXNX$XSXAXhXsXhX7X7X>X7X4.F.I.qXk.0 (.[.3.d.f.k.v.4.q.t.",
"` Y q 1.j.q.U 3.1.6.*XH.0 z R ' &X|.(.B.4XXX#XDXoX0 ,.r.c q K.UXJXkXjXAXSXJX'.5.+XhXmX7X7X5X=X+Xj./.[ (.G.6.J.{.^.U.B.z.OXa.6.j.",
"6 Y 1.7.6.{ 6.j.r.e.|.).N T S L +X|.I.OXbXcX8XDXcXN >.7.f q y.FXFXNXFXlXyXK.<.q 9 V.cX8X8X^.x.x.#X! f.(.k.1.b.kX9X^.B.U.8XU.a.e.",
"N 3.S.F.j.q.F.k.r.e.|.[.N G z L z.:X}.@X9XBXbXDXKX~ q 7.6 3 r.FXjX=X{.7.8.<.<.3 K %X,XU.Z.!.4XbX!.z bX7XP.v.'.7X1X^.m.#X1Xd.4.h.",
"K 6.r.H.H.G.{.r.D.e.|.qXN d D S =.&X].@X2X9X9XbXcX+.q <.0 0 1.v.1.Y q 3 q 3 f Z d.OXC.Z.XX2X4XXXH _ DX9X`.5XmX<XV.^.m.5X#Xg.a.a.",
"K w.t.).).).[.r.D.1. XqXY e S z ' +XB.9X4X1X1X4XC.C.q >.7.7.9.<.C 3 6 ] f.N.2XxXcXcXXX=.x w @ . r XXBXnX=XOXV.w.d.C.C.5X$Xf.g.q.",
"U j.D. X X}.H.r.G.5.qXuX3., l l S C.`.cXcX9X5X2XB.hX1.q 2.N q N / Q.bXxXxX2XW.H  .J @ . . % & & x 8X8X9X$X$XV.j.d.Z.+X$XB.g.[ g.",
"U 6.e.H.{.{.F.3.x.h. XwX6., u l z f.`.5XcX8X#XQ.OXVXz.> k 8 ' !.Z._ Q H G e p p X X X X * * * a H XX>XQ.Q.1XOXB.g.@.u.g.[ E I ^ ",
"M Y e.S.F.x.5.K Y Y w.D.` e u l i [ #X5X2XC.f.C.#XSXpXc d g D x , O < f d d , s W j B B j k j d r 7 g.u.$.n.f.] ' / M / ' h B E ",
"0 ^ g.u.5.q.4.` 4.w.5.a.U 3 j F i ] #XV.$.n.s.g.Z.+XI.Y C ( C C C C C V n C C M Y ( ( C C V m m * , ! ' ! z , i g i 4 g T Z B { ",
"P P 8 [ w.L.z.I x.J.a.[ [ y 5 D l E d.g.s.s.n.s.E ` a.P f 2 1 d < < , :   O : @ O o O , e , w u u l G ' @.z g d j l L T z T [ E ",
"h h h a.` z.` D q.H.q.[ U 3 B D g [ f.f.!.!.!.C.m.B.f.w.@.e : e : : + r : : r p r O   : + + w s i e R E @.' 4 g v T / T t I [ 4 ",
"d L ^ w.4.q.I g 1. Xq.@.[ m B [ E g.OXC.XXXXQ.1X8XcX9X`.B.~ m n 2 > > > 2 > t j Z f y y t > > < w l d E @.L S i p i g ~ B h R i ",
"i T P ` 6.w.[ L q.D.w.[ [ f y v.[ f.@XXX1X1XXX1X5X9XbX+XP.Y 3 C C C n n n n 3 m t f f f B j 1 , u , i i l l l s @ s , h E T G d ",
"4 h P U K 4.a.` z.e.J.^ R h f P.[ f.XX2X8X9X1X2X5X9X1X$X`.g.^ m m y 2 < e < , 4 + e , : p s * s s @ u + + w i , @ u # g R d , i ",
"g g / P K q.5.6.f.I.|.^ ' L y z.] @.XX@X1X#XQ.XX9X1X#X1XC.$XQ.1 > > : : e e e l r e ;   + : : p p s p , w i l < + p @ + l p w w ",
"4 z L h I { 6.3.` k.J.[ ' L k K U L XX2X2X#Xn.C.@XZ.$X1X^.z.6 k k k t j c z z ! k k t t t e e i p i l + u S g 4 j d w r p g 4 r ",
"e d I U I U ` { Y 4.j.U [ P 3 B P 5 n.Q.C.V.s.n.^.V.Z.n.=.T 5 M 3.B M B / O.T T B m B B k j z a i x l 1 < S z g i , d h 4 l s i ",
"< L ^ [ U P ^ I K K U { ` 6 3 m 6 h n.n.C.s.' =.n.s.@.O.X.l f B Y M B T O.' z z M B B f f d i s @ i a , u G S g u u i i , d u + ",
"1 h I M M h M M N 0 0 I P 8 m B L h +.=.n.s.E O.! +.O.X.H p e f ( B f h / / z l 3 V B f k j e s # @ i u w l l u u a p a a l i , ",
", 5 I h 8 h 4 h M 8 0 7 I 6 M / g.E @.s.' ' R | X.%.) R a i : f ( V f m P ~ j j f ~ B f z j , @ # # + # o @ @ @ l l @ # @ + i g ",
"r , h h 8 7 8 7 h 8 7 7 I 2 8 ] f.] @.=.! ! R  .X.X.) z i i 1 2 C V V m N N B Z f B f d d i , @ @ w # o o # o u T J @ . . . u z ",
"+ O 9 8 8 8 7 7 I ^ 7 M B 9 6 ] d.7 L @.$.' O.| X.) O.g d : 1 2 N V V V N C ( P 3 2 < > > e w * w s + + , i , J ! X.x w @ @ l z ",
"# , 1 8 D 7 7 8 P [ I 7 h 1 6 ] d.8 L =.@.L +.O.#.O.T < ,   < d 0 m B B B P ( n m 2 > > : + @ * , i , i i z p Q %.X.c , , w l l ",
"o 4 h 9 7 4 5 h M 0 8 7 M 2 3 ] g./ E ' E L O.=.o.+.1 , O + w : 3 2 e e : f P 0 y 3 > > < : # u u i g G z T S ) $.| c i l s a s ",
"1 z g $ o o , 4 , # + d > 3 6 / u.^ / ' ! T R +.+.c , w @ , < j 3 2 e : , < T f m 2 t j j , r w , x l S T R T ' O.T S z l u s @ ",
", g g 1 o # O o o o O < > 5 f E ] P ) R T R T @.E 1 , O 1 1 ! h y 2 t e j B V n f 2 2 d j w w w @ i p W W ! O.O.$.R G G x u u @ ",
"u l g , O # # o o # o , < f d L R z T z l z z ) 5 1 O o O g O.6 B t > 1 d B V C h f f z z e i u * w w l x W #.$.n.' G z l @ * * ",
"u i d u # @ @ o # + # + , < 1 4 4 i l l l u u i O u # @ , G l i k t e , g T R E d d f k j e i s l H G c l j T %.@.! G l p # # * ",
", w i s @ @ @ # , , @ , w e O , @ , + u w + , , + # # o p i 1 d f e < , p S ) R e d k B k e e i O d G T G j z ! ' E z i i + # * ",
"u , u w + + @ , u @ @ u i i w s s @ + @ @ , w a g e i , g L L E ! c j e j T $./ e l W ~ B c W X.X.G z z z T =.s.O.! c p l r * + ",
"J x l G x b x G F l F F x G J J J F J J H H J H T Q Q H G +.O.O.o.X. .H Q  .O.~ x Q o.&.O.$.n.W.!.-.=.$.$.=.n.%.Q Q Q Q  .x p w ",
"a s l G J x l l l a D a p l a a a F a a a a J b b F b J F F a x l x J F F F s F J J x J G Q Q H J H H H Q H Q H Q Q Q  .X.H Q  ."
};
