/* XPM */
static char *xpm_[] = {
/* columns rows colors chars-per-pixel */
"64 64 255 2 ",
"   c #010106",
".  c #02020B",
"X  c #040A0C",
"o  c #0A090D",
"O  c #09050C",
"+  c #030312",
"@  c #040912",
"#  c #0A0A12",
"$  c #02031A",
"%  c #010A1C",
"&  c #0A0817",
"*  c #110D17",
"=  c #0B141C",
"-  c #17161A",
";  c #12100F",
":  c #271B1A",
">  c #321E1F",
",  c #2A231B",
"<  c #37291C",
"1  c #3D2D15",
"2  c #010323",
"3  c #030C24",
"4  c #010D2A",
"5  c #0A0C25",
"6  c #031324",
"7  c #0A1324",
"8  c #03122B",
"9  c #041B2D",
"0  c #0D1C2C",
"q  c #0B1926",
"w  c #141C25",
"e  c #1B1C23",
"r  c #1C1B2A",
"t  c #141828",
"y  c #031533",
"u  c #0B1B34",
"i  c #071A36",
"p  c #141B33",
"a  c #090C2F",
"s  c #231C27",
"d  c #1C232B",
"f  c #182427",
"g  c #0C2233",
"h  c #0B233C",
"j  c #062439",
"k  c #142334",
"l  c #1B2434",
"z  c #1C2A33",
"x  c #13243C",
"c  c #1B2B3B",
"v  c #17273A",
"b  c #1B3137",
"n  c #14262C",
"m  c #232324",
"M  c #2B2323",
"N  c #2C2A24",
"B  c #25232B",
"V  c #2B2C2C",
"C  c #25292A",
"Z  c #352D24",
"A  c #3C2E24",
"S  c #342C2B",
"D  c #362826",
"F  c #2B332E",
"G  c #3B342B",
"H  c #38352A",
"J  c #232C33",
"K  c #2B2D33",
"L  c #262938",
"P  c #342E37",
"I  c #2B3334",
"U  c #2B333C",
"Y  c #273438",
"T  c #343434",
"R  c #3C3C34",
"E  c #33343B",
"W  c #333C3C",
"Q  c #3C3B3B",
"!  c #393534",
"~  c #18221D",
"^  c #49351D",
"/  c #4F341C",
"(  c #4A3424",
")  c #43352C",
"_  c #453C2C",
"`  c #4C3C2C",
"'  c #493627",
"]  c #523B25",
"[  c #523D2B",
"{  c #5A3D27",
"}  c #443B33",
"|  c #4C3C33",
" . c #433837",
".. c #513E31",
"X. c #462B21",
"o. c #663C26",
"O. c #39433C",
"+. c #2D403C",
"@. c #70461D",
"#. c #4A422B",
"$. c #55432C",
"%. c #5A442B",
"&. c #594427",
"*. c #4C4334",
"=. c #48453A",
"-. c #534233",
";. c #5D4B34",
":. c #534C3B",
">. c #5B4C3C",
",. c #574636",
"<. c #5B543A",
"1. c #684929",
"2. c #69512B",
"3. c #74532C",
"4. c #7A552A",
"5. c #644C34",
"6. c #634C3B",
"7. c #694B35",
"8. c #645235",
"9. c #6D5234",
"0. c #65543B",
"q. c #6C543B",
"w. c #6B5B3D",
"e. c #655A3C",
"r. c #795532",
"t. c #735C3C",
"y. c #7B5C3A",
"u. c #765835",
"i. c #744D2B",
"p. c #7B643C",
"a. c #69613C",
"s. c #041B42",
"d. c #082949",
"f. c #172B45",
"g. c #1C3344",
"h. c #1C334A",
"j. c #17364A",
"k. c #093556",
"l. c #183956",
"z. c #0D2D50",
"x. c #243443",
"c. c #2C3C43",
"v. c #283A49",
"b. c #353C44",
"n. c #3B3B42",
"m. c #333D4B",
"M. c #353745",
"N. c #233C53",
"B. c #253A56",
"V. c #2E3349",
"C. c #193D63",
"Z. c #093C66",
"A. c #283D63",
"S. c #443C47",
"D. c #184257",
"F. c #2C4249",
"G. c #384448",
"H. c #2C4354",
"J. c #28465A",
"K. c #384957",
"L. c #3B5258",
"P. c #19466B",
"I. c #244765",
"U. c #2C546A",
"Y. c #355568",
"T. c #345C75",
"R. c #334E6A",
"E. c #386175",
"W. c #444443",
"Q. c #4C4B43",
"!. c #464947",
"~. c #524B43",
"^. c #564C47",
"/. c #49534B",
"(. c #5B5244",
"). c #5B554B",
"_. c #57574A",
"`. c #4B4D54",
"'. c #485557",
"]. c #585956",
"[. c #6B5B42",
"{. c #655846",
"}. c #755C46",
"|. c #62564C",
" X c #5A6559",
".X c #48615D",
"XX c #6E6244",
"oX c #6B644A",
"OX c #726345",
"+X c #73644C",
"@X c #736B4B",
"#X c #7A6747",
"$X c #686658",
"%X c #786A53",
"&X c #797351",
"*X c #4A5B65",
"=X c #515D69",
"-X c #596667",
";X c #456577",
":X c #5A6672",
">X c #676A63",
",X c #767869",
"<X c #6D756D",
"1X c #83572B",
"2X c #845B36",
"3X c #84633C",
"4X c #8B6A3D",
"5X c #876538",
"6X c #946C3A",
"7X c #97753C",
"8X c #98692E",
"9X c #A77438",
"0X c #835F44",
"qX c #8B6C44",
"wX c #866A48",
"eX c #946C44",
"rX c #8A7449",
"tX c #977649",
"yX c #887857",
"uX c #977B54",
"iX c #8A6D52",
"pX c #A47949",
"aX c #A47F51",
"sX c #887A67",
"dX c #7D8370",
"fX c #AC833F",
"gX c #9A8658",
"hX c #97844D",
"jX c #A8844B",
"kX c #B8884B",
"lX c #A48B5B",
"zX c #A68756",
"xX c #B78D56",
"cX c #A8915D",
"vX c #B99758",
"bX c #93896A",
"nX c #A38D62",
"mX c #A99663",
"MX c #B89867",
"NX c #BCA874",
"BX c #C99756",
"VX c #C99C67",
"CX c #C9A766",
"ZX c #D5A967",
"AX c #CCAF71",
"SX c #E5B46B",
"DX c #D1A05D",
"FX c #FAC87B",
"GX c #356788",
"HX c #2A5B83",
"JX c #4A758E",
"KX c #568495",
"LX c #74878C",
"PX c #FECE82",
"IX c #9B9982",
/* pixels */
"    & & . . . . .   . . . X & O   +   . + . . . + @ . . . + . . .   . . # . O . . . . . .     &   . .   . . . . . # & . X   . . ",
". . # o   O . . . . + .   . X . . .   .     . @ # @ . . . X . . . . . # & . . . . . . + .   & . . + . X   + . . . # +   .   + . ",
". @ X X     .   . . . .   . . . . . . . +     . # .         . . . . . # . .   .   .   X . & # X . . + . . . .   X # . . .   . . ",
". @ o . + . .   + .   . . + . . + .   . . . . * .   . .     . . . . . . .   . .           5     .   . . . . . . + # . . . . .   ",
"# - O O X + . o X o o X X . X o # X X * O ; ; = o # * ; o # o # ; o X o o o o o & X # & * * # O X o   O X X . X @ O X o X o o o ",
"@.1.@.1.@.3.i.r.4.1X2X3X4X4X6XtX7X7XuXhXjXzXnXlXcXcXcXcXmXmXMXcXcXcXcXcXzXlXuXzXpXhXtXtXtX6X5X5X2X2X2X4.4.i.r.1Xy.3X6XeXqXgXzXzX",
"A ) } 1 ^ / ' Z _ *.*.=.Q.Q.-.$.8.#.(.;.=./.6.<.(.e.<.{. X_.<.e.<._.{.<.;.;.;.=.8.:.*.6.*.:.&.!.!.} | _ G A %.] R *.` *.*.Q.:.<.",
"N.l.Y.z Q ! m.g.J.m.K z l.l.g.N !.t C ~.j.I. .I v.c g f.j.d.q d f g z.u U I m.Z.<.H p {.f p X.N.l.z V J.g.H ) J m.F.J z J g.c.W ",
"W.-X>XW.!._ m.L..X=.>.9X| K { _.}.< ~.xX$X>X1X|._.{.].G.'.'.R | *./.].W._.qX>X].aXt.,.6X4.,.$.{ H 9X5._.].W.W.G m.).-.,.=.T +X~.",
" .a.[.=.*.,.| $.q.=.pXSX1X] { +Xr./ oXnX4Xr.tX}.tXeX+XW.qXrX>.y.3.%X#X6X0.zX5Xt.lXp.2XtX8X4.5.1.1XSXaXq.,.S.,.1.=.{.9.$.,.-.y.(.",
"m.Y.=XG.K.D !.v.R.W.D @.F.v.) K.[.: Q.uXK.;Xt./.J.E F.F.H.v.V.W E x.K.h.!.2X;XK.eX$.c iX1.E } _ x.@.Z L.H.'.W V F.G. .U x.U _.G.",
"v.N.v.~ | ( T d `.R I r D.l.Q M #.r m =.h h < C f.m v L g.f.n d 0 g f.f.J , u h ( : d.!.o r M N.I.5 U K.l C G < n.l.B v e h.J E ",
",.1.%.,.%.$.] -.6...;.,.;.%.>.3.3.{.}.y.t.OXOX[.oX&XOX%XwX&X&XrXiX#X@X+X#Xw.+X{.OXt.[.q.0.[.1.>.5.9.;.2.%.' %.{ ,.8.1.8.6.8.{.q.",
"0 = (.;XJ.: A T j.M s K 9 < ( f % v./.Z L H.U p rXMX_ 6 g.J ^ ] ] 1 k l % #XZX:.q F.H.p | K.n s M 6XC p q x.p B kXG 4 w 1. .& U ",
"g 9 yXGXJ.D T M.l.G %.F [ &.%.< 2 =.}.K j.U v.L }.qXA 8 f.) A W.Q G N d.6 3.qX^.x.M.x.h.-.OXz f.5X,.3Xq v h x /.xX4X6 C |.>.f ^.",
"i 0 qXR.H.K *.L k.A tX0 7.1.XXK 8 B - h H.l g.f.;.zX7 j ' T (.yX&X^.` B 8 H cXE h.v Y N.0 M y ^ 5Xz.tX, j.I.h >.aXjX6 q [.p.Y K.",
"=.` G I.J.B 7 f %XB *.f V ZXAXs.c.p i g.x N V J.G.V 4 D H :.oX} *.$X=.G - q S J.m.< J f.f.9 g 2.q.J.q.&.P.U.y Z &XM Y F.4 : %.7.",
"zXuX8 R.Y.f.s jXgXpX[ T Q zXkX1XT T [ 6.-.@.r.H.!.} r C | ).C U B m.).H B z (.B.W.1X{ ;.r.T 0 1X(.bX>.@.J.J.( #X{ q /.-XG.P / tX",
"BXDXn U.U.z.4XwXz.0XeXJ $XBXeX2XG k B T m 1XeXM ` I B K *.~.k /.G.k _.) K m O.M ) 9X&.z m.r = r._.NX~.1Xx T +XbX:.6 U v.0 N ` CX",
"DXZXw Y.J.c.9XK.D.L.tXE .XxX9X3.m h f.N.D.3.3X/ U f.U C =.!.V.oX+Xc /.Q K d h K 5.5X&.v.F.i c 1X@XAX%X4.j.` >XJXuXv.S.d.!.=.&.tX",
"..>.n Y.B.Q qX]././.eX| 6.r.r.y.Z i z.j.J.1X0Xi D.N.U l :.W.B.&XoXx.`.W.U g.f.k.d qX^.A.h.j.m.4.[.MX(.2XY ' zXmXyX/.yXiXXX].:.9.",
"P ) {.U.l.M eX(.DX).tXC S.Q. .} M.x L.T.j.L v.D.I.c P ].(.`.m.G.c.B.^.].'.E j.I.l.T d J.U.l.Q 4.H.>XQ 5XN { qX&X#Xz.L.%Xk.=.%Xg ",
"6Xy.y.T.J.{.aXO.1XG.jXt._ -.` $.H.x.K.U.G.J.D.T.l.T L.@X#.'./.B.G.^.'.=.%XK.b I.U.l.H.K.HXI.=.1X].dX/.2X .{ >X:XyX& N.*Xs.< :.d.",
"7Xy.-.E.H.[.jXxXxXjXpX#X| A ' _ v.U `.I.*XY.l.p U W.'.G.S 8.!. X'.;.(.V K.'.=.c x N.E.L.B.*X0.@.Q.sXO.1Xv. .bXbX,X% g.*X8 S %.d.",
"wX_ ) { Z *.zXSXFXSXjX=.k w g k q M H.f.G.U.m.J H ..>.h.R A j.|.'.v.} E h.9.R ! z G.U.c.z.J.C i.y.wXp.4.V G.uXLXsX0 I.:Xk.C 9.d.",
",.B ;.=.R S tXZXAXZXwXn.d - t 5.#.7 Q R /.G.!.p.rXhXpXtXgXgXnXbXnXnXgXgXtXpXrXqX9.G.`.W.Q K.0 nXCXMXDXhXU =.G.GXyXf.'.;.P.M.@.x ",
"*.d w.!.G.! 4XiXPX&XwXU L R N 6Xy.6.y.0.5.q.7.tX4X_.,X{.w.oX@X&X%XOX[.a.$X<X8.eXp.8.;.;.7.2._ gXNXMXAXsX! lXoXU.<.j.R.,XZ.U r.h ",
"T N ;.E ! G $.+XFXu.;.6 ' pX' 9.3.- W f e z s ..{ I.GXm.(.2 % N , 2 a ;.J.JXV.1.) d n - L P : MXZXCXAXvX<.JX+Xg.9.d.T.iXZ.C 8Xf ",
"I H M m.W E % p.FX[.y i T 6XZ 6X5.f ).!.s *.L.r B nX$Xc.yX/ ;.< H 1.) uXj.gXyX= F '.G s /.;.r -.'.,X=.*.^.sXoXI #.q G.*Xf.m 9Xr ",
"$.Z ! V.b.r V tXSXiXk i H 9XZ *.=.z f K.G O.E.m.H uXyX<.*.$ V #. .e & {.9.yXrXN R.GX*.K m.: Y ^.}.wXa.!.=.w./.6.{.8 < 3.- z vXL ",
"r., ` V.W F 8.kXxXuXz d.0 r u M.e J C U | /.T.*X%.tX&X(.X.- =.1.5.) = { {.uXrX5.*XY.:.) f m w E.LXxXLXE.- B l.].kX0 6 * $ I vX! ",
"6X' 9.Y J W P 4X1X5XY i x d.4 %.} t ( m m.].|.'.! ) J w 9.5.5 N m - 9.*.k W < O.'.$X'.V.: ( 7 c.KXLXKXH.9 ! *.G.e.L c v v !.CXR ",
"1XM 8.H W.p F u.1.2.v p f.z.D =._ d I Q F.].{.K.=.7 5.u.9.u.q.9.9.9.r.9.5X-.q oXK.oXL.G.E F , h.,XcX>XB.h Q W.*.w.l h k s./.CXH ",
"5XG.%.i f.J.R u.u.9.: ' p W (.Q.H +.M.`.L. X{.{.1.v }.i.q.9.{ 0X9.1.9.0.2Xq.x.2X`.[.'.'.W W M l sXZX,Xx.0 m f O.+Xy G.$Xz.(.nXv.",
"xXKX{.8 h J.-.r.5Xq.< 4.' :.:.=.S H _./.J.@XwXu.h I Q X.t t Y * s v.y ; ^ E b | [.%X].J.O.:.M x yXCXbXl.v K s M. Xj =XIXP.*.LXY.",
"yXKX{.u u h.` 4.8X3.^ 1X1X#X).K *.X.F.>XH.#X&XS x r W.W : r ^.2.5.G.s , M.E J L q.w._./.:X! 1 Q yXCXsXk.g.H Z ( zXL ;XdXI.< LX;X",
"jXkXwXy h y V 4.tX4.l J x.,.).S.x.!.8 Y.>X6.[.F =.Q.W , s ! ) * M S S m - `.>.E *.;.0.>Xh.6 O.Y &XkXyXh.u ! S ;.BXx.JX,XI.) zXuX",
"Q sXW.U M.u U i.r.1.c c g.! |.^.s.,XzXc.,X~.].l.=.*Xx.G Q e E 8 f.G v *.S F. XU K.} $X;X=.MX=Xh I r.K 7 d L g ,.kXc.Y.:XD.U wX,.",
"x.N.g |.).8 w 1X1.2.l x.x.k Q.B k.bX6XE N._ L 4 - U z.} J = C 6 h T % n.W l.- w l _ b f.:.aX:Xl.j wXh % z E 8 w J.l.Y..XJ.9 - : ",
"H.;Xh.{.).g q pX#X6Xg x.x.f J h.j.JX`.h.K J 7 b T f.W 7 S %X| 4 i [.t.M l M.s z e z B Z v $XJXf.i 9Xg.f J ! 7 z.T.B.I.'.C.O.Z ) ",
"M.'.K.#X$Xy | eXH 7X! g Y u J ! R.JXU.g G.U k h.H.j.(.3Xv }.kX! ).pX,.b.eX| l.h.z U S.e Y.JXJXf.v 9XF.a c R 5 d.l.H.K.'.z. X-.m ",
"G.L.l.T Q y <.u.8.y.(.2 L S =.f K.T.K.O L U B c N.v.$ H rX! #XfXtX{.R rX5 8 c.z.v K J 5 N.R.;Xl.c jXG.8 v G 6 0 C.C.J. Xk.G.( e ",
"^.=Xs.a y 9 {.wXp.%X:.= v | s 0 f.- r q = B M G n.E r 5 :.].c.-X].g.oXm y L I ! < K w - - e u f.M.rX!.y k & 9 8 z.9 H.$Xd.].[ < ",
"L <Xp y i 0 [.5.=.8.(.6 l s B r - S M w B :.b.P.C.C 0 h i OXb.GXE.Q.(.j u q I l.B.G.b - D R : 4 W.>X(.d.L y 9 u h 7 L.>Xd.J [ A ",
"u =X9 6 8 J 8.1.$.9.{.x p 0 c.- F d.d.M Q l W B.c.f 9 h i `._.d.j +Xh.i u 6 m N.W H M.K z z.K d _.Y.oXh.p 9 9 g x 0 n.}.u f | r ",
"= K.8 6 4 0 : Z <.< M q 8 7 l = w 5 = l t 8 6 D M 8 4 9 6 - < 2 t Z 5 i 8 4 5 M - e t C f 6 = e N u N q 4 % 3 8 4 6 w Z % % . % ",
"1.}.1.@.1.2.9.5.&.u.p.p.wX5X4XwX#X4XtXrXrXrXuXrXyXhXgXnXhXlXnXnXnXgXgXgXlXgXtXrXyXrX&XqX5XwX1Xt.3.u.9.u.2.9.u.9.t.4.y.3XwXrXuXhX",
"[ %X( / ( ^ { ;.<.{.;.9.8.;.6.8.w.XX[.0.[.rXwXoX#XwX&XOX&X&XOX@X@XOXoX+XXXw.OX}.t.q.eX8.;.0.{.;.,.%.$.` 9.&.&.$.;.$.-.0.q.0.q.XX",
"$ d.L ! z = n y P.k.+ q.... + $ y d.d.a G %X3XZ r , .   + $ > -.D : . . + . & V = [.+Xy.q i d.d.$ $ $ $ qX*.W.z.$ 4 - yXyX8.+ + ",
"| ).m.m.G.1.u ,.:X$XM wX| * ] 3.5XXXv w +X|.].#XF *.rX3XwX[.sXgXzXyX{.wXrXuX7.- [ +X].$X$.u Q.wXt.@.A % 2Xp.4X&X| t >.].`.$XM M ",
"|.yX<.:.'.g ! 1X[.3.9.2X^ o.0.Q.) }.uX1Xr lXiXm _ BXiXv 4XgX&XMXCX XzXtXQ (.SX$.) Y ZXN.` 5XqX-.=._.4.< p.r.3.wX$X' H R.$XF.7.@X",
"A.;XG.+X+X! B & eXw $ 5X] / m.d.$ $ W <.~.MXcXO.kXkX0 4 , VXyXe ) lXBX; 4 8 kXDX5.[.CXrX-.`.= + 2 B.-.( u.,.| H.l.*.H !.6.W { x.",
"C.;X>.$XwXD ) C 6Xf % 6X] / G.z.+ = |.y.Q vXnXK BXBXw 2 ..xX&X5 R bXBX( 2 7 BXAXq.=.SX_...wXZ + 8 l.-.^ 4.5.%.m.l.5.H !.w.G.&.G.",
"^.,X=.!.{.] ! 5X5.2X5.2X' / 7.0.t.pX#X) G.,X-X| m aXhX0.xXgX&XMXMXoXnXzXrXlXVXE  .G.bXL.| #.pX#X8._.4.: r.4.2X[.`.< =.J._.R.|  .",
"[ -X8 N | d n.B T.K.4 4X] + ) ] _.K.P.i t.%X#Xq.q V =. X_.>.wXeXyX3X>.Q.(.!.z d Z yX$XiXG d.v./.,.] , % 4X9.qX[.e @ -.-X>X$X= * ",
"% l a 5 % 0 ! 8 R.f.+ t.-.+ $ + i j i 3 - OX}.* D S y 8 a q M C f , 7 2 a 5 L A q , wX#.% a j y 2 3 % % qX) T j.5 p 7 <.}.Z % $ ",
"1.y.1.1.2.r.1.r.y.3X3X5X4X4XqXtXtXtXtXtXtXtXtXhXgXcXcXcXcXlXcXcXlXlXlXzXzXzXuXtXtXtX4X4X4XwX3X3XqX2Xy.r.r.3.y.2X3X3XqXwX3XqXgXlX",
") }.( ^ [ / ] ] ] ] %.%.;.5.8.[.8.q.w.w.w.w.XXOXOXOX@XOXoX@X@XOX@XOXXXXXXXa.w.w.w.q.6.8.5.;.5.%.%.$.] ] ] ( ] $.$.%.5.0.e.e.w.w.",
". M.  . .   .   . . .     . .                                           O   .   .   . .   .   . . .           . .               ",
"O n.O O .   . . . .   . O # # X X . . . . X . X O O X X   X . .   X X o o . X .   O . . . O # * .     O . . . .   # o . .   .   ",
"# n.+ . . . . + . . . . . # + . . . . . . . . . . . . . . . . . . . & # + . . . . . . . . . + + . . . . . . . . . & # . X . . . ",
"# n.. . . . . . . . . . o # . . . . . . . . . . . . . . . . . .   . # # . . . . . . . . . . . . . . . . . . . . # + . . . . . . ",
". - . . . . . . . .   . + X . . .   .   . . . . . . . . .   . . . X # . . . . . . . . . . . . . . . . . . . . X # X . . . . . . ",
". . . . . . . . . . . . + . . . .   . . . . . . . . + . . . . . . & + . . . . . . . + . . . . . . . . . . . + & O . . . . . . . "
};
