/* XPM */
static char *xpm_[] = {
/* columns rows colors chars-per-pixel */
"64 64 248 2 ",
"   c #352A08",
".  c #39340C",
"X  c #2D2B1C",
"o  c #2B2814",
"O  c #332C14",
"+  c #332C1C",
"@  c #362714",
"#  c #38331A",
"$  c #2C2D17",
"%  c #2D2C24",
"&  c #2D2C2C",
"*  c #272929",
"=  c #332C23",
"-  c #382D23",
";  c #332D2B",
":  c #382727",
">  c #2B3025",
",  c #2C322D",
"<  c #263129",
"1  c #333224",
"2  c #33332B",
"3  c #3A342C",
"4  c #3A3725",
"5  c #2D2D32",
"6  c #262E3B",
"7  c #2C2E3A",
"8  c #242A36",
"9  c #322D33",
"0  c #372C35",
"q  c #2C3133",
"w  c #2B323B",
"e  c #273438",
"r  c #333234",
"t  c #393434",
"y  c #32323B",
"u  c #3D3C3A",
"i  c #383837",
"p  c #381E14",
"a  c #433806",
"s  c #4B3D1E",
"d  c #463B16",
"f  c #563F15",
"g  c #682B17",
"h  c #781A28",
"j  c #6E1D33",
"k  c #49252E",
"l  c #423A24",
"z  c #453928",
"x  c #562738",
"c  c #453E36",
"v  c #512630",
"b  c #69232B",
"n  c #792335",
"m  c #6A2735",
"M  c #6A1C23",
"N  c #3D413C",
"B  c #3F402E",
"V  c #4A431A",
"C  c #55491C",
"Z  c #5B4E14",
"A  c #654C19",
"S  c #685519",
"D  c #765A1B",
"F  c #69520B",
"G  c #766415",
"H  c #6E6112",
"J  c #494228",
"K  c #574A26",
"L  c #595427",
"P  c #494638",
"I  c #554D37",
"U  c #5B5533",
"Y  c #585737",
"T  c #4D552E",
"R  c #674B28",
"E  c #665626",
"W  c #695B36",
"Q  c #6C532A",
"!  c #6A6229",
"~  c #786526",
"^  c #6B6237",
"/  c #766837",
"(  c #7D793C",
")  c #576125",
"_  c #1E3456",
"`  c #2A2C42",
"'  c #283747",
"]  c #343945",
"[  c #293751",
"{  c #303A55",
"}  c #433D42",
"|  c #583253",
" . c #783645",
".. c #6B3743",
"X. c #5B2D55",
"o. c #2C445A",
"O. c #35454C",
"+. c #334768",
"@. c #314970",
"#. c #365579",
"$. c #2F4B70",
"%. c #494845",
"&. c #534C49",
"*. c #4E5245",
"=. c #5B5946",
"-. c #595855",
";. c #4D5254",
":. c #605C49",
">. c #655B57",
",. c #67684A",
"<. c #756B47",
"1. c #7B7547",
"2. c #686858",
"3. c #746955",
"4. c #767558",
"5. c #6D7152",
"6. c #4A5869",
"7. c #475875",
"8. c #4F4D6D",
"9. c #6A5A6A",
"0. c #5A6666",
"q. c #5F6877",
"w. c #686867",
"e. c #7B7866",
"r. c #6A6B75",
"t. c #787A76",
"y. c #6B6F66",
"u. c #5B6447",
"i. c #861C2E",
"p. c #8B2936",
"a. c #912738",
"s. c #806816",
"d. c #816C33",
"f. c #887739",
"g. c #937839",
"h. c #8E722C",
"j. c #A04F3A",
"k. c #962B42",
"l. c #8C2E43",
"z. c #8F4650",
"x. c #867847",
"c. c #857A56",
"v. c #917D42",
"b. c #B07B50",
"n. c #827C69",
"m. c #867E78",
"M. c #8B6179",
"N. c #A9605B",
"B. c #7B877C",
"V. c #7A8064",
"C. c #988637",
"Z. c #AB893F",
"A. c #978748",
"S. c #988858",
"D. c #9C935A",
"F. c #8B8356",
"G. c #A7954A",
"H. c #A79856",
"J. c #B09250",
"K. c #B9A456",
"L. c #B9AB54",
"P. c #87876A",
"I. c #968C66",
"U. c #9C9268",
"Y. c #8A8779",
"T. c #948D73",
"R. c #8D9479",
"E. c #979677",
"W. c #A28C65",
"Q. c #A69B68",
"!. c #A59B79",
"~. c #B29F6D",
"^. c #BAA967",
"/. c #A6A47D",
"(. c #B6AA78",
"). c #BAB06E",
"_. c #D6B857",
"`. c #CBB153",
"'. c #C3AD66",
"]. c #CBB664",
"[. c #C7B768",
"{. c #D3BA64",
"}. c #D2BD6C",
"|. c #D6B868",
" X c #CBBA73",
".X c #C9B779",
"XX c #D5BB74",
"oX c #D5A565",
"OX c #D6AA6A",
"+X c #D6C15B",
"@X c #DAC468",
"#X c #C9C37B",
"$X c #D8C676",
"%X c #CCC367",
"&X c #EACA66",
"*X c #EAD36A",
"=X c #EBD578",
"-X c #F5DB7E",
";X c #EDCD75",
":X c #F4E77E",
">X c #355A8B",
",X c #385B93",
"<X c #3B6290",
"1X c #496A91",
"2X c #737A87",
"3X c #426BA2",
"4X c #526B95",
"5X c #857D8E",
"6X c #A57983",
"7X c #7D868C",
"8X c #6E8696",
"9X c #838388",
"0X c #979887",
"qX c #95958B",
"wX c #A8A78A",
"eX c #B2AB8A",
"rX c #BAB585",
"tX c #B6AE97",
"yX c #BCBB9A",
"uX c #B6B79B",
"iX c #A5A891",
"pX c #8A98AD",
"aX c #86A3B6",
"sX c #BABBA5",
"dX c #B1B3B0",
"fX c #A59E91",
"gX c #C5B985",
"hX c #C1BA9C",
"jX c #C5BFA8",
"kX c #BAC4AE",
"lX c #BDC49B",
"zX c #C7C39B",
"xX c #D8CB8E",
"cX c #E5C986",
"vX c #EAD788",
"bX c #FCDD83",
"nX c #F5DA89",
"mX c #EADB95",
"MX c #F3DD98",
"NX c #E1CC93",
"BX c #F8E488",
"VX c #F7E596",
"CX c #ECE28B",
"ZX c #C5C3A6",
"AX c #E8D6AD",
"SX c #FAE6A6",
"DX c #F0E5AA",
"FX c None",
/* pixels */
"FXFXFXFXFXFXFXFXFXFXFXFXFXFXFXFXFXFXFXFXFXFXFXFXFXFXFXFXFXFXFXFXFXFXFXFXFXFXFXFXFXFXFXFXFXFXFXFXFXFXFXFXFXFXFXFXFXFXFXFXFXFXFXFX",
"FXFXFXFXFXFXFXFXFXFXFXFXFXFXFXFXFXFXFXFXFXFXFXFXFXFXFXFXFXFXFXFXFXFXFXFXFXFXFXFXFXFXFXFXFXFXFXFXFXFXFXFXFXFXFXFXFXFXFXFXFXFXFXFX",
"FXFXFXFXFXFXFXFXFXFXFXFXFXFXFXFXFXFXFXFXFXFXFXFXFXFXFXFXFXFXFXFXFXFXFXFXFXFXFXFXFXFXFXFXFXFXFXFXFXFXFXFXFXFXFXFXFXFXFXFXFXFXFXFX",
"FXFXFXFXFXFXFXFXFXFXFXFXFXFXFXFXFXFXFXFXFXFXFXFXFXFXFXFXFXFXFXFXFXFXFXFXFXFXFXFXFXFXFXFXFXFXFXFXFXFXFXFXFXFXFXFXFXFXFXFXFXFXFXFX",
"FXFXFXFXFXFXFXFXFXFXFXFXFXFXFXFXFXFXFXFXFXFXFXFXFXFXFXFXFXFXFXFXFXFXFXFXFXFXFXFXFXFXFXFXFXFXFXFXFXFXFXFXFXFXFXFXFXFXFXFXFXFXFXFX",
"FXFXFXFXFXFXFXFXFXFXFXFXFXFXFXFXFXFXFXFXFXFXFXFXFXFXFXFXFXFXFXFXFXFXFXFXFXFXFXFXFXFXFXFXFXFXFXFXFXFXFXFXFXFXFXFXFXFXFXFXFXFXFXFX",
"FXFXFXFXFXFXFXFXFXFXFXFXFXFXFXFXFXFXFXFXFXFXFXFXFXFXFXFXFXFXFXFXFXFXFXFXFXFXFXFXFXFXFXFXFXFXFXFXFXFXFXFXFXFXFXFXFXFXFXFXFXFXFXFX",
"FXFXFXFXFXFXFXFXFXFXFXFXFXFXFXFXFXFXFXFXFXFXFXFXFXFXFXFXFXFXFXFXFXFXFXFXFXFXFXFXFXFXFXFXFXFXFXFXFXFXFXFXFXFXFXFXFXFXFXFXFXFXFXFX",
"FXFXFXFXFXFXFXFXFXFXFXFXFXFXFXFXFXFXFXFXFXFXFXFXFXFXFXFXFXFXFXFXFXFXFXFXFXFXFXFXFXFXFXFXFXFXFXFXFXFXFXFXFXFXFXFXFXFXFXFXFXFXFXFX",
"FXFXFXFXFXFXFXFXFXFXFXFXFXFXFXFXFXFXFXFXFXFXFXFXFXFXFXFXFXFXFXFXFXFXFXFXFXFXFXFXFXFXFXFXFXFXFXFXFXFXFXFXFXFXFXFXFXFXFXFXFXFXFXFX",
"FXFXFXFXFXFXFXFXFXFXFXFXFXFXFXFXFXFXFXFXFXFXFXFXFXFXFXFXFXFXFXFXFXFXFXFXFXFXFXFXFXFXFXFXFXFXFXFXFXFXFXFXFXFXFXFXFXFXFXFXFXFXFXFX",
"FXFXFXFXFXFXFXFXFXFXFXFXFXFXFXFXFXFXFXFXFXFXFXFXFXFXFXFXFXFXFXFXFX0 k FXFXFXFXFXFXFXFXFXFXFXFXFXFXFXFXFXFXFXFXFXFXFXFXFXFXFXFXFX",
"FXFXFXFXFXFXFXFXFXFXFXFXFXFXFXFXFXFXFXFXFXFXFXFXFXFXFXFXFXFXFXFXFXv x v FXFXFXFXFXFXFXFXFXFXFXFXFXFXFXFXFXFXFXFXFXFXFXFXFXFXFXFX",
"FXFXFXFXFXFXFXFXFXFXFXFXFXFXFXFXFXFXFXFXFXFXFXFXFXFXFXFXFX& 5 0 v b n ..x 0 0 FXFXFXFXFXFXFXFXFXFXFXFXFXFXFXFXFXFXFXFXFXFXFXFXFX",
"FXFXFXFXFXFXFXFXFXFXFXFXFXFXFXFXFXFXFXFXFXFXFXFXFXFXFXFX& 5 7 : v j n :.v : 0 9 FXFXFXFXFXFXFXFXFXFXFXFXFXFXFXFXFXFXFXFXFXFXFXFX",
"FXFXFXFXFXFXFXFXFXFXFXFXFXFXFXFXFXFXFXFXFXFXFXFXFXFXFX%.-.2.| x b h l.l.m m >.>.} FXFXFXFXFXFXFXFXFXFXFXFXFXFXFXFXFXFXFXFXFXFXFX",
"FXFXFXFXFXFXFXFXFXFXFXFXFXFXFXFXFXFXFXFXFXFXFXFX5 9 u Y.R.jX6Xx p.k.a.a.k.z.hXfX: 0 FXFXFXFXFXFXFXFXFXFXFXFXFXFXFXFXFXFXFXFXFXFX",
"FXFXFXFXFXFXFXFXFXFXFXFXFXFXFXFXFXFXFXFXFXFXFXFX6 6 ] t.0XjX6Xj l.k.k.k.a.k.hXpX] ` ` FXFXFXFXFXFXFXFXFXFXFXFXFXFXFXFXFXFXFXFXFX",
"FXFXFXFXFXFXFXFXFXFXFXFXFXFXFXFXFXFXFXFXFXFXFX' ' [ @.1X8X7Xw.j l.k.i.a.a.z.5X4X@.$.+.FXFXFXFXFXFXFXFXFXFXFXFXFXFXFXFXFXFXFXFXFX",
"FXFXFXFXFXFXFXFXFXFXFXFXFXFXFXFXFXFXFXFXFXFXe 6 _ #.>X>X#.#.8.x n k.i.i.a.>.8.,X3X3X3X+.FXFXFXFXFXFXFXFXFXFXFXFXFXFXFXFXFXFXFXFX",
"FXFXFXFXFXFXFXFXFXFXFXFXFXFXFXFXFXFXFXFXFXFX8 ' ' #.,X,X7.7.| X.l.k.i.h a.l.8.,X3X<X1X+.FXFXFXFXFXFXFXFXFXFXFXFXFXFXFXFXFXFXFXFX",
"FXFXFXFXFXFXFXFXFXFXFXFXFXFXFXFXFXFXFXFXFXy e 6.q.pXpXpXpXfXM.m j h i.i.a.z.dXdXaXaXaX7.FXFXFXFXFXFXFXFXFXFXFXFXFXFXFXFXFXFXFXFX",
"FXFXFXFXFXFXFXFXFXFXFXFXFXFXFXFXFXFXFXFXFX* r r.qXdXZXlXzX XN.h h j h i.i.z.AXAXuXkXkXy.% FXFXFXFXFXFXFXFXFXFXFXFXFXFXFXFXFXFXFX",
"FXFXFXFXFXFXFXFXFXFXFXFXFXFXFXFXFXFXFXFXt 2 2 3.Y.tXlX.X).|.b.M M M M h p.j.nXvXlXuXlXy.; FXFXFXFXFXFXFXFXFXFXFXFXFXFXFXFXFXFXFX",
"FXFXFXFXFXFXFXFXFXFXFXFXFXFXFXFXFXFXFX&.e.e.4.,.Y ,.2.2.F..XOX;Xb.f R Q b.oX-XXX1.0.8X#.e FXFXFXFXFXFXFXFXFXFXFXFXFXFXFXFXFXFXFX",
"FXFXFXFXFXFXFXFXFXFXFXFXFXFXFXFXFXFXFX&.qXY.P.<.L T *.-.,.rXcXMXJ.A S S oX|.BX}.T ;.7.$.' FXFXFXFXFXFXFXFXFXFXFXFXFXFXFXFXFXFXFX",
"FXFXFXFXFXFXFXFXFXFXFXFXFXFXFXFXFXFXFX;.7X7XB.u.) ) Y u.5.(. XmXJ.D D ~ K.OX;X.X! ,.6.+.[ FXFXFXFXFXFXFXFXFXFXFXFXFXFXFXFXFXFXFX",
"FXFXFXFXFXFXFXFXFXFXFXFXFXFXFXFXFXFXy 0 O.' O.P ) #XzXY U ^ ! ! v.'.$X$Xf.Q s.g.NX/.;.7.8.FXFXFXFXFXFXFXFXFXFXFXFXFXFXFXFXFXFXFX",
"FXFXFXFXFXFXFXFXFXFXFXFXFXFXFXFXFXFX5 8 ' ' ' I ) xXNXQ Q f K S A.%X*X-X~ A A h.nX^.&.6.7.{ FXFXFXFXFXFXFXFXFXFXFXFXFXFXFXFXFXFX",
"FXFXFXFXFXFXFXFXFXFXFXFXFXFXFXFXFXFXy i O.O.] P A $XcXh.s.d.! C C._.*XbXd.R s.g.bX'.U -.r.{ FXFXFXFXFXFXFXFXFXFXFXFXFXFXFXFXFXFX",
"FXFXFXFXFXFXFXFXFXFXFXFXFXFXFXFXFXFX9 &.B.B.P.<.D K._._._._.A.F C.+X;XbXd.Q `.|.BXK.K R.dX-.FXFXFXFXFXFXFXFXFXFXFXFXFXFXFXFXFXFX",
"FXFXFXFXFXFXFXFXFXFXFXFXFXFXFXFXFXFX; &.qXV.R.! A oX|._.`._.J.F Z.@X-XMXd.~ '.@XBX^.L T.ZX=.FXFXFXFXFXFXFXFXFXFXFXFXFXFXFXFXFXFX",
"FXFXFXFXFXFXFXFXFXFXFXFXFXFXFXFXFXFX2 u y.e.1.f.h.b.K._.`.G.x.J f.H.'.(.W L A.D.gXc.R c.!.U > FXFXFXFXFXFXFXFXFXFXFXFXFXFXFXFXFX",
"FXFXFXFXFXFXFXFXFXFXFXFXFXFXFXFXFXi & 1 3 l E H.`.s.D '.H.a o 4 V Z Z L . . . d U K   z U # r FXFXFXFXFXFXFXFXFXFXFXFXFXFXFXFXFX",
"FXFXFXFXFXFXFXFXFXFXFXFXFXFXFXFXFX; X + O d L G.].s.G ).H.. + $ s E L K l 1 X 4 U l   V U # i FXFXFXFXFXFXFXFXFXFXFXFXFXFXFXFXFX",
"FXFXFXFXFXFXFXFXFXFXFXFXFXFXFXFXFXz <.1./ ! S G.].G H [.U.. 3 + Q A.S.S.z - = l Y / F.L J 1 y FXFXFXFXFXFXFXFXFXFXFXFXFXFXFXFXFX",
"FXFXFXFXFXFXFXFXFXFXFXFXFXFXFXFX= K  X%X}.C.F G.].G G ).D.. 3 + f.@XvXmXU p : z C D.DXF.+ : 8 FXFXFXFXFXFXFXFXFXFXFXFXFXFXFXFXFX",
"FXFXFXFXFXFXFXFXFXFXFXFXFXFXFXFX- K L.+X_.C.F G. X~ H [.G.a .   h.+X=X=XR a p z S A.DX1.@ + 3 -.FXFXFXFXFXFXFXFXFXFXFXFXFXFXFXFX",
"FXFXFXFXFXFXFXFXFXFXFXFXFXFXFXFX] T ).G./ A.K.J.g.S H `.L.C.C.g.L._.*X=XG.g.v.h.F A.SX.XH.H.D.T FXFXFXFXFXFXFXFXFXFXFXFXFXFXFXFX",
"FXFXFXFXFXFXFXFXFXFXFXFXFXFXFXFX9 Y #XC.p W.SXg.A R G ^.%X_.|.|._._.-XbX$X XXXK.S S.MXVXCXVXmXC 3 FXFXFXFXFXFXFXFXFXFXFXFXFXFXFX",
"FXFXFXFXFXFXFXFXFXFXFXFXFXFXFXFX5 I rXS.@ I.DXv.R U W .X XoXOX X].}.NXMXXX.X.XQ.A S.SXmXVXVXxXK 3 FXFXFXFXFXFXFXFXFXFXFXFXFXFXFX",
"FXFXFXFXFXFXFXFXFXFXFXFXFXFXFXFXt 1 T W 3.3.^ C - z s I.U.S.W.W./ E W / S.I.U.c.z K W D G ^.#XK 3 FXFXFXFXFXFXFXFXFXFXFXFXFXFXFX",
"FXFXFXFXFXFXFXFXFXFXFXFXFXFXFXFX0 3 o I qX=.o O ; t 3 B.m.Y.m.m.-.% ; = e.m.Y.9.3 + @ .   W.(.d t FXFXFXFXFXFXFXFXFXFXFXFXFXFXFX",
"FXFXFXFXFXFXFXFXFXFXFXFXFXFXFX%.+ l - =.Y.,.4 1 i , N t.2X9X2X5X8.7 & i y.m.9Xr.9 t 4 O O T.eXI t FXFXFXFXFXFXFXFXFXFXFXFXFXFXFX",
"FXFXFXFXFXFXFXFXFXy t t t 2 z l Q.H.F.P.!.T.R.E.iXiX0XP %.t.q.u ; % , i i %.t.r.5 2.iX2.+ J P = i FXFXFXFXFXFXFXFXFXFXFXFXFXFXFX",
"FXFXFXFXFXFXFX& % * = ; = = - d ^.).S.U./.wXE.lXlXuXeXB %.2X0.< 2 > < * > N 2Xr.& w.sX5.+ X = : i FXFXFXFXFXFXFXFXFXFXFXFXFXFXFX",
"FXFXFXFXFXFXc %.c P P P z d J L [.{.G.U.E.iX0XuXuXyXeXl u 9X0.* & & i 2 > 3 y.w.5 w.sX5.o J I = 0 ;.FXFXFXFXFXFXFXFXFXFXFXFXFXFX",
"FXFXFXFXFXFX;.tXsXtXtXeXwXwX/..XvXBXvXxXI.P.qX0XwXwXT.z c 5X9.9 9 9 9 & 1 ; i y & -.iX,.+ T.!.K + i } FXFXFXFXFXFXFXFXFXFXFXFXFX",
"FXFXFXFXFXi %.sXZXyXzXlXtX/.[.%X-X:X:X#XI.P.n.fXwXwXR.3 N 9Xw.: ; : 9 , X > r 5 5 0.fX>.O I..XV @ ; t FXFXFXFXFXFXFXFXFXFXFXFXFX",
"FXFXFXFXFX* P 0XE.E.0XE.T.c.}.$X-XBX:X%X1.P.qXP.n.P.V.i B w.-.: c U =.=.4 1 r 5 * =.Y.=.- F.D.~ U = c FXFXFXFXFXFXFXFXFXFXFXFXFX",
"FXFXFXFXFX2 2 < 2 1 1 + d d  XnXbXBXBXH.O =.Y.&.1 $ q < > 2 t ; x. XvXNXY % 5 w 1 + # @ 1 O d zXZXz % & FXFXFXFXFXFXFXFXFXFXFXFX",
"FXFXFXFXFX> 1 $ o X - @   a  XSXSXSXSX(.O >.qX&.X 3 1 X o o r O f.{.=XMXL X w 5 = @ 1 4 X + J zXZX4 + ; u FXFXFXFXFXFXFXFXFXFXFX",
"FXFXFXFXP W ^ ( x.x.x.v./ ~ D.Q.~.!.!.e.3 ;.0.-.*.1 # x.1.! I . h.{.;XvXK X r q ; t & = 1 Y / rXrX:.Y 3.&.FXFXFXFXFXFXFXFXFXFXFX",
"FXFXFXFXB (.$XBXVXMXMXVX$X'.R     O @ : & e , y.9XJ J NXmX#XF.  C. XcXmXR - ; * 5 5 5 r + T.rXU.I.P.0XZXn.1 2 FXFXFXFXFXFXFXFXFX",
"FXFXFXFXd ~.|.bXnXBX-X-X@X[.K + 1 4 % , w e < y.Y.z f cXnX%XF.. ( #XmXAXI : 0 ] e e 6 * l !.gXD.I.I.T.uXV.O X % FXFXFXFXFXFXFXFX",
"FXFXFXFXs .X;X&X&X;X&X&X*X$XL 1 i i , w 8 e e P ,.1.v.;X@X].A.  Y V.B.qXc 3 0 ` +.+.o.' - c.!.U.I.!.rXzX/.4.e.t.%.FXFXFXFXFXFXFX",
"FXFXFXFXz NX-X_._._._.`.*XCXY > FXFXw 6 [ [ ` e # ~.XX_._.{.A.O e _ $.7.' * e [ ,X,X<Xo.< 5.T.P.T.uXzXhXZXZXZXdX-.y FXFXFXFXFXFX",
"FXFXFXFXJ NXnX{.OX|.{.}.=XxX,., FXFXw ` _ [ ' e 1 Q. X].]..XF.1 ' _ $.#.o.e e [ >X>X>Xo.r 5.P.P.E.yXyXyXZXsXsXjX&.y FXFXFXFXFXFX",
"FXFXFXFXz 3.<.E W W W Q / <.%.FXFXFXq q 7 e 6 7 , =.W W W ^ I % e w [ { e < e e o.o.{ ' < %.%.*.I u.:.=.=.=.:.-.] 5 FXFXFXFXFXFX",
"FXFXFXFXFX1 X 1 - ; : = X ; FXFXFXFX9 & & 5 w 7 9 % + : = = % ; , 5 7 e q < q w 6 6 q r 5 y & & % & > 1 % > % % 9 9 FXFXFXFXFXFX",
"FXFXFXFXFXFX> , , q & i 7 y FXFXFXFXFXr r 7 y 7 y & 0 9 9 q 9 , 5 0 9 9 q , , q 5 0 9 y 5 r 5 r r & 5 & 5 r r r 9 FXFXFXFXFXFXFX",
"FXFXFXFXFXFXFXFXFXFXFXFXFXFXFXFXFXFXFXFXFXFXFXFXFXFXFXFXFXFXFXFXFXFXFXFXFXFXFXFXFXFXFXFXFXFXFXFXFXFXFXFXFXFXFXFXFXFXFXFXFXFXFXFX",
"FXFXFXFXFXFXFXFXFXFXFXFXFXFXFXFXFXFXFXFXFXFXFXFXFXFXFXFXFXFXFXFXFXFXFXFXFXFXFXFXFXFXFXFXFXFXFXFXFXFXFXFXFXFXFXFXFXFXFXFXFXFXFXFX",
"FXFXFXFXFXFXFXFXFXFXFXFXFXFXFXFXFXFXFXFXFXFXFXFXFXFXFXFXFXFXFXFXFXFXFXFXFXFXFXFXFXFXFXFXFXFXFXFXFXFXFXFXFXFXFXFXFXFXFXFXFXFXFXFX"
};
