/* XPM */
static char *xpm_[] = {
/* columns rows colors chars-per-pixel */
"64 64 243 2 ",
"   c #2C250C",
".  c #34290A",
"X  c #2C2B1D",
"o  c #2C2917",
"O  c #332B13",
"+  c #332C1C",
"@  c #392A18",
"#  c #2B321D",
"$  c #36321B",
"%  c #35300E",
"&  c #1F3336",
"*  c #2D2C24",
"=  c #2D2C2B",
"-  c #292825",
";  c #332C23",
":  c #332D2B",
">  c #3A2C2C",
",  c #382A26",
"<  c #2D3223",
"1  c #2C332C",
"2  c #263328",
"3  c #333224",
"4  c #33322C",
"5  c #3A322D",
"6  c #393726",
"7  c #2D2D33",
"8  c #2B2D3B",
"9  c #262937",
"0  c #332D33",
"q  c #362B38",
"w  c #2C3233",
"e  c #25323B",
"r  c #29353A",
"t  c #333232",
"y  c #3C3C34",
"u  c #35333B",
"i  c #3A3837",
"p  c #1E2515",
"a  c #493A12",
"s  c #541C2D",
"d  c #751D2D",
"f  c #6F1A2F",
"g  c #453927",
"h  c #472A38",
"j  c #473E38",
"k  c #4F2830",
"l  c #68242A",
"z  c #7B2638",
"x  c #6D2E33",
"c  c #742814",
"v  c #38423B",
"b  c #3F412C",
"n  c #5B4A0A",
"m  c #4A4217",
"M  c #584819",
"N  c #5D5215",
"B  c #67530A",
"V  c #6A5717",
"C  c #735C1A",
"Z  c #654E0F",
"A  c #76621C",
"S  c #4A4729",
"D  c #574B29",
"F  c #5A5328",
"G  c #474436",
"H  c #564B36",
"J  c #585537",
"K  c #654C27",
"L  c #645424",
"P  c #685827",
"I  c #655A38",
"U  c #705535",
"Y  c #796628",
"T  c #6B6438",
"R  c #786935",
"E  c #706D34",
"W  c #1B3446",
"Q  c #252E46",
"!  c #243244",
"~  c #273549",
"^  c #3A3B45",
"/  c #243657",
"(  c #392E42",
")  c #283F61",
"_  c #7B1C41",
"`  c #423E49",
"'  c #572D4C",
"]  c #653743",
"[  c #384345",
"{  c #334458",
"}  c #2A424C",
"|  c #2A4364",
" . c #384B68",
".. c #364B77",
"X. c #335073",
"o. c #494847",
"O. c #534A48",
"+. c #4C5348",
"@. c #585948",
"#. c #575959",
"$. c #4C4E51",
"%. c #645945",
"&. c #645D55",
"*. c #624E45",
"=. c #596457",
"-. c #676449",
";. c #756747",
":. c #686659",
">. c #797355",
",. c #747256",
"<. c #4F5370",
"1. c #645E68",
"2. c #576664",
"3. c #586B6D",
"4. c #686A66",
"5. c #787766",
"6. c #76777A",
"7. c #6C726C",
"8. c #881C2B",
"9. c #872737",
"0. c #982A3A",
"q. c #89322F",
"w. c #A02C35",
"e. c #874D33",
"r. c #836C26",
"t. c #897434",
"y. c #AA7A3E",
"u. c #962942",
"i. c #8B3549",
"p. c #877748",
"a. c #847A58",
"s. c #937A51",
"d. c #816E4C",
"f. c #877D6A",
"g. c #867A79",
"h. c #A65E47",
"j. c #7A8366",
"k. c #7E8176",
"l. c #9A8539",
"z. c #9B852F",
"x. c #AB9538",
"c. c #978348",
"v. c #8C8459",
"b. c #968A59",
"n. c #938E57",
"m. c #AA9846",
"M. c #A9995A",
"N. c #B19C5A",
"B. c #A38D49",
"V. c #B5A256",
"C. c #B1A250",
"Z. c #87856B",
"A. c #948966",
"S. c #939768",
"D. c #888976",
"F. c #958E73",
"G. c #979577",
"H. c #889176",
"J. c #A59869",
"K. c #A29979",
"L. c #B19E7D",
"P. c #ACA76B",
"I. c #B7A868",
"U. c #A6A279",
"Y. c #B7A979",
"T. c #BAB073",
"R. c #9BA17F",
"E. c #D4B84D",
"W. c #C6AC5C",
"Q. c #CAB45A",
"!. c #D6B957",
"~. c #C3AF4F",
"^. c #C8A966",
"/. c #C7B668",
"(. c #D4BA67",
"). c #C8B979",
"_. c #D4BB76",
"`. c #C9AB74",
"'. c #E3B271",
"]. c #E1AC67",
"[. c #D8C559",
"{. c #E4C659",
"}. c #D8C568",
"|. c #DAC577",
" X c #CCC176",
".X c #E3C767",
"XX c #E3C979",
"oX c #E9D578",
"OX c #F6DB76",
"+X c #ECD36F",
"@X c #F8E378",
"#X c #395988",
"$X c #345C97",
"%X c #295B98",
"&X c #3C649A",
"*X c #315CA2",
"=X c #396AAF",
"-X c #435784",
";X c #48518F",
":X c #4E6790",
">X c #757A82",
",X c #366DC0",
"<X c #837C86",
"1X c #997E83",
"2X c #7A8889",
"3X c #6E8595",
"4X c #868587",
"5X c #969A86",
"6X c #8B9183",
"7X c #AF968B",
"8X c #98A38F",
"9X c #A8A485",
"0X c #BAB48A",
"qX c #B9B89A",
"wX c #B0AA92",
"eX c #96A8AC",
"rX c #92A9B1",
"tX c #BABAA4",
"yX c #ADB0A8",
"uX c #969EA9",
"iX c #C5BA83",
"pX c #C4B998",
"aX c #CDB889",
"sX c #C5B7A7",
"dX c #BBC69B",
"fX c #B6C4A5",
"gX c #D9C885",
"hX c #C3C399",
"jX c #D6C98C",
"kX c #E4CC85",
"lX c #EAD888",
"zX c #F7DC88",
"xX c #EBD997",
"cX c #F5DC95",
"vX c #F4C78C",
"bX c #F9E487",
"nX c #F6E597",
"mX c #EEE29A",
"MX c #C4C3A6",
"NX c #F2DCA6",
"BX c #F3E4AA",
"VX c #E8DFC0",
"CX c None",
/* pixels */
"CXCXCXCXCXCXCXCXCXCXCXCXCXCXCXCXCXCXCXCXCXCXCXCXCXCXCXCXCXCXCXCXCXCXCXCXCXCXCXCXCXCXCXCXCXCXCXCXCXCXCXCXCXCXCXCXCXCXCXCXCXCXCXCX",
"CXCXCXCXCXCXCXCXCXCXCXCXCXCXCXCXCXCXCXCXCXCXCXCXCXCXCXCXCXCXCXCXCXCXCXCXCXCXCXCXCXCXCXCXCXCXCXCXCXCXCXCXCXCXCXCXCXCXCXCXCXCXCXCX",
"CXCXCXCXCXCXCXCXCXCXCXCXCXCXCXCXCXCXCXCXCXCXCXCXCXCXCXCXCXCXCXCXCXCXCXCXCXCXCXCXCXCXCXCXCXCXCXCXCXCXCXCXCXCXCXCXCXCXCXCXCXCXCXCX",
"CXCXCXCXCXCXCXCXCXCXCXCXCXCXCXCXCXCXCXCXCXCXCXCXCXCXCXCXCXCXCXCXCXCX0 0 CXCXCXCXCXCXCXCXCXCXCXCXCXCXCXCXCXCXCXCXCXCXCXCXCXCXCXCX",
"CXCXCXCXCXCXCXCXCXCXCXCXCXCXCXCXCXCXCXCXCXCXCXCXCXCXCXCXCXCXCXCXCXq > > CXCXCXCXCXCXCXCXCXCXCXCXCXCXCXCXCXCXCXCXCXCXCXCXCXCXCXCX",
"CXCXCXCXCXCXCXCXCXCXCXCXCXCXCXCXCXCXCXCXCXCXCXCXCXCXCXCXCXCXCXCXCXq k h CXCXCXCXCXCXCXCXCXCXCXCXCXCXCXCXCXCXCXCXCXCXCXCXCXCXCXCX",
"CXCXCXCXCXCXCXCXCXCXCXCXCXCXCXCXCXCXCXCXCXCXCXCXCXCXCXCXCXu 8 ( h k f x ' q CXCXCXCXCXCXCXCXCXCXCXCXCXCXCXCXCXCXCXCXCXCXCXCXCXCX",
"CXCXCXCXCXCXCXCXCXCXCXCXCXCXCXCXCXCXCXCXCXCXCXCXCXCXCXCX4 : q h s f z i.] > q 7 CXCXCXCXCXCXCXCXCXCXCXCXCXCXCXCXCXCXCXCXCXCXCXCX",
"CXCXCXCXCXCXCXCXCXCXCXCXCXCXCXCXCXCXCXCXCXCXCXCXCXCXCXy ; - , h s f 9.i.x h ; 0 o.CXCXCXCXCXCXCXCXCXCXCXCXCXCXCXCXCXCXCXCXCXCXCX",
"CXCXCXCXCXCXCXCXCXCXCXCXCXCXCXCXCXCXCXCXCXCXCXCXCXCXi o.:.f.g.x f z 9.0._ x >.g.` ^ CXCXCXCXCXCXCXCXCXCXCXCXCXCXCXCXCXCXCXCXCXCX",
"CXCXCXCXCXCXCXCXCXCXCXCXCXCXCXCXCXCXCXCXCXCXCXCX0 7 - =.6XwXsX] d 0.0.0.w.0.7XsXO.q 7 CXCXCXCXCXCXCXCXCXCXCXCXCXCXCXCXCXCXCXCXCX",
"CXCXCXCXCXCXCXCXCXCXCXCXCXCXCXCXCXCXCXCXCXCXCXCX7 e e 2.>XyXsXU d u.w.0.w.0.1XsX$.9 9 CXCXCXCXCXCXCXCXCXCXCXCXCXCXCXCXCXCXCXCXCX",
"CXCXCXCXCXCXCXCXCXCXCXCXCXCXCXCXCXCXCXCXCXCXCXCXr ~ W X.3XuXuXx x 0.0.9.0.0.1XuX .) | | CXCXCXCXCXCXCXCXCXCXCXCXCXCXCXCXCXCXCXCX",
"CXCXCXCXCXCXCXCXCXCXCXCXCXCXCXCXCXCXCXCXCXCXCX8 Q | #X#X#X<.<.' z u.9.8.8.9.<.-X:X*X:XX.~ CXCXCXCXCXCXCXCXCXCXCXCXCXCXCXCXCXCXCX",
"CXCXCXCXCXCXCXCXCXCXCXCXCXCXCXCXCXCXCXCXCXCX( Q W X.%X%X*X;X;X' _ u.u.d 0.i.<.$X,X,X=X$XQ CXCXCXCXCXCXCXCXCXCXCXCXCXCXCXCXCXCXCX",
"CXCXCXCXCXCXCXCXCXCXCXCXCXCXCXCXCXCXCXCXCXCX^ W W | %X&X;X;X<.' _ u.z f 9.i.<.;X*X=X&X#XQ CXCXCXCXCXCXCXCXCXCXCXCXCXCXCXCXCXCXCX",
"CXCXCXCXCXCXCXCXCXCXCXCXCXCXCXCXCXCXCXCXCXt = v 3.3XrXeXeX7X7Xz f f z d 8.w.7XsXyXeXeX2Xe CXCXCXCXCXCXCXCXCXCXCXCXCXCXCXCXCXCXCX",
"CXCXCXCXCXCXCXCXCXCXCXCXCXCXCXCXCXCXCXCXCXt * y D.5XfXtXpXjX].q.d f f f 8.8.vXNXdXdXsX6X8 CXCXCXCXCXCXCXCXCXCXCXCXCXCXCXCXCXCXCX",
"CXCXCXCXCXCXCXCXCXCXCXCXCXCXCXCXCXCXCXCXu = * G f.9XdXdX0XhX^.c c f l l d q.].NXgXdXMX5X= CXCXCXCXCXCXCXCXCXCXCXCXCXCXCXCXCXCXCX",
"CXCXCXCXCXCXCXCXCXCXCXCXCXCXCXCXCXCXCXCX+.@.O.*.d.v.S.S.G.0X(.y.e.d x z e.h.'.cXP.n.8X>X0 CXCXCXCXCXCXCXCXCXCXCXCXCXCXCXCXCXCXCX",
"CXCXCXCXCXCXCXCXCXCXCXCXCXCXCXCXCXCXCX2 5.H.H.Z.I K H @.#.5X_.zXvXe.K Z l.'.OXzXE J 3.X.Q CXCXCXCXCXCXCXCXCXCXCXCXCXCXCXCXCXCXCX",
"CXCXCXCXCXCXCXCXCXCXCXCXCXCXCXCXCXCXCX# :.k.H.Z.K K H @.#.5X/.bXXXC V Z z.[.OXlXY J :X-XQ CXCXCXCXCXCXCXCXCXCXCXCXCXCXCXCXCXCXCX",
"CXCXCXCXCXCXCXCXCXCXCXCXCXCXCXCXCXCXCX1 2.2X2Xg.I K -.J +.5XT.lX}.r.B V l.I.XXkXt.&.2.<./ CXCXCXCXCXCXCXCXCXCXCXCXCXCXCXCXCXCXCX",
"CXCXCXCXCXCXCXCXCXCXCXCXCXCXCXCXCXCXCX2 v } ~ [ D v.jXP.S J V A t.C./.lXB.A C r.aXpX2.X.-X .CXCXCXCXCXCXCXCXCXCXCXCXCXCXCXCXCXCX",
"CXCXCXCXCXCXCXCXCXCXCXCXCXCXCXCXCXCXCXr ! / ~ ! D c.BXM.N F N N A ~..XzXJ.P Z C kXjX%.#.#X..Q CXCXCXCXCXCXCXCXCXCXCXCXCXCXCXCXCX",
"CXCXCXCXCXCXCXCXCXCXCXCXCXCXCXCXCXCXCX7 ! / W ^ J c.xXx.B n Z V Y /..XbXN.M Z C }.kXT $.X.) 9 CXCXCXCXCXCXCXCXCXCXCXCXCXCXCXCXCX",
"CXCXCXCXCXCXCXCXCXCXCXCXCXCXCXCXCXCXCX0 #.1.2.@.H p.kX~.z.x.B.Z A ^.(.bXV.N t.x.+XXXL %.6X2.2 CXCXCXCXCXCXCXCXCXCXCXCXCXCXCXCXCX",
"CXCXCXCXCXCXCXCXCXCXCXCXCXCXCXCXCXCXCXq 7.6XD.Z.L t.].!.'.!.W.r.A Q..XbXM.B x.!.OXoXP a.fXj.# CXCXCXCXCXCXCXCXCXCXCXCXCXCXCXCXCX",
"CXCXCXCXCXCXCXCXCXCXCXCXCXCXCXCXCXCX( 7 7.F.F.f.D r.[.!.E.!./.C r.Q..XbXN.V m.!.zX|.P d.MX5., CXCXCXCXCXCXCXCXCXCXCXCXCXCXCXCXCX",
"CXCXCXCXCXCXCXCXCXCXCXCXCXCXCXCXCXCX^ u 1.5.v.p.R t.C.Q.E.~.I.P V N.(.|.b.M c.I.gX`.P T 9X>.5 CXCXCXCXCXCXCXCXCXCXCXCXCXCXCXCXCX",
"CXCXCXCXCXCXCXCXCXCXCXCXCXCXCXCXCXw 2 2 7 5 D Y W.m.C l./.A % $ a L N P S O g % F L $ $ %.j - CXCXCXCXCXCXCXCXCXCXCXCXCXCXCXCXCX",
"CXCXCXCXCXCXCXCXCXCXCXCXCXCXCXCXCX= 2 < : $ N Y /.m.B l./.V 6 = $ H F J S ; 5 , F D $ g U j 1 CXCXCXCXCXCXCXCXCXCXCXCXCXCXCXCXCX",
"CXCXCXCXCXCXCXCXCXCXCXCXCXCXCXCXCX: # $ . a D Y E.x.B B._.P ; = g D N F b X 5 6 D F % g J G = CXCXCXCXCXCXCXCXCXCXCXCXCXCXCXCXCX",
"CXCXCXCXCXCXCXCXCXCXCXCXCXCXCXCXCXo -.J.M.b.P A ~.x.B y.).P ; : g J.P. X,.3 ; ; m E P.A.g > = CXCXCXCXCXCXCXCXCXCXCXCXCXCXCXCXCX",
"CXCXCXCXCXCXCXCXCXCXCXCXCXCXCXCXCXO p._./.V.C r.E.x.B l.).P X ; M /.}.nXf.> > g F R xXY.@ > 0 CXCXCXCXCXCXCXCXCXCXCXCXCXCXCXCXCX",
"CXCXCXCXCXCXCXCXCXCXCXCXCXCXCXCXCX@ t. X}.Q.C C (.x.B s._.P . . a !.[.bXb.  @ @ M E xXT.. @ ; CXCXCXCXCXCXCXCXCXCXCXCXCXCXCXCXCX",
"CXCXCXCXCXCXCXCXCXCXCXCXCXCXCXCXCX, t._.N.c.B.l.N.y.V c._.t.C C r.Q.[.@XN.V P U L t.lX Xt.T ;.O.CXCXCXCXCXCXCXCXCXCXCXCXCXCXCXCX",
"CXCXCXCXCXCXCXCXCXCXCXCXCXCXCXCXCX3 ;.).P m _.gXV K M s._.Q.!.!.E.[.[.@X+X/.(./.R Y kXbXcXmXBXd.CXCXCXCXCXCXCXCXCXCXCXCXCXCXCXCX",
"CXCXCXCXCXCXCXCXCXCXCXCXCXCXCXCXCX# t. XF a gXgXP F V c.(.!.!.E.!.E..XOX+X!.!./.Y e.cXzXbXcXnX;.> CXCXCXCXCXCXCXCXCXCXCXCXCXCXCX",
"CXCXCXCXCXCXCXCXCXCXCXCXCXCXCXCXCX6 E dXJ a jXjXP M F v.)./.(.^.^.^.|.nX X/./.T.T e.xXlXzXnXxXR , CXCXCXCXCXCXCXCXCXCXCXCXCXCXCX",
"CXCXCXCXCXCXCXCXCXCXCXCXCXCXCXCXCX= g D ;.a.S H 6 $ # -.G.A.F.F.f.S g D ,.D.Z.f.G g S D m c. XE 4 CXCXCXCXCXCXCXCXCXCXCXCXCXCXCX",
"CXCXCXCXCXCXCXCXCXCXCXCXCXCXCXCXCXq > @ ,.Z.j ; 4 3 # +.6.4X<X<X6.5 = 1 $.4X4X4Xi X X $ @ ;.dXP X CXCXCXCXCXCXCXCXCXCXCXCXCXCXCX",
"CXCXCXCXCXCXCXCXCXCXCXCXCXCXCXCXCX5 X + ,.f.5 - 2 p # =.4X>X<X<X6.u = 7 #.4X<X6.G ; , @ @ >.iXT ; CXCXCXCXCXCXCXCXCXCXCXCXCXCXCX",
"CXCXCXCXCXCXCXCXCXCXCXCXCXCXCXi H ,.-.@.k.5X5.:.5.,.7.2.1.>X<X1.$.u t = ` #.>X<Xi 5 ,.&.g H d.D 5 CXCXCXCXCXCXCXCXCXCXCXCXCXCXCX",
"CXCXCXCXCXCXCXCXCX7 : = = 1 2 o T iXP.S.5X8X9X9XsXMXtX7.q 1.<Xi * X * 4 = = 2.6.y G tXH.> > @ X 0 CXCXCXCXCXCXCXCXCXCXCXCXCXCXCX",
"CXCXCXCXCXCXCXCX: 1 4 * 3 4 < % N  Xm.c.R.5X9X0XpXpXMX5.: 1.<Xi # 3 ; t t w :.D.v G fXH., > , , 0 CXCXCXCXCXCXCXCXCXCXCXCXCXCXCX",
"CXCXCXCXCXCXCX$.y y b b y 6 b m Y }.W.M.S.9XK.K.0XqXqX,.* 4.k.[ : : 0 = = t #.6.[ ^ wXG.< $ S $ : $.CXCXCXCXCXCXCXCXCXCXCXCXCXCX",
"CXCXCXCXCXCX5 #.tXyXtXqXqX9XU.Y.|.bXcXxXU.b.F.F.Y.U.9X-.* 7.6.^ 8 7 u 0 t 0 4 w 8 [ 8Xj.# ,.0XI ; t CXCXCXCXCXCXCXCXCXCXCXCXCXCX",
"CXCXCXCXCXCX: @.sXdX0XMXqXU.I./..XbXzXcXY.A.A.F.R.U.9X:.: 4.>X} 7 8 q 0 0 : : w r v 5Xj.6 >.iXP o 0 5 CXCXCXCXCXCXCXCXCXCXCXCXCX",
"CXCXCXCXCXCXi :.qXdXdXMXsXwXP./..X@XbXnXY.A.Z.H.U.9X9X:.q 4.>Xv * , X , 6 , 4 = 2 v 5Xj.* >.).Y $ ; i CXCXCXCXCXCXCXCXCXCXCXCXCX",
"CXCXCXCXCXCX- b -.-.%.-.&.J E XXoX+XzXnXt.D D.Z.@.@.&.j : ` o.+ a v.M.P.;.O * 4 * y @.o.> o.T b.G.G , CXCXCXCXCXCXCXCXCXCXCXCXCX",
"CXCXCXCXCXCX= 5 o X + X @ % F lXbXbXbXxX;., >.5., - - > > : : O M T.XXnXn.. 2 1 = ; * ; : , @ L.VXJ ; 5 CXCXCXCXCXCXCXCXCXCXCXCX",
"CXCXCXCXCXCX3 o 6 ; , , +   D xXbXbXnXcX;.g 5.k.t 1 4 ; ; + , g M T.(.nXb.# 2 2 = 5 : : # o . Y.BXH   ; CXCXCXCXCXCXCXCXCXCXCXCX",
"CXCXCXCXCXCX@.J I J I %.U L ;.Y.)./.).0X*.5 :.4.G v ; j I I j a m /.}.nXb.o 2 w = i : ; # S F P.hXT S @.O.CXCXCXCXCXCXCXCXCXCXCX",
"CXCXCXCXCXH T.|.nXnXBXlXlX XM.a . $ O $ q : 1 y 6X:.5 A.cXgXI.Z M `.|.bXb.+ 4 4 : - 5 :   >.).M.S.v.S.qX6Xi CXCXCXCXCXCXCXCXCXCX",
"CXCXCXCXCXD /.[.@XOX@XbX@X}.N.a 3 0 4 - 4 w 1 v k.,.O b.nX.X/.a M T.gXmXA.+ 1 7 0 7 0 0 + >.).M.v.A.G.qX5X; > t CXCXCXCXCXCXCXCX",
"CXCXCXCXCXH /.}.OX@XOXOXOX!.N.g q q 0 = w w r v D.-.% B.@X[./.n M 9XhXBXH.* 1 7 Q Q / 8 - d.iXJ.b.Z.F.pXF.6 + 6 CXCXCXCXCXCXCXCX",
"CXCXCXCXCXK kX+XE.{.{.{.{.OX).@ u ` j 8 r ! ! r t ;.J./.[.[.I.m O +.#.7.$.2 2 r  .#X.. .0 %.K.b.F.wXqXMX0XR.9X8X@.CXCXCXCXCXCXCX",
"CXCXCXCXCXD cX+XE.E.E.E.E.oXjXg u CX[ e W / / e y I _.Q.E.[.^.D 1 & ) ..{ r 2 W #X$X#XX.w +.H.H.D.tXtXqXdXqXfXsX:.= CXCXCXCXCXCX",
"CXCXCXCXCX*.mXzX(.{.].(.}.nXpXg CXCXv e / / / Q = J )./.[.(.T.S 2 W X.#X{ & 2 e #X*X#XX.w @.H.6X6XtXMXMXMXhXtXsX&.= CXCXCXCXCXCX",
"CXCXCXCXCXCXF.A.s.s.s.s.c.J.Z.j CXCXy 1 ! ~ Q e 7 H v.v.p.c.>.G 1 ! /  .^ w 1 r | .. .^ t o.:.#.&.5.D.f.Z.f.j.Z.o.7 CXCXCXCXCXCX",
"CXCXCXCXCXCX# O @ @ @ @ .   0 CXCXCXCXt 0 8 7 w u # O . O @ # < w e e e 9 w 1 = ~ Q e e = : : = ; ; * * X X * * 4 u ` CXCXCXCXCX",
"CXCXCXCXCXCX< < - 4 , : + 6 u CXCXCXCX0 0 7 7 r X # 3 ; : t : 1 7 0 7 w w t t 7 8 7 2 4 = : = = 4 < X 4 4 * t = = 0 ` CXCXCXCXCX",
"CXCXCXCXCXCX2 2 1 w 7 : 3 4 w CXCXCXCX0 0 0 w 1 < < * 4 q = t 0 7 : 5 1 : 7 = t 7 5 3 + , t = t X 5 < * = = t 0 8 0 o.CXCXCXCXCX"
};
