/* XPM */
static char *xpm_[] = {
/* columns rows colors chars-per-pixel */
"64 64 249 2 ",
"   c #372B0A",
".  c #3B320A",
"X  c #2E2D15",
"o  c #2C2B1C",
"O  c #26271C",
"+  c #332B15",
"@  c #332C1B",
"#  c #392B16",
"$  c #34321D",
"%  c #3B341C",
"&  c #3B3717",
"*  c #2C2E14",
"=  c #1C353C",
"-  c #2C2C24",
";  c #2C2C2C",
":  c #2A2828",
">  c #322D24",
",  c #332C2B",
"<  c #372727",
"1  c #2C3124",
"2  c #2C322B",
"3  c #27302D",
"4  c #343224",
"5  c #3B3425",
"6  c #34332C",
"7  c #3B3A2B",
"8  c #3A3728",
"9  c #2D2D32",
"0  c #2B2D3B",
"q  c #242E36",
"w  c #332E32",
"e  c #312D39",
"r  c #3E2930",
"t  c #2D3232",
"y  c #24323A",
"u  c #2C323B",
"i  c #273335",
"p  c #343333",
"a  c #34313B",
"s  c #393938",
"d  c #721D1C",
"f  c #453917",
"g  c #4D3A0C",
"h  c #511E26",
"j  c #771C2A",
"k  c #701833",
"l  c #443B23",
"z  c #433B27",
"x  c #433C37",
"c  c #4E2931",
"v  c #68262B",
"b  c #682634",
"n  c #712E32",
"m  c #71381B",
"M  c #3E432C",
"N  c #4A4317",
"B  c #584A17",
"V  c #59521B",
"C  c #584A0D",
"Z  c #69550A",
"A  c #654C19",
"S  c #665516",
"D  c #745C18",
"F  c #776413",
"G  c #474226",
"H  c #544927",
"J  c #5B5628",
"K  c #474639",
"L  c #564C37",
"P  c #585439",
"I  c #4B5230",
"U  c #634A23",
"Y  c #675824",
"T  c #685935",
"R  c #784532",
"E  c #766827",
"W  c #68653A",
"Q  c #766B36",
"!  c #7B733D",
"~  c #6A632F",
"^  c #1D3656",
"/  c #1D3045",
"(  c #252C46",
")  c #2B3343",
"_  c #243647",
"`  c #3B3C42",
"'  c #283955",
"]  c #2E2F4E",
"[  c #243B64",
"{  c #453B46",
"}  c #532E47",
"|  c #703646",
" . c #364556",
".. c #2B4464",
"X. c #364766",
"o. c #375567",
"O. c #375376",
"+. c #484848",
"@. c #514E46",
"#. c #575547",
"$. c #565956",
"%. c #4D5152",
"&. c #655753",
"*. c #56624A",
"=. c #5D665A",
"-. c #6B6449",
";. c #7C7249",
":. c #6A6856",
">. c #736856",
",. c #7A7457",
"<. c #7B6B46",
"1. c #4C5B69",
"2. c #585A76",
"3. c #4B4F6E",
"4. c #5C6772",
"5. c #686768",
"6. c #6C7267",
"7. c #787769",
"8. c #787779",
"9. c #707275",
"0. c #861D37",
"q. c #821528",
"w. c #95273C",
"e. c #87333D",
"r. c #842B39",
"t. c #866C15",
"y. c #887628",
"u. c #836939",
"i. c #8D722E",
"p. c #A1642E",
"a. c #9B2A43",
"s. c #8A3142",
"d. c #962D45",
"f. c #922445",
"g. c #8D5657",
"h. c #887948",
"j. c #937E46",
"k. c #857A5A",
"l. c #806D4C",
"z. c #A46A4B",
"x. c #877E6B",
"c. c #867976",
"v. c #7F8278",
"b. c #7D856E",
"n. c #9D883B",
"m. c #91822F",
"M. c #B1963D",
"N. c #988746",
"B. c #8A845A",
"V. c #978A5A",
"C. c #8E874B",
"Z. c #AA9448",
"A. c #A99858",
"S. c #B18F4B",
"D. c #B6A358",
"F. c #8B8868",
"G. c #938D67",
"H. c #99916B",
"J. c #8A8878",
"K. c #938C78",
"L. c #979679",
"P. c #8A9176",
"I. c #A89968",
"U. c #B39D68",
"Y. c #A49975",
"T. c #A58F69",
"R. c #ADA366",
"E. c #B8A867",
"W. c #BCB46B",
"Q. c #A8A27A",
"!. c #B6A875",
"~. c #BBB576",
"^. c #9DA17C",
"/. c #CBB65B",
"(. c #D5BD5D",
"). c #D8B85A",
"_. c #CCB050",
"`. c #C7AD66",
"'. c #CAB768",
"]. c #D6BA66",
"[. c #C8B776",
"{. c #D5BB74",
"}. c #C5AE75",
"|. c #D2AC65",
" X c #D8C35E",
".X c #D8C269",
"XX c #CEC179",
"oX c #D7C576",
"OX c #CEC16C",
"+X c #F7D96D",
"@X c #E3CA76",
"#X c #EBD678",
"$X c #F7DC7A",
"%X c #E8CD65",
"&X c #E6C35B",
"*X c #2D5385",
"=X c #395884",
"-X c #285D96",
";X c #395C9A",
":X c #376191",
">X c #3669B4",
",X c #3C62A3",
"<X c #445989",
"1X c #7B7885",
"2X c #6D7B8C",
"3X c #4D6F99",
"4X c #837B88",
"5X c #6B8893",
"6X c #758EA4",
"7X c #898886",
"8X c #908B84",
"9X c #989885",
"0X c #8E8C91",
"qX c #A19D86",
"wX c #A58A91",
"eX c #9BA387",
"rX c #A2A385",
"tX c #A9A689",
"yX c #A5A595",
"uX c #BCBC9B",
"iX c #B8B599",
"pX c #B8AE89",
"aX c #BAB9A8",
"sX c #B7B3A8",
"dX c #9494A0",
"fX c #C8BA88",
"gX c #D3BB84",
"hX c #C5B594",
"jX c #C3BCA7",
"kX c #CBAEA9",
"lX c #BDC195",
"zX c #B9C4AA",
"xX c #B5C2BB",
"cX c #DACB96",
"vX c #D3C58A",
"bX c #F8DD88",
"nX c #E8D798",
"mX c #F8DC93",
"MX c #E6D088",
"NX c #F8E388",
"BX c #F8E596",
"VX c #EFE08D",
"CX c #C4C2A6",
"ZX c #D8D3AD",
"AX c #F2DDA2",
"SX c #EBD7AE",
"DX c #F5E5A5",
"FX c #F0ECBF",
"GX c None",
/* pixels */
"GXGXGXGXGXGXGXGXGXGXGXGXGXGXGXGXGXGXGXGXGXGXGXGXGXGXGXGXGXGXGXGXGXGXGXGXGXGXGXGXGXGXGXGXGXGXGXGXGXGXGXGXGXGXGXGXGXGXGXGXGXGXGXGX",
"GXGXGXGXGXGXGXGXGXGXGXGXGXGXGXGXGXGXGXGXGXGXGXGXGXGXGXGXGXGXGXGXGXGXGXGXGXGXGXGXGXGXGXGXGXGXGXGXGXGXGXGXGXGXGXGXGXGXGXGXGXGXGXGX",
"GXGXGXGXGXGXGXGXGXGXGXGXGXGXGXGXGXGXGXGXGXGXGXGXGXGXGXGXGXGXGXGXGXGXGXGXGXGXGXGXGXGXGXGXGXGXGXGXGXGXGXGXGXGXGXGXGXGXGXGXGXGXGXGX",
"GXGXGXGXGXGXGXGXGXGXGXGXGXGXGXGXGXGXGXGXGXGXGXGXGXGXGXGXGXGXGXGXGXGXGXGXGXGXGXGXGXGXGXGXGXGXGXGXGXGXGXGXGXGXGXGXGXGXGXGXGXGXGXGX",
"GXGXGXGXGXGXGXGXGXGXGXGXGXGXGXGXGXGXGXGXGXGXGXGXGXGXGXGXGXGXGXGXGXGXGXGXGXGXGXGXGXGXGXGXGXGXGXGXGXGXGXGXGXGXGXGXGXGXGXGXGXGXGXGX",
"GXGXGXGXGXGXGXGXGXGXGXGXGXGXGXGXGXGXGXGXGXGXGXGXGXGXGXGXGXGXGXGXGXGXGXGXGXGXGXGXGXGXGXGXGXGXGXGXGXGXGXGXGXGXGXGXGXGXGXGXGXGXGXGX",
"GXGXGXGXGXGXGXGXGXGXGXGXGXGXGXGXGXGXGXGXGXGXGXGXGXGXGXGXGXGXGXGXGXGXGXGXGXGXGXGXGXGXGXGXGXGXGXGXGXGXGXGXGXGXGXGXGXGXGXGXGXGXGXGX",
"GXGXGXGXGXGXGXGXGXGXGXGXGXGXGXGXGXGXGXGXGXGXGXGXGXGXGXGXGXGXGXGXGXGXGXGXGXGXGXGXGXGXGXGXGXGXGXGXGXGXGXGXGXGXGXGXGXGXGXGXGXGXGXGX",
"GXGXGXGXGXGXGXGXGXGXGXGXGXGXGXGXGXGXGXGXGXGXGXGXGXGXGXGXGXGXGXGXGXGXGXGXGXGXGXGXGXGXGXGXGXGXGXGXGXGXGXGXGXGXGXGXGXGXGXGXGXGXGXGX",
"GXGXGXGXGXGXGXGXGXGXGXGXGXGXGXGXGXGXGXGXGXGXGXGXGXGXGXGXGXGXGXGXGXGXGXGXGXGXGXGXGXGXGXGXGXGXGXGXGXGXGXGXGXGXGXGXGXGXGXGXGXGXGXGX",
"GXGXGXGXGXGXGXGXGXGXGXGXGXGXGXGXGXGXGXGXGXGXGXGXGXGXGXGXGXGXGXGXGXGXGXGXGXGXGXGXGXGXGXGXGXGXGXGXGXGXGXGXGXGXGXGXGXGXGXGXGXGXGXGX",
"GXGXGXGXGXGXGXGXGXGXGXGXGXGXGXGXGXGXGXGXGXGXGXGXGXGXGXGXGXGXGXGX{ c c c c } GXGXGXGXGXGXGXGXGXGXGXGXGXGXGXGXGXGXGXGXGXGXGXGXGXGX",
"GXGXGXGXGXGXGXGXGXGXGXGXGXGXGXGXGXGXGXGXGXGXGXGXGXGXGXGXGXGX, r c c b | | c c ; GXGXGXGXGXGXGXGXGXGXGXGXGXGXGXGXGXGXGXGXGXGXGXGX",
"GXGXGXGXGXGXGXGXGXGXGXGXGXGXGXGXGXGXGXGXGXGXGXGXGXGXGXGX< < < < h b k s.s.h < ; s GXGXGXGXGXGXGXGXGXGXGXGXGXGXGXGXGXGXGXGXGXGXGX",
"GXGXGXGXGXGXGXGXGXGXGXGXGXGXGXGXGXGXGXGXGXGXGXGXGXGXGX@.{ #.-.c h j j s.s.b b &.$.M GXGXGXGXGXGXGXGXGXGXGXGXGXGXGXGXGXGXGXGXGXGX",
"GXGXGXGXGXGXGXGXGXGXGXGXGXGXGXGXGXGXGXGXGXGXGXGXGX9 p 8.8XsXiX| v s.a.a.d.n k.kX7Xt t GXGXGXGXGXGXGXGXGXGXGXGXGXGXGXGXGXGXGXGXGX",
"GXGXGXGXGXGXGXGXGXGXGXGXGXGXGXGXGXGXGXGXGXGXGXGX) ( u 8.P.aXkXn j w.a.w.a.a.g.kX0Xt u GXGXGXGXGXGXGXGXGXGXGXGXGXGXGXGXGXGXGXGXGX",
"GXGXGXGXGXGXGXGXGXGXGXGXGXGXGXGXGXGXGXGXGXGXGXGX/ ^ ..3X2XdX4X| j w.a.w.w.a.g.wX5X....X.GXGXGXGXGXGXGXGXGXGXGXGXGXGXGXGXGXGXGXGX",
"GXGXGXGXGXGXGXGXGXGXGXGXGXGXGXGXGXGXGXGXGXGXGX_ ^ *X-X-X*X=X3.} n d.w.q.q.e.| <X<X>X>X,XO.GXGXGXGXGXGXGXGXGXGXGXGXGXGXGXGXGXGXGX",
"GXGXGXGXGXGXGXGXGXGXGXGXGXGXGXGXGXGXGXGXGXGX: ) ^ O.-X-X:XO.3.} k a.w.0.d e.| 2.;X>X>X>X3.GXGXGXGXGXGXGXGXGXGXGXGXGXGXGXGXGXGXGX",
"GXGXGXGXGXGXGXGXGXGXGXGXGXGXGXGXGXGXGXGXGXs ; +.3.2X2X5X5X8.c.b k d.0.k 0.e.g.4X0X6X6X6X5.GXGXGXGXGXGXGXGXGXGXGXGXGXGXGXGXGXGXGX",
"GXGXGXGXGXGXGXGXGXGXGXGXGXGXGXGXGXGXGXGXGX; r 6.7XsXaXzXlXhXhXn j k k k r.e.z.SXZXxXxXaX5XGXGXGXGXGXGXGXGXGXGXGXGXGXGXGXGXGXGXGX",
"GXGXGXGXGXGXGXGXGXGXGXGXGXGXGXGXGXGXGXGX3 3 p >.K.hXCXaXuXfX}.d d v b | d m p.mXnXfXzXzXb.: GXGXGXGXGXGXGXGXGXGXGXGXGXGXGXGXGXGX",
"GXGXGXGXGXGXGXGXGXGXGXGXGXGXGXGXGXGXGXGX%.=.#.>.<.F.G.G.L.pX}.S.z.n b v e.z.S.bXvXV.L.0X6.i GXGXGXGXGXGXGXGXGXGXGXGXGXGXGXGXGXGX",
"GXGXGXGXGXGXGXGXGXGXGXGXGXGXGXGXGXGXGX:.P.b.P.W J I I $.$.pX{.bXMXE m R u.|.@XNXXXI $.1.o._ GXGXGXGXGXGXGXGXGXGXGXGXGXGXGXGXGXGX",
"GXGXGXGXGXGXGXGXGXGXGXGXGXGXGXGXGXGXGX=.7XP.F.W V I $.$.$.tX{.$X#XZ A A D ].oXBX~.J $.4.o.= GXGXGXGXGXGXGXGXGXGXGXGXGXGXGXGXGXGX",
"GXGXGXGXGXGXGXGXGXGXGXGXGXGXGXGXGXGXGX%.2.2.=.P Y C.^.-.#.F.N.Z.Z.n.S.S.Z.n.N.A.A.A.b.*.o...GXGXGXGXGXGXGXGXGXGXGXGXGXGXGXGXGXGX",
"GXGXGXGXGXGXGXGXGXGXGXGXGXGXGXGXGXGXGX( ] ] ) K J XXVXQ H J V Z D '.].bXoXZ A C m.BXW.I 1.1.GXGXGXGXGXGXGXGXGXGXGXGXGXGXGXGXGXGX",
"GXGXGXGXGXGXGXGXGXGXGXGXGXGXGXGXGXGXe ) ] ( y K J oXbXy.S V V C D _..XNXoXS V S i.VXW.I %.<XX.GXGXGXGXGXGXGXGXGXGXGXGXGXGXGXGXGX",
"GXGXGXGXGXGXGXGXGXGXGXGXGXGXGXGXGXGXw +.4.5.=.#.~ D.@XM.n.N.C.S F _. X$XoXY ~ N._.NXW.J 4.0X4.GXGXGXGXGXGXGXGXGXGXGXGXGXGXGXGXGX",
"GXGXGXGXGXGXGXGXGXGXGXGXGXGXGXGXGXGX, 5.8X8XP.W S Z.].).).]./.D Z '. X$X{.A t.{..XNX`.A F.jX7.: GXGXGXGXGXGXGXGXGXGXGXGXGXGXGXGX",
"GXGXGXGXGXGXGXGXGXGXGXGXGXGXGXGXGXGX- :.J.F.G.~ Z D.).).).].`.D E D.oXBX{.D i.'.oXmX}.Y h.hXF.4 GXGXGXGXGXGXGXGXGXGXGXGXGXGXGXGX",
"GXGXGXGXGXGXGXGXGXGXGXGXGXGXGXGXGX: 1 K L -.<.N.Z.p.i._.`.i.T G N ! j.N.;.N H ~ <.B.;.f T k.P > GXGXGXGXGXGXGXGXGXGXGXGXGXGXGXGX",
"GXGXGXGXGXGXGXGXGXGXGXGXGXGXGXGXGX6 $ $ $ l U U.].t.Z D.W.B + 4 & V B J H & X * N H H   f L z w GXGXGXGXGXGXGXGXGXGXGXGXGXGXGXGX",
"GXGXGXGXGXGXGXGXGXGXGXGXGXGXGXGXGX- @ + & N Y A..Xt.Z D.W.N X @ & H S B H + @ 4 7 I H & l L @.: GXGXGXGXGXGXGXGXGXGXGXGXGXGXGXGX",
"GXGXGXGXGXGXGXGXGXGXGXGXGXGXGXGXGX-.T.H.V.Q C D. XF Z R.W.C X @ G V.E.W.Y.l > 1 5 P ,.Q.k.f s : GXGXGXGXGXGXGXGXGXGXGXGXGXGXGXGX",
"GXGXGXGXGXGXGXGXGXGXGXGXGXGXGXGXGXh.{.'.'.i.Z Z.'.y.S D.W.B X + f W..XVXgXf < w % V C.DXU.  > p { GXGXGXGXGXGXGXGXGXGXGXGXGXGXGX",
"GXGXGXGXGXGXGXGXGXGXGXGXGXGXGXGXGXh.OX X].i.Z Z.[.E S E.W.C   f C W..X$X[.g f # f B N.BXA.. . + @.GXGXGXGXGXGXGXGXGXGXGXGXGXGXGX",
"GXGXGXGXGXGXGXGXGXGXGXGXGXGXGXGXGXh.OXm.Z A.{.n.Q S S D.'.M.S.S.S.). X$X#XZ.Z.V.N.S j.DXvX`.W.W.,.GXGXGXGXGXGXGXGXGXGXGXGXGXGXGX",
"GXGXGXGXGXGXGXGXGXGXGXGXGXGXGXGX> ,.~.E   !.AXj.U Y S D.]./.{.].(./..X$X#X.X/.OXA.A j.BXBXBXNXBXF.O GXGXGXGXGXGXGXGXGXGXGXGXGXGX",
"GXGXGXGXGXGXGXGXGXGXGXGXGXGXGXGX- k.~.E . Y.DXh.L L T U.{.|.`.{.[.'.{.nXMXOX[.[.U.B j.SXmXVXbXBXF.4 GXGXGXGXGXGXGXGXGXGXGXGXGXGX",
"GXGXGXGXGXGXGXGXGXGXGXGXGXGXGXGX4 5 J Q ,.-.T l 5 z f k.T.T.T.T.j.T V Y E V.G.H.;.f l T U A N.vX,.o GXGXGXGXGXGXGXGXGXGXGXGXGXGX",
"GXGXGXGXGXGXGXGXGXGXGXGXGXGXGXa w 8 @ -.K.P - , ; p 6 6.x.c.J.4X7.s X X G 7.c.c.>.5 z < < # u.gX,.o GXGXGXGXGXGXGXGXGXGXGXGXGXGX",
"GXGXGXGXGXGXGXGXGXGXGXGXGXGX+.+.< > @ :.J.#.2 p 6 - s 6.8.v.4X1X1Xs : 1 +.c.4X4X5.> : r w : <.pX:.- +.GXGXGXGXGXGXGXGXGXGXGXGXGX",
"GXGXGXGXGXGXGXGXa s s , 8 8 4 -.Q.V.;.H.eXP.P.L.^.tXeX*.M 6.8. .` ; ; 3 3 ` 3.4X5.- *.eX7.4 f L K - +.GXGXGXGXGXGXGXGXGXGXGXGXGX",
"GXGXGXGXGXGXw , ; , > > 5 $ X ;.[.D.G.L.Q.^.rXuXiXvXlXK s 9.8.` 3 ; 3 t t t { 1X9.- *.zXb.$ + + X - +.GXGXGXGXGXGXGXGXGXGXGXGXGX",
"GXGXGXGXGX{ K , 8 6 8 G & & & ! OXD.V.Y.rXrXL.iXhXhXiXK u 1X1Xu ; p w t ; 9 +.4X&.4 *.zXb.4 & l 5 : +.GXGXGXGXGXGXGXGXGXGXGXGXGX",
"GXGXGXGXGX%.yXyXyXiXrX9XH.I.R.XX$XbXnX!.F.K.K.qXtXtXqXL a 9.1X` w , w p - 6 w x s - #.yX6.$ -.pX-.8 w GXGXGXGXGXGXGXGXGXGXGXGXGX",
"GXGXGXGXa L uXuXzXiXCXiX9X~./.%XNXNXNX}.F.F.K.9XeXL.eXK w 8.1X{ e 9 2 1 1 2 2 ; > > #.yX:.  ;.gX,.X > 6 GXGXGXGXGXGXGXGXGXGXGXGX",
"GXGXGXGX: I tXlXiXiXiXyXL.!. X%X$XNXNXE.k.K.8X8XL.eX9X@.s 5.9.w w M & N M o 2 ; , > #.yX,.* W pX;.G % > GXGXGXGXGXGXGXGXGXGXGXGX",
"GXGXGXGX; 8 G 5 z 7 7 G & h.bX$XbXmXBXi.f >.K.@.G 8 7 - 1 7 s < z U.W.MXR.& , w e a - p 2 p K f B.ZX,.@ GXGXGXGXGXGXGXGXGXGXGXGX",
"GXGXGXGX4 o 4 @ X > @ @ . h.DXmXmXBXDXh.  -.P.+.O - 4 o $ % O < N E.OXVXXXN , 0 0 0 9 p 6 2 - X G.FXx.+ > GXGXGXGXGXGXGXGXGXGXGX",
"GXGXGX{ H f l B H f H N g h.nXcXnXcXcX;.* -.J.+.s 8 $ G N & l f N W.{.mX{.f : u 9 t t 1 1 o & N B.SX;.& K K GXGXGXGXGXGXGXGXGXGX",
"GX+.a L !.}.nXnXcXSXnXvX}.h.f f f N G $ > 4 7 :.8.K & pXnX[.Y.f C E.{.bXgXf < 9 a ; ; 3 2 @ W ~.!.C.G.P.9XsX$.GXGXGXGXGXGXGXGXGX",
"GX .w x '.].bXbXNXNXbXMX{.i.# < 1 1 : 1 - 2 ; 6.8XL & vXVXOX'.g g !.@XmXgXf , ; p w w e w o h.[.R.C.G.F.rXCX:.: GXGXGXGXGXGXGXGX",
"GX+.w H '.&X+X+X+X+X+X#XoXj.@ t t t 3 y y y q 5.c.L C '.$XOXE.C N L.!.cXpX$ 6 a u ) ] ' ) < <.}.Q.B.G.H.pXaX:.x K GXGXGXGXGXGXGX",
"GX` x L MX+X).). X_. X%X$XA.> s GXGXy / ^ ^ _ 0 5 T.`.). X/.W.N 1 y  .1.%.u 3 y ..O.*X<XX.) #.H.G.G.tXhXuXuXiXuXiXsX@.GXGXGXGXGX",
"GX{ < L mXbX).). X X/.oXBXA.- ` GXGXu _ ^ ^ ' u % I.{.)._.{.~.G 2 _ ..=XO._ i y ^ *X:X:XX.u $.P.F.F.tXCXCXzXlXaXzXsX@.GXGXGXGXGX",
"GX+.a #.!.gX!.U.Z.R.A.~.vXB.6 GXGXGXu GX/ _ _ u 5 k.U.U.D.R.V.M t ) ' X. .) e 0  .o.O.o. .u %.7.7.7.L.9XqXrXrXtXyX9X@.GXGXGXGXGX",
"GXGXGX+.% + @ + & . . . & z GXGXGXGXGXGXy q q 3 < l % & .   & o 9 0 = _ ) 0 0 9 y = = = u 9 9 p 6 6 8 4 5 $ $ 5 $ 4 GXGXGXGXGXGX",
"GXGXGXGXGX4 s , - , 4 - - GXGXGXGXGXGXGXGXGXGXGX; > - 6 o @ 4 > a a 0 0 ) e e t t GXGXGXGXGXGXGXGXGXGXGXGXGXGXGXGXGXGXGXGXGXGXGX",
"GXGXGXGXGXGXGXGXGXGXGXGXGXGXGXGXGXGXGXGXGXGXGXGXGXGXGXGXGXGXGXGXGXGXGXGXGXGXGXGXGXGXGXGXGXGXGXGXGXGXGXGXGXGXGXGXGXGXGXGXGXGXGXGX",
"GXGXGXGXGXGXGXGXGXGXGXGXGXGXGXGXGXGXGXGXGXGXGXGXGXGXGXGXGXGXGXGXGXGXGXGXGXGXGXGXGXGXGXGXGXGXGXGXGXGXGXGXGXGXGXGXGXGXGXGXGXGXGXGX",
"GXGXGXGXGXGXGXGXGXGXGXGXGXGXGXGXGXGXGXGXGXGXGXGXGXGXGXGXGXGXGXGXGXGXGXGXGXGXGXGXGXGXGXGXGXGXGXGXGXGXGXGXGXGXGXGXGXGXGXGXGXGXGXGX"
};
