/* XPM */
static char *xpm_[] = {
/* columns rows colors chars-per-pixel */
"64 64 251 2 ",
"   c #2D2808",
".  c #372B09",
"X  c #2C2B1C",
"o  c #2C2815",
"O  c #332C1B",
"+  c #352B17",
"@  c #3B3313",
"#  c #39331C",
"$  c #363111",
"%  c #1E3339",
"&  c #1E2E2B",
"*  c #2C2C25",
"=  c #252C2C",
"-  c #2C2C2B",
";  c #2A2725",
":  c #332C24",
">  c #332C2B",
",  c #392929",
"<  c #2E3125",
"1  c #2C322C",
"2  c #24322A",
"3  c #333224",
"4  c #3B3424",
"5  c #33322B",
"6  c #39322C",
"7  c #3A3A28",
"8  c #2C2D33",
"9  c #282D38",
"0  c #332C32",
"q  c #362A38",
"w  c #2C3334",
"e  c #25353D",
"r  c #293438",
"t  c #323233",
"y  c #3C3A34",
"u  c #32323A",
"i  c #3A3737",
"p  c #483A08",
"a  c #42351B",
"s  c #443718",
"d  c #402E11",
"f  c #4D1E28",
"g  c #6A1C29",
"h  c #74192A",
"j  c #771C33",
"k  c #6A1C33",
"l  c #413C2B",
"z  c #443927",
"x  c #463B36",
"c  c #4D282F",
"v  c #6F2D2F",
"b  c #6E2C1E",
"n  c #3D433A",
"m  c #494418",
"M  c #584919",
"N  c #595012",
"B  c #63540A",
"V  c #614D16",
"C  c #64531C",
"Z  c #675517",
"A  c #6A5612",
"S  c #76651D",
"D  c #4B432B",
"F  c #494325",
"G  c #56492A",
"H  c #5A5328",
"J  c #494735",
"K  c #544B39",
"L  c #57553B",
"P  c #635423",
"I  c #645829",
"U  c #655936",
"Y  c #704F2D",
"T  c #6A6227",
"R  c #766429",
"E  c #776939",
"W  c #60603C",
"Q  c #5D642E",
"!  c #1F314E",
"~  c #272E47",
"^  c #24334C",
"/  c #2A3344",
"(  c #373B45",
")  c #273759",
"_  c #262C55",
"`  c #263C61",
"'  c #463E49",
"]  c #4E344E",
"[  c #703348",
"{  c #7A3562",
"}  c #3A4347",
"|  c #2B424E",
" . c #2A4B75",
".. c #314C75",
"X. c #3A557E",
"o. c #334A68",
"O. c #474746",
"+. c #585648",
"@. c #524E58",
"#. c #585A55",
"$. c #4F4D4E",
"%. c #655B44",
"&. c #625E57",
"*. c #72544C",
"=. c #4F6656",
"-. c #676449",
";. c #746946",
":. c #676756",
">. c #756B59",
",. c #787556",
"<. c #6E7355",
"1. c #475568",
"2. c #4D536F",
"3. c #5E6468",
"4. c #666667",
"5. c #7A7866",
"6. c #6B6B73",
"7. c #777578",
"8. c #6B726E",
"9. c #831A37",
"0. c #8B2738",
"q. c #952839",
"w. c #913536",
"e. c #A32A3D",
"r. c #83542D",
"t. c #897739",
"y. c #967837",
"u. c #846D2C",
"i. c #942A49",
"p. c #8A3346",
"a. c #A62C45",
"s. c #8F5058",
"d. c #867945",
"f. c #877A57",
"g. c #8E6F50",
"h. c #817967",
"j. c #8B7F78",
"k. c #AB5B59",
"l. c #7F8B7F",
"z. c #96863C",
"x. c #888437",
"c. c #AD963A",
"v. c #B1A03A",
"b. c #968649",
"n. c #8D8756",
"m. c #968959",
"M. c #9C9356",
"N. c #8A8A4A",
"B. c #A88D46",
"V. c #A8944A",
"C. c #B59A46",
"Z. c #A69256",
"A. c #AE9A5A",
"S. c #BCA95B",
"D. c #BAA656",
"F. c #B5A84E",
"G. c #8A8566",
"H. c #938C63",
"J. c #958968",
"K. c #9E9267",
"L. c #8A8776",
"P. c #938B77",
"I. c #9B9876",
"U. c #899278",
"Y. c #A89A68",
"T. c #A69D77",
"R. c #B19A62",
"E. c #BAA869",
"W. c #AAA479",
"Q. c #B6A876",
"!. c #B7AF6D",
"~. c #D5B84D",
"^. c #C3AC59",
"/. c #CBB459",
"(. c #D7BA57",
"). c #CDAF51",
"_. c #C4AD68",
"`. c #C8B768",
"'. c #D4BB65",
"]. c #D5BC6B",
"[. c #D6B967",
"{. c #C8B977",
"}. c #D5BB77",
"|. c #C9AD70",
" X c #ECB66F",
".X c #DDAA62",
"XX c #DAC25A",
"oX c #E1C25D",
"OX c #DAC469",
"+X c #D7C67B",
"@X c #C8C179",
"#X c #E3C876",
"$X c #F9DC7A",
"%X c #EDD16C",
"&X c #FCE27E",
"*X c #39598A",
"=X c #365B9B",
"-X c #2E5F94",
";X c #3259A5",
":X c #396AA9",
">X c #346AB0",
",X c #3A659C",
"<X c #475585",
"1X c #4F6E8F",
"2X c #777786",
"3X c #5677A4",
"4X c #827F86",
"5X c #7F8188",
"6X c #7987A2",
"7X c #878585",
"8X c #979686",
"9X c #8E8F8D",
"0X c #A39D81",
"qX c #9FA285",
"wX c #A3A384",
"eX c #AAAA88",
"rX c #BAB789",
"tX c #AAA994",
"yX c #B5B49A",
"uX c #B9B897",
"iX c #B5AE8F",
"pX c #BBB8A8",
"aX c #B8BBB4",
"sX c #ADB5AA",
"dX c #969BA3",
"fX c #C9BC86",
"gX c #C4BB99",
"hX c #D0BD83",
"jX c #C3B9A5",
"kX c #D1BBA4",
"lX c #E6B48F",
"zX c #BDC2A1",
"xX c #BEC39A",
"cX c #D8C78C",
"vX c #C5C399",
"bX c #DBCD98",
"nX c #E9D785",
"mX c #FCDD8A",
"MX c #F5DC87",
"NX c #F3DA99",
"BX c #F9E389",
"VX c #FBE293",
"CX c #F6E696",
"ZX c #EBE593",
"AX c #C3C3A5",
"SX c #CECEB3",
"DX c #FAE5A5",
"FX c #EEE8B0",
"GX c #EFD1B5",
"HX c #EBE4C7",
"JX c None",
/* pixels */
"JXJXJXJXJXJXJXJXJXJXJXJXJXJXJXJXJXJXJXJXJXJXJXJXJXJXJXJXJXJXJXJXJXJXJXJXJXJXJXJXJXJXJXJXJXJXJXJXJXJXJXJXJXJXJXJXJXJXJXJXJXJXJXJX",
"JXJXJXJXJXJXJXJXJXJXJXJXJXJXJXJXJXJXJXJXJXJXJXJXJXJXJXJXJXJXJXJXJXJXJXJXJXJXJXJXJXJXJXJXJXJXJXJXJXJXJXJXJXJXJXJXJXJXJXJXJXJXJXJX",
"JXJXJXJXJXJXJXJXJXJXJXJXJXJXJXJXJXJXJXJXJXJXJXJXJXJXJXJXJXJXJXJXJXJXJXJXJXJXJXJXJXJXJXJXJXJXJXJXJXJXJXJXJXJXJXJXJXJXJXJXJXJXJXJX",
"JXJXJXJXJXJXJXJXJXJXJXJXJXJXJXJXJXJXJXJXJXJXJXJXJXJXJXJXJXJXJXJXJXJXJXJXJXJXJXJXJXJXJXJXJXJXJXJXJXJXJXJXJXJXJXJXJXJXJXJXJXJXJXJX",
"JXJXJXJXJXJXJXJXJXJXJXJXJXJXJXJXJXJXJXJXJXJXJXJXJXJXJXJXJXJXJXJXJXJXJXJXJXJXJXJXJXJXJXJXJXJXJXJXJXJXJXJXJXJXJXJXJXJXJXJXJXJXJXJX",
"JXJXJXJXJXJXJXJXJXJXJXJXJXJXJXJXJXJXJXJXJXJXJXJXJXJXJXJXJXJXJXJXJXJXJXJXJXJXJXJXJXJXJXJXJXJXJXJXJXJXJXJXJXJXJXJXJXJXJXJXJXJXJXJX",
"JXJXJXJXJXJXJXJXJXJXJXJXJXJXJXJXJXJXJXJXJXJXJXJXJXJXJXJXJXJXJXJXJX0 0 JXJXJXJXJXJXJXJXJXJXJXJXJXJXJXJXJXJXJXJXJXJXJXJXJXJXJXJXJX",
"JXJXJXJXJXJXJXJXJXJXJXJXJXJXJXJXJXJXJXJXJXJXJXJXJXJXJXJXJXJXJXO.c , , x JXJXJXJXJXJXJXJXJXJXJXJXJXJXJXJXJXJXJXJXJXJXJXJXJXJXJXJX",
"JXJXJXJXJXJXJXJXJXJXJXJXJXJXJXJXJXJXJXJXJXJXJXJXJXJXJXJX9 ( 9 ] c [ [ k 0 w JXJXJXJXJXJXJXJXJXJXJXJXJXJXJXJXJXJXJXJXJXJXJXJXJXJX",
"JXJXJXJXJXJXJXJXJXJXJXJXJXJXJXJXJXJXJXJXJXJXJXJXJXJXJXe 9 9 q c k j i.[ c , 0 JXJXJXJXJXJXJXJXJXJXJXJXJXJXJXJXJXJXJXJXJXJXJXJXJX",
"JXJXJXJXJXJXJXJXJXJXJXJXJXJXJXJXJXJXJXJXJXJXJXJXJXJX- X - > , c g 9.i.0.f , q x JXJXJXJXJXJXJXJXJXJXJXJXJXJXJXJXJXJXJXJXJXJXJXJX",
"JXJXJXJXJXJXJXJXJXJXJXJXJXJXJXJXJXJXJXJXJXJXJXJXi y =.<.L.j.v g 0.q.a.0.v *.j.4.i JXJXJXJXJXJXJXJXJXJXJXJXJXJXJXJXJXJXJXJXJXJXJX",
"JXJXJXJXJXJXJXJXJXJXJXJXJXJXJXJXJXJXJXJXJXJXJX0 > * <.U.pXjX[ h 0.q.e.q.w.g.kXL.X 2 JXJXJXJXJXJXJXJXJXJXJXJXJXJXJXJXJXJXJXJXJXJX",
"JXJXJXJXJXJXJXJXJXJXJXJXJXJXJXJXJXJXJXJXJXJXJXu 9 9 l.5XaXaXv h q.i.e.q.q.k.jX7X& % e JXJXJXJXJXJXJXJXJXJXJXJXJXJXJXJXJXJXJXJXJX",
"JXJXJXJXJXJXJXJXJXJXJXJXJXJXJXJXJXJXJXJXJXJX/ ^ ) o.,X1X4X4X[ j q.q.0.q.i.s.dX1X .o. .JXJXJXJXJXJXJXJXJXJXJXJXJXJXJXJXJXJXJXJXJX",
"JXJXJXJXJXJXJXJXJXJXJXJXJXJXJXJXJXJXJXJXJXJX~ !  .=X:X-X<X2.] k w.q.h 9.i.{ <X=X:X:X1X .JXJXJXJXJXJXJXJXJXJXJXJXJXJXJXJXJXJXJXJX",
"JXJXJXJXJXJXJXJXJXJXJXJXJXJXJXJXJXJXJXJXJX1 9 )  .-X;X;X-X2.] j q.q.j j p.[ *X:X>X:X,X .JXJXJXJXJXJXJXJXJXJXJXJXJXJXJXJXJXJXJXJX",
"JXJXJXJXJXJXJXJXJXJXJXJXJXJXJXJXJXJXJXJXJX5 ( o.*X3X3X1X1X6.v j i.q.h v p.{ 2X1X3X3X3XX.JXJXJXJXJXJXJXJXJXJXJXJXJXJXJXJXJXJXJXJX",
"JXJXJXJXJXJXJXJXJXJXJXJXJXJXJXJXJXJXJXJX& ; &.7XdXzXaXzXiXQ.w.h h j j 0.q.k.GXGXjXaXaX6.JXJXJXJXJXJXJXJXJXJXJXJXJXJXJXJXJXJXJXJX",
"JXJXJXJXJXJXJXJXJXJXJXJXJXJXJXJXJXJXJXJXr w :.L.eXAXyXvX}._.b b h h g h w.k.NXnXfXjXAX8.JXJXJXJXJXJXJXJXJXJXJXJXJXJXJXJXJXJXJXJX",
"JXJXJXJXJXJXJXJXJXJXJXJXJXJXJXJXJXJXJXt 2 1 -.n.W.xXsXyX|.^.r.b g g c b w.k.$X#XfXyXzX1XJXJXJXJXJXJXJXJXJXJXJXJXJXJXJXJXJXJXJXJX",
"JXJXJXJXJXJXJXJXJXJXJXJXJXJXJXJXJXJXJX5.L.7.<.I I -.3.3.E..X XlXY Y G u..X XmX^.Q =.l...JXJXJXJXJXJXJXJXJXJXJXJXJXJXJXJXJXJXJXJX",
"JXJXJXJXJXJXJXJXJXJXJXJXJXJXJXJXJXJX%.P.P.J.;.H H K 2.1.W.'.MXnXR Y C u..X XBXS.H =.-X .JXJXJXJXJXJXJXJXJXJXJXJXJXJXJXJXJXJXJXJX",
"JXJXJXJXJXJXJXJXJXJXJXJXJXJXJXJXJXJX+.7XL.P.;.P H +.1.1.W.OXMXnXA V V S (. XBX!.F =.1Xo.^ JXJXJXJXJXJXJXJXJXJXJXJXJXJXJXJXJXJXJX",
"JXJXJXJXJXJXJXJXJXJXJXJXJXJXJXJXJXJX( 1.2.] +.H Z.!.5.+.E d.t.z.V.C.|._.y.y.y.Z.{.J.#.1.o.JXJXJXJXJXJXJXJXJXJXJXJXJXJXJXJXJXJXJX",
"JXJXJXJXJXJXJXJXJXJXJXJXJXJXJXJXJXJXe ^ _ ~ O.H S.ZXN.H C M C A ^.#XmX}.V V B g.DXR.K @.1.JXJXJXJXJXJXJXJXJXJXJXJXJXJXJXJXJXJXJX",
"JXJXJXJXJXJXJXJXJXJXJXJXJXJXJXJXJXJX/ ! ) / n N F.BXu.N C M H S F.XX$X#XZ H B z.CXR.L $.1.JXJXJXJXJXJXJXJXJXJXJXJXJXJXJXJXJXJXJX",
"JXJXJXJXJXJXJXJXJXJXJXJXJXJXJXJXJXJX| 1.2.1.+.C v.%Xv.y.z.b.N Z ).XX&XOXC T t.F.CXA.H <.6X@.JXJXJXJXJXJXJXJXJXJXJXJXJXJXJXJXJXJX",
"JXJXJXJXJXJXJXJXJXJXJXJXJXJXJXJXJXt $.9XP.7X>.V v.XX~.(.'.`.R S F.XXBXOXZ u.OX+XBXF.M L.aX4.JXJXJXJXJXJXJXJXJXJXJXJXJXJXJXJXJXJX",
"JXJXJXJXJXJXJXJXJXJXJXJXJXJXJXJXJXt +.L.J.J.d.V V.XX~.~.(.`.R Z F.OXMX XZ t.}.OXBX^.H I.AX:.JXJXJXJXJXJXJXJXJXJXJXJXJXJXJXJXJXJX",
"JXJXJXJXJXJXJXJXJXJXJXJXJXJXJXJXJX> K ,.G.f.E R b.F.~.(.R.K.I P A._.}.E.I U K.!.+Xg.z h.eX%.JXJXJXJXJXJXJXJXJXJXJXJXJXJXJXJXJXJX",
"JXJXJXJXJXJXJXJXJXJXJXJXJXJXJXJXJX* 6 O z H M.{.E A v./.P @ + a H A Z M 4 # . m V M s x L z JXJXJXJXJXJXJXJXJXJXJXJXJXJXJXJXJXJX",
"JXJXJXJXJXJXJXJXJXJXJXJXJXJXJXJXJX: : , D H z.'.d.B v./.H O : 4 G I H D 7 - o F H m # D L F < JXJXJXJXJXJXJXJXJXJXJXJXJXJXJXJXJX",
"JXJXJXJXJXJXJXJXJXJXJXJXJXJXJXJXJXz z s D I B.[.x.A v./.G 5 > 3 I P T H : i 5 7 H m F J K 7 - JXJXJXJXJXJXJXJXJXJXJXJXJXJXJXJXJX",
"JXJXJXJXJXJXJXJXJXJXJXJXJXJXJXJXU R.|.|.b.N y. Xt.B v.!.K 5 6 s D./.nX|.z ; , x P M.bXf.4 > 0 JXJXJXJXJXJXJXJXJXJXJXJXJXJXJXJXJX",
"JXJXJXJXJXJXJXJXJXJXJXJXJXJXJXJXT ]./.).z.B B.[.t.B v.`.G X + m ^.~.&X`.d c , z M M.DXf.+ c , JXJXJXJXJXJXJXJXJXJXJXJXJXJXJXJXJX",
"JXJXJXJXJXJXJXJXJXJXJXJXJXJXJXJXZ ].[.`.V.B z.}.t.Z C./.P @ . p ).oX&X`.p d d p P Z.CXz.. . 4 J JXJXJXJXJXJXJXJXJXJXJXJXJXJXJXJX",
"JXJXJXJXJXJXJXJXJXJXJXJXJXJXJXJXR _.B.B x.@XB.u.I Z C.].Z.Z.Z.Z.).oX$X#XB.Z.Z.g.M Z.BX+X_.Q.rX%.JXJXJXJXJXJXJXJXJXJXJXJXJXJXJXJX",
"JXJXJXJXJXJXJXJXJXJXJXJXJXJXJXJXH `.b.. x.ZXB.V P V C.'./.'.[.[.).oX$XMX].OX].V.Z Z.nXBXBXVXDX;.> JXJXJXJXJXJXJXJXJXJXJXJXJXJXJX",
"JXJXJXJXJXJXJXJXJXJXJXJXJXJXJXJXW vXn.  N.FXY.H I C A.[.'.'.[.[.[.].VXNX{.`.}.Z.C Z.DXCXBXCXZXT : JXJXJXJXJXJXJXJXJXJXJXJXJXJXJX",
"JXJXJXJXJXJXJXJXJXJXJXJXJXJXJX> J >.>.%.,.H.-.x D F n.Y.Y.Q.Y.Y.d.d.m.J.0XT.W.f.z U J.J.b.{.cXT : JXJXJXJXJXJXJXJXJXJXJXJXJXJXJX",
"JXJXJXJXJXJXJXJXJXJXJXJXJXJXJX6 , , $.P.+.o : : X 3 4.j.h.h.5.h.a + o D 5.h.L.:.. O , : . f.@XT O JXJXJXJXJXJXJXJXJXJXJXJXJXJXJX",
"JXJXJXJXJXJXJXJXJXJXJXJXJXJXJX+ 4 O +.P.-.X > * < X 4.7X4X7X7X7.i t = O.7XL.4X&.4 # , q d f.fXI : @.JXJXJXJXJXJXJXJXJXJXJXJXJXJX",
"JXJXJXJXJXJXJXJXJXJXJXJXJXJXJ +.G D *.I.<.J +.O.K +.4.6.2X2X2X3.u u - y :.6.4X4.: l $.x O >.K.H 5 @.JXJXJXJXJXJXJXJXJXJXJXJXJXJX",
"JXJXJXJXJXJXJXJX* t 0 ; - X U rXrXH.U.qXqXqXyXzXzXuX#.- 6.7X( r 8 8 2 2 1 $.7X3.* 5.zX8.- 6 4 : 0 @.JXJXJXJXJXJXJXJXJXJXJXJXJXJX",
"JXJXJXJXJXJX< 3 * > - 6 l $ N !.Y.M.Y.W.eXW.eXzXiXAX&.* 7.7.t - w 1 y 1 ; O.2X3.= :.zX<.5 > * 5 0 @.JXJXJXJXJXJXJXJXJXJXJXJXJXJX",
"JXJXJXJXJXn y 7 l l l 6 a s T @X!.M.K.I.wXwXrXrXuXuX+.- 4.j.O.1 - - - * < O.7.4.- :.zX,.; 4 D # 5 @.JXJXJXJXJXJXJXJXJXJXJXJXJXJX",
"JXJXJXJXu L.pXiXiXyXyXT.T.Q.`.MXnXCXfXH.P.G.I.qXW.T.+.t 7.7.i - - i > * 3 1 u u - :.qX-.: h.Q.I X u i JXJXJXJXJXJXJXJXJXJXJXJXJX",
"JXJXJXJX8 8XjXgXgXgXyXwXQ.!.OX&X&XmXhXJ.L.L.qXI.W.qXO.1 6.7.i 1 w 5 > > 5 - 8 w w &.wX-.O G.cXC O t > JXJXJXJXJXJXJXJXJXJXJXJXJX",
"JXJXJXJX5 P.jXgXuXpXzXW.Y.`.OX&X&XBXhXJ.U.L.U.qXqXqX+.1 6.7Xi 5 O o 4 3 : 5 w 1 * :.tX:.+ G.!.P # > 5 JXJXJXJXJXJXJXJXJXJXJXJXJX",
"JXJXJXJX- $.+.L L L +.F E cXMXBX$XVX_.z -.P.:.J J J n r ( O.5 4 M.A.!.Y.7 * 2 w * 7 K 6 : x I Y.iX+.: 0 JXJXJXJXJXJXJXJXJXJXJXJX",
"JXJXJXJX6 ; o X < O X   M NXVXMXMXVXY.  +.8X%.o X X ; i ; ; 7 m D.OXVXhXa * w w > 4 4 : 3 + @ eXHX+.O 5 JXJXJXJXJXJXJXJXJXJXJXJX",
"JXJXJXJX+ o # O o o . $ I NXDXCXCXCXW.@ +.L.+.X 3 3 ; : + , O m S.oXBX}.@ < 1 2 > > > , #   $ Q.FXL + < - JXJXJXJXJXJXJXJXJXJXJX",
"JXJXJX*.f.m.m.H.I.M.m.,.d.f.b.b.N.n.W + J &.:.:.y 4 f.G.f.g.# m F.oXmX}.$ < 1 r 8 i q > # L ,.!.rX;.%.5.7.JXJXJXJXJXJXJXJXJXJXJX",
"JXJXJXm.+XMXCXCXZXZXCX+XA.p   . + O ; - t ; #.9X+.@ |.DX+X!.M m /.[.mX{.s 5 8 = 8 ; 0 q 4 G.vXZ.n.H.I.uXyXJ JXJXJXJXJXJXJXJXJXJX",
"JXJXJXm.[.%X$X&X&X&X%X'.E.@ O 1 = w q u w = 4.7XK d _.MXOXF.F m _.hXDXfX4 * = e 9 ( 9 > : n.fXY.n.H.G.uXtXy > : JXJXJXJXJXJXJXJX",
"JXJXJXm. X%X$X%X%X$X%X#XE.s < t t = / / ~ e @.8.%.R ).%XXXS.G 3 G.8XsX9Xn 2 % e | o.) e < G.eXK.H.K.I.rXiX<.L -.#.JXJXJXJXJXJXJX",
"JXJXJXQ.BXoX~.~.(.~.(.MXcX4 JXJXn w / ^ ^ ^ e 1 J./.XX~.XX_.z t - / 2.2.% & 2 | *X*XX.o.= -.H.H.U.yXxXxXxXuXzXAX8Xy JXJXJXJXJXJX",
"JXJXJXE.VXXX).(.~.~.(.BXcX# JXJXJXr ~ ! ) ) 9 X f.+XXX).(.`.l u ^ ` *X2.% 2 & | *X=X=Xo.9 :.J.G.L.yXzXuXuXrXvXzXtX: JXJXJXJXJXJX",
"JXJXJXY.bX`.S.^./.D.`.cXiXD JXJXJXu ~ _ ! ^ 9 < f.E.S.S.!.Y.K 8 ~ ` ....n 1 2 | X.*XX.) 9 &.L.5.L.0XtXyXyXeXeXtX9Xy JXJXJXJXJXJX",
"JXJXJXJX4 s s s @ s s @ z x JXJXJXu 9 e / r - O a s s a a 4 : = r r e e % t > 9 e % / / q q l 4 > y y 7 7 # 7 7 6 = JXJXJXJXJXJX",
"JXJXJXJXJXt 0 6 6 > : 5 y JXJXJXJX8 9 9 w 1 * > : : 6 > 6 - 6 5 5 5 2 - w q q > 1 = w u q q , 5 w - * * JXJXJXJXJXJXJXJXJXJXJXJX",
"JXJXJXJXJXJXJXJXJXJXu - w JXJXJXJXu u t 8 8 0 , q ( w = = w - 6 1 5 r 9 q ~ q 0 = - t 8 9 8 t = w JXJXJXJXJXJXJXJXJXJXJXJXJXJXJX",
"JXJXJXJXJXJXJXJXJXJXJXJXJXJXJXJXJXJXJXJX@.@.@.' ' ( } } } } ' ' n n ( ' ' ' ' ( J O.} } } ( JXJXJXJXJXJXJXJXJXJXJXJXJXJXJXJXJXJX"
};
