/* XPM */
static char *xpm_[] = {
/* columns rows colors chars-per-pixel */
"64 64 245 2 ",
"   c #362907",
".  c #2D2D1D",
"X  c #2B2917",
"o  c #332B1D",
"O  c #3A2C1A",
"+  c #352915",
"@  c #2C331B",
"#  c #33311B",
"$  c #3B3517",
"%  c #352F0B",
"&  c #1D2F34",
"*  c #2D2C24",
"=  c #2C2C2C",
"-  c #282A26",
";  c #332C23",
":  c #332D2B",
">  c #372928",
",  c #2C3323",
"<  c #2C322C",
"1  c #27342B",
"2  c #333224",
"3  c #33322B",
"4  c #3B342D",
"5  c #393726",
"6  c #2C2C33",
"7  c #272D38",
"8  c #332C34",
"9  c #352B37",
"0  c #2D3234",
"q  c #2C343B",
"w  c #26363A",
"e  c #333233",
"r  c #3A3434",
"t  c #3C3A34",
"y  c #34343C",
"u  c #3B343C",
"i  c #393A3C",
"p  c #222314",
"a  c #453818",
"s  c #473707",
"d  c #6B1A29",
"f  c #771B29",
"g  c #771A35",
"h  c #443C2A",
"j  c #453925",
"k  c #442834",
"l  c #433B39",
"z  c #54302E",
"x  c #6F2C32",
"c  c #69201F",
"v  c #3E411B",
"b  c #3B4535",
"n  c #5A4A0A",
"m  c #4A451A",
"M  c #584A19",
"N  c #59521B",
"B  c #5B510C",
"V  c #644C16",
"C  c #655417",
"Z  c #68540B",
"A  c #79611C",
"S  c #6C621C",
"D  c #4B4326",
"F  c #484629",
"G  c #574C29",
"H  c #5B5528",
"J  c #494434",
"K  c #574C35",
"L  c #575537",
"P  c #4C5137",
"I  c #664B26",
"U  c #64532A",
"Y  c #665827",
"T  c #675A34",
"R  c #764F25",
"E  c #796A2D",
"W  c #6D6735",
"Q  c #74693A",
"!  c #7D733A",
"~  c #6A6224",
"^  c #1D324F",
"/  c #292E42",
"(  c #273547",
")  c #393945",
"_  c #263658",
"`  c #313B56",
"'  c #273260",
"]  c #711C47",
"[  c #433B43",
"{  c #5A2D56",
"}  c #6B3143",
"|  c #3A454C",
" . c #374357",
".. c #264057",
"X. c #354A68",
"o. c #324D73",
"O. c #494A45",
"+. c #585747",
"@. c #554F57",
"#. c #4E5257",
"$. c #575756",
"%. c #4C4C4D",
"&. c #655D46",
"*. c #764B4C",
"=. c #5C6458",
"-. c #6A664B",
";. c #736948",
":. c #636354",
">. c #6B6A53",
",. c #696859",
"<. c #797557",
"1. c #74704D",
"2. c #545C66",
"3. c #465778",
"4. c #475166",
"5. c #6C4A62",
"6. c #5B6466",
"7. c #5C6B79",
"8. c #686967",
"9. c #797868",
"0. c #797A76",
"q. c #6C7270",
"w. c #821A2E",
"e. c #872636",
"r. c #972A3A",
"t. c #8A2F34",
"y. c #846C1B",
"u. c #8E4929",
"i. c #836C2A",
"p. c #887529",
"a. c #907634",
"s. c #8B2844",
"d. c #8F2D45",
"f. c #897B48",
"g. c #947D47",
"h. c #847959",
"j. c #847D6A",
"k. c #847B74",
"l. c #B2746C",
"z. c #8E545D",
"x. c #7C847A",
"c. c #98833A",
"v. c #A58B39",
"b. c #A99034",
"n. c #9B8A48",
"m. c #968B59",
"M. c #988F50",
"N. c #A9934C",
"B. c #A69656",
"V. c #AD9653",
"C. c #BAA45C",
"Z. c #B6A854",
"A. c #8A856A",
"S. c #988A69",
"D. c #9D9768",
"F. c #8E8B7C",
"G. c #888676",
"H. c #9A9878",
"J. c #908E75",
"K. c #A99769",
"L. c #A89B78",
"P. c #A08D65",
"I. c #BAA969",
"U. c #A8A37B",
"Y. c #B8A876",
"T. c #B9B17B",
"R. c #ADA56C",
"E. c #9CA06D",
"W. c #CF935D",
"Q. c #C3AC55",
"!. c #C9B459",
"~. c #D8B958",
"^. c #CFB04A",
"/. c #E1B757",
"(. c #C4AA67",
"). c #C9B668",
"_. c #D6BA68",
"`. c #C8B976",
"'. c #D3BD72",
"]. c #D3BA77",
"[. c #C9AF72",
"{. c #EEBB6C",
"}. c #D9C35B",
"|. c #DAC04F",
" X c #E2C05C",
".X c #DCC369",
"XX c #D7C378",
"oX c #D2C972",
"OX c #E3C567",
"+X c #E5CA76",
"@X c #E7D57B",
"#X c #F9DB7A",
"$X c #EED36D",
"%X c #FDE37A",
"&X c #385D89",
"*X c #365C95",
"=X c #2E5A8D",
"-X c #386292",
";X c #3A68AC",
":X c #305DA0",
">X c #566F8B",
",X c #6A7988",
"<X c #435F9B",
"1X c #887D85",
"2X c #759195",
"3X c #858587",
"4X c #9B9886",
"5X c #8D8C92",
"6X c #A39D87",
"7X c #9AA382",
"8X c #A7A388",
"9X c #B5AB88",
"0X c #B8B48A",
"qX c #B7AC91",
"wX c #BEBE9C",
"eX c #B7B497",
"rX c #ACB194",
"tX c #B5B9A3",
"yX c #ACB8B1",
"uX c #97A1A3",
"iX c #C7B884",
"pX c #C2BD99",
"aX c #C3AD86",
"sX c #C1B9A3",
"dX c #CEBBB3",
"fX c #EBBA82",
"gX c #B4C1AB",
"hX c #D9C687",
"jX c #C5C29C",
"kX c #D7CF8A",
"lX c #EBD585",
"zX c #F8DB84",
"xX c #E7D996",
"cX c #F8DD95",
"vX c #E9CA84",
"bX c #FDE38A",
"nX c #F7E586",
"mX c #F9E394",
"MX c #F7E89B",
"NX c #C7C3A6",
"BX c #D5D6A9",
"VX c #E3DAA9",
"CX c #F1E4AF",
"ZX c #EFDBC0",
"AX c None",
/* pixels */
"AXAXAXAXAXAXAXAXAXAXAXAXAXAXAXAXAXAXAXAXAXAXAXAXAXAXAXAXAXAXAXAXAXAXAXAXAXAXAXAXAXAXAXAXAXAXAXAXAXAXAXAXAXAXAXAXAXAXAXAXAXAXAXAX",
"AXAXAXAXAXAXAXAXAXAXAXAXAXAXAXAXAXAXAXAXAXAXAXAXAXAXAXAXAXAXAXAXAXAXAXAXAXAXAXAXAXAXAXAXAXAXAXAXAXAXAXAXAXAXAXAXAXAXAXAXAXAXAXAX",
"AXAXAXAXAXAXAXAXAXAXAXAXAXAXAXAXAXAXAXAXAXAXAXAXAXAXAXAXAXAXAXAXAXAXAXAXAXAXAXAXAXAXAXAXAXAXAXAXAXAXAXAXAXAXAXAXAXAXAXAXAXAXAXAX",
"AXAXAXAXAXAXAXAXAXAXAXAXAXAXAXAXAXAXAXAXAXAXAXAXAXAXAXAXAXAXAXAXAXAXAXAXAXAXAXAXAXAXAXAXAXAXAXAXAXAXAXAXAXAXAXAXAXAXAXAXAXAXAXAX",
"AXAXAXAXAXAXAXAXAXAXAXAXAXAXAXAXAXAXAXAXAXAXAXAXAXAXAXAXAXAXAXAXAXAXAXAXAXAXAXAXAXAXAXAXAXAXAXAXAXAXAXAXAXAXAXAXAXAXAXAXAXAXAXAX",
"AXAXAXAXAXAXAXAXAXAXAXAXAXAXAXAXAXAXAXAXAXAXAXAXAXAXAXAXAXAXAXAXAXAXAXAXAXAXAXAXAXAXAXAXAXAXAXAXAXAXAXAXAXAXAXAXAXAXAXAXAXAXAXAX",
"AXAXAXAXAXAXAXAXAXAXAXAXAXAXAXAXAXAXAXAXAXAXAXAXAXAXAXAXAXAXAXAXk k k l AXAXAXAXAXAXAXAXAXAXAXAXAXAXAXAXAXAXAXAXAXAXAXAXAXAXAXAX",
"AXAXAXAXAXAXAXAXAXAXAXAXAXAXAXAXAXAXAXAXAXAXAXAXAXAXAXAXAXq y r k z x z t AXAXAXAXAXAXAXAXAXAXAXAXAXAXAXAXAXAXAXAXAXAXAXAXAXAXAX",
"AXAXAXAXAXAXAXAXAXAXAXAXAXAXAXAXAXAXAXAXAXAXAXAXAXAXAXAXq & 9 k g g d.} > : 6 AXAXAXAXAXAXAXAXAXAXAXAXAXAXAXAXAXAXAXAXAXAXAXAXAX",
"AXAXAXAXAXAXAXAXAXAXAXAXAXAXAXAXAXAXAXAXAXAXAXAXAXAXAX> = = > k d e.d.x k > 8 u AXAXAXAXAXAXAXAXAXAXAXAXAXAXAXAXAXAXAXAXAXAXAXAX",
"AXAXAXAXAXAXAXAXAXAXAXAXAXAXAXAXAXAXAXAXAXAXAXAXAXr %.:.0.G.} x e.r.r.t.x z.k.$.r AXAXAXAXAXAXAXAXAXAXAXAXAXAXAXAXAXAXAXAXAXAXAX",
"AXAXAXAXAXAXAXAXAXAXAXAXAXAXAXAXAXAXAXAXAXAXAXAX6 : ,.F.rXsXR f r.r.r.d.t.l.dX,.- 6 AXAXAXAXAXAXAXAXAXAXAXAXAXAXAXAXAXAXAXAXAXAX",
"AXAXAXAXAXAXAXAXAXAXAXAXAXAXAXAXAXAXAXAXAXAXAXAX6 6 6.3XrXyXd.f r.r.r.r.r.l.dXq.7 7 AXAXAXAXAXAXAXAXAXAXAXAXAXAXAXAXAXAXAXAXAXAX",
"AXAXAXAXAXAXAXAXAXAXAXAXAXAXAXAXAXAXAXAXAXAXAX/ ` ` 3.,X2X4X} g d.d.w.r.r.z.5X>XX.X. .AXAXAXAXAXAXAXAXAXAXAXAXAXAXAXAXAXAXAXAXAX",
"AXAXAXAXAXAXAXAXAXAXAXAXAXAXAXAXAXAXAXAXAXAXAX^ o.*X:X-X=Xo.{ ] d.d.w.w.t.} <X:X;X;X&XAXAXAXAXAXAXAXAXAXAXAXAXAXAXAXAXAXAXAXAXAX",
"AXAXAXAXAXAXAXAXAXAXAXAXAXAXAXAXAXAXAXAXAXAX^ ^ o.<X=X-X&X3.{ ] d.d.w.w.d.5.&X<X;X;X<XAXAXAXAXAXAXAXAXAXAXAXAXAXAXAXAXAXAXAXAXAX",
"AXAXAXAXAXAXAXAXAXAXAXAXAXAXAXAXAXAXAXAXAXAXy %.o.>X,X>Xq.8.z ] s.s.g e.s.z.q.,X2X,X>X` AXAXAXAXAXAXAXAXAXAXAXAXAXAXAXAXAXAXAXAX",
"AXAXAXAXAXAXAXAXAXAXAXAXAXAXAXAXAXAXAXAXAX* %.1XuXgXyXyXtXaXt.f g g w.e.d.l.CXBXyXyXyX%.AXAXAXAXAXAXAXAXAXAXAXAXAXAXAXAXAXAXAXAX",
"AXAXAXAXAXAXAXAXAXAXAXAXAXAXAXAXAXAXAXAXAX; J G.H.gXgXwXhX[.x f d d f g t.l.ZXBXtXyXtXO.AXAXAXAXAXAXAXAXAXAXAXAXAXAXAXAXAXAXAXAX",
"AXAXAXAXAXAXAXAXAXAXAXAXAXAXAXAXAXAXAXAX4 > +.S.E.0XtXrXT.!.u.V c d d c u.W.cXkXrXgXrXO.AXAXAXAXAXAXAXAXAXAXAXAXAXAXAXAXAXAXAXAX",
"AXAXAXAXAXAXAXAXAXAXAXAXAXAXAXAXAXAXAXx.G.k.;.U H L 6.6.K.].vXfXR R I u.W.OXzXV.L 7.7.| AXAXAXAXAXAXAXAXAXAXAXAXAXAXAXAXAXAXAXAX",
"AXAXAXAXAXAXAXAXAXAXAXAXAXAXAXAXAXAXAXG.F.F.j.U Y P 4.$.D.).zXlXy.C V a._.OXbXn.P 2.3._ AXAXAXAXAXAXAXAXAXAXAXAXAXAXAXAXAXAXAXAX",
"AXAXAXAXAXAXAXAXAXAXAXAXAXAXAXAXAXAXAXx.3X3X9.K G T +.$.U.'.lX#XA B C a.!.+XlXB.P 6.7...AXAXAXAXAXAXAXAXAXAXAXAXAXAXAXAXAXAXAXAX",
"AXAXAXAXAXAXAXAXAXAXAXAXAXAXAXAXAXAXAX| | | O.P m.iXG.K T E p.p.Z.(.XXV.p.E p.C.jX9.4.X.4.AXAXAXAXAXAXAXAXAXAXAXAXAXAXAXAXAXAXAX",
"AXAXAXAXAXAXAXAXAXAXAXAXAXAXAXAXAXAXAX^ _ ^ b L M.MXP.U I I C C Q./.bX).V C B I.CXh.%.2.3.AXAXAXAXAXAXAXAXAXAXAXAXAXAXAXAXAXAXAX",
"AXAXAXAXAXAXAXAXAXAXAXAXAXAXAXAXAXAX/ ( ^ ( w L N.mXN.B V Y M ~ Q.OX#X!.C N B C.cXg.K #.4.( AXAXAXAXAXAXAXAXAXAXAXAXAXAXAXAXAXAX",
"AXAXAXAXAXAXAXAXAXAXAXAXAXAXAXAXAXAXe 6.=.=.:.G c. XQ.b.v.n.~ ~ Z.}.%X).C ! n.'.cXa.T F.G.1 AXAXAXAXAXAXAXAXAXAXAXAXAXAXAXAXAXAX",
"AXAXAXAXAXAXAXAXAXAXAXAXAXAXAXAXAXAXt x.G.G.j.I p././.^.~.).E C Q.}.nX).B c.XX+XcXg.U 9XrXb AXAXAXAXAXAXAXAXAXAXAXAXAXAXAXAXAXAX",
"AXAXAXAXAXAXAXAXAXAXAXAXAXAXAXAXAXAXi x.3XJ.<.M c././.^._.).E Y Q..XcX].N g.'.@XcXg.I 9XqXl AXAXAXAXAXAXAXAXAXAXAXAXAXAXAXAXAXAX",
"AXAXAXAXAXAXAXAXAXAXAXAXAXAXAXAXAX0 0 $.,.9.h.a.c.b.^._.N.g.M C g.V.Q.n.M T g.V.I.W G A.S.h AXAXAXAXAXAXAXAXAXAXAXAXAXAXAXAXAXAX",
"AXAXAXAXAXAXAXAXAXAXAXAXAXAXAXAXAX= e = 5 G p.oXv.Z b.).U O X $ I I V m + ; a z H v # F G O AXAXAXAXAXAXAXAXAXAXAXAXAXAXAXAXAXAX",
"AXAXAXAXAXAXAXAXAXAXAXAXAXAXAXAXAX* 5   a I E ).v.n c.'.L ; 3 5 G G H M . : > h L % @ P L ; t AXAXAXAXAXAXAXAXAXAXAXAXAXAXAXAXAX",
"AXAXAXAXAXAXAXAXAXAXAXAXAXAXAXAXAXJ U n C Z A I.n.V v._.T # 1 5 W i.! L 5 ; : J L H H P J 9 i AXAXAXAXAXAXAXAXAXAXAXAXAXAXAXAXAX",
"AXAXAXAXAXAXAXAXAXAXAXAXAXAXAXAXh K.[.'.C.Z c.}.B.V v.).H $ < $ I.'.MXY.$ + ; D H 0XVXG > 8 u AXAXAXAXAXAXAXAXAXAXAXAXAXAXAXAXAX",
"AXAXAXAXAXAXAXAXAXAXAXAXAXAXAXAXAXK.oX!.C.Z A |.n.V v.].T   ; D (._.bX(.  a O j Y oXVXN a o r AXAXAXAXAXAXAXAXAXAXAXAXAXAXAXAXAX",
"AXAXAXAXAXAXAXAXAXAXAXAXAXAXAXAXa R.).!.Z.Z c.).n.V v.[.i.s a n Q.~.bX(.s s a M ~ I.xXS s a J AXAXAXAXAXAXAXAXAXAXAXAXAXAXAXAXAX",
"AXAXAXAXAXAXAXAXAXAXAXAXAXAXAXAXa P.[.s S xXR.S C B v..XQ.Q.Q.!.~. X%X@XQ.).Z.c.n ].nX@X@XxXqXh AXAXAXAXAXAXAXAXAXAXAXAXAXAXAXAX",
"AXAXAXAXAXAXAXAXAXAXAXAXAXAXAXAXa L.aXn N VX`.N N N c.!._.~.~.!.^._.nXlX_.).oXp.Z [.nXnX%XmX0Xk AXAXAXAXAXAXAXAXAXAXAXAXAXAXAXAX",
"AXAXAXAXAXAXAXAXAXAXAXAXAXAXAXAXh K.L.a N BXjXH G H B.`.].[.[.].].hXxXkXoXI.T.n.U iXmXnXnXxXiXa l AXAXAXAXAXAXAXAXAXAXAXAXAXAXAX",
"AXAXAXAXAXAXAXAXAXAXAXAXAXAXAXt > K T 1.1.T F $ $ j ;.S.P.P.P.h.G H T W M.D.A.+.$ K Y Z S T.I.a l AXAXAXAXAXAXAXAXAXAXAXAXAXAXAX",
"AXAXAXAXAXAXAXAXAXAXAXAXAXAXAXr > > t x.9.2 2 ; * > 5.1X1Xk.k.0.4 ; + J A.G.k.@.9 > O + a Y.K.O l AXAXAXAXAXAXAXAXAXAXAXAXAXAXAX",
"AXAXAXAXAXAXAXAXAXAXAXAXAXAXAX4 ; + , x.9.2 * : > ; $.5X1X1X3X0.r : * O.0.1X1X4.9 > > O D 9X8Xa [ AXAXAXAXAXAXAXAXAXAXAXAXAXAXAX",
"AXAXAXAXAXAXAXAXAXAXAXAXAXAXl -.f.Q -.H.H.<.<.A.A.G.=.#.q.0.$.J 3 3 : ) @.6.3X%.< 8.k.J + :.:.. l AXAXAXAXAXAXAXAXAXAXAXAXAXAXAX",
"AXAXAXAXAXAXAXAXAXe 6 8 : ; $ S.iXB.m.E.U.8XrXwXeXBX8.- 8.2Xt , < e 8 = = #.3X$., 4XtXP @ * * = ) AXAXAXAXAXAXAXAXAXAXAXAXAXAXAX",
"AXAXAXAXAXAXAX. . * * > . %   M.`.M.S.H.8X6XU.pXpXjX>., 8.2X) 0 8 8 : = 8 $.3X@.@ J.eXP , , . 8 O.AXAXAXAXAXAXAXAXAXAXAXAXAXAXAX",
"AXAXAXAXAXAX:.>.-.>.,.-.&.Q E C.XX).T.L.H.H.E.0X0XqX>.1 6.0.) 0 e 8 : e 9 O.2.J @ G.rXF . -.&.O r O.AXAXAXAXAXAXAXAXAXAXAXAXAXAX",
"AXAXAXAXAXl 8XNXjXpXpX9XR.T.).lXbXmXxXS.J.A.J.U.6X6X$.- q.1X[ : < < 2 3 - 6 y 9 < x.6XD m 9XL.a : 9 AXAXAXAXAXAXAXAXAXAXAXAXAXAX",
"AXAXAXAXAXt rXNXpXpXdXpXL.Y._.$XnXbXxXP.J.G.H.7X8X8X:.6 8.1X[ ; . # . . : 9 = 6 3 G.4XD a 0XK.s O 6 AXAXAXAXAXAXAXAXAXAXAXAXAXAX",
"AXAXAXAXAXt G.7XH.7X6X4Xj.Y._.$X#XbXvXm.<.F.G.G.3XG.$.6 2.q.l ; G N H G ; r 6 0 3 8.G.l h S.m.W F 2 J AXAXAXAXAXAXAXAXAXAXAXAXAX",
"AXAXAXAXAX- , v 5 1 . 2 O P.bX%X%XbXkXG j A.<.3 ; e e 0 < - r h I.].VXY.# * 6 0 2 ; : > ; O Y VX9X# * AXAXAXAXAXAXAXAXAXAXAXAXAX",
"AXAXAXAXAX3 * , , 2 3 # % B.MX%XlXcXxXm a J.<.* 3 e * X # 5 . G I._.mX[.+ 3 e = 3 ; > r : X H VX9X% ; : AXAXAXAXAXAXAXAXAXAXAXAX",
"AXAXAXAXh m j a j F D $ m M.kXxXxXxXpXF F 0.,.4 t , $ F % a 4 z (.OXzX(.O 8 7 6 * 3 : - , m ~ BXU.j 5 l AXAXAXAXAXAXAXAXAXAXAXAX",
"AXAXAX4 P.).vXcXlXvXxXhXI.! v v $ v J , & b O.G.:.p m.xXoXI.z j C.OXcX(.O 9 6 y , @ 3 , v E.U.D.A.A.H.tX8.AXAXAXAXAXAXAXAXAXAXAX",
"AXAXAXAXB.~.#X#XnX$XbX@X).! # # , 5 < 0 w b b G.:.s V.cX}.Q.H D I.'.MXY.O 9 9 6 < 1 1 X m T.T.m.S.J.6XpX&.o AXAXAXAXAXAXAXAXAXAX",
"AXAXAXAXB.}.%X%X%X%X%X+X'.Q + : 9 : - q w & | J.&.  N.cX}.Z.N v T.pXVXrX4 9 8 0 ( w w 1 m Y.aXP.A.S.H.gX<.@ # AXAXAXAXAXAXAXAXAX",
"AXAXAXAX).$X.X X|.|..X.XcXf.O AXAX) / / ( 7 1 b ;.K.(.{.|.Z.N , b +.q.6.8 9 9 | o.o.X.( z j.P.S.H.0XeXjX9X4X4X4XAXAXAXAXAXAXAXAX",
"AXAXAXAX].zX~.~.^.|.!.OXMXg.; AXAX) / _ ' ' ( , Q iX).~.^.).G = w ..o.X.( w w X.&X*X=X..i x.J.A.H.pXwXwXwXjXsXtXAXAXAXAXAXAXAXAX",
"AXAXAXAXiXcX]._.~.~.).lXCXg.> AXAXAX7 ( ' ^ 7 , ;.`._.{.oXI.K 7 ^ ..&XX.w & w X.-X*Xo...b x.F.G.8XtXpXwXwXtXNXtXO.AXAXAXAXAXAXAX",
"AXAXAXAX<.1.Q Q W W W 1.h.+.AXAXAXAX= e / / 8 , F ;.T ;.Q -.4 8 ( (  .) 1 , & (  .` | / 7 %.+.L +.>.>.>.>.-.,.:.t AXAXAXAXAXAXAX",
"AXAXAXAXAX* . . X @ % X X J AXAXAXAX= < 7 6 8 3 # # X o . 2 - : q 9 6 : , , 1 1 7 7 = < 6 6 3 * * ; . @ . . 2 - AXAXAXAXAXAXAXAX",
"AXAXAXAXAXAXAXAX: ; ; 4 AXAXAXAXAXAX= = 0 6 8 6 : : 8 e : > 8 8 8 9 9 9 1 1 q q 9 9 > ; 0 6 e 8 = : = 3 AXAXAXAXAXAXAXAXAXAXAXAX",
"AXAXAXAXAXAXAXAXAXAXAXAXAXAXAXAXAXAXAXAXAX| ) ) u r ) u ) ) [ l 9 [ [ ) i y ) ` [ u r r i / AXAXAXAXAXAXAXAXAXAXAXAXAXAXAXAXAXAX",
"AXAXAXAXAXAXAXAXAXAXAXAXAXAXAXAXAXAXAXAXAXAXAXAXAXAXAXAXAXAXAXAXAXAXAXAXAXAXAXAXAXAXAXAXAXAXAXAXAXAXAXAXAXAXAXAXAXAXAXAXAXAXAXAX",
"AXAXAXAXAXAXAXAXAXAXAXAXAXAXAXAXAXAXAXAXAXAXAXAXAXAXAXAXAXAXAXAXAXAXAXAXAXAXAXAXAXAXAXAXAXAXAXAXAXAXAXAXAXAXAXAXAXAXAXAXAXAXAXAX"
};
