/* XPM */
static char *xpm_[] = {
/* columns rows colors chars-per-pixel */
"64 64 246 2 ",
"   c #362B07",
".  c #3A350B",
"X  c #2D2C1B",
"o  c #2C2914",
"O  c #332C13",
"+  c #3B2C14",
"@  c #332C1C",
"#  c #392D1C",
"$  c #2D321B",
"%  c #383318",
"&  c #2E2806",
"*  c #1A313A",
"=  c #2C2C24",
"-  c #2C2C2B",
";  c #282828",
":  c #332C23",
">  c #3A2D24",
",  c #332D2B",
"<  c #372A29",
"1  c #2C322D",
"2  c #2A3226",
"3  c #333124",
"4  c #32322D",
"5  c #3A332C",
"6  c #393826",
"7  c #2D2E32",
"8  c #272C37",
"9  c #322D33",
"0  c #332E3B",
"q  c #3A2B31",
"w  c #2C3134",
"e  c #24333B",
"r  c #283336",
"t  c #333233",
"y  c #34333C",
"u  c #393938",
"i  c #463818",
"p  c #4C300D",
"a  c #6A1E28",
"s  c #781829",
"d  c #6C1C35",
"f  c #432527",
"g  c #433925",
"h  c #423C3B",
"j  c #542C2F",
"k  c #702A32",
"l  c #5F1C29",
"z  c #3E453E",
"x  c #5A4B19",
"c  c #5C521E",
"v  c #544A13",
"b  c #644C18",
"n  c #665519",
"m  c #745918",
"M  c #66500E",
"N  c #71621C",
"B  c #4A4527",
"V  c #584928",
"C  c #5A5427",
"Z  c #494637",
"A  c #554A37",
"S  c #595435",
"D  c #4F583D",
"F  c #684C2B",
"G  c #675627",
"H  c #625636",
"J  c #754F28",
"K  c #79662A",
"L  c #7A6A35",
"P  c #676333",
"I  c #5A6034",
"U  c #1E334D",
"Y  c #243343",
"T  c #273449",
"R  c #3B3C44",
"E  c #273755",
"W  c #2A3351",
"Q  c #193961",
"!  c #263D61",
"~  c #433B43",
"^  c #6F3A4B",
"/  c #4A3E68",
"(  c #384247",
")  c #314759",
"_  c #365669",
"`  c #344B75",
"'  c #324C6F",
"]  c #444445",
"[  c #454647",
"{  c #575545",
"}  c #4B4B53",
"|  c #4C575A",
" . c #585759",
".. c #4F504F",
"X. c #655C46",
"o. c #72484F",
"O. c #5E654B",
"+. c #6B6649",
"@. c #756B46",
"#. c #7A7346",
"$. c #676658",
"%. c #7B7655",
"&. c #6E6C56",
"*. c #485664",
"=. c #5A5B61",
"-. c #46587B",
";. c #525074",
":. c #685B6C",
">. c #536169",
",. c #6C6B66",
"<. c #736A6B",
"1. c #6B7368",
"2. c #787769",
"3. c #787877",
"4. c #6C6E75",
"5. c #841B2B",
"6. c #881D33",
"7. c #892637",
"8. c #98273E",
"9. c #8D3036",
"0. c #964E2F",
"q. c #836926",
"w. c #867637",
"e. c #937B37",
"r. c #89702F",
"t. c #A9713A",
"y. c #952944",
"u. c #843343",
"i. c #862A42",
"p. c #A32A43",
"a. c #83484A",
"s. c #877B48",
"d. c #89704E",
"f. c #887B74",
"g. c #907969",
"h. c #AD735F",
"j. c #778473",
"k. c #98883A",
"l. c #928C3E",
"z. c #A18A3B",
"x. c #8D844C",
"c. c #998949",
"v. c #8B8557",
"b. c #948B5A",
"n. c #999255",
"m. c #9F934B",
"M. c #A68C46",
"N. c #A89648",
"B. c #A99956",
"V. c #B09A55",
"C. c #BBA657",
"Z. c #B6A34E",
"A. c #8C8B6C",
"S. c #888566",
"D. c #958B68",
"F. c #9A9468",
"G. c #8C8E7B",
"H. c #878876",
"J. c #938B75",
"K. c #93937C",
"L. c #989678",
"P. c #8E9174",
"I. c #A69B64",
"U. c #B79E66",
"Y. c #A79C79",
"T. c #B7AA66",
"R. c #A9A379",
"E. c #B6A978",
"W. c #BCB676",
"Q. c #B2A86A",
"!. c #9EA07B",
"~. c #C4AA57",
"^. c #C9B55A",
"/. c #D6B959",
"(. c #CFB04D",
"). c #C6AB69",
"_. c #C9B867",
"`. c #D4BA67",
"'. c #C9B876",
"]. c #D4B973",
"[. c #C7AD74",
"{. c #E1BC68",
"}. c #C79460",
"|. c #D7C25B",
" X c #E5CD5E",
".X c #DAC468",
"XX c #D5C277",
"oX c #CBC27A",
"OX c #E6CB66",
"+X c #EBD57B",
"@X c #F7DA79",
"#X c #EFCE72",
"$X c #FAE47A",
"%X c #39578B",
"&X c #395B98",
"*X c #324D82",
"=X c #3B67B1",
"-X c #3B619F",
";X c #455886",
":X c #4A658D",
">X c #7D7A84",
",X c #627198",
"<X c #4A6BA7",
"1X c #857B87",
"2X c #7A82A4",
"3X c #7C8A95",
"4X c #85868A",
"5X c #9D9D86",
"6X c #918C89",
"7X c #A29C89",
"8X c #A59B92",
"9X c #9CA38C",
"0X c #AAA985",
"qX c #B8B688",
"wX c #AAA796",
"eX c #BABA99",
"rX c #B3AE8D",
"tX c #B9B9A6",
"yX c #ACB3AC",
"uX c #9696A9",
"iX c #CABA86",
"pX c #D4BC85",
"aX c #C4BB9B",
"sX c #C9B4AA",
"dX c #EBBFA6",
"fX c #BEC199",
"gX c #BDC2A7",
"hX c #C4C398",
"jX c #D0C485",
"kX c #E4CC88",
"lX c #EBD889",
"zX c #F6D888",
"xX c #E8D99A",
"cX c #F9DA96",
"vX c #EFC994",
"bX c #FCE48B",
"nX c #F9E286",
"mX c #F8E596",
"MX c #EDE494",
"NX c #C3C3A6",
"BX c #DCD6AE",
"VX c #E8D6A4",
"CX c #F2D7A5",
"ZX c #F0ECA2",
"AX c #BFC5C1",
"SX c None",
/* pixels */
"SXSXSXSXSXSXSXSXSXSXSXSXSXSXSXSXSXSXSXSXSXSXSXSXSXSXSXSXSXSXSXSXSXSXSXSXSXSXSXSXSXSXSXSXSXSXSXSXSXSXSXSXSXSXSXSXSXSXSXSXSXSXSXSX",
"SXSXSXSXSXSXSXSXSXSXSXSXSXSXSXSXSXSXSXSXSXSXSXSXSXSXSXSXSXSXSXSXSXSXSXSXSXSXSXSXSXSXSXSXSXSXSXSXSXSXSXSXSXSXSXSXSXSXSXSXSXSXSXSX",
"SXSXSXSXSXSXSXSXSXSXSXSXSXSXSXSXSXSXSXSXSXSXSXSXSXSXSXSXSXSXSXSXSXSXSXSXSXSXSXSXSXSXSXSXSXSXSXSXSXSXSXSXSXSXSXSXSXSXSXSXSXSXSXSX",
"SXSXSXSXSXSXSXSXSXSXSXSXSXSXSXSXSXSXSXSXSXSXSXSXSXSXSXSXSXSXSXSXSXSXSXSXSXSXSXSXSXSXSXSXSXSXSXSXSXSXSXSXSXSXSXSXSXSXSXSXSXSXSXSX",
"SXSXSXSXSXSXSXSXSXSXSXSXSXSXSXSXSXSXSXSXSXSXSXSXSXSXSXSXSXSXSXSXSXSX9 q SXSXSXSXSXSXSXSXSXSXSXSXSXSXSXSXSXSXSXSXSXSXSXSXSXSXSXSX",
"SXSXSXSXSXSXSXSXSXSXSXSXSXSXSXSXSXSXSXSXSXSXSXSXSXSXSXSXSXSXSXSXSX~ q h h h SXSXSXSXSXSXSXSXSXSXSXSXSXSXSXSXSXSXSXSXSXSXSXSXSXSX",
"SXSXSXSXSXSXSXSXSXSXSXSXSXSXSXSXSXSXSXSXSXSXSXSXSXSXSXSXSXSX4 q q f j k k j f q SXSXSXSXSXSXSXSXSXSXSXSXSXSXSXSXSXSXSXSXSXSXSXSX",
"SXSXSXSXSXSXSXSXSXSXSXSXSXSXSXSXSXSXSXSXSXSXSXSXSXSXSXSXSX3 3 > f j k u.u.j f > 5 SXSXSXSXSXSXSXSXSXSXSXSXSXSXSXSXSXSXSXSXSXSXSX",
"SXSXSXSXSXSXSXSXSXSXSXSXSXSXSXSXSXSXSXSXSXSXSXSXSXSXSXSX< < < f f l d y.i.a f > 4 SXSXSXSXSXSXSXSXSXSXSXSXSXSXSXSXSXSXSXSXSXSXSX",
"SXSXSXSXSXSXSXSXSXSXSXSXSXSXSXSXSXSXSXSXSXSXSXSXSXSXSX[ ,.f.6Xd.l ^ y.y.y.u.o.J.H.( t SXSXSXSXSXSXSXSXSXSXSXSXSXSXSXSXSXSXSXSXSX",
"SXSXSXSXSXSXSXSXSXSXSXSXSXSXSXSXSXSXSXSXSXSXSXSXSXSX2 Z f.5XtXg.a 6.p.8.p.u.u.sX8X1 r r SXSXSXSXSXSXSXSXSXSXSXSXSXSXSXSXSXSXSXSX",
"SXSXSXSXSXSXSXSXSXSXSXSXSXSXSXSXSXSXSXSXSXSXSXSXSXe * ( 4XuXsXg.a 6.p.p.p.y.a.sXuX8 * * SXSXSXSXSXSXSXSXSXSXSXSXSXSXSXSXSXSXSXSX",
"SXSXSXSXSXSXSXSXSXSXSXSXSXSXSXSXSXSXSXSXSXSXSXSXT E ) ` ,X,XuX1Xd 6.y.8.6.u.u.uX2X' ' ' SXSXSXSXSXSXSXSXSXSXSXSXSXSXSXSXSXSXSXSX",
"SXSXSXSXSXSXSXSXSXSXSXSXSXSXSXSXSXSXSXSXSXSXSXSXU E %X&X%X%X;X/ d 8.y.6.s i.^ ;.;X-X=X<X` SXSXSXSXSXSXSXSXSXSXSXSXSXSXSXSXSXSXSX",
"SXSXSXSXSXSXSXSXSXSXSXSXSXSXSXSXSXSXSXSXSXSXSXY U Q *X&X&X&X%X/ l 7.y.6.s u.o./ -X<X=X<X` SXSXSXSXSXSXSXSXSXSXSXSXSXSXSXSXSXSXSX",
"SXSXSXSXSXSXSXSXSXSXSXSXSXSXSXSXSXSXSXSXSXSXSX* U ) :X%X:X-.;./ d i.7.6.5.7.^ ,X:X<X<X<X-.SXSXSXSXSXSXSXSXSXSXSXSXSXSXSXSXSXSXSX",
"SXSXSXSXSXSXSXSXSXSXSXSXSXSXSXSXSXSXSXSXSXSX8 y 1.4XyXyXyXeXiXh.k s 5.s 5.9.0.dXBXyXyXyX3.w SXSXSXSXSXSXSXSXSXSXSXSXSXSXSXSXSXSX",
"SXSXSXSXSXSXSXSXSXSXSXSXSXSXSXSXSXSXSXSXSXSX1 1 2.P.eXfXeXaX].t.a k a a 5.6.0.zXCXhXNXtX2.5 SXSXSXSXSXSXSXSXSXSXSXSXSXSXSXSXSXSX",
"SXSXSXSXSXSXSXSXSXSXSXSXSXSXSXSXSXSXSXSXSXf 3 2 j.b.qXfXfXfX).t.p s l a s k 0.vXxXiXgXAX3.- SXSXSXSXSXSXSXSXSXSXSXSXSXSXSXSXSXSX",
"SXSXSXSXSXSXSXSXSXSXSXSXSXSXSXSXSXSXSXSXSX&.$.$.@.P j.j.j.P.].~.).0.k k 0.h.}.zXkX%.j.3X| 8 SXSXSXSXSXSXSXSXSXSXSXSXSXSXSXSXSXSX",
"SXSXSXSXSXSXSXSXSXSXSXSXSXSXSXSXSXSXSXSX$.P.P.G.X.H A Z | 1.'.#XmXM.F F J ).`.zXoXS *.-.) * SXSXSXSXSXSXSXSXSXSXSXSXSXSXSXSXSXSX",
"SXSXSXSXSXSXSXSXSXSXSXSXSXSXSXSXSXSXSXSX$.4XH.H.H S V { *.j.W.OXbXz.b J M C.OXzXXXC  .:X_ * SXSXSXSXSXSXSXSXSXSXSXSXSXSXSXSXSXSX",
"SXSXSXSXSXSXSXSXSXSXSXSXSXSXSXSXSXSXSXSX*.1.4.1.H F x.#.[ 1.I.T._.N.K r.k.M.C.|.Z.j.&.>._ ) SXSXSXSXSXSXSXSXSXSXSXSXSXSXSXSXSXSX",
"SXSXSXSXSXSXSXSXSXSXSXSXSXSXSXSXSXSXSXSXY ) U * A K lXoXI C n x M k.`.lXzXq.M M q.MXW.{ _ -.SXSXSXSXSXSXSXSXSXSXSXSXSXSXSXSXSXSX",
"SXSXSXSXSXSXSXSXSXSXSXSXSXSXSXSXSXSXSXSXW Q E e A K kX.Xn C G b M z./.@XzXq.b M r.zXW.D *.;XSXSXSXSXSXSXSXSXSXSXSXSXSXSXSXSXSXSX",
"SXSXSXSXSXSXSXSXSXSXSXSXSXSXSXSXSXSXSX0 E E Q e B K +XOXm b J n M N.{.#XzXq.M M e.zX'.C | -.SXSXSXSXSXSXSXSXSXSXSXSXSXSXSXSXSXSX",
"SXSXSXSXSXSXSXSXSXSXSXSXSXSXSXSXSXSXSXy  .j.3.j.I G ^./.~.~.Z.k.v N.|.#XzXq.m N.^.mX).c S.wX>.SXSXSXSXSXSXSXSXSXSXSXSXSXSXSXSXSX",
"SXSXSXSXSXSXSXSXSXSXSXSXSXSXSXSXSXSXSX, $.5Xj.j.P m ~././..X|.k.M m.`.@XcXq.N _.XXmX).b S.gX$.SXSXSXSXSXSXSXSXSXSXSXSXSXSXSXSXSX",
"SXSXSXSXSXSXSXSXSXSXSXSXSXSXSXSXSXSXSX, +.J.J.J.C N (.`./.(.XXm.n m.`.zXCXr.K Q.XXMX[.b v.NX$.SXSXSXSXSXSXSXSXSXSXSXSXSXSXSXSXSX",
"SXSXSXSXSXSXSXSXSXSXSXSXSXSXSXSXSXSXy 2 Z H +.@.x.l.k.z.`.Z.L n . K k.M.B.j B @.s.B.s.v P S.{ SXSXSXSXSXSXSXSXSXSXSXSXSXSXSXSXSX",
"SXSXSXSXSXSXSXSXSXSXSXSXSXSXSXSXSXSXw 2 4 @ A G C.C.N q.`.t.  $ % B x x C . $ o g V g & B C 4 SXSXSXSXSXSXSXSXSXSXSXSXSXSXSXSXSX",
"SXSXSXSXSXSXSXSXSXSXSXSXSXSXSXSXSXSX= 3 X O V J Z.^.N q.).M.. $ $ B G n V % 6 = g H j + B S Z - SXSXSXSXSXSXSXSXSXSXSXSXSXSXSXSX",
"SXSXSXSXSXSXSXSXSXSXSXSXSXSXSXSXSXSXi V x V x m C.C.n K _.M.% 3 $ S K K r.i < : 6 D C S A S Z = SXSXSXSXSXSXSXSXSXSXSXSXSXSXSXSX",
"SXSXSXSXSXSXSXSXSXSXSXSXSXSXSXSXSXSXd.'.'.[.r.m ~.^.G K ).c.O 5 % v.XXlXkXA < : 6 D x.VXD.O X 4 SXSXSXSXSXSXSXSXSXSXSXSXSXSXSXSX",
"SXSXSXSXSXSXSXSXSXSXSXSXSXSXSXSXSX% L XX~.~.r.m Z.Z.n L /.M.. > @ s._.lXxXF @ : 6 c l.ZXb.& q 9 SXSXSXSXSXSXSXSXSXSXSXSXSXSXSXSX",
"SXSXSXSXSXSXSXSXSXSXSXSXSXSXSXSXSXo K _..XXXr.M ^.C.K L (.z..     c._.lXkXv + + . c l.mXn.p O < ..SXSXSXSXSXSXSXSXSXSXSXSXSXSXSX",
"SXSXSXSXSXSXSXSXSXSXSXSXSXSXSXSXSXg L '.w.x Z.].r.K b K ^.(.N.N.z.~.(.#X$X~.N.V.M.b e.cXkX].pXaX .SXSXSXSXSXSXSXSXSXSXSXSXSXSXSX",
"SXSXSXSXSXSXSXSXSXSXSXSXSXSXSXSXSXo L pX@.  T.mXL G c K ^./.^.|.|./.|.@X@X X/.`.U.b z.cXzXcXcXCX+.SXSXSXSXSXSXSXSXSXSXSXSXSXSXSX",
"SXSXSXSXSXSXSXSXSXSXSXSXSXSXSXSXSX@ #.iX@.& T.MXL C C L ].]._.^.|.|.`.+X@X.X/.`.}.b M.mXbXzXzXmXX.9 SXSXSXSXSXSXSXSXSXSXSXSXSXSX",
"SXSXSXSXSXSXSXSXSXSXSXSXSXSXSXSX~ @ H S.+.S n.n.C v B H Y.U.I.T.B.N.l.n.I.B.U.U.D.V P n.B.Z.^.+XH q SXSXSXSXSXSXSXSXSXSXSXSXSXSX",
"SXSXSXSXSXSXSXSXSXSXSXSXSXSXSXSX~ < : @ $.P.Z o $ : : Z f.f.1Xf.H.A = X : 2.f.f.<.> $ o O & l.'.S , SXSXSXSXSXSXSXSXSXSXSXSXSXSX",
"SXSXSXSXSXSXSXSXSXSXSXSXSXSXSXSXh : 5 : O.6XZ 3 3 2 = ] f.1X1X1X1X .7 8 r 3.1X1X<.q 4 2 4 # x.W.S 4 SXSXSXSXSXSXSXSXSXSXSXSXSXSX",
"SXSXSXSXSXSXSXSXSXSXSXSXSXSXSX] B B g > $.G...5 u Z 6 Z 4.1X1X1X>X} 7 7 t 1.3.1X<.2 3 z 0 , s.E.A w SXSXSXSXSXSXSXSXSXSXSXSXSXSX",
"SXSXSXSXSXSXSXSXSXSXSXSXt t 9 > H E.7XJ.K.5X9X9XwXeXfX5Xu } f.=.0 0 w w ; t ] 4.4.t $.wX3., + i 5 4 SXSXSXSXSXSXSXSXSXSXSXSXSXSX",
"SXSXSXSXSXSXSXSXSX4 , = 4 : :   G jXR.S.!.!.0X!.eXaXfXL.8 } 4X ., , - w 2 w R >X3.- O.gX3.- > > = 4  .SXSXSXSXSXSXSXSXSXSXSXSXSX",
"SXSXSXSXSXSXSX~ , : : @ @ @ O   N ~.Q.b.F.R.!.0XeXaXfX9X1 } 6X=.2 t - 2 2 ; R >X4.1 O.gX3.X > @ : 4 ..SXSXSXSXSXSXSXSXSXSXSXSXSX",
"SXSXSXSXSXSXSX$.6XG.P.J.D.v.S.b.~.+XkXoXR.F.D.L.8XwX0XP.1 [ 3.=., - - t u t t [ ] = { 0X<.> @.v.Z , ~ SXSXSXSXSXSXSXSXSXSXSXSXSX",
"SXSXSXSXSXSX= H.NXtXaXaXeX0XR.'.#XzXbXMXW.v.D.J.5X0X9XA.6 [ 3X .t , t , ; = 2 4 X 3 { wX$.+ c.oXS : - y SXSXSXSXSXSXSXSXSXSXSXSX",
"SXSXSXSXSXSX= j.NXNXeXaXsXR.Q.`.{.zXbXlXW.D.A.A.5XwXwXH.$ Z 6X=.t = : 3 X 4 - 4 3 $ { wX&.& n.W.C X = u SXSXSXSXSXSXSXSXSXSXSXSX",
"SXSXSXSXSXSX2 O.L.P.K.K.H.S.n.`.#X$XnXmXQ.+.S.P.f.2.f.$.u Z =.} , A H P +.6 = w 3 3 [ f.{ $ L b.#.P 6 5 SXSXSXSXSXSXSXSXSXSXSXSX",
"SXSXSXSXSXSX; 4 X X = : 4 O x xX$X$X@XmX#.O &.f.u - , : X 5 9 q o v.oXMXxXC = 7 w - , , t 3 @ % qXBXA % SXSXSXSXSXSXSXSXSXSXSXSX",
"SXSXSXSXSXR - = 3 : > > @ % G xXmX$XlXmXd.$ 2.G.Z - 7 , @ @ @ : O b.^.+XlXx = 8 0 y q = - , > % qXBXV @ = SXSXSXSXSXSXSXSXSXSXSX",
"SXSXSXSXSXh g i p g p i i p H xXVXxXxXxXd.> $.3.u u y 4 i . i +   x.^.#XzXC - 8 8 - 4 t 0 , g i W.BXS % 5 u SXSXSXSXSXSXSXSXSXSX",
"SXSXSXSXSXX.E.jXkXkXvXcXpX[.F.v x g i V 5 : h z 2.1.t { jXjX[.d.. v..XzXkXV , 0 1 2 2 t 7 = s.E.F.b.v.D.wX6X, SXSXSXSXSXSXSXSXSX",
"SXSXSXSX: @.'.+XmXbXzXzXnXXXI.. # @ @ O 3 4 7 7 2.j.3 H xXlX`.w.  s._.@XCXG 3 ; 2 $ = 1 t % c.'.I.A.S.P.tXwX4 SXSXSXSXSXSXSXSXSX",
"SXSXSXSXX #._.OX@XnXnXzX@X`.B.. 4 9 4 4 2 w 8 y j.S.. G MX+X`.e.  S.iXVXCXV > 2 2 r e e 7 @ x.iXF.F.b.P.aXL.O = - SXSXSXSXSXSXSX",
"SXSXSXSX$ s.lXOX X X XOX X#X).i , ~ u ; Y T Y Y } X.s.z..X.X/.e.  { ,.4X4X~ , 8 U ' ` ' ) r %.Y.F.P.R.qXqX0XS.S.2.$.SXSXSXSXSXSX",
"SXSXSXSX@ #.MXOX(.(./.(.{.zXiX. u SX( e T E W R 7 B T.^./.^.`.w.$ e U ` -.T 8 8 ! %X&X%X) 8 $.H.S.A.0XhXhXhXfXeXNXf.SXSXSXSXSXSX",
"SXSXSXSX# x.mXOX|././././.zXiXi u SXR e U U Y T Y g W..X^._.].w.$ * Q *X-.W w r U %X&X%X) ; 1.P.J.K.eXNXfXfXfXNXgX2.SXSXSXSXSXSX",
"SXSXSXSXSX@.'.T.N.Z.N.N.C.pXY.g SXSXSXe e Y Y Y 9 g n.B.B.Q.I.@.3 Y ! ` ' T w 7 ) ` _ ' ) 8 { 1.2.2.6X9XL.5X5X5X5X,.- SXSXSXSXSX",
"SXSXSXSXSXSX6 O # + % % O o 5 SXSXSXSXw 1 1 r 7 - 4 g   + + @ > q 7 e e w w q , Y Y Y e t , , q , , 4 , 4 3 = 3 - t t SXSXSXSXSX",
"SXSXSXSXSXSX- t 9 y t - 1 t R SXSXSXSX9 1 1 w 7 , , ; , 5 , : < 9 9 1 1 = 4 q q 8 8 7 - 2 q , , , 9 - - t - - 9 t 9 ; SXSXSXSXSX",
"SXSXSXSXSXSX7 y R 0 1 1 r 8 SXSXSXSXSX0 8 Y y 9 4 9 0 0 7 - 9 0 9 0 9 7 ; , 7 9 0 0 y w 7 9 0 y - - , t 7 9 y t 7 9 SXSXSXSXSXSX",
"SXSXSXSXSXSXSXSXSXSX..| SXSXSX=. . .SXSXSXSXSXSXSXSX) R [ [ ( [ ~ R R [ ] [ R [ [ [ SXSXSXSXSXSXSXSXSXSXSXSX .} SXSXSXSXSXSXSXSX"
};
