/* XPM */
static char *xpm_[] = {
/* columns rows colors chars-per-pixel */
"64 64 243 2 ",
"   c #382D08",
".  c #2B2B15",
"X  c #2C2B1D",
"o  c #2A261A",
"O  c #342C14",
"+  c #3B2D13",
"@  c #332D1D",
"#  c #382819",
"$  c #2E3318",
"%  c #33331B",
"&  c #3A3619",
"*  c #362E0A",
"=  c #2C2C25",
"-  c #2D2C2B",
";  c #282A29",
":  c #332C23",
">  c #322D2C",
",  c #392B27",
"<  c #2D3224",
"1  c #2D322B",
"2  c #263228",
"3  c #333223",
"4  c #33322C",
"5  c #3A322B",
"6  c #3A3826",
"7  c #2C2D32",
"8  c #292C39",
"9  c #342D33",
"0  c #362E35",
"q  c #2C3233",
"w  c #2A313B",
"e  c #263438",
"r  c #333233",
"t  c #3A3433",
"y  c #3B3B33",
"u  c #33323A",
"i  c #3C3B3D",
"p  c #383739",
"a  c #6B1D1E",
"s  c #433413",
"d  c #44381A",
"f  c #493806",
"g  c #702F1C",
"h  c #4D1F32",
"j  c #691D33",
"k  c #791935",
"l  c #721A2B",
"z  c #462929",
"x  c #463A26",
"c  c #4B3233",
"v  c #6E2A32",
"b  c #4D1C1F",
"n  c #3E422D",
"m  c #3D433A",
"M  c #5A4509",
"N  c #4A441C",
"B  c #574819",
"V  c #584D16",
"C  c #65531B",
"Z  c #695717",
"A  c #715B17",
"S  c #66520F",
"D  c #716418",
"F  c #4A4529",
"G  c #554A25",
"H  c #585328",
"J  c #474737",
"K  c #544B35",
"L  c #595638",
"P  c #4B5434",
"I  c #635523",
"U  c #65572A",
"Y  c #665834",
"T  c #6D502D",
"R  c #676627",
"E  c #7A6927",
"W  c #69653B",
"Q  c #776736",
"!  c #7F723B",
"~  c #1D3454",
"^  c #242C44",
"/  c #292C46",
"(  c #23344C",
")  c #283447",
"_  c #393A45",
"`  c #223456",
"'  c #343447",
"]  c #173662",
"[  c #413E47",
"{  c #4F3C58",
"}  c #703A4E",
"|  c #4D3D64",
" . c #3D4649",
".. c #374555",
"X. c #2F4258",
"o. c #2E496A",
"O. c #364968",
"+. c #375577",
"@. c #335173",
"#. c #474648",
"$. c #565949",
"%. c #4D4A51",
"&. c #485559",
"*. c #565659",
"=. c #4B5051",
"-. c #655E59",
";. c #695543",
":. c #5C625C",
">. c #5B6249",
",. c #676849",
"<. c #756B48",
"1. c #666757",
"2. c #766D57",
"3. c #78775A",
"4. c #747249",
"5. c #51576A",
"6. c #65476E",
"7. c #546375",
"8. c #686866",
"9. c #777766",
"0. c #777874",
"q. c #6D706B",
"w. c #851B31",
"e. c #8B2537",
"r. c #99283A",
"t. c #8F2E2F",
"y. c #A52833",
"u. c #82311C",
"i. c #8A6E35",
"p. c #8A7639",
"a. c #947C37",
"s. c #8B712F",
"d. c #93602D",
"f. c #883049",
"g. c #A42C42",
"h. c #887745",
"j. c #847B50",
"k. c #AE7850",
"l. c #887B78",
"z. c #936E6E",
"x. c #A87167",
"c. c #7B8277",
"v. c #98833B",
"b. c #A98636",
"n. c #968245",
"m. c #9C8C5D",
"M. c #958958",
"N. c #908857",
"B. c #A7964B",
"V. c #AC9353",
"C. c #A89659",
"Z. c #AE964E",
"A. c #BAA755",
"S. c #BEA548",
"D. c #8C8B6D",
"F. c #868467",
"G. c #938D6A",
"H. c #999265",
"J. c #888A78",
"K. c #8E9179",
"L. c #989678",
"P. c #8E8F74",
"I. c #A28E64",
"U. c #A69867",
"Y. c #AE9D6C",
"T. c #B8A865",
"R. c #ABA679",
"E. c #B5A77A",
"W. c #BDB672",
"Q. c #9BA077",
"!. c #C4AB57",
"~. c #CBB55A",
"^. c #D5B958",
"/. c #CBBB63",
"(. c #CAB668",
"). c #D6B965",
"_. c #CBB978",
"`. c #D4B974",
"'. c #C8AB67",
"]. c #C58B5A",
"[. c #DAC35D",
"{. c #E4C35B",
"}. c #D6C56B",
"|. c #D9C578",
" X c #CEC377",
".X c #E7C968",
"XX c #ECD478",
"oX c #F7DA79",
"OX c #E7CD6F",
"+X c #375B86",
"@X c #3B5C91",
"#X c #2A5991",
"$X c #3A6297",
"%X c #2B669E",
"&X c #3769A4",
"*X c #465788",
"=X c #535A86",
"-X c #47658F",
";X c #7A7C82",
":X c #6C7D85",
">X c #847D87",
",X c #74858F",
"<X c #7DA0B6",
"1X c #878685",
"2X c #969883",
"3X c #8F938E",
"4X c #A49988",
"5X c #9EA486",
"6X c #93A597",
"7X c #A7A787",
"8X c #A4A993",
"9X c #BCBD9B",
"0X c #B9BA97",
"qX c #B1AF90",
"wX c #8393A4",
"eX c #8DA3B2",
"rX c #B9BBA6",
"tX c #B6B0AC",
"yX c #C8B984",
"uX c #C3BB96",
"iX c #CEB785",
"pX c #C8B9A5",
"aX c #D0B9B1",
"sX c #BCC2A7",
"dX c #BBC2B2",
"fX c #D8C68A",
"gX c #C2C39A",
"hX c #DDCB98",
"jX c #D4CD85",
"kX c #E9D587",
"lX c #F8DC87",
"zX c #E7D597",
"xX c #F7DB99",
"cX c #E3CE8E",
"vX c #FEE383",
"bX c #F8E38B",
"nX c #F7E196",
"mX c #ECE597",
"MX c #C3C2A6",
"NX c #D3CFAC",
"BX c #EEDCAE",
"VX c #F4E1A5",
"CX c None",
/* pixels */
"CXCXCXCXCXCXCXCXCXCXCXCXCXCXCXCXCXCXCXCXCXCXCXCXCXCXCXCXCXCXCXCXCXCXCXCXCXCXCXCXCXCXCXCXCXCXCXCXCXCXCXCXCXCXCXCXCXCXCXCXCXCXCXCX",
"CXCXCXCXCXCXCXCXCXCXCXCXCXCXCXCXCXCXCXCXCXCXCXCXCXCXCXCXCXCXCXCXCXCXCXCXCXCXCXCXCXCXCXCXCXCXCXCXCXCXCXCXCXCXCXCXCXCXCXCXCXCXCXCX",
"CXCXCXCXCXCXCXCXCXCXCXCXCXCXCXCXCXCXCXCXCXCXCXCXCXCXCXCXCXCXCXCXCXCX0 - CXCXCXCXCXCXCXCXCXCXCXCXCXCXCXCXCXCXCXCXCXCXCXCXCXCXCXCX",
"CXCXCXCXCXCXCXCXCXCXCXCXCXCXCXCXCXCXCXCXCXCXCXCXCXCXCXCXCXCXCXCXCXCX5 , CXCXCXCXCXCXCXCXCXCXCXCXCXCXCXCXCXCXCXCXCXCXCXCXCXCXCXCX",
"CXCXCXCXCXCXCXCXCXCXCXCXCXCXCXCXCXCXCXCXCXCXCXCXCXCXCXCXCXCXCXCXCXCXz z CXCXCXCXCXCXCXCXCXCXCXCXCXCXCXCXCXCXCXCXCXCXCXCXCXCXCXCX",
"CXCXCXCXCXCXCXCXCXCXCXCXCXCXCXCXCXCXCXCXCXCXCXCXCXCXCXCXCXCXCXp t z c v v CXCXCXCXCXCXCXCXCXCXCXCXCXCXCXCXCXCXCXCXCXCXCXCXCXCXCX",
"CXCXCXCXCXCXCXCXCXCXCXCXCXCXCXCXCXCXCXCXCXCXCXCXCXCXCXCXCX2 2 < c h v } v z p w CXCXCXCXCXCXCXCXCXCXCXCXCXCXCXCXCXCXCXCXCXCXCXCX",
"CXCXCXCXCXCXCXCXCXCXCXCXCXCXCXCXCXCXCXCXCXCXCXCXCXCXCXCX1 2 $ : h h l f.} b > 7 CXCXCXCXCXCXCXCXCXCXCXCXCXCXCXCXCXCXCXCXCXCXCXCX",
"CXCXCXCXCXCXCXCXCXCXCXCXCXCXCXCXCXCXCXCXCXCXCXCXCXCXCXp %.*.z.;.h v e.r.t.a Y q.%.CXCXCXCXCXCXCXCXCXCXCXCXCXCXCXCXCXCXCXCXCXCXCX",
"CXCXCXCXCXCXCXCXCXCXCXCXCXCXCXCXCXCXCXCXCXCXCXCXCX7 q i l.3XaXz.j f.r.r.y.w.x.aX-.0 u CXCXCXCXCXCXCXCXCXCXCXCXCXCXCXCXCXCXCXCXCX",
"CXCXCXCXCXCXCXCXCXCXCXCXCXCXCXCXCXCXCXCXCXCXCXCXCX0 7 q 0.4XaXx.j e.r.y.y.y.x.aX8.; / CXCXCXCXCXCXCXCXCXCXCXCXCXCXCXCXCXCXCXCXCX",
"CXCXCXCXCXCXCXCXCXCXCXCXCXCXCXCXCXCXCXCXCXCXCXCXCXw ^ ' ;XwXtX>Xk f.g.g.y.w.z.tX7.~ ` _ CXCXCXCXCXCXCXCXCXCXCXCXCXCXCXCXCXCXCXCX",
"CXCXCXCXCXCXCXCXCXCXCXCXCXCXCXCXCXCXCXCXCXCXCXCX( ` +X#X@X@X*X| j w.e.w.e.} 6.*X$X&X&X-X) CXCXCXCXCXCXCXCXCXCXCXCXCXCXCXCXCXCXCX",
"CXCXCXCXCXCXCXCXCXCXCXCXCXCXCXCXCXCXCXCXCXCXCX/ ` ` #X#X%X#X@X| j g.g.k k f.6.*X&X&X%X#X^ CXCXCXCXCXCXCXCXCXCXCXCXCXCXCXCXCXCXCX",
"CXCXCXCXCXCXCXCXCXCXCXCXCXCXCXCXCXCXCXCXCXCXCXw 8 ` o.+X+X@.5.{ j f.e.k w.f.} 6.@X&X&X-X^ CXCXCXCXCXCXCXCXCXCXCXCXCXCXCXCXCXCXCX",
"CXCXCXCXCXCXCXCXCXCXCXCXCXCXCXCXCXCXCXCXCXCXCX- =.:.,X<XeXwX1Xz.j j k k w.f.z.tXeX<XeX:X' CXCXCXCXCXCXCXCXCXCXCXCXCXCXCXCXCXCXCX",
"CXCXCXCXCXCXCXCXCXCXCXCXCXCXCXCXCXCXCXCXCXCX4 = $.3X8XrXdXsXiXk.l k l w.w.w.].BXNXrXrX8X4 CXCXCXCXCXCXCXCXCXCXCXCXCXCXCXCXCXCXCX",
"CXCXCXCXCXCXCXCXCXCXCXCXCXCXCXCXCXCXCXCXCXCXX X >.J.qXrX9XgX).k.a l a l u.u.].xXgXgXaX4Xy CXCXCXCXCXCXCXCXCXCXCXCXCXCXCXCXCXCXCX",
"CXCXCXCXCXCXCXCXCXCXCXCXCXCXCXCXCXCXCXCXCXK F F ,.3.L.7X6X8X}.b.d.v v g g d.].bX XQ.eXwXp CXCXCXCXCXCXCXCXCXCXCXCXCXCXCXCXCXCXCX",
"CXCXCXCXCXCXCXCXCXCXCXCXCXCXCXCXCXCXCXCXp 9.D.P.4.L L $.&.1.(.OXzXk.T g d.'..XlXv.L 7.*X8 CXCXCXCXCXCXCXCXCXCXCXCXCXCXCXCXCXCXCX",
"CXCXCXCXCXCXCXCXCXCXCXCXCXCXCXCXCXCXCXCXt c.P.D.2.K L J &.8.(.OXlXa.T T s.~..XbXv.P -X*X) CXCXCXCXCXCXCXCXCXCXCXCXCXCXCXCXCXCXCX",
"CXCXCXCXCXCXCXCXCXCXCXCXCXCXCXCXCXCXCXCXi 0.c.J.2.K U L O.q.W.OXlXv.M C E ~.}.bXv.L 7.+.~ X.CXCXCXCXCXCXCXCXCXCXCXCXCXCXCXCXCXCX",
"CXCXCXCXCXCXCXCXCXCXCXCXCXCXCXCXCXCXCXCX' ......F U A.qX4.>.W E E B.T.|.T.E E s.T.yX8.&.+.O.CXCXCXCXCXCXCXCXCXCXCXCXCXCXCXCXCXCX",
"CXCXCXCXCXCXCXCXCXCXCXCXCXCXCXCXCXCXCXCX) ( ~ ) J I (.bXW H H C V A.~.kX|.S H V (.mXW &.+Xo.8 CXCXCXCXCXCXCXCXCXCXCXCXCXCXCXCXCX",
"CXCXCXCXCXCXCXCXCXCXCXCXCXCXCXCXCXCXCXCXe ( ` ( n I ~.oXd.M M H S B.^.oX`.S T C '.lXE m +.@.8 CXCXCXCXCXCXCXCXCXCXCXCXCXCXCXCXCX",
"CXCXCXCXCXCXCXCXCXCXCXCXCXCXCXCXCXCXCXCXe O.5.&.$.I !.}.b.a.v.E S Z.{.oX|.A Q i.).XXE W c.7.u CXCXCXCXCXCXCXCXCXCXCXCXCXCXCXCXCX",
"CXCXCXCXCXCXCXCXCXCXCXCXCXCXCXCXCXCXCXCXn c.1XJ.3.U B.~.).)./.B.S Z.{.oX).S a.`.kXlXR <.sXc.e CXCXCXCXCXCXCXCXCXCXCXCXCXCXCXCXCX",
"CXCXCXCXCXCXCXCXCXCXCXCXCXCXCXCXCXCXCX1 % c.K.D.2.H B.[.^.!.).b.S V.).lX|.A a.'.XXzXQ 4.0Xc.; CXCXCXCXCXCXCXCXCXCXCXCXCXCXCXCXCX",
"CXCXCXCXCXCXCXCXCXCXCXCXCXCXCXCXCXCXCXy y 9.F.N.! Z B.~.~.).(.n.M m.(.kX(.V p._.fXcXQ ;.0XF.- CXCXCXCXCXCXCXCXCXCXCXCXCXCXCXCXCX",
"CXCXCXCXCXCXCXCXCXCXCXCXCXCXCXCXCXCXq 4 = x F H n.(.s.A ~.Z.f s s U I D I *   N I T d x L F > CXCXCXCXCXCXCXCXCXCXCXCXCXCXCXCXCX",
"CXCXCXCXCXCXCXCXCXCXCXCXCXCXCXCXCXCXr 0 , , , H v./.i.A !.Z.+ 3 : F H H H & % $ x T d & P F > CXCXCXCXCXCXCXCXCXCXCXCXCXCXCXCXCX",
"CXCXCXCXCXCXCXCXCXCXCXCXCXCXCXCXCXCX- # #   d B v.~.i.A !.B.6 1 , F H H N % < < F Y + * P P > CXCXCXCXCXCXCXCXCXCXCXCXCXCXCXCXCX",
"CXCXCXCXCXCXCXCXCXCXCXCXCXCXCXCXCXCX% W h.a.h.C v./.s.A !.V.@ 5 + h.B.C.I.s 3 : K T H.j.J t - CXCXCXCXCXCXCXCXCXCXCXCXCXCXCXCXCX",
"CXCXCXCXCXCXCXCXCXCXCXCXCXCXCXCXCXCX% H..X).].S a. XE Z A.V.d 3 + m. XnXyX  : 3 F R hXyXx 0 5 CXCXCXCXCXCXCXCXCXCXCXCXCXCXCXCXCX",
"CXCXCXCXCXCXCXCXCXCXCXCXCXCXCXCXCXCX. m.).).C.A v./.p.D !.Z.& O + N.(.bX_.s 3 @ N R cXjX@ : : CXCXCXCXCXCXCXCXCXCXCXCXCXCXCXCXCX",
"CXCXCXCXCXCXCXCXCXCXCXCXCXCXCXCXCXCXO m.'.A.B.E v.C.Q Z !.S.V V M B.}.bX(.V F G V R }./.Y K L #.CXCXCXCXCXCXCXCXCXCXCXCXCXCXCXCX",
"CXCXCXCXCXCXCXCXCXCXCXCXCXCXCXCXCXCX& H.T.M Z VXT.S I Z S.^./.T.~.^.^.XXoX~./.(.i.A OXvXlXVXBX2.CXCXCXCXCXCXCXCXCXCXCXCXCXCXCXCX",
"CXCXCXCXCXCXCXCXCXCXCXCXCXCXCXCXCXCX. M._.M C VXR.B I Z ~.[.~.[.^.^.^.lXvX~.).(.d.S XXoXlXlXnXQ : CXCXCXCXCXCXCXCXCXCXCXCXCXCXCX",
"CXCXCXCXCXCXCXCXCXCXCXCXCXCXCXCXCXCX3 H.E.M C BXY.Y U I A.(.(.(.(.)._.xXcX`.`.`.h.Q cXxXxXxXbXp.3 CXCXCXCXCXCXCXCXCXCXCXCXCXCXCX",
"CXCXCXCXCXCXCXCXCXCXCXCXCXCXCXCXCXCX5 F H 4.4.W K & x x z.I.H.I.m.Q U Y Q I.H.I.L z T Q T M. XR 3 CXCXCXCXCXCXCXCXCXCXCXCXCXCXCX",
"CXCXCXCXCXCXCXCXCXCXCXCXCXCXCXCXCXCX> , , l.9.$ < - , 0 z.>X>Xl.l.K X X y l.l.l.#.= X @ # <.W.R % CXCXCXCXCXCXCXCXCXCXCXCXCXCXCX",
"CXCXCXCXCXCXCXCXCXCXCXCXCXCXCXCXCXi : : 5 9.9.$ X 1 ; 0 0.>X>X>X>X%.; 7 #.;X>Xl.=.= 3 = o 2.0XR 3 CXCXCXCXCXCXCXCXCXCXCXCXCXCXCX",
"CXCXCXCXCXCXCXCXCXCXCXCXCXCXCX[ y K ,.K $.J.J.P >.>.$.-.-.q.>Xq.8.J ; ; m 8.0.>X=.1 P $.@ L L.K 4 CXCXCXCXCXCXCXCXCXCXCXCXCXCXCX",
"CXCXCXCXCXCXCXCXCXCX7 - 9 u - r % 4.yXY.G.2X5X5XqX9XMXqXJ n 0.8.; 1 r 2 - = %.>X=.r qX5X6 @ O , > *.CXCXCXCXCXCXCXCXCXCXCXCXCXCX",
"CXCXCXCXCXCXCXCXCX- 1 3 < < < $ O <.iXI.G.7X4XQ.0X0XgX9Xn m ;X*.- = ; 2 1 - *.>X#.y 8XQ.2 r , , 0 *.CXCXCXCXCXCXCXCXCXCXCXCXCXCX",
"CXCXCXCXCXCXCXCXi J 6 6 $ 6 6 6   p.fXV.m.Q.L.7XR.uXuXqXn m ;X8.q 1 4 - q ; *.>X%.t 8X5Xn < , x 0 %.CXCXCXCXCXCXCXCXCXCXCXCXCXCX",
"CXCXCXCXCXCXCXCX$.2X8XqX8XqXL.H.T./.oXlXfXU.G.P.L.7X4X4XJ m ;X5.- - 9 > u 7 r i 9 c K.F.$ ,.R.Y : u [ CXCXCXCXCXCXCXCXCXCXCXCXCX",
"CXCXCXCXCXCXCX4 =.sXsX9X0X0X7XE./.OXoXvXkXC.G.F.L.R.4X4Xy  .;X:.- > 5 > - r > > 0 , K.P.$ W  XW # > i CXCXCXCXCXCXCXCXCXCXCXCXCX",
"CXCXCXCXCXCXCXr $.rXsXsXgX0X7XT.~..XoXvXmXC.D.K.2X7X8X4X[ [ 0.:.> : . . < = 4 r - c 2XK.$ 4.yXT O - t CXCXCXCXCXCXCXCXCXCXCXCXCX",
"CXCXCXCXCXCXCX7 m q.9.2.3.3.<.N..XoXvXkXkX4.,.F.9.,.2.-., [ :.#.: Y j.F.3.= = ; 5 , *.-.. H h.j.F.x 5 #.CXCXCXCXCXCXCXCXCXCXCXCX",
"CXCXCXCXCXCXCXi = 4 < < : @ o Y kXoXvXxXzXs F 1X-., # , 5 > ; 5 d H. XmX0Xd 5 r > > ; 9 1 .   R.BXK : ; CXCXCXCXCXCXCXCXCXCXCXCX",
"CXCXCXCXCXCXCXo = . @ 3 : 3 : Y xXvXbXxXzXF J J.*.; ; : o @ > # + M.}.bX X  > 7 = r 9 7 > 5 + E.BXF @ 5 [ CXCXCXCXCXCXCXCXCXCXCX",
"CXCXCXCXCXCXCXK G B B N B d G Y fXiXhXhXuXF J F.1.m 1 3 K N G s s M.).oXiXd 4 q r - ; 0 p : N U.NX$.& F #.CXCXCXCXCXCXCXCXCXCXCX",
"CXCXCXCXCX9 J R.iXcXxXxXxXzX_.C.s x d d x @ % $ $.1XK 6 gXzXyXh.  n.).oX_.s : q = ; u u = 1.yXU.G.F.L.rXl.> CXCXCXCXCXCXCXCXCXCX",
"CXCXCXCXCXt d T.|.bXbXlXbXbX}.C.+ , : : : : 3 1 $.J.J N fXzX Xp.  m.`.oX`.s < 1 4 < 4 = X 4. XC.N.G.H.9Xc.. 3 r CXCXCXCXCXCXCXCX",
"CXCXCXCXCXy & T.}.oXvXoXbXkX[.B.d > > > 7 7 ; - *.3XK f |.oX^.a.  G.iXVXuX& r 7 ; 2 e 7 < 1._.C.M.F.H.gXN.. % = CXCXCXCXCXCXCXCX",
"CXCXCXCXCX5 N  XXX{.{.{.{.{..X!.* p  .r e w ( ( ' $.j.b.~.[.~.s.O =.:.c.q._ u / X.@.o.O.7 -.L.H.G.7XqX0XqXG.K.J.#.CXCXCXCXCXCXCX",
"CXCXCXCXCX6 F cXXX^.^.^.^.{.oX~.$ m #.u w ( ` ` ^ 5 m.).[.[.[.v.4 ) ~ @.O./ / / @.@X@X+.; $.P.D.P.0XgXgX9X0XMXrXJ r CXCXCXCXCXCX",
"CXCXCXCXCXCXd hXbX^.).^.^.}.bX_.3  .#._ w ( ~ ~ / > m.|.!.~.}.c.2 ( ] +X+.( 8 w o.$X$X+.e $.J.K.K.tXMXsX0XgXMXqX#.4 CXCXCXCXCXCX",
"CXCXCXCXCXCXCXE.E.V.V.V.V.V.T.H.6 _ CX' e 8 ^ ( w 4 <.C.Z.B.m.<.= ( ~ @.O.^ 7 e X.@.@.X.2 J 8.q.9.K.K.2X2XL.2XK.J 4 CXCXCXCXCXCX",
"CXCXCXCXCXCXCX6 O + O + + # # 6 #.CXCX_ q q e e 1 < , # # # + . 3 q ; w w 7 r 1 w w / ' ; > 5 3 : 3 = 3 3 X X 3 4 r CXCXCXCXCXCX",
"CXCXCXCXCXCXCXCX= r 1 4 > > > i CXCXCXCX7 1 2 2 2 1 5 t 0 0 , : = 1 - > 9 - 4 - - - 8 ' 0 9 > - = - = = > - 1 r - CXCXCXCXCXCXCX",
"CXCXCXCXCXCXCXCX7 u q q 7 7 8 CXCXCXCXCX' u u q 1 2 ; 8 8 u u 7 7 r u u 9 - > 1 q q w 0 9 9 7 q 1 r 7 7 q u 7 7 u CXCXCXCXCXCXCX",
"CXCXCXCXCXCXCXCXCXCXCX&.&.CXCXCXCXCXCXCXCXCXCXCXCX .#.....#._ [ #.[ _ [ #.[ #. .CXCXCXCXCXCXCXCXCXCXCXCXCXCXCXCXCXCXCXCXCXCXCXCX"
};
