/* XPM */
static char *xpm_[] = {
/* columns rows colors chars-per-pixel */
"64 64 240 2 ",
"   c #392D09",
".  c #2C2A1C",
"X  c #2B2617",
"o  c #332C1C",
"O  c #362A17",
"+  c #3B3312",
"@  c #3A331B",
"#  c #373619",
"$  c #322E0E",
"%  c #1C313C",
"&  c #2C2C23",
"*  c #2D2C2C",
"=  c #272B26",
"-  c #322D24",
";  c #3A2C22",
":  c #352E2B",
">  c #382626",
",  c #2C3124",
"<  c #2C312B",
"1  c #25312E",
"2  c #333324",
"3  c #3B3424",
"4  c #33322B",
"5  c #3B332A",
"6  c #3C3B2D",
"7  c #3C3925",
"8  c #2D2C33",
"9  c #2A2D3B",
"0  c #252C39",
"q  c #322D33",
"w  c #3A2934",
"e  c #2C3233",
"r  c #2C333B",
"t  c #263438",
"y  c #343333",
"u  c #3A3533",
"i  c #3C3B35",
"p  c #34333A",
"a  c #3B3A3D",
"s  c #36393A",
"d  c #46350C",
"f  c #43391B",
"g  c #453817",
"h  c #452C16",
"j  c #722D1C",
"k  c #681C26",
"l  c #751835",
"z  c #731830",
"x  c #463A28",
"c  c #433C37",
"v  c #502B31",
"b  c #66232A",
"n  c #6D2A34",
"m  c #591E20",
"M  c #3C4337",
"N  c #5D520D",
"B  c #544419",
"V  c #544915",
"C  c #67550B",
"Z  c #6B4C19",
"A  c #665816",
"S  c #6A4E10",
"D  c #786A1A",
"F  c #4A4426",
"G  c #564A27",
"H  c #5A5329",
"J  c #454337",
"K  c #554B35",
"L  c #595438",
"P  c #4E533D",
"I  c #665729",
"U  c #755C23",
"Y  c #755B27",
"T  c #675A35",
"R  c #714B28",
"E  c #786A28",
"W  c #796C38",
"Q  c #766E38",
"!  c #1D3851",
"~  c #2A2D48",
"^  c #2B3343",
"/  c #25344B",
"(  c #283646",
")  c #393842",
"_  c #263652",
"`  c #353B53",
"'  c #283E64",
"]  c #423D45",
"[  c #54355A",
"{  c #7C3547",
"}  c #673A61",
"|  c #354250",
" . c #2A4766",
".. c #365778",
"X. c #354F69",
"o. c #494847",
"O. c #504E4B",
"+. c #4A5445",
"@. c #555648",
"#. c #484B58",
"$. c #4D5457",
"%. c #59585A",
"&. c #524E55",
"*. c #6D5750",
"=. c #756C59",
"-. c #746C4F",
";. c #485867",
":. c #445874",
">. c #505371",
",. c #6C5166",
"<. c #57616D",
"1. c #777669",
"2. c #7A7774",
"3. c #6C6F6A",
"4. c #5B615D",
"5. c #811B32",
"6. c #8A2939",
"7. c #94273B",
"8. c #87323D",
"9. c #875432",
"0. c #836A28",
"q. c #8A752A",
"w. c #877737",
"e. c #8E6B31",
"r. c #A8713D",
"t. c #871E41",
"y. c #8A2A46",
"u. c #933146",
"i. c #A12B41",
"p. c #877A48",
"a. c #887759",
"s. c #A96F57",
"d. c #817B6B",
"f. c #867B77",
"g. c #956D6B",
"h. c #8C505E",
"j. c #7E846D",
"k. c #7E8170",
"l. c #9A8839",
"z. c #A28C3F",
"x. c #8B834A",
"c. c #998847",
"v. c #978859",
"b. c #8C8752",
"n. c #A99649",
"m. c #B6984C",
"M. c #A7975B",
"N. c #B49B59",
"B. c #AB8D48",
"V. c #B7A449",
"C. c #B8A459",
"Z. c #AEA05A",
"A. c #868668",
"S. c #968B66",
"D. c #99916B",
"F. c #8A8976",
"G. c #928878",
"H. c #869275",
"J. c #999778",
"K. c #A79A65",
"L. c #B39D61",
"P. c #A39B78",
"I. c #B7A66A",
"U. c #A8A579",
"Y. c #BAAC77",
"T. c #BDB178",
"R. c #B8AC6D",
"E. c #D4BB4B",
"W. c #C9B85C",
"Q. c #D5BA58",
"!. c #C8AC65",
"~. c #CCBB6D",
"^. c #CAB768",
"/. c #D5BC64",
"(. c #D5B969",
"). c #C9B876",
"_. c #D3BC77",
"`. c #C7AF75",
"'. c #CA9B4B",
"]. c #D8C35A",
"[. c #CEC265",
"{. c #DBC56D",
"}. c #D9C576",
"|. c #CEC371",
" X c #E5CA66",
".X c #EAD67B",
"XX c #F6D87A",
"oX c #EBD26E",
"OX c #F9E379",
"+X c #395987",
"@X c #355D94",
"#X c #2E5B93",
"$X c #3A6794",
"%X c #316CAB",
"&X c #4C5382",
"*X c #48638A",
"=X c #797B85",
"-X c #677987",
";X c #4165A3",
":X c #857D86",
">X c #768389",
",X c #708896",
"<X c #898886",
"1X c #9B9887",
"2X c #8F8D90",
"3X c #A48C91",
"4X c #9FA48A",
"5X c #A3A283",
"6X c #A4A38B",
"7X c #A9A684",
"8X c #B7A786",
"9X c #B9B98A",
"0X c #A8A895",
"qX c #B8B897",
"wX c #B0B69E",
"eX c #B8BAA6",
"rX c #B5B3A9",
"tX c #C9BB87",
"yX c #C5BC98",
"uX c #CFB585",
"iX c #C4BDA8",
"pX c #CDB6B1",
"aX c #B9C2AD",
"sX c #BEC098",
"dX c #D8C686",
"fX c #D4CD94",
"gX c #E6D389",
"hX c #F3DB83",
"jX c #FBDB88",
"kX c #EAD998",
"lX c #F2D691",
"zX c #EEE189",
"xX c #F9E288",
"cX c #F5E395",
"vX c #F9E696",
"bX c #C5C4A5",
"nX c #D9CFAC",
"mX c #F0D5A9",
"MX c #F6E7A4",
"NX c None",
/* pixels */
"NXNXNXNXNXNXNXNXNXNXNXNXNXNXNXNXNXNXNXNXNXNXNXNXNXNXNXNXNXNXNXNXNXNXNXNXNXNXNXNXNXNXNXNXNXNXNXNXNXNXNXNXNXNXNXNXNXNXNXNXNXNXNXNX",
"NXNXNXNXNXNXNXNXNXNXNXNXNXNXNXNXNXNXNXNXNXNXNXNXNXNXNXNXNXNXNXNXNXNXNXNXNXNXNXNXNXNXNXNXNXNXNXNXNXNXNXNXNXNXNXNXNXNXNXNXNXNXNXNX",
"NXNXNXNXNXNXNXNXNXNXNXNXNXNXNXNXNXNXNXNXNXNXNXNXNXNXNXNXNXNXNXNXNXNXNXNXNXNXNXNXNXNXNXNXNXNXNXNXNXNXNXNXNXNXNXNXNXNXNXNXNXNXNXNX",
"NXNXNXNXNXNXNXNXNXNXNXNXNXNXNXNXNXNXNXNXNXNXNXNXNXNXNXNXNXNXNXNXNXNXNXNXNXNXNXNXNXNXNXNXNXNXNXNXNXNXNXNXNXNXNXNXNXNXNXNXNXNXNXNX",
"NXNXNXNXNXNXNXNXNXNXNXNXNXNXNXNXNXNXNXNXNXNXNXNXNXNXNXNXNXNXNXNXNXNXNXNXNXNXNXNXNXNXNXNXNXNXNXNXNXNXNXNXNXNXNXNXNXNXNXNXNXNXNXNX",
"NXNXNXNXNXNXNXNXNXNXNXNXNXNXNXNXNXNXNXNXNXNXNXNXNXNXNXNXNXNXNXNXNXNXNXNXNXNXNXNXNXNXNXNXNXNXNXNXNXNXNXNXNXNXNXNXNXNXNXNXNXNXNXNX",
"NXNXNXNXNXNXNXNXNXNXNXNXNXNXNXNXNXNXNXNXNXNXNXNXNXNXNXNXNXNXNXNXNXNXNXNXNXNXNXNXNXNXNXNXNXNXNXNXNXNXNXNXNXNXNXNXNXNXNXNXNXNXNXNX",
"NXNXNXNXNXNXNXNXNXNXNXNXNXNXNXNXNXNXNXNXNXNXNXNXNXNXNXNXNXNXNXNXNXNXNXNXNXNXNXNXNXNXNXNXNXNXNXNXNXNXNXNXNXNXNXNXNXNXNXNXNXNXNXNX",
"NXNXNXNXNXNXNXNXNXNXNXNXNXNXNXNXNXNXNXNXNXNXNXNXNXNXNXNXNXNXNXNXNXNXNXNXNXNXNXNXNXNXNXNXNXNXNXNXNXNXNXNXNXNXNXNXNXNXNXNXNXNXNXNX",
"NXNXNXNXNXNXNXNXNXNXNXNXNXNXNXNXNXNXNXNXNXNXNXNXNXNXNXNXNXNXNXNXNXNXNXNXNXNXNXNXNXNXNXNXNXNXNXNXNXNXNXNXNXNXNXNXNXNXNXNXNXNXNXNX",
"NXNXNXNXNXNXNXNXNXNXNXNXNXNXNXNXNXNXNXNXNXNXNXNXNXNXNXNXNXNXNXNXNXNXw w NXNXNXNXNXNXNXNXNXNXNXNXNXNXNXNXNXNXNXNXNXNXNXNXNXNXNXNX",
"NXNXNXNXNXNXNXNXNXNXNXNXNXNXNXNXNXNXNXNXNXNXNXNXNXNXNXNXNXNXNXNXNXv v v v NXNXNXNXNXNXNXNXNXNXNXNXNXNXNXNXNXNXNXNXNXNXNXNXNXNXNX",
"NXNXNXNXNXNXNXNXNXNXNXNXNXNXNXNXNXNXNXNXNXNXNXNXNXNXNXNXNXNX* w w v n { { w v NXNXNXNXNXNXNXNXNXNXNXNXNXNXNXNXNXNXNXNXNXNXNXNXNX",
"NXNXNXNXNXNXNXNXNXNXNXNXNXNXNXNXNXNXNXNXNXNXNXNXNXNXNXNX= > : > v b z u.{ m > & NXNXNXNXNXNXNXNXNXNXNXNXNXNXNXNXNXNXNXNXNXNXNXNX",
"NXNXNXNXNXNXNXNXNXNXNXNXNXNXNXNXNXNXNXNXNXNXNXNXNXNXNXNXO.@.*.x m n z 7.n k c ,.&.NXNXNXNXNXNXNXNXNXNXNXNXNXNXNXNXNXNXNXNXNXNXNX",
"NXNXNXNXNXNXNXNXNXNXNXNXNXNXNXNXNXNXNXNXNXNXNXNXNXNXNXO.<X0XrXh.m 6.i.i.u.8.g.pX2.q p NXNXNXNXNXNXNXNXNXNXNXNXNXNXNXNXNXNXNXNXNX",
"NXNXNXNXNXNXNXNXNXNXNXNXNXNXNXNXNXNXNXNXNXNXNXNXNX0 0 &.2X0XpX*.k 5.i.i.i.u.s.pX2.e t NXNXNXNXNXNXNXNXNXNXNXNXNXNXNXNXNXNXNXNXNX",
"NXNXNXNXNXNXNXNXNXNXNXNXNXNXNXNXNXNXNXNXNXNXNXNX% ! ' :.-X>X3X,.k 7.i.7.t.i.h.:X<. . .| NXNXNXNXNXNXNXNXNXNXNXNXNXNXNXNXNXNXNXNX",
"NXNXNXNXNXNXNXNXNXNXNXNXNXNXNXNXNXNXNXNXNXNXNXr ! ' #X#X@X+X&X[ l u.y.5.5.u.,.&X;X%X%X$X| NXNXNXNXNXNXNXNXNXNXNXNXNXNXNXNXNXNXNX",
"NXNXNXNXNXNXNXNXNXNXNXNXNXNXNXNXNXNXNXNXNXNXNX1 / ' #X#X#X+X:.[ l 7.u.5.t.y.} &X$X%X%X;X( NXNXNXNXNXNXNXNXNXNXNXNXNXNXNXNXNXNXNX",
"NXNXNXNXNXNXNXNXNXNXNXNXNXNXNXNXNXNXNXNXNXNX4 s %.<.=X,X,X>X<X{ l y.l l 6.7.h.3X,X,X,X,XM NXNXNXNXNXNXNXNXNXNXNXNXNXNXNXNXNXNXNX",
"NXNXNXNXNXNXNXNXNXNXNXNXNXNXNXNXNXNXNXNXNX* & i f.3XeXrXeXeXuX9.k l l l 5.8.s.mXnXaXaXaX@.NXNXNXNXNXNXNXNXNXNXNXNXNXNXNXNXNXNXNX",
"NXNXNXNXNXNXNXNXNXNXNXNXNXNXNXNXNXNXNXNXNX1 * i f.3XiXbXaXqX`.9.m k l b k 5.r.mXmXrXaXaXP NXNXNXNXNXNXNXNXNXNXNXNXNXNXNXNXNXNXNX",
"NXNXNXNXNXNXNXNXNXNXNXNXNXNXNXNXNXNXNXNXNX@.@.%.a.a.S.F.H.7X`.m.s.R j j 9.r.'.jXuX<X2X2X| NXNXNXNXNXNXNXNXNXNXNXNXNXNXNXNXNXNXNX",
"NXNXNXNXNXNXNXNXNXNXNXNXNXNXNXNXNXNXNX< =.H.H.j.T H P P $.F.~.XXvXe.Z Z 9.(. XjXM.P <.*X| NXNXNXNXNXNXNXNXNXNXNXNXNXNXNXNXNXNXNX",
"NXNXNXNXNXNXNXNXNXNXNXNXNXNXNXNXNXNXNXs 3.H.H.A.H H P P $.F.uXXXhXq.S S 0.!. XvXZ.G :.*X_ NXNXNXNXNXNXNXNXNXNXNXNXNXNXNXNXNXNXNX",
"NXNXNXNXNXNXNXNXNXNXNXNXNXNXNXNXNXNXNX^ #.<.<.%.H Q M.j.@.=.v.B.m.B.B.n.n.z.l.n.Z.D.j.;.X.X.NXNXNXNXNXNXNXNXNXNXNXNXNXNXNXNXNXNX",
"NXNXNXNXNXNXNXNXNXNXNXNXNXNXNXNXNXNXNXr ~ / ~ r F l.zXC.H H B Z Z N.(.jX(.C Z N n.MXA.+.....( NXNXNXNXNXNXNXNXNXNXNXNXNXNXNXNXNX",
"NXNXNXNXNXNXNXNXNXNXNXNXNXNXNXNXNXNXNX9 r ^ / ) P w.xXC.C A N C Z !.(.xXdXC A N n.cXb.P :...^ NXNXNXNXNXNXNXNXNXNXNXNXNXNXNXNXNX",
"NXNXNXNXNXNXNXNXNXNXNXNXNXNXNXNXNXNXNXp &.<.<.4.L Q [.W.l.c.B.D A './.XX}.A E c.W.hXc.L >X,X| NXNXNXNXNXNXNXNXNXNXNXNXNXNXNXNXNX",
"NXNXNXNXNXNXNXNXNXNXNXNXNXNXNXNXNXNXNXp 1.1X<XA.H D ].].Q.(.(.q.C V.{.XX(.U q./. XxXc.Z U.iXo.NXNXNXNXNXNXNXNXNXNXNXNXNXNXNXNXNX",
"NXNXNXNXNXNXNXNXNXNXNXNXNXNXNXNXNXNXNX* 3.<XS.a.N D [.].Q./.~.w.C C.(.jXdXR w.~.oXxXv.G `.8XJ NXNXNXNXNXNXNXNXNXNXNXNXNXNXNXNXNX",
"NXNXNXNXNXNXNXNXNXNXNXNXNXNXNXNXNXNXy < o.@.T W z.l.q.B.^.r.W G B Q p.c.p.B F Q x.x.T x -.p.6 NXNXNXNXNXNXNXNXNXNXNXNXNXNXNXNXNX",
"NXNXNXNXNXNXNXNXNXNXNXNXNXNXNXNXNX8 4 - . o L U W.V.A w.|.E X X @ F Z G G O $ X # L F   G K 5 NXNXNXNXNXNXNXNXNXNXNXNXNXNXNXNXNX",
"NXNXNXNXNXNXNXNXNXNXNXNXNXNXNXNXNXp : o # $ B 0.W.m.N q._.W O x o K I L K O 2 o F L f + x K 2 a NXNXNXNXNXNXNXNXNXNXNXNXNXNXNXNX",
"NXNXNXNXNXNXNXNXNXNXNXNXNXNXNXNXNXw -.v.v.v.Y U W.m.C l.^.W h X x a.K.`.J.3 2 . x L b.U.T x 4 4 NXNXNXNXNXNXNXNXNXNXNXNXNXNXNXNX",
"NXNXNXNXNXNXNXNXNXNXNXNXNXNXNXNXNXO x.|.R.W.D U !.m.N w.|.w.O > + Z.{.vXuXx h ; x H T.MXL X y a NXNXNXNXNXNXNXNXNXNXNXNXNXNXNXNX",
"NXNXNXNXNXNXNXNXNXNXNXNXNXNXNXNXNX$ w.[./.^.E U `.C.A w.W.q.d h d V.].OX).h     x I !.kXY + O x NXNXNXNXNXNXNXNXNXNXNXNXNXNXNXNX",
"NXNXNXNXNXNXNXNXNXNXNXNXNXNXNXNXNX$ c.|.W A C.!.w.E A q.W.V.n.B.n.Q.E.oX.Xm.n.n.p.Z I.MX).).^.D.J NXNXNXNXNXNXNXNXNXNXNXNXNXNXNX",
"NXNXNXNXNXNXNXNXNXNXNXNXNXNXNXNXNXo x.T.T d dXgXI H A Q [./.~.(.(.W.].OX.XW.W.[.a.Z !.vXcXvXzXdX@ NXNXNXNXNXNXNXNXNXNXNXNXNXNXNX",
"NXNXNXNXNXNXNXNXNXNXNXNXNXNXNXNXNX. x.tXL x dXdXT L H b.).).`.`.).`.~.lXdX).~.~.v.R R.cXkXcXxX_.7 ] NXNXNXNXNXNXNXNXNXNXNXNXNXNX",
"NXNXNXNXNXNXNXNXNXNXNXNXNXNXNXNXNX6 # G =.=.T I f 3 3 L S.v.K.S.S.T V I Q v.S.D.*.h H I Z Y ^.Y.3 a NXNXNXNXNXNXNXNXNXNXNXNXNXNX",
"NXNXNXNXNXNXNXNXNXNXNXNXNXNXNXNX) 8 ; 3 3.f.J X 2 : < O.F.f.f.:X:Xc , . c d.F.f.@.o o o ; g I.M.3 a NXNXNXNXNXNXNXNXNXNXNXNXNXNX",
"NXNXNXNXNXNXNXNXNXNXNXNXNXNXNXNXc 4 ; @ =.F.K 2 2 4 4 O.2.f.:X:X=X] e < #.=X=X:X*.& - u q x I.I.3 ] NXNXNXNXNXNXNXNXNXNXNXNXNXNX",
"NXNXNXNXNXNXNXNXNXNXy y y y y , Q P.D.=.J.J.A.D.7X5X6Xj.] 4.:XO.s 4 < < 1 | $.:X%., j.4XM , x F - a NXNXNXNXNXNXNXNXNXNXNXNXNXNX",
"NXNXNXNXNXNXNXNX8 4 4 * , 4 2 $ E _.I.v.J.U.U.U.9XqXbXj.o %.<Xo.& , , < & 4 o.:X%.= j.aX@.2 ; h - ] NXNXNXNXNXNXNXNXNXNXNXNXNXNX",
"NXNXNXNXNXNXNXo.e 4 4 6 5 2 # + E ~.I.v.P.P.4XU.qXiXeXd.: %.>XO.- u : < = 8 O.:X%.< j.wX@.. F O : a &.NXNXNXNXNXNXNXNXNXNXNXNXNX",
"NXNXNXNXNXNXy 2.wX0X0X0X4XJ.J.I._.hXgXgX7XF.H.J.7X7X7X1.: %.>X#.q * * e e y 8 a s - j.4XP # K.D.5 - a NXNXNXNXNXNXNXNXNXNXNXNXNX",
"NXNXNXNXNXNX& F.bXeXqXsXeXU.R.~.oXjXxXzXK.H.F.F.U.U.6X1.2 %.NX#.8 q M , = e * * 5 o 1.1XF + T.L.f - 5 ] NXNXNXNXNXNXNXNXNXNXNXNX",
"NXNXNXNXNXNX4 j.qX0XqXqXqXD.I.^.oXOXXXzXI.d.F.G.J.J.1X=., @.>X#.: 7 # 7 M = e y - - 2.4XJ F M.K.F f o i NXNXNXNXNXNXNXNXNXNXNXNX",
"NXNXNXNXNXi X M J 6 6 c M $ Q lXXXxXOXcX-.x 1.2.x 6 c i . 4 J 2 g v.T.gXR.# - 8 y < * p y 6 3 T bXP.7 4 ) NXNXNXNXNXNXNXNXNXNXNX",
"NXNXNXNXNXM $ # $ 3 ; X + $ Q kXvXxXhXkX*.3 d.F.y 4 & . 2 o X - d M.^.zX|.+ 4 8 * < 4 y 9 8 . L mX9X$ o q NXNXNXNXNXNXNXNXNXNXNX",
"NXNXNXNXNXx B g f B x B B g Q fXgXdXkXnX*.2 1.3.M i - 3 F B F h d L.{.jX_.+ : r < , , , e , F H fXU.# x J o.NXNXNXNXNXNXNXNXNXNX",
"NXNXNXNXa -.9XdXkXkXmXmXdX).v.g d g x x 2 2 2 J k.3.. -.fX|.uXI   M.(.jXuXg - 0 2 . < y = 6 K.R.K.D.A.J.rX4.q NXNXNXNXNXNXNXNXNX",
"NXNXNXNX& *._.oXxXXXjXxXhX_.K.  2 - , , , , = M F.1.X a.MX}._.R h K.}.jXuXx 2 < o 7 < 8 ~ v L.^.b.A.S.U.yX-.# 2 q NXNXNXNXNXNXNX",
"NXNXNXNX> p.(. XOXOXXXoXXX/.M.+ 4 8 p e e e 1 s 2.3.F p.zX X(.U $ G.Y.nX8X3 < e t r ~ ` 9 c I.I.D.J.S.U.yX-.F M J NXNXNXNXNXNXNX",
"NXNXNXNX; a.vX XE.E.Q.E.].jXY.+ 5 o.s 1 / _ / ^ 8 L T.R.Q.E.^.E 2 r ` :.;.9 1 t  .+X+X&X( u A.b.G.J.iX9X9X9X9XqXwX] NXNXNXNXNXNX",
"NXNXNXNX; S.vX{.Q.E./.Q. XvXY.O c NX) % / ! / ~ q L ).[.W./._.T & (  ...:.^ 0 / ' #X#X+X( y k.1XF.1XiXiXfXbXqXaXeXo.8 NXNXNXNXNX",
"NXNXNXNXNXa.tXT.M.L.L.M.I.dXD.5 ] NXs 1 t / / ^ * K M.Z.Z.Z.M.H , r _ X.| r 9 9  .....X.s M 4.1.2.A.6X6XJ.5X5X6X1Xo.y NXNXNXNXNX",
"NXNXNXNXNXJ f + + + @ + $ # J NXNXNXNX* t t ( 9 * 5 B     $ + # o 1 % ( ( 8 8 0 / ! ! % 1 < s u - o 7 2 6 2 5 4 - & NXNXNXNXNXNX",
"NXNXNXNXNXNX& : u - - 4 & - u NXNXNXNXe e e 9 0 & - o o 3 2 & 4 4 4 0 e r e y r 0 0 t 1 < < 8 * u , : * * q * * y y NXNXNXNXNXNX",
"NXNXNXNXNXNXNXNXNXNXa s r NXNXNXNXNXNXNXs p ) ) s u u u p p p 8 p p u p y u y p ) ^ s y 4 y p ) p y p a NXNXNXNXNXNXNXNXNXNXNXNX",
"NXNXNXNXNXNXNXNXNXNXNXNXNXNXNXNXNXNXNXNXNXNXNXNXNXNXNXNXNXNXNXNXNXNXNXNXNXNXNXNXNXNXNXNXNXNXNXNXNXNXNXNXNXNXNXNXNXNXNXNXNXNXNXNX",
"NXNXNXNXNXNXNXNXNXNXNXNXNXNXNXNXNXNXNXNXNXNXNXNXNXNXNXNXNXNXNXNXNXNXNXNXNXNXNXNXNXNXNXNXNXNXNXNXNXNXNXNXNXNXNXNXNXNXNXNXNXNXNXNX"
};
