/* XPM */
static char *xpm_[] = {
/* columns rows colors chars-per-pixel */
"64 64 254 2 ",
"   c #0A0D07",
".  c #0F0F0F",
"X  c #070D08",
"o  c #120F0C",
"O  c #1A0E07",
"+  c #0D130B",
"@  c #0F180E",
"#  c #12120D",
"$  c #1B120C",
"%  c #13180E",
"&  c #1C140A",
"*  c #0E0F11",
"=  c #120E12",
"-  c #0F1012",
";  c #141114",
":  c #1C1413",
">  c #141C12",
",  c #1B151B",
"<  c #171519",
"1  c #3A0D08",
"2  c #231307",
"3  c #241409",
"4  c #2B160A",
"5  c #231A0F",
"6  c #2D190C",
"7  c #2B1405",
"8  c #341B0D",
"9  c #3A1D0E",
"0  c #33150C",
"q  c #231612",
"w  c #241B14",
"e  c #2C1C15",
"r  c #24191B",
"t  c #2C1D1C",
"y  c #23151A",
"u  c #341C13",
"i  c #3B1E11",
"p  c #341D1A",
"a  c #381A1A",
"s  c #210E09",
"d  c #1B2115",
"f  c #1C2A1C",
"g  c #152318",
"h  c #3C210D",
"j  c #232215",
"k  c #2D2215",
"l  c #23251A",
"z  c #242B1D",
"x  c #2B261B",
"c  c #322216",
"v  c #3D2112",
"b  c #35231C",
"n  c #3A211C",
"m  c #352A1D",
"M  c #3A2A1B",
"N  c #1C1A23",
"B  c #2C1E24",
"V  c #231D26",
"C  c #331C23",
"Z  c #1D3228",
"A  c #2A2D22",
"S  c #26212A",
"D  c #2A222B",
"F  c #282A23",
"G  c #352524",
"H  c #3B2522",
"J  c #3C2A24",
"K  c #3E2A2A",
"L  c #342A27",
"P  c #243123",
"I  c #2C3224",
"U  c #2B372A",
"Y  c #3E3025",
"T  c #34372A",
"R  c #2A2732",
"E  c #322932",
"W  c #392B34",
"Q  c #373435",
"!  c #2B3C30",
"~  c #450907",
"^  c #441A0B",
"/  c #411F11",
"(  c #481F14",
")  c #55150B",
"_  c #6C190E",
"`  c #46230D",
"'  c #442212",
"]  c #4B2514",
"[  c #4D2A16",
"{  c #44241B",
"}  c #4B261A",
"|  c #422C1E",
" . c #4E2919",
".. c #512615",
"X. c #532916",
"o. c #5A2C15",
"O. c #522619",
"+. c #542A1A",
"@. c #5C2D1C",
"#. c #5A3319",
"$. c #552908",
"%. c #622E1D",
"&. c #682818",
"*. c #64321E",
"=. c #6A321D",
"-. c #6A3A1A",
";. c #763A1C",
":. c #732317",
">. c #432423",
",. c #432B24",
"<. c #432B2A",
"1. c #4C2B2A",
"2. c #4B2A24",
"3. c #5C2E21",
"4. c #532D2B",
"5. c #542D23",
"6. c #433125",
"7. c #4C302C",
"8. c #4A3528",
"9. c #5C3222",
"0. c #5D342C",
"q. c #5B3B2D",
"w. c #563429",
"e. c #463433",
"r. c #5B3632",
"t. c #593836",
"y. c #452730",
"u. c #632E21",
"i. c #643222",
"p. c #6C3422",
"a. c #6C3A22",
"s. c #623B2C",
"d. c #663929",
"f. c #723623",
"g. c #753A25",
"h. c #7B3C25",
"j. c #75392C",
"k. c #7D3B2A",
"l. c #753629",
"z. c #643C33",
"x. c #653737",
"c. c #743B38",
"v. c #3A4233",
"b. c #68461B",
"n. c #78461C",
"m. c #7D511A",
"M. c #564731",
"N. c #6B442D",
"B. c #694329",
"V. c #7B4222",
"C. c #774629",
"Z. c #775629",
"A. c #6C4432",
"S. c #6A4537",
"D. c #734C34",
"F. c #774738",
"G. c #695036",
"H. c #7A5538",
"J. c #7F6132",
"K. c #3D3648",
"L. c #453947",
"P. c #7D3F40",
"I. c #4A4446",
"U. c #594851",
"Y. c #684647",
"T. c #774A46",
"R. c #7B5944",
"E. c #635556",
"W. c #775C53",
"Q. c #704E4E",
"!. c #5A4F67",
"~. c #69576A",
"^. c #656264",
"/. c #756A6B",
"(. c #66605D",
"). c #8D3819",
"_. c #833E2C",
"`. c #863E2C",
"'. c #843F31",
"]. c #86491C",
"[. c #844526",
"{. c #85412B",
"}. c #8B442C",
"|. c #8D492A",
" X c #874A26",
".X c #934D2C",
"XX c #994E2E",
"oX c #91432D",
"OX c #8D5428",
"+X c #96512B",
"@X c #9C542D",
"#X c #9E592C",
"$X c #945928",
"%X c #8C4331",
"&X c #884636",
"*X c #924632",
"=X c #944A32",
"-X c #9B4D33",
";X c #964B3B",
":X c #855939",
">X c #9D5132",
",X c #975534",
"<X c #A45C2E",
"1X c #A85F2E",
"2X c #A3562E",
"3X c #A35532",
"4X c #A55A31",
"5X c #AB5D31",
"6X c #A75A39",
"7X c #83643B",
"8X c #896739",
"9X c #926831",
"0X c #AD632E",
"qX c #A9662A",
"wX c #B2652E",
"eX c #B36B2E",
"rX c #BB6D2F",
"tX c #BC752D",
"yX c #BD7B2B",
"uX c #B4712A",
"iX c #AC6233",
"pX c #AA6636",
"aX c #B16531",
"sX c #B46B32",
"dX c #BA6D31",
"fX c #B16538",
"gX c #A57636",
"hX c #B97333",
"jX c #AF762C",
"kX c #A4461A",
"lX c #C17C2E",
"zX c #C5782B",
"xX c #C57B31",
"cX c #975355",
"vX c #8E4E47",
"bX c #A75E56",
"nX c #886747",
"mX c #957845",
"MX c #896A55",
"NX c #93704F",
"BX c #A66946",
"VX c #9C5868",
"CX c #9B8B3F",
"ZX c #C9852C",
"AX c #C7862B",
"SX c #D18E2A",
"DX c #CC942A",
"FX c #D3922B",
"GX c #DA9D2B",
"HX c #CC8732",
"JX c #DDA428",
"KX c #E2AE29",
"LX c #9B844E",
"PX c #A28E51",
/* pixels */
". . o * + . . . . . . . . . . ; * * o * . $ 2 2 3 o.d   > o.4 4 8 ).$X+X).' v 3 2 2 O # . . . . . . . . * o . . . . + * * . . . ",
". . . . * o . . . . . . . . . . + * * # $ 2 2 O 7 =.o.@.a.&.8 k.E.T.V.[.T.U.=X6 & & 2 $ # . . . . . . . . . . . . . . . o * . . ",
"; . . . . * ; . . . . . . . . . + * O & O O 7 h p 4.vXaXJX4XO.i ,XjXkXSX).hXV.7 h 7 $ O O o . . . * . o . . o . . . . . . . o * ",
". . . . . * o . . . . . . . ; . . $ X.#.b.7XA.#XNX8.b |.tX}.4X9 v <X&.qX:.$X#. X,XD.J.-.o.{ $ . . # . * . . * . . ; . . . . + * ",
". . . . . . . . . * * * . . . q { #.D.N.F.N.R.S.Y.D.<.( l.@.p.@.i %.C 3.H O. .A.C.9XB.D.N.A.#.{ e . . . . . * . . . ; . . . . . ",
". . . . . . . . . o * = o . n 5.5.w.w.t.K 3.C.d.N.&X$X9XOX=X#X4X3X<X@XOX$XqX$X{.C.4.w.s.A.s.0.5.5.p . . ; . * o . . . . . . . . ",
". + * . . . . . . . o X ; <.s.D.B.t.,.t B 0.|.F.F.G.Z.Z.N.F.,XsXlXrX=XF.B.Z.Z.H.F.c.5.9 n ,.4.x.z.r.<.; X ; . * . . . . . . . . ",
". . . . . . . . # . * H q.S.A.q.1.>.i.a.+.+.<.c.F.W.e.Q Q.B.l.5XFX0Xp.q.Q.e.Q W.:XF.{ =.h.g.b >.4.z.x.q.,.* . + . . . . . . . . ",
". . . . * * * + . * ,.S.C.B.B.4.u {.1XV.[.G 5.c.,XhXAXDXKXjX0XyXKXyX[.k.dXHXDXHX=XP.H @.=.+Xg.H 1.z.d.B.A.1.* X ; o . . . . o . ",
". . . . . o . . p 1.B.A.z.t.r.>.p i.<X[.u.1.x.;XlXDXJXKXJXSXAX$XqX#XpX&X;XzXGXAXpXcXi.i p.+X+.q p 1.r.s.N.N.7.b . * . . . . . * ",
". * . . . . o >.0.s.N.s.s.s.r.1.1.p f. X[.v <.T.6XZXFXSXAXiX2XqX+X$X|.&XP.-X0XBXVX;X@.h.;.=.8 #.q.D.H.M.q.C.N.N.>.. . . o . . . ",
". o . . . $ { z.A.N.B.B.B.0.0.4.4.2.b n q $ 8 f.cXbXpXdXdXiXtXyXyXjX2X-X*X'.vXvX&X=.i e B.$XnXnX(.9X8XnX8XG.N.S.z.2.# . * . . . ",
". . . . $ 8 4.0.s.d.w.w.2.4.1.4.5.1.>.a a q 2 8 =.{.P.c.F.+XqXlXDXyX$Xn.u.4.4.X.^ q 9.NX^.S.e.B p y , a G.LXjX9.z.S.i $ . * . . ",
". . $ 2 3 ,.s.s.d.B.N.D.A.s.0.1.>.C.C.5.u q q 5 7 9 ' } { i / 2XtX<X9 8 9 0 6 Q I.nX^.S.G C 4.r.q.0.2.a b R.LXw.9.s.>.2 2 $ . . ",
". $ 2 2 3 ,.D.H.mXmXPXPXNXMXR.t.#.V.<XdX&XB.[ a O ] ' *.`.`.*.qXlXuXo.l.oXl.' E Q 5.G X.C.H.:XT.D.S.E.H./.gXY.r.N.s.{ 2 2 2 # o ",
"2 2 2 2 2 3 e G F.NXmXLXPXmXnXY. X$X].w.Y.9XBX6Xn..X%.u.'.*X}.eXFXtXf.XX5Xl.} ` e.Z.nXMXNXE.9XE.:XI.G.M.e.n 2.4.b e 2 2 2 2 2 2 ",
"2 2 2 3 9 8 + X 0 1 6 0.H.nXH.C._ O._ a p C C t.vXeXtXOX;.%. .AXJXZX@.z.d.Z.^.NX:XM.w.L y.M.M.M.M.q.8.>.H q : $ 2 4 2 2 2 2 2 2 ",
"2 2 2 7 p.@.P P O.1 0 8 b 2.<.eXj.wX=.u z.D.B.5.H 4 #.#XqXeX;.V.OXC.B.NX^.$X#.p 0 O u 9.D.8X8XgXgX7XD.x.~ 3 @ > +.f.8 3 2 2 2 2 ",
"2 2 & 6 3X{.T ! M._ ) ( 9 *.NXT.MXT.c 4.D.7XnXD.0.4 8 Y ' -.BXpX XF.U.-.u u 8.=.X.0 1.D.:X7X7X7X7XD.S.a 1 ] f f k.-X8 7 2 2 3 2 ",
"2 2 2 9 i.iX,XQ Z q.&.( ( qX|.eX@Xn b S.R.nXnXD.q.3 | =.) K.5.s.n.0XsXn.&.:.C.q.8 u r.H.J.7X7X8XR.z.b 0 k f ! G.3X@.0 0 3 2 2 2 ",
"2 2 / ] 4 *.#XpXJ.I.v.F ~ 9 ) &.) 7 4 p q.H.7XD.9.' W.W.pX!.{ 3 # u *.#XeXqX$X*.4 ' A.:X7XH.A.G t j l T v.H.pX.Xo.8 ' 9 7 3 3 2 ",
"2 8 o.@.X.9 u @.n.OX-.m.) -.~ =.) 0 h ' ;.[ $.$.Q.NXgXL.5.' ' _ [.:.&.1 c a.qXzX$X+.` $.n.` ( ..b.[. X XV.-.' 7 8 ] ' ' u 7 2 2 ",
"3 ..%.=.p.f.f.@.] ( K.9.e.d.I.@.4 8 8 i p.k.~.nX9XK.2 7 k  .8.-.N.[.M.%.,.i 2 #.qXeX.XOX=. .*.g.].m.b.b.b.-.i.g.g.%.+.] h 3 2 2 ",
"2 ] u.k..X4X0XaX<X.XR.e Y.{ Y.] 7 8 f.<XjXpXMXMXh.].o.+.*.%.i.h.d.C.i.p.%.] u.V.@. XiX#Xn.g.%.*.n.V.n.V.-.g.h.V.p.h.h.p.' 4 2 2 ",
"9 +._.}. X XV.V.b.eXzXo.qX-.tXXX/ l.dXFXZXxXSXzXZXFXxX[.p.p.g.h.}.`.h.+.+..XlXFXFXSXFXGXHXiX_.8 v ] o.u.%.o.] +.@.o.X.@.+./ 7 2 ",
"..@.i.=. Xa.i.+.h.AX4XqXyX#.AXqX9 p..XiXaXdXrXrXdXdXlXdX*Xf.p.%.v u ] =.}.eXzXdXaXaXwX2XoXk.@.8 i ] @.p.k.h.u.} n i O.} ( ' ' 8 ",
"] o.=.;.i.L.!.|.eXAX[.AXAXh.ZXtXh 7 0 / X.p.g.h.l.f.p.@.u.*XXXH.D.&.M G.[.h.k.}.`.`.l.%.] 8 9 / v 9 8 9 ] @.`.-X!.K.] `  ...' 0 ",
"/ %.t.L.p.,X=Xk.<XqX[ dX<X@.@Xh.8 @.] 7 O 2 2 3 2 s 0 i { 6 $ 1 ) 5.} 0 x { / i / 9 0 2 8 ' =.h.k.g.=.@.] 8 4 o.*X&XU.e.8 / ..8 ",
"X.d.L.Q.6X_.o.%.i.9 7 ] { 4 8 3 u X.o.' ] +.+.@.%.=.;.n.b.-.n.n.b.V.]. XB.*.-.a.&.@.X.] / { ] ] ] X.] ' 9 4 s O ] *XE.Y.+.6 i O.",
"] L.L.=.@X9 ' ] @.=.%.+.%.g._.}.*X%XoXXX-X2X3X3X5XwX1XrXzXxXxXxXxXzXzXyXrXrXaX4X5X5X3X-XXX.X=XoX}.`.f.u.+. .' 9 i l.:.@.Q V 2 8 ",
"i i { +._.f.k._.`.}.'.%X`._.k.k.p.l.l.%.p.t.p.p.j.t.{.`.=XY.,X}.>XQ.=X_.}.Y.k.p.c.L.l.%.p.f.*.p.k.k.`._.{.'.`.`.`._.l.u.+./ 4 2 ",
"] %.=.p.=.=.=.%.@. .] +.n ' i.E +.i.E 0.j.L.j.'.;X!.,XvXpX~.pX6XpX~.fX;X,X!.;X&X'.L.'.d.L.l.3.E *.' H  .' ] O.%.=.i.f.f.h.f.i.] ",
" .] / i 6 h w 7 ' < u ] t 4.+. .x.+.5.P.u.p.f.cXV.{.%XbX=X@X;XbX;X#X=XcX}.{.{.cXh.p.p.T.u.u.z.+.+.0.J O.' , ' 8 q 8 8 8 8 ( ..] ",
"2 O s   $ 4 $ 7 8 8 8 ' ] { M ] o.6.U M ] _..XXX>X@X#X<XeXtXlXyXlXyXyXrXeXqX4X@X@X-X_...,.I 8.@.+.,...' ] 8 9 8 $ 7 2 o & 2 O 2 ",
"2 o O 2 6 # + 5 ' k > b X.l f U @.U g f ] f.k.l.k.k.|.3X#X@X.XaXsXsXaXaX3X*X=X*X'.'.f.' f g U 9.U g l X.M g c ' w X # 6 3 O o 2 ",
"2 o : o 0 > , < 9 > G d ] A W L 9.E e.F ' p.k.k.{.{.}.|.+XqX4X1X@X@X1X-X-X-X-X%X_.h.p.' F e.W i.L y.F  .r G > i < x ; 4 o : o 2 ",
"2 2 u 3 3 8 { i 8 i 0.] ] X.c.3.@.3.c.+.( =.}.*XoX|.=X+X2XsXeX@X@X0X@X5X6X-X*X_.`.p.p.9 O.c.u.@.5.c.3.] ] r.u 8 u 1.6 3 4 n 3 2 ",
"2 2 o 2 4 4 & 8 ' / e / o. .M X.%.#.M  .' p.k.k._.{..X.X+X@X<X<X%X>X+X.X-X_.}.`.}.p.f.'  .M i.u.+.M X.X.[ w h ' 8 & 7 7 $ O 2 2 ",
"2 X X . 4 + @ @ h d > d  .z f I 9.T F f ' p.h.l._.=X*X-X+X#X2X0X>X#X#X+X.X.X}.{.`.h.a.] z P ! p.I f z  .d g > u > % + 3   X X 2 ",
"2 O o O 4 5 : 5 8 w t b X.M b J @.6.J J ' f.}.%X}.{.{..X2XeX0X%X4XqXoX5X3X-X*X*X'.}.g.[ J K 8.i.,.J M X.M c e ' w q 5 4 $ . O 2 ",
"2 2 ; ; 3 ; , , i , , y  .D V R 9.E R S ] i.k.'.&X*X>X5X5XaX0X-X#X<X=XiX>X-X=X*X'.`.k.] S R E i.E V D  .V < , u < < ; 4 $ # 2 2 ",
"2 2 o $ 4 : q q i e k t ] b M H 9.<.Y H ' p._._.k.%X*X-X2X4XaXqX@X4XeX2X.X*X-X'._.l.l.( b Y 1.i.J m b X.u k e v q $ $ 4 : O 2 2 ",
"2 &   X 3 % @ > v d g d ] z z U 9.U z z ` f.k.h.oXoX}..X2X2X@X2XaX<X@X.X>X}._.{.*Xh.g.] z z I @.A P x [ d g d v > % % 6 o X 2 2 ",
"2 2 $ O 7 5 q 5 h w t u ] M J J @.,.J M / f._.'.%X*XoX3X-X5XwXaX0X<X#X.X-X3X@XoX_._.f.] M K 8.i.,.G M ] c t e i w : 5 7 O $ 2 2 ",
"2 2 < ; 6 ; = , i < < V ] S N D 5.E S S v f.k.f.f.p.k.}.3X3XwX0X}.<X4X3X.X}.-X}.h.k.f.i D R E 9.D N D +.V < < / , * ; 4 . X 2 2 ",
"2 2 $ & 3 : >.q i u 1.p ] H x.<.@.<.x.G ] f.k.l.=.f.k._.5XwX@XXX=X@X+X-X-Xh.-X%X_.k.f.i H x.1.i.<.x.J ] p 4.r 8 q >.q 7 O O 2 2 ",
"2 2 2 2 7 8 a 9 9 ' ] ..X.o.5.&.%.p.i.o./ =._.*X{.[.|.3X5XwX1X=XaX+X@X4X>X`.*X{._.h.f.` @.i.=.@.*.+.@.' ] X.` 9 i i 8 7 6 2 2 2 ",
"2 2 2 & 6 & % 5 i k g k X.M P 6.u.6.F M ' p.k.k.}..X+XoX2X-X%XwXaXaX}.3X3X_.*X%Xk._.=.O.M F 8.p.6.F M O.c g k v e > 5 6 & 2 2 2 ",
"2 2 2 . 3 > $ > u & j j  .z m z 9.I J z ' ;.=.l.k.}..X|.`.1X5X@X@X@X3X5X>X`.*X`.k.k.p.] z L I p.I m z  .j k > v % # % 7 . & 2 2 ",
"2 2 2 $ 6 q , q v q N G ..H S K @.7.E G ] f.'.%XoX+X.X+X4X5XwXwXwX0X2X2X>X>X`.*X%X%Xf.' H E 8.p.,.S H +.H N e ' q < : 6 : 2 2 2 ",
"2 2 2 $ 4 . : > u < w r ] S G E 9.E L S { f.}.`.k._.|.+X2X1X5XaXwXwX|.[.|.|.`.*X%X'.h.] V <.E 0.D G S  .r r , v : : ; 7 O 2 2 2 ",
"2 2 2 2 6 & > : v j > b ` m z J @.Y I m ' f._.p.}.{.=X+X3X`.0X0X+X<X#X#XXX}.}.`.k._.f.] M U 6.p.6.z M o.k d k v w % w 6 2 2 2 2 ",
"2 2 2 2 4 # : $ i > w j [ z m z 3.I L l i f._._.k.`..X.X+X2X0X0X*XXX`.5X3X3Xl.h.l.k.g.' l J T @.I L x  .j j & v $ > # 7 2 2 2 2 ",
"2 2 2 2 2 : = q 9 e N q ] H S ,.u.,.D J ] f.k.*X_.{.|..XXXwX0XaXsX1X=X@X=X=X`..X=X%Xg.O.K D 6.i.K D J +.b , t { w ; : 0 3 2 2 2 ",
"2 2 2 2 7 ; r ; i , B V { V W D 3.R K D { %.'.`.{.{.|.+X$X3XwXwXwXwXaX.X.X*X-X*X*X*Xf.] D W E 3.D K V  .N B , / : r ; 4 3 2 2 2 ",
"2 2 2 2 4 u >.i 8 i 0.] '  .j.@.@.3.c.] / f.`._.`.}.XX>XrXaX1XwXiX0X5X5X3X-X>X%Xk.h.=.( O.c.p.%.*.c.X.] ] s./ 0 i >.4 7 3 2 2 2 ",
"2 2 2 2 2 7 & 8 9 i k ` ] X.M +.%.@.6. .h =.=.g.`.}.[.|..X2XwXaXwXwX5X3X3X=X}.}.%Xp.p.' @.| i.p.@.M @.@.[ e ' ' 8 5 4 2 2 2 2 2 ",
"2 2 2 2 2 + + > v > g d X.z f I 9.U P z ' u.l.{._..X.X+X}.}.@X@X@X2X2X.X}.k.h._.k.f.f.' z P U 9.I f z  .d g > v > + + 2 2 2 2 2 ",
"2 2 2 2 2 $ q 5 v k t e ] m b M @.Y K M ' l.`.*X%X}..X.X$X>X#X#X#X2X#X X.X.X{.h.k.h.f.] M K 6.%.M J b X.c c k v 5 : O 2 2 2 2 2 ",
"2 2 2 2 2 ; * < i , N V } D V D 9.E R S ' *.l.f.k.oX}..XXX2X<X0X1X1X<X<X+X+X%X}.`.*.p.] S R E 3.R N D X.V , , u , = ; 2 2 2 2 2 ",
"2 2 2 2 2 : : w v t k e ] G J ,.3.<.Y b / p.k.l.{.}.|..X@X#X<X<X<X<X#X2X+X|.[.`.{.{.f.] G Y 1.i.<.m b +.c k e ] e : q 3 2 2 2 2 ",
"2 2 2 2 2 3 @ > v d > l ] z f I @.I f z ' f.g.k.{.}..X.X#X2X<X<X1X0X<X>X.X.X|.}._.`.f.] z f I @.A f z  .l > d u > + 2 2 2 2 2 2 ",
"2 2 2 2 2 2 u 5 8 c 4.c ] M x.| @.1.x.M ' f.i.h._. X|..X|.+X@X2X<X2X@X@X_.}.%X_.h.g.f.] M x.8.@.| r.| ] u r.c v e n 3 2 2 2 2 2 ",
"3 2 2 2 2 2 7 6 4 9 { / ' ] O.o.X.@.+./ 8 =.`.}.h.%XXX>X5X5X1X1X1XiX5X4X@X}.{.}.{._.p.8 ' @.@.%.o.+.] ' ` { 8 4 8 8 2 2 2 2 2 2 "
};
