/* XPM */
static char *xpm_[] = {
/* columns rows colors chars-per-pixel */
"64 64 256 2 ",
"   c #020104",
".  c #02020C",
"X  c #0C0A0D",
"o  c #08060C",
"O  c #150B0C",
"+  c #16130D",
"@  c #030313",
"#  c #0B0B13",
"$  c #01041A",
"%  c #030A1C",
"&  c #0C0C1B",
"*  c #070715",
"=  c #130C14",
"-  c #190E13",
";  c #140B19",
":  c #0D1114",
">  c #0C131A",
",  c #141314",
"<  c #1B1414",
"1  c #1B1A14",
"2  c #14131A",
"3  c #1B141B",
"4  c #1B1A1C",
"5  c #151A1A",
"6  c #0B100D",
"7  c #261A0D",
"8  c #2C1C13",
"9  c #231C1C",
"0  c #2B1D1B",
"q  c #241715",
"w  c #331D19",
"e  c #361F0D",
"r  c #1C221A",
"t  c #2C2315",
"y  c #24231C",
"u  c #2B231C",
"i  c #26271A",
"p  c #34251C",
"a  c #3B251B",
"s  c #342B1C",
"d  c #3C2B1C",
"f  c #382614",
"g  c #3A321D",
"h  c #3B240E",
"j  c #030B22",
"k  c #061728",
"l  c #181924",
"z  c #041E35",
"x  c #191F35",
"c  c #251C22",
"v  c #1A2529",
"b  c #092638",
"n  c #172836",
"m  c #0E333C",
"M  c #13333B",
"N  c #08222C",
"B  c #242223",
"V  c #2B2423",
"C  c #2D2C2A",
"Z  c #292728",
"A  c #342B23",
"S  c #3B2C23",
"D  c #342C2A",
"F  c #372726",
"G  c #3C3323",
"H  c #3D332B",
"J  c #38382B",
"K  c #252B33",
"L  c #273635",
"P  c #3C3D33",
"I  c #383938",
"U  c #2E302C",
"Y  c #432D1C",
"T  c #452D16",
"R  c #522E19",
"E  c #44331C",
"W  c #4B331C",
"Q  c #48381C",
"!  c #56391D",
"~  c #42230E",
"^  c #6C3C14",
"/  c #6C3D1B",
"(  c #663C17",
")  c #743C1B",
"_  c #432D24",
"`  c #433423",
"'  c #4A3423",
"]  c #4C3A24",
"[  c #443B2C",
"{  c #4B3B2B",
"}  c #463728",
"|  c #543B23",
" . c #533C2B",
".. c #583924",
"X. c #463B31",
"o. c #553D31",
"O. c #673E25",
"+. c #703E23",
"@. c #3C4438",
"#. c #2D4039",
"$. c #5B431D",
"%. c #5B481C",
"&. c #6C431B",
"*. c #66451A",
"=. c #73421C",
"-. c #76461A",
";. c #67420E",
":. c #49432B",
">. c #544225",
",. c #5C4324",
"<. c #54432C",
"1. c #5B442C",
"2. c #5C4B2C",
"3. c #554A2A",
"4. c #42443C",
"5. c #494836",
"6. c #524432",
"7. c #5C4C34",
"8. c #534D3B",
"9. c #5B4C3B",
"0. c #574536",
"q. c #4C533B",
"w. c #5B533D",
"e. c #595438",
"r. c #5B512F",
"t. c #654424",
"y. c #6C4B23",
"u. c #63452B",
"i. c #644B2C",
"p. c #6B4B2C",
"a. c #694527",
"s. c #754825",
"d. c #6A542B",
"f. c #775729",
"g. c #664C34",
"h. c #6C5334",
"j. c #64543B",
"k. c #645A3C",
"l. c #6C5B3B",
"z. c #675636",
"x. c #7C5B32",
"c. c #755836",
"v. c #704C32",
"b. c #79612D",
"n. c #6A633C",
"m. c #7C6334",
"M. c #7B633C",
"N. c #746339",
"B. c #092A43",
"V. c #093446",
"C. c #153848",
"Z. c #103750",
"A. c #373C43",
"S. c #273D4C",
"D. c #413F40",
"F. c #154753",
"G. c #284649",
"H. c #394848",
"J. c #384E54",
"K. c #385557",
"L. c #2D4F56",
"P. c #165074",
"I. c #2A5565",
"U. c #2A566A",
"Y. c #2B6070",
"T. c #454A44",
"R. c #594D43",
"E. c #4A5446",
"W. c #5C5343",
"Q. c #5D5B44",
"!. c #555B4C",
"~. c #5D5B4B",
"^. c #555646",
"/. c #475953",
"(. c #555C53",
"). c #4E4F51",
"_. c #635442",
"`. c #645C43",
"'. c #6B5C43",
"]. c #635D4B",
"[. c #6B5A47",
"{. c #745D44",
"}. c #675E54",
"|. c #624E45",
" X c #5C634A",
".X c #596455",
"XX c #4B6358",
"oX c #6B6344",
"OX c #63634D",
"+X c #6C644A",
"@X c #666446",
"#X c #726343",
"$X c #73634B",
"%X c #796948",
"&X c #7A724A",
"*X c #696756",
"=X c #756955",
"-X c #797759",
";X c #6B765B",
":X c #466767",
">X c #516E67",
",X c #687567",
"<X c #787A66",
"1X c #6B6E67",
"2X c #91591E",
"3X c #855929",
"4X c #835D34",
"5X c #865C36",
"6X c #8A5226",
"7X c #89652A",
"8X c #99672B",
"9X c #8B6432",
"0X c #83633B",
"qX c #876739",
"wX c #986B37",
"eX c #8E743D",
"rX c #94723C",
"tX c #987539",
"yX c #9E762E",
"uX c #A56E37",
"iX c #AA7B3C",
"pX c #A77639",
"aX c #B57B3B",
"sX c #A56B2E",
"dX c #8C6B1E",
"fX c #856746",
"gX c #877747",
"hX c #937344",
"jX c #9B7543",
"kX c #967A45",
"lX c #867A58",
"zX c #947D57",
"xX c #936E46",
"cX c #A87C44",
"vX c #B57E45",
"bX c #887866",
"nX c #805D41",
"mX c #7C825F",
"MX c #7D8364",
"NX c #AB823C",
"BX c #B3833D",
"VX c #B9863B",
"CX c #C78E3E",
"ZX c #8B875B",
"AX c #968551",
"SX c #AC8243",
"DX c #A98449",
"FX c #B38544",
"GX c #B88846",
"HX c #AC8B52",
"JX c #878765",
"KX c #908E67",
"LX c #C48B43",
"PX c #C79447",
"IX c #D69E41",
"UX c #D1AA52",
/* pixels */
"&.d } P P A.4.4.@.:.A.D.@.H.T.@.4.@.X.@.4.4.@.4.4.).@.P @.I @.P P @.I 4.R.T.H.4.4.@.4.@.T.:.@.4.@.4.@.@.4.I P H.4.4.T.P J H S ^ ",
"( t.f.x.3XqXeXrXjXeX7XtXrXrXjXrXtXhXhXtXrXjXtXrXkXeXeXtXxXhXhXqXqXhXhXhXkXeXeXrXrXtXwXjXtXhXzXuXwXrXrXrXhXtXtXrXrXhXfX3Xf.s.t.^ ",
"^ _ g.E  .y._ [ G A j.'.#Xh.S @.J P 8.S [ P A W.G 0.| t [ _ | a.p...S { t :.0.S w.i 4.J D ^.@.J @.S h.%X{.j.s g { ' y. .E u.Y ^ ",
"O.a.6Xh w wX1 0X` t `.^.].[.v V.I..X$X.XU.V.3 :X} J.G.& r.d.h sX8XT d.r.# G.J.J I.l V.I..X=X XI.V.v l.`.Q.Q.u [ qX1 tX8 h 6XO.O.",
"/ s.8 T F 2X7 /.U w.$X~.!.+Xj.= m /.HXG.b @ H.K.PXgXI.u @.T.T 6X2Xd H.I u I.hXUXK.A.@ n K.HX/.m ; j.+X!.].$X7.J /.1 3Xp T 8 s.^ ",
"&.-.>.' w uX3 c.G Q. X~.~.].'.4.r.6.UXD l., K J.aXM.F.< t.>.c uXsX0 <.2.= F.M.aXJ.v = %XD UX .7.:.z.OX X~.(.W.H c., uXw ' | s.^ ",
"=.&...W 8 F , 9X] ~.^._.oXk.k.oXKX@Xc.=XJXI 3 K.[ S.H.O d.c.q f a < h.s.O H.A.J K.< I JX-Xl.OXJX+X`.k.oX_.~.].Q 9X, p t W | y.) ",
") t.W t.y.. 2 9X' :.$X~.^.].[ `.;XQ.!.!.mX6.# H z.w.u % f.f.& # @ & f.y.j u 8.l.J # 3.MXW.!.^.;X`.X.`.^.!.oX:.' 9X2 . y.t.Q *.) ",
"( 6X%.,.uX' X f.W 2 ^.].$X7., $XOXq.*X8.-X9.* V d.u.= % *.u.# v.u.o u.y.% ; 1.d.i @ 8.-X8.*Xq.OX$X< 7.$X].q.: E f.o ' uXt.%.6X/ ",
"=.*.$...jX4XB 7X0.3 F #X#X9 6 &X@X5.^.T.@X`.o t &Xj.< < x.v.d rXtXf v.x.3 < r.-XV o `.*XT.^.q.`.&X6 9 l.%XD O o.7Xc 5XjX| *.*.&.",
"/ 6X..a.| < 0  .s D = 3.6.$ 9 <.[ 4.q.X.6.o.. 5 $X} V s ] [ c < < 9 ` W f c { #Xl @ 6.6.X.5.4.:.7.3 $ 8.<.= H f ..8 < | O...6X/ ",
";.s.*.8 . . u A } s y d s Z 0 G _ } { f Y s u u s V 9 g G G c     9 S A g 1 A s t y s T T ` G _ G 0 V H G 4 A G s i . . w $.s.;.",
") &.< ( i.- Z _.>.c.x.x.4Xm.! s ]  .7.Q ` d p.9X5XfX4Xt.0.9.- V A ; 8. .i.4X5X5X5Xd.a } ' 7.'  .s ! 0X4Xx.9Xf.>._.c - i.t.- y.) ",
"( / 3X8Xc 2 i { [ u.y.p.a.a...a G 1.l.G u ' a.y.y.p.p.1.[ :.+ q 9 + :.[ | a.v.i.p.a.' V d c. .f a ..p.a.a.y.i.{ { y # V wX3X/ ( ",
"s.t ..| # V 1 : # = 2 , O - q F D 8 8 0 0 t q 6 < = 3 4 & 2 8 , , 7 2 * = 4 3 , + < i 8 0 8 w i V V < O , = = # # r 3 : ..,.7 s.",
"^ G 9 ..# c.aXx.i.A C D S u @ @ r K j < ` & # A s H C <.f.qXGX0 0 FXqXf. .I H s A # * H < j K v & @ 0 S D C A i.x.aXc.= $.q ` ( ",
"+.O Q j.; _ FXFXLX#XJX<X>XAXB G.oXI T.hXwXE 5.JX:XJX;XjXLXVXsX$ $ yXVXCXjX*XJX:XJX5.` wXhX4.I $XG.4 AX>X<XJX#XLXSXFX} 2 g.Q O O.",
"^ G w.fX:.1 aXiXGXN.=X1XP.<XL % l J -X' @   E.1XP.bX!.cXcXDX2.q q g.SXSXcX~.bXP.1XE.  @ E -X[ v % v -XP.,X=X#XGXcXaX0 { fXj.d ) ",
") p.].h.oXd 5XcXFXjX~.KXI.lXL   . >.zX@ @ @ OX.X>XlX^.BXiXFXE | ..G NXvXFXq.bX>X(.OX@ * * zX1.*   L lXI.KX!.rXFXSXqXS l.d.(.i.) ",
"=.~ 9.'.1.  6.BXDXBXg.lX<XE.fX2.] hXKXl.X.'.d./.ZXw.rXBXiXuX; 7 7 2 uXvXBXtX^.ZX/.d.l.[ z.KXhX{ 2.qXE.,XlXz.FXDXFX0.  1.'.7.~ ) ",
"^ Y >.g.D * X 0XvXNXcX8.<X<X X{.M.DX>XSXk.w. XlX!.M.VXpXFX! . k k @ i.BXiXVXM.!.-X Xk.'.SX>XDXm.{.~.<X=X8.iXiXFXfXo * D g.,.Y / ",
"^ 0 v H x n . # 3XFXBXcXj.Q.*X.XOX1XP.gX!..X}.W.0XvXpXVX*.@ * m m l @ $.VXiXaX0XW.}..X!.gXP.1X}..X*Xw.g.pXNXGX7X; @ b b G v c ;.",
"-.l Z.m m V.@ . , m.VXFXLXhXfXqXqXe.G.x.qXm.eXGXPXBXFXO.@ @ j C.C.k @ * t.aXBXLXFXeX9X0Xm.G.7.qXqXfXkXGXFXVXm.3 @ @ V.C.m C.l -.",
"&.p z C.Z.N 2 x.i.- ..f.8XiXiXtX8Xs.W 3XrXiXiXtX7Xy.9 < c.u.6 m m * i.c.< 0 y.7XtXiXpXrX7XQ f.wXtXpXiX8Xf.| l i.b.2 b V.C.b q =.",
"( ! ,.B.C.b | w.[.f @ * @ o # = W.(.!.XX6.= #   .   . | [.`.G b b G `._.| . . .   = X  .XX!.XXW.O & o . . @ a '.w.| b C.B.,.R ( ",
"&.f s.! Y B.g.T.!.! @ d.m. .. { FXXXK.&XLX9 o h.0X3.. i.J.^.{ B.m { E.J.u.. 0.qXg.& B LX&XK.XXFX| .  .m.y.@ | ^./.g.B.' W a.S / ",
"( T R <.s m s M.M.9 y ..p.7XS u BXPXGXPX9XO <.4X,.W 3 S %Xc.C b N K c.qXd c W ..x.7.+ 9XPXVXPXBXu S 5Xa.| B 9 M.0XG B.S 6.R W a.",
"&.O } F.v l $ X.S * O o * O #   T c.4Xi.= * = O . @ = o { ` % B y j d ] * ; o @ < 3 * O ,.x.c.T   # = * o = @ S [ % l v F.E < s.",
") O V.x $.%.9._.j.d._.[.n.j.`.`.w.2.'.9.w.`.w._._._.w.h.W.k.:.c.f.:.j.7.h.W.j.[.[.w.k.w.0.j.7.8.w.`.j.k.'.k.g.z.7.0.,.t.l V.q O.",
"^ K C.v ..] r.W.9.j.e.8.<.j.z.9.7.7.5.9.j.e.j.^.g.e.e.j._.'.:.u.u.6._.7.z.e.9.j.W.j.e.j.|.5.7.7.9.`.l.6.8.z.j.w.8.2.] | n F.K ^ ",
"=.5 k n R 3.u q A , - A j.X 3 - 2 D d.+ * , e 1 @ 4 e l l @ - O.t.- @ % * 8 B # + f - @ + d.V & - c = j.D - = S q q | ..n k 5 / ",
"=.= a.1 u.r.A N.gX| c DXPXc.& P I =XNX~.A.C 0 :.b W S & L 5 X m.M.o l #.  S  .b 6.u C I ].NX=XU @.2 N.PXDXc W gXM.p 3.i.r a.= -.",
"/ 2 s l >.| t { j.V : m.HXS # Z 5 ^.SXU c 5 0 d k f A . v % @ i.i.* j r . A d k A 0 5 c U cXw.5 K # G HXm.X u j.] 7 ! 1.v f , / ",
"/ Z b n O.>.C u A r s Z G 0 } V y u d i 9 p G B y V H Z y y i s.a.y u u D [ 9 y i G u y y S 8 B u ` 9 G Z s y s V U <.O.n z Z / ",
"^ l Z.K | ! z.$XfX%X%X%X%X$X%X%X$X'.'.$X%X=X=X%XfX%X=X%X+XfXj.*.y.Q.fX$XlX$X%XfX%X=X$X%X=X$Xn.=X$X%X%X%XM.%X%XfX$Xl.1.| v Z.l ^ ",
"-.O L C.| ] A G H F d J s s F D H >.,.' F C u s _ U V F H S c p.a.B G H S V Z S A t U F Q 2.1.} D F s A I d F G G H ] | B.K O -.",
"t.9 ! S.N b : h.3.$ 1 # = a 4 @ f.pXSXwXp @ 8 S , , O : l.,.k k k j 1.{.# - > O w u * p yXcXBXf.@ 4 a O # 1 $ 2.h.5 b k S.! < t.",
"( ,.Q *.R C.>.'.#XQ 3 9XuXwXq ,.CXDXgXGXPXw ' cXcXa.# 1.k.l.[ b n [ z.l.>.X p.uXcXW 8 VXGXzXAXLX>.q rXuX4X- E #Xn.<.C.R *.W ! ( ",
"+.a -.n K B.p.H.^. .@ t V * @ q gXK.I.:XqX. $ 4 u p @ %.H.^.{ V.V.` /.J.%.@ V u 5 . o 0XXXI.U.gXq . @ u t @  .^.J.i.b C n f.p &.",
"( R C V.C.z D m.M.5 o q p Q ! ' h.N.p.n.1.! $.Y 8 : @ S qXc.c b b c c.0XA o , 8 d $.! 1.%Xi.N.g.' $.Q s q . 5 M.m.A z Z.V.s ! ( ",
"-.I V.Z.M V.@ ' i d jXNXVXLXFXBXpXt.L 3XcXSXGXCXGXpXf.1 S A $ C.C.% V S 9 f.pXVXPXGXGXcX3XU a.iXBXFXPXGXNXrXa t { @ V.M Z.V.3 &.",
"-.(.M M B.b $ . d vXFXBXjXd.j.[.k.OXI.N.l.h.j.0XBXNXvXwX,   > C.C.k   + uXaXSXBX0Xz.l.j.M.I.OXl.`.z.d.jXFXFXFXd . @ M m M M v -.",
"s.}.g ..n z   T cXDXFXfX8.-X,X!.}.lXY.zX!.OX1X@X8.pXvXBXwX1   C.M   4 rXaXaXpX8.@X1XOXE.AXY.lX}..X,X-X8.fXFXSXiXQ . k n | E a ) ",
"y._.1.l.} . u cXNXGX9XW.zX(.c.0X0XHXMXDXc.m.E.=X-X8.BXSXVXx.% & o @ x.VXSXVXe.lX=XE.N.x.SXMXHX0XqXc.!.zX~.wXGXNXcX0   H h.7.e *.",
"s.=X8.k.c.q d.SXDXcXR.KX:X Xl.5 # h.HXi & D M.K.bX*Xc.vXpXSXF T E w SXiXaXl.*X<XK.M.U & i AXl.# l '. X:XKX8.iXFXFXc.7 h.k._.,.&.",
"s.=X`.m.z.V wXFXGX&XOXMXI.MXn   @ X.zX& .   E.*XU.lXe.vXSXSX{ _ _ ` cXNXSX^.lXY.*XE.  . @ lX{ @   n MXI.MXOXgXGXNXrXu k.N.j.u.) ",
"s.T.0.n.V u FXcXGXn.<X,XP.lXK M @.P =X9Xa 3 E.<XP.<X*XrXFXBX3X# X 7XBXSXhX*X-XP.<X^.< a 3X*XJ P C.v ZXY.,X<Xn.GXiXvXu u #XR.1 / ",
"s.8.' a.@ O.PXaXaXk.=X=X XN.X v _.H.b j.rXA A %XOX&X).xXGXCXVX: = BXLXLXrX!.&XOX%Xp A jXk.n H.w.v 2 N. X=X}.e.BXVXGX..  O.{ 7 / ",
"s.|.O | - u.z.p 3 6 # X X * . o l l . & & . . @ X # & c 0 ' b.u 0 x.' 9 < 2 2 X @ o . % & . 3 * X > * o X # : 3 p i.u.; ,.- S ^ ",
"*.$XwXu.< % , y u p a d d a T ] ' T | W Y } a _ d a Y S B B & # = & 4 c w Y S S _ a } E W | Y ` ] ' a f S a s t y 2 $ 5 p.wXh *.",
"s.c.d uX1.7 0 R.<.c.5X3X9X5X,.A d >.#Xd u E c.5Xx.qX9Xp.<.5.3 s f 3 5.<.y.9X9X5X5Xf.T t S n.<.S S | 0X9X3X5Xc.6.R.0 q g.sXa y./ ",
"O.x.f 8 a X V 6.6. .>.1.] 2. .S { _ ' ` { f :.2...7. .| [ :.< < < q :.X.2.o.,...7.6.f { ` ' } 1.E Y 3. .1.3.<.:.6.V , w 8 h -.+.",
"s.fX*.] @ @ 7 u t A # H } > t E S } >.` d Y X , ] i < A t V 2 @ . , s F g 3 y { 2 = d d ` >.:.S ` q # ` G : A u w i $ @ ..,.3X/ ",
"-.'...>.3X| 0 x.T D l h.h.* , OXe.T.).4.e._.. c gXw.9 B d.u.u a.y.i i.h.i B e.gXy o j.w.4.).H.8.]., . z.z.c A E 4XF ! 3X>.%.s.) ",
"=.$Xa...rX3X5 3X] @ P *X=XX.; %X].q.`.5.-X_.. i d.6.# & f.p.5 9XwXc v.c.& # <.c.i . j.-X5.`.q.OX&X3 J +X+XP @ { 9X2 f.tX..t.-.&.",
"=.lX! t.wX, & 3XE u '.Q.]._.i @X=X^.+Xq.<XR.. S 5Xg.2 & y.i.$ f f % p.*.* 3 j.nXS . R.mXE.@X^.=XoXy [.].W.`.A W 3X& < wXa.$.-.*.",
"s.l.W $.T @ 1 8X:.9.Q.~.`.`.9.@XmX~.E.@XJX5.= H.5.H.J & f.x.& . . & 3Xf.& J H.5.H.O :.JX@XE.(.lX@XR.`.Q.~.].w.<.9X3   _ ..W ;.&.",
"-.[.1.} 0 3X1 4X' w.(.`.oX].k._.ZXl.cXk.ZXC 9 L.y.T.J.X y.a.9 f.6Xc a.*.= J.@.d.L.l Z ZXk.pXl.ZX[.e.`.oXQ.!.w.' 5X+ f.8 ` u.f.) ",
"=.fXd T f 8X: E.U w.`.Q.~.OX'.u B @.UXx H # n J.CXjXI.9 :.@.0 8X8X0 H.:.9 I.jXIXJ.n X _ x UX@.v u n.].Q.OX].e.U ^.< 7Xf T f -.*.",
"&.{.T T u 8X0 #X[ >.=X Xk.%X:.z I.;XkX,XL.N J U.tX*XI.u 8.e.Q 8X2X} Q.R.8 I.*XtXU.I b F.>XzX;XI.z :.%X].~.=X6.[ +Xu wXu T R s./ ",
"&.$Xf.a V 3X1 1.s O q.^.Q.r.l C.G.A.q.A.G.Z.@ J.l #.L   [ ' p 6X6XF ' [   L G.l K.> Z.F.A.q.A.S.Z.> w.].^.8.= i 1.- 3Xc p f.Y *.",
"O.$Xv.y.f.f.x.c.N.m.qXrXhXqXx.4Xc.b.M.c.x.4X0XdXb.9Xb.m.c.c.9Xx.4X5Xc.b.m.m.9Xb.7X%X5Xx.f.m.b.x.4X0XqXhXrX9Xx.c.f.M.3X3Xy.&...+.",
"=.7.6.3.z.`.oX%X#X'.l.'.`.N.#Xl.@X+X#X#X#Xl.#Xn.n.].n.l.l.%Xl.k.`.l.N.N.l.n.+XoX@XoXn.n.#X#Xk.$Xn.N.n.oX'.l.N.l.n.oXl.i.3.2.0.^ ",
"~ 1 9 0 V y C C y B u y y V v B i C Z V r Z 9 Z B Z Z Z K V y y r Z c v Z V B C Z 9 V y Z B v t B K C B 9 9 B Z B i c V 9 V 9 h "
};
