/* XPM */
static const char *ZWd5cHQzKyUyODElMjk_[] = {
/* columns rows colors chars-per-pixel */
"64 64 249 2 ",
"   c #020202",
".  c #0C0201",
"X  c #020906",
"o  c #0E0A03",
"O  c #01030C",
"+  c #0A040A",
"@  c #02090B",
"#  c #0C0C0A",
"$  c #130402",
"%  c #130B02",
"&  c #1B0E03",
"*  c #140C0A",
"=  c #17090A",
"-  c #0E110B",
";  c #08160C",
":  c #1B1204",
">  c #14120C",
",  c #1C140D",
"<  c #181808",
"1  c #060714",
"2  c #100914",
"3  c #140B19",
"4  c #0A1316",
"5  c #0C151A",
"6  c #051618",
"7  c #141413",
"8  c #1B1512",
"9  c #1E1B12",
"0  c #14131D",
"q  c #19151E",
"w  c #151B19",
"e  c #1A1B1A",
"r  c #121816",
"t  c #250E0A",
"y  c #280C03",
"u  c #350906",
"i  c #241303",
"p  c #2B1304",
"a  c #251A04",
"s  c #2B1C04",
"d  c #23140B",
"f  c #2B150D",
"g  c #241B0B",
"h  c #2D1C0C",
"j  c #331C04",
"k  c #3B1D04",
"l  c #321C0C",
"z  c #3B1D0A",
"x  c #331606",
"c  c #241413",
"v  c #2B1611",
"b  c #231B13",
"n  c #2C1C13",
"m  c #2C1C19",
"M  c #231B19",
"N  c #341D12",
"B  c #391D12",
"V  c #311E19",
"C  c #361610",
"Z  c #1C221B",
"A  c #1C2417",
"S  c #0D221B",
"D  c #2C2207",
"F  c #2C200C",
"G  c #28240B",
"H  c #322205",
"J  c #3A2202",
"K  c #34230C",
"L  c #3C240D",
"P  c #352A0C",
"I  c #3A2B0C",
"U  c #372C05",
"Y  c #222213",
"T  c #2B2214",
"R  c #22221C",
"E  c #2D241A",
"W  c #2D2B1A",
"Q  c #2F2C15",
"!  c #352413",
"~  c #3B2413",
"^  c #352B15",
"/  c #3B2A15",
"(  c #34241B",
")  c #3B241B",
"_  c #342A1C",
"`  c #3C2C1B",
"'  c #3C3214",
"]  c #393118",
"[  c #041721",
"{  c #0B1D23",
"}  c #001A25",
"|  c #111020",
" . c #281E24",
".. c #0C252B",
"X. c #0C2327",
"o. c #1D2323",
"O. c #16232A",
"+. c #112A31",
"@. c #0F2C34",
"#. c #232323",
"$. c #2D2523",
"%. c #2B2B23",
"&. c #242329",
"*. c #2A272A",
"=. c #3B2522",
"-. c #332B22",
";. c #3B2A23",
":. c #362626",
">. c #383427",
",. c #34362D",
"<. c #461B0A",
"1. c #471C18",
"2. c #432204",
"3. c #43230B",
"4. c #452A0E",
"5. c #4C2A0C",
"6. c #582B0C",
"7. c #48320C",
"8. c #59350C",
"9. c #422512",
"0. c #432A13",
"q. c #4C2C13",
"w. c #44251E",
"e. c #442D1A",
"r. c #4A2D1A",
"t. c #4A2418",
"y. c #552613",
"u. c #4C3213",
"i. c #44331B",
"p. c #4B331B",
"a. c #4C3B1D",
"s. c #473715",
"d. c #533315",
"f. c #553A15",
"g. c #5C3B16",
"h. c #53341B",
"j. c #543B1C",
"k. c #5B3C1B",
"l. c #5B3418",
"z. c #652B0C",
"x. c #63330D",
"c. c #623204",
"v. c #623A15",
"b. c #633E1C",
"n. c #673717",
"m. c #723B15",
"M. c #442E22",
"N. c #452B27",
"B. c #443425",
"V. c #4B3424",
"C. c #453C26",
"Z. c #49362A",
"A. c #4C3D2B",
"S. c #463928",
"D. c #523423",
"F. c #543B23",
"G. c #583C28",
"H. c #553D30",
"J. c #693E22",
"K. c #623920",
"L. c #554217",
"P. c #5C431C",
"I. c #59471C",
"U. c #44451B",
"Y. c #754109",
"T. c #634214",
"R. c #6D4316",
"E. c #63421B",
"W. c #6D451B",
"Q. c #614A1C",
"!. c #6A4B18",
"~. c #73431A",
"^. c #74491D",
"/. c #7B4B1B",
"(. c #754416",
"). c #69521C",
"_. c #7A5018",
"`. c #4B402B",
"'. c #5B4224",
"]. c #5B4B2B",
"[. c #584629",
"{. c #424932",
"}. c #5C4631",
"|. c #5C4834",
" X c #544C36",
".X c #5E5531",
"XX c #634424",
"oX c #694323",
"OX c #644A22",
"+X c #6E4C25",
"@X c #624D2D",
"#X c #6D4A2B",
"$X c #664629",
"%X c #734B24",
"&X c #7B4C24",
"*X c #734C2C",
"=X c #754627",
"-X c #6E522B",
";X c #6A5627",
":X c #745222",
">X c #725A23",
",X c #72532B",
"<X c #7A532C",
"1X c #755B2C",
"2X c #7B5826",
"3X c #6A4935",
"4X c #764B31",
"5X c #685535",
"6X c #735434",
"7X c #7A5531",
"8X c #735B33",
"9X c #7C5B34",
"0X c #77593C",
"qX c #68613A",
"wX c #786236",
"eX c #77672F",
"rX c #4F5041",
"tX c #685D41",
"yX c #756449",
"uX c #803B1A",
"iX c #834C1B",
"pX c #884A17",
"aX c #83561A",
"sX c #8D4914",
"dX c #95641F",
"fX c #824E23",
"gX c #895624",
"hX c #915C26",
"jX c #945424",
"kX c #855934",
"lX c #994F22",
"zX c #88672B",
"xX c #92662B",
"cX c #976B2D",
"vX c #836433",
"bX c #896539",
"nX c #966938",
"mX c #897138",
"MX c #9F7E37",
"NX c #A6753B",
"BX c #AD6D2E",
"VX c #835D40",
"CX c #956942",
"ZX c #957643",
"AX c #9E7A52",
"SX c #A87246",
"DX c #9F8030",
"FX c #958048",
"GX c #A6874A",
/* pixels */
"K / ! ! ) ! L L ( L L ) K k 4.! ! P ~ K H ~ ! ~ L ! ) ) N L I t t P L N ) ) ! L L ! ~ H K ~ P ! ! 4.H K / K 3.! L L ! ) ! ! / K ",
"XXp H l 3.k.D.s : h.v.4.d T G.k.B t r.p.! G.a.9.D.& f.h M.5.T / / T q.=.h g.& h.q.a.G.! p.r.t B k.H.T d 4.g.h., s D.k.3.l H p XX",
"V ~ B B d c t p p i d d v v t t y F x f f y ` i v g H   > i   E E   i >   H g f i ` y f f x l y p t f h i i i p p d b d B B ~ V ",
"2.P.z j.u.k J }.E.I H u.XXP.J j E.I.d.z 3.XXN p.k.g.oX<.7.f.3.q.q.3.f.7.<.oXg.k.p.N XX3.z d.I.E.k K G.$Xs.H ' oX}.J k d.j.z P.2.",
"h h D K K D n b f T d v N a n ( s m l g ) j s s T n ! h n F D t t D F n h ! n T a D j ( f l m s ! G p l h d Y x b T H K K D h h ",
"= w.r.z ) ;.. . O   o .           1   O     O @   O .   O   X     X   O   . O   @ O     O   1   O   X   . $   O . . ;.~ z r.w.$ ",
"i a f r.k M.% @ O u.iXy.$ # , $ &   . + n L + . $ , k.n + * 4 , , 4 * + n k., $ . + L n + .   : $ , # $ y./.q.O @ % M.k e.f a i ",
": e.d.5.k e.% b a zXdX&X3.J @X& n + & a L :Xi P q.R.x.y.z V.d f f d V.z y.x.R.q.L i :XL a : + n * @XJ 3.&XxXxXa b % e.k 5.d.e.: ",
"h j l h.z q.$ e '.xX@Xn.g.  X N g - ~ h f lXv.t.Y.t 8 f.m.g 8.r.t.8.g Y.j.8 t Y.t.v.lXf h ~ - g N X   g.n.@XxX'.e $ q.z h.j j h ",
"! 9.r.3.~ r.& X 8X_.tX$Xz.%   b l . M b E R.n.5.M 9.6.<.n.R R.1.w.R.Z n.<.6.9.m 5.n.R.E b M . l b   % z.oXtX_.8XX & r.~ 3.r.9.! ",
"h 3.9.q.~ h.* 4 F.mX].f.n.. . T z n T 8 K E.*.aXa C K.K (.t.p oXoXp t.(.K n.C a aX*.E.K 8 T n z T . . n.f.].mXF.4 * h.~ q.9.3.l ",
"h 3.e.q.~ r.8 { 8 vX;XE.y.+   g s ( s : x fX*.h.iXY 7./ t./.8.i i 8.&Xr./ 7.Y iXh.*.fXx : s ( s a . + y.E.;XvX8 { 8 p.~ q.e.3.h ",
"! 3.9.q.9.q.8 { 4 -XqX6Xt.2   T T l h g n sX&X#.W.@X7.b.4.q T.^ ^ g.q q.E.7.@XW.#.&XsXn g h l T T   2 t.6XqX+X4 { 8 r.9.q.9.3.! ",
"l 3.L d.L q., O.@ 6X{.H.3.$ o T m K ( T h x.k.+X#.~.n.:X1.> *./ ^ *.> 1.:Xx.~.#.+Xk.x.F T ( K m T o $ 3.H.{.6X@ O., q.9.d.L 3.l ",
"h u.F.d.0.q.R { 7 6XrXZ.3.i ! n n ^ l #./ b.5 iXp.;._.l.h.D.9 $ $ 9 D.h.l./.;.D.iX5 E./ #.l ^ n n ! i 3.Z. X6Xr { R q.0.d.F.u.h ",
"T 0.L b.0.d.> { o.,X|._ <.g p.z P ~ : R z /.7 #.hX-.A.!.8.E.E L z E E.8.!.A.-.jX#.7 /.z R : ~ P z p.g <._ |.,Xo.{ > d.0.b.L 0.F ",
"n P.XXl.0.d.8 { Z 3X0X#Xf . 2 E K p.R h ~ /.7 5 i.W.#.=Xf.f ;XV V ;Xf f.=X#.W.i.5 7 /.~ h R p.K ( 2 . v #X0X5XZ { 8 d.0.l.XXP.n ",
"V 0.~ K.u.f.e X.9 yXwXW.) @ 4 Q ^ i.` g L %X[ K.0.k.T.O.fXj.F.i i F.j.fXO.T.k.0.K.[ %XL g ` i.^ ^ 4 @ ) ).wXyX< X.e f.u.K.~ 0.V ",
"E T.).g.p.k.9 ..<  XkX^.d H ~.j / ! L * L #X%.iX~.Y kXa.$.aX0.M.M.0.aX$.a.kXY ~.iX%.#XL * L ! / l W.H d ^.kX X< ..9 k.p.g.).T.E ",
"( / N 4Xf.f.Z O.4 '.5X4.y # 8 }.i.j A.o.K kXE.(.fXs.( NX$.L.%Xn n %XL.$.NX( i.fX(.E.kXK o.A.j i.|.7 * y 3.0X'.5 O.Z f.f.4XN / ( ",
"T !.2XOXp.k.9 ..o.,X0XG.f # w T F.[.i   ^ *Xv.(.fXB.i.nX-.).=X& & =X).-.nXi.B.fX(.v.*X^   i [.F.E w # t G.0X-Xo...9 k.p.OX2X!.T ",
";.p.0.4Xg.Q.R { Y wX%XR., F !.$.i.` p.9 L ,XR hX/.R cXZ.C.fX2.F.F.2.fXC.Z.cXR /.jXR ,XL 9 p.` i.$.W.G d R.+XwXY { R Q.g.7X0.p.;.",
"B.).>X,Xj.OXY X.b eX1X%Xt @ o >.` ^ ^ W 0.<X[ XX0.9X*Xo.iXG.!.V.V.!.G.iX&.*X9X0.XX[ <X0.W ^ ^ ` >.- @ t %X1XvXb X.Y OXj.,X>X).B.",
"S.P.P.7Xk.OXR X.e ZX6X#Xy g s.=./ i.# ! / fXr 4 '.2Xo.&Xh.k.E.h.h.E.k.h.&Xo.2X'.4 r fX/ ! # i./ =.u.< y *X-XZXe X.R OXk.7XP.Q.S.",
"-.f.j.6X].+XR ..; ZXBXx.k l U.:./ ] # _ e.2X4 $.cX%.3X7XE aXN N N ! aXE 7X3X%.cX$.5 2Xe._ # ] / :.U.h k x.BXZX; ..R +X'.-Xj.k.;.",
"W >XvX9Xj.Q.Y X.c ,XSXuX<.O ; N.p.E ~ D ~ <X> xXh.C.bXI 8XJ._ . . _ b.8XI bX`.k.xX# <X~ D ^ E p.N.; O <.uXSX,Xc X.Y Q.a.7XvX>XW ",
"e.d./ 8XI.,XM +.#.FXbXm.2.@ 0 U p.R 0.j -.&X:X,X&.CX:X@X8.* 5X` ` 5X* 8.@X:XCX&.<X&X&X-.j / R p.U 0 @ 2.m.bXFX#.@.e -XI.qX/ f.` ",
",.1X!.AX].wX%.6 A nXbXz.u U '.) C.- / =.W gXnX&.1XhX< ) ^.i.V.9 , V.0.^.) < hX1X&.nXhXW ` ^ - C.) XXU u z.bXnXA 6 %.wX].AX!.1X,.",
"r.9Xs f ! 9XT +.n nXMXpXu r ` ' ^ # I - K SX>.C.NXr.g 5X#XL.A.8X8XA.L.#X5Xf r.NXC.>.SXK - / # _ ' ` r u pXMXnXn +.n 9X^ f s 7Xr.",
"W 1XGXzXeX;X9 S q .X[.3Xh @ 3 %.p , ) T i.%X] nX&Xs.:X>XoX5 ) J.oX` 5 oX>X%X' &XnX] %Xi.T ) , p %.3 X f 3X[..Xq S d ,XmXzXGX1XW ",
"a.1Xa.Z.C.bXa 6 4 5XGXf.% P !.$.) ` ;.` _ zXZXd.J.B.i.P.hXw E.;._ P.w hXP.i.B.J.l.ZXzX_ ` ;.` ( $.!.P % f.GX5X4 4 a bXC.Z.a.1Xp.",
"M 5X'.XX].XX8 5 2 F.NXu.+ :.s.0 o._ L A -.BX}.C.;X( |.w.(.' B.q q B.' (.w.}.( ;XC.G.BX-.A L ] o.0 s.:.+ u.NXF.2 6 c '.].'.'.5Xb ",
"M @X'.@X].'.M 6 2 j.NXu.1 :.s.0 o._ L A -.BX}.`.;X( }.w.(.' B.q q B.' (.w.}.( ;XA.}.BX:.A L ` o.0 7.:.+ u.NXF.2 6 M '.].@X'.@XM ",
"Z.1Xa.Z.C.bXs ; 4 8XGXf.$ P !.E ) ` ;.` _ zXZXd.J.B.i.P.hXw E.;.;.E.w hXP.i.B.J.l.ZXzX_ ` ;.e._ E !.P % f.GX5X4 ; s bXC.Z.a.1XC.",
"Q 1XGXzXmX,XM { q .X[.3Xh @ 3 %.p d ` T i.%X] nX&Xs.<X>XoX5 ) oXoX) 5 oX>X<Xs.&XnX] %Xi.T ` d i %.3 X f 3X[..Xq { M ,XmXzXGX1X^ ",
"M.9Xh f ! 9XT O.n nXDXpXu r ` ^ ^ # I - K SX>.C.NXr.g 5X#XL.`.8X8X`.L.#X5Xg r.NXC.>.SXK - I # Q ] ` r u sXDXnXm O.T 9X! f h 9XM.",
",.1X!.AX].yX%.} A CXbXz.u P XX=.C.- ^ ` W gXnX&.1XhX< ) ^.i.V., , V.i.^.) < hX1X .nXgXW ;.^ > C.=.XXU u z.bXnXA } *.yX].AX!.1X,.",
"` j.^ 8XI.,X9 @.#.FXbXm.2.O 0 I r.R 0.j -.&X&X<X&.CX:X@X8.* 5X` ` 5X* 8.@X:XCX&.<X:X&X-.j / E p.I | @ <.m.bXFX#.@.9 ,XI.qX^ j.` ",
"W >XvX7Xj.Q.Y ..d ,XSXm.<.O ; N.p.( ~ D ~ <X> xXh.C.bXI 8XJ._ . . _ J.8XI bXC.h.xX- <X~ G ^ ( p.N.; O <.uXSX,Xd ..A Q.j.7XvX>XW ",
";.k.j.-XOX+XM ..; ZXBXx.x l U._ / ] # _ 0.2X5 $.cX%.3X7XE aXN N N ! aXE 7X3X%.cX$.4 2Xt.W # / / _ U.l k v.BXZX; ..M +XOX-Xj.k.;.",
"S.P.P.7Xk.OXR X.e ZX4X*Xy g s.=.^ i.# ! / &Xr 4 '.gXo.&Xh.k.E.h.h.E.k.h.&Xo.gXF.4 r &X/ ! # i.^ =.u.9 y *X-XZXe X.R OXk.7XP.I.S.",
"B.).>X,Xj.OXY X.b eX>X%Xt @ - -.` ^ ) _ 0.7X[ XXL 1X*X&.aXG.).V.V.!.G.iX&.*X1X0.XX[ 7X0._ ) ^ ` -.- @ t %X>XvXb X.Y OXj.,X>X).B.",
";.p.0.4Xg.Q.R { Y 1X=XR., F !.$.i.^ p.9 L *XZ jX&XR cXZ.C.aXJ V.F.2.fXC.Z.cXR &XjXZ *XL 9 p.^ i.$.R.G d R.#X1XY X.R Q.g.4X0.p.;.",
"T !.2XOXp.k.9 ..o.-X0XG.t # w ( F.[.i   ` <Xb./.fXB.i.nX-.OX=X& & =XOX-.nX' B.fX/.b.<X`   i [.F.E q @ t G.0X-Xo...9 k.p.OX2X!.T ",
"( / N 4Xf.f.Z O.4 '.0X3.y % 7 |.i.j C.Z K kXb.(.&Xi.( NX$.L.*Xn n %XL.-.NX( i.fX(.b.kXK Z C.j i.|.7 % y 3.0X'.4 O.Z f.f.4XN / ( ",
"E T.).g.p.k.9 ..;  XVX^.i H ~.l ` ! / > L *X%.iX~.Y kXa.$.aX0.M.B.0.aX$.a.kXA m.iX%.*XL > / ! ` l W.H i ^.VX X> ..9 k.p.g.).T.E ",
"V 0.~ K.u.f.e X.< yXwX+X) X 5 Q ^ ` ^ g L W.[ k.0.j.v.O.fXj.F.f p F.j.fXO.T.k.0.k.[ W.L g ^ i.^ P 5 X ) +XwXyX< X.e f.u.K.~ 0.V ",
"n P.XXl.0.d.8 { Z 5X0X#Xv   * E K p.R h ! /.r 5 p.^.#.=Xf.f ).N ( ;Xf f.=X#.^.p.5 r /.! h R p.K ( * . v #X0X5XZ { 8 d.0.l.XXP.n ",
"F 0.L b.0.d.> { o.,X|._ <.g p.z G ~ : R z /.7  .jX$.A.!.8.E.E z K E E.8.!.A.$.jX .7 /.z R : ~ G z p.g <._  X,X#.{ > d.0.b.L 0.F ",
"h u.F.d.0.q.Y { 7 6XrXZ.3.i ! n N ^ h #.0.b.5 _.D.=._.l.h.V.9 $ $ 9 V.p.l./.-.D._.5 b.0.#.h ^ N n ! p 3.S.rX6X7 { Y q.0.d.F.u.h ",
"l 3.L d.L q., O.@ 6X{.H.3.$ o T m K ) m F x.k.+X#.~.n.:X) > :.^ ^ *.> V :Xn.~.#.+Xk.x.F m ) K m m o . 3.H.{.6X@ O., q.L d.L 3.l ",
"! 3.9.q.9.q., { 4 -XqX6Xt.2   T T l l g n sX&X .W.}.7.b.q.q L.^ ^ T.0 q.b.7.|.R. .&XsXn g l l T N   2 9.6X5X+X6 { , q.9.q.9.3.! ",
"h 3.e.q.~ r.8 { 8 vX;XE.y.+   g s E a : x pX*.h./.T 4.^ r.fX8.: : 8.fXr.^ 4.Y iXh.*.pXx : a E s h   @ y.v.-XvX7 { 8 r.~ q.e.3.h ",
"h 3.9.q.~ d.* 4 F.mX].f.n.. . T z n T 8 K E.*.aXp v K.L (.9.p oXoXp 9.(.L K.N p aX*.E.K 8 T n z T . . n.f.].mXF.4 * d.~ q.9.3.h ",
"! 9.r.3.~ q.& X 8X_.tX$Xz.%   b f . m v W R.v.5.M 1.6.<.n.R R.t.w.(.R l.<.6.9.m 5.v.R.W v m . h b   $ z.$XtX_.8XX & q.~ 3.r.9.! ",
"h j l h.z q.$ e '.xX@Xn.g.  X N g - ~ F f lXv.0.Y.d 8 k.Y.9 8.t.r.6.g Y.k.8 , m.0.v.lXf F ~ - g n X   v.b..XxX'.e $ q.z h.l j h ",
": e.d.5.k e.% b a zXdX&X3.J @X& b + & i k ,Xi ^ q.n.c.y.L B.c f f c i.z y.c.n.q.! i ,Xk i & + n & @XJ 3.&XxXzXa b % e.k 5.d.e.: ",
"i a f r.k M.% @ O u.iXy.$ # , $ ,   . o ! ~   . $ , XXn . : 4 * * 4 & . n XX, $ . . ~ ! o .   , $ , # $ y.iXu.O @ % M.k r.f a i ",
"$ w.r.z ) ;.. . O   % .           1   O     @       .   O             O   .       @     O   1           . %   O . . ;.) z r.w.$ ",
"h h D K K K T b f T d v N a T ( j m l F ` j s D m ! ! h n E D t t H T n h ! ! m D D j ` F l m j ( n a N v d T f b T H K K D h l ",
"2.P.z j.d.k J }.E.I H u.XXP.J j g.I.d.j J XXB q.k.v.E.3.q.g.3.5.5.3.k.q.3.E.v.k.q.B XXJ j 7.I.g.j J P.XXu.H I E.}.J k u.f.k P.2.",
"m ~ B B d b d p p i d d v f t t p h x n h y =.p h b j   , i O _ _ O i ,   j b h p =.y n n x h p t t f v d d i p p d c d B B ~ m ",
"XXp H l 3.k.D.s : h.v.3.i T G.k.N c r.r.B F.a.3.r.i k.f e.5.T ~ ~ T 5.e.f k.: p.3.a.F.B r.r.c N k.G.T i 3.v.h.: s D.k.3.l H p XX",
"K / ! ! ) ! L L ( L L ) K k 4.! ^ T L K H 3.( L ~ H ) L B z U d d U z B L ) H ~ L ( L H K L T ^ ! 4.k K ) L L ( H L ! ` ! ! / D "
};
