/* XPM */
static char *xpm_[] = {
/* columns rows colors chars-per-pixel */
"64 64 235 2 ",
"   c #010001",
".  c #0B0202",
"X  c #030905",
"o  c #0B0904",
"O  c #04040A",
"+  c #0B040A",
"@  c #040A0C",
"#  c #0C0B0C",
"$  c #130302",
"%  c #1B0402",
"&  c #140904",
"*  c #1B0B03",
"=  c #12050B",
"-  c #1A050A",
";  c #130B0C",
":  c #1B0C0B",
">  c #0F120F",
",  c #1C1104",
"<  c #13120D",
"1  c #1B120C",
"2  c #030710",
"3  c #0D0712",
"4  c #060B12",
"5  c #0C0D12",
"6  c #0E0B1B",
"7  c #130C13",
"8  c #130A16",
"9  c #1A0D13",
"0  c #1A0F18",
"q  c #0D1114",
"w  c #0D1219",
"e  c #141214",
"r  c #1C1213",
"t  c #1B1913",
"y  c #151319",
"u  c #1B131A",
"i  c #171918",
"p  c #1C1B1C",
"a  c #220301",
"s  c #2C0401",
"d  c #230B04",
"f  c #2B0C03",
"g  c #21070A",
"h  c #2B070A",
"j  c #240D0B",
"k  c #2B0D0B",
"l  c #330C01",
"z  c #370905",
"x  c #3C0E00",
"c  c #310E0C",
"v  c #231205",
"b  c #2B1304",
"n  c #281A06",
"m  c #24130C",
"M  c #2B140C",
"N  c #2C1A0D",
"B  c #331304",
"V  c #3C1302",
"C  c #351B04",
"Z  c #3D1A03",
"A  c #33130C",
"S  c #3C160D",
"D  c #32190E",
"F  c #3C1C0C",
"G  c #220410",
"H  c #230D13",
"J  c #2A0E11",
"K  c #330D12",
"L  c #231314",
"P  c #2B1414",
"I  c #241914",
"U  c #2C1A14",
"Y  c #22141A",
"T  c #29161B",
"R  c #251A1B",
"E  c #2B1B1B",
"W  c #341413",
"Q  c #3A1414",
"!  c #341B14",
"~  c #3A1B14",
"^  c #341619",
"/  c #381418",
"(  c #341B1B",
")  c #3B1C1A",
"_  c #37260A",
"`  c #3F240B",
"'  c #2A2216",
"]  c #25201C",
"[  c #2E211C",
"{  c #312214",
"}  c #3D2315",
"|  c #33221B",
" . c #3C251B",
".. c #36281F",
"X. c #3B2A1D",
"o. c #0F1221",
"O. c #1A1C25",
"+. c #231A22",
"@. c #2C1E26",
"#. c #3A1D21",
"$. c #232323",
"%. c #2C2424",
"&. c #242925",
"*. c #2C2C2C",
"=. c #342323",
"-. c #3B2423",
";. c #332B23",
":. c #3B2A22",
">. c #392B2A",
",. c #3E3126",
"<. c #3C322C",
"1. c #2E2F31",
"2. c #2F3130",
"3. c #343333",
"4. c #3B3533",
"5. c #3D3834",
"6. c #3A3538",
"7. c #3D3D3C",
"8. c #441504",
"9. c #461907",
"0. c #441A0B",
"q. c #521D04",
"w. c #421B14",
"e. c #4A1E17",
"r. c #431C1D",
"t. c #501F10",
"y. c #482608",
"u. c #4C250A",
"i. c #502905",
"p. c #532708",
"a. c #532A0B",
"s. c #592A0C",
"d. c #5E300C",
"f. c #432413",
"g. c #492114",
"h. c #442A14",
"j. c #45241C",
"k. c #4B231B",
"l. c #432C1B",
"z. c #4C2C1D",
"x. c #542C14",
"c. c #5A2C12",
"v. c #552818",
"b. c #4B3214",
"n. c #5A3F13",
"m. c #59341A",
"M. c #6F360A",
"N. c #68340D",
"B. c #683315",
"V. c #633A14",
"C. c #693D15",
"Z. c #653A1A",
"A. c #6A3B1B",
"S. c #713F1A",
"D. c #432523",
"F. c #442C22",
"G. c #492A25",
"H. c #452C28",
"J. c #542B24",
"K. c #433325",
"L. c #4C3423",
"P. c #48352A",
"I. c #4C3C2D",
"U. c #533425",
"Y. c #5B3B25",
"T. c #56342E",
"R. c #543829",
"E. c #593A2C",
"W. c #433232",
"Q. c #423D3B",
"!. c #4D3B39",
"~. c #573933",
"^. c #633826",
"/. c #633F33",
"(. c #3F403F",
"). c #61400B",
"_. c #7D4A0B",
"`. c #674317",
"'. c #73431B",
"]. c #774819",
"[. c #7C5416",
"{. c #5B4528",
"}. c #47423B",
"|. c #5D4335",
" X c #55463A",
".X c #5C4B3B",
"XX c #694525",
"oX c #6D4D26",
"OX c #744725",
"+X c #7C4C23",
"@X c #734628",
"#X c #774C29",
"$X c #6E5129",
"%X c #735225",
"&X c #7B522C",
"*X c #634635",
"=X c #6D4E37",
"-X c #644739",
";X c #755333",
":X c #7E5935",
">X c #7A6239",
",X c #433E42",
"<X c #4A3E42",
"1X c #3F4241",
"2X c #424142",
"3X c #4B4244",
"4X c #4F4843",
"5X c #534643",
"6X c #544B44",
"7X c #5A4B44",
"8X c #574C49",
"9X c #5D544A",
"0X c #655649",
"qX c #7D6541",
"wX c #796852",
"eX c #834A07",
"rX c #83520C",
"tX c #844E12",
"yX c #835514",
"uX c #83531A",
"iX c #8C5818",
"pX c #945B18",
"aX c #8F631C",
"sX c #814926",
"dX c #845224",
"fX c #875A24",
"gX c #895728",
"hX c #965C23",
"jX c #8D5C39",
"kX c #8E6329",
"lX c #93652D",
"zX c #8A6636",
"xX c #9A6E3B",
"cX c #8A6844",
"vX c #A28047",
/* pixels */
"                                              5 ;. XxXM.eXpXiXpXuXiXpXrXyXvX.X}.i                                               ",
"                                          6X9XcX`.zXaXyXpXyX_.rXhXtXeXrXyXkXlX%XwX0X9X                                          ",
"                                      %.7X#XgXgXiXaXyX[.lXlXgXlXhXpXiXfXfX[.yXkX[.fX>X0X3.                                      ",
"                                  o 5XU.s d.'.uXuX[.).).$X&XoX%X'.].&X:X&X`.N.uXuX].`.* |.8Xo                                   ",
"                                <X!.a B y.cXXX` & v b d v v v b n v * : ' v % d b.n.>Xy.V % -X8Xo                               ",
"                            Q.~.c a u.oX>X{.n . . o . . . $ .   X X .     .   . . , n.qX;Xu.s S 7X4X  X                         ",
"                           Xz.s V i.zXoXh.o . 7 + + * U -.=.r O X q *.H.^ J - . &   . _ {.cXc.q.l U.9X%.                        ",
"                        5.U.p.&X#X&X:X` $ & = + = 1 ..,.U % % : t   * ( ~ #.( $ + o o . C @X@XjX:X8.h.7X                        ",
"                      }.f.x xXdXdX@Xf.* . . : - ^ U * . $ C x.c.V.p.l a % g J @.9 < o . & Z @XjXgXC.0.A  X                      ",
"                      L.f l A.dX:Xu..   7 r U ~ d d * n l.{.v.8.q.s.^.U.~ h % $ E r 7 < $ % y.XXdX].l s .X#                     ",
"                    6XC f V C.V.C & O o.O.7 $ a a A X.K.{ v h K - % a W U.Y.h.d $ . e p # . % f.s.+XV f L.7X                    ",
"                   X} l 8.p.#XZ $ O O O   . * b } { N m * $ % G - - - a f b F  .v & . . # & . $ V Z.s.8.f ! 8X                  ",
"                6XL.s S a.n.Y.b .   . % M | =.;.[ < . $ d M K c K W W m * . ; 1 ;.X. .A *     O b u.^.u.z a /.8X                ",
"              4.{.Z 0.0.Y.*Xa % . $ b U.E.X.L # @ # r U / / / Q f f M U [ +.e o & U R.*XF.* . = & b {.b.k.0.S *X}.              ",
"            # I.` l u.c./.G.. . % N l.z.) - . + ; L P W ) ( M & * U ..[ : . + r .   : :. XI.C . . . } z.Y.9.x g.-Xp             ",
"            # I.B f 8.;X~.$ T $ % F  .b $ - 9 % - j h % % P I 1 N v * & 1 r : : j L $   : X.h.b * . . f.m.V s B R.]             ",
"          3X<.v % F *XF % . = H j.( 1 . . L D.T.k.z.j.! k g L ( W f : L I t ) F.j.) L $ o : M U : = . $ V m.f.% m W.3X          ",
"          3X- * M } z.B . . $ g k d o X ; I P s A f d % g j J A j.A d : 1 1 , d s c P ; o # : L 7 =   . f f.} N g - 5X          ",
"        ,X!.d d l.~ N * . $ ; +.- $     # e ; $ $ . .   . & k A w.c % . o   . . $ 9 H 7     & 1 Y 8 . . % M  .H.M d !.Q.        ",
"        <.j % a D.D & &   ; 9 =.[ I $ . . # < <   . + . . & l 0.z l h $ .   . + 9 9 + . . & I [ @.y o . . & U H.a % : >.        ",
"      $.<.* % T.W j   o   + 7 E :. .U - o . o t e # O . : f x 8.8.8.k * $ = 7 9 : + . . H #. ...O.7 + O     - ^ T.% * <.*.      ",
"    4.( , $ c G.c :   @ . . # : * f ! W :     . w 5 5 # : f x 8.c.0.f * H 0 9 5 @   + 0 #.| b * r 2 O @ O X = k J.f $ t E 6.    ",
"  6.3X% v K.E.Q h : X @ # . 9 ; $ a h / T ; X   O 3 6 8 + % S v.J.0.g 9 9 8 + O O 2 3 +.E N & o ; ; # @ @ @ = h w.R.,.I = <X6.  ",
"  3X- U ' P.w.r.g -     5 . I % ~ z h K ^ L o O . . + = - P ~ e.J.K g 9 9 +   O O # 0 R P v v n & & 3 O O O $ a w.w.:.r T = }.  ",
"i ,X+ r * * d ) j .   # ; o & M v.^.e.W ) D.-.M & & j J J / / M k M K W T - . > ,  .j.Q / U.z.0.b & . # @   $ d w.M * = t = ,Xp ",
"4 e r . . . j ! -.L = . o $ m  .v.t.s % k ! D.F.. $ d k h h g & o & * m L &   o F.z.w.s % z t.v.h.m o + @ + d ~ W M $   # p 9 = ",
"2 5 i   ; $ & . >.=.L $   . I F.j.S % % 1 : ( K.! * . $ . $ .     o X O O   & A j.( j a a a z e.G.N .   & m !  .$ % . ;   e 7 O ",
"$.    O =   $ & E %.#.g . . 1 U F.X.U %.%.: : N K.n * % $ . o o . & o 2 < 1 N j.A % % U -.) r.j.A * . . : ( ) M j $ . ; X   O +.",
"  1X@ @   ; >   # T ) W $ .   & M N L t t $ $ % b n | K.| m m N d W Q r.D. .m d a $ . - R ' U ! * . . $ M ! m & . . o   X X ,X  ",
"  7.  e . .   X o m ( / - . X # . -     . . % a a % v U |  .f.F S k.J.r./ f % * % & $       $ & &     * M M - $ +     X >   7.  ",
"  (.o   O 2 X X o & K / k + O q ; u # + = 1 U ( ) g $ $ - D 0.8.8.g.} * $ $ f ( m L e w # + - ; 7 O $ n ! j $ + O O X   X @ 7.  ",
"  e }.e O   @     . g ^ J $   # e p 5 = 9 ; g g D.D.-.T . $ l 8.0.l $ . I >.D.#.t ; @ 4 7 r H u 3   & { -.H $ #   #   X i (.7   ",
"    *.X   @ X   o . : | | * . & # # 9 9 Y L % . $ - T @.U - * d ! $ $ ( W.=.: . . = i u r 7 7 7 = . : U T -   + . @ @   X *.    ",
"    p 2Xp     . .   . t [ m * . o # ; 9 T Y : . + & - H L L : & * : U =.E - + =   # r Y u 8 3 + . - L R u .   + O O O e 2Xp     ",
"        2.X   X X   . 1 ' [ m . o O = 9 Y Y 9 + & = $ $ L T r .   1 | E & . . r o : u Y 0 7 + + . - L I ; .   O X O # *.        ",
"        &.    o       . I =.U $ o   . : Y T 9 ; e 1 8 $ : u 9   . & : ; $ : 7 ; = e Y R 9 = O O $ 9 E 9 +   . O       &.        ",
"        7.2.        . . : E L . .   . 7 Y Y 9 7 e u u ; $ = =   o . $ . = Y u # # e I Y 9 +   + ; L I ; . + .       2.1X        ",
"        X 2XX     o .   + r t ; X     : Y 0 9 7 7 r Y 9 = + # +   + ; ; = 9 y 5 e e 9 Y 9 + O 2 r L r = . + O     # 2X          ",
"          6.  o O O . . + : r r #   . 8 Y u 7 7 5 7 9 8 8 + + O   o ; 7 0 7 7 5 5 5 7 H 9 + + 3 r r : . . . O O @ O 7.          ",
"          6.  > .     . o = 9 u q   . 9 Y 7 7 5 7 5 5 9 0 7 +       O 0 u u 7 @ 7 5 7 9 8 + + 7 u r # o .       #   6.          ",
"            > #     o . . 3 # u q O . + 0 u 8 @ # 5 7 u u = .     . # e u o.0 4 5 # 7 y = + + 7 R o +   . O   O 5 #             ",
"            e $.O O   O   O O   q o O + 8 0 7 4 @ w 7 u O.= .     O ; r u y 6 5 5 5 7 7 3 . 2 u . # ; . # + 5 O $.e             ",
"              7.3.  O + + + O O.q @ + + = 8 5 5 5 w 7 u Y 7 .     o 7 u y y 6 q q 5 7 7 + + 4 y O.+           3.7.              ",
"                2X  e   5     8 5 # # O + 3 4 w w y 7 7 Y 9 = .   o 9 u u 8 5 q 5 5 # + + + 7 y i   O #   7   2X                ",
"                2X*.X       O O 5 # 3 # + + 2 6 q y 5 8 Y r = & . ; r r 0 7 5 6 4 4 O   + 2 5 5 O O         *.1X                ",
"                  3.  p q   5   @ 4 5 5 + O 2 4 5 w 7 ; u I : : ; 1 r 9 9 7 4 w @ @ O   + 7 2 @ O 5   O i   1.                  ",
"                  *.@       O O X 2 5 3 + O @ 2 4 5 7 ; 9 L L r t r : 9 8 = 6 4 O @   O # 7 5 @   O O O   5 *.                  ",
"                    $.$.# O   X O @ y 3 + O O @ @ 5 7 = 9 H H J P m j 9 7 7 4 5 O O   . 7 e 5   #   O # $.$.                    ",
"                      p X X   X @   o y i O O 6 4 4 6 7 H P / Q A c P H y 6 6 2 O . o = e e X 2     # X p                       ",
"                    @ 7.*.X   5   3 y e 5 + O   @ @ 2 # - g J / Q W L 9 3 4 2 @ O   . ; e 5 O   q   O *.7.#                     ",
"                        i (.    . 3 8 7 7 y 5   O @ # 4 8 - 9 H H : = o O O X O   # 7 9 7 3 6 O   X 7.p                         ",
"                          o # 5 8 + O ; u e # O     . . + . . . = = + O . X X o   # 2 6 O O 6 O 5 # #                           ",
"                            3.# ; O O > > o   X < e 7 r e e < e 4 + # # = & # # O O O 2 @ @ 4 O 5 3.O                           ",
"                              }.X o o o X .   . . . . . .     X . O . o . . . . # . O   q e X   6.                              ",
"                              5.' n v * & * % - - = = $ + o X X O O O . . $ $ $ - % : . 1 1   ' 4.                              ",
"                              ] 8X=Xb.z.x.f.z w.S A h j d v , 1 v 1 j d k M A S S w.T.~ } ..n }.p                               ",
"                              Q.) W a t.B.q.B.sXgX'.N.i.p.s.s.s.i.i.i.a.x.n.Z.Z.OXOXA.^.w.& m ; 6.                              ",
"                              Q.$ - a l t.B.M.N.].'.C.C.XXOXA.B.S.'.Z.V.V.`.OX+XS.B.s.8.f d :   6.                              ",
"                            Q.>.. m P.~ z v.8.9.8.b d $ % d a % a a a a % a B 8.a.9.p.8.S H.I # &.7.                            ",
"                          e t   . o { U s W h ( d j m U ..I.-X0X*X*X|.I.:.U d % A z w.B N E + X     p                           ",
"                          # %.e ;   o : g J ( H $ g E @.T M j j M M U R R T 7 = : U - . < t o X > # e                           ",
"                          o r     + R u . 9 +.$ = 9 Y H : $ % : : ; # = 7 e e 7 + +.:   t &.q     X e                           ",
"                          i ; 7 y O Y i   = ; o 7 ; + .   . # 7 ; # .     o + # # u +.# i 7   O.5 o p                           ",
"                            $.p 7.3 .   X p   X O . . + o X . O O + + O . . o . 7   0 O .   = 7.R &.                            "
};
