/* XPM */
static char *xpm_[] = {
/* columns rows colors chars-per-pixel */
"64 64 233 2 ",
"   c #050000",
".  c #0B0201",
"X  c #0D0903",
"o  c #0C0609",
"O  c #0D0A0A",
"+  c #120502",
"@  c #190500",
"#  c #140A05",
"$  c #1B0B03",
"%  c #150C0A",
"&  c #1A0E0B",
"*  c #0F100B",
"=  c #151103",
"-  c #1E1203",
";  c #16110D",
":  c #1C120D",
">  c #1E190C",
",  c #140D11",
"<  c #161011",
"1  c #1D1311",
"2  c #1D141A",
"3  c #220D02",
"4  c #290E00",
"5  c #210E0A",
"6  c #280F0A",
"7  c #230700",
"8  c #241303",
"9  c #2A1403",
"0  c #251906",
"q  c #2C1B03",
"w  c #23140B",
"e  c #2A150B",
"r  c #24190D",
"t  c #2C1A0C",
"y  c #321505",
"u  c #331D05",
"i  c #31160A",
"p  c #321B0C",
"a  c #391D0D",
"s  c #221513",
"d  c #281712",
"f  c #241914",
"g  c #2C1C14",
"h  c #251B19",
"j  c #2C1E19",
"k  c #321D13",
"l  c #381D10",
"z  c #321E18",
"x  c #2E220C",
"c  c #26200A",
"v  c #342303",
"b  c #3A2504",
"n  c #3C2A02",
"m  c #33230C",
"M  c #3C240D",
"N  c #3D2A0C",
"B  c #302A08",
"V  c #2C2215",
"C  c #2D231B",
"Z  c #2B271A",
"A  c #342214",
"S  c #3A2516",
"D  c #3A2314",
"F  c #342915",
"G  c #3D2A14",
"H  c #33241A",
"J  c #3B251A",
"K  c #34291B",
"L  c #3B2A1C",
"P  c #3C311D",
"I  c #3C3119",
"U  c #383009",
"Y  c #2D2522",
"T  c #332720",
"R  c #332B22",
"E  c #3C2C22",
"W  c #3D2E29",
"Q  c #372A26",
"!  c #3D3224",
"~  c #3C3628",
"^  c #3E3432",
"/  c #412300",
"(  c #40260C",
")  c #442B0D",
"_  c #452B06",
"`  c #42310B",
"'  c #412514",
"]  c #432C14",
"[  c #492E16",
"{  c #41261A",
"}  c #43271C",
"|  c #41291D",
" . c #44291D",
".. c #422C1C",
"X. c #4A2E1C",
"o. c #433215",
"O. c #4A3415",
"+. c #4D3A12",
"@. c #44321C",
"#. c #4B351C",
"$. c #4C3B1D",
"%. c #443D1A",
"&. c #543C1D",
"*. c #553B1A",
"=. c #472D20",
"-. c #422E22",
";. c #492D21",
":. c #422F28",
">. c #443224",
",. c #4A3424",
"<. c #473923",
"1. c #4C3B24",
"2. c #43322A",
"3. c #4B362B",
"4. c #473B2A",
"5. c #4C3B2B",
"6. c #523625",
"7. c #533D24",
"8. c #593F23",
"9. c #513C2B",
"0. c #583F29",
"q. c #4D3B31",
"w. c #523D31",
"e. c #55431D",
"r. c #59461E",
"t. c #5C491C",
"y. c #57481D",
"u. c #64461C",
"i. c #4D422C",
"p. c #534324",
"a. c #594524",
"s. c #5B4A24",
"d. c #55432B",
"f. c #5B442B",
"g. c #5C4B2B",
"h. c #564A25",
"j. c #5D522B",
"k. c #4E4134",
"l. c #4E4A3E",
"z. c #534233",
"x. c #5B4533",
"c. c #5D4B34",
"v. c #544539",
"b. c #5B4B3C",
"n. c #594836",
"m. c #5D5237",
"M. c #634D24",
"N. c #62442A",
"B. c #634D2C",
"V. c #674925",
"C. c #64512C",
"Z. c #69542F",
"A. c #6D5A2E",
"S. c #675527",
"D. c #604733",
"F. c #624C34",
"G. c #624B3A",
"H. c #694E36",
"J. c #645433",
"K. c #6A5535",
"L. c #6E5C35",
"P. c #64533C",
"I. c #6A523C",
"U. c #6B5A3C",
"Y. c #675836",
"T. c #7C5E36",
"R. c #745D3C",
"E. c #725A34",
"W. c #736135",
"Q. c #796436",
"!. c #75633A",
"~. c #7B643B",
"^. c #7B693B",
"/. c #6B663C",
"(. c #564B42",
"). c #5B5445",
"_. c #645344",
"`. c #6C5543",
"'. c #665942",
"]. c #6C5C42",
"[. c #6D5C4A",
"{. c #635D4C",
"}. c #725D41",
"|. c #745D4B",
" X c #765A43",
".X c #6A5E50",
"XX c #6C6243",
"oX c #6F644B",
"OX c #746344",
"+X c #7A6343",
"@X c #7C6A44",
"#X c #73614B",
"$X c #7B694A",
"%X c #77674A",
"&X c #7E704B",
"*X c #6F6252",
"=X c #7C6B53",
"-X c #766D5B",
";X c #7F7154",
":X c #81683C",
">X c #816C43",
",X c #816749",
"<X c #826C4D",
"1X c #816645",
"2X c #85724C",
"3X c #8C744A",
"4X c #867047",
"5X c #917C4F",
"6X c #847253",
"7X c #8A7454",
"8X c #83745C",
"9X c #8B765C",
"0X c #8B795C",
"qX c #8A7A58",
"wX c #907E5B",
"eX c #957757",
"rX c #856D53",
"tX c #8C7C62",
"yX c #897868",
"uX c #937E66",
"iX c #97825E",
"pX c #978459",
"aX c #8F8061",
"sX c #978964",
"dX c #9A896D",
"fX c #968769",
"gX c #9D8B73",
"hX c #9F9176",
"jX c #A89A75",
"kX c #A59777",
"lX c #A48A65",
"zX c #ACA480",
"xX c #B9A68A",
/* pixels */
".     .     . .   .   . .         +   # . . . . . . .   . . . . #   $ . .   +   . . . . #   #               X                   ",
"  . . . .   . . . O . X % X X . : s # w # % + + + + & $ @ 5 # @ $ + $ : $ : # + + # % % s % f ;   o o O .   o X X   . . X   .   ",
"  . X % % % # # % % # X & & # % r A w A r w 5 5 5 5 z d g d 6 i e g g H g E 8 g s r e r Z w V > . O ; ; ; X O & O % % % # # .   ",
". . % & : : : ; % % & O & & . # g S t S d k k g z k J k z l l l A L J J z -.t E S H A g L t S f = X O * < 2 % , ; 1 ; < , % # . ",
"  + % % ; : : ; ; % ; # ; : . $ L ,.A ' k l J J -.l } i } } ' l l } =.{ J J i =.| | S A -.D ,.L ; . & % < 2 # % & 1 s & % & # . ",
". X # # % : : ; ; . - % < 1 . : ] @.a G l {  . .l i } l X.} ' a l { 6.;.{ ' i J ;.;.] D ] m ,.-.; # s & # & . s , 1 & , % % + . ",
"  # & & - > : # r # : + & : . w A M 9 D D | =. .l i =.i X.l a y i l { 6.l =.l D  .;.] D J i ] S w . 1 % # & # h @ 1 5 & & 5 % + ",
". # > > s s > % C $ > X # = . : L G i G J ..{ l =.i =.6 } y y y y y 4 =.4 ,.z { J J -.L ] p L L w   # . # f # h + s s s s 1 & + ",
". # > w s & & # ; : $ . $ # . w k A k 5.S g J k k k l 9 D 7 4 l l 3 4 | e D J d k J g z 3.p A m w . # % # : w 5 % s s 5 h & s + ",
". + % & % $ % + $ : & + % % . w g K A E C S H k z 7 e J @ ;.6.I.`.5.X.+ A t e E k H J z W V L V ; . # % + & & & @ & 5 % s @ & . ",
". + & % % $ & & & & & # # % + > C K V j j ! j g e k k @ D `.|.`.c.#X|.F $ F k r g j E g C S L Z w . % $ # & & : % 5 & @ 1 @ & . ",
"+ & w & & & & & & # ; $ # # + > K K V r j >.e g k 3 + y ].D.H. XU.].c.U.t @ 5 J k w W j f A K H : # % $ % & & : & 5 & % d & d + ",
". % & & & % @ + , + & % + # + 1 R V r g H ! - t D 4 9 $.#.R.R.B.C.OXOXo.1.0 8 -.k $ E k g t x H # X # . # = # ; + % $ # s % 5 . ",
". . & & & , , + 1 + & % . # # % K r e V A A 3 9 #Xm M [ 8.K.*.:X!.y.R.s.7.o.m *Xt 8 H k A e p H # # # # % ; # > # % & # 5 # $ . ",
". + < & & 5 2 & h + & & + % % @ A A e S t p i 9 I.rXR.3 _ u.Q.T.:X^.t.n 3 +XuX|.9 t p t H e A H # # # X : > % j - > : $ s $ : . ",
"+ & 1 % , & & & h % 1 , + & , + C L t G 0 t ' 4 ' kX,X*.@ u lX>X4XpXb @ a.0XxXG 3 D p 9 S i ] K X # # # : > % j > 1 1 # s & f # ",
"+ o # . % h % % s s , % % # # % e E 0 S 9 m 8 8 q 8Xd.P.y M u 9 0 q m v '.c.tXv 3 x q p A e >.r # X . # & < s j < & h # # % & + ",
"+ 1 < # % h # # & % & + + % # % E z $ K 0 9 9 F U.d.#.c.3 ,.,.0 8 @.<.$ P.d.G.[.G 9 t 0 m e k :.# # X # % % < 1 % # s # , s s + ",
". 1 & 1 + s . # % % % % o # + + g 2.0 8 @ 0 N c.$.8 g.F.+ ] 0.|.=XF.@.. c.c.- o.P.m p @ 3 A ! H + . X % % % & 1 % . s # & h s . ",
"  < % & . h . # & % % % % % , % w e e A @ - P c.9 @ @.0 + 7.c.gXgX7.#.@ m @.@ D c.1.$ $ H e S w # % % ; & % & 1 # . s # % 1 < . ",
". , . & . h . % # & & 1 < 1 1 & g @ 8 e + z.dX|.F.p.<.8 @ ] 7.uXgX7.N $ 8 N ] c.#XgXk.# t @ e g : : : 1 < & % & , + h + # & & . ",
"+ & % o o h # % 1 , % & % % # # r e + 8 z.8XyX%Xm.9 . @ 9 $.B.g.7.7.] 3 @ . q U.;X8XyXz.0 # w V % O # ; < : & 1 # + h + % & 1 + ",
". < 1 # + s # % < 1 1 % % + + . : e 0 b.yX@.$ d.c.d.d.Y.b o.g.&.e.B.) u B.g.d.d.c.@ 1.yX_.0 w s # . . O 1 1 < : % + h # % 1 1 + ",
". # s % % 1 # , # + + # % % % % : A (._.L - 5.P.#.].OXU.N h.Y.j.B.C.$.b OXOX].<.P.9.$ K *Xk.! - : # X # & & % # % o s # 1 1 % . ",
". % % % & % % f . % 1 + # 1 # # E >.n._.d.b.8X%X<.qXzXU.2Xa.>XiXuXT.a.,XR.xXdX#.=X8X'.z.oXn.4.~ ; . 2 & . 1 s . h % , & & & + . ",
". % s s s & % < . # < % # & # % K 0 L d.A 8 9 8 m 0XdXp.Y.b u L.!.9 v Y.g.dXtXo.8 9 0 A z.K r I ; . % & % s % + 1 % & s s 1 % . ",
". & s h s < % & 1 . # + . % # . $ 8 0 8 . . 8 q d.o.$.q + N L.@X@XE.b + v $.o.J.x 8 + . 0 0 9 - . . & % # % % , % % & s h s 1 . ",
"  % , & % % % : s . # . . % # + 0 q F I 1.c.1.N m 8 p.0XL.Y.2X6X$XwXC.C.6Xp.@ m G 1.P.i.<.F x 0 # # % . # , # 1 s % % 1 1 s % . ",
". % & % % % % & . # 1 % . # # # 0 @ # $ 9 9 9 I F.8X0XU.O.j.pXe.+.sXs.U B.0X=Xc.@.8 c 8 8 + # 9 # # X . % s # . 1 & & & % 1 % . ",
"  & 1 : < : % % # % # . # %   . - %.].U.g.B @ m 1.g.J.c.O.v 2XiXsX2Xq o.g.d.1.p.N @ o.d.].U.o.- . . % X # % X % % & & 1 1 s & . ",
". : 2 1 s 1 & # 1 #   . < #   f oX;XtX8XdXtX@.B 9 1.OXOXY.b e.kXjXo.v J.OXY.$.8 m @.dXdX0X0X;X[.w . # & .   # s % % s s 1 1 & . ",
"  % : % 1 s ; & . % o . % . % *X0Xh.B B oXtXc.'.d.. #.0XR.Y.B.L.Y.e.L.J.6XI . @.U.c.tX'.v q p.8X.X;   O & % X % & < s s % & %   ",
"X > r # @ % # + O . X O . . K m.j./.U m.XXhX8 F =X] 9 %XB.K.T.M.S.^.C.s.OX9 N XXv 0 tXY.J.v Q.h.m.K . . X X . # # . @ $ % s >   ",
"  X # # $ 5 $ 1 X ; ;   . w P i.sX%.hXzXm.%X$ @.c.9X@ eX1X4X>X:XA.!.@X^.pX@ 6Xi.o.@ +Xe.jXjXU sX<.L r     ; < X # - r r X . ;   ",
"  2 h % $ f s + . ; %   X f g - = B /.XX8X%.. ].v tXN @X5XE.3X5X5XpXA.3X+Xb 6Xq F.$ B $XXXg.I $ $ t r .   ; < . ; $ : % : Y Y   ",
"  ; s & % w 5 % , O o % ; % @ . X B n.oXU.m U.d.$.g.e.n +.b ~.^.Q.^.v ` n r.s.p.1.J.u P.].c.0 @ . + % ; O o O % $ : e w % 2 2   ",
"O O X % & . . & 2 o   , , # # w X r '.i.P I U.j.e.v n n v t.E.S.t.A.e.v n n q *.f.B.@.] 9.[.6 . 8 @ # & ,   . 1 , . + 5 # o , o ",
"o < ; . $ s s & . , , , & % # @   - n.4.%.g.OX&X@X!.A.^.W.>X^.S.A.4X>XT.Q.C.A.L.OXR.7.,.;.w.e + @ + X % , , o # s 5 $ @ . s 2 o ",
"  % & @ z v.2.&   , 2 , O % = X V 4.i.1.i.o.h.y.e.y.j.t.L.L.7XB.L.7XK.Z.a.r.e.r.8.N 0.6.} x.J z # # # # < < # . $ :.(.T . + <   ",
"% . . g w.:.@ . % % O . . # V ~ E 4.[._.m.h.h.y.s.s.2X2X+X%XB.+ @ K.<X X3X!.O.e.a.a.p.G.w._.3.K E s # X O . X # . @ W q.j # o o ",
"  > . v.z.,.3 t # . # X = ; R B 4.K I i.j.%.J.@X@XJ.Y.g.U.I.7 p i 7 `.H.f.N.g.R.}.U.f.d.@...,.>.x Z > X X . # # e $ 5.z.5.+ #   ",
"    c m 1.n.<.3.z.r .   f Z ~ R ! F I i.XXm.j.e.) g.L.c.U.a { =.;.{ l H.D.D.$.b O.J.Y.F.i.F A P P ~ Z > X X > 4.,.,.d.#.S : X   ",
"X   K x @.d.x.@.k.# X X f Z c Z x i.oXn.I v I h.x.1.N.`.@ X.=.=.;.;.} 7 `.7.G g.p.<.q m P.XXP Z Z c Z > = # # <.L f.1.F m r . X ",
"    - i.G ] f.L x   V ~ ).).).-XXXi.c   . V <.1.#.D.`.4 i ' 6. X|.6.a a 4 _.6.#.9.<.x . X c ~ XX-X).).l.~ > . x ] 1.N G <.r   . ",
"  . 8 ).@.X.,.m n.$ > w R Y > c = . # + 0 ! F S z |.;.y [ [  XN.N.1X[ [ 4 X._.k L V ~ r # X = X Z > R Z > = $ n.m ] ] #.n.r . . ",
"  $ (.n.G M ' >.5.# .   O X     X     . % R H 2.w.} l ' [ N.eX/ / eXN.) ( D ..q.3.w ~ :     X   X   X X X . # @.X.G i D (.v.>   ",
"% # A e 0.G.3.p e . # . O X O X X   , % o Y f T l w.4 6.( T.u.:X1Xu.T.) N.y z.A K & Q O O * *   X X   X % # + $ e 6.x.6.d w & X ",
"  Z H g =.5 l p @ + .   X   ;   .   o o + W d z 3.D.a [ 1X/ V.u.u.u./ 1Xa.u x.3.j f ^ . X     o   * O   .   + @ p a i | 5 W h   ",
"+ w g g e e w 5 @ + .   .     . .   . . . H 2.5 d.|.' #.H.R.V.N.V.V.R.H.#.G #X5.8 E g     .   .   . .       . $ w 6 i 6 d d s + ",
". @ d d d w 5 3 w $ # + # # # X % . $ w @ @ D >.z.a B.9X[ #.B.R.R.K.#.O.9XF.D c.>.A @ @ w $ + : X # % # % = - - 3 3 6 6 6 d $ . ",
". @ d k z z k k k k V C C Y Z Y T j H W K w J _.G.@ F.I.N.eX8.*.8.#.9Xf.F.D.@ n._.L w H W K j T Q T Z C C Y C k z k k z d w #   ",
". @ s j k z H A g k A A K H K K H j g H H t k ,.p 3 u y &. X[ 1X7XO.+X8.9 v 9 p @.k g H H j H C H K V f V C A k J k k k d w # . ",
". . $ 5 5 $ 5 8 3 w e e w r w $ e w $ 5 e 3 + @ @ 0.7.0.] a ( ( [ ( ( [ 7.0.x.@ . @ 8 e w w s e $ 5 w - w w 0 0 e 7 7 6 $ $ #   ",
". + % : 5 8 e k t m H A H J J k j j J 2.-.A i p ,.#.' [ ( a.[ N.N.( 8.u ] M ] ,.e t A E -.T A j k J -.-.L K A t z e 6 5 5 % #   ",
". + & g g g z E D { | | >.5.5.W J S 2.z.5.3.3. .D.9 u N.6.8.@ H.D.@ 8.6.H.D 9 G.>.,.3.3.z.>.A L -.3.w.5.,.>.L A =.z z z d : #   ",
"  . # : w w e k e t t 9 i D t $ 5 $ k k 8 g D 3 e D. .D.( D.X.a y d.D.u U.@.6.0 $ A t 8 j g @ w 9 k l t 0 A A V l e 9 g s ; .   ",
". X . & + w 3 w @ @ @ 3 3 9 9 5 $ @ e t 8 5 3 @ $ 3  .,.0.D.D M ( X.x.x.0.A 9 $ @ 8 $ t w t @ 8 e e 8 8 8 @ # @ e 7 k @ 5 . X   ",
". # . w 5 g w t 9 e i k l A J H A A K E K D A t k $ p | G.|.,.M l d.`.P.-.9 8 A t S A L J E k H } J S H A A A t z e z $ h % % . ",
"    . ; $ & $ $ + @ @ + @ @ $ $ @ @ @ w @ $ $ @ e @ 3 8 J ;.e 8 8 S L =.8 8 $ e # $ @ $ $ : @ $ 3 $ $ @ $ $ @ $ 5 @ e + > X o   ",
"  . # 1 r f w w g k g d d g z z j g C C g k z g t e k e 5 r 3 t g t w g d V t e j H V g j g f V k d g r g f V g d 5 d 5 s ; X   ",
"    ; > g g g g r g d 5 w s h f j f C g g g j g j j k g g z k H A j K g A g A C j V j r C f f j d d s s f r f f H g H s h >     ",
"    # X ; # - # $ 5 & % $ & 1 & w : w w $ : w $ $ $ & $ & 5 w & : $ s @ s # w $ > w w # w $ & 1 1 5 & & & ; : - 5 @ 5 # % %     ",
"X   # . % . + . @ # + . . + # + @ . + # . + + + . @ # @ . . + @ # . . . # # % . + . # . % . . # + . + . X # + . + . @ .   *     ",
"        . . . . . . .   . . o . . . . . . . + . . + . . + . + . . + . . . . . .   . .   # . . . . . . .   . . . + . @ .   X     "
};
