/* XPM */
static char *edb756442c9d41579f4ee3a6cd8ae572Zy45KN4Z3KtKo70P[] = {
/* columns rows colors chars-per-pixel */
"64 36 252 2 ",
"   c #1C0D05",
".  c #191C18",
"X  c #1A1009",
"o  c #28160E",
"O  c #38190A",
"+  c #251A13",
"@  c #2B1D14",
"#  c #281D18",
"$  c #341C13",
"%  c #3C1F13",
"&  c #240D03",
"*  c #29261B",
"=  c #382719",
"-  c #3A321B",
";  c #32230A",
":  c #0F1F25",
">  c #1C2928",
",  c #1B322A",
"<  c #1B3236",
"1  c #2A2D29",
"2  c #272A25",
"3  c #342C22",
"4  c #382C26",
"5  c #2B332A",
"6  c #34332D",
"7  c #3A3328",
"8  c #2A3736",
"9  c #343A35",
"0  c #3A3C33",
"q  c #333B3A",
"w  c #393737",
"e  c #282F32",
"r  c #12211E",
"t  c #451E12",
"y  c #461C04",
"u  c #59290A",
"i  c #472718",
"p  c #562917",
"a  c #4A361D",
"s  c #593519",
"d  c #4D2C0A",
"f  c #642B19",
"g  c #673818",
"h  c #76381A",
"j  c #69300F",
"k  c #492C21",
"l  c #582D25",
"z  c #443123",
"x  c #473A28",
"c  c #563627",
"v  c #4C3C32",
"b  c #433B37",
"n  c #593E37",
"m  c #652E23",
"M  c #683826",
"N  c #773925",
"B  c #713B2E",
"V  c #2C433C",
"C  c #33423D",
"Z  c #3B423B",
"A  c #374538",
"S  c #5B4914",
"D  c #694A19",
"F  c #7A4B1A",
"G  c #665316",
"H  c #795519",
"J  c #6E430C",
"K  c #5C4626",
"L  c #575128",
"P  c #47453A",
"I  c #584839",
"U  c #525136",
"Y  c #66482A",
"T  c #784527",
"R  c #695729",
"E  c #775729",
"W  c #684738",
"Q  c #784A37",
"!  c #695636",
"~  c #7A5737",
"^  c #68613A",
"/  c #7A6339",
"(  c #796830",
")  c #2E3C42",
"_  c #413A42",
"`  c #2B4342",
"'  c #2B4746",
"]  c #344445",
"[  c #3B4443",
"{  c #3D4B43",
"}  c #354C4C",
"|  c #3B4B4A",
" . c #334946",
".. c #3A544D",
"X. c #364E52",
"o. c #355253",
"O. c #3C5353",
"+. c #3C5559",
"@. c #395A58",
"#. c #2E5351",
"$. c #3D6559",
"%. c #34604F",
"&. c #3E6864",
"*. c #424C43",
"=. c #474C49",
"-. c #564B45",
";. c #44544C",
":. c #495548",
">. c #565749",
",. c #435554",
"<. c #4D5953",
"1. c #435C5B",
"2. c #485856",
"3. c #565A55",
"4. c #404F54",
"5. c #65564A",
"6. c #795946",
"7. c #655D54",
"8. c #6B514B",
"9. c #4C645C",
"0. c #48645A",
"q. c #59655A",
"w. c #506D55",
"e. c #686344",
"r. c #796646",
"t. c #6A685A",
"y. c #776859",
"u. c #79735A",
"i. c #7C7348",
"p. c #415D61",
"a. c #4C6362",
"s. c #4D6C64",
"d. c #476967",
"f. c #576A65",
"g. c #4B756A",
"h. c #53736C",
"j. c #597669",
"k. c #487974",
"l. c #537B73",
"z. c #5C7C74",
"x. c #597978",
"c. c #4E6F72",
"v. c #666A67",
"b. c #786C65",
"n. c #677468",
"m. c #787668",
"M. c #667976",
"N. c #767B77",
"B. c #616F70",
"V. c #86371A",
"C. c #843B26",
"Z. c #933F23",
"A. c #85541C",
"S. c #894C16",
"D. c #88651C",
"F. c #84472A",
"G. c #94472B",
"H. c #875728",
"J. c #955A27",
"K. c #874A34",
"L. c #934A33",
"P. c #875537",
"I. c #965836",
"U. c #A4593C",
"Y. c #87662B",
"T. c #986729",
"R. c #876736",
"E. c #986938",
"W. c #8A7338",
"Q. c #9C743C",
"!. c #967638",
"~. c #91742C",
"^. c #A46628",
"/. c #A46438",
"(. c #A47D3C",
"). c #A77A38",
"_. c #B67834",
"`. c #B17428",
"'. c #A4651E",
"]. c #885944",
"[. c #965B46",
"{. c #814D40",
"}. c #AA5B46",
"|. c #876847",
" X c #9B6945",
".X c #897647",
"XX c #987647",
"oX c #867659",
"OX c #957955",
"+X c #8C6D56",
"@X c #A76B47",
"#X c #A67B47",
"$X c #B67647",
"%X c #B17452",
"&X c #857768",
"*X c #897D75",
"=X c #8F766A",
"-X c #C07D50",
";X c #4E817B",
":X c #59847A",
">X c #58826F",
",X c #67867B",
"<X c #778478",
"1X c #6C8C76",
"2X c #9A833B",
"3X c #A98238",
"4X c #B48739",
"5X c #C18333",
"6X c #D5933D",
"7X c #988346",
"8X c #998756",
"9X c #AA8646",
"0X c #B68947",
"qX c #BA9648",
"wX c #B58B54",
"eX c #B89557",
"rX c #A89050",
"tX c #968568",
"yX c #8B8878",
"uX c #998A76",
"iX c #949072",
"pX c #A68C79",
"aX c #B2956E",
"sX c #B6A25B",
"dX c #C3984A",
"fX c #C69B56",
"gX c #D49D4F",
"hX c #C7A249",
"jX c #C8A358",
"kX c #D2A159",
"lX c #C59763",
"zX c #CD9368",
"xX c #CDA86B",
"cX c #E4BB66",
"vX c #598B86",
"bX c #5B918C",
"nX c #648A85",
"mX c #708882",
"MX c #659489",
"NX c #779489",
"BX c #689795",
"VX c #779B97",
"CX c #74A396",
"ZX c #76A8A3",
"AX c #76A9A5",
"SX c #8F9387",
"DX c #A79885",
"FX c #B29E8F",
"GX c #B6A790",
"HX c #A2AB9E",
"JX c #CEAC88",
"KX c #EDBA9B",
/* pixels */
"f N Q T F.Q.).9XR r.oXOXaXOXK pXoX~  X$XT.).J.E.kXT.H.E.9X(.H #XfXgXhXhXcXhXqXfXwXXXQ.wX@XQ.E.XXR..XtXyXSXBXBXZXBXk.BXBXBXnXg.%.",
"N g P.P. XE.J.H.aXDXGXpXaXtX&XpX&X+X X#X0X9XQ.fX0X0XJ $X0X(.9X0X0X4X4X4XqXqXdXjXwX9XeXQ.wXeXlX#XD OXuXyXSXCXAXAXBXCXBXMXx.x.l.g.",
"F.N L.I.$XzX-X@XpXuXFXDXDXGXuXyX&XuXXX#XjXdXjX4X0XfXT.T.0X4XkXkXkXqX).jXeXjXjX9X(.T.cXcXjXjXhXqX(.xXtXyXHXZXZXZXbXZXZXBXd.x.nXl.",
"F.K.K.L.I.$X$X@XaXDXpXDXuXuXtX&Xu.pX|.!.(.).~.3XT.D.T.T.4XdX0X).0X0XqX9X!.!.~.rX0XQ.~.hXdXhXhXdX3XeX|.u.NXMXMXbXMXBXbXl.c.nXvXd.",
"M B K.[.@XI./.@X%XXXaXXXE.XXXX8X.XR 7XeX9X9X(.3XY.Y.H.9X3X9X!.2X2X2XrX7XY.G 9XjXeXwX0XxX).0XcXdX4XfXXXu.NXVXZXAXAXZXBXnX:XVXMX;X",
"T ].K.N T h h I.F A.T.J.A.F Y.W.G G !.2X9XY.Y.Y.Y.E / 8X7X7X8X.X( G S G G W.!.~.!.Y.H J j E.dX3X4X0X8Xr.1XnXvX;X;X;Xl.nXh.nX:Xk.",
"U.%XI.T @XlXJ.E.E.T.T.E.#X#XW.#X9X!.H Y.9X!.R..X.XOXoXoX^ ! U >.oX8Xi.S ( eX3XD.!.S d !.Q.E.wX3XdX0XsXi.n.,XvXbXBXBXMXnX,XNXj.w.",
"U.U.I.j Q.#Xg E.#XeX9X#XJXaXXX!.Q.H H H Q.E..X/ L L >.t.>.q.9.<Xt.P iX^ W.rXqXeXsX2X7XeX#XH.wXwX0X#XxXi.t.NXVXZXMX:XBXl.s.NX,X1X",
"[.zX@XF.H.d Y |.! r.|.OX|.~ !.~.Y.H Y.H D R./ ~ u.u.t.3.<Xq.NXNXn.U e.! W.W.W.7X2XY.7X!.wXE E.I.~ s ! 5.>.f.NX>Xw.$.0.$.d.l.9.9.",
" XKXwXH.XXE GXGX&X5.+X=X! ~ Q.Q.W.E !.XXD E ! oXpXSXN.N.<Xj.VXCXM.,Xe.! G 8XW.7X7XR .X.X8XXXT P.W i z >.n.<.1X1XCXNX1Xg.l.z.f.9.",
"E.lXwXF ( R oX*Xb.5.y.y.I / Q.(.R.R R.W.E / ! e.u.iXm.n.q.<XVXnXc.f.>.^ G rX8X( 8X- x U e.K ~ 6.W v 7.6 0 ;.j.,XMXnXl.d.z.w.;.*.",
"Q.Q.H.E R L y.*X-.&XDXr.r.XXlX).D E W.rX/ K ! I ^ e.t.t.v.NXmXnXx.M.:.U L i.r.U &XP q.SXm.x =X5.P -.w 2 3.q.,X,XMXMXMXnXMXj.j.q.",
"Y.Q.Y.R.K a &XGXt.yXuXtX! XXfXeXH D !.eXtXGX*X5.x L t.q.n.M.h.:Xd.h.s.C 6 b t.t.0 P *.q.m.-.7 7 P *.<.e e <.j.z.:XnXnXl.l.l.,X>X",
"W.E.E.P.Y x v y.b.t.=X6.s E Q.Y.W.R.Y.wXGXy.5.5.oXtXm.>.n.j.,X,X:Xz.s.x.f.n.v.<.m.n.Z q.=.2 [ <.<.*.;. .2.B.f.s.g.>X,X:X:XMXMXg.",
"~ ~ P.~ ! k $ 4 7 # 2 + ; Y ~ ].|.Q E XXOXc I v r.^ I P q.B.,XM.z.l.p.p.f.a.| 3.:.5 A f.q.2.,.f.:.Z 9.2.,.a.z.z.>X>X>X:XbXbXbXk.",
"M s T Q W c i = o o 4 x x r.Q P.Y ].D R.R.Y z v R K a I 7.N.N.M.s.1.+.o.1.1. .;.A *.{ 2...9... .{ V ;.' O.a.g.g.$.g.l.l.k.k.g.g.",
" XP.P.K.T ].P.{.M Y u P.E.%X/.J.g aXaXxXxXXX6.r.Y K Y r.DX*Xv.N.>.N.1.h.a.a.0.z.M.v.v.f.,.s.j.f.f.} $.g.h.nXBXbXvXk.;X:X:Xh.l.$.",
"[.[.F.K.N I.[.[.I.I.H.J.J.J._._.A.J F E D D ~ |.E R.E / oXy.-.b I 7.A 0.a.0.0.0.<.f.<.[ 9.q.SXSX| 1.0.n.f.s.nXvXk.&.@.g.h.9.0...",
" X].N K.}.}.%XU./.$X$X$X_.`.6X6XdXdXH.O d E H.E.wXfX9XXX! I y.z W W 5.q. .O.<.N.*X=.q.n.>.&XpX8.3.=.u.u.u.:.h.k.$.s...9.s.9.h.s.",
"Y p p Q [.L.G.G./.)./._.^.5X6X6XgXgX9Xu D XXH.E.9X0X9X9X! 5.5.-.W % 7 :.' a.| N.SX9 f.f.6 -.W = 3.:.uXY K >.h.@. .;.;.q.h.h.,Xs.",
"x I ! W 6.].].T H.H.E.T.T._.5X5X`.gX).Y.!.Y.D D H.E H.E Y I P 0 3.<.<.] d.&.a.] > > ' } 9 w 6 1 ;.Z u.x * A ,.} ,.,.,.O.+.+.a.@.",
"yXHXuXyXDXFXpXY g g F.A.A.`.`._.`.4X0XE.Q.E.T g s g T E |.; x 3.q.mXx.x.c.d.nXx.f.a.s.1.] ) | C ] q >.4 5 ] M.N.f.2.1.@.p.p.X.1.",
"v.m.7.&XpX=X|.Y N h F.J.T._.`._.'.J./.F F H.j g g u u g M W -.-.v.M.M.c.@.d.l.h.a.a.O.O.4.: a.,., 5 -.w C { n.v.0 9 ,.X.' ` ,.mX",
"t.t.5.I 8.6.Q Q K.T F.J.^.^.^.^._.^.I.J.H.E.F.F.P.P.P. X].W l 8.b =.f.c.#.@.&.d.s.1.a.a.a.,.2.f.2 1 3.e | q DXb.-.1 | ' } ` 2.2.",
"DXDX&Xn B Q ].Q T g T T J.E.J.J././.I.P.T T T g T F.P.[.[.B p ].i 5.n.s.d.c.d.g.h.s.1.,.s.,.Z q.P U =.` V ;.oXW 4 1 ..+.,.| 2.a.",
"*XuXy.c n W M M s Y s Y g T F F h j N N f g h j h F H.j K.Q T s W I P | M.a.@.d.d.o.O.1.@.O.*.6 * * > 8 V ;.n $ + . ` o.8 8 ` ' ",
"&XyXy.I y.y.&XuXpXuX- i t ~ [.T p y p u f C.C.G.G.S.S.H.u Q 8.z y.I 7 6 v.) ] +.c.X.o.+.' O.9.C ,  .e  .O.2.9 . . r 8 ] < : < o.",
"yXt.7.b t.5.u.u.y.u.z i i B {.B p p f f C.Z.V.G.V.S.J.H.E ! y.I = v >.b _ e ,.O.1.' o.+.X.1.1.1.#.` ) ) ) +.,.> ] q q 8 q < < #.",
"b.>.7.7 I I 6.8.6.Q p m m N B K.F.C.C.C.V.Z.Z.L.V.S.F F T s M s a = v -.=.<.| , #.' #.#.o.1.} 1.1.} +.' ' +.X.]  .| C > e q ` o.",
">.P -.= = % i l p p m B N T N F.C.L.L.C.F.h C.G.C.h h j g M P.u d O = I 9 q , ` ' #.d.d.d.a. .} { 1.@.@.' O.2. .8 e > , 5 ,.O.` ",
"7 3 @ = k l p m M M f f m N N N h F.B m B f m N N N j h F.T g g E K k x 6 [ ` ` ` } +.+.O.} V A >.<X} ' ] | { q e > 8 ..C O.X.` ",
"-.P = z t i p p p l p p M f N f p f m l l p p p M N N N K.T g s s Y W v 3 2 =.,.| ,.} ,.2.,.;.*.>.q.,.| | 2.;.<.] ] | |  .| ,.+.",
"-.3 + @ @ $ $ & & o % = i i k i t t i l l t O O t p p g s u s s s x I z P 7 0 6 Z { A *.{ ;.*.{ Z *.] [ | ;.=.<.=.{ | [ q C ] ] ",
"4 # + * = = = + @ @ * @ o o o o $ = = % $ o $ $ % i i p p i c c x x I z x = 3 3 * 0 0 0 5 Z { *.{ { [ *.C 8 e [ [ A Z w 9 9 9 9 ",
"# . X X + @ @ * + @ +         o   @ @ + + @ # o o @ = = - = = = = ; = * = @ * * * 1 2 * 2 6 6 2 5 9 9 9 2 2 2 6 1 9 9 1 1 1 2 2 ",
"2 6 w b I P 4 3 4 7 3 = 4 z x -.-.P 4 # # * 2 * 4 3 = = - - - - x 7 = 3 7 4 4 6 0 0 6 0 *.P Z 9 Z =.<.=.[ <.q.3.9 <.3.P Z P 0 b "
};
