/* XPM */
static char *xpm_[] = {
/* columns rows colors chars-per-pixel */
"64 64 251 2 ",
"   c #352908",
".  c #2A2A1A",
"X  c #322B1B",
"o  c #372B16",
"O  c #35331B",
"+  c #2E2D04",
"@  c #2E2C24",
"#  c #2C2C2B",
"$  c #282627",
"%  c #342C23",
"&  c #3A2C25",
"*  c #342C2B",
"=  c #382A2A",
"-  c #2C322D",
";  c #343225",
":  c #3C3424",
">  c #33332B",
",  c #3B3A2C",
"<  c #3A372A",
"1  c #2C2B32",
"2  c #272C3A",
"3  c #332B33",
"4  c #362C37",
"5  c #2D323C",
"6  c #2A3339",
"7  c #333334",
"8  c #3B3C33",
"9  c #33343A",
"0  c #3C3B3C",
"q  c #383837",
"w  c #1D282E",
"e  c #443919",
"r  c #483406",
"t  c #692E1B",
"y  c #771B29",
"u  c #661F2F",
"i  c #42342C",
"p  c #473B28",
"a  c #573C24",
"s  c #562833",
"d  c #433B34",
"f  c #443B3D",
"g  c #453737",
"h  c #4F2F36",
"j  c #662A36",
"k  c #762E31",
"l  c #6A1A19",
"z  c #3B413B",
"x  c #4D4419",
"c  c #554819",
"v  c #554D16",
"b  c #68550C",
"n  c #654C18",
"m  c #675719",
"M  c #76591C",
"N  c #7A550F",
"B  c #72611B",
"V  c #494526",
"C  c #554929",
"Z  c #5C542A",
"A  c #484638",
"S  c #564936",
"D  c #595537",
"F  c #4C5039",
"G  c #695927",
"H  c #655938",
"J  c #704C2A",
"K  c #756529",
"L  c #786B39",
"P  c #736E36",
"I  c #1C3257",
"U  c #1D3446",
"Y  c #262E42",
"T  c #243444",
"R  c #25334B",
"E  c #2B334C",
"W  c #2B3645",
"Q  c #3C3A42",
"!  c #373948",
"~  c #273656",
"^  c #323851",
"/  c #433B44",
"(  c #673641",
")  c #374349",
"_  c #3A4858",
"`  c #364A5A",
"'  c #384969",
"]  c #2E466E",
"[  c #484648",
"{  c #534C4B",
"}  c #575546",
"|  c #494654",
" . c #534656",
".. c #4A545C",
"X. c #575758",
"o. c #4B554C",
"O. c #665D47",
"+. c #635858",
"@. c #734C44",
"#. c #5B6252",
"$. c #6A6447",
"%. c #786B48",
"&. c #7C7248",
"*. c #666558",
"=. c #776F54",
"-. c #4A4E64",
";. c #485669",
":. c #555661",
">. c #455776",
",. c #495279",
"<. c #5A6463",
"1. c #586B73",
"2. c #4B627C",
"3. c #787666",
"4. c #677679",
"5. c #787877",
"6. c #6A6D6F",
"7. c #605867",
"8. c #891D2E",
"9. c #972839",
"0. c #893235",
"q. c #A22A3F",
"w. c #894E2B",
"e. c #857738",
"r. c #947C3A",
"t. c #8C712F",
"y. c #826B1B",
"u. c #883F46",
"i. c #857747",
"p. c #887B58",
"a. c #947754",
"s. c #837C68",
"d. c #887E75",
"f. c #81636B",
"g. c #A06C58",
"h. c #778278",
"j. c #99883A",
"k. c #AB8C3A",
"l. c #9B8A49",
"z. c #8D8354",
"x. c #988857",
"c. c #958E51",
"v. c #A8984C",
"b. c #B29956",
"n. c #A8904E",
"m. c #B8A559",
"M. c #B8A74E",
"N. c #888669",
"B. c #978B69",
"V. c #949469",
"C. c #8C8C73",
"Z. c #888778",
"A. c #938C78",
"S. c #979679",
"D. c #8E907A",
"F. c #A79763",
"G. c #A59B7A",
"H. c #B09767",
"J. c #ABA364",
"K. c #B8A766",
"L. c #BBB36A",
"P. c #A4A37C",
"I. c #AAA57C",
"U. c #BAAA77",
"Y. c #BDB67F",
"T. c #96A07B",
"R. c #C4A959",
"E. c #C9B55A",
"W. c #D7BA58",
"Q. c #D0B14D",
"!. c #C3AA69",
"~. c #C9B869",
"^. c #D5BB66",
"/. c #C7A974",
"(. c #CABA77",
"). c #D6B775",
"_. c #D1A365",
"`. c #E1BE65",
"'. c #D0A258",
"]. c #D9C369",
"[. c #D9C575",
"{. c #CDC371",
"}. c #E4C56A",
"|. c #E7CC7A",
" X c #E6D378",
".X c #F5D87C",
"XX c #F2D273",
"oX c #FBE379",
"OX c #E7C25A",
"+X c #415E83",
"@X c #516A8C",
"#X c #7C7987",
"$X c #67798B",
"%X c #375C89",
"&X c #817792",
"*X c #7A8885",
"=X c #7C9091",
"-X c #7A8BA9",
";X c #858B8A",
":X c #999784",
">X c #878992",
",X c #8D928E",
"<X c #A59D85",
"1X c #AC9C88",
"2X c #9AA38E",
"3X c #A6A384",
"4X c #ABA984",
"5X c #AAA788",
"6X c #B4AD89",
"7X c #B7B489",
"8X c #ABA794",
"9X c #B4AD93",
"0X c #B4B395",
"qX c #BDBD94",
"wX c #BDBA9B",
"eX c #B8B399",
"rX c #ABB395",
"tX c #989AAC",
"yX c #A99BAD",
"uX c #97AAB3",
"iX c #BAB9A5",
"pX c #B0B3B0",
"aX c #C7BA89",
"sX c #C1BC9C",
"dX c #C1BC94",
"fX c #D6B883",
"gX c #C3BBAB",
"hX c #E5BD8A",
"jX c #BEC19D",
"kX c #BBC18E",
"lX c #BAC3AC",
"zX c #D7CB88",
"xX c #DAD394",
"cX c #CBC795",
"vX c #EAD786",
"bX c #F5DB86",
"nX c #EAD798",
"mX c #EFD18D",
"MX c #F6E587",
"NX c #F8E496",
"BX c #EBE393",
"VX c #C2C3A8",
"CX c #DAD6AF",
"ZX c #EADBA8",
"AX c #F5E6A7",
"SX c #F5E6B3",
"DX c #92AEC5",
"FX c #B7B5C6",
"GX c #AEB0C4",
"HX c #C5C5C3",
"JX c None",
/* pixels */
"JXJXJXJXJXJXJXJXJXJXJXJXJXJXJXJXJXJXJXJXJXJXJXJXJXJXJXJXJXJXJXJXJXJXJXJXJXJXJXJXJXJXJXJXJXJXJXJXJXJXJXJXJXJXJXJXJXJXJXJXJXJXJXJX",
"JXJXJXJXJXJXJXJXJXJXJXJXJXJXJXJXJXJXJXJXJXJXJXJXJXJXJXJXJXJXJXJXJXJXJXJXJXJXJXJXJXJXJXJXJXJXJXJXJXJXJXJXJXJXJXJXJXJXJXJXJXJXJXJX",
"JXJXJXJXJXJXJX*.dXp.JXJXJXJXJXJXJXJXJXJXJXJXJXJXJXJXJXJXJXJXJXJXJXJXJXJXJXJXJXJXJXJXJXJXJXJXJXJXJXJXJXJXJXJXJXJXJXJXJXJXJXJXJXJX",
"JXJXJXJXJXJXJXa.AXU.p p / JXJXJXJXJXJXJXJXJXJXJXJXJXJXJXJXJXJXJXJXJXJXJXJXJXJXJXJXJXJXJXJXJXJXJXJXJXJXJXJXJXJXJXJXJXJXJXJXJXJXJX",
"JXJXJXJXJX$.m.^.vX Xm.z., JXJXJXJXJXJXJXJXJXJXJXJXJXJXJXJXJXJXJXJXJXJXJXJXJXJXJXJXJXJXJXJXJXJXJXJXJXJXJXJXJXJXJXJXJXJXJXJXJXJXJX",
"JXJXJXJXX &.E.}.MX X^.l.. 0 JXJXJXJXJXJXJXJXJXJXJXJXJXJXJXJXJXJXJXJXJXJXJX= i h JXJXJXJXJXJXJXJXJXJXJXJXJXJXJXJXJXJXJXJXJXJXJXJX",
"JXJXJXJX+ P [.`.oX X].l.o 8 JXJXJXJXJXJXJXJXJXJXJXJXJXJXJXJXJXJX7 q = s s j 0.k s 3 2 JXJXJXJXJXJXJXJXJXJXJXJXJXJXJXJXJXJXJXJXJX",
"JXJXJX+.=.e.r.R.NX].r.j.i.$.JXJXJXJXJXJXJXJXJXJXJXJXJXJXJXJXo.} *.+./ j y 8.q.9.j / 7.6.| JXJXJXJXJXJXJXJXJXJXJXJXJXJXJXJXJXJXJX",
"JXJX$ s.SXv.+ e.NXb.r L BXI.% JXJXJXJXJXJXJXJXJXJXJXJXJXJX` h.=XpXpX( y 9.q.9.9.0.( gXFX..W 2 JXJXJXJXJXJXJXJXJXJXJXJXJXJXJXJXJX",
"JXJX@ N.SXb.  h.NXm.  %.NXU.; JXJXJXJXJXJXJXJXJXJXJX5 ! ` ` 1.1.*X5.j y 9.q.9.8.9.w.f.&X2.' ' ;.JXJXJXJXJXJXJXJXJXJXJXJXJXJXJXJX",
"JXJXJXs.ZXx.+ e.NXv.r &.ZXU.; JXJXJXJXJXJXJXJXJXJX3 6 ! ;.2.@X2.;.:.( y 9.9.8.8.9.( +.7.@X@X@X@X_ JXJXJXJXJXJXJXJXJXJXJXJXJXJXJX",
"JXJXJXJXH z.7XzXNXvXcXB.H H { JXJXJXJXJXJXJXJXJX# 7 5.5.uXuXDX-XtX:Xj l y y y y 9.0.sXpXuXDXDXDX-.JXJXJXJXJXJXJXJXJXJXJXJXJXJXJX",
"JXJXJXJXo i.xXvX XvXnX1Xi / JXJXJXJXJXJXJXJXJXz 8 A h.C.rXuXpXlXcXK.w.t t k k l 0.w.fXAXVXrXpXDX;.2 JXJXJXJXJXJXJXJXJXJXJXJXJXJX",
"JXJXJXJXJXS r y.{.j.r C +.JXJXJXJXJXJXJXJXJXh.*X*X5.D G Z } <.<.L.].mXhXw.t k 0._._..XNXj.D 1.1.) 2 JXJXJXJXJXJXJXJXJXJXJXJXJXJX",
"JXJXJXJXJXS G k. Xv.B G { JXJXJXJXJXJXJXJX0 4.$X4.6.D G j.&.} #.F.b.).~.l.t.t.r.n.b.^.~.e.&.#.<.) ^ JXJXJXJXJXJXJXJXJXJXJXJXJXJX",
"JXJXJXJX* s.SXZXZXSXSXG.> Q JXJXJXJXJXJXJX6 6 T 6 , C P vXzXH C J n n M M.~.bXmXt.n b b (.AX=.o.X...! JXJXJXJXJXJXJXJXJXJXJXJXJX",
"JXJXJXJX> } A.S.uX2XS.=.< 7 JXJXJXJXJXJXJX8 <.o.} D Z P [.{.l.r.r.j.m B M.W.bXvXy.n t.j.[.NXe.D 3.Z.f JXJXJXJXJXJXJXJXJXJXJXJXJX",
"JXJXJXJX6 $ < 8 ' ' < X . 0 JXJXJXJXJXJXJX) h.,XV.h.Z B L.].W.OX^.m.B B m.]..XbXt.b M.^..XbXe.v 4XiX*.JXJXJXJXJXJXJXJXJXJXJXJXJX",
"JXJXJXJXJX) ; 6 ' ~ # , [ JXJXJXJXJXJXJXW ^ ;...$.P l.n.t.j.W.Q.}.XXM.M.j.t.a.n.n.k.W..Xb.l.m.L.z.3.A JXJXJXJXJXJXJXJXJXJXJXJXJX",
"JXJXJXJXJXJX# 9 I I 2 Q JXJXJXJXJXJXJX2 E E ^ 9 Z K L.M.N N Q.Q.bXbXbX Xy.b J G b.].|.mXt.v (.BXh.F , JXJXJXJXJXJXJXJXJXJXJXJXJX",
"JXJXJXJXJXJX1 ! +X] Y ! JXJXJXJXJXJXJX) 6.5.#X3.Z K ~.R.M B Q.Q.G c n G k.'.).(.G c v Z Z Z E.[.K Z : $ JXJXJXJXJXJXJXJXJXJXJXJX",
"JXJXJXJXJXJXJX^ ,.] I E JXJXJXJXJXJXJX[ 5.Z.#X6.} Z K.J.J w.R.M.n c c n '.`. XbXK x x x v G l.L.%.} , @ JXJXJXJXJXJXJXJXJXJXJXJX",
"JXJXJXJXJXJXJXJXR I I ~ 5 [ JXJXJXJXJX2 ) ) W E W z D Z Z K R.].R./.!.!.~.^.vXMX~.!.!.!.L Z n G #.` 6 6 JXJXJXJXJXJXJXJXJXJXJXJX",
"JXJXJXJXJXJXJXJXY E ] ~ 1 0 JXJXJXJXJXW ` ..` ` ' ..#.$.C Z J.K.K.K.U.U.aXaXxXnX/.K.K.U.H V H $.6.*X` 6 JXJXJXJXJXJXJXJXJXJXJXJX",
"JXJXJXJXJXJXJXJX7 ! >.-.- f JXJXJXJXJX[ ;X=X;Xh.,X=XD.3.> 8 d.N.d.d.&Xd.gXgXgXgXd.d.d.d.f * 3.;XuXlX<.2 JXJXJXJXJXJXJXJXJXJXJXJX",
"JXJXJXJXJXJXJXJX* Q -._ 1 0 JXJXJXJXJX9 X.<.X.<.<.X.<.<.W W ..:.#X#XtXtX&X&X5.#XtXyX6.7.W 6 ..:.h.=X;._ JXJXJXJXJXJXJXJXJXJXJXJX",
"JXJXJXJXJXJXJXJX* q [ 0 # / JXJXJXJX- - T T T W R U T R E Y 6 W 5.>XFXGX/ 3 1 5 yXFX .2 E E Y E ' +X' >.^ JXJXJXJXJXJXJXJXJXJXJX",
"JXJXJXJXJXJXJXJX* g A V * Q JXJXJXJX# ) 4.4.,X$X6 6 2 2 5 6 - 0 5.>XFXFXtX,X;X,XFXFX .* Y R Y R @X-X-XuX;.2 JXJXJXJXJXJXJXJXJXJX",
"JXJXJXJXJXJXJXJX3 i S a % Q JXJXJXJX1 [ h.,XpX1Xp e e e e e O V 3.*XpXGXHXiXVXVXpXiXS O z 6 w 6 <.,XuXpX<.JXJXJXJXJXJXJXJXJXJXJX",
"JXJXJXJXJXJXJXJX3 i a a % Q JXJXJXJX3 # p p V G F.m.K.m.K.J.J.F.V < | | <X7XZXCX+.{ c.J.V . , . - z z F A JXJXJXJXJXJXJXJXJXJXJX",
"JXJXJXJXJXJXJXJX3 i a a . z JXJXJXJXJXO v v x B {.].].}.[.`.}.W.n C & p K.^.nXZXS o L.{.P C G C , . @ @ 0 JXJXJXJXJXJXJXJXJXJXJX",
"JXJXJXJXJXJXJXJX3 i a a X z JXJXJXJXJXD L.L.m.{..XoXXX.XbXbX.XXX~.b.a e K.).mXZXO.O L.MXvXnXnXnXH o O . f JXJXJXJXJXJXJXJXJXJXJX",
"JXJXJXJXJXJXJXJX= i C h % d JXJXJXJXJXZ ~.R.l.H..XoXoXbXbX.XoXoX].{.V * d.Z.8XyXA e ~.MXMXMXNXbXc.L L e.S JXJXJXJXJXJXJXJXJXJXJX",
"JXJXJXJXJXJXJXJX= i S p % q JXJXJXJXJXS {.n.r n nXbXNXNXNXNXNXMXMX Xv . 1 ! :.:.< + {.BXMXBXNXAXSXnXAXnX%.& JXJXJXJXJXJXJXJXJXJX",
"JXJXJXJXJXJXJXJX= g S g & = JXJXJXJXJXJXL &.O.*.N.z.a.x.a.a.p.x.vXvXv.V.8 6 ! z N.V.z.z.x.x.a.a.p.B.(.xXH o JXJXJXJXJXJXJXJXJXJX",
"JXJXJXJXJXJXJXJXJXg S p & g [ JXJXJXJXJXo p Z.5.; o o o o : o V xXAXBXxXF 1 - z VXCXH o   o o e ; . z.aXO.X JXJXJXJXJXJXJXJXJXJX",
"JXJXJXJXJXJXJXJXJXg g i g 8 q / JXJXJXJXs.Z.9X8XN.h.V.V.V.S.V.V.%.O.H #.- - - - } *.A.S.G.S.S.C.A . S } }  .JXJXJXJXJXJXJXJXJXJX",
"JXJXJXJXJXJXJXJXJXg X i S d * 4 JXJXV D <X1XiXrXT.S.kXkXqXjXqXrXV p , , 8 > , , < < 5XwXsXdXgXiX} O : % { JXJXJXJXJXJXJXJXJXJXJX",
"JXJXJXJXJXJXJXJXJXf % i A A & ; i C b.J.B.:X8XD.A F V.V.P.P.3XP.V.B.C.C.T.T.D.S.:XZ.1X5XG.5X3X8XF + 3.:XD = JXJXJXJXJXJXJXJXJXJX",
"JXJXJXJXJXJXJXJXJX/ ; O V p ; : C L {.^.H.G.3XN.; z Z.V.4X4X4X3XI.6X4X4XP.4XP.4X3X9X3X5X5X3XV.C.#.V D.8Xi.D X.JXJXJXJXJXJXJXJXJX",
"JXJXJXJXJXJXJXJXJXf . : o . O D /.{..XMXMXzXB.s.JXJX<X4XdXdXsXsXsXdXdXdXwXjXqXqXcX7XwXcXeXVXD O s.G.6XcXxXZX=.* JXJXJXJXJXJXJXJX",
"JXJXJXJXJXJXJXJXJX[ } D $.$.*.%.x.b.MXMXbXzX&.+.JXJX3.3.6X9XeXeX9X7X7X7X7X6X7X7XI.qX0XrX:Xs., O N.U.(.).vXNX%.O { JXJXJXJXJXJXJX",
"JXJXJXJXJXJXJXJX1 { D.:XVXVXsXS.  G mXMXAXaXJXJXJXJXJXd G.P.<X:X3X3X<X<XP.J.P.3XG.I.I.:X[ 1 9 % V.(.E.E.|.NXL + { JXJXJXJXJXJXJX",
"JXJXJXJXJXJXJXJX1 { Z.S.4X5X9XC.& H AXzXi.&.JXJXJXJXJXd S.G.9XeX9X0X9X9X6X6X7X6X0X0X=.}  .|  .[ P K M.W.}.|.m.P.O./ JXJXJXJXJXJX",
"JXJXJXJXJXJXJXJX1 { Z.S.3X<X3XN.O D ZXY.JXJXJXJXJXJXJXJX,X5XjXwXwXsXVXdXdXdXwXwXwX0XF @ X.JXJXJXg   j.W.Q.W.{.AX=.; q JXJXJXJXJX",
"JXJXJXJXJXJXJXJX3 o.D.,XeX0XiXA.@ A D D JXJXJXJXJXJXJXJXJX} N.S.5X4X4XI.I.I.5X5X} D { JXJXJXJXJX/ X v.W.W.W.[.zX7X:X*.Q JXJXJXJX",
"JXJXJXJXJXJXJXJXJX[ 5.S.0XrX9XZ.; - % JXJXJXJXJXJXJXJXJXJX, N.S.P.P.I.P.I.4X3X:XA 1 JXJXJXJXJX:.Q A c.~.~.K.L.7X7XjX*.$ ! JXJXJX",
"JXJXJXJXJXJXJXJXJXA z , < p V , - 9 [ JXJXJXJXJXJXJXJXJXJXd S.<X0XqXkXqXwXiXwXeXo.1 JXJXJXJXQ ! 6.N.N.x.n.F.V.V.4XjX*.# / JXJXJX",
"JXJXJXJXJXJXJXJXJXJX# * ; i X & 0 9 JXJXJXJXJXJXJXJXJXJXJXd A.G.9XeXdXsXeXeX9X9X[ # JXJXJXJX| Q +.3.N.N.N.z.V.S.6XVX*.@ Q JXJXJX",
"JXJXJXJXJXJXJXJXJXJX3 8 A f = < [ JXJXJXJXJXJXJXJXJXJXJXJXi B.B.1X1XH.1X1X1XG.1XA 4  .JXJXJXJX:.0 < *.:XC.N.rXlXVXiX*.* / JXJXJX",
"JXJXJXJXJXJXJXJXJXJX/ q d d i i / / JXJXJXJXJXJXJXJXJXJXi e G.g.g.a.)._.g.g.).fXJ ( /  .JXJXJXJXJX[ X.*.+.*.3.N.Z.5.} / JXJXJXJX",
"JXJXJXJXJXJXJXJXJXJXJX/ * i a S = 4 JXJXJXJXJXJXJXJXJX< i J /./.t t XX.Xw.w.hXmXu.( h 4 +.JXJXJXJXJX/ $ 7 * . * $ % JXJXJXJXJXJX",
"JXJXJXJXJXJXJXJXJXJXJXJX= i c e ; 7 JXJXJXJXJXJXJXJX7.*.p.a.vX|.n.k.`.OXM.k.XXmXi.s & % { JXJXJXJXJXJX .[ JXJXJXJXJXJXJXJXJXJXJX",
"JXJXJXJXJXJXJXJXJXJXJXJX= i G x ; 9 JXJXJXJXJXJXJXA Z.A.I.U.zXmX}.W.W.Q.Q.^.mXmXS i & : o.JXJXJXJXJXJXJXJXJXJXJXJXJXJXJXJXJXJXJX",
"JXJXJXJXJXJXJXJXJXJXJXJX= S H.z.O 9 JXJXJXJXJXJX* A 8XeXdXI.L K R.OXXXXXoX XL H =.h.:X:X{ ! JXJXJXJXJXJXJXJXJXJXJXJXJXJXJXJXJXJX",
"JXJXJXJXJXJXJXJXJXJXJXJX= H zXv.O 9 JXJXJXJXJX/ f F eXiX8X<X& r R.OX.X.XoXvXc O 3.C.rXwXX.0 { JXJXJXJXJXJXJXJXJXJXJXJXJXJXJXJXJX",
"JXJXJXJXJXJXJXJXJXJXJXJX= L nXL.O 6 JXJXJXJX7 d h.C.3X,Xz 8 > e R.Q.bXbXMXbXV ; s.D.2X2X2X,Xo.W JXJXJXJXJXJXJXJXJXJXJXJXJXJXJXJX",
"JXJXJXJXJXJXJXJXJXJXJXJX% O.nXJ.O 9 JXJXJX! 5 0 <.3.*X5.q 1 1 e R.`.|.bX.XvXC < } 3.h.*X*X*X` ) JXJXJXJXJXJXJXJXJXJXJXJXJXJXJXJX",
"JXJXJXJXJXJXJXJXJXJXJXJX% $.aXF.O 9 JXJX! W Y E W ` >.-.6 2 - z !.`.^.).bXnXD . * 9 U I ] +X%X%X! JXJXJXJXJXJXJXJXJXJXJXJXJXJXJX",
"JXJXJXJXJXJXJXJXJXJXJXJXd S =.$.d Q JX| 2 2 T R U I ] ' ` _ [ S %.i.t.e.l.x.p * q _ U ~ ] ] ] ] W JXJXJXJXJXJXJXJXJXJXJXJXJXJXJX",
"JXJXJXJXJXJXJXJXJXJXJXJXJX8 : & [ JXJXJX9 5 5 6 2 T T ^ -.JXJXX.* < % & o O % 4 X.JXQ W 2 W Y 6 9 JXJXJXJXJXJXJXJXJXJXJXJXJXJXJX",
"JXJXJXJXJXJXJXJXJXJXJXJXJXJXJXJXJXJXJXJX .| { [ JXJXJXJXJXJXJXJXJXJX! [ / f JXJXJXJXJXJXJXJXJXJXJXJXJXJXJXJXJXJXJXJXJXJXJXJXJXJX",
"JXJXJXJXJXJXJXJXJXJXJXJXJXJXJXJXJXJXJXJXJXJXJXJXJXJXJXJXJXJXJXJXJXJXJXJXJXJXJXJXJXJXJXJXJXJXJXJXJXJXJXJXJXJXJXJXJXJXJXJXJXJXJXJX",
"JXJXJXJXJXJXJXJXJXJXJXJXJXJXJXJXJXJXJXJXJXJXJXJXJXJXJXJXJXJXJXJXJXJXJXJXJXJXJXJXJXJXJXJXJXJXJXJXJXJXJXJXJXJXJXJXJXJXJXJXJXJXJXJX"
};
