/* XPM */
static char *xpm_[] = {
/* columns rows colors chars-per-pixel */
"64 64 229 2 ",
"   c #362B0B",
".  c #29281D",
"X  c #342C14",
"o  c #372B1B",
"O  c #39341B",
"+  c #363116",
"@  c #3F1924",
"#  c #2D2B25",
"$  c #2D2D2D",
"%  c #282B29",
"&  c #322D23",
"*  c #322C2B",
"=  c #382726",
"-  c #2E322B",
";  c #273327",
":  c #343323",
">  c #3A3423",
",  c #34342C",
"<  c #3B322B",
"1  c #393A29",
"2  c #282B37",
"3  c #312D31",
"4  c #3E2D33",
"5  c #2B3333",
"6  c #2A333B",
"7  c #263136",
"8  c #333434",
"9  c #33323A",
"0  c #3D3A3C",
"q  c #393837",
"w  c #731B19",
"e  c #49390C",
"r  c #463D1A",
"t  c #473717",
"y  c #422A0E",
"u  c #6D281E",
"i  c #6A391D",
"p  c #7F1F21",
"a  c #443927",
"s  c #4B2B35",
"d  c #592B37",
"f  c #46393D",
"g  c #54222E",
"h  c #622327",
"j  c #692934",
"k  c #7A2F30",
"l  c #3C4333",
"z  c #5B501A",
"x  c #51481E",
"c  c #6A5A1B",
"v  c #745C16",
"b  c #68550F",
"n  c #706316",
"m  c #474325",
"M  c #574A25",
"N  c #5C572C",
"B  c #474738",
"V  c #544A37",
"C  c #5D5936",
"Z  c #675A25",
"A  c #765D25",
"S  c #6A5A35",
"D  c #68622D",
"F  c #766629",
"G  c #69663B",
"H  c #796234",
"J  c #77742E",
"K  c #1D314B",
"L  c #282D43",
"P  c #2C3242",
"I  c #293549",
"U  c #3E3D45",
"Y  c #343A45",
"T  c #2D3450",
"R  c #353B56",
"E  c #2D2F55",
"W  c #363F60",
"Q  c #423D45",
"!  c #443F4A",
"~  c #663441",
"^  c #783249",
"/  c #6F2E42",
"(  c #3D4455",
")  c #384146",
"_  c #3C4765",
"`  c #424443",
"'  c #4A4543",
"]  c #4C4C43",
"[  c #44474D",
"{  c #524E40",
"}  c #4B5142",
"|  c #54524C",
" . c #5A594D",
".. c #4A4651",
"X. c #574E5B",
"o. c #4C5353",
"O. c #5D5957",
"+. c #645A47",
"@. c #615D5B",
"#. c #6F4C58",
"$. c #5C6551",
"%. c #6C6442",
"&. c #67654A",
"*. c #776A43",
"=. c #686758",
"-. c #6D7157",
";. c #76735A",
":. c #756E54",
">. c #414B66",
",. c #4A5764",
"<. c #485877",
"1. c #5D5F74",
"2. c #625E65",
"3. c #7A596E",
"4. c #5D6567",
"5. c #576378",
"6. c #4C617C",
"7. c #666669",
"8. c #726A66",
"9. c #6A746F",
"0. c #787766",
"q. c #676B73",
"w. c #736A74",
"e. c #6C7378",
"r. c #777572",
"t. c #83142C",
"y. c #892936",
"u. c #873337",
"i. c #912235",
"p. c #844D2E",
"a. c #80542F",
"s. c #89792D",
"d. c #83673A",
"f. c #857537",
"g. c #8D314A",
"h. c #867848",
"j. c #9D7E45",
"k. c #857B55",
"l. c #836D56",
"z. c #817765",
"x. c #837C78",
"c. c #8A7272",
"v. c #7D8269",
"b. c #968337",
"n. c #8A8136",
"m. c #AA8F34",
"M. c #8B854B",
"N. c #908357",
"B. c #989150",
"V. c #A38E4A",
"C. c #A7984A",
"Z. c #A18E5B",
"A. c #A89757",
"S. c #B2985A",
"D. c #B3A656",
"F. c #B1A444",
"G. c #888868",
"H. c #968964",
"J. c #9A956A",
"K. c #8A8873",
"L. c #928879",
"P. c #989878",
"I. c #8A9076",
"U. c #A58B69",
"Y. c #A89966",
"T. c #A99D76",
"R. c #B29976",
"E. c #B8A76B",
"W. c #AAA379",
"Q. c #B7A67C",
"!. c #BEBA7F",
"~. c #ADA36E",
"^. c #C3AB54",
"/. c #C9B35E",
"(. c #D2B95C",
"). c #C2AD63",
"_. c #C5AC6C",
"`. c #CCB768",
"'. c #CEA775",
"]. c #CCBB74",
"[. c #C6B975",
"{. c #D8BE77",
"}. c #D4BC62",
"|. c #DCCB6C",
" X c #DAC875",
".X c #D7D17D",
"XX c #E3CD6A",
"oX c #E2CE78",
"OX c #F4DD7C",
"+X c #E3D17F",
"@X c #FFE378",
"#X c #6B7484",
"$X c #8A7F8D",
"%X c #768483",
"&X c #838886",
"*X c #989784",
"=X c #90948D",
"-X c #A88B98",
";X c #AD9186",
":X c #AAA588",
">X c #B3AA86",
",X c #AAAC96",
"<X c #B9BA99",
"1X c #B5B08E",
"2X c #A5ACAA",
"3X c #AAB5A1",
"4X c #BCBBA6",
"5X c #ADAFB5",
"6X c #8D92A6",
"7X c #CBBE8A",
"8X c #C2BC9B",
"9X c #D0B983",
"0X c #C0BEA9",
"qX c #B9C0A1",
"wX c #D9C98B",
"eX c #D8D18A",
"rX c #D9CD97",
"tX c #E8C98F",
"yX c #E7D58A",
"uX c #E2C998",
"iX c #E3D699",
"pX c #F4DC93",
"aX c #FADF88",
"sX c #F9E38B",
"dX c #F9E594",
"fX c #D3C9BD",
"gX c #ECE8A1",
"hX c #A7B3C3",
"jX c None",
/* pixels */
"jXjXjXjXjXjXjXjXjXjXjXjXjXjXjXjXjXjXjXjXjXjXjXjXjXjXjXjXjXjXjXjXjXjXjXjXjXjXjXjXjXjXjXjXjXjXjXjXjXjXjXjXjXjXjXjXjXjXjXjXjXjXjXjX",
"jXjXjXjXjXjXjXjXjXjXjXjXjXjXjXjXjXjXjXjXjXjXjXjXjXjXjXjXjXjXjXjXjXjXjXjXjXjXjXjXjXjXjXjXjXjXjXjXjXjXjXjXjXjXjXjXjXjXjXjXjXjXjXjX",
"jXjXjXjXjXjXjXjXjXjXjXjXjXjXjXjXjXjXjXjXjXjXjXjXjXjXjXjXjXjXjXjXjXjXjXjXjXjXjXjXjXjXjXjXjXjXjXjXjXjXjXjXjXjXjXjXjXjXjXjXjXjXjXjX",
"jXjXjXjXjXjXjXjXjXjXjXjXjXjXjXjXjXjXjXjXjXjXjXjXjXjXjXjXjXjXjXjXjXjXjXjXjXjXjXjXjXjXjXjXjXjXjXjXjXjXjXjXjXjXjXjXjXjXjXjXjXjXjXjX",
"jXjXjXjXjXjXjXjXjXjXjXjXjXjXjXjXjXjXjXjXjXjXjXjXjXjXjXjXjXjXjXjXjXjXjXjXjXjXjXjXjXjXjXjXjXjXjXjXjXjXjXjXjXjXjXjXjXjXjXjXjXjXjXjX",
"jXjXjXjXjXjXjXjXjXjXjXjXjXjXjXjXjXjXjXjXjXjXjXjXjXjXjXjXjXjXjXjXjXjXjXjXjXjXjXjXjXjXjXjXjXjXjXjXjXjXjXjXjXjXjXjXjXjXjXjXjXjXjXjX",
"jXjXjXjXjXjXjXjXjXjXjXjXjXjXjXjXjXjXjXjXjXjXjXjXjXjXjXjXjXjXjXjXjXjXjXjXjXjXjXjXjXjXjXjXjXjXjXjXjXjXjXjXjXjXjXjXjXjXjXjXjXjXjXjX",
"jXjXjXjXjXjXjXjXjXjXjXjXjXjXjXjXjXjXjXjXjXjXjXjXjXjXjXjXjXjXjXjXjXjXjXjXjXjXjXjXjXjXjXjXjXjXjXjXjXjXjXjXjXjXjXjXjXjXjXjXjXjXjXjX",
"jXjXjXjXjXjXjXjXjXjXjXjXjXjXjXjXjXjXjXjXjXjXjXjXjXjXjXjXjXjXjXjXjXjXjXjXjXjXjXjXjXjXjXjXjXjXjXjXjXjXjXjXjXjXjXjXjXjXjXjXjXjXjXjX",
"jXjXjXjXjXjXjXjXjXjXjXjXjXjXjXjXjXjXjXjXjXjXjXjXjXjXjXjXjXjXjXjXjXjXjXjXjXjXjXjXjXjXjXjXjXjXjXjXjXjXjXjXjXjXjXjXjXjXjXjXjXjXjXjX",
"jXjXjXjXjXjXjXjXjXjXjXjXjXjXjXjXjXjXjXjXjXjXjXjXjXjXjXjXjXjXjXjXjXjXjXjXjXjXjXjXjXjXjXjXjXjXjXjXjXjXjXjXjXjXjXjXjXjXjXjXjXjXjXjX",
"jXjXjXjXjXjXjXjXjXjXjXjXjXjXjXjXjXjXjXjXjXjXjXjXjXjXjXjXjXjXjXjXjXjXjXjXjXjXjXjXjXjXjXjXjXjXjXjXjXjXjXjXjXjXjXjXjXjXjXjXjXjXjXjX",
"jXjXjXjXjXjXjXjXjXjXjXjXjXjXjXjXjXjXjXjXjXjXjXjXjXjXjXjXjXjXjXjXjXjXjXjXjXjXjXjXjXjXjXjXjXjXjXjXjXjXjXjXjXjXjXjXjXjXjXjXjXjXjXjX",
"jXjXjXjXjXjXjXjXjXjXjXjXjXjXjXjXjXjXjXjXjXjXjXjXjXjXjXjXjXjXjXjXjXjXjXjXjXjXjXjXjXjXjXjXjXjXjXjXjXjXjXjXjXjXjXjXjXjXjXjXjXjXjXjX",
"jXjXjXjXjXjXjXjXjXjXjXjXjXjXjXjXjXjXjXjXjXjXjXjXjXjXjXjXjXjXjXjXjXjXjXjXjXjXjXjXjXjXjXjXjXjXjXjXjXjXjXjXjXjXjXjXjXjXjXjXjXjXjXjX",
"jXjXjXjXjXjXjXjXjXjXjXjXjXjXjXjXjXjXjXjXjXjXjXjXjXjXjXjXjXjXjXjXjXjXjXjXjXjXjXjXjXjXjXjXjXjXjXjXjXjXjXjXjXjXjXjXjXjXjXjXjXjXjXjX",
"jXjXjXjXjXjXjXjXjXjXjXjXjXjXjXjXjXjXjXjXjXjXjXjXjXjXjXjXjXjXjXjXjXjXjXjXjXjXjXjXjXjXjXjXjXjXjXjXjXjXjXjXjXjXjXjXjXjXjXjXjXjXjXjX",
"jXjXjXjXjXjXjXjXjXjXjXjXjXjXjXjXjXjXjXjXjXjXjXjXjXjXjXjXjXjXjXjXjXjXjXjXjXjXjXjXjXjXjXjXjXjXjXjXjXjXjXjXjXjXjXjXjXjXjXjXjXjXjXjX",
"jXjXjXjXjXjXjXjXjXjXjXjXjXjXjXjXjXjXjXjXjXjXjXjXjXjXjXjXjXjXjXjXjXjXjXjXjXjXjXjXjXjXjXjXjXjXjXjXjXjXjXjXjXjXjXjXjXjXjXjXjXjXjXjX",
"jXjXjXjXjXjXjXjXjXjXjXjXjXjXjXjXjXjXjXjXjXjXjXjXjXjXjXjXjXjXjXjXjXjXjXjXjXjXjXjXjXjXjXjXjXjXjXjXjXjXjXjXjXjXjXjXjXjXjXjXjXjXjXjX",
"jXjXjXjXjXjXjXjXjXjXjXjXjXjXjXjXjXjXjXjXjXjXjXjXjXjXjXjXjXjXjXjXjXjXjXjXjXjXjXjXjXjXjXjXjXjXjXjXjXjXjXjXjXjXjXjXjXjXjXjXjXjXjXjX",
"jXjXjXjXjXjXjXjXjXjXjXjXjXjXjXjXjXjXjXjXjXjXjXjXjXjXjXjXjXjXjXjXjXjXjXjXjXjXjXjXjXjXjXjXjXjXjXjXjXjXjXjXjXjXjXjXjXjXjXjXjXjXjXjX",
"jXjXjXjXjXjXjXjXjXjXjXjXjXjXjXjXjXjXjXjXjXjXjXjXjXjXjXjXjXjXjXjXjXjXjXjXjXjXjXjXjXjXjXjXjXjXjXjXjXjXjXjXjXjXjXjXjXjXjXjXjXjXjXjX",
"jXjXjXjXjXjXjXjXjXjXjXjXjXjXjXjXjXjXjXjXjXjXjXjXjXjXjXjXjXjXjXjXjXjXjXjXjXjXjXjXjXjXjXjXjXjXjXjXjXjXjXjXjXjXjXjXjXjXjXjXjXjXjXjX",
"jXjXjXjXjXjXjXjXjXjXjXjXjXjXjXjXjXjXjXjXjXjXjXjXjXjXjXjXjXjXjXjXjXjXjXjXjXjXjXjXjXjXjXjXjXjXjXjXjXjXjXjXjXjXjXjXjXjXjXjXjXjXjXjX",
"jXjXjXjXjXjXjXjXjXjXjXjXjXjXjXjXjXjXjXjXjXjXjXjXjXjXjXjXjXjXjXjXjXjXjXjXjXjXjXjXjXjXjXjXjXjXjXjXjXjXjXjXjXjXjXjXjXjXjXjXjXjXjXjX",
"jXjXjXjXjXjXjXjXjXjXjXjXjXjXjXjXjXjXjXjXjXjXjXjXjXjXjXjXjXjXjXjXjXjXjXjXjXjXjXjXjXjXjXjXjXjXjXjXjXjXjXjXjXjXjXjXjXjXjXjXjXjXjXjX",
"jXjXjXjXjXjXjXjXjXjXjXjXjXjXjXjXjXjXjXjXjXjXjXjXjXjXjXjXjXjXjXjXjXjXjXjXjXjXjXjXjXjXjXjXjXjXjXjXjXjXjXjXjXjXjXjXjXjXjXjXjXjXjXjX",
"jXjXjXjXjXjXjXjXjXjXjXjXjXjXjXjXjXjXjXjXjXjXjXjXjXjXjXjXjX= jXjXjXjXjXjXjXjXjXjXjXjXjXjXjXjXjXjXjXjXjXjXjXjXjXjXjXjXjXjXjXjXjXjX",
"jXjXjXjXjXjXjXjXjXjXjXjXjXjXjXjXjXjXjXjXjXjXjXjXjXjXjXs s d ~ s jXjXjXjXjXjXjXjXjXjXjXjXjXjXjXjXjXjXjXjXjXjXjXjXjXjXjXjXjXjXjXjX",
"jXjXjXjXjXjXjXjXjXjXjXjXjXjXjXjXjXjXjXjXjXjXjXjX3 4 s @ d / / g = U jXjXjXjXjXjXjXjXjXjXjXjXjXjXjXjXjXjXjXjXjXjXjXjXjXjXjXjXjXjX",
"jXjXjXjXjXjXjXjXjXjXjXjXjXjXjXjXjXjXjXjXjXjXjXjX7.$Xc.g j ^ g./ c.q.( jXjXjXjXjXjXjXjXjXjXjXjXjXjXjXjXjXjXjXjXjXjXjXjXjXjXjXjXjX",
"jXjXjXjXjXjXjXjXjXjXjXjXjXjXjXjXjXjXjXjXjXjXK ) %X2X-Xj y.g.g.^ -X6XK K jXjXjXjXjXjXjXjXjXjXjXjXjXjXjXjXjXjXjXjXjXjXjXjXjXjXjXjX",
"jXjXjXjXjXjXjXjXjXjXjXjXjXjXjXjXjXjXjXjXjXI K <._ q.#.h y.i.i.g.3.5._ #X_ jXjXjXjXjXjXjXjXjXjXjXjXjXjXjXjXjXjXjXjXjXjXjXjXjXjXjX",
"jXjXjXjXjXjXjXjXjXjXjXjXjXjXjXjXjXjXjXjXjXY _ 6.#X5.#.h y.i.t.u.#.7.5.#X>.E jXjXjXjXjXjXjXjXjXjXjXjXjXjXjXjXjXjXjXjXjXjXjXjXjXjX",
"jXjXjXjXjXjXjXjXjXjXjXjXjXjXjXjXjXjXjXjX5 4.=X5XhX5X;Xh u w t.u.;XfX5XhX#XW jXjXjXjXjXjXjXjXjXjXjXjXjXjXjXjXjXjXjXjXjXjXjXjXjXjX",
"jXjXjXjXjXjXjXjXjXjXjXjXjXjXjXjXjXjXjXl l -.P.,X2X5XR.a.u u u p.'.rX,X2X#XI jXjXjXjXjXjXjXjXjXjXjXjXjXjXjXjXjXjXjXjXjXjXjXjXjXjX",
"jXjXjXjXjXjXjXjXjXjXjXjXjXjXjXjXjXjX4.%Xv.%.N C o.*XwXtXd.i a.'.yX XN 8.o.2 jXjXjXjXjXjXjXjXjXjXjXjXjXjXjXjXjXjXjXjXjXjXjXjXjXjX",
"jXjXjXjXjXjXjXjXjXjXjXjXjXjXjXjXjXjXo.e.r.+.D h.C N.~.`.M.s.j.S._.E.h.&.( R jXjXjXjXjXjXjXjXjXjXjXjXjXjXjXjXjXjXjXjXjXjXjXjXjXjX",
"jXjXjXjXjXjXjXjXjXjXjXjXjXjXjXjXjX9 Y 5 3 V Z.rXD z b b F.|.tXA c h.iX*.o.,.2 jXjXjXjXjXjXjXjXjXjXjXjXjXjXjXjXjXjXjXjXjXjXjXjXjX",
"jXjXjXjXjXjXjXjXjXjXjXjXjXjXjXjXjX5 ) o.o.V V.|.b.s.F n F.|..XA F C.yXJ $.9.6 jXjXjXjXjXjXjXjXjXjXjXjXjXjXjXjXjXjXjXjXjXjXjXjXjX",
"jXjXjXjXjXjXjXjXjXjXjXjXjXjXjXjXjX8 7.&X*XC s.(.}.`.E.c D..XyXc C.eXyXJ v.3Xl jXjXjXjXjXjXjXjXjXjXjXjXjXjXjXjXjXjXjXjXjXjXjXjXjX",
"jXjXjXjXjXjXjXjXjXjXjXjXjXjXjXjXq * [ =.:.h.b.m.(.V.G r f.S.H.M G N.Y.z G v.$ jXjXjXjXjXjXjXjXjXjXjXjXjXjXjXjXjXjXjXjXjXjXjXjXjX",
"jXjXjXjXjXjXjXjXjXjXjXjXjXjXjXjXa . o O x S.F.b ^.H y a M z i O y + M e m V 8 jXjXjXjXjXjXjXjXjXjXjXjXjXjXjXjXjXjXjXjXjXjXjXjXjX",
"jXjXjXjXjXjXjXjXjXjXjXjXjXjXjXjXO k.N.J v S.V.v _.F X o h.S.A.x o a S c.l.a * jXjXjXjXjXjXjXjXjXjXjXjXjXjXjXjXjXjXjXjXjXjXjXjXjX",
"jXjXjXjXjXjXjXjXjXjXjXjXjXjXjXf t E.!.D.v S.A.v ^.s.  y S.+XeXe   a S rXU.y > ' jXjXjXjXjXjXjXjXjXjXjXjXjXjXjXjXjXjXjXjXjXjXjXjX",
"jXjXjXjXjXjXjXjXjXjXjXjXjXjXjXf r Q.M.J '.V.A v E.D.V.C.^.XXOXC.C.n.c tXoX).'.+.' jXjXjXjXjXjXjXjXjXjXjXjXjXjXjXjXjXjXjXjXjXjXjX",
"jXjXjXjXjXjXjXjXjXjXjXjXjXjXjXQ a W.G Z rXd.z S E.[.!.[./.|.yX]. XB.c 9XpXpXgXG 0 jXjXjXjXjXjXjXjXjXjXjXjXjXjXjXjXjXjXjXjXjXjXjX",
"jXjXjXjXjXjXjXjXjXjXjXjXjXjXjXU < B &.-. .a > a K.K.K.K.N M +.c.K.0.1 M z D 7XS U jXjXjXjXjXjXjXjXjXjXjXjXjXjXjXjXjXjXjXjXjXjXjX",
"jXjXjXjXjXjXjXjXjXjXjXjXjXjXjX..q 1 =.v.1 > B B 8.$X&X9.B . 0 w.&X4.; l : m J.C Q jXjXjXjXjXjXjXjXjXjXjXjXjXjXjXjXjXjXjXjXjXjXjX",
"jXjXjXjXjXjXjXjXjX9 8 , * & * +.Q.M.K.T.T.:X>X:XB 7.7.q ; ; $ 0 w.w.1 =X;.+ t o q jXjXjXjXjXjXjXjXjXjXjXjXjXjXjXjXjXjXjXjXjXjXjX",
"jXjXjXjXjXjXjXjX` ] B ] { V V *. XS.R.:X:X:X8X:Xa =.r., - - , # O.@.- :X0.1 M a f jXjXjXjXjXjXjXjXjXjXjXjXjXjXjXjXjXjXjXjXjXjXjX",
"jXjXjXjXjXjXjXq $.<X4X<X1XT.E. XOXaXQ.c.H.P.:XP.f 2.7.8 3 # , & = < > *X8.a >XS & 0 jXjXjXjXjXjXjXjXjXjXjXjXjXjXjXjXjXjXjXjXjXjX",
"jXjXjXjXjXjXjX8 } I.I.P.J.k._.XX@XsXR.k.I.v.v.0.: | 2.4 V +.+.a & : , =. .a H.h.V * ' jXjXjXjXjXjXjXjXjXjXjXjXjXjXjXjXjXjXjXjXjX",
"jXjXjXjXjXjXjXQ $ O X     e _.dXdXdXM.l v.B $ , # O o X A.iXwXt : . , 8 < O + ~.:XO & f jXjXjXjXjXjXjXjXjXjXjXjXjXjXjXjXjXjXjXjX",
"jXjXjXjXjXjXjX .:.;.h.h.h.H Z.Z.A.Y. .l $.$.` a ;.*.S r B..XeXl : $ 7 6 # a G W.T.C &.| Q jXjXjXjXjXjXjXjXjXjXjXjXjXjXjXjXjXjXjX",
"jXjXjXjXjXjXjXN.wXdXsXsXyX].Z   X : - 7 ; 9.=.a uXiXU.t Y.eXrXm 5 2 L L 2 ' 1XJ.G.G.8X;.: % ) jXjXjXjXjXjXjXjXjXjXjXjXjXjXjXjXjX",
"jXjXjXjXjXjX+ ~.yX XXX|.|.eXS O < 7 6 L l B &.k.]. XU.y G v.I., 7 I _ _ I U J.J.P.:X<XP.0.x.} 0 jXjXjXjXjXjXjXjXjXjXjXjXjXjXjXjX",
"jXjXjXjXjXjXjXT.iX`.`.`. XiX&.q jXP T I 7 ; G wX`. XJ.4 P U X.6 7 Y <.<.( ` G.G.*XqX4X4XrX4X .q jXjXjXjXjXjXjXjXjXjXjXjXjXjXjXjX",
"jXjXjXjXjXjXjX%.*.H A A D *.} jXjXjXL 2 7 ; m D N S C $ L E R P ; 6 T _ L 9 ] { | O.@.=. .&.q 3 jXjXjXjXjXjXjXjXjXjXjXjXjXjXjXjX",
"jXjXjXjXjXjXjXjXo = @ a o # jXjXjXjX9 5 8 , & . O + : ; 6 P 6 2 9 5 6 L 2 9 3 * 3 $ 3 $ * * 8 ) jXjXjXjXjXjXjXjXjXjXjXjXjXjXjXjX",
"jXjXjXjXjXjXjXjXjXjXjXjXjXjXjXjXjXjXjXjXjXjXjXjXjXjXjXjXjXjXjXjXjXjXjXjXjXjX! Q U [ U ..X.X...jXjXjXjXjXjXjXjXjXjXjXjXjXjXjXjXjX",
"jXjXjXjXjXjXjXjXjXjXjXjXjXjXjXjXjXjXjXjXjXjXjXjXjXjXjXjXjXjXjXjXjXjXjXjXjXjXjXjXjXjXjXjXjXjXjXjXjXjXjXjXjXjXjXjXjXjXjXjXjXjXjXjX",
"jXjXjXjXjXjXjXjXjXjXjXjXjXjXjXjXjXjXjXjXjXjXjXjXjXjXjXjXjXjXjXjXjXjXjXjXjXjXjXjXjXjXjXjXjXjXjXjXjXjXjXjXjXjXjXjXjXjXjXjXjXjXjXjX"
};
