/* XPM */
static char *xpm_[] = {
/* columns rows colors chars-per-pixel */
"64 64 244 2 ",
"   c #2D2709",
".  c #352B09",
"X  c #39340B",
"o  c #2B2A1A",
"O  c #342B18",
"+  c #343218",
"@  c #2E3412",
"#  c #1E2D36",
"$  c #2D2D23",
"%  c #2D2D2C",
"&  c #272B28",
"*  c #342C24",
"=  c #342D2A",
"-  c #3A2C29",
";  c #2D312B",
":  c #333224",
">  c #32332C",
",  c #3B332C",
"<  c #3A3927",
"1  c #292D38",
"2  c #362D34",
"3  c #2B343B",
"4  c #283437",
"5  c #343333",
"6  c #3C3A34",
"7  c #34343A",
"8  c #3B3839",
"9  c #45391A",
"0  c #4F3F0C",
"q  c #741A30",
"w  c #443828",
"e  c #443B34",
"r  c #463A36",
"t  c #522A2D",
"y  c #712E2F",
"u  c #6C221F",
"i  c #3D4431",
"p  c #4A4318",
"a  c #554818",
"s  c #5C5119",
"d  c #5D4E06",
"f  c #665110",
"g  c #786313",
"h  c #7B630E",
"j  c #494527",
"k  c #574928",
"l  c #58532B",
"z  c #4A4435",
"x  c #48483B",
"c  c #534735",
"v  c #5A5434",
"b  c #65572A",
"n  c #635A36",
"m  c #714E28",
"M  c #796825",
"N  c #6A6339",
"B  c #7A6A34",
"V  c #5E633B",
"C  c #1D3046",
"Z  c #2C3343",
"A  c #273649",
"S  c #3D3D44",
"D  c #383A47",
"F  c #263855",
"G  c #353756",
"H  c #2E2D4A",
"J  c #313B64",
"K  c #1D3968",
"L  c #443C48",
"P  c #443D56",
"I  c #6F3049",
"U  c #3B4447",
"Y  c #374757",
"T  c #3C5250",
"R  c #3A4B6C",
"E  c #3A5778",
"W  c #365066",
"Q  c #464647",
"!  c #564C48",
"~  c #495348",
"^  c #585746",
"/  c #4B4856",
"(  c #564C57",
")  c #585658",
"_  c #485658",
"`  c #645A4D",
"'  c #625E56",
"]  c #5C645B",
"[  c #696348",
"{  c #756849",
"}  c #7C7349",
"|  c #686657",
" . c #746B55",
".. c #777559",
"X. c #495567",
"o. c #575864",
"O. c #485474",
"+. c #635B67",
"@. c #58666B",
"#. c #5B6977",
"$. c #516B74",
"%. c #676667",
"&. c #756C63",
"*. c #69716A",
"=. c #797665",
"-. c #676773",
";. c #777775",
":. c #66707A",
">. c #88353D",
",. c #8A2938",
"<. c #82172B",
"1. c #826C17",
"2. c #884D30",
"3. c #866C25",
"4. c #877428",
"5. c #867437",
"6. c #95793C",
"7. c #8F6E36",
"8. c #814417",
"9. c #872745",
"0. c #8E2F4C",
"q. c #8D5143",
"w. c #877946",
"e. c #867956",
"r. c #8D7444",
"t. c #8C5864",
"y. c #847B68",
"u. c #847672",
"i. c #A0644C",
"p. c #7F847C",
"a. c #95803A",
"s. c #A68D3D",
"d. c #8A8348",
"f. c #97884A",
"g. c #8B8057",
"h. c #968958",
"j. c #9F914F",
"k. c #A89956",
"l. c #B59751",
"z. c #BAA858",
"x. c #898667",
"c. c #9A9369",
"v. c #88887A",
"b. c #958975",
"n. c #98967B",
"m. c #938C6D",
"M. c #A89A6A",
"N. c #A89B7A",
"B. c #AE9765",
"V. c #9CA178",
"C. c #A8A267",
"Z. c #B8A666",
"A. c #A8A47A",
"S. c #B5AD78",
"D. c #BDB377",
"F. c #B3B274",
"G. c #DAB85B",
"H. c #CDB158",
"J. c #CE9471",
"K. c #C4AC65",
"L. c #C9B667",
"P. c #D5BA66",
"I. c #C7B578",
"U. c #D6B976",
"Y. c #E8BB7A",
"T. c #D1AA4D",
"R. c #E6C45A",
"E. c #DAC26C",
"W. c #D8C577",
"Q. c #DCD178",
"!. c #E6CC6A",
"~. c #E4C975",
"^. c #EBD377",
"/. c #F7DB7C",
"(. c #F9DB6B",
"). c #FBE47B",
"_. c #4D5B83",
"`. c #536B88",
"'. c #6E7988",
"]. c #78868A",
"[. c #75929A",
"{. c #6D8EA3",
"}. c #858988",
"|. c #999986",
" X c #9A9696",
".X c #898F8E",
"XX c #A69D86",
"oX c #A09E9D",
"OX c #9EA387",
"+X c #96A39C",
"@X c #ABAB84",
"#X c #ABAB8B",
"$X c #A6A786",
"%X c #B5AA88",
"&X c #B4B38C",
"*X c #B8B58A",
"=X c #A7A696",
"-X c #B6AA92",
";X c #B9B897",
":X c #AEB18F",
">X c #9497A0",
",X c #A89DAB",
"<X c #9CABA4",
"1X c #A9A7A8",
"2X c #B2ABAD",
"3X c #A8B5AB",
"4X c #B4B4AD",
"5X c #B7B7A6",
"6X c #B2ACB3",
"7X c #A8B8B6",
"8X c #B4B3B2",
"9X c #B9B7B9",
"0X c #AEA8B1",
"qX c #C8B88A",
"wX c #C2BD95",
"eX c #C8BB98",
"rX c #CFB68B",
"tX c #E8B68C",
"yX c #C2B7B2",
"uX c #BFC298",
"iX c #B7C28E",
"pX c #BBC0A0",
"aX c #D8C786",
"sX c #C6C299",
"dX c #D4C895",
"fX c #EAD989",
"gX c #F6DA89",
"hX c #E9D797",
"jX c #F8DC96",
"kX c #E4CA8A",
"lX c #FAE389",
"zX c #EDE194",
"xX c #F8E595",
"cX c #D0C9AB",
"vX c #E7DAA8",
"bX c #F7D3A7",
"nX c #F8E7A5",
"mX c #EBE5A7",
"MX c #ADB3C3",
"NX c #B3B9C6",
"BX c #C3BEC5",
"VX c #9FC0C5",
"CX c #C2C1D1",
"ZX c None",
/* pixels */
"ZXZXZXZXZXZXZXZXZXZXZXZXZXZXZXZXZXZXZXZXZXZXZXZXZXZXZXZXZXZXZXZXZXZXZXZXZXZXZXZXZXZXZXZXZXZXZXZXZXZXZXZXZXZXZXZXZXZXZXZXZXZXZXZX",
"ZXZXZXZXZXZXZXZXZXZXZXZXZXZXZXZXZXZXZXZXZXZXZXZXZXZXZXZXZXZXZXZXZXZXZXZXZXZXZXZXZXZXZXZXZXZXZXZXZXZXZXZXZXZXZXZXZXZXZXZXZXZXZXZX",
"ZXZXZXZXZXZXZXZXZXZXZXZXZXZXZXZXZXZXZXZXZXZXZXZXZXZXZXZXZXZXZXZXZXZXZXZXZXZXZXZXZXZXZXZXZXZXZXZXZXZXZXZXZXZXZXZXZXZXZXZXZXZXZXZX",
"ZXZXZXZXZXZXZXZXZXZXZXZXZXZXZXZXZXZXZXZXZXZXZXZXZXZXZXZXZXZXZXZXZXZXZXZXZXZXZXZXZXZXZXZXZXZXZXZXZXZXZXZXZXZXZXZXZXZXZXZXZXZXZXZX",
"ZXZXZXZXZXZXZXZXZXZXZXZXZXZXZXZXZXZXZXZXZXZXZXZXZXZXZXZXZXZXZXZXZXt ZXZXZXZXZXZXZXZXZXZXZXZXZXZXZXZXZXZXZXZXZXZXZXZXZXZXZXZXZXZX",
"ZXZXZXZXZXZXZXZXN A.n ZXZXZXZXZXZXZXZXZXZXZXZXZXZXZXZXZXZXZX2 t t y m ZXZXZXZXZXZXZXZXZXZXZXZXZXZXZXZXZXZXZXZXZXZXZXZXZXZXZXZXZX",
"ZXZXZXZXZXZXZXZXB W.5.ZXZXZXZXZXZXZXZXZXZXZXZXZXZXZXZXZXU Q t t q I >.u t I ZXZXZXZXZXZXZXZXZXZXZXZXZXZXZXZXZXZXZXZXZXZXZXZXZXZX",
"ZXZXZXZXZXZXZXM.W.fXE.k.ZXZXZXZXZXZXZXZXZXZXZXZXZXZXU ].+X4XI I 0.0.>.y t.yX`.ZXZXZXZXZXZXZXZXZXZXZXZXZXZXZXZXZXZXZXZXZXZXZXZXZX",
"ZXZXZXZXZXZXb I.^.lX!.K.b ZXZXZXZXZXZXZXZXZXZXZXA C R '.>X,XI I 0.9.,.0.t.0X`.K K ZXZXZXZXZXZXZXZXZXZXZXZXZXZXZXZXZXZXZXZXZXZXZX",
"ZXZXZXZXZXe.D.jXlXgXgXgXI.e.ZXZXZXZXZXZXZXZXZX# A W E $.X.o.I q 0.9.<.,.0.+._._.`.E ZXZXZXZXZXZXZXZXZXZXZXZXZXZXZXZXZXZXZXZXZXZX",
"ZXZXZXZX+ h.aXL.W.xX~.P.Q.h.ZXZXZXZXZXZXZXZXZXU i $.`.$.-.&.y q 9.9.<.,.` t.].`.{.$.A ZXZXZXZXZXZXZXZXZXZXZXZXZXZXZXZXZXZXZXZXZX",
"ZXZXZXZX+ C.W.d 3.gX3.d aXB.ZXZXZXZXZXZXZXZX% ) ].7XMX7X5X-Xy u q <.q ,.i.vXcX7XVX[.Z ZXZXZXZXZXZXZXZXZXZXZXZXZXZXZXZXZXZXZXZXZX",
"ZXZXZXZX@ C.hXg 6.jX6.g jXC.ZXZXZXZXZXZXZXQ Q | p.|.<X=X&XI.7.2.u u y 2.l.jXwXOX+X].ZXZXZXZXZXZXZXZXZXZXZXZXZXZXZXZXZXZXZXZXZXZX",
"ZXZXZXZXo A.mXL.!.lXP.P.hXM.ZXZXZXZXZXZX&.}.v.&.l l ^ v d.I.jXtX8.m 8.J.tXjXf.k @.W ZXZXZXZXZXZXZXZXZXZXZXZXZXZXZXZXZXZXZXZXZXZX",
"ZXZXZXZXZXm.D.E.!.).!.U.qXb.ZXZXZXZXZX; @.*.*.| l } =.v d.z.I.Z.3.4.6.B.K.U.l.w.] X.F ZXZXZXZXZXZXZXZXZXZXZXZXZXZXZXZXZXZXZXZXZX",
"ZXZXZXZXZXz p aX).).).E.a ZXZXZXZXZXZX; 4 4 > e b sXsXn d d s 5.K.Q.fXM d f Z.hX| ) O.G ZXZXZXZXZXZXZXZXZXZXZXZXZXZXZXZXZXZXZXZX",
"ZXZXZXZXZXZXk rXfX).(.E.9 ZXZXZXZXZXZX1 ~ U x v b L.aX4.1.3.f 3.H.^.fXM f 3.K.hX{ ` ;./ ZXZXZXZXZXZXZXZXZXZXZXZXZXZXZXZXZXZXZXZX",
"ZXZXZXZXZXZXj Z.Q.).R.z.j ZXZXZXZXZXZXZX*.p.v...s H.L.H.P.L.B B E.^.fXg 5.I.gXgX2. .yX@.ZXZXZXZXZXZXZXZXZXZXZXZXZXZXZXZXZXZXZXZX",
"ZXZXZXZXZXZXw D.^.).!.Z.9 ZXZXZXZXZXZXA @.*.p.B 4.s.l.P.B.h.l l j.z.D.b n h.B.K.f.h.OX~ ZXZXZXZXZXZXZXZXZXZXZXZXZXZXZXZXZXZXZXZX",
"ZXZXZXZXZXZXz dXzXlXxXhXw ZXZXZXZXZX1 1 1 i l a.L.h 1.I.w.X + j s s a 9 X 9 a 3.Q.K.l j ZXZXZXZXZXZXZXZXZXZXZXZXZXZXZXZXZXZXZXZX",
"ZXZXZXZXZXZXZXn.A.S.A.n.! ZXZXZXZXZXS ) / ) a f.L.g g L.5.O o < 5.6.w.p @ @ p b W.L.l p ZXZXZXZXZXZXZXZXZXZXZXZXZXZXZXZXZXZXZXZX",
"ZXZXZXZXZXZXZX6 = > & > ( ZXZXZXZXZXo..X].v.v d.L.4.g W.r..   n qXaXvXl X   j b Z.k.v < ZXZXZXZXZXZXZXZXZXZXZXZXZXZXZXZXZXZXZXZX",
"ZXZXZXZXZXZXZXZXA Y D 3 ZXZXZXZXZXZXU :.`.@.i ..h.M h H.a.M M 5.rXeXcX} n N b b h.g.! D ZXZXZXZXZXZXZXZXZXZXZXZXZXZXZXZXZXZXZXZX",
"ZXZXZXZXZXZXZXZXJ _.F Z ZXZXZXZXZXZX4 Z 1 4 4 i v b M K.U.U.rXrXqXyX5X:XwXwXe.l l v ) D ZXZXZXZXZXZXZXZXZXZXZXZXZXZXZXZXZXZXZXZX",
"ZXZXZXZXZXZXZXZXF R F A ZXZXZXZXZXZXU X._ ~ ) ] { k v N.XX%XN.%X5X5X5X4X-X#X| z V ..p.~ ZXZXZXZXZXZXZXZXZXZXZXZXZXZXZXZXZXZXZXZX",
"ZXZXZXZXZXZXZXZXA F C A ZXZXZXZXZXZXX..X[..X.X].p.x r v.u.u.y.}.5X2X4X4X=X}.+.7 p.+X7X@.ZXZXZXZXZXZXZXZXZXZXZXZXZXZXZXZXZXZXZXZX",
"ZXZXZXZXZXZXZXZXZXC F W Y ZXZXZXZXZXY #.$.$.`.`.#.D D o.;.p. X,X2X3X4X9X X( P H $.$.{.$.F ZXZXZXZXZXZXZXZXZXZXZXZXZXZXZXZXZXZXZX",
"ZXZXZXZXZXZXZXZXZXH O.O.Z S ZXZXZXZX& 4 4 # F F A Z H 1 o.}.MXNX7X3X9X9X XS H G C Y E E E F ZXZXZXZXZXZXZXZXZXZXZXZXZXZXZXZXZXZX",
"ZXZXZXZXZXZXZXZXZXH J P H S ZXZXZXZXe ) *.] 4 4 Z 1 3 1 _ ].MXNXMXBX6XBX X% 1 1 # T $.].].7 ZXZXZXZXZXZXZXZXZXZXZXZXZXZXZXZXZXZX",
"ZXZXZXZXZXZXZXZXZX1 H G 1 S ZXZXZXZX) |.=X#X< o o o o > ) }.MXCXyXBXyXBX|.- = 1 # ~ }.3X3XU ZXZXZXZXZXZXZXZXZXZXZXZXZXZXZXZXZXZX",
"ZXZXZXZXZXZXZXZXZX= 8 8 $ i ZXZXZXZXQ ) *.y.B B B 5.B w.[ ` &.v.eXeXcX|.e. .z > 7 S ) *.:.Q ZXZXZXZXZXZXZXZXZXZXZXZXZXZXZXZXZXZX",
"ZXZXZXZXZXZXZXZXZX* r x : 8 ZXZXZXZX: O X a L.P.E.H.E.I.r.. o c rXkXvX9 b eXN   o % $ = > ZXZXZXZXZXZXZXZXZXZXZXZXZXZXZXZXZXZXZX",
"ZXZXZXZXZXZXZXZXZX9 r r - 8 ZXZXZX, l 5.4.a.!.!.!.~.^.kXl.4.9 b K.kXfXa s aXF.f.h. .- > ; ZXZXZXZXZXZXZXZXZXZXZXZXZXZXZXZXZXZXZX",
"ZXZXZXZXZXZXZXZXZXw r c * 8 ZXZXZX* B I.~.U./.lX/././.lX^.K.l k rXhXvXa b xXzXxXnXZ.. + $ ZXZXZXZXZXZXZXZXZXZXZXZXZXZXZXZXZXZXZX",
"ZXZXZXZXZXZXZXZXZX- r c - , ZXZXZX+ B I.r.f.xX/./.).lXlX/.W.k < %.]..Xi N zXlXlXgX~.j.j.x.ZXZXZXZXZXZXZXZXZXZXZXZXZXZXZXZXZXZXZX",
"ZXZXZXZXZXZXZXZXZX= r r , 8 ZXZXZX$ B qXk a hXxXlXxXxXfXlXfXl @ 4 Y _ o [ vXxXgXjXxXxXhXhXw ZXZXZXZXZXZXZXZXZXZXZXZXZXZXZXZXZXZX",
"ZXZXZXZXZXZXZXZXZXZXr e r 8 S ZXZXD ^  .` { e.e.e.e.h.r.K.fXC.p.4 4 ~ x.m.d.e.g.e.e.r.qXdXp ZXZXZXZXZXZXZXZXZXZXZXZXZXZXZXZXZXZX",
"ZXZXZXZXZXZXZXZXZXZXe - z r 2 S ZXZXe O =.x.+   O .   . h.nXmXsX> $ i cX&X@ .   : o X x.A.j ZXZXZXZXZXZXZXZXZXZXZXZXZXZXZXZXZXZX",
"ZXZXZXZXZXZXZXZXZXZX, - , 6 $ 7 2 L ! &.$Xn.....g.x.g.g.e.e...[ < O - &.=.x.g.x.x.[ @ ~ %.Q ZXZXZXZXZXZXZXZXZXZXZXZXZXZXZXZXZXZX",
"ZXZXZXZXZXZXZXZXZXZXe o + : $ $ % o ` -X*X;X:X:XpXuXsXsX..O o + O w = $ v pXuXsXsXn.+ o 5 ZXZXZXZXZXZXZXZXZXZXZXZXZXZXZXZXZXZXZX",
"ZXZXZXZXZXZXZXZXZXZX) | x.x.v.z X e.h.c.-XN.) =.|.A.F.@Xn.y.&.=.&.=.&.=.x.$X#X-X-Xy.O ^ &.Q ZXZXZXZXZXZXZXZXZXZXZXZXZXZXZXZXZXZX",
"ZXZXZXZXZXZXZXZXZX5 | |.5XsX;XV a D.Z.d.M.b., ) v.OXV.$XXXXX$X$X$X$X|.#X@X$XN.|.#Xy.O x.n.- e ZXZXZXZXZXZXZXZXZXZXZXZXZXZXZXZXZX",
"ZXZXZXZXZXZXZXZXZX5 | n.#X#X#Xv a aXaXW.N.y.- ' |.:X:X:X-X;X*XF.&X*X&X%X*X&XiX$X^ [ e.N.*X%Xg.ZXZXZXZXZXZXZXZXZXZXZXZXZXZXZXZXZX",
"ZXZXZXZXZXZXZXZXZX; | n.|.$X$Xk a fXfXxXS...- %.OXpXuXpXyXeXwXiXiXiXsXsX*XuX;X;Xi c N.qXaXvXS.  ZXZXZXZXZXZXZXZXZXZXZXZXZXZXZXZX",
"ZXZXZXZXZXZXZXZXZX5 *.v.=X;X;Xv p zXlXxXw.ZXZX! ^ n.V.:XS.A.@X$XV.:X%X%X%X%Xy.^ < v F.L.L.zXC.X ZXZXZXZXZXZXZXZXZXZXZXZXZXZXZXZX",
"ZXZXZXZXZXZXZXZXZXZX| }.5X5X5X` l sXzXhXn ZXZXZX; x.V.F.A.A.@XV.V.A.A.XXN.N.' ZXZXn W.P.P.xXl.X ! ZXZXZXZXZXZXZXZXZXZXZXZXZXZXZX",
"ZXZXZXZXZXZXZXZXZXZXQ x ^ ' ^ e $ | { [ ZXZXZXZXZXv.@X*X%X*X;X&XiX&X&X;XXX^ ZXZXZXZXb k.L.G.Q.Z.` L ZXZXZXZXZXZXZXZXZXZXZXZXZXZX",
"ZXZXZXZXZXZXZXZXZXZX5 > o o = = 5 % - ZXZXZXZXZXZXv.$X;XwXwX5XeXuX;XuX;Xb.ZXZXZXZXZXZXw.E.H.E.nX .> ZXZXZXZXZXZXZXZXZXZXZXZXZXZX",
"ZXZXZXZXZXZXZXZXZXZX6 : < e 2 L L ZXZXZXZXZXZXZXZXZX] |.$X=X@X$X@X@XOX| ZXZXZXZXZXZXZXf.P.P.L.aX$Xv.8 S ZXZXZXZXZXZXZXZXZXZXZXZX",
"ZXZXZXZXZXZXZXZXZXZXZX+ z r 2 L ZXZXZXZXZXZXZXZXZXZX6 v.b.N.%XN.A.|.n.x ZXZXZXZXZXZXZXg.E.Z.qXaXsX=X8 8 ZXZXZXZXZXZXZXZXZXZXZXZX",
"ZXZXZXZXZXZXZXZXZXZXZX: c r - L ZXZXZXZXZXZXZXZXZXZXe b.%XwX%X*X*XwX-Xz ZXZXZXZXZXZX=.m.V.c.k.c.&X#X6 6 ZXZXZXZXZXZXZXZXZXZXZXZX",
"ZXZXZXZXZXZXZXZXZXZXZX, r r - r ZXZXZXZXZXZXZXZXZXZXc A.%XqXeXrXrXeXeXn ZXZXZXZXZXx v.v.x.x.p.c.@X@Xi 6 ZXZXZXZXZXZXZXZXZXZXZXZX",
"ZXZXZXZXZXZXZXZXZXZXZXr e e e t 8 ZXZXZXZXZXZXZXZXt c rXi.m tXY.q.tXtX2.t ZXZXZXZXZXx &..Xx.V.A.iX$X< 5 ZXZXZXZXZXZXZXZXZXZXZXZX",
"ZXZXZXZXZXZXZXZXZXZXZXZX- w c < 5 ZXZXZXZXZXZXZX- w m rX7.d G.Y.8.J.bXq.t ZXZXZXZXZX5 ] v.x.V.iXpXOXx 5 ZXZXZXZXZXZXZXZXZXZXZXZX",
"ZXZXZXZXZXZXZXZXZXZXZXZXr w k w 2 ZXZXZXZXZXZX( u.y.B.kXY.l.T.G.l.~.kXm w t ZXZXZXZX/ / Q U i ^ Q Q U ZXZXZXZXZXZXZXZXZXZXZXZXZX",
"ZXZXZXZXZXZXZXZXZXZXZXZX2 w t 9 , ZXZXZXZXZXZX) b.N.qXhX~.G.R.G.G.W.hXc - 8 ZXZXZXZXZX/ 1 % 3 = ; 7 ZXZXZXZXZXZXZXZXZXZXZXZXZXZX",
"ZXZXZXZXZXZXZXZXZXZXZXZX- [ eXN o ZXZXZXZXZX% &.*X*XM.b 6.P.^./.gXj.k  .b.oXZXZXZXD ZXZX( ( ( ( ZXZXZXZXZXZXZXZXZXZXZXZXZXZXZXZX",
"ZXZXZXZXZXZXZXZXZXZXZXZX$ y.vXB : ZXZXZXZX3 4 | 5X;XM.p 7.P././.lXa.9 u. X9Xo.Z A ZXZXZXZXZXZXZXZXZXZXZXZXZXZXZXZXZXZXZXZXZXZXZX",
"ZXZXZX-.oX1X1XoX1X1XZXZX- { eXn * ZXZXZXA C F E #.~ V k.K.G.G.R.lXkXrXv U Y E E E W ZXZXZXZXZXZX.X1X1XoXoX0X>XZXZXZXZXZXZXZXZXZX",
"ZXZXZX-.8X8X5X4X8X4X;.ZX*  .*Xn ZXZXZXZXA F C F R Z j S.Z.K.T.P.fXfXcXc 1 C R E E W ZX_ ZXZXZX-. X4X4X4X8X9X1X( ZXZXZXZXZXZXZXZX",
"ZXZXZX-.8X8X8X4X8X8X1X1X1Xy.w x.oX1XZX2 2 H 1 H Z 7 > z c j p j k j z 5 & 4 # U Z 4 ; ;.0X0X,X1X8X8X4X5X5X4XoX/ ZXZXZXZXZXZXZXZX",
"ZXZXZX-.1X2X8X2X2X0X1X1X4Xu.ZX.X8X8X;.ZX7 7 Z 7 2 5 % & % % = > * , 5 % 8 ; 4 # 5 $ > ;.0X6X2X0X0X0X1X2X1X6X>XZXZXZXZXZXZXZXZXZX",
"ZXZXZXZX-.+.+.%.%.-.-.-.-.+.ZX+.%.-.ZXZXo.o.o./ Q Q / / S / / L L Q L Q U / P / / P Q ( +.( o.) o.o.%.%.%.%.+.ZXZXZXZXZXZXZXZXZX",
"ZXZXZXZXZXZXZXZXZXZXZXZXZXZXZXZXZXZXZXZXZXZXZXZXZXZXZXZXZXZXZXZXZXZXZXZXZXZXZXZXZXZXZXZXZXZXZXZXZXZXZXZXZXZXZXZXZXZXZXZXZXZXZXZX"
};
