/* XPM */
static char *xpm_[] = {
/* columns rows colors chars-per-pixel */
"64 64 230 2 ",
"   c #372D0A",
".  c #38340C",
"X  c #2F2A1E",
"o  c #332D14",
"O  c #342D1C",
"+  c #372A1A",
"@  c #3A321D",
"#  c #373618",
"$  c #1E3233",
"%  c #2C2C23",
"&  c #2D2A2D",
"*  c #27292C",
"=  c #332C23",
"-  c #332C2D",
";  c #352B29",
":  c #2C3324",
">  c #2C312A",
",  c #333225",
"<  c #3A3324",
"1  c #33322B",
"2  c #3B3629",
"3  c #3B3A2B",
"4  c #373927",
"5  c #2E2D34",
"6  c #2E2D3C",
"7  c #28293A",
"8  c #332C33",
"9  c #352B3C",
"0  c #392B39",
"q  c #2D3135",
"w  c #2A343C",
"e  c #273438",
"r  c #333234",
"t  c #3B3435",
"y  c #3B3D33",
"u  c #33333A",
"i  c #3C3A3A",
"p  c #393539",
"a  c #463A1B",
"s  c #4B380A",
"d  c #411E24",
"f  c #761527",
"g  c #641822",
"h  c #433B23",
"j  c #443D2B",
"k  c #463A26",
"l  c #452834",
"z  c #433C31",
"x  c #532A2E",
"c  c #672936",
"v  c #712D2D",
"b  c #3E4337",
"n  c #544A1A",
"m  c #5F5516",
"M  c #504713",
"N  c #655617",
"B  c #6C411F",
"V  c #7A6819",
"C  c #4C432B",
"Z  c #494628",
"A  c #534422",
"S  c #574A28",
"D  c #595227",
"F  c #444436",
"G  c #4B4532",
"H  c #43443B",
"J  c #4A4939",
"K  c #584C39",
"L  c #565636",
"P  c #4B5431",
"I  c #67482A",
"U  c #675628",
"Y  c #645A37",
"T  c #715D2D",
"R  c #7A6627",
"E  c #7A6B3A",
"W  c #7C713B",
"Q  c #75682B",
"!  c #2E2D47",
"~  c #283648",
"^  c #343846",
"/  c #323A54",
"(  c #213951",
")  c #473C46",
"_  c #77364C",
"`  c #3D4549",
"'  c #2D4852",
"]  c #384855",
"[  c #38505C",
"{  c #38537B",
"}  c #274767",
"|  c #484846",
" . c #5A5446",
".. c #464655",
"X. c #595657",
"o. c #4F504E",
"O. c #655A57",
"+. c #675B4B",
"@. c #6E6747",
"#. c #796B45",
"$. c #7D734C",
"%. c #676A56",
"&. c #736758",
"*. c #7A7A58",
"=. c #474869",
"-. c #51516D",
";. c #5D6572",
":. c #50666A",
">. c #6B6668",
",. c #736868",
"<. c #68736A",
"1. c #767967",
"2. c #756C78",
"3. c #787B78",
"4. c #6B6C72",
"5. c #871D34",
"6. c #872738",
"7. c #982839",
"8. c #882327",
"9. c #86711B",
"0. c #955238",
"q. c #826A2E",
"w. c #887229",
"e. c #836C39",
"r. c #977B3C",
"t. c #867736",
"y. c #9C2E41",
"u. c #8A3341",
"i. c #833D55",
"p. c #904F56",
"a. c #A35548",
"s. c #877B4A",
"d. c #857958",
"f. c #AE7347",
"g. c #8D7F6D",
"h. c #99893F",
"j. c #8F864D",
"k. c #998844",
"l. c #8D865C",
"z. c #978C57",
"x. c #9A9255",
"c. c #A88C43",
"v. c #A79348",
"b. c #A69957",
"n. c #B69351",
"m. c #B6A658",
"M. c #AFA250",
"N. c #8B8868",
"B. c #958D65",
"V. c #979367",
"C. c #868978",
"Z. c #8B927A",
"A. c #939572",
"S. c #989B7B",
"D. c #938C7C",
"F. c #A58B65",
"G. c #A59B79",
"H. c #A49B65",
"J. c #9AA47F",
"K. c #B8A867",
"L. c #BDB064",
"P. c #A4A274",
"I. c #BBAA7A",
"U. c #BAB377",
"Y. c #C3A755",
"T. c #C9B15B",
"R. c #D7BF59",
"E. c #C5AA69",
"W. c #C5B464",
"Q. c #C4B56D",
"!. c #CBB668",
"~. c #D4B666",
"^. c #CBB471",
"/. c #C9B978",
"(. c #D2BC76",
"). c #C8AA72",
"_. c #E3BD76",
"`. c #D7C25C",
"'. c #D5C467",
"]. c #C9C273",
"[. c #D8C676",
"{. c #EACD6F",
"}. c #F6DB79",
"|. c #E7CF7C",
" X c #3B5882",
".X c #3A6590",
"XX c #435E95",
"oX c #55799B",
"OX c #476C8B",
"+X c #667789",
"@X c #7A7288",
"#X c #547EA4",
"$X c #667EA2",
"%X c #5E82A4",
"&X c #838883",
"*X c #99938B",
"=X c #A39E86",
"-X c #AD9A94",
";X c #9FA791",
":X c #A5A68A",
">X c #A7A896",
",X c #AFB29A",
"<X c #B2B890",
"1X c #8E97A0",
"2X c #AF99A6",
"3X c #B3B3A3",
"4X c #BBBEA3",
"5X c #B3BAB7",
"6X c #B6A9A4",
"7X c #C9BE8A",
"8X c #C8B597",
"9X c #C0BBB8",
"0X c #B6C29A",
"qX c #B9C1A7",
"wX c #D9C68A",
"eX c #C9C596",
"rX c #D8CB94",
"tX c #D6CA8F",
"yX c #E5CF86",
"uX c #E9D686",
"iX c #F4D88A",
"pX c #EBDC94",
"aX c #F5DC95",
"sX c #F7E587",
"dX c #F7E792",
"fX c #EEE192",
"gX c #CFCEA2",
"hX c #F1E3A2",
"jX c #F0D2AC",
"kX c None",
/* pixels */
"kXkXkXkXkXkXkXkXkXkXkXkXkXkXkXkXkXkXkXkXkXkXkXkXkXkXkXkXkXkXkXkXkXkXkXkXkXkXkXkXkXkXkXkXkXkXkXkXkXkXkXkXkXkXkXkXkXkXkXkXkXkXkXkX",
"kXkXkXkXkXkXkXkXkXkXkXkXkXkXkXkXkXkXkXkXkXkXkXkXkXkXkXkXkXkXkXkXkXkXkXkXkXkXkXkXkXkXkXkXkXkXkXkXkXkXkXkXkXkXkXkXkXkXkXkXkXkXkXkX",
"kXkXkXkXkXkXkXkXkXkXkXkXkXkXkXkXkXkXkXkXkXkXkXkXkXkXkXkXkXkXkXkXkXkXkXkXkXkXkXkXkXkXkXkXkXkXkXkXkXkXkXkXkXkXkXkXkXkXkXkXkXkXkXkX",
"kXkXkXkXkXkXkXkXkXkXkXkXkXkXkXkXkXkXkXkXkXkXkXkXkXkXkXkXkXkXkXkXkXkXkXkXkXkXkXkXkXkXkXkXkXkXkXkXkXkXkXkXkXkXkXkXkXkXkXkXkXkXkXkX",
"kXkXkXkXkXkXkXkXkXkXkXkXkXkXkXkXkXkXkXkXkXkXkXkXkXkXkXkXkXkXkXkXkXkXkXkXkXkXkXkXkXkXkXkXkXkXkXkXkXkXkXkXkXkXkXkXkXkXkXkXkXkXkXkX",
"kXkXkXkXkXkXkXkXkXkXkXkXkXkXkXkXkXkXkXkXkXkXkXkXkXkXkXkXkXkXkXkXkXkXkXkXkXkXkXkXkXkXkXkXkXkXkXkXkXkXkXkXkXkXkXkXkXkXkXkXkXkXkXkX",
"kXkXkXkXkXkXkXkXkXkXkXkXkXkXkXkXkXkXkXkXkXkXkXkXkXkXkXkXkXkXkXkXkXkXkXkXkXkXkXkXkXkXkXkXkXkXkXkXkXkXkXkXkXkXkXkXkXkXkXkXkXkXkXkX",
"kXkXkXkXkXkXkXkXkXkXkXkXkXkXkXkXkXkXkXkXkXkXkXkXkXkXkXkXkXkXkXkXkXkXkXkXkXkXkXkXkXkXkXkXkXkXkXkXkXkXkXkXkXkXkXkXkXkXkXkXkXkXkXkX",
"kXkXkXkXkXkXkXkXkXkXkXkXkXkXkXkXkXkXkXkXkXkXkXkXkXkXkXkXkXkXkXkXkXkXkXkXkXkXkXkXkXkXkXkXkXkXkXkXkXkXkXkXkXkXkXkXkXkXkXkXkXkXkXkX",
"kXkXkXkXkXkXkXkXkXkXkXkXkXkXkXkXkXkXkXkXkXkXkXkXkXkXkXkXkXkXkXkXkXkXkXkXkXkXkXkXkXkXkXkXkXkXkXkXkXkXkXkXkXkXkXkXkXkXkXkXkXkXkXkX",
"kXkXkXkXkXkXkXkXkXkXkXkXkXkXkXkXkXkXkXkXkXkXkXkXkXkXkXkXkXkXkXkXkXkXkXkXkXkXkXkXkXkXkXkXkXkXkXkXkXkXkXkXkXkXkXkXkXkXkXkXkXkXkXkX",
"kXkXkXkXkXkXkXkXkXkXkXkXkXkXkXkXkXkXkXkXkXkXkXkXkXkXkXkXkXkXkXkXkXkXkXkXkXkXkXkXkXkXkXkXkXkXkXkXkXkXkXkXkXkXkXkXkXkXkXkXkXkXkXkX",
"kXkXkXkXkXkXkXkXkXkXkXkXkXkXkXkXkXkXkXkXkXkXkXkXkXkXkXkXkXkXkXkXkXkXkXkXkXkXkXkXkXkXkXkXkXkXkXkXkXkXkXkXkXkXkXkXkXkXkXkXkXkXkXkX",
"kXkXkXkXkXkXkXkXkXkXkXkXkXkXkXkXkXkXkXkXkXkXkXkXkXkXkXkXkXkXkXkXkXkXkXkXkXkXkXkXkXkXkXkXkXkXkXkXkXkXkXkXkXkXkXkXkXkXkXkXkXkXkXkX",
"kXkXkXkXkXkXkXkXkXkXkXkXkXkXkXkXkXkXkXkXkXkXkXkXkXkXkXkXkXkXkXkXkXkXkXkXkXkXkXkXkXkXkXkXkXkXkXkXkXkXkXkXkXkXkXkXkXkXkXkXkXkXkXkX",
"kXkXkXkXkXkXkXkXkXkXkXkXkXkXkXkXkXkXkXkXkXkXkXkXkXkXkXkXkXkXkXkXkXkXkXkXkXkXkXkXkXkXkXkXkXkXkXkXkXkXkXkXkXkXkXkXkXkXkXkXkXkXkXkX",
"kXkXkXkXkXkXkXkXkXkXkXkXkXkXkXkXkXkXkXkXkXkXkXkXkXkXkXkXkXkXkXkXkXkXkXkXkXkXkXkXkXkXkXkXkXkXkXkXkXkXkXkXkXkXkXkXkXkXkXkXkXkXkXkX",
"kXkXkXkXkXkXkXkXkXkXkXkXkXkXkXkXkXkXkXkXkXkXkXkXkXkXkXkXkXkXkXkXkXkXkXkXkXkXkXkXkXkXkXkXkXkXkXkXkXkXkXkXkXkXkXkXkXkXkXkXkXkXkXkX",
"kXkXkXkXkXkXkXkXkXkXkXkXkXkXkXkXkXkXkXkXkXkXkXkXkXkXkXkXkXkXkXkXkXkXkXkXkXkXkXkXkXkXkXkXkXkXkXkXkXkXkXkXkXkXkXkXkXkXkXkXkXkXkXkX",
"kXkXkXkXkXkXkXkXkXkXkXkXkXkXkXkXkXkXkXkXkXkXkXkXkXkXkXkXkXkXkXkXkXkXkXkXkXkXkXkXkXkXkXkXkXkXkXkXkXkXkXkXkXkXkXkXkXkXkXkXkXkXkXkX",
"kXkXkXkXkXkXkXkXkXkXkXkXkXkXkXkXkXkXkXkXkXkXkXkXkXkXkXkXkXkXkXkXkXkXkXkXkXkXkXkXkXkXkXkXkXkXkXkXkXkXkXkXkXkXkXkXkXkXkXkXkXkXkXkX",
"kXkXkXkXkXkXkXkXkXkXkXkXkXkXkXkXkXkXkXkXkXkXkXkXkXkXkXkXkXkXkXkXkXkXkXkXkXkXkXkXkXkXkXkXkXkXkXkXkXkXkXkXkXkXkXkXkXkXkXkXkXkXkXkX",
"kXkXkXkXkXkXkXkXkXkXkXkXkXkXkXkXkXkXkXkXkXkXkXkXkXkXkXkXkXkXkXkXkXkXkXkXkXkXkXkXkXkXkXkXkXkXkXkXkXkXkXkXkXkXkXkXkXkXkXkXkXkXkXkX",
"kXkXkXkXkXkXkXkXkXkXkXkXkXkXkXkXkXkXkXkXkXkXkXkXkXkXkXkXkXkXkXkXkXkXkXkXkXkXkXkXkXkXkXkXkXkXkXkXkXkXkXkXkXkXkXkXkXkXkXkXkXkXkXkX",
"kXkXkXkXkXkXkXkXkXkXkXkXkXkXkXkXkXkXkXkXkXkXkXkXkXkXkXkXkXkXkXkXkXkXkXkXkXkXkXkXkXkXkXkXkXkXkXkXkXkXkXkXkXkXkXkXkXkXkXkXkXkXkXkX",
"kXkXkXkXkXkXkXkXkXkXkXkXkXkXkXkXkXkXkXkXkXkXkXkXkXkXkXkXkXkXkXkXkXkXkXkXkXkXkXkXkXkXkXkXkXkXkXkXkXkXkXkXkXkXkXkXkXkXkXkXkXkXkXkX",
"kXkXkXkXkXkXkXkXkXkXkXkXkXkXkXkXkXkXkXkXkXkXkXkXkXkXkXkXkXkXkXkXkXkXkXkXkXkXkXkXkXkXkXkXkXkXkXkXkXkXkXkXkXkXkXkXkXkXkXkXkXkXkXkX",
"kXkXkXkXkXkXkXkXkXkXkXkXkXkXkXkXkXkXkXkXkXkXkXkXkXkXkXkXkXkXkXkX| l l x kXkXkXkXkXkXkXkXkXkXkXkXkXkXkXkXkXkXkXkXkXkXkXkXkXkXkXkX",
"kXkXkXkXkXkXkXkXkXkXkXkXkXkXkXkXkXkXkXkXkXkXkXkXkXkXkXkXkX& & d l c c _ _ d % kXkXkXkXkXkXkXkXkXkXkXkXkXkXkXkXkXkXkXkXkXkXkXkXkX",
"kXkXkXkXkXkXkXkXkXkXkXkXkXkXkXkXkXkXkXkXkXkXkXkXkXkXkXkX^ o.X.X.x c v u.c c O.| kXkXkXkXkXkXkXkXkXkXkXkXkXkXkXkXkXkXkXkXkXkXkXkX",
"kXkXkXkXkXkXkXkXkXkXkXkXkXkXkXkXkXkXkXkXkXkXkXkXkXkXkX* | C.6X-Xc v y.y.6.p.6X>.5 kXkXkXkXkXkXkXkXkXkXkXkXkXkXkXkXkXkXkXkXkXkXkX",
"kXkXkXkXkXkXkXkXkXkXkXkXkXkXkXkXkXkXkXkXkXkXkXkXkXkXkX^ ..+X1X&Xc 6.7.7.7.i.-X;.~ kXkXkXkXkXkXkXkXkXkXkXkXkXkXkXkXkXkXkXkXkXkXkX",
"kXkXkXkXkXkXkXkXkXkXkXkXkXkXkXkXkXkXkXkXkXkXkXkXkXkX( }  X{ XX=.c f 5.5.6._ XXXX.X.XkXkXkXkXkXkXkXkXkXkXkXkXkXkXkXkXkXkXkXkXkXkX",
"kXkXkXkXkXkXkXkXkXkXkXkXkXkXkXkXkXkXkXkXkXkXkXkXkXw [ OXoXXX+X2.c u.6.8.7.i.@X$X%X%XkXkXkXkXkXkXkXkXkXkXkXkXkXkXkXkXkXkXkXkXkXkX",
"kXkXkXkXkXkXkXkXkXkXkXkXkXkXkXkXkXkXkXkXkXkXkXkX% | C.>X5X9X8XF.x g f f 8.a.jXgXqX5X<.kXkXkXkXkXkXkXkXkXkXkXkXkXkXkXkXkXkXkXkXkX",
"kXkXkXkXkXkXkXkXkXkXkXkXkXkXkXkXkXkXkXkXkXkXkX| J  .l.=X-X-X).E.0.v v v y.f.iX^.G.>X%.kXkXkXkXkXkXkXkXkXkXkXkXkXkXkXkXkXkXkXkXkX",
"kXkXkXkXkXkXkXkXkXkXkXkXkXkXkXkXkXkXkXkXkXkXkX&XZ.1.L L O.+.b.[.aXf.I B n._.iXc.P :.[ kXkXkXkXkXkXkXkXkXkXkXkXkXkXkXkXkXkXkXkXkX",
"kXkXkXkXkXkXkXkXkXkXkXkXkXkXkXkXkXkXkXkXkXkXkX<.<.<.L @.,. .j.m._.r.q.r.c.Y.(.x.1.o.[ kXkXkXkXkXkXkXkXkXkXkXkXkXkXkXkXkXkXkXkXkX",
"kXkXkXkXkXkXkXkXkXkXkXkXkXkXkXkXkXkXkXkXkXkXkX~ w b D U.eXD m N N n.'.uXh.m N K.eX%.=.=.kXkXkXkXkXkXkXkXkXkXkXkXkXkXkXkXkXkXkXkX",
"kXkXkXkXkXkXkXkXkXkXkXkXkXkXkXkXkXkXkXkXkXkX~ ] ..J D Q.[.V R R m v.`.iXh.N V ^.tXY ;.;.kXkXkXkXkXkXkXkXkXkXkXkXkXkXkXkXkXkXkXkX",
"kXkXkXkXkXkXkXkXkXkXkXkXkXkXkXkXkXkXkXkXkXkX` &X*X$.N n.~.~.T.M.N x.[.sXk.R W.yXwXT N.>Xz kXkXkXkXkXkXkXkXkXkXkXkXkXkXkXkXkXkXkX",
"kXkXkXkXkXkXkXkXkXkXkXkXkXkXkXkXkXkXkXkXkXu P 1.*.s.q.c.Y.~.Y.k.n j.W.(.t.N b./.I.U l.S.@ kXkXkXkXkXkXkXkXkXkXkXkXkXkXkXkXkXkXkX",
"kXkXkXkXkXkXkXkXkXkXkXkXkXkXkXkXkXkXkXkXkXz 1 X C W ^.9.9.W.T . o S N T a . # C D . Z L @ kXkXkXkXkXkXkXkXkXkXkXkXkXkXkXkXkXkXkX",
"kXkXkXkXkXkXkXkXkXkXkXkXkXkXkXkXkXkXkXkX; k S D U Q (.V 9.W.L o @ I R q.A < , G L L P C < kXkXkXkXkXkXkXkXkXkXkXkXkXkXkXkXkXkXkX",
"kXkXkXkXkXkXkXkXkXkXkXkXkXkXkXkXkXkXkXkXa z.(.).R q.^.w.9.!.Y o   k.[.pX#.o X k E rX*.= ; | kXkXkXkXkXkXkXkXkXkXkXkXkXkXkXkXkXkX",
"kXkXkXkXkXkXkXkXkXkXkXkXkXkXkXkXkXkXkXkX. b.^.n.r.r.K.R V !.E n m c.`.sXs.a I n R fXF.S K  .kXkXkXkXkXkXkXkXkXkXkXkXkXkXkXkXkXkX",
"kXkXkXkXkXkXkXkXkXkXkXkXkXkXkXkXkXkXkXkX# H.F.s Q.L.U m w.~.~.T.T.~.`.sX[.^.).r.R aXuXfXaXs.1 kXkXkXkXkXkXkXkXkXkXkXkXkXkXkXkXkX",
"kXkXkXkXkXkXkXkXkXkXkXkXkXkXkXkXkXkXkX| o B.g.A H.U.A A E K.L.T.E.K.m.].^.Q.).e.Q /.].[.uXs.2 kXkXkXkXkXkXkXkXkXkXkXkXkXkXkXkXkX",
"kXkXkXkXkXkXkXkXkXkXkXkXkXkXkXkXkXkXkXH % @ K N.S o 4 X G D.g.N.N.P # , &.C.C.L . # a S ).s.O kXkXkXkXkXkXkXkXkXkXkXkXkXkXkXkXkX",
"kXkXkXkXkXkXkXkXkXkXkXkXkXkXkXkXkXkXH F G k +.D.X.b F H X.4.3.3.<.` > * X.@X&Xo., J 4 k G.Y 2 kXkXkXkXkXkXkXkXkXkXkXkXkXkXkXkXkX",
"kXkXkXkXkXkXkXkXkXkXkXkXkXkXkX8 7 0 # Y I.V.d.-X=X;X4X<XC.y >.2.b > 9 9 ! ) 3.| J ;X,.; 2 : i kXkXkXkXkXkXkXkXkXkXkXkXkXkXkXkXkX",
"kXkXkXkXkXkXkXkXkXkXkXkXkXJ J | | 3 n W /.K.G.P.S.:X<X0XS.% >.2.p * 9 0 l ) <.` | 3XO.t H 4 8 X.kXkXkXkXkXkXkXkXkXkXkXkXkXkXkXkX",
"kXkXkXkXkXkXkXkXkXkXkXkX;X3X3X3X>XG.K.'.sXuX7XB.N.V.=X;XZ.> >.2.q r - - 8 - y : b ;XO.j P.$.% 0 kXkXkXkXkXkXkXkXkXkXkXkXkXkXkXkX",
"kXkXkXkXkXkXkXkXkXkXkX3 &X>X,X-X:XV.W.'.sXdX(.d.l.A.Z.Z.<.e O.>.1 G G K 2 : : : b C. .h P.$.C 1 | kXkXkXkXkXkXkXkXkXkXkXkXkXkXkX",
"kXkXkXkXkXkXkXkXkXkXkXkXh < k @ @ M !.dXsXdXI.a d.&.3 4 e q y = a d./.pX#.o : : : t t < . V.eX# % kXkXkXkXkXkXkXkXkXkXkXkXkXkXkX",
"kXkXkXkXkXkXkXkXkXkXkXZ A A A S n n K.7XrXrXG.< &.&.3 4 , G C A   B.].aXW o : > * t - = n x.eXS z H kXkXkXkXkXkXkXkXkXkXkXkXkXkX",
"kXkXkXkXkXkXkXkXkXkX@.I.wXyXpXuX[.m.U h k z 3 % > | C.C T rXQ.x.s l.].uX$., - 5 ! 0 - C K.b.B.N.=X;X3 kXkXkXkXkXkXkXkXkXkXkXkXkX",
"kXkXkXkXkXkXkXkXkXkX#.[.}.}.}.}.{.^.I 2 & 5 u e e | *.D Q uX'.M.. *.<XgX%.% * ^ ! ! u G I.H.B.Z.:X>X .b H kXkXkXkXkXkXkXkXkXkXkX",
"kXkXkXkXkXkXkXkXkXkX#.fXR.R.R.R.{.iXY 3 kX^ 7 ~ ~ w Z j.W.`.`.b.# b ' :.' e w [ OX{ / i N.N.A.<XqX0X,X6X>Xi kXkXkXkXkXkXkXkXkXkX",
"kXkXkXkXkXkXkXkXkXkXs.rXm.M.m.m.).tXK kXkXkXkXkXkX^ : l.L.m.L.z., w } { / e $ ' { { / ^ ,.N.C.;X>X>X3X>X>Xi kXkXkXkXkXkXkXkXkXkX",
"kXkXkXkXkXkXkXkXkXkXkXC a k k A h J z kXkXkXkXkXkXkX- z k k a 4 , 5 ! ! 7 r e w ~ ~ 5 - y i 4 y 4 b 1 y i r kXkXkXkXkXkXkXkXkXkX",
"kXkXkXkXkXkXkXkXkXkXkXkXt t - 8 5 r kXkXkXkXkXkXkXkXkX0 8 r & r 8 8 ) l 0 9 q e ! 6 1 - & q r r 1 2 1 i u kXkXkXkXkXkXkXkXkXkXkX",
"kXkXkXkXkXkXkXkXkXkXkXkXkXkXkXkXkXkXkXkXkXkXkXkXkXkXkXkXkXkXkXkXkXkX) ) ......` ....| | kXkXkXkXkXkXkXkXkXkXkXkXkXkXkXkXkXkXkXkX",
"kXkXkXkXkXkXkXkXkXkXkXkXkXkXkXkXkXkXkXkXkXkXkXkXkXkXkXkXkXkXkXkXkXkXkXkXkXkXkXkXkXkXkXkXkXkXkXkXkXkXkXkXkXkXkXkXkXkXkXkXkXkXkXkX"
};
