/* XPM */
static char *xpm_[] = {
/* columns rows colors chars-per-pixel */
"64 64 229 2 ",
"   c #352C08",
".  c #36320D",
"X  c #392D1B",
"o  c #3A3315",
"O  c #33331B",
"+  c #3C361A",
"@  c #2B2809",
"#  c #1E2D30",
"$  c #292D2D",
"%  c #282929",
"&  c #332B2B",
"*  c #392C2D",
"=  c #362B26",
"-  c #353523",
";  c #3A3225",
":  c #34322C",
">  c #3B332C",
",  c #31392A",
"<  c #2B2B38",
"1  c #322E34",
"2  c #372F38",
"3  c #2D3033",
"4  c #2C323D",
"5  c #253435",
"6  c #333535",
"7  c #3A3233",
"8  c #3D3933",
"9  c #34343D",
"0  c #363B3D",
"q  c #2C362B",
"w  c #411D1F",
"e  c #452B05",
"r  c #4C3706",
"t  c #453919",
"y  c #741C2A",
"u  c #761D31",
"i  c #433B2A",
"p  c #463A25",
"a  c #482D37",
"s  c #5A2C38",
"d  c #433C36",
"f  c #453B3C",
"g  c #473933",
"h  c #402A2C",
"j  c #632B38",
"k  c #792837",
"l  c #703031",
"z  c #3F413A",
"x  c #57511C",
"c  c #4A401D",
"v  c #69530E",
"b  c #635A1A",
"n  c #6E4D1A",
"m  c #6A6419",
"M  c #746919",
"N  c #4A452C",
"B  c #554D2C",
"V  c #5B4C26",
"C  c #5A562B",
"Z  c #474637",
"A  c #594C36",
"S  c #5C5433",
"D  c #5E513B",
"F  c #595939",
"G  c #665929",
"H  c #765C28",
"J  c #625933",
"K  c #6C5E3C",
"L  c #625838",
"P  c #614A20",
"I  c #6D6528",
"U  c #756428",
"Y  c #696439",
"T  c #756A37",
"R  c #7C7539",
"E  c #79702F",
"W  c #282C45",
"Q  c #2D364A",
"!  c #353341",
"~  c #3C3C42",
"^  c #3B3D4B",
"/  c #393A42",
"(  c #363A54",
")  c #393B54",
"_  c #2B3F62",
"`  c #433B4A",
"'  c #423C44",
"]  c #473953",
"[  c #7D3648",
"{  c #3A4648",
"}  c #3B445A",
"|  c #384662",
" . c #354F6C",
".. c #4D494C",
"X. c #474846",
"o. c #504843",
"O. c #5B5744",
"+. c #56564B",
"@. c #4C4B51",
"#. c #454150",
"$. c #5A5A53",
"%. c #585455",
"&. c #4B5256",
"*. c #645D46",
"=. c #6C545A",
"-. c #6B6649",
";. c #746D49",
":. c #6A655A",
">. c #796952",
",. c #76745B",
"<. c #454C66",
"1. c #555A63",
"2. c #56556F",
"3. c #5D6165",
"4. c #4B637D",
"5. c #6A6965",
"6. c #757468",
"7. c #6D7672",
"8. c #757774",
"9. c #77787B",
"0. c #727065",
"q. c #882638",
"w. c #853535",
"e. c #912A3D",
"r. c #8A782A",
"t. c #86793A",
"y. c #91732D",
"u. c #942A44",
"i. c #853349",
"p. c #A05D42",
"a. c #82794E",
"s. c #947F5B",
"d. c #817D58",
"f. c #AA744E",
"g. c #8F796E",
"h. c #908737",
"j. c #9B8549",
"k. c #8D8757",
"l. c #9A895A",
"z. c #969156",
"x. c #958A4A",
"c. c #A68E4A",
"v. c #A7944C",
"b. c #A3915D",
"n. c #AA9758",
"m. c #B39C5A",
"M. c #AA9550",
"N. c #ABA957",
"B. c #B4A456",
"V. c #8A8163",
"C. c #878265",
"Z. c #958C62",
"A. c #928568",
"S. c #8C8A7A",
"D. c #928475",
"F. c #929274",
"G. c #969877",
"H. c #969463",
"J. c #A89969",
"K. c #B59A6B",
"L. c #A59B76",
"P. c #B49A78",
"I. c #BF857A",
"U. c #9EA079",
"Y. c #ABA76B",
"T. c #B2A468",
"R. c #AAA375",
"E. c #A6A57D",
"W. c #B7A977",
"Q. c #BDB17B",
"!. c #C09E5E",
"~. c #C8AB5D",
"^. c #C9B566",
"/. c #C5B36A",
"(. c #C1B076",
"). c #D3C666",
"_. c #CAC37A",
"`. c #DAC878",
"'. c #E1C87A",
"]. c #E7D976",
"[. c #EFE279",
"{. c #495C84",
"}. c #556A89",
"|. c #797A83",
" X c #707794",
".X c #987589",
"XX c #7F87AC",
"oX c #888982",
"OX c #998C85",
"+X c #9C9986",
"@X c #8B8894",
"#X c #95929B",
"$X c #97979A",
"%X c #908E93",
"&X c #A69A85",
"*X c #BA9C80",
"=X c #97A89B",
"-X c #A7A387",
";X c #BCB484",
":X c #AAAA98",
">X c #B8B499",
",X c #B5A685",
"<X c #9B98A5",
"1X c #9487A3",
"2X c #A29EAD",
"3X c #99A2A9",
"4X c #A7A6AA",
"5X c #BAB6AB",
"6X c #ACA9B4",
"7X c #B2AFBA",
"8X c #B5B3B5",
"9X c #B5B3BA",
"0X c #B9B6BC",
"qX c #C9AC81",
"wX c #C6BC8D",
"eX c #E9B38D",
"rX c #C6B6A7",
"tX c #C6C68A",
"yX c #D6CB85",
"uX c #D8C396",
"iX c #D2D394",
"pX c #E4CC84",
"aX c #E8D688",
"sX c #EBCC94",
"dX c #E7D997",
"fX c #F4E58A",
"gX c #B9B6C0",
"hX c #BEBAC7",
"jX c None",
/* pixels */
"jXjXjXjXjXjXjXjXjXjXjXjXjXjXjXjXjXjXjXjXjXjXjXjXjXjXjXjXjXjXjXjXjX8X8X0X$XjXjXjXjXjXjXjXjXjXjXjXjXjXjXjXjXjXjXjXjXjXjXjXjXjXjXjX",
"jXjXjXjXjXjXjXjXjXjXjXjXjXjXjXjXjXjX|.|.jXjXjXjXjXjXjXjXjXjXjXjX#X8X9X#XjXjXjXjXjXjXjXjXjXjXjXjXjXjXjXjXjXjXjXjXjXjXjXjXjXjXjXjX",
"jXjXjXjXjXjXjXjXjXjXjXjXjXjXjXjXjXjX2X6X@XjXjXjXjXjXjXjXjXjX4XgX9X9X4XjXjXjXjXjXjXjXjXjXjXjXjXjXjXjXjXjXjXjXjXjXjXjXjXjXjXjXjXjX",
"jXjXjXjXjXjXjXjXjXjXjXjXjXjXjXjXjXjXjXjXjXjXjXjXjXjXjXjXjXjXjX1X0X4XjXjXjXjXjXjXjXjXjXjXjXjXjXjXjXjXjXjXjXjXjXjXjXjXjXjXjXjXjXjX",
"jXjXjXjXjXjXjXjXjXjXjXjXjXjXjXjXjXjXjXjXjXjXjXjXjXjXjXjXjXjXjXjXjXjXjXjXjXjXjXjXjXjXjXjXjXjXjXjXjXjXjXjXjXjXjXjXjXjXjXjXjXjXjXjX",
"jXjXjXjXjXjXjXjXjXjXjXjXjXjXjXjXjXjXjXjXjXjXjXjXjXjXjXjXjXjXjXjXjXjXjXjXjXjXjXjXjXjXjXjXjXjXjXjXjXjXjXjXjXjXjXjXjXjXjXjXjXjXjXjX",
"jXjXjXjXjXjXjXjXjXjXjXjXjXjXjXjXjXjXjXjXjXjXjXjXjXjXjXjXjXjXjXjXjXjXjXjXjXjXjXjXjXjXjXjXjXjXjXjXjXjXjXjXjXjXjXjXjXjXjXjXjXjXjXjX",
"jXjXjXjXjXjXjXjXjXjXjXjXjXjXjXjXjXjXjXjXjXjXjXjXjXjXjXjXjXjXjXjXjXjXjXjXjXjXjXjXjXjXjXjXjXjXjXjXjXjXjXjXjXjXjXjXjXjXjXjXjXjXjXjX",
"jXjXjXjXjXjXjXjXjXjXjXjXjXjXjXjXjXjXjXjXjXjXjXjXjXjXjXjXjXjXjXjXjXjXjXjXjXjXjXjXjXjXjXjXjXjXjXjXjXjXjXjXjXjXjXjXjXjXjXjXjXjXjXjX",
"jXjXjXjXjXjXjXjXjXjXjXjXjXjXjXjXjXjXjXjXjXjXjXjXjXjXjXjXjXjXjXjXjXjXjXjXjXjXjXjXjXjXjXjXjXjXjXjXjXjXjXjXjXjXjXjXjXjXjXjXjXjXjXjX",
"jXjXjXjXjXjXjXjXjXjXjXjXjXjXjXjXjXjXjXjXjXjXjXjXjXjXjXjXjXjXjXjXjXjXjXjXjXjXjXjXjXjXjXjXjXjXjXjXjXjXjXjXjXjXjXjXjXjXjXjXjXjXjXjX",
"jXjXjXjXjXjXjXjXjXjXjXjXjXjXjXjXjXjXjXjXjXjXjXjXjXjXjXjXjXjXjXjXjXjXjXjXjXjXjXjXjXjXjXjXjXjXjXjXjXjXjXjXjXjXjXjXjXjXjXjXjXjXjXjX",
"jXjXjXjXjXjXjXjXjXjXjXjXjXjXjXjXjXjXjXjXjXjXjXjXjXjXjXjXjXjXjXjXjXjXjXjXjXjXjXjXjXjXjXjXjXjXjXjXjXjXjXjXjXjXjXjXjXjXjXjXjXjXjXjX",
"jXjXjXjXjXjXjXjXjXjXjXjXjXjXjXjXjXjXjXjXjXjXjXjXjXjXjXjXjXjXjXjXjXjXjXjXjXjXjXjXjXjXjXjXjXjXjXjXjXjXjXjXjXjXjXjXjXjXjXjXjXjXjXjX",
"jXjXjXjXjXjXjXjXjXjXjXjXjXjXjXjXjXjXjXjXjXjXjXjXjXjXjXjXjXjXjXjXjXjXjXjXjXjXjXjXjXjXjXjXjXjXjXjXjXjXjXjXjXjXjXjXjXjXjXjXjXjXjXjX",
"jXjXjXjXjXjXjXjXjXjXjXjXjXjXjXjXjXjXjXjXjXjXjXjXjXjXjXjXjXjXjXjXjXjXjXjXjXjXjXjXjXjXjXjXjXjXjXjXjXjXjXjXjXjXjXjXjXjXjXjXjXjXjXjX",
"jXjXjXjXjXjXjXjXjXjXjXjXjXjXjXjXjXjXjXjXjXjXjXjXjXjXjXjXjXjXjXjXjXjXjXjXjXjXjXjXjXjXjXjXjXjXjXjXjXjXjXjXjXjXjXjXjXjXjXjXjXjXjXjX",
"jXjXjXjXjXjXjXjXjXjXjXjXjXjXjXjXjXjXjXjXjXjXjXjXjXjXjXjXjXjXjXjXjXjXjXjXjXjXjXjXjXjXjXjXjXjXjXjXjXjXjXjXjXjXjXjXjXjXjXjXjXjXjXjX",
"jXjXjXjXjXjXjXjXjXjXjXjXjXjXjXjXjXjXjXjXjXjXjXjXjXjXjXjXjXjXjXjXjXjXjXjXjXjXjXjXjXjXjXjXjXjXjXjXjXjXjXjXjXjXjXjXjXjXjXjXjXjXjXjX",
"jXjXjXjXjXjXjXjXjXjXjXjXjXjXjXjXjXjXjXjXjXjXjXjXjXjXjXjXjXjXjXjXjXjXjXjXjXjXjXjXjXjXjXjXjXjXjXjXjXjXjXjXjXjXjXjXjXjXjXjXjXjXjXjX",
"jXjXjXjXjXjXjXjXjXjXjXjXjXjXjXjXjXjXjXjXjXjXjXjXjXjXjXjXjXjXjXjXjXjXjXjXjXjXjXjXjXjXjXjXjXjXjXjXjXjXjXjXjXjXjXjXjXjXjXjXjXjXjXjX",
"jXjXjXjXjXjXjXjXjXjXjXjXjXjXjXjXjXjXjXjXjXjXjXjXjXjXjXjXjXjXjXjXjXjXjXjXjXjXjXjXjXjXjXjXjXjXjXjXjXjXjXjXjXjXjXjXjXjXjXjXjXjXjXjX",
"jXjXjXjXjXjXjXjXjXjXjXjXjXjXjXjXjXjXjXjXjXjXjXjXjXjXjXjXjXjXjXjXjXjXjXjXjXjXjXjXjXjXjXjXjXjXjXjXjXjXjXjXjXjXjXjXjXjXjXjXjXjXjXjX",
"jXjXjXjXjXjXjXjXjXjXjXjXjXjXjXjXjXjXjXjXjXjXjXjXjXjXjXjXjXjXjXjXjXjXjXjXjXjXjXjXjXjXjXjXjXjXjXjXjXjXjXjXjXjXjXjXjXjXjXjXjXjXjXjX",
"jXjXjXjXjXjXjXjXjXjXjXjXjXjXjXjXjXjXjXjXjXjXjXjXjXjXjXjXjXjXjXjXjXjXjXjXjXjXjXjXjXjXjXjXjXjXjXjXjXjXjXjXjXjXjXjXjXjXjXjXjXjXjXjX",
"jXjXjXjXjXjXjXjXjXjXjXjXjXjXjXjXjXjXjXjXjXjXjXjXjXjXjXjXjXjXjXjXjXjXjXjXjXjXjXjXjXjXjXjXjXjXjXjXjXjXjXjXjXjXjXjXjXjXjXjXjXjXjXjX",
"jXjXjXjXjXjXjXjXjXjXjXjXjXjXjXjXjXjXjXjXjXjXjXjXjXjXjXjXjXjXjXjXjXjXjXjXjXjXjXjXjXjXjXjXjXjXjXjXjXjXjXjXjXjXjXjXjXjXjXjXjXjXjXjX",
"jXjXjXjXjXjXjXjXjXjXjXjXjXjXjXjXjXjXjXjXjXjXjXjXjXjXjXjXjXjXjXjXjXjXjXjXjXjXjXjXjXjXjXjXjXjXjXjXjXjXjXjXjXjXjXjXjXjXjXjXjXjXjXjX",
"jXjXjXjXjXjXjXjXjXjXjXjXjXjXjXjXjXjXjXjXjXjXjXjXjXjXjXjXjXjXjXjXjXjXjXjXjXjXjXjXjXjXjXjXjXjXjXjXjXjXjXjXjXjXjXjXjXjXjXjXjXjXjXjX",
"jXjXjXjXjXjXjXjXjXjXjXjXjXjXjXjXjXjXjXjXjXjXjXjXjXjXjXjXjXjXjXjXjXjXjXjXjXjXjXjXjXjXjXjXjXjXjXjXjXjXjXjXjXjXjXjXjXjXjXjXjXjXjXjX",
"jXjXjXjXjXjXjXjXjXjXjXjXjXjXjXjXjXjXjXjXjXjXjXjXjXjXjXjXjXjXjXjXjXjXjXjXjXjXjXjXjXjXjXjXjXjXjXjXjXjXjXjXjXjXjXjXjXjXjXjXjXjXjXjX",
"jXjXjXjXjXjXjXjXjXjXjXjXjXjXjXjXjXjXjXjXjXjXjXjXjXjXjXjXjXjXjXjXjXjXjXjXjXjXjXjXjXjXjXjXjXjXjXjXjXjXjXjXjXjXjXjXjXjXjXjXjXjXjXjX",
"jXjXjXjXjXjXjXjXjXjXjXjXjXjXjXjXjXjXjXjXjXjXjXjXjXjXjXjXjXjXjXjXjXjXjXjXjXjXjXjXjXjXjXjXjXjXjXjXjXjXjXjXjXjXjXjXjXjXjXjXjXjXjXjX",
"jXjXjXjXjXjXjXjXjXjXjXjXjXjXjXjXjXjXjXjXjXjXjXjXjXjXjXjXjXjXjXjXjXjXjXjXjXjXjXjXjXjXjXjXjXjXjXjXjXjXjXjXjXjXjXjXjX2X<XjXjXjXjXjX",
"jXjXjXjXjXjXjXjXjXjXjXjXjXjXjXjXjXjXjXjXjXjXjXjXjXjXjXjXjXjXjXjXjXjXjXjXjXjXjXjXjXjXjXjXjXjXjXjXjXjXjXjXjXjXjXjXjXgXhXjXjXjXjXjX",
"jXgX7XjXjXjXjXjXjXjXjXjXjXjXjXjXjXjXjXjXjXjXjXjXjXjXjXjXjXjXjXjXjXjXjXjXjXjXjXjXjXjXjXjXjXjXjXjXjXjXjXjXjXjXjXjXjX7X4XjXjXjXjXjX",
"9.6X9X6XjXjXjXjXjXjXjXjXjXjXjXjXjXjXjXjXjXjXjXjXjXjXjXjXjXjXjXjXjXjXjXjXjXjXjXjXjXjXjXjXjXjXjXjXjXjXjXjXjXjXjXjXjX7XjXjXjXjXjXjX",
"jX%X7X9X#XjXjXjXjXjXjXjXjXjXjXjXjXjXjXjXjXjXjXjXjXjXjXjXjXjX` a a a f 9 #.jXjXjXjXjXjXjXjXjXjXjXjXjXjXjXjXjXjXjXjX@XjXjXjXjXjXjX",
"jXjX4X7XjXjXjXjXjXjXjXjXjXjXjXjXjXjXjXjXjXjXjXjXjXjXjX0 > i w j k i.a = ' { ..jXjXjXjXjXjXjXjXjXjXjXjXjXjXjXjXjXjXjXjXjXjXjXjXjX",
"jXjX6XjXjXjXjXjXjXjXjXjXjXjXjXjXjXjXjXjXjXjXjXjXjX9 9 3.oXOXl u u.u.[ g..X4 W @.jXjXjXjXjXjXjXjXjXjXjXjXjXjXjXjXjXjXjXjXjXjXjXjX",
"jXjX@XjXjXjXjXjXjXjXjXjXjXjXjXjXjXjXjXjXjXjXjXjXQ Q | {.XX1X] q.e.q.[ .X X .| | jXjXjXjXjXjXjXjXjXjXjXjXjXjXjXjXjXjXjXjXjXjXjXjX",
"jXjXjXjXjXjXjXjXjXjXjXjXjXjXjXjXjXjXjXjXjXjXjX9 5 {  .}.<.2.j w.q.q.k =.3.{.}.| ) jXjXjXjXjXjXjXjXjXjXjXjXjXjXjXjX<XjXjXjXjXjXjX",
"jXjXjXjXjXjXjXjXjXjXjXjXjXjXjXjXjXjXjXjXjXjX~ 3 &.9.=X=X4X&Xy u u y q.I.rX4X<X1.9 jXjXjXjXjXjXjXjXjXjXjXjXjXjXjXjXjXjXjXjXjXjXjX",
"jXjXjXjXjXjXjXjXjXjXjXjXjXjXjXjXjXjXjXjXjXjX..o.$.6.+XG.R.Q.f.w.l l p.eXuXG.=X1.{ jXjXjXjXjXjXjXjXjXjXjXjXjXjXjXjXjXjXjXjXjXjXjX",
"jXjXjXjXjXjXjXjXjXjXjXjXjXjXjXjXjXjXjXjXjX{ 8.S.0.F F C k.(.sXc.n H !.aX/.L 5.( ) jXjXjXjXjXjXjXjXjXjXjXjXjXjXjXjXjXjXjXjXjXjXjX",
"jXjXjXjXjXjXjXjXjXjXjXjXjXjXjXjXjXjXjXjXjX$ { Z N Y ;XR x H r.c.^.~.h.M h.Q.5.<.) ) jXjXjXjXjXjXjXjXjXjXjXjXjXjXjXjXjXjXjXjXjXjX",
"jXjXjXjXjXjXjXjXjXjXjXjXjXjXjXjXjXjXjXjXjX! &.o.L P pXB.r.r.v v.'.].M M B.aXF 0.3.! jXjXjXjXjXjXjXjXjXjXjXjXjXjXjXjXjXjXjXjXjXjX",
"jXjXjXjXjXjXjXjXjXjXjXjXjXjXjXjXjXjXjXjX` ~ 9.S.a.H ~.~.^.B.U z.'.'.H x.`.yXT S.oX! jXjXjXjXjXjXjXjXjXjXjXjXjXjXjXjXjXjXjXjXjXjX",
"jXjXjXjXjXjXjXjXjXjXjXjXjXjXjXjXjXjXjXjX7 > 8 C t.M.y.m.b.V c C t.E t N G T c O.O.7 jXjXjXjXjXjXjXjXjXjXjXjXjXjXjXjXjXjXjXjXjXjX",
"jXjXjXjXjXjXjXjXjXjXjXjXjXjXjXjXjXjXjXjXi -.S V r.^.v n.l.  . C t.E p X t J Y S N > jXjXjXjXjXjXjXjXjXjXjXjXjXjXjXjXjXjXjXjXjXjX",
"jXjXjXjXjXjXjXjXjXjXjXjXjXjXjXjXjXjXjX> K qX;Xh.h.N.M n.f.r r x.`.pXP e r U dXE   i %.jXjXjXjXjXjXjXjXjXjXjXjXjXjXjXjXjXjXjXjXjX",
"jXjXjXjXjXjXjXjXjXjXjXjXjXjXjXjXjXjXjXh K Q.G n.N.M n b.(.K.c./.yXaXK.P.s.K dXyX(.-Xo.jXjXjXjXjXjXjXjXjXjXjXjXjXjXjXjXjXjXjXjXjX",
"jXjXjXjXjXjXjXjXjXjXjXjXjXjXjXjXjXjXjX7 L k.S z.k.x V s.P.P.;Xb.J.W.W.,Xs.A L.W.tXtXN jXjXjXjXjXjXjXjXjXjXjXjXjXjXjXjXjXjXjXjXjX",
"jXjXjXjXjXjXjXjXjXjXjXjXjXjXjXjXjXjXjXd X o g.S . o X >.g.g.C.B   + ,.C.:.X ; o I Y.N jXjXjXjXjXjXjXjXjXjXjXjXjXjXjXjXjXjXjXjXjX",
"jXjXjXjXjXjXjXjXjXjXjXjXjXjXjXjXjXjXjX>.s.k.&XD.F.+XOX5.%.8.Z , % 6 Z 5.5.d S.F o F = jXjXjXjXjXjXjXjXjXjXjXjXjXjXjXjXjXjXjXjXjX",
"jXjXjXjXjXjXjXjXjXjXjXjXjX+.$.$.+.F I T./.T.G.&X-X>X5X$.@.|.5 , - = : %.+.6 :X-.z A 8 jXjXjXjXjXjXjXjXjXjXjXjXjXjXjXjXjXjXjXjXjX",
"jXjXjXjXjXjXjXjXjXjXjXjX:.5XrX5X:XE./.[.[.aXZ.D.+X+X+X+.X.7.q - o t h * * d OXO.-.-XN - jXjXjXjXjXjXjXjXjXjXjXjXjXjXjXjXjXjXjXjX",
"jXjXjXjXjXjXjXjXjXjXjXjXi o.A B N Y _.[.fXaXL 0.6.Z F O O Z - ;.W.L.g = = 7 o.; + Y -XO.> jXjXjXjXjXjXjXjXjXjXjXjXjXjXjXjXjXjXjX",
"jXjXjXjXjXjXjXjXjXjXjXA K -.U U b U W.(.Y.Y.Z ..:.Z @ S Y V t Z.yXiXN & - 6 % = z Y wXd.N O.jXjXjXjXjXjXjXjXjXjXjXjXjXjXjXjXjXjX",
"jXjXjXjXjXjXjXjXjXjXjXA.uXdXfXaXaXB.t o z O 1 < &.6.B K.sXW.t s.tXiXZ $ $ 3 < 3 -.-XH.k.E.:X8 1 ~ jXjXjXjXjXjXjXjXjXjXjXjXjXjXjX",
"jXjXjXjXjXjXjXjXjXjXjXL.dX`.).).'.yXN jX~ % W Q { o.l./.`./.p ..5.7.0 5 { } <.Q +.G.z.R.;X>X+X-X9.9 jXjXjXjXjXjXjXjXjXjXjXjXjXjX",
"jXjXjXjXjXjXjXjXjXjXjXV.J.z.v.v.m.L.jXjXjXQ jXjXjXf A.c.v.k.* 1 ( | 5 # Q  .<.{ z ,.;.C.-XF.F.G.6.2 jXjXjXjXjXjXjXjXjXjXjXjXjXjX",
"jXjXjXjXjXjXjXjXjXjXjXjXjXjXjXjXjXjXjXjXjX0 5 5 1 = ; p O - 6 4 < ! 9 3 4 Q W W : : 1 2 3 : : : 6 2 jXjXjXjXjXjXjXjXjXjXjXjXjXjX",
"jXjXjXjXjXjXjXjXjXjXjXjXjXjXjXjXjXjXjXjXjX{ &.jXjXjXjXf 0 / { / ] ! ~ ~ / ^ ^ } f f ] ] ` ' @.@.@.@.jXjXjXjXjXjXjXjXjXjXjXjXjXjX"
};
