/* XPM */
static char *xpm_[] = {
/* columns rows colors chars-per-pixel */
"64 64 236 2 ",
"   c #372907",
".  c #3B360D",
"X  c #2B2F13",
"o  c #2C2A1D",
"O  c #29271C",
"+  c #342D1B",
"@  c #392B15",
"#  c #33351C",
"$  c #3C341C",
"%  c #353415",
"&  c #2D2B16",
"*  c #2B2C24",
"=  c #2C2C2C",
"-  c #262A28",
";  c #342D23",
":  c #322B2A",
">  c #392C2B",
",  c #2B332A",
"<  c #3D3423",
"1  c #33322C",
"2  c #3B342B",
"3  c #3C3A2E",
"4  c #363725",
"5  c #2B2E33",
"6  c #232C3B",
"7  c #272D36",
"8  c #332D32",
"9  c #352E3B",
"0  c #253336",
"q  c #2B3333",
"w  c #24333A",
"e  c #2B323C",
"r  c #2B393A",
"t  c #343233",
"y  c #32333B",
"u  c #3B363B",
"i  c #3B3A3C",
"p  c #3A3835",
"a  c #49370F",
"s  c #443412",
"d  c #43371B",
"f  c #46310D",
"g  c #6F2B1C",
"h  c #451E23",
"j  c #791C2A",
"k  c #6D1928",
"l  c #4D222C",
"z  c #433828",
"x  c #472C33",
"c  c #443739",
"v  c #52352D",
"b  c #65272D",
"n  c #67293A",
"m  c #762C3A",
"M  c #782B26",
"N  c #39403D",
"B  c #5D540C",
"V  c #5B491B",
"C  c #5C5316",
"Z  c #4B460C",
"A  c #6B570A",
"S  c #634E1D",
"D  c #73441C",
"F  c #6B5917",
"G  c #6F570E",
"H  c #78681A",
"J  c #7F751E",
"K  c #4B432D",
"L  c #4F482D",
"P  c #48462B",
"I  c #57462A",
"U  c #44443C",
"Y  c #4A4B3C",
"T  c #484638",
"R  c #574A37",
"E  c #545436",
"W  c #5A5537",
"Q  c #5C5529",
"!  c #665B27",
"~  c #665B38",
"^  c #705C37",
"/  c #5F603E",
"(  c #74672C",
")  c #6E663B",
"_  c #75673A",
"`  c #7F7134",
"'  c #2B2E4B",
"]  c #273647",
"[  c #383A46",
"{  c #263957",
"}  c #363C54",
"|  c #443D47",
" . c #7D2A41",
".. c #6B3742",
"X. c #6F3142",
"o. c #3E4144",
"O. c #3F4867",
"+. c #39546D",
"@. c #37476C",
"#. c #484645",
"$. c #514C42",
"%. c #4B5344",
"&. c #575645",
"*. c #4C595A",
"=. c #585957",
"-. c #454150",
";. c #635644",
":. c #625A47",
">. c #645A59",
",. c #725B53",
"<. c #5F655A",
"1. c #686848",
"2. c #766849",
"3. c #686A5B",
"4. c #756D59",
"5. c #777758",
"6. c #77724A",
"7. c #424D79",
"8. c #42567C",
"9. c #55596F",
"0. c #596667",
"q. c #546677",
"w. c #696767",
"e. c #6D7169",
"r. c #777768",
"t. c #676671",
"y. c #687577",
"u. c #7B7B71",
"i. c #746373",
"p. c #801D2F",
"a. c #87293A",
"s. c #83302E",
"d. c #83651F",
"f. c #8A4923",
"g. c #83682B",
"h. c #88762A",
"j. c #837537",
"k. c #937D38",
"l. c #897030",
"z. c #862741",
"x. c #8B3243",
"c. c #874D4A",
"v. c #897B46",
"b. c #847A56",
"n. c #957F52",
"m. c #997E49",
"M. c #AD7858",
"N. c #887F79",
"B. c #8D7473",
"V. c #B17761",
"C. c #7F8271",
"Z. c #958233",
"A. c #8B814A",
"S. c #998548",
"D. c #8E8153",
"F. c #8B865E",
"G. c #9A8952",
"H. c #96885A",
"J. c #97935C",
"K. c #AB974B",
"L. c #A48A54",
"P. c #A99859",
"I. c #B39756",
"U. c #B38F53",
"Y. c #B9A55C",
"T. c #AEA059",
"R. c #89866B",
"E. c #948B6A",
"W. c #878976",
"Q. c #989476",
"!. c #8F8D71",
"~. c #A8956E",
"^. c #A69776",
"/. c #B29C6B",
"(. c #A7A468",
"). c #B7A567",
"_. c #ADA97B",
"`. c #BAA775",
"'. c #BEB477",
"]. c #C4955D",
"[. c #D0B85B",
"{. c #C5AB66",
"}. c #C9B168",
"|. c #D3BA66",
" X c #C9B677",
".X c #D5BA75",
"XX c #C7AE76",
"oX c #DCC56A",
"OX c #CEC373",
"+X c #DAC47A",
"@X c #DCC774",
"#X c #E3C578",
"$X c #E7D479",
"%X c #E9D374",
"&X c #F4E17B",
"*X c #465387",
"=X c #496385",
"-X c #5E7392",
";X c #667685",
":X c #7A7981",
">X c #9C9C81",
",X c #8D8F91",
"<X c #A89A82",
"1X c #A7A488",
"2X c #B5B389",
"3X c #A4A395",
"4X c #B4B493",
"5X c #B8B99D",
"6X c #B3AC82",
"7X c #8C96A1",
"8X c #939BB0",
"9X c #A496A4",
"0X c #A29FBA",
"qX c #9EA8AA",
"wX c #BBBEA4",
"eX c #B6BCA9",
"rX c #ACB9BB",
"tX c #AEB3AE",
"yX c #C6B982",
"uX c #D3B485",
"iX c #D8C688",
"pX c #D3CC93",
"aX c #E5C985",
"sX c #EAD88B",
"dX c #F1DC8D",
"fX c #E4D297",
"gX c #F3DA98",
"hX c #F1C79F",
"jX c #F8E48A",
"kX c #F7E297",
"lX c #C4C3AE",
"zX c #EBD8AB",
"xX c #E5DBB8",
"cX c #F6E5A3",
"vX c #E5CEC6",
"bX c None",
/* pixels */
"bXbXbXbXbXbXbXbXbXbXbXbXbXbXbXbXbXbXbXbXbXbXbXbXbXbXbXbXbXbXbXbXbXbXbXbXbXbXbXbXbXbXbXbXbXbXbXbXbXbXbXbXbXbXbXbXbXbXbXbXbXbXbXbX",
"bXbXbXbXbXbXbXbXbXbXbXbXbXbXbXbXbXbXbXbXbXbXbXbXbXbXbXbXbXbXbXbXbXbXbXbXbXbXbXbXbXbXbXbXbXbXbXbXbXbXbXbXbXbXbXbXbXbXbXbXbXbXbXbX",
"bXbXbXbXbXbXbXbXbXbXbXbXbXbXbXbXbXbXbXbXbXbXbXbXbXbXbXbXbXbXbXbXbXbXbXbXbXbXbXbXbXbXbXbXbXbXbXbXbXbXbXbXbXbXbXbXbXbXbXbXbXbXbXbX",
"bXbXbXbXbXbXbXbXbXbXbXbXbXbXbXbXbXbXbXbXbXbXbXbXbXbXbXbXbXbXbXbXbXbXbXbXbXbXbXbXbXbXbXbXbXbXbXbXbXbXbXbXbXbXbXbXbXbXbXbXbXbXbXbX",
"bXbXbXbXbXbXbXbXbXbXbXbXbXbXbXbXbXbXbXbXbXbXbXbXbXbXbXbXbXbXbXbXbXbXbXbXbXbXbXbXbXbXbXbXbXbXbXbXbXbXbXbXbXbXbXbXbXbXbXbXbXbXbXbX",
"bXbXbXbXbXbXbXbXbXbXbXbXbXbXbXbXbXbXbXbXbXbXbXbXbXbXbXbXbXbXbXbXbXbXbXbXbXbXbXbXbXbXbXbXbXbXbXbXbXbXbXbXbXbXbXbXbXbXbXbXbXbXbXbX",
"bXbXbXbXbXbXbXbXbXbXbXbXbXbXbXbXbXbXbXbXbXbXbXbXbXbXbXbXbXbXbXbXbXbXbXbXbXbXbXbXbXbXbXbXbXbXbXbXbXbXbXbXbXbXbXbXbXbXbXbXbXbXbXbX",
"bXbXbXbXbXbXbXbXbXbXbXbXbXbXbXbXbXbXbXbXbXbXbXbXbXbXbXbXbXbXbXbXbXbXbXbXbXbXbXbXbXbXbXbXbXbXbXbXbXbXbXbXbXbXbXbXbXbXbXbXbXbXbXbX",
"bXbXbXbXbXbXbXbXbXbXbXbXbXbXbXbXbXbXbXbXbXbXbXbXbXbXbXbXbXbXbXbXbXbXbXbXbXbXbXbXbXbXbXbXbXbXbXbXbXbXbXbXbXbXbXbXbXbXbXbXbXbXbXbX",
"bXbXbXbXbXbXbXbXbXbXbXbXbXbXbXbXbXbXbXbXbXbXbXbXbXbXbXbXbXbXbXbXbXbXbXbXbXbXbXbXbXbXbXbXbXbXbXbXbXbXbXbXbXbXbXbXbXbXbXbXbXbXbXbX",
"bXbXbXbXbXbXbXbXbXbXbXbXbXbXbXbXbXbXbXbXbXbXbXbXbXbXbXbXbXbXbXbXbXbXbXbXbXbXbXbXbXbXbXbXbXbXbXbXbXbXbXbXbXbXbXbXbXbXbXbXbXbXbXbX",
"bXbXbXbXbXbXbXbXbXbXbXbXbXbXbXbXbXbXbXbXbXbXbXbXbXbXbXbXbXbXbXbXbXbXbXbXbXbXbXbXbXbXbXbXbXbXbXbXbXbXbXbXbXbXbXbXbXbXbXbXbXbXbXbX",
"bXbXbXbXbXbXbXbXbXbXbXbXbXbXbXbXbXbXbXbXbXbXbXbXbXbXbXbXbXbXbXbXbXbXbXbXbXbXbXbXbXbXbXbXbXbXbXbXbXbXbXbXbXbXbXbXbXbXbXbXbXbXbXbX",
"bXbXbXbXbXbXbXbXbXbXbXbXbXbXbXbXbXbXbXbXbXbXbXbXbXbXbXbXbXbXbXbXbXbXbXbXbXbXbXbXbXbXbXbXbXbXbXbXbXbXbXbXbXbXbXbXbXbXbXbXbXbXbXbX",
"bXbXbXbXbXbXbXbXbXbXbXbXbXbXbXbXbXbXbXbXbXbXbXbXbXbXbXbXbXbXbXbXbXbXbXbXbXbXbXbXbXbXbXbXbXbXbXbXbXbXbXbXbXbXbXbXbXbXbXbXbXbXbXbX",
"bXbXbXbXbXbXbXbXbXbXbXbXbXbXbXbXbXbXbXbXbXbXbXbXbXbXbXbXbXbXbXbXbXbXbXbXbXbXbXbXbXbXbXbXbXbXbXbXbXbXbXbXbXbXbXbXbXbXbXbXbXbXbXbX",
"bXbXbXbXbXbXbXbXbXbXbXbXbXbXbXbXbXbXbXbXbXbXbXbXbXbXbXbXbXbXbXbXbXbXbXbXbXbXbXbXbXbXbXbXbXbXbXbXbXbXbXbXbXbXbXbXbXbXbXbXbXbXbXbX",
"bXbXbXbXbXbXbXbXbXbXbXbXbXbXbXbXbXbXbXbXbXbXbXbXbXbXbXbXbXbXbXbXbXbXbXbXbXbXbXbXbXbXbXbXbXbXbXbXbXbXbXbXbXbXbXbXbXbXbXbXbXbXbXbX",
"bXbXbXbXbXbXbXbXbXbXbXbXbXbXbXbXbXbXbXbXbXbXbXbXbXbXbXbXbXbXbXbXbXbXbXbXbXbXbXbXbXbXbXbXbXbXbXbXbXbXbXbXbXbXbXbXbXbXbXbXbXbXbXbX",
"bXbXbXbXbXbXbXbXbXbXbXbXbXbXbXbXbXbXbXbXbXbXbXbXbXbXbXbXbXbXbXbXbXbXbXbXbXbXbXbXbXbXbXbXbXbXbXbXbXbXbXbXbXbXbXbXbXbXbXbXbXbXbXbX",
"bXbXbXbXbXbXbXbXbXbXbXbXbXbXbXbXbXbXbXbXbXbXbXbXbXbXbXbXbXbXbXbXbXbXbXbXbXbXbXbXbXbXbXbXbXbXbXbXbXbXbXbXbXbXbXbXbXbXbXbXbXbXbXbX",
"bXbXbXbXbXbXbXbXbXbXbXbXbXbXbXbXbXbXbXbXbXbXbXbXbXbXbXbXbXbXbXbXbXbXbXbXbXbXbXbXbXbXbXbXbXbXbXbXbXbXbXbXbXbXbXbXbXbXbXbXbXbXbXbX",
"bXbXbXbXbXbXbXbXbXbXbXbXbXbXbXbXbXbXbXbXbXbXbXbXbXbXbXbXbXbXbXbXbXbXbXbXbXbXbXbXbXbXbXbXbXbXbXbXbXbXbXbXbXbXbXbXbXbXbXbXbXbXbXbX",
"bXbXbXbXbXbXbXbXbXbXbXbXbXbXbXbXbXbXbXbXbXbXbXbXbXbXbXbXbXbXbXbXbXbXbXbXbXbXbXbXbXbXbXbXbXbXbXbXbXbXbXbXbXbXbXbXbXbXbXbXbXbXbXbX",
"bXbXbXbXbXbXbXbXbXbXbXbXbXbXbXbXbXbXbXbXbXbXbXbXbXbXbXbXbXbXbXbXbXbXbXbXbXbXbXbXbXbXbXbXbXbXbXbXbXbXbXbXbXbXbXbXbXbXbXbXbXbXbXbX",
"bXbXbXbXbXbXbXbXbXbXbXbXbXbXbXbXbXbXbXbXbXbXbXbXbXbXbXbXbXbXbXbXbXbXbXbXbXbXbXbXbXbXbXbXbXbXbXbXbXbXbXbXbXbXbXbXbXbXbXbXbXbXbXbX",
"bXbXbXbXbXbXbXbXbXbXbXbXbXbXbXbXbXbXbXbXbXbXbXbXbXbXbXbXbXbXbXbXbXbXbXbXbXbXbXbXbXbXbXbXbXbXbXbXbXbXbXbXbXbXbXbXbXbXbXbXbXbXbXbX",
"bXbXbXbXbXbXbXbXbXbXbXbXbXbXbXbXbXbXbXbXbXbXbXbXbXbXbXbXbXbXbXbXbXbXbXbXbXbXbXbXbXbXbXbXbXbXbXbXbXbXbXbXbXbXbXbXbXbXbXbXbXbXbXbX",
"bXbXbXbXbXbXbXbXbXbXbXbXbXbXbXbXbXbXbXbXbXbXbXbXbXbXbXbXbXbXl bXbXbXbXbXbXbXbXbXbXbXbXbXbXbXbXbXbXbXbXbXbXbXbXbXbXbXbXbXbXbXbXbX",
"bXbXbXbXbXbXbXbXbXbXbXbXbXbXbXbXbXbXbXbXbXbXbXbXbXbXbXc x l n ..x bXbXbXbXbXbXbXbXbXbXbXbXbXbXbXbXbXbXbXbXbXbXbXbXbXbXbXbXbXbXbX",
"bXbXbXbXbXbXbXbXbXbXbXbXbXbXbXbXbXbXbXbXbXbXbXbXbX[ p v h b m  .v x c bXbXbXbXbXbXbXbXbXbXbXbXbXbXbXbXbXbXbXbXbXbXbXbXbXbXbXbXbX",
"bXbXbXbXbXbXbXbXbXbXbXbXbXbXbXbXbXbXbXbXbXbXbXbX] y.,X9X..m m x.X.B.9X-.e bXbXbXbXbXbXbXbXbXbXbXbXbXbXbXbXbXbXbXbXbXbXbXbXbXbXbX",
"bXbXbXbXbXbXbXbXbXbXbXbXbXbXbXbXbXbXbXbXbXbXbX' { -X8X9X..z.a.a. .B.0X@.{ bXbXbXbXbXbXbXbXbXbXbXbXbXbXbXbXbXbXbXbXbXbXbXbXbXbXbX",
"bXbXbXbXbXbXbXbXbXbXbXbXbXbXbXbXbXbXbXbXbXbX' { *X+.9.>.n z.a.p.z.c.9.=X*X+.bXbXbXbXbXbXbXbXbXbXbXbXbXbXbXbXbXbXbXbXbXbXbXbXbXbX",
"bXbXbXbXbXbXbXbXbXbXbXbXbXbXbXbXbXbXbXbXbXbX} O.=Xq.3.,.n z.a.j p.c.i.;X;Xq.' bXbXbXbXbXbXbXbXbXbXbXbXbXbXbXbXbXbXbXbXbXbXbXbXbX",
"bXbXbXbXbXbXbXbXbXbXbXbXbXbXbXbXbXbXbXbXbX0 y.7XrXrXwX^.b k j M s.V.vXeXrX7X' bXbXbXbXbXbXbXbXbXbXbXbXbXbXbXbXbXbXbXbXbXbXbXbXbX",
"bXbXbXbXbXbXbXbXbXbXbXbXbXbXbXbXbXbXbXbXi U 3.W.qX3X2X`.c.s.g g f.U.zX5XqX7X] bXbXbXbXbXbXbXbXbXbXbXbXbXbXbXbXbXbXbXbXbXbXbXbXbX",
"bXbXbXbXbXbXbXbXbXbXbXbXbXbXbXbXbXbXbX>.,XW.1.Q W W H.iXhXM.D D ].aXfX) <.0.e bXbXbXbXbXbXbXbXbXbXbXbXbXbXbXbXbXbXbXbXbXbXbXbXbX",
"bXbXbXbXbXbXbXbXbXbXbXbXbXbXbXbXbXbXbX=.r.e.W ) 5.Q ` ).uXL.g.l.U.{. XZ.1.*.[ bXbXbXbXbXbXbXbXbXbXbXbXbXbXbXbXbXbXbXbXbXbXbXbXbX",
"bXbXbXbXbXbXbXbXbXbXbXbXbXbXbXbXbXbXbXt , 1 L F.fX` B B F L.#XsXl.S H fXF.%.*.} bXbXbXbXbXbXbXbXbXbXbXbXbXbXbXbXbXbXbXbXbXbXbXbX",
"bXbXbXbXbXbXbXbXbXbXbXbXbXbXbXbXbXbXbXi #.%.P G.aXZ.J J A K.oX&Xh.F k.aXJ.E e.o.bXbXbXbXbXbXbXbXbXbXbXbXbXbXbXbXbXbXbXbXbXbXbXbX",
"bXbXbXbXbXbXbXbXbXbXbXbXbXbXbXbXbXbXq 0.,XC.) ` |.[.OXY.F G.#XgX` k.@XgXJ.1.eX=.| bXbXbXbXbXbXbXbXbXbXbXbXbXbXbXbXbXbXbXbXbXbXbX",
"bXbXbXbXbXbXbXbXbXbXbXbXbXbXbXbXbXbXt &.1.C.A.k.K.}.).v.C v.P./.! ) G.`.5.W >XY c bXbXbXbXbXbXbXbXbXbXbXbXbXbXbXbXbXbXbXbXbXbXbX",
"bXbXbXbXbXbXbXbXbXbXbXbXbXbXbXbXbXt > + X W P.P.G I.v.f . V S S $ $ f Q d $ E 4 U bXbXbXbXbXbXbXbXbXbXbXbXbXbXbXbXbXbXbXbXbXbXbX",
"bXbXbXbXbXbXbXbXbXbXbXbXbXbXbXbXbX; ^ ( ( C T.K.A {.v.  . ^ v.G.v O $ I ) 6.P 1 | bXbXbXbXbXbXbXbXbXbXbXbXbXbXbXbXbXbXbXbXbXbXbX",
"bXbXbXbXbXbXbXbXbXbXbXbXbXbXbXbXbXv `..X).F T.K.A Y.l.  f G.+XsX~ @ $ W ).yXd ; c bXbXbXbXbXbXbXbXbXbXbXbXbXbXbXbXbXbXbXbXbXbXbX",
"bXbXbXbXbXbXbXbXbXbXbXbXbXbXbXbXy 4 ).I.Z.J.Z.Z.G {.K.g.H K.oX&Xk.j.( B I.sXv.D.4.bXbXbXbXbXbXbXbXbXbXbXbXbXbXbXbXbXbXbXbXbXbXbX",
"bXbXbXbXbXbXbXbXbXbXbXbXbXbXbXbXo.P `.g.C zXA.C ! )..X.X.X|.@XjXiX}. X( Y.kXcXcX1Xz bXbXbXbXbXbXbXbXbXbXbXbXbXbXbXbXbXbXbXbXbXbX",
"bXbXbXbXbXbXbXbXbXbXbXbXbXbXbXbX[ 3 1.1.) R.W P K !.<X^.~.n.v.A.^.Q.Q.L 2.F.H.yX~.z bXbXbXbXbXbXbXbXbXbXbXbXbXbXbXbXbXbXbXbXbXbX",
"bXbXbXbXbXbXbXbXbXbXbXbXbXbXbXbXc + X ) 5.X X ; 3 r.N.N.N.R X # e.W.u.p O +   ~.B.z bXbXbXbXbXbXbXbXbXbXbXbXbXbXbXbXbXbXbXbXbXbX",
"bXbXbXbXbXbXbXbXbXbXbXbXbX[ i 3 R b.2.R.Q.5.r.C.r.&.w.u.=.| = 1 $.w.u.4 :.4.z ;.;.; bXbXbXbXbXbXbXbXbXbXbXbXbXbXbXbXbXbXbXbXbXbX",
"bXbXbXbXbXbXbXbXbXbX, O * o o . ( .XH.^.^.1X5XwXeXU =.e.e 6 y 5 5 $.u.* W.1Xz o < 1 =.bXbXbXbXbXbXbXbXbXbXbXbXbXbXbXbXbXbXbXbXbX",
"bXbXbXbXbXbXbXbXbX3.W.W.!.r.D.A.Y.+XiX_.Q.Q.>X4X1XN =.:X[ 7 - , * p $.4 r.Q.X 5.1.O [ bXbXbXbXbXbXbXbXbXbXbXbXbXbXbXbXbXbXbXbXbX",
"bXbXbXbXbXbXbXbX= e.wXwXlX4X_. XoXjXcX'.E.R.1X^.!.Y >.t.u : + @ 2 t = * 5.R.$ <X!.z * #.bXbXbXbXbXbXbXbXbXbXbXbXbXbXbXbXbXbXbXbX",
"bXbXbXbXbXbXbXbX2 T 1.:.:.;.~ `.jX&XdXL.~ B.,.$.E 4 i #.2 2.~./.c t 5 * #.R + R b.Q.T 2 i bXbXbXbXbXbXbXbXbXbXbXbXbXbXbXbXbXbXbX",
"bXbXbXbXbXbXbXbXz     s @ @ s  XgXjXcXv.v N.$.* X # # # s n.#XgX~ 8 : t * O z & 2.xXL + p bXbXbXbXbXbXbXbXbXbXbXbXbXbXbXbXbXbXbX",
"bXbXbXbXbXbXbXbXD.).|.).}.XXP.2._ ~ ;.K t | e.&.. (.(.v.a S.@XdX~ O 1 q 4 o % b.^.^.5.R.,Xc | bXbXbXbXbXbXbXbXbXbXbXbXbXbXbXbXbX",
"bXbXbXbXbXbXbX< P.@XjXjXkXaX}.S & : t 5 5 [ w.4.Z OXsX).a b.pXpX&.1 - e 0 , # E.6XF.F.6X3Xz 2 z bXbXbXbXbXbXbXbXbXbXbXbXbXbXbXbX",
"bXbXbXbXbXbXbX<  X$XoX[.oX%XdX! 4 N r w ] 6 [ :.P.oX|.Y.d $.0.y.N w ] @.7.7., C.Q.J._.4X5X>X<Xr.u bXbXbXbXbXbXbXbXbXbXbXbXbXbXbX",
"bXbXbXbXbXbXbXz iXOX}.{.}. XiXW 3 bX0 w ] ] e &.XX}.XX/.z 6 { +.e e { 7.*X+.r 3.R.!.4X4X5XeX4X!.t | bXbXbXbXbXbXbXbXbXbXbXbXbXbX",
"bXbXbXbXbXbXbXbXR I I I K R ;.bXbXbXq q w w = 3 L K R T 5 e ] ] q 7 w e ] ] , N | 3 T $.U Y Y #.5 | bXbXbXbXbXbXbXbXbXbXbXbXbXbX",
"bXbXbXbXbXbXbXbXbX> > x : : 8 bXbXbXbXy e y q : 1 * 9 9 [ 7 6 ] y q r 0 0 0 e 5 8 t 8 t , t * 5 [ | bXbXbXbXbXbXbXbXbXbXbXbXbXbX",
"bXbXbXbXbXbXbXbXbXbXbXbXbXbXbXbXbXbXbXbXbXbXbXbXbXbXbXbXbXbXbXbXbXbXbXbXbXbXbXbXbXbXbXbXbXbXbXbXbXbXbXbXbXbXbXbXbXbXbXbXbXbXbXbX",
"bXbXbXbXbXbXbXbXbXbXbXbXbXbXbXbXbXbXbXbXbXbXbXbXbXbXbXbXbXbXbXbXbXbXbXbXbXbXbXbXbXbXbXbXbXbXbXbXbXbXbXbXbXbXbXbXbXbXbXbXbXbXbXbX"
};
