/* XPM */
static char *xpm_[] = {
/* columns rows colors chars-per-pixel */
"64 64 226 2 ",
"   c #372A08",
".  c #393209",
"X  c #2C2C1E",
"o  c #292A17",
"O  c #332C1B",
"+  c #362A16",
"@  c #2D321C",
"#  c #2D3013",
"$  c #393214",
"%  c #3A351B",
"&  c #2C2B24",
"*  c #2C2D2C",
"=  c #272928",
"-  c #342C23",
";  c #342D2C",
":  c #38282A",
">  c #2C332B",
",  c #2B3424",
"<  c #3D3521",
"1  c #34322C",
"2  c #3A3927",
"3  c #2D2B33",
"4  c #252D3B",
"5  c #332D34",
"6  c #392B37",
"7  c #2E3235",
"8  c #233239",
"9  c #283639",
"0  c #343233",
"q  c #353A32",
"w  c #36353B",
"e  c #3B353D",
"r  c #353C3B",
"t  c #3B3835",
"y  c #453B03",
"u  c #443A0A",
"i  c #473816",
"p  c #523A18",
"a  c #6A201F",
"s  c #6E1B29",
"d  c #791A2E",
"f  c #443D2D",
"g  c #493D2B",
"h  c #443827",
"j  c #4B2834",
"k  c #453839",
"l  c #582E31",
"z  c #652A39",
"x  c #732E32",
"c  c #3E4530",
"v  c #4C4517",
"b  c #57491A",
"n  c #5E511C",
"m  c #6C570A",
"M  c #674717",
"N  c #6C5B13",
"B  c #695117",
"V  c #6A4F15",
"C  c #746019",
"Z  c #4A4229",
"A  c #474529",
"S  c #544926",
"D  c #59542B",
"F  c #434333",
"G  c #484836",
"H  c #534B34",
"J  c #574C39",
"K  c #595537",
"L  c #4E592F",
"P  c #664B24",
"I  c #665A27",
"U  c #745D28",
"Y  c #655938",
"T  c #756726",
"R  c #696439",
"E  c #786A38",
"W  c #7E7535",
"Q  c #2D2E40",
"!  c #293648",
"~  c #3D3B43",
"^  c #353447",
"/  c #2E3350",
"(  c #433A46",
")  c #573945",
"_  c #7A2E46",
"`  c #6A3957",
"'  c #31494E",
"]  c #344354",
"[  c #3A4466",
"{  c #3C4B72",
"}  c #444A45",
"|  c #4D4D4A",
" . c #484747",
".. c #544B45",
"X. c #4B5549",
"o. c #5C5241",
"O. c #5D5B43",
"+. c #55544A",
"@. c #575749",
"#. c #494953",
"$. c #554B59",
"%. c #5C5A56",
"&. c #4E5253",
"*. c #605E45",
"=. c #615854",
"-. c #68664A",
";. c #746A4B",
":. c #666758",
">. c #7C7453",
",. c #767758",
"<. c #757054",
"1. c #4C5764",
"2. c #52566B",
"3. c #4B5272",
"4. c #7E4D63",
"5. c #4D6066",
"6. c #686968",
"7. c #6E7269",
"8. c #78776A",
"9. c #656876",
"0. c #797976",
"q. c #821C34",
"w. c #842938",
"e. c #92313A",
"r. c #814B33",
"t. c #8A7739",
"y. c #937D34",
"u. c #812941",
"i. c #8D585E",
"p. c #A15D48",
"a. c #877A48",
"s. c #867A57",
"d. c #916D43",
"f. c #995F6D",
"g. c #857A68",
"h. c #837B75",
"j. c #AC6D64",
"k. c #888338",
"l. c #93813F",
"z. c #A38C3B",
"x. c #978748",
"c. c #898257",
"v. c #968858",
"b. c #8F8446",
"n. c #A58C43",
"m. c #A38C4B",
"M. c #A18748",
"N. c #AD9A54",
"B. c #A79357",
"V. c #B29D54",
"C. c #B49054",
"Z. c #AA924F",
"A. c #B5A156",
"S. c #8C826C",
"D. c #898869",
"F. c #938766",
"G. c #999B6C",
"H. c #898A77",
"J. c #9A8A74",
"K. c #999578",
"L. c #8F9160",
"P. c #A69767",
"I. c #B39F67",
"U. c #A4987A",
"Y. c #9DA073",
"T. c #A9A569",
"R. c #B9A76A",
"E. c #B8AA76",
"W. c #BCB27A",
"Q. c #B3AA72",
"!. c #C8AD5C",
"~. c #C48A62",
"^. c #C2AA69",
"/. c #CCB967",
"(. c #D7BA69",
"). c #C9B77B",
"_. c #D4BB78",
"`. c #C8A972",
"'. c #D8C467",
"]. c #D6C878",
"[. c #E2CD72",
"{. c #3A5286",
"}. c #445B87",
"|. c #5C739A",
" X c #4F6990",
".X c #6F7492",
"XX c #6D829F",
"oX c #6686AF",
"OX c #868A87",
"+X c #989786",
"@X c #8A938D",
"#X c #A89D8B",
"$X c #AB9B96",
"%X c #A7A488",
"&X c #B9AB86",
"*X c #BCB084",
"=X c #ABAB97",
"-X c #B3B49C",
";X c #AFB090",
":X c #9CA8A4",
">X c #BCBAA2",
",X c #BCBCAB",
"<X c #ACAAA4",
"1X c #C6B484",
"2X c #C9BB85",
"3X c #C5BC95",
"4X c #D2B980",
"5X c #C4BEA4",
"6X c #BFC1AB",
"7X c #D5C78A",
"8X c #C5C196",
"9X c #D8CB99",
"0X c #DED091",
"qX c #EDD888",
"wX c #F1DB8C",
"eX c #E4D797",
"rX c #ECCF8E",
"tX c #F9E88B",
"yX c #ECE294",
"uX c #F5E496",
"iX c #EFE188",
"pX c #C8C2AA",
"aX c #E6D7A9",
"sX c #FBDEA2",
"dX c #F1E2A8",
"fX c None",
/* pixels */
"fXfXfXfXfXfXfXfXfXfXfXfXfXfXfXfXfXfXfXfXfXfXfXfXfXfXfXfXfXfXfXfXfXfXfXfXfXfXfXfXfXfXfXfXfXfXfXfXfXfXfXfXfXfXfXfXfXfXfXfXfXfXfXfX",
"fXfXfXfXfXfXfXfXfXfXfXfXfXfXfXfXfXfXfXfXfXfXfXfXfXfXfXfXfXfXfXfXfXfXfXfXfXfXfXfXfXfXfXfXfXfXfXfXfXfXfXfXfXfXfXfXfXfXfXfXfXfXfXfX",
"fXfXfXfXfXfXfXfXfXfXfXfXfXfXfXfXfXfXfXfXfXfXfXfXfXfXfXfXfXfXfXfXfXfXfXfXfXfXfXfXfXfXfXfXfXfXfXfXfXfXfXfXfXfXfXfXfXfXfXfXfXfXfXfX",
"fXfXfXfXfXfXfXfXfXfXfXfXfXfXfXfXfXfXfXfXfXfXfXfXfXfXfXfXfXfXfXfXfXfXfXfXfXfXfXfXfXfXfXfXfXfXfXfXfXfXfXfXfXfXfXfXfXfXfXfXfXfXfXfX",
"fXfXfXfXfXfXfXfXfXfXfXfXfXfXfXfXfXfXfXfXfXfXfXfXfXfXfXfXfXfXfXfXfXfXfXfXfXfXfXfXfXfXfXfXfXfXfXfXfXfXfXfXfXfXfXfXfXfXfXfXfXfXfXfX",
"fXfXfXfXfXfXfXfXfXfXfXfXfXfXfXfXfXfXfXfXfXfXfXfXfXfXfXfXfXfXfXfXfXfXfXfXfXfXfXfXfXfXfXfXfXfXfXfXfXfXfXfXfXfXfXfXfXfXfXfXfXfXfXfX",
"fXfXfXfXfXfXfXfXfXfXfXfXfXfXfXfXfXfXfXfXfXfXfXfXfXfXfXfXfXfXfXfXfXfXfXfXfXfXfXfXfXfXfXfXfXfXfXfXfXfXfXfXfXfXfXfXfXfXfXfXfXfXfXfX",
"fXfXfXfXfXfXfXfXfXfXfXfXfXfXfXfXfXfXfXfXfXfXfXfXfXfXfXfXfXfXfXfXfXfXfXfXfXfXfXfXfXfXfXfXfXfXfXfXfXfXfXfXfXfXfXfXfXfXfXfXfXfXfXfX",
"fXfXfXfXfXfXfXfXfXfXfXfXfXfXfXfXfXfXfXfXfXfXfXfXfXfXfXfXfXfXfXfXfXfXfXfXfXfXfXfXfXfXfXfXfXfXfXfXfXfXfXfXfXfXfXfXfXfXfXfXfXfXfXfX",
"fXfXfXfXfXfXfXfXfXfXfXfXfXfXfXfXfXfXfXfXfXfXfXfXfXfXfXfXfXfXfXfXfXfXfXfXfXfXfXfXfXfXfXfXfXfXfXfXfXfXfXfXfXfXfXfXfXfXfXfXfXfXfXfX",
"fXfXfXfXfXfXfXfXfXfXfXfXfXfXfXfXfXfXfXfXfXfXfXfXfXfXfXfXfXfXfXfXfXfXfXfXfXfXfXfXfXfXfXfXfXfXfXfXfXfXfXfXfXfXfXfXfXfXfXfXfXfXfXfX",
"fXfXfXfXfXfXfXfXfXfXfXfXfXfXfXfXfXfXfXfXfXfXfXfXfXfXfXfXfXfXfXfXfXfXfXfXfXfXfXfXfXfXfXfXfXfXfXfXfXfXfXfXfXfXfXfXfXfXfXfXfXfXfXfX",
"fXfXfXfXfXfXfXfXfXfXfXfXfXfXfXfXfXfXfXfXfXfXfXfXfXfXfXfXfXfXfXfXfXfXfXfXfXfXfXfXfXfXfXfXfXfXfXfXfXfXfXfXfXfXfXfXfXfXfXfXfXfXfXfX",
"fXfXfXfXfXfXfXfXfXfXfXfXfXfXfXfXfXfXfXfXfXfXfXfXfXfXfXfXfXfXfXfXfXfXfXfXfXfXfXfXfXfXfXfXfXfXfXfXfXfXfXfXfXfXfXfXfXfXfXfXfXfXfXfX",
"fXfXfXfXfXfXfXfXfXfXfXfXfXfXfXfXfXfXfXfXfXfXfXfXfXfXfXfXfXfXfXfXfXfXfXfXfXfXfXfXfXfXfXfXfXfXfXfXfXfXfXfXfXfXfXfXfXfXfXfXfXfXfXfX",
"fXfXfXfXfXfXfXfXfXfXfXfXfXfXfXfXfXfXfXfXfXfXfXfXfXfXfXfXfXfXfXfXfXfXfXfXfXfXfXfXfXfXfXfXfXfXfXfXfXfXfXfXfXfXfXfXfXfXfXfXfXfXfXfX",
"fXfXfXfXfXfXfXfXfXfXfXfXfXfXfXfXfXfXfXfXfXfXfXfXfXfXfXfXfXfXfXfXfXfXfXfXfXfXfXfXfXfXfXfXfXfXfXfXfXfXfXfXfXfXfXfXfXfXfXfXfXfXfXfX",
"fXfXfXfXfXfXfXfXfXfXfXfXfXfXfXfXfXfXfXfXfXfXfXfXfXfXfXfXfXfXfXfXfXfXfXfXfXfXfXfXfXfXfXfXfXfXfXfXfXfXfXfXfXfXfXfXfXfXfXfXfXfXfXfX",
"fXfXfXfXfXfXfXfXfXfXfXfXfXfXfXfXfXfXfXfXfXfXfXfXfXfXfXfXfXfXfXfXfXfXfXfXfXfXfXfXfXfXfXfXfXfXfXfXfXfXfXfXfXfXfXfXfXfXfXfXfXfXfXfX",
"fXfXfXfXfXfXfXfXfXfXfXfXfXfXfXfXfXfXfXfXfXfXfXfXfXfXfXfXfXfXfXfXfXfXfXfXfXfXfXfXfXfXfXfXfXfXfXfXfXfXfXfXfXfXfXfXfXfXfXfXfXfXfXfX",
"fXfXfXfXfXfXfXfXfXfXfXfXfXfXfXfXfXfXfXfXfXfXfXfXfXfXfXfXfXfXfXfXfXfXfXfXfXfXfXfXfXfXfXfXfXfXfXfXfXfXfXfXfXfXfXfXfXfXfXfXfXfXfXfX",
"fXfXfXfXfXfXfXfXfXfXfXfXfXfXfXfXfXfXfXfXfXfXfXfXfXfXfXfXfXfXfXfXfXfXfXfXfXfXfXfXfXfXfXfXfXfXfXfXfXfXfXfXfXfXfXfXfXfXfXfXfXfXfXfX",
"fXfXfXfXfXfXfXfXfXfXfXfXfXfXfXfXfXfXfXfXfXfXfXfXfXfXfXfXfXfXfXfXfXfXfXfXfXfXfXfXfXfXfXfXfXfXfXfXfXfXfXfXfXfXfXfXfXfXfXfXfXfXfXfX",
"fXfXfXfXfXfXfXfXfXfXfXfXfXfXfXfXfXfXfXfXfXfXfXfXfXfXfXfXfXfXfXfXfXfXfXfXfXfXfXfXfXfXfXfXfXfXfXfXfXfXfXfXfXfXfXfXfXfXfXfXfXfXfXfX",
"fXfXfXfXfXfXfXfXfXfXfXfXfXfXfXfXfXfXfXfXfXfXfXfXfXfXfXfXfXfXfXfXfXfXfXfXfXfXfXfXfXfXfXfXfXfXfXfXfXfXfXfXfXfXfXfXfXfXfXfXfXfXfXfX",
"fXfXfXfXfXfXfXfXfXfXfXfXfXfXfXfXfXfXfXfXfXfXfXfXfXfXfXfXfXfXfXfXfXfXfXfXfXfXfXfXfXfXfXfXfXfXfXfXfXfXfXfXfXfXfXfXfXfXfXfXfXfXfXfX",
"fXfXfXfXfXfXfXfXfXfXfXfXfXfXfXfXfXfXfXfXfXfXfXfXfXfXfXfXfXfXfXfXfXfXfXfXfXfXfXfXfXfXfXfXfXfXfXfXfXfXfXfXfXfXfXfXfXfXfXfXfXfXfXfX",
"fXfXfXfXfXfXfXfXfXfXfXfXfXfXfXfXfXfXfXfXfXfXfXfXfXfXfXfXfXfXfXfXfXfXfXfXfXfXfXfXfXfXfXfXfXfXfXfXfXfXfXfXfXfXfXfXfXfXfXfXfXfXfXfX",
"fXfXfXfXfXfXfXfXfXfXfXfXfXfXfXfXfXfXfXfXfXfXfXfXfXfXfXfXfXfXfXfXfXfXfXfXfXfXfXfXfXfXfXfXfXfXfXfXfXfXfXfXfXfXfXfXfXfXfXfXfXfXfXfX",
"fXfXfXfXfXfXfXfXfXfXfXfXfXfXfXfXfXfXfXfXfXfXfXfXfXfXfXfXfXfXfXfXfXfX6 j fXfXfXfXfXfXfXfXfXfXfXfXfXfXfXfXfXfXfXfXfXfXfXfXfXfXfXfX",
"fXfXfXfXfXfXfXfXfXfXfXfXfXfXfXfXfXfXfXfXfXfXfXfXfXfXfXfXfXfXw 6 j j ) ) k 6 fXfXfXfXfXfXfXfXfXfXfXfXfXfXfXfXfXfXfXfXfXfXfXfXfXfX",
"fXfXfXfXfXfXfXfXfXfXfXfXfXfXfXfXfXfXfXfXfXfXfXfXfXfXfXfXfX~ e k j l z ) z j k  .fXfXfXfXfXfXfXfXfXfXfXfXfXfXfXfXfXfXfXfXfXfXfXfX",
"fXfXfXfXfXfXfXfXfXfXfXfXfXfXfXfXfXfXfXfXfXfXfXfXfXfXfXfX0 8.+X$Xz u.e.e.w.i.$X} 9 fXfXfXfXfXfXfXfXfXfXfXfXfXfXfXfXfXfXfXfXfXfXfX",
"fXfXfXfXfXfXfXfXfXfXfXfXfXfXfXfXfXfXfXfXfXfXfXfXfXfXfX8 ]  X@X$X_ q.u.e.w.f.<X&.! fXfXfXfXfXfXfXfXfXfXfXfXfXfXfXfXfXfXfXfXfXfXfX",
"fXfXfXfXfXfXfXfXfXfXfXfXfXfXfXfXfXfXfXfXfXfXfXfXfXfX! / {.}.}.2.z w.q.d u.` 2.}. X{.fXfXfXfXfXfXfXfXfXfXfXfXfXfXfXfXfXfXfXfXfXfX",
"fXfXfXfXfXfXfXfXfXfXfXfXfXfXfXfXfXfXfXfXfXfXfXfXfX! ] 3.|.|. X9.z w.w.d _ i..X.XoX|./ fXfXfXfXfXfXfXfXfXfXfXfXfXfXfXfXfXfXfXfXfX",
"fXfXfXfXfXfXfXfXfXfXfXfXfXfXfXfXfXfXfXfXfXfXfXfXfX* :.+X>X5X3X`.x a s d x j.aX5X,X:X^ fXfXfXfXfXfXfXfXfXfXfXfXfXfXfXfXfXfXfXfXfX",
"fXfXfXfXfXfXfXfXfXfXfXfXfXfXfXfXfXfXfXfXfXfXfXfXX.+.-.c.P.P.R.`.y.r.x s p.~.sXR.Y.+Xr fXfXfXfXfXfXfXfXfXfXfXfXfXfXfXfXfXfXfXfXfX",
"fXfXfXfXfXfXfXfXfXfXfXfXfXfXfXfXfXfXfXfXfXfXfX%.@XH.-.L o.H v.2XsXC.M P C.[.rXT @.1.! fXfXfXfXfXfXfXfXfXfXfXfXfXfXfXfXfXfXfXfXfX",
"fXfXfXfXfXfXfXfXfXfXfXfXfXfXfXfXfXfXfXfXfXfXfX| %.:.K :.J.-.;.v.N.n.x.B.M.z.V.P.8.1.' ' fXfXfXfXfXfXfXfXfXfXfXfXfXfXfXfXfXfXfXfX",
"fXfXfXfXfXfXfXfXfXfXfXfXfXfXfXfXfXfXfXfXfXfXfXQ Q 6 A c.eXW n b M n.'.wXl.V m 7XY.L 5./ fXfXfXfXfXfXfXfXfXfXfXfXfXfXfXfXfXfXfXfX",
"fXfXfXfXfXfXfXfXfXfXfXfXfXfXfXfXfXfXfXfXfXfXQ 1.9.=.I W ].Z.n.m.B n.'.tXd.U m.eXT.L XX1.^ fXfXfXfXfXfXfXfXfXfXfXfXfXfXfXfXfXfXfX",
"fXfXfXfXfXfXfXfXfXfXfXfXfXfXfXfXfXfXfXfXfXfXw %.H.K.C t.'././.!.T x.].qXa.d._.yXT.R 8X7.5 fXfXfXfXfXfXfXfXfXfXfXfXfXfXfXfXfXfXfX",
"fXfXfXfXfXfXfXfXfXfXfXfXfXfXfXfXfXfXfXfXfXe & F H R l.z.t.!.z.m v I t.t.P p U t.N v <.G k fXfXfXfXfXfXfXfXfXfXfXfXfXfXfXfXfXfXfX",
"fXfXfXfXfXfXfXfXfXfXfXfXfXfXfXfXfXfXfXfXfX- $ u i P Z.V.m N.y.  . v B B l + i S v i H h k fXfXfXfXfXfXfXfXfXfXfXfXfXfXfXfXfXfXfX",
"fXfXfXfXfXfXfXfXfXfXfXfXfXfXfXfXfXfXfXfXfXf F.P.v.U C.V.N A.x.. . W ^.4XY +   S c.&XZ < h fXfXfXfXfXfXfXfXfXfXfXfXfXfXfXfXfXfXfX",
"fXfXfXfXfXfXfXfXfXfXfXfXfXfXfXfXfXfXfXfXt % E.R.N.C N.m.B R.d.y y b.'.wXE v v b B.eXn i f fXfXfXfXfXfXfXfXfXfXfXfXfXfXfXfXfXfXfX",
"fXfXfXfXfXfXfXfXfXfXfXfXfXfXfXfXfXfXfXfXt c Q.k.N ].x.U U R.).R.R.R.].wX).T.T.I B.dX7X9X%Xf fXfXfXfXfXfXfXfXfXfXfXfXfXfXfXfXfXfX",
"fXfXfXfXfXfXfXfXfXfXfXfXfXfXfXfXfXfXfXfXe Z K.R I 8X>.b J P.1X1X*XW.E.4X2X1X*XY F.9X7XeX*X< fXfXfXfXfXfXfXfXfXfXfXfXfXfXfXfXfXfX",
"fXfXfXfXfXfXfXfXfXfXfXfXfXfXfXfXfXfXfXfXt o i Y ,.v # % % s.g.F.F.Y i S ;.F.g.Z + v u v.U.< fXfXfXfXfXfXfXfXfXfXfXfXfXfXfXfXfXfX",
"fXfXfXfXfXfXfXfXfXfXfXfXfXfXfXfXfXfXfXfX..K g <.S.H D H H :.0.H.7.G O X =.h.h.2 c S $ >.H.; $.fXfXfXfXfXfXfXfXfXfXfXfXfXfXfXfXfX",
"fXfXfXfXfXfXfXfXfXfXfXfXfXfX3 1 * & 1 O Y *XF.U.#X%X%X8X>X| | .Xc > > * 6 $.0.q :.%Xg O < ; $.fXfXfXfXfXfXfXfXfXfXfXfXfXfXfXfXfX",
"fXfXfXfXfXfXfXfXfXfXfXfXfX..@.O.O.o.K Y k.].`.U.U.#X&X;X=X .&.0.q 1 * 5 6 ( 6.1 7.=X2 H *.- ..fXfXfXfXfXfXfXfXfXfXfXfXfXfXfXfXfX",
"fXfXfXfXfXfXfXfXfXfXfXfX0 0.pXpX5X8XY.).].qXyX).J.g.#X#X+X} X.0.q & O 1 3 5 5 = :.H.f J.Y.# : ( fXfXfXfXfXfXfXfXfXfXfXfXfXfXfXfX",
"fXfXfXfXfXfXfXfXfXfXfXfX= =.h.g.S.8.>.W.qXtXiXT.E J.8.8.7.q c @.1 J E b.f 5 = 7 K :.2 O.a.,.G 1 #.fXfXfXfXfXfXfXfXfXfXfXfXfXfXfX",
"fXfXfXfXfXfXfXfXfXfXfXfX: :       . . 2XyXtXuXb.p g.$.& * O @ # % ,.].yX-.1 7 8 @ @ # # I aXY X 1 fXfXfXfXfXfXfXfXfXfXfXfXfXfXfX",
"fXfXfXfXfXfXfXfXfXfXfXfX;.s.B.x.m.m.d.s.v.v.c.L % %.=...i s.s.E i a./.yXR O 0 3 = 0 O R x.Q.g.:.8.F t fXfXfXfXfXfXfXfXfXfXfXfXfX",
"fXfXfXfXfXfXfXfXfXfXfXh E.eXtXtXuXrX).P + X @ , , > 6.,.u _.wX`.i c.7XuX;.X 3 Q ^ 3 & D.Q.G.D.+X-XG X = fXfXfXfXfXfXfXfXfXfXfXfX",
"fXfXfXfXfXfXfXfXfXfXfXp ).].'.'.'.[.rXY :  .8 8 9 c ' -.x.(.(.^.Z  .6.XX} = ! [ [ [ 0 ,.G.L.Y.-X-XH.H.0.~ fXfXfXfXfXfXfXfXfXfXfX",
"fXfXfXfXfXfXfXfXfXfXfXZ 8XeX/././.4X9XY fXfXfX! ! 8 = o.2XR._.R.c 9 ! 3.r 8 ! { }.{ w -.D.D.=XpX-XpX,X<Xe #.fXfXfXfXfXfXfXfXfXfX",
"fXfXfXfXfXfXfXfXfXfXfXfX*.K J Y K K -.fXfXfXfX^ ! Q 3 ( H D Y H > > 9 c > 9 8 ! ] / 5 k J F J %.@.+.+.| * ( fXfXfXfXfXfXfXfXfXfX",
"fXfXfXfXfXfXfXfXfXfXfXfXfX6 6 : 1 * fXfXfXfXfXfXQ Q fX5 o 2 X 0 7 7 > fX* w 9 fXfXfXfX5 ; 1 ; & > 1 0 3 ^ ~ fXfXfXfXfXfXfXfXfXfX",
"fXfXfXfXfXfXfXfXfXfXfXfXfXfXfXfXfXfXfXfXfXfXfXfXfXfXfXfXfXfXfXfXfXfXfXfXfXfXfXfXfXfXfXfXfXfXfXfXfXfXfXfXfXfXfXfXfXfXfXfXfXfXfXfX",
"fXfXfXfXfXfXfXfXfXfXfXfXfXfXfXfXfXfXfXfXfXfXfXfXfXfXfXfXfXfXfXfXfXfXfXfXfXfXfXfXfXfXfXfXfXfXfXfXfXfXfXfXfXfXfXfXfXfXfXfXfXfXfXfX"
};
