/* XPM */
static char *_74eb78630364dd19cc3e723ad8d06f7IFrqyDxumSETRnFz[] = {
/* columns rows colors chars-per-pixel */
"64 64 241 2 ",
"   c None",
".  c #2D2A1C",
"X  c #332B1B",
"o  c #372E18",
"O  c #36331B",
"+  c #352B0F",
"@  c #2D2C24",
"#  c #2D2D2C",
"$  c #242C2F",
"%  c #322C24",
"&  c #322D2C",
"*  c #3A2C26",
"=  c #2D312C",
"-  c #2C3127",
";  c #3B3324",
":  c #33322B",
">  c #3B342B",
",  c #383828",
"<  c #2D2E32",
"1  c #282F38",
"2  c #312D31",
"3  c #3C2E31",
"4  c #2B3133",
"5  c #26323D",
"6  c #29323C",
"7  c #263437",
"8  c #353335",
"9  c #3C3B33",
"0  c #393937",
"q  c #49351F",
"w  c #6D1D34",
"e  c #761B2F",
"r  c #473929",
"t  c #563E29",
"y  c #453936",
"u  c #4D2A2E",
"i  c #782435",
"p  c #71282F",
"a  c #6F251D",
"s  c #3D4135",
"d  c #574A1D",
"f  c #67571B",
"g  c #68561C",
"h  c #71621F",
"j  c #494329",
"k  c #5A4227",
"l  c #55412A",
"z  c #5A412B",
"x  c #554A26",
"c  c #5D532C",
"v  c #5D5224",
"b  c #44453C",
"n  c #494738",
"m  c #564D35",
"M  c #575335",
"N  c #49503F",
"B  c #675828",
"V  c #665B38",
"C  c #6B532A",
"Z  c #57643C",
"A  c #79652A",
"S  c #6C6438",
"D  c #776839",
"F  c #756A32",
"G  c #1B345B",
"H  c #1B3656",
"J  c #1F354E",
"K  c #253344",
"L  c #273648",
"P  c #333A46",
"I  c #273956",
"U  c #2D394F",
"Y  c #1A3767",
"T  c #253D64",
"R  c #5A3955",
"E  c #2D4159",
"W  c #39495A",
"Q  c #3D484A",
"!  c #2C4364",
"~  c #334E70",
"^  c #1E457F",
"/  c #484A46",
"(  c #595A4B",
")  c #575648",
"_  c #565A58",
"`  c #4F4F4A",
"'  c #665C46",
"]  c #744A5E",
"[  c #5B634B",
"{  c #68654B",
"}  c #766B48",
"|  c #7D7646",
" . c #696858",
".. c #746E58",
"X. c #77735A",
"o. c #6F745B",
"O. c #475765",
"+. c #515968",
"@. c #58646B",
"#. c #556C7A",
"$. c #676968",
"%. c #777766",
"&. c #677574",
"*. c #757976",
"=. c #687270",
"-. c #891E33",
";. c #892639",
":. c #98293A",
">. c #8E2E30",
",. c #A1283D",
"<. c #867436",
"1. c #8D722F",
"2. c #8B5630",
"3. c #9B2A41",
"4. c #8B504E",
"5. c #867949",
"6. c #8B7E51",
"7. c #827C5E",
"8. c #93704C",
"9. c #847C6A",
"0. c #B3674A",
"q. c #7E8171",
"w. c #9A853A",
"e. c #A0883A",
"r. c #9B8A4A",
"t. c #998A59",
"y. c #968B54",
"u. c #A8954A",
"i. c #A28A54",
"p. c #A79757",
"a. c #B49E56",
"s. c #B19649",
"d. c #B9A34A",
"f. c #BAA557",
"g. c #AEA057",
"h. c #83836B",
"j. c #89896B",
"k. c #948C68",
"l. c #999367",
"z. c #8B8B74",
"x. c #878876",
"c. c #959375",
"v. c #94937B",
"b. c #9B947C",
"n. c #9C9B7B",
"m. c #9A9976",
"M. c #908E74",
"N. c #A89C65",
"B. c #B49B6C",
"V. c #A29D7A",
"C. c #AC8C66",
"Z. c #B8A864",
"A. c #A4A17E",
"S. c #A9A57B",
"D. c #BAA771",
"F. c #B2AA6B",
"G. c #CA9252",
"H. c #D9B84D",
"J. c #C4AA58",
"K. c #CAB559",
"L. c #DCBC54",
"P. c #D7B957",
"I. c #CDAE4E",
"U. c #C2AB65",
"Y. c #C8B665",
"T. c #D4BB63",
"R. c #C8B776",
"E. c #D1AF71",
"W. c #E1B667",
"Q. c #D2AA5D",
"!. c #BEC468",
"~. c #DCC256",
"^. c #CAC157",
"/. c #E4C65A",
"(. c #DBC667",
"). c #CFC470",
"_. c #E8CA66",
"`. c #E4CA79",
"'. c #E9D579",
"]. c #F5DD7C",
"[. c #FBDD7B",
"{. c #F5D878",
"}. c #EBD36A",
"|. c #FCE27C",
" X c #FBE076",
".X c #355889",
"XX c #355894",
"oX c #2D548D",
"OX c #2C5CA2",
"+X c #3569B5",
"@X c #3C6294",
"#X c #597192",
"$X c #6E7B8E",
"%X c #4F6397",
"&X c #2D6AC0",
"*X c #817F88",
"=X c #758893",
"-X c #77D6B8",
";X c #5BF6D9",
":X c #6EF1CF",
">X c #989882",
",X c #8B899A",
"<X c #8B9B9B",
"1X c #868585",
"2X c #A59D86",
"3X c #A4A382",
"4X c #A9A584",
"5X c #ACA984",
"6X c #AAA889",
"7X c #B5AA8A",
"8X c #B5B28C",
"9X c #BAB48C",
"0X c #B5B493",
"qX c #BEBC93",
"wX c #BAB897",
"eX c #AFAF93",
"rX c #9B99AC",
"tX c #919DAA",
"yX c #8EA1A4",
"uX c #AAA9B4",
"iX c #A19F95",
"pX c #C2BB97",
"aX c #C3BE88",
"sX c #C3BFA8",
"dX c #BAC592",
"fX c #94D9A4",
"gX c #D9C687",
"hX c #CEC689",
"jX c #EAD789",
"kX c #F7DC87",
"lX c #EAD68E",
"zX c #FDE384",
"xX c #FCE48A",
"cX c #F5E388",
"vX c #F9E494",
"bX c #C2C0A0",
"nX c #C5EC9F",
"mX c #BDBCD4",
"MX c #B8B1CA",
"NX c #C1BBCE",
"BX c #85F3CC",
/* pixels */
"                                                                                                                                ",
"                                                                                                                                ",
"                                                                                                                                ",
"              #                                                                                                                 ",
"            M l.k.j                                                                                                             ",
"          * B jXgXl *                                                                                                           ",
"        V p.d.kX{.s.i.x                                                                                                         ",
"      @ c K./.[.{.L.Y.d @                                                 & & u                                                 ",
"      @ c T./.[.[.L.K.d #                                     # & < < & u w i ;.p 3 # @                                         ",
"      V D p.d.].{.s.u.D ' `                                 / b ` ) y u w i ;.:.;.u y ) (                                       ",
"  @ | cXR.o c jXgXx q hXlXV #                       2 & # : %.z.7XpX4.e ;.3.:.,.3.:.4.pX6X, @ = @                               ",
"  @ D xXR.O M lXgXj O ).kXV %                     K K L E ! #X#X=X,X] w ;.3.:.-.:.:.4.,X=X~ ~ ~ ~                               ",
"  @ 5.vXR.o c lXgXj r hXvXV @                   < 5 H Y XXOXOXOXOXXXR w -.:.;.e -.:.] .XOX&X+X+X+XI 1                           ",
"      X.6.Z.U.kXkXZ.N.5.}                       # 8 $.&.<XyX<X<X>Xb.4.e i i i e -.:.4.7XeXyXtXyX<X/ #                           ",
"        } lX].].].].jXc                     8 8 : j h.z.8XqXwXwXR.P.2.p i p w w i :.0.kXkXaXwXwXwX` @                           ",
"          m S T.K.B m                     N %.%.9.X.V V S { #.#.S.L.W.`.i.k z z 2.G.I.|.'.D  .#X#XE <                           ",
"          m S P.K.B )                   4 / *.*.*.%.c v D } +.~ M.J.T.`.u.h A F 1.d.I._.E.<.{ #.@X! P                           ",
"      @ S lX].|.[.].lXm @               4 K I I I P M h `.lXD m c B B B w.I.~.kXY.f B B A `.`.S ` ~ .XU 4                       ",
"      @ m F.F.8X8XF.N.j @               < P O.O.O.` M h (.}.w.<.1.<.A g w.P._.xXY.g B <.w.'.'.A M &.$XW $                       ",
"      & & & L .X~ K 4 - %               @ N x.z.z.h.v f J.H.H.H.H.P.1.d w.P._.xXT.f A K.L.[.kXA c S.sX_ @                       ",
"          = K ! ! K 4                 K K E +._ ..D r.w.w.w.I.H./.}.K.a.u.w.w.u.u.w.s._._.u.p.g.g.y.h.n #                       ",
"          < 5 H I 6 4               1 K G Y G P M A K.K.h f d.P.'.cXcXvXp.v v f <.Y.(.cX`.B f `.kX1.v , #                       ",
"          4 L oX~ L =               # ` *.*.=...c A K.K.h g d.Y.fXBX:XBXfXs.J.T.dXBX:XBXfXZ f K.(.1.v r &                       ",
"            I .XoXJ 6               & ) x.q.x.%.m B f.f.h g d.!.fX;X;X:XfXK._.cXnX:X;X;X-XZ f a.J.D M 9 &                       ",
"              L L J L 5 4           4 L I T T I I 0 V B B g d.H.K.!.!.^.K.H./.|.'.).!.^.F.B B B Z O..XU 7                       ",
"              - 4 T T 6 &           1 P W W W W W / ' [ x x p.U.f.J.Z.U.Y.E.gXlXgXU.U.U.N.c x V [ #.#XW 4                       ",
"              < L .XXXL =           2 ( z.z.z.z.x.z.z.h.9 : %.1X1X*X=X*XrXNXmXmXuX=X*X1X*.> > 9.z.eXwX( @                       ",
"              # 4 O.O.6 7           < Q @.@.@.@.@.@.@.@.L K O._ *.*X,XrX,X$X$X$X,XrX,X@._ 5 K +.@.=X=XO.!                       ",
"              % ; z z > 4           4 K J H G Y G G G G G I K < $.*XuXmX*.@ # @ _ mXrX8 1 J G G Y oXOXOXXX! 6                   ",
"              # ; l k ; <           # / =.&.1X*.5 5 5 5 5 6 < < $.*XuXmXuX,X,X,XrXmXrX8 # 4 5 K K #.$X=X<X_ #                   ",
"              # > l k ; <           @ ) x.m.wXb., , , > > , , > $.$XrXMXMXNXNXNXmXMXrX0 > : - & 3 %.j.5XwXo.@                   ",
"              # > l k ; <           2 8 9 b b V a.d.d.a.a.d.d.g.V 0 / / h.R.`.lX7Xn V a.t., @ @ # 0 s b `                       ",
"              # > l k ; <           < 9 j j j A T.~.~.~.~.~.~.(.D l , . D P./.zXD.X x T.K.B m M m > @ @ &                       ",
"              # > l k ; <           % D Y.I.I.P.kX[.[.[.[.[.[.[.P.K.S X 5.^./.zXU.X V jX[.{.jXjXjXc @ # #                       ",
"              # > l k ; <           % D P.I.w.g.kXkX[.|.|.|.[.[._.(.D % ' t.m.8Xz.@ M lX|.|.|.zXkXr.} } ..                      ",
"              # > l z ; #           % D T.r.+ V kX|.|.|.zXzXzXzXzXxX| @ 5 H ^ XX~ $ c kX|.|.zXzXzXzXzXzXvX6..                   ",
"              # > t z ; =               | } { { 6.6.y.y.6.y.6.5.).xXU.i.{ 5 I E _ l.t.6.6.6.6.6.6.6.6.Y.`.5.@                   ",
"                * z z ; :               # / v.%.% # = - - = & o D.cX].vXt.X < @ S vXR.O & & % % # # X r.Y.D %                   ",
"                  > r r t r &         o.j.c.0X4Xh.j.n.m.m.m.n.b.} V V V n # < # 9 V } m.b.n.m.m.v.n & n c                       ",
"                  # * t z > 2 P     r { A.5XqX8Xv.n.0XwXpXpXqXwX[ , 9 9 9 9 0 0 9 > ) wXpXpXqXqX0XN # 8 0                       ",
"                  & * t z > # 4 . | Z.p.k.c.5XM.s n z.v.3X3X3X3Xb.b.>Xv.c.c.c.v.v.v.m.A.4X4X3X3X3Xn # o.v. .                    ",
"                  4 : r t ; @ n v u.(.Y.B.V.n.q.% 9 z.c.3X5X5X5X5X5X5X5X5X6X6X5X5X5X5X5X5X5X4Xj.h.( N z.5X7.' '                 ",
"                  < # @ & # X r.P._. X[.kXhXk.%.& n n.6XwXpXpXpXqXqXpXqXqXqXqXpXqXqXqXqXqXdX0Xn ; j.3X9XaXgXcXt.X               ",
"                0 ) (  .......5.<.Y.|.[.zXR.{ $.    %.X.6X8X8X8X8X8X8X8X8X8X8X8X8X8X8X8X6Xh.%.9 O l.D.R.R.`.xXi.%               ",
"              < 9 h.c.0XbXdXbX{ . t.cX|.xXD.o       # > v.3XA.A.A.3X3X3XA.A.3XA.A.A.A.3Xv., @ & O p.^.H.H.}.xXy.@               ",
"              < 9 h.M.4X5X5X6X( . t.xXU.} ..        # 9 v.3X8X8X8X8X8X8X8X8X8X8X8X0X3X( (         ' A s.L.~.(.K.Z.k.            ",
"              # > h.z.2XA.3X3X( . t.lXl..             9 M.n.8XqXqXqXqXqXwXqXqXqXqXwX>X:           & X r.L.H.H._.vXD., 0         ",
"              # 9 h.v.eXwXqXwX' @ j M                   / n h.c.A.4X4X4X4X4X4X4Xz.n /             = O r.P.H.P.T.hX9XA.x.8       ",
"                9 %.%.>X3X3X6X( # #                     # : %.M.V.4X4X4X4X4X4X6Xh.# <             b r t.Y.K.K.D.8X0XbX>X:       ",
"                  8 8 > > 8 8 = =                       & : z.3X8XqXqXqXwXpXqXqXv.: 4           > %.z.M.k.k.k.k.j.n.pX>X:       ",
"                  # & > r & = 4                         2 : h.n.6X8X8X0X8X8X8X0Xz.: 4           :  . .h.z.z.j.c.n.5XpX>X:       ",
"                    % l z ; -                           4 = %.k.V.3XA.2X3XA.3X2X9.- 8               # o.M.z.z.3XpXpXbX>X:       ",
"                      y r r r y                       3 u u C.Z.8.4.B.gXB.8.C.gXB.p t y               ` ( ( ( { ...... .        ",
"                      2 * t k r 2                   3 u u a G.E.2.a G.xXG.>.0.kXE.>.i u 2               # # # # @ @ @           ",
"                      < & t k r 2               2 b o.%.9.k.`.{.I.s.Q./.I.G.T.xXU.q u & <                                       ",
"                      < & z C r &               & 9 z.v.3XS.hX`.L.H.L.P.L.L._.`.B.r 9 s y                                       ",
"                      = O r.U.B #               # b eXpXpXwX( j u.P._.].].zXa.j ) q.j.eX2X9                                     ",
"                      # O a.(.F @               b ) eX9XV.>Xb o u.P.}.kX[.xXN.. / j.c.9X5X) /                                   ",
"                      & ; R.vX} #           @ b z.M.3Xm.j & & O i.P.}.|.|.xXN.X / z.c.3X3X3X>Xs @                               ",
"                      2 ; Z.'.D &           5 P @.#.=X$X0 & & O u.L./._.{.xXN.X 0  . .=.&.=X$X~ E U                             ",
"                        O p.Y.S @       6 K H G G Y XXoXI # & O p.P.H.H._.vXN.X # < 5 J Y XXOXOXXXI 5                           ",
"                          S D           < 4 5 5 5 K I E         { V V V D } M @       K L U E E U 6 4                           ",
"                                        & # # & & & -             @ @ @ @ @ @ <       < & # # = # #                             ",
"                                                                                                                                "
};
