/* XPM */
static char *_7a8dd605dc847b3996b136ea7b9b2a0ylLMfW7ggViSZhto[] = {
/* columns rows colors chars-per-pixel */
"64 64 247 2 ",
"   c None",
".  c #2E2C1B",
"X  c #252D13",
"o  c #322C1C",
"O  c #332914",
"+  c #38341B",
"@  c #2A3514",
"#  c #2C2C24",
"$  c #2C2D2C",
"%  c #252B29",
"&  c #332D24",
"*  c #322E2B",
"=  c #3B2C2A",
"-  c #3C2B25",
";  c #2B312C",
":  c #293227",
">  c #343225",
",  c #3C3324",
"<  c #33332A",
"1  c #3C3A2C",
"2  c #393728",
"3  c #2C2D32",
"4  c #282E38",
"5  c #312E31",
"6  c #3C2F30",
"7  c #2B3232",
"8  c #25323C",
"9  c #2A333C",
"0  c #273335",
"q  c #3B3C33",
"w  c #343633",
"e  c #23262A",
"r  c #473B1B",
"t  c #422E0E",
"y  c #791B2B",
"u  c #711D31",
"i  c #442B2C",
"p  c #443827",
"a  c #573E2B",
"s  c #483A35",
"d  c #53262C",
"f  c #6A3738",
"g  c #6F2B31",
"h  c #722C1D",
"j  c #3C4338",
"k  c #584A1C",
"l  c #5D5319",
"z  c #4C421D",
"x  c #65551B",
"c  c #6B561B",
"v  c #4A4429",
"b  c #584529",
"n  c #595228",
"m  c #464738",
"M  c #544935",
"N  c #5A5639",
"B  c #4E5133",
"V  c #665627",
"C  c #675A37",
"Z  c #6D5625",
"A  c #766527",
"S  c #6A6438",
"D  c #786A39",
"F  c #726B31",
"G  c #70611A",
"H  c #1D364A",
"J  c #1C3555",
"K  c #1A3459",
"L  c #243344",
"P  c #23344A",
"I  c #283948",
"U  c #393E44",
"Y  c #273954",
"T  c #282F43",
"R  c #223C67",
"E  c #394447",
"W  c #394557",
"Q  c #25405D",
"!  c #2B4978",
"~  c #324D6E",
"^  c #474946",
"/  c #544E45",
"(  c #4D5249",
")  c #575748",
"_  c #484A56",
"`  c #4A5558",
"'  c #5A5A58",
"]  c #675A4D",
"[  c #5C614F",
"{  c #686649",
"}  c #746C48",
"|  c #79744C",
" . c #676757",
".. c #77735A",
"X. c #6E734E",
"o. c #495966",
"O. c #51546D",
"+. c #566874",
"@. c #4F656C",
"#. c #7D7C65",
"$. c #7E7D6A",
"%. c #767767",
"&. c #686B76",
"*. c #6B7476",
"=. c #6F726A",
"-. c #97283C",
";. c #8A2F38",
":. c #8E2135",
">. c #8F4732",
",. c #887739",
"<. c #927E39",
"1. c #84702E",
"2. c #B0743B",
"3. c #902F44",
"4. c #877846",
"5. c #847D5A",
"6. c #9D6949",
"7. c #AC7850",
"8. c #817E6A",
"9. c #857C7B",
"0. c #907270",
"q. c #7C8677",
"w. c #5F8358",
"e. c #9C893C",
"r. c #9A8645",
"t. c #8D8356",
"y. c #988B56",
"u. c #938E56",
"i. c #AB9449",
"p. c #A9995A",
"a. c #B69A56",
"s. c #AB934C",
"d. c #B8A34B",
"f. c #B8A357",
"g. c #AFA25D",
"h. c #89866B",
"j. c #908A68",
"k. c #9A9368",
"l. c #858573",
"z. c #8C8C73",
"x. c #88897A",
"c. c #918D74",
"v. c #999779",
"b. c #8D907B",
"n. c #AA9A63",
"m. c #A99C69",
"M. c #A39C7A",
"N. c #B29D6C",
"B. c #B9A967",
"V. c #A5A27D",
"C. c #ACA576",
"Z. c #B8AA76",
"A. c #AEAA6C",
"S. c #D8B94C",
"D. c #C4AB58",
"F. c #CBB85B",
"G. c #D5BA54",
"H. c #D6BA5A",
"J. c #D3AC57",
"K. c #C9BA66",
"L. c #D5B865",
"P. c #CAB979",
"I. c #D3BC77",
"U. c #C8AC6A",
"Y. c #E4BA64",
"T. c #E2BC5B",
"R. c #BAC273",
"E. c #DCC258",
"W. c #DAC04E",
"Q. c #E1C65B",
"!. c #DAC365",
"~. c #D6C379",
"^. c #C9C46F",
"/. c #E6C867",
"(. c #E6CD78",
"). c #ECD47A",
"_. c #FBDD7B",
"`. c #F5DB79",
"'. c #EED16D",
"]. c #FCE27D",
"[. c #FBE177",
"{. c #385A85",
"}. c #355A95",
"|. c #2E5387",
" X c #3765A1",
".X c #57728E",
"XX c #6D7B8C",
"oX c #617DA0",
"OX c #405A8D",
"+X c #837D87",
"@X c #76888C",
"#X c #6589A4",
"$X c #7DE7B5",
"%X c #71F2D3",
"&X c #8A8B83",
"*X c #9D9B82",
"=X c #959884",
"-X c #8D9295",
";X c #A59686",
":X c #A5A383",
">X c #AAA684",
",X c #ADAA85",
"<X c #ADAB8B",
"1X c #A7A68C",
"2X c #B1AE8B",
"3X c #B6AB85",
"4X c #B4B28D",
"5X c #B9B48C",
"6X c #B5AD95",
"7X c #BAB693",
"8X c #BCBA93",
"9X c #BCBA9A",
"0X c #B5B493",
"qX c #ACAC90",
"wX c #9897A6",
"eX c #8D90A8",
"rX c #B2B2B0",
"tX c #9EA7A4",
"yX c #C7BB88",
"uX c #C1BE9A",
"iX c #C4BC96",
"pX c #C9B28F",
"aX c #C3BCAE",
"sX c #E4B78B",
"dX c #B5C890",
"fX c #8BE4B0",
"gX c #A5D3A6",
"hX c #C3C299",
"jX c #DACC8F",
"kX c #E5CC85",
"lX c #E9D587",
"zX c #F8DC84",
"xX c #E7D897",
"cX c #F3D595",
"vX c #D1E598",
"bX c #FCE384",
"nX c #FCE38B",
"mX c #F5E18A",
"MX c #FCE595",
"NX c #ECE099",
"BX c #CBC4A3",
"VX c #CCECA6",
"CX c #F5E3A1",
"ZX c #B7B3C8",
"AX c #B3B4CB",
"SX c #C2BBC6",
"DX c #C0BDD5",
/* pixels */
"                                                                                                                                ",
"            @                                                                                                                   ",
"          N A.C.v                                                                                                               ",
"        + V cXkXk +                                                     . = = =                                                 ",
"      N p.f.zX`.f.p.B                                         ; ; 3 $ i d g g f i $ ;                                           ",
"    * n F.E._.`.H.K.b $                                   j q q m 1 i d u :.-.;.d i s m                                         ",
"    # V H.E._.`.W.F.b %                             0 7 ;  .l.*X6X0.d u 3.-.-.-.;.;.;X6X) %                                     ",
"    N D p.D.zX`.f.p.F N (                         I L I I +.@X-XtX0.u :.3.-.-.-.-.3.;XtXo.Y Y                                   ",
"# 5.NXB.+ V lXkXb r P.xX{ :                     8 P K |.}.}.}.}.OXO.u y 3.-.y y 3.3.O.}. X X~ 0                                 ",
"# 4.MXB.o n lXkXv , I.MXS #                   0 9 _ o..XoXoXoXXXXX] u u :.:.y y -.3.0.@X#X#X&.[ [                               ",
"@ 4.MXZ.O n lXkXr + ~.MXS #                   $ < $.b.6XuX9XdXyXI.7.h u y y u y -.;.sXCXhXuXaXBX$.$                             ",
"  X.u.y.y.p.zXlXs.y.u.u.                      ' ] X.} t.j.@X@XC.H.D.7.6.g f f f 6.2.(.bXg.j.-XeX+.3                             ",
"    @ S CXnX[.bXMXxXn X                   4 E x.z.C n l n o.~ z.L./.MXI.c V x G D.L.`.bX<.B @.OX! 9                             ",
"      [ | r.!.L.4.|                     I P Y ` ` / V p.Z...` { ,.<.e.e.i.i.D.f.<.,.r.r.a.Z...` E ;                             ",
"        + k F.f.r + /                 9 T I P P L M x ^.MXr.x l l n k 1.H.E.].lXA l x x L.MXr.n v >                             ",
"      { P.I.).).I.3XN                 3 s =.*.*.=.N x D./.D.d.d.f.<.l 1.H.H._.).A x s.d.'.nXr.k ..*X$.                          ",
"    # C xXlXxXxXlXjXB :               $ j q.q.h.t.A Z a.J.G.S.S.T.i.c 1.D.L.).~.A G D.E.(.lXs.Z t.8Xh.*                         ",
"    : 2 v ( +.+.m v < %               % L Y E N Z a.D.1.G i.G./.`.).(.D.G A A A f.D.'.`.e.A f.lXp.S M &                         ",
"        ; P |.! L 3                 m j E W ^ N Z D.F.A l i.G.~.VXVXVXR.A A A D A.dXVXVX| l d._.s.n v >                         ",
"        5 P K J 8 %               3 ( l.l.x.8.C V D.H.A l i.K.gX%X%X%XfXA.H.`.vXfX%X%X%Xw.n i.H.e.n v *                         ",
"        ; L R R 8 ;               3 ^ *.&.*.&.m B y.s.A x i.F.dXfX$XfXdXF.H._.vXfX$X$XfXX.n 4.p.| ` ^ 3                         ",
"        : I }.{.P 0               7 8 P P J J H 9 M V x V s.G.F.R.^.K.K.H.L.zXzX^.^.^.K.,.n n n ` {.~ 4                         ",
"            ~ ~ P L W U           3 U ` o.o.o.o.'  .} M v t.A.A.N.N.N.Z.pXiXxXjXZ.N.N.N.C v C } %.@X+.0                         ",
"            L H J J T 9           $ ( &X&X&X&Xb.x.x.x.^ $  .x.9.+X9.9.-XSXSXSXZX&X9.9.9.^ $  .b.1XaX&X$                         ",
"            0 L ! ! P 7           ; U o.o.o.o.o.o.o.o.Y P W ` &.+X-XtXeX&.&.&.&.wXwX' ` I L W O..X@X+.7                         ",
"            7 9 o.O.I $           3 8 P J J J J Y J J J P 8 % ' +XwXDXwX9 4 3 U rXZX_ 4 P H H K ! {.~ 0                         ",
"            3 5 ^ _ w 5           * ^ *.*.*.+.9 8 8 8 L 8 ; $ ' +XwXAXAXwXwXwXwXZXAX_ 3 8 8 8 8 o.XX@X=X&X                      ",
"            5 < M M 2 5           $ / x.l.l.#.v , , , 2 p p p ' XXeXAXrXaXSXSXSXZXrX/ p > ; 3 $ ) l.*XBX*X<                     ",
"            * , a b , ;           $ w q q 1 b n.f.d.f.f.f.f.g.} 1 U ^ { P.I.xXBX) M k.B.n # * $ w q  .hXv.>                     ",
"            * - a b , 7           $ 2 v v z V K.E.W.H.H.E.E.!.<.z 1 # V F.E.].kXp + B.!.D b b M s # ) 1X=X2                     ",
"            * = a b , 5           # C U.D.D.K.`._._._._._._._.!.D.4.. C L.E.].kXv + P.bX).lXlXxXt.o * 2 q                       ",
"            * = a b , 5           & S K.D.i.f.`.]._.].].].]._.'.!.r.. B k.m.8X6Xq , P.bX].].].bXf.C C C {                       ",
"            * = a b , 5           * S ^.p.t b lXnXbXbXbXbXnXnXbXnXp.O ; L Q {.~ 8 + ~.bXbXnXnXbXnXmXmXmXP.+                     ",
"            * = a b , 5             S t.| N ] k.n.n.n.n.n.m.n.~.bXU.4. .T Y ! ~ ..4.p.p.n.m.n.p.n.n.B.).B.+                     ",
"            * = a b , $               # v h.#.2 o o . . . & O y.MXMXCX3X> 5 3 m xXNXn . o & o O o o C I.p.+                     ",
"            * = a b , $             ( =.#.:X*X......#.#.#.#.8.5.t.t.t.} o * $ 2 | t.5.#.#.$.#.#.) # v D }                       ",
"              2 M b , *           o ) :X,XuX9X>X:X9XuXuXhXhXBX... # & o > 5 5 * & > 1XhXhXhXuXBX$.$ & & $                       ",
"                1 , p s s w 9 < { y.y.k.v.<XM.) ) c.v.>X,X,X<Xv.#.#.#.#.$.$.$.$.#.8.:X,X,X<X<XqX=.$ m 8.=.:                     ",
"                  - b b i * > + ,.!.B.y.k.:Xz.2 2 $.z.v.V.V.V.:X:X:X:X:X:X:X:X:X:X:XV.V.V.V.M.*X .> ) 1Xh.+ j                   ",
"                  = a b p & | a.L.`.).kXyXv.h.2 2 b.:X4X8X5X7X8X7X7X5X5X8X8X8X8X5X5X8X7X7X8X..m  .z.*X7XyXyXZ.m w               ",
"                  * s v 2 o r.!.'.].].bXjXh.%.2 q x.v.4X8X8X8X8X8X8X8X8X8X8X8X8X8X8X8X8X2XqX .# { C.Z.yX~.nXjXp ;               ",
"                ; : & * * o p.bX_.zX].bXP.r q     m p z.>XV.V.V.V.V.V.:X:X:X:X:X:X:X:X:X) 1 w & } P.F.H.!.].jX2 %               ",
"                m m B / / M y.P.(.bX).P.M.,         < l.:X>X>X>X,X,X>X>X>X>X>X>X>X>Xz.l.(       } p.d.S.H.'.~.S N               ",
"              q $.z.<X9X9X9XX.O y.MXB.+ 1           < l.:X0XiXiXiXiX8X8XiX8X8X8X9X7XB <           + A F.S.S.T.zXjXB %           ",
"            $ q l.z.<X4X4X0X{ . { C.5.2             < $.*X<X4X4X4X4X4X0X0X4X4X4X0X<Xm ;           o C L.S.S.G.lXjX| { ^         ",
"            $ q l.z.v.V.V.:X) # ; # 2               < %.z.v.V.V.V.V.V.V.V.V.V.V.:X*Xm 7         q . C L.G.G.K.yXyXiX9X/ %       ",
"            $ q l.c.,X4X2X6X .# %                     ' ) h.:X,X4X2X2X2X2X2X2X>X.. .(           ( ) | A.g.g.N.V.>X8X9XB #       ",
"              q l.c.0XdX9X9X .#                         # #.:X4XuX9XiXiXuXuXuX6X1 ;           w ' b.c.j.j.j.j.z.c.0X9X/ #       ",
"                ' / { { {  .                            $ ..v.M.<X,X,X,X,X,X2X:Xq 5             ( (  .x.z.h.c.<X2X8X9X/ #       ",
"                  * * & # $                             <  .z.v.V.V.V.V.V.V.V.v.q 7               $ ( x.l.h.c.0X8X8X0X( $       ",
"                  * s s 2 ;                             # %.*X<X8X7X7X7X7X7X7X<Xq 7                   m m m m / B B (           ",
"                  > v v p >                           6 - 5.C.3X6XpXiXiXpXpXyX3Xa i /                   ; $ 3 3 $ #             ",
"                      , a M 1 $                     = d d 7.L.6.h 7.cXI.>.6.cXkX>.f s 9                                         ",
"                      & a M p ;                   m s f f a.Y.2.h 7.zXJ.>.2.zXkX>.f i 7                                         ",
"                      & a b p $                 w %.l.;XM.jXbX/.J.J.G.G.J.Y.bXkXz - * $ E                                       ",
"                      & V 1.b #               ; w x.*X>X,XZ.B.J.S.W.Q.E.Q.L.U.m.N M ) ) ^                                       ",
"                      o y.I.D #               ; 2 1XdXhXdX{ O ,.G.Q.].].].I.r 1 l.z.0X9X) #                                     ",
"                      o n.(.D #               ) ) :X4Xj.#.^ & ,.G./.bX].].I., q 8.z.,X4X#. .(                                   ",
"                      o B.nX4.#           0 j q.b.*X1X^ # $ & ,.G./.bX].].I., q l.c.*X:X1XtX' 0                                 ",
"                      + p.(.1.&           H Y o.o..X.XE ; * o ,.H.S./.'.].P.r 2 ( ( ' @..XoX{.~ W                               ",
"                      + p.K.D #       8 H H J K K |.{.Y 0 7 o 4.K.L.J.!.mXyX, ; 0 8 H K ! }.}.}.~ T                             ",
"                          S           7 0 9 8 L L Y Y           N N V V S N < 7       L Y Y Y Y I 3                             ",
"                                        * * * * $ 3             % $ $ # . $ 3         5 5 3 $ ; $ 5                             ",
"                                                                                                                                "
};
