/* XPM */
static char *bebc7a26823e41bed4927900c46f7eccDpxzh2Uu1lbRMA01[] = {
/* columns rows colors chars-per-pixel */
"64 64 241 2 ",
"   c None",
".  c #342B1C",
"X  c #322E1C",
"o  c #2D2C25",
"O  c #2D2D2B",
"+  c #292928",
"@  c #332D25",
"#  c #312D2C",
"$  c #3A2C2A",
"%  c #2C312B",
"&  c #2C3126",
"*  c #34322B",
"=  c #393628",
"-  c #2D2E33",
";  c #2C2E3A",
":  c #312D31",
">  c #342D3A",
",  c #2C323B",
"<  c #2B3236",
"1  c #343433",
"2  c #3B3A34",
"3  c #373838",
"4  c #45391D",
"5  c #781A34",
"6  c #701B30",
"7  c #49292D",
"8  c #433C24",
"9  c #463929",
"0  c #4C3A2A",
"q  c #483728",
"w  c #482933",
"e  c #433A37",
"r  c #56342D",
"t  c #672A36",
"y  c #792733",
"u  c #6B2B2C",
"i  c #6E2419",
"p  c #3D4239",
"a  c #594A1A",
"s  c #63511B",
"d  c #4A4429",
"f  c #594928",
"g  c #5B5329",
"h  c #474638",
"j  c #544E33",
"k  c #584A34",
"l  c #595438",
"z  c #4B523A",
"x  c #624226",
"c  c #654528",
"v  c #6C5C23",
"b  c #655728",
"n  c #655B37",
"m  c #735B23",
"M  c #796728",
"N  c #6C653A",
"B  c #726639",
"V  c #786C35",
"C  c #1E344B",
"Z  c #1C3755",
"A  c #253243",
"S  c #23344C",
"D  c #293848",
"F  c #353C44",
"G  c #223552",
"H  c #243A54",
"J  c #293B57",
"K  c #2E344D",
"L  c #253E65",
"P  c #183768",
"I  c #4B3A4F",
"U  c #733E53",
"Y  c #2A415D",
"T  c #38495B",
"R  c #384141",
"E  c #2B4367",
"W  c #344D70",
"Q  c #4D4B43",
"!  c #474845",
"~  c #534B44",
"^  c #555344",
"/  c #5B5848",
"(  c #5C5A55",
")  c #495052",
"_  c #635A45",
"`  c #625E52",
"'  c #794651",
"]  c #5F6352",
"[  c #666148",
"{  c #766944",
"}  c #7A744B",
"|  c #646353",
" . c #666859",
".. c #78745A",
"X. c #766951",
"o. c #5A5D65",
"O. c #465868",
"+. c #586568",
"@. c #556875",
"#. c #7C7A64",
"$. c #797968",
"%. c #767B78",
"&. c #676C70",
"*. c #891F33",
"=. c #892639",
"-. c #9A283A",
";. c #93322D",
":. c #A42739",
">. c #86753B",
",. c #8A6F31",
"<. c #925734",
"1. c #912E41",
"2. c #905455",
"3. c #847645",
"4. c #847A5A",
"5. c #92764B",
"6. c #847E68",
"7. c #AA714C",
"8. c #7B8479",
"9. c #77806D",
"0. c #99883B",
"q. c #A48E3C",
"w. c #998848",
"e. c #978954",
"r. c #92885A",
"t. c #A28D47",
"y. c #A89548",
"u. c #B59D48",
"i. c #A28B5A",
"p. c #A79656",
"a. c #BE9354",
"s. c #B8A45A",
"d. c #BEA94E",
"f. c #8D8B6C",
"g. c #89866A",
"h. c #928A69",
"j. c #9C9364",
"k. c #8D8B73",
"l. c #888878",
"z. c #948974",
"x. c #95937B",
"c. c #9C9B7C",
"v. c #989677",
"b. c #8C9177",
"n. c #A69864",
"m. c #A69B79",
"M. c #B49367",
"N. c #9BAA79",
"B. c #B8A665",
"V. c #A5A27D",
"C. c #A8A479",
"Z. c #B1A779",
"A. c #B5AF72",
"S. c #C79155",
"D. c #C2A94B",
"F. c #D7BA4E",
"G. c #C6AB57",
"H. c #D4BC53",
"J. c #DBBB53",
"K. c #D4B85A",
"L. c #CFB254",
"P. c #C9B666",
"I. c #D5BB68",
"U. c #C8B879",
"Y. c #CFB973",
"T. c #DBAF6A",
"R. c #BAC66C",
"E. c #DBC259",
"W. c #E5C55A",
"Q. c #D9C46C",
"!. c #DCC77E",
"~. c #D9C778",
"^. c #CFC17B",
"/. c #E6CA63",
"(. c #E7CA69",
"). c #EDD46B",
"_. c #F0D26C",
"`. c #E5CB79",
"'. c #EAD37A",
"]. c #F8DB79",
"[. c #FDE27C",
"{. c #355789",
"}. c #325C98",
"|. c #2A558F",
" X c #376290",
".X c #3D67AF",
"XX c #435A88",
"oX c #5A748E",
"OX c #516C90",
"+X c #6F798E",
"@X c #817E8C",
"#X c #748795",
"$X c #7E8FA3",
"%X c #68F4D7",
"&X c #6EF2CD",
"*X c #6BC9A6",
"=X c #9B9A82",
"-X c #8C8898",
";X c #888E90",
":X c #A39D85",
">X c #9EA38F",
",X c #A4A283",
"<X c #ACA984",
"1X c #A9A686",
"2X c #B2AD89",
"3X c #B4B28C",
"4X c #B6B38A",
"5X c #ABAA97",
"6X c #BBB693",
"7X c #BDBB94",
"8X c #BAB99A",
"9X c #B2AC9C",
"0X c #8F99A6",
"qX c #93A3AB",
"wX c #B7BBA4",
"eX c #A2A5AE",
"rX c #A29FB7",
"tX c #C7BD87",
"yX c #C1BD96",
"uX c #C1BD99",
"iX c #C8BA91",
"pX c #C3BEAD",
"aX c #98CF8F",
"sX c #A9D18C",
"dX c #92DDA7",
"fX c #98EEB9",
"gX c #B0C0AF",
"hX c #D9C883",
"jX c #C5C19A",
"kX c #D9DA83",
"lX c #E8D589",
"zX c #F4DB83",
"xX c #EDD58F",
"cX c #FEE383",
"vX c #FAE58A",
"bX c #F3E68F",
"nX c #CFD3AE",
"mX c #BDBAD4",
"MX c #BCB9C7",
"NX c #C1BDD9",
"BX c #9AF0C0",
/* pixels */
"                                                                                                                                ",
"                  .                                                                                                             ",
"                j.U.4.                                                                                                          ",
"              4 B.vX5.4                                                                                                         ",
"          $ e.s.`.[.I.s.} +                                                                                                     ",
"          $ y.J._.cX/.H.V O                                               w w 7 7 7                                             ",
"          @ y.J._.cX/.J.>.+                                     - O O O $ w t y =.t $ # O                                       ",
"        X.{ w.t.(.cXP.w.3.{ _                               I Q Q ^ / e 7 6 y -.:.=.r r ( (                                     ",
"      = tXbXN . B.vX3.X r.vXn.O                       ; - ; < $.l.5XuX2.6 =.-.-.-.1.=.2.pX=X% ; -                               ",
"    % = Y.zX_ - B.vX4.+ r.cXp.O                       S S E E OXoX#X$X' 5 =.-.-.=.=.-.2.$X+XW W W W                             ",
"      = Y.bXn . B.vX3.. e.vXn.O                   O - C Z {.}.{.{.|.{.I 6 =.1.=.5 *.-.U {.}..X.X.X X,                           ",
"        r.} p.s.`.cXY.B.e.} ..                    # 1 +.&.;X0X0X0X=Xx.2.5 5 =.5 5 =.-.2.9XeX0XqXqX$X3 O                         ",
"          @ A.bXzX].zXbXh.+                   1 * * 2 #.k.4XyXwXwXY.K.<.6 u i 6 u y ;.7.vXxXyX8XgXeX2 O                         ",
"            l g u.W.w.l ^                   h $.$.$.$.N n N { @.OXn.F.I.!.7.x c r <.S.T.cXQ.B  .oXOX, O                         ",
"            h d y.E.,.d h                 O 2 %.8.8.9.n g v N O.{.j.G.Q.'.y.m M M 0.G.K.'.P.M [ OX{.H S                         ",
"          = Z.lXzX].zXxXr.O               O , J J J F j b Y.lX} z b v v m q.L.I.'.s.v v v >.lXY./ ) {.{.D                       ",
"          = j.U.tXjXtXU.} @               % , T T T ) l b I._.0.M M M v f 0.H./.cXG.c v M 0.].Q.b l oXOXF -                     ",
"          ; * $ W  XT = * O               O p 8.l.l.l.n s d.J.H.K.L.K.>.a 0.H./.vXB.a ,.L.E.[.~.s n 9X5Xh o                     ",
"            # : E |.J O                   K K +. ...} >.,.q.q.D.F.W./.s.w.t.q.u.G.y.,.y./.J.s.s.t.w.j.h.2 o                     ",
"              O S P A #               % < S Z Z D j v D.K.M s u.F.).bXbXbXp.a s a ,.P.~.bX^.g V zX`.n j = O                     ",
"              ; E |.J O               O 3 +.+.+.+.l v D.F.M b u.H.sXfXfXfXN.w.p.s.A.dXdXfXaXg M (.K.v g = -                     ",
"              - W }.E ; F             - ! ;Xl.l.l.l b G.L.M b u.H.dX%X%X&XsXH./.cXnX&X%X%X*Xg M L.d.n j * #                     ",
"                  J G S D ,           - , T T T T D p B ,.b b u.H.R.sXaXsXR.F.W.[.kXsXaXsXN.g b ,.B O.W , O                     ",
"                  O G P S #           % < H J H H H F j b g g p.P.P.P.P.P.P.I.hXbXhXP.P.P.p.g j g l XXXX, %                     ",
"                  # E }.E O           @ h %.%.8.%.%.%.g.g.h * ..z.k.k.h.h.5XpXpXpX9Xk.z.h...= d 6.f.5X>Xp O                     ",
"                  - T XXT O           O p %.%.%.%.%.%.%.%.F A o.%.+X@X-X-X0XrXrXeX0X-X;X&.+., F %.#XqXqXT S                     ",
"                  O e ~ e #           < , S H G G H H H J G S , 1 &.@XrXmX%.> 1 ; &.mX-X1 , S Z G L {. X}.{.D                   ",
"                  @ 0 x q #           O 3 O.O.+.O.H C S G S S , % &.@XrXmX-Xo.o.o.+XmX-X# < S C C H OXOXoXoXF %                 ",
"                  - 8 f q O           o h l.=XwX5X2 O o O O O O o  .;XrXmXmXMXMXMXmXNX-Xo o ; ; - 3 8.=XwXwX! O                 ",
"                  O 0 x 9 O           o 2 ( | $...3.>.>.>.>.>.>.>.| ( &.+X:XiXjXnX9X%.$.3.N * * # 1 / ` ....                    ",
"                  O 0 x 9 O           & & @ . . 4 G.H.H.H.H.H.H.K.b X o O 3.K.(.cXM.o n I.p.X @ @ # % O O o                     ",
"                  O 0 x 9 O           & d w.w.w.p.(._._._._._._._.s.w.l o >.J./.[.M.O [ ).(.B.B.B.j.= & : :                     ",
"                  O 0 x 9 O           O j K.H.P.P.].[.[.[.[.[.[.[./.K.B o 3.P.hXxXm.+ B cX].cXcXvX`.f = 9 9                     ",
"                  O 0 x 9 O           - k F.D.f b '.cX[.cXcXcXcXcX].].{ + 3 ! +.oXO.+ { vX[.[.[.[.zX!.^.Y.U.l                   ",
"                  O 0 x 9 #             _ s.p.9 k U.!.!.!.!.!.!.!.zXcXw.d 3 C E {.T d } hX~.hXhX!.hXhXhX].'.j O                 ",
"                  O 0 x 9 #               = d $.#.d 8 8 8 8 8 8 8 P.vXzXxX4.% , A ..xXB.4 8 8 = 8 9 8 f G.K.k O                 ",
"                    0 0 q = 2             ^ / x.b.^ Q ^ ^ ^ ^ ^ ^ j.P.U.U.X.o O O [ U.j.^ ^ ^ ^ ^ ~ * = r.e.h                   ",
"                      @ q f 9 : 3     o z =X1X7X7X1X,X8X7X7X7X7X7X_ . @ @ @ O O O # . _ wX8X8X7X7X<X2 O @ X                     ",
"                      * q r 0 # , F ~ B } v.c.3X<X....,X<X2X4X4X3X#.` ` ` | | ] ] ` ` #.3X3X3X3X3X,X3 1 ( ` !                   ",
"                      & q c 0 # & o n K.B.h.f.,Xx.2 * $.f.c.V.,X:X,X,X,X,X,X,X,X,X,X,XC.C.V.,X,X,Xx.1 = x.c.h @                 ",
"                      & $ 9 = O j 5.p.).(.Y.U.v.l.2 2 k.c.<X4X4X3X3X4X3X3X3X3X3X3X3X4X3X3X4X3X,X[ | ..#.<XA.n.n./               ",
"                    * * * * * % N P.Q.].[.cXlXh.$.2 2 b.,X6XyX7X7XuXuXuXyXyXyXyXyXyXyXuXuX7X7X=X= 2 m.Z.tXtXzXbXn :             ",
"                    ( $.l.c.c.=X4.g 3.[.[.cX~.j h     Q ^ x.<X<X<X<X<X<X<X<X<X<X<X<X<X<X<Xv.^ Q O h B.P.P.I.].zXn +             ",
"                  O  .k.,XyX7XuXf.o [ cX].lXU.2       o = k.,XV.V.V.V.V.V.V.V.V.V.V.C.m.x.$.# - - h s.G.F.H.'.zXB 8 Q           ",
"                  O  .f.v.,X,X,X#.O { vXY.f j           * k.1X3X7X7X7X7X7X7X7X7X7X7XyXv.e h         d f D.F.J.J.~.hX[ +         ",
"                  #  .k.c.1X1X<X#.O _ U.Z.=             2 $.k.1X3X6X6X6X6X6X6X6X8X2X:X6.#           O 8 D.F.F.F.'.lX} h !       ",
"                  #  .k.1XjXuXjXf.O * =                   = = ..f.c.V.V.V.V.V.V.,X#.= 2             O = d.F.K.K.U.tX7X8X| O     ",
"                    ]  .$.k.f.k. .O #                     # # #.v.V.<X<X<X<X<X<X2X#.O O             Q / p.s.B.B.Z.<X6XgX| O     ",
"                      % # @ @ # * :                       : * l.,X6XuXyXyXyXyXyXuXg.O O         - 2 g.l.h.h.f.h.f.f.2XjX| O     ",
"                      # = 9 9 : -                         : * $.x.1X2X2X2X2X2X2X3X$.O 1             / ( g.k.k.k.c.,X6XjX| O     ",
"                      @ 9 k q @ *                         : $ ..h.m.:Xm.C.m.m.m.C...$ e             O 1 6.k.k.z.3X8X7X8X .O     ",
"                          = q 0 9 :                     > w r i.B.5.' M.lXM.2.M.lXM.y t 2               Q Q Q z / / / `         ",
"                          # 9 f 0 :                   1 $ t u a.K.<.i S.vXS.;.S.vXT.1.t $ :               O O O O o o +         ",
"                          - q x 0 #                 2 ..6.z.M.`.].K.S.L.E.L.S.Q.cXB.7 $ % :                                     ",
"                          % d m f #               - 2 g.v.N.C.tX!.K.F.J.J.J.J.Q.!.j.2 p h h                                     ",
"                          O B K.5.@               O 2 1XyX8X7Xn 4 y.F.(.zX].].p.4 / 6.x.8X=X*                                   ",
"                          O V /.t.@               h ^ 1X6X=Xx.h @ t.F.).cX].[.i.o ^ k.c.8Xc.z Q                                 ",
"                          O 3.cXB.#           ; 3 l.b.:X:Xh % # @ t.F.).[.[.[.i.O ^ k.x.,X,X>Xl.1                               ",
"                          o 3.).p.O           A H o.@.+X+XR o # @ t.J.W./._.cXi.O p |  .&.&.#XoXE E                             ",
"                          O { I.e.o       ; , S G Z Z |.{.D & % O e.K.K.K.`.vXi.o % O ; G L }.}.}.{.,                           ",
"                              B {         ; ; A A A A Y E         { B N N { 3.l O       A S Y Y Y J ; :                         ",
"                              .             - - ; : % %             @ @ o @ . # ;       - % O O # : :                           ",
"                                                                                                                                ",
"                                                                                                                                "
};
