/* XPM */
static char *_8ebb68de11f4ed19b83eb5fff6f564bUQWVMhtZgctGo7Hp[] = {
/* columns rows colors chars-per-pixel */
"64 64 244 2 ",
"   c None",
".  c #2D2A1B",
"X  c #342D1B",
"o  c #28351A",
"O  c #3A3419",
"+  c #2C2D24",
"@  c #2D2D2C",
"#  c #252C28",
"$  c #332D24",
"%  c #312E2B",
"&  c #3C2E2D",
"*  c #2C3124",
"=  c #2B312C",
"-  c #263129",
";  c #333223",
":  c #3B3426",
">  c #33332B",
",  c #38382C",
"<  c #2C2E32",
"1  c #252F38",
"2  c #253333",
"3  c #2B3133",
"4  c #2A333C",
"5  c #25343B",
"6  c #343432",
"7  c #3C3D33",
"8  c #363937",
"9  c #342931",
"0  c #1E251D",
"q  c #4E3E1C",
"w  c #771B34",
"e  c #6D1C36",
"r  c #47282D",
"t  c #4B3929",
"y  c #443929",
"u  c #453C34",
"i  c #572E30",
"p  c #732930",
"a  c #702A1E",
"s  c #3E4432",
"d  c #3E411F",
"f  c #5E521D",
"g  c #554A1C",
"h  c #63541F",
"j  c #63471B",
"k  c #6E631F",
"l  c #4B4629",
"z  c #584928",
"x  c #5B5226",
"c  c #4A4B3B",
"v  c #464638",
"b  c #544836",
"n  c #595337",
"m  c #485029",
"M  c #634127",
"N  c #664A26",
"B  c #665828",
"V  c #665B36",
"C  c #79592C",
"Z  c #76662A",
"A  c #69633A",
"S  c #776938",
"D  c #7E763E",
"F  c #1D3649",
"G  c #1D3756",
"H  c #24344C",
"J  c #243746",
"K  c #263A55",
"L  c #393D44",
"P  c #193768",
"I  c #233C67",
"U  c #2C4357",
"Y  c #354558",
"T  c #3D484D",
"R  c #2A4567",
"E  c #36496B",
"W  c #2D4C74",
"Q  c #355478",
"!  c #484945",
"~  c #4E5143",
"^  c #555344",
"/  c #585648",
"(  c #575749",
")  c #474B52",
"_  c #565855",
"`  c #534F4E",
"'  c #655D47",
"]  c #714F49",
"[  c #596752",
"{  c #6A6548",
"}  c #746742",
"|  c #7B7349",
" . c #6B6D5B",
".. c #666655",
"X. c #75735A",
"o. c #716D52",
"O. c #48556B",
"+. c #586569",
"@. c #546773",
"#. c #797967",
"$. c #676971",
"%. c #6A7474",
"&. c #747C78",
"*. c #6D6C6A",
"=. c #745C72",
"-. c #851E39",
";. c #992A39",
":. c #8D3135",
">. c #A0263B",
",. c #887737",
"<. c #897331",
"1. c #AB703B",
"2. c #A34C31",
"3. c #953444",
"4. c #867B47",
"5. c #8F754D",
"6. c #AC7450",
"7. c #817C63",
"8. c #A36654",
"9. c #7C8578",
"0. c #9B8939",
"q. c #8D823F",
"w. c #A28A39",
"e. c #B1953F",
"r. c #8E8147",
"t. c #988447",
"y. c #8C8358",
"u. c #958B57",
"i. c #9C9257",
"p. c #A79546",
"a. c #B4984B",
"s. c #A89957",
"d. c #A98F4C",
"f. c #BAA859",
"g. c #B9A24A",
"h. c #84846C",
"j. c #8C886D",
"k. c #968B65",
"l. c #9C9565",
"z. c #8D8C73",
"x. c #898877",
"c. c #918875",
"v. c #9C9A7C",
"b. c #979578",
"n. c #8E9377",
"m. c #A89A67",
"M. c #A99570",
"N. c #B7A968",
"B. c #BCB869",
"V. c #A4A27D",
"C. c #AAA57A",
"Z. c #BAB479",
"A. c #B4A870",
"S. c #D9BA4C",
"D. c #C5A95A",
"F. c #CAB65A",
"G. c #D5BB53",
"H. c #D7B957",
"J. c #CDA951",
"K. c #E1BF5A",
"L. c #C5AE66",
"P. c #C8B567",
"I. c #D3BA67",
"U. c #C8B675",
"Y. c #D6B775",
"T. c #D0A45F",
"R. c #B3C66F",
"E. c #DDC359",
"W. c #DDC14E",
"Q. c #E4C55B",
"!. c #D9C465",
"~. c #D8C378",
"^. c #D2CC66",
"/. c #E8C966",
"(. c #F1D26C",
"). c #E6C977",
"_. c #F9DC7B",
"`. c #EACF78",
"'. c #FCE27D",
"]. c #F8E279",
"[. c #2D5486",
"{. c #355988",
"}. c #345B95",
"|. c #2A508F",
" X c #366193",
".X c #396DA9",
"XX c #53708F",
"oX c #6C7B91",
"OX c #466AAC",
"+X c #837D8B",
"@X c #708694",
"#X c #7188A1",
"$X c #6DF0D0",
"%X c #878884",
"&X c #9A9A84",
"*X c #8C899A",
"=X c #8D939A",
"-X c #A29E83",
";X c #9BA38F",
":X c #A4A282",
">X c #ADAA84",
",X c #A8A588",
"<X c #B2AE8A",
"1X c #B6AC88",
"2X c #B5B28B",
"3X c #B6B588",
"4X c #B5AD94",
"5X c #B5B393",
"6X c #BAB693",
"7X c #BCB993",
"8X c #BABA99",
"9X c #AAB396",
"0X c #9895A8",
"qX c #948DA2",
"wX c #93A6AB",
"eX c #B2B5AE",
"rX c #C7BA8A",
"tX c #C1BD96",
"yX c #C2BD99",
"uX c #C9B598",
"iX c #D3BC85",
"pX c #CABBB2",
"aX c #A7CD82",
"sX c #B6CA8F",
"dX c #90E7B3",
"fX c #A4D3A0",
"gX c #CFC78D",
"hX c #E8CE85",
"jX c #E8D686",
"kX c #F2DA82",
"lX c #F8DC85",
"zX c #F4DC93",
"xX c #EBD692",
"cX c #FDE383",
"vX c #FCE589",
"bX c #FAE693",
"nX c #EBE890",
"mX c #C3C3A7",
"MX c #E0DC9C",
"NX c #B8B8C9",
"BX c #BDBBD2",
"VX c #ACACC2",
"CX c #C6BBC6",
"ZX c #8BF1C5",
/* pixels */
"                                                                                                                                ",
"                                                                                                                                ",
"                O                                                                                                               ",
"              m.gXy.                                                                                                            ",
"            q N.bXt.g                                                                                                           ",
"        > s.f.).cX!.f.4.0                                                   % %                                                 ",
"        > p.G.(.'.Q.S.4.#                                                 r r r i                                               ",
"        X p.S.(.cX/.S.,.*                                     < @ @ % % r e w :.p r 9 @                                         ",
"      u.4.r.t.I.cXL.t.4.4.X.                              ! ~ ^ ' ../ r i w -.3.;.p i ....!                                     ",
"    , Y.vXA . N.cX4.. r.bXm.@                       3 2 < < ..%X,XmXc.e w ;.;.>.;.;.3.4X8X! 1 1 1                               ",
"  o O I.lXA + N.vX4.+ y.cXm.+ #                     J F R W XXXXoX#X=.w -.>.>.-.-.;.3.oX#X{.W Q [.R                             ",
"    m ~.zXA X f.cX4.. 5.bXm.*                     < H G Q }.}. X}.{.O.e w ;.;.w w ;.3.O.{.OXOX.X.XU @                           ",
"      | A s.L.`.cX~.U.u.A {                     3 @ +.%.=X0XwXwX;XV.5.e w w w w w ;.3.1X8XwXwXwXwX_ @                           ",
"        m Z.xXkX].kXxXm.o                   8 6 > , X.j.,X6X8XeXU.H.d.p p p e p p :.2.`.vXgX5XeXeX_ @                           ",
"          n z p.E.,.z {                   , *.#.#.#.{ V V A +.XXz.G.K.).T.N N M C T.T.lXkX,.V XXOXY -                           ",
"          n z a.Q.,.x /                 + 6 %.&.&.&.V x Z S [ Q #.D.F.).f.Z Z <.<.g.J.~.~.,.Z @. XR K                           ",
"        > Z.zXkX'.kXzXk.@               @ 3 H K G K c f N.lXu.c n B B B <.F.H.kX!.k h B k ^.kX| ~ Q {.U -                       ",
"        = u.N.3X9XZ.N.| #               @ > ) O.E O.n h f.(.a.<.<.<.Z x <.S.E._.).B B <.<.).cX,.z $.oXY -                       ",
"        = ; $ E }.Y ; ; #               # , 9.%Xx.x.V j e.G.G.G.H.G.p.g <.G.E.lX).B B D.H._.cX,.x v.mX .<                       ",
"          @ < I |.K <                 1 J J O.+.o.| 4.0.0.w.g.S.Q.(.I.a.p.0.0.s.s.0.w././.f.s.a.s.i.u.n <                       ",
"            = F P J @               # < H G H H c x g.E.,.j w.S.^.nXnXnXU.f f j Z B.^.nXjXZ N I.vXr.x y @                       ",
"            2 R |.K 2               # 8 +.$.$.$.n h a.H.,.f w.G.sXdXZXZXfXp.a.D.B.dXdXZXdX{ f f./.,.z y =                       ",
"            2 W }.R 1               # 7 9.x.%Xx.( x a.F.<.x 0.G.aX$X$X$XdXF.Q.'.nX$X$X$X$X[ x a.F.| n 7 =                       ",
"                K H F 5 @           = 4 Y Y Y Y J J V Z B N w.S.R.aXaXaXR.G.E.].].aXR.aXR.A x Z Z _ Q U <                       ",
"                3 K P H <           2 4 K U K U U U n B n z t.P.L.L.L.F.P.U.Y.zXxXP.L.B.N.V z n V @.XXY 2                       ",
"                = E }.R <           < 8 &.9.9.@Xx.9.j.j.~ % ..c.c.j.j.j.&XpXCXCXeXc.c.c.x.v : X.j.;XeX..-                       ",
"                * Y O.Y -           @ 8 %.%.%.%.#.X.X.#.v - ` $.oXoX*X*XqX0X0X0XqX*X*X*.$.L 4 +.%.=XwX@.K                       ",
"                * u b 7 #           * 3 H G K H 3 ; $ $ . + % % _ +X0XBXqX< < < ! VXVXT 3 H G G G Q }.}.}.R 1                   ",
"                < t a t #           = 3 J F H 4 ' S S S S } b @ _ +X0XBXwX$.$.$.oXNXVXL @ J H H F O.XXoX#XO.=                   ",
"                @ t M t #           = @ + * % : s.H.G.G.F.I.S . _ %X0XBXBXNXCXCXBXNXeXu $ @ @ * * *.x.9XmX#.+                   ",
"                % t M t #           @ 7 | q.4.t.E.(.(.(.(.(.L.s.X.` +.$.x.rXuXMXpX*.*.l.s.m.m.s.m.o./ .. . .                    ",
"                % t M t @           # l F.H.I.I._.'.lX'.'.'.'.vXi.$ % + B H.!.cX~.6 s hXvXvXcXcXvXS X X X                       ",
"                % t M t @           * l J.J.C B ~.'.'.'.'.cX'.'.).U.5.+ V H.E.].~., v hXcX'.]._.'.~.Z.P.U.l.                    ",
"                % t M t %             b f.f.l , Z.jXjXhXhXhXhXhX_.'.m.@ n N.B.MXrXy t iXhX`.jXhXhXjXjX_.'.u.*                   ",
"                % t M t %               z l #.#.n l l l l l l l d.vXm.+ 6 T E XX@.4 > l l l l l b l l d.!.4.#                   ",
"                @ t M t +               ~ ~ z.b.^ v c c c c c c y.~.y.* 3 H I [.W 4 = v ! ! c c c 6 + | s.| *                   ",
"                @ y z t +           + v b.-X6X7X:X-X5X8X6X6X8X8X7.O ; + @ @ 2 2 2 @ , ,X6X6X6X6X6X( % ; O l                     ",
"                    t t : :     8 c A } b.v.4X4Xj.#.:X<X2X3X2X6Xj.^ / ( / / / ^ / / ' >X2X2X2X2X5X( @ ! ( (                     ",
"                    $ y z t % = o m F.L.k.j.-X-Xv % X.z.v.V.V.V.V.:X:X:X:X:X:X:X:X:XV.V.-X-XV.:X,X( + *.,Xo.o                   ",
"                    % y M t % l D t././.U.Z.v.n.v % #.&X,X<X<X<X2X<X<X<X<X<X<X<X<X<X2X2X<X<X<X#.......b.2Xm.u.y.                ",
"                    @ y b u @ V H./.'.'.cXjXl.h.v > x.,X5XtXtXtX8XyXtXtXtXtXtXtXtXyX8XtXtXtX8X^ + 7.C.2XrXhXvXm.= -             ",
"                    * : y , @ V (.(.].].cXjX{ (     ..^ z.>X>X>X>X>X>X>X>X>X>X>X>X>X>X>X,Xo.( 8 % u.F.P.P.).cXm.+ =             ",
"                    6 > : : , { xXkX'._.kXgXc         + #.:XV.V.V.:XV.V.V.V.V.V.V.V.V.v.&Xs - = 6 u.F.H.H./.'.s.O y             ",
"                  ..#.z.:X:X,Xj.z D lX).V A           @ #.:X<X7X7X6X8X7X7X7X7X7X7X7X<X^ v       ` b g t.H.H.W.!.~.m.*           ",
"                @ ..z.:X7X7X8Xn.+ b ~.U.s             = #.:X<X7X8X7X7X7X7X7X7X7X7X7X<X7 =         8 + ,.H.H.S.!.bXZ.l s         ",
"                @ ..z.b.:X:X,Xh.< > d m               @  .n.v.:X:XV.V.V.V.V.V.V.V.,Xv.s =         8 @ r.G.G.G.I.rXtX5Xn.=       ",
"                @ ..z.v.>X>X>Xj.= 3                     ..*.z.:X:X>X>XC.>X>X>X>X:Xj.#.v           ! c y.D.D.f.A.1X5XsX&X>       ",
"                @ ..z.,XyXmXmXb.=                         * X.:X<XyXtXtXtXyXyXyX,X, ,         3 =  .z.j.k.k.k.j.j.v.sXv.>       ",
"                  _ ..X.h.7.h.#.                          @  .v.:X2X2X3X2X2X3X2X&X8 6         3 =  .z.x.c.#...#.z.v.sXv.>       ",
"                    @ % $ $ +                             = ..z.b.V.V.V.V.V.V.V.n.8 3           3  .z.x.c.( - ^ c.v.mX&X6       ",
"                    @ , u , =                             =  .v.,X2X3X2X4X5X3X2X&X, =             ~ ^ ^ ^ v + { 4Xb.{  .        ",
"                    = y b t $                           6 $ X.C.1XuXrXrXuXuXrXgX>Xy r _             = < < @ + ..8Xn.$           ",
"                        y y t u                       6 r i 8.P.t.] 6.jXY.2.6.xXiX:.p u 5                 8 = 7 ~ _             ",
"                        * y z t =                   8 7 i p 6.Q.1.a 6.cXT.:.1.lX).3.p & 2                   3 = =               ",
"                        = y j q =                 3  .h.c.b.iX'./.T.J.H.H.J.H.'.).i r % =                                       ",
"                        @ t C N %               3 3 #.b.V.>XZ.U.I.S.S.K.K.E.!.U.A.c v ~ ~ !                                     ",
"                        @ ' I.i.>               = % b.8XyXyXo.O <.S./._._.cXU.y v h.x.5X5Xv 2                                   ",
"                        + } /.s.;               ( ^ v.5Xb.j.( + ,.H./.'.'.cXU.: 7 j.n.<X<X.._ )                                 ",
"                        + | cXL.;             4 &.n.&X,X/ + = @ 4.G./.'.'.'.P.: 7 j.n.-X:X:X,X) 4                               ",
"                        + S (.s.;           K H O.O.XXoX) @ = < ,.S.W.Q.(.cXU.: 6 ( _ +.@.oXoXQ W U                             ",
"                        + A P.i.+         5 G G G G [.}.U < 3 < 4.F.G.F.!.zXU.; - = 2 G P [.}.}.}.U 3                           ",
"                            B S         3 3 4 4 4 4 K U           V V B V } n = 3     J H K K K U 4 3                           ",
"                                          @ < < @ @ 3 2           # @ + + + = 2         2 3 < < = = <                           ",
"                                                                                                                                "
};
