/* XPM */
static char *d770e601b74d438fecf611fe068df50aTZPhWfOhWwdi5MzV[] = {
/* columns rows colors chars-per-pixel */
"64 64 248 2 ",
"   c None",
".  c #2D2B1E",
"X  c #332D1B",
"o  c #3A351B",
"O  c #2D2B25",
"+  c #2D2D2C",
"@  c #282923",
"#  c #322D25",
"$  c #312D2B",
"%  c #392B27",
"&  c #2C312C",
"*  c #2B3227",
"=  c #333124",
"-  c #393423",
";  c #35322A",
":  c #3B342C",
">  c #3C3B2A",
",  c #2C2E32",
"<  c #292D3B",
"1  c #312C32",
"2  c #2B3133",
"3  c #28333B",
"4  c #383837",
"5  c #261E23",
"6  c #741C2B",
"7  c #741B33",
"8  c #472A2A",
"9  c #43362A",
"0  c #4B3A2A",
"q  c #453A27",
"w  c #513A27",
"e  c #503F29",
"r  c #552833",
"t  c #443A34",
"y  c #4D2C38",
"u  c #703030",
"i  c #473E1E",
"p  c #3A412A",
"a  c #55491B",
"s  c #65531A",
"d  c #4C452A",
"f  c #4C4728",
"g  c #594928",
"h  c #5C522B",
"j  c #5C5325",
"k  c #45443C",
"l  c #4C4A3D",
"z  c #464537",
"x  c #554937",
"c  c #595636",
"v  c #614226",
"b  c #69402B",
"n  c #685925",
"m  c #665A36",
"M  c #76562B",
"N  c #77652A",
"B  c #6D633A",
"V  c #746738",
"C  c #76692B",
"Z  c #75611E",
"A  c #1D354C",
"S  c #1D3456",
"D  c #253343",
"F  c #24334C",
"G  c #2A3647",
"H  c #343C45",
"J  c #243B53",
"K  c #273A56",
"L  c #323C5E",
"P  c #183968",
"I  c #2B3E63",
"U  c #6F3044",
"Y  c #473D41",
"T  c #3A4447",
"R  c #32455A",
"E  c #2B476A",
"W  c #394965",
"Q  c #324F78",
"!  c #194062",
"~  c #484845",
"^  c #514E44",
"/  c #545345",
"(  c #55534B",
")  c #5B5A4B",
"_  c #585748",
"`  c #565857",
"'  c #4B5451",
"]  c #645B43",
"[  c #635B4A",
"{  c #635F57",
"}  c #6B6548",
"|  c #756946",
" . c #7B7448",
".. c #656453",
"X. c #6A695A",
"o. c #726D58",
"O. c #787458",
"+. c #6E7258",
"@. c #445665",
"#. c #51576D",
"$. c #645F6C",
"%. c #526673",
"&. c #686766",
"*. c #6B716A",
"=. c #7C7B65",
"-. c #787767",
";. c #767978",
":. c #6B7170",
">. c #5B625E",
",. c #811E33",
"<. c #882637",
"1. c #98283A",
"2. c #8A3233",
"3. c #A1283E",
"4. c #874C30",
"5. c #877739",
"6. c #89712E",
"7. c #A95F3F",
"8. c #982942",
"9. c #8D504B",
"0. c #887A47",
"q. c #867C59",
"w. c #957E46",
"e. c #A86B50",
"r. c #837E67",
"t. c #907676",
"y. c #788279",
"u. c #779767",
"i. c #6B9162",
"p. c #96833B",
"a. c #A1903E",
"s. c #978549",
"d. c #948B57",
"f. c #938B53",
"g. c #A99549",
"h. c #B49A49",
"j. c #A89758",
"k. c #A6914E",
"l. c #B7A358",
"z. c #B8A350",
"x. c #89876A",
"c. c #958B69",
"v. c #8D8C72",
"b. c #89897A",
"n. c #948C75",
"m. c #9C9B7C",
"M. c #969477",
"N. c #95916F",
"B. c #A89967",
"V. c #A49C77",
"C. c #AF8674",
"Z. c #B8A864",
"A. c #A5A27E",
"S. c #ABA479",
"D. c #B8AB73",
"F. c #B7B278",
"G. c #C6AB4B",
"H. c #D8BA4C",
"J. c #C2AA58",
"K. c #D3AC57",
"L. c #CDB558",
"P. c #D5BA54",
"I. c #DBBB54",
"U. c #D4B959",
"Y. c #CCB14E",
"T. c #E0BF55",
"R. c #C2AC67",
"E. c #CBB563",
"W. c #C7B766",
"Q. c #D4BB64",
"!. c #C7B777",
"~. c #D4BA76",
"^. c #D0A670",
"/. c #E3B96D",
"(. c #CB9046",
"). c #B9C974",
"_. c #DCC25B",
"`. c #E3C55C",
"'. c #D6C377",
"]. c #D5C367",
"[. c #E9CC68",
"{. c #F2D56B",
"}. c #E4CC79",
"|. c #E9D27B",
" X c #F6DA79",
".X c #EDD169",
"XX c #FDE17E",
"oX c #FEE177",
"OX c #34578A",
"+X c #2F5B99",
"@X c #345B95",
"#X c #27528B",
"$X c #386396",
"%X c #3969A7",
"&X c #536D8B",
"*X c #7C7982",
"=X c #647E90",
"-X c #405483",
";X c #847E86",
":X c #7D9198",
">X c #7E94A9",
",X c #5B85AA",
"<X c #68F4D8",
"1X c #7BECC5",
"2X c #878983",
"3X c #9D9C85",
"4X c #868595",
"5X c #919390",
"6X c #A69F84",
"7X c #A4A283",
"8X c #ADA985",
"9X c #ADAB8A",
"0X c #A8A587",
"qX c #B3AF89",
"wX c #B5AF88",
"eX c #B4B28C",
"rX c #B7B48B",
"tX c #B9B692",
"yX c #BCBA93",
"uX c #B8B698",
"iX c #ADA995",
"pX c #8F98A6",
"aX c #A8A6BA",
"sX c #ACB5A9",
"dX c #9BA899",
"fX c #C5BC8C",
"gX c #C1BD97",
"hX c #C2BC9A",
"jX c #C6B496",
"kX c #C3BCA7",
"lX c #9BD28F",
"zX c #ACD387",
"xX c #A7EDB1",
"cX c #A1DDAD",
"vX c #D8C885",
"bX c #C3C19D",
"nX c #D3C78D",
"mX c #EBD787",
"MX c #F7DD85",
"NX c #E9D58C",
"BX c #FDE283",
"VX c #FBE48B",
"CX c #F8E687",
"ZX c #F9E393",
"AX c #EFE48D",
"SX c #CFC4B0",
"DX c #B8B4C8",
"FX c #BEBADA",
/* pixels */
"                                                                                                                                ",
"                                                                                                                                ",
"                9 q                                                                                                             ",
"              : B.!.|                                                                                                           ",
"            f a W.VX5.i                                                     % 8 8                                               ",
"          : j.J.|.BXQ.l.V O                                     + & * $ % r r u 2.r % $                                         ",
"          ; g.H.{. X`.P.B +                                   ~ k ^ ^ 8 8 7 7 1.1.u 8 x ( ~                                     ",
"          # h.H.{.XX`.I.V @                           & + , 4 r.b.uXuXU 7 1.1.1.3.8.2.C.kX&.<                                   ",
"        d. .w.s.'.BXl.w.0. .}                       G 3 G I E &X=X:X4XU 6 1.1.1.<.1.1.t.pX%.E R                                 ",
"      t vXZXm X R.XXV . B.ZXq.+                   , < A P @X+X+XOXOXOXU 7 8.8.,.6 1.8.#.OX$X%XE O                               ",
"      : ~.MXc O R.BX| @ B.VXq.+                   O 4 >.%.:X>X:X:X2Xv.u 7 <.<.7 7 1.1.t.dXpX>X:Xr.X.                            ",
"      > '.MXm X R.BXV X j.VXd.+                   $ k b.M.yXhXuXuXQ.K.u 6 6 6 6 6 2.2.^.ZXnXjXkXkX;.+                           ",
"         .B B.!.|.BX'.D.0.}                     ~ -.o.} B  .+.=X=XR.U.^.^.4.u u u e.(.[.VXl.| ;.,X@.+                           ",
"          % fXNX X XmXNXx.5                   < ~ b.=.j n n c Q %.Z.L.|.mX5.n n n h.L.[.mXk.n #.%XW +                           ",
"            x g h._.V g                   & 3 D J L T h N }.~.[ / M N C C h.G.].}.p.M N N l.}.c.( k +                           ",
"            x j h._.5.x                   + 3 R W R T j C |.[.6.N N C n n z.I. XBX5.j n Z J.VXg.j x l ^                         ",
"          - F.mXMXBXMXAXq.O               , ~ 2Xb.b.=.j N L.I.Y.Y.Y.J.N s z.I. XBX5.a a.Y.[.VXg.g f.yXx.+                       ",
"          ; c.D.eXuXF.Z.] +               + T :.*.O.0.6.5.g.h.H.H.`._.s.w.g.h.J.W.p.6.G.`.Q.E.g.p.d.V.o.+                       ",
"          1 # ; Q @XH = & 2               + 3 A H h C L.J.n M Y.I. XAXAXmXC s s s g.E.|.CXk.a j.VXl.j d $                       ",
"            & 2 E #XG $                 ~ ) ` >.` h C H.G.n n Y.E.xXxXxXxXf.p.k.j.lXcXxXxXu.g k..Xg.j f #                       ",
"              2 S P D $               , ( 2Xb.2X=.c V L.G.n n Y.W.1X<X<X1X).I. XCXxX<X<X<Xi.j s.U.s.c z $                       ",
"              1 E #XK ,               & H @.@.@.R T l 5.6.j Z Y.U.zXlXlXlX].P.{.XXzXlXlXlXi.s C 5.} @.R <                       ",
"              < Q @XK < H             & 3 K K J J J H c j h n J.E.W.W.E.W.E.Q.mXMX].W.L.W.0.h h h ' $XW ,                       ",
"                J J F F 3 1           + ~ ;.;.;.;.;.;.r.O.: z x.n.n.n.n.n.uXkXkXSX6Xc.n.N.] ; ] r.M.sX;.1                       ",
"                  2 S P G ,           + ~ y.y.y.y.y.;.y.:.G 3 :.;.*X;X4X4XaXaXaXaXpX4X*X;.' < ` y.5XsX;.+                       ",
"                  , Q +XR &           & 3 K K K K K K J K K F H H *X4XaXDX` 4 4 4 pXDX&.4 G S K K Q &XW +                       ",
"                  & W -XH +           & 3 W W W W S A A A F F 2 4 ;.4XDXDX:.' ` ` pXFX$., G F F F E &X#./ )                     ",
"                  = t l 4 $           O / b.b.b.*., + & + , , O ; ;.4XDXFXDXDXDXDXFXFX$.O + 2 2 , ` 2X3XhXn.&                   ",
"                  + w v q +           $ k X.....} V V V V V V V | { $.*X2XuXhXSXSX5X;XO.V f + & + ~ ..x.hXv.+                   ",
"                  + w v q +           1 # . # . h L.U.U.U.U.U.U.J.q # + = j.U.|.ZX} @ f.Q.V . O O O O X.bXM.$                   ",
"                  $ w v 9 +           $ x s.w.0.g.[..X.X.X.X.X.X[.s.0.9 = h.I.{.MX| @ j..XR.j.j.B.| + k o.                      ",
"                  $ w v 9 +           O B U.P.E.].XXXXXXXXXXXXXX X_.L.x ; j.E.NXZX} @ Z.BXVXVXVXVXj.X = -                       ",
"                  $ w v 9 +           + B I.h.h 5.MXXXXXXXXXXXXXXX{.[.x 2 ~ ' :.=XT O l.BXBXBXBXBX}.W.!.!.B.                    ",
"                  $ w v 9 +             | L.f.; m vX|.|.|.|.|.|.|.MX Xm p D S Q OXT f B.NXmX|.mXmXmXNXmXXXZ.$ <                 ",
"                  $ w v 9 +               a c =.+.d d d d d d d h }.XX|.vX/ < G G V.vX0.d d f f f d d 0._.s.# +                 ",
"                  $ w v 9 +               l [ m.x.z k l l l l l c D.~.~.!.x 1 $ $ c.'. .k l l l l 4 @ m l.s.#                   ",
"                  $ 0 g q $           . ) 3X0XyXtX3X7XtXtXtXtXtX9Xz - - - # + + O - o x.uXtXtXuXuX-.+ = o -                     ",
"                    0 0 9 9 t     4 x m O.m.A.rX7X=.x.9X9XrXtXrX9X.._ _ _ _ _ _ _ _ / M.tXrXrXrXtX-.+ 4 _ _                     ",
"                      % 0 g 9 $ $ O V Q.Z.x.N.7Xx.# z x.v.V.6X7X6X7X7X7X7X7X7X7X7X7X7X7X6XA.A.A.0XX.@ [ 6X=..                   ",
"                      $ w v q O c 5.h.[.].!.F.m.=.= k M.m.8XqXqXqXqXqXeXqXqXqXqXqXwXqXqXqXqXeXx...X.X.x.wXS.d.x.                ",
"                      $ 0 g 9 +  .U.[.XXXXBXvXv.-.$ ~ 3X0XyXgXyXyXhXgXgXgXgXgXgXhXgXgXhXgXyXbXO.@ ..S.F.fXvXVX!.% $             ",
"                      $ : 9 : + 0.{. XBXMXBX!.l )     ) ..8X9X8X9X8X8X8X8X8X8X8X8X9X8X8X9Xr.) k + | W.W.W.'.oXR.= &             ",
"                    ; : : : : ; d.mXMXMXMXmXD.O       @ t m.7XA.A.A.A.A.A.A.A.A.A.A.A.m.3X..@ , + | E.L.P.`.XXR.> >             ",
"                    ..=.M.0X7X0Xq.g k.VXZ.h           + z m.8XrXyXtXtXtXtXtXtXtXtXtXtXo.z         d f 5.I.H.T.Q.'.D.:           ",
"                  & X.v.8XyXyXhX-.@ o.vXB.#           + z m.7XtXyXyXyXyXyXyXyXyXyXyXyX..+           + V P.H.H.`.AX!.z k         ",
"                  + X.v.m.A.A.0XX.+ : q               + 4 v.M.A.A.A.A.A.A.A.A.A.A.7X0X) +           + B P.H.P.Q.nXfXuX3X4       ",
"                  = X.v.m.8X8X8XX.+ $                   t *.-.m.A.8X8X8X8X8X8X8X8Xv.x.(           k l  .J.J.Z.D.8XeXgX7X:       ",
"                  = X.v.9XbXhXbX-.+                       = t m.8XyXhXgXgXgXgXgXhX) $           + ` b.n.c.c.c.c.x.M.gXA.:       ",
"                    ` ..-.r.r.x.-.                        + > v.m.qXeXqXeXeXeXqXrX_ ,           1 ^ ..O.v.x.v.M.A.0XgX7X:       ",
"                      $ # # # $                           + : x.v.V.V.A.A.A.A.V.V./ +               O / v.v.v.m.yXhXbX0X4       ",
"                      $ > 0 : $                           & 4 n.m.qXtXrXrXrXrXrXtX_ +                 ' ( ( ( _ ........        ",
"                      + 0 g 9 %                           $ t V.S.jXjXfXfXjXjXfXfX] % Y                 , + + + + + + +         ",
"                        9 9 0 e 9 1                     8 r u R.Z.9.9.~.mXe.9.~.NXe.u y 1                                       ",
"                          $ 0 g 0 1                   4 y u b K.Y.4.u /. X7.4./.MXe.u y 1                                       ",
"                          & q w 0 $               < ~ =.x.M.V. X XK.K.I.I.K.K.{.VXV 8 % $                                       ",
"                          + g 4.g $               , k N.m.0X8X!.!.P.P.I.T.`._.Q.!.} z l ^ ~                                     ",
"                          + 0.Q.0.+               O l tXhXhXqXd f G.I. X X X XB - o.v.0XuXX.@                                   ",
"                          $ s.[.0.+               ^ X.eXiXv.=.4 > z.I. XBX XMX] + *.n.A.rXq._ ^                                 ",
"                          O k.BXf.O           , ~ b.M.7Xb.; + + q J.H. XBXXX X] + *.n.m.7X7X0XX.+                               ",
"                          $ s..X0.O         3 D K @.%.=X&X3 $ $ q G.H.`.[. XMX] + l ) >.%.&X=X-XE R                             ",
"                          $ 0.Q.0.+       2 3 F S A ! OXQ G $ $ q l.U.L.U.|.mX] + & , D S Q @X+X+XE ,                           ",
"                            h n m         & 2 3 D 3 G L L         m m m m m B t +       D F K K K G ;                           ",
"                              .             , , , , , 1             O O $ # O $         2 & & + , 1 $                           ",
"                                                                                                                                "
};
