/* XPM */
static char *_ec60b99d34044a1a5718f4b504fb291ITrLW6y72WF2mExM[] = {
/* columns rows colors chars-per-pixel */
"64 64 241 2 ",
"   c None",
".  c #2B2B1D",
"X  c #332D1C",
"o  c #3A2C19",
"O  c #36331B",
"+  c #2D2C25",
"@  c #2D2E2C",
"#  c #262A28",
"$  c #332D24",
"%  c #332D2B",
"&  c #382B29",
"*  c #2C312D",
"=  c #2D3126",
"-  c #343125",
";  c #3E3424",
":  c #34322B",
">  c #3B3A2C",
",  c #3B3729",
"<  c #2C2E32",
"1  c #292E3B",
"2  c #322E33",
"3  c #2B3133",
"4  c #2A323B",
"5  c #25343C",
"6  c #333332",
"7  c #3B3A34",
"8  c #393939",
"9  c #42371C",
"0  c #7A1A35",
"q  c #6C1E2A",
"w  c #4A282C",
"e  c #463A28",
"r  c #553E2B",
"t  c #523E27",
"y  c #423B33",
"u  c #582C33",
"i  c #69232E",
"p  c #752930",
"a  c #651C15",
"s  c #3D413C",
"d  c #594B19",
"f  c #534D1D",
"g  c #65531B",
"h  c #634C18",
"j  c #4A4529",
"k  c #5C4229",
"l  c #584B28",
"z  c #5A5327",
"x  c #474637",
"c  c #534734",
"v  c #5B5639",
"b  c #635528",
"n  c #675C34",
"m  c #6B4F2B",
"M  c #7A692B",
"N  c #6B6239",
"B  c #766838",
"V  c #7B7238",
"C  c #1C3659",
"Z  c #1C354D",
"A  c #243343",
"S  c #25354C",
"D  c #293747",
"F  c #363B44",
"G  c #233756",
"H  c #1B3864",
"J  c #253C63",
"K  c #483842",
"L  c #364553",
"P  c #384B64",
"I  c #3C5165",
"U  c #334E75",
"Y  c #395679",
"T  c #264771",
"R  c #1F4765",
"E  c #474845",
"W  c #55544A",
"Q  c #5D5D4D",
"!  c #575447",
"~  c #565659",
"^  c #4D534E",
"/  c #635D47",
"(  c #675E54",
")  c #5C6259",
"_  c #5F634B",
"`  c #766B46",
"'  c #626254",
"]  c #696958",
"[  c #76735C",
"{  c #726D51",
"}  c #455664",
"|  c #595B65",
" . c #4D4F72",
".. c #665B76",
"X. c #596469",
"o. c #4F6676",
"O. c #686D64",
"+. c #6D7566",
"@. c #7C7D6A",
"#. c #787867",
"$. c #757974",
"%. c #6D6C77",
"&. c #821D33",
"*. c #801A2E",
"=. c #99293B",
"-. c #8C3033",
";. c #9C4A37",
":. c #887738",
">. c #846E2E",
",. c #A37138",
"<. c #8B2F44",
"1. c #877848",
"2. c #857B56",
"3. c #976D55",
"4. c #847D6B",
"5. c #886F67",
"6. c #9F6C4F",
"7. c #7D8173",
"8. c #748767",
"9. c #519073",
"0. c #99863A",
"q. c #A8893B",
"w. c #978747",
"e. c #8B8559",
"r. c #978857",
"t. c #9B9151",
"y. c #A48C44",
"u. c #AA954B",
"i. c #B29A48",
"p. c #A79655",
"a. c #B39955",
"s. c #BAA34A",
"d. c #B9A758",
"f. c #BEB159",
"g. c #88866C",
"h. c #958C68",
"j. c #8D8B73",
"k. c #8C8B7A",
"l. c #878778",
"z. c #928C75",
"x. c #939479",
"c. c #9D9B7C",
"v. c #979578",
"b. c #97936E",
"n. c #A5966E",
"m. c #B7A66D",
"M. c #A4A27D",
"N. c #A9A478",
"B. c #B7AC76",
"V. c #B9B374",
"C. c #C4914F",
"Z. c #D9BA4D",
"A. c #CCB658",
"S. c #DABC53",
"D. c #D6B959",
"F. c #CBAD57",
"G. c #E0BC57",
"H. c #C5AE68",
"J. c #CCB363",
"K. c #C6B568",
"L. c #D5BB66",
"P. c #C6B878",
"I. c #D0B377",
"U. c #E3B96A",
"Y. c #C89D7A",
"T. c #AFCC78",
"R. c #BAC66F",
"E. c #D9C157",
"W. c #E4C358",
"Q. c #D6C268",
"!. c #D9C578",
"~. c #C9C471",
"^. c #E6CB67",
"/. c #F3D76D",
"(. c #E6CC76",
"). c #EDD679",
"_. c #F4D575",
"`. c #F6DA7A",
"'. c #E8D162",
"]. c #FDE27D",
"[. c #F8E177",
"{. c #2D5588",
"}. c #385586",
"|. c #365994",
" X c #2D538B",
".X c #376396",
"XX c #3561A4",
"oX c #366CB3",
"OX c #2E5DA8",
"+X c #4E6D93",
"@X c #717B8A",
"#X c #5578A5",
"$X c #837E89",
"%X c #7C8B88",
"&X c #7DE5B6",
"*X c #57F8E6",
"=X c #68F3DD",
"-X c #878A87",
";X c #9C9B87",
":X c #8C9192",
">X c #A49E84",
",X c #A49F8A",
"<X c #BE9889",
"1X c #A5A282",
"2X c #AAA584",
"3X c #ADA985",
"4X c #A9A78A",
"5X c #B4AF8B",
"6X c #B4B28C",
"7X c #BAB78B",
"8X c #BAB693",
"9X c #BDBB93",
"0X c #B6B695",
"qX c #AFB193",
"wX c #9E9EB2",
"eX c #9592A5",
"rX c #A7ADA9",
"tX c #9EB0A2",
"yX c #C1BD93",
"uX c #C2BD9B",
"iX c #CBB687",
"pX c #C3BBB1",
"aX c #9BD79A",
"sX c #B8CA93",
"dX c #88E4B0",
"fX c #D8C786",
"gX c #D0CA8F",
"hX c #E2CE86",
"jX c #E9D587",
"kX c #F5D789",
"lX c #FDE283",
"zX c #FDE38C",
"xX c #F6E587",
"cX c #FAE493",
"vX c #ECE393",
"bX c #CAC4A6",
"nX c #DCED9B",
"mX c #BBB9D3",
"MX c #B6B3CA",
"NX c #C3BCCE",
"BX c #8EF0C6",
/* pixels */
"                                                                                                                                ",
"                                                                                                                                ",
"              { {                                                                                                               ",
"          + l hXhXc +                                                       * @                                                 ",
"          B :.).).:.`                                                     w w u u                                               ",
"      $ z K.E.`.`.E.K.z $                                     @ @ + % % w i *.=.<.w % $ +                                       ",
"      @ l A.S.`.`.S.A.z %                                   W ' ] @.( w i &.=.=.=.p u [ 4.!                                     ",
"      $ z J.S.`.`.D.J.l %                             2 3 * ] k.4XbXn.i &.=.=.=.=.=.-.<XpX' @ < 1                               ",
"    2.V.p.n :.jX).V n p.m.`                         A Z T {.|.+X+X#X..u 0 =.=.&.&.=.<.%.#X.X{.|.|.U                             ",
"  + ` cXP.O j jXjXj O P.cX` @                   2 1 S H  XXXXX.X.X|. .u 0 <.<.0 0 =.<...|.oXoXoXoX}.1                           ",
"  @ ` cXI.O j jXjXl O P.zXB +                 * * * O.$.:XrXrXqXN.B.6.q q 0 0 0 0 =.-.Y.gX0XtXtXrX$.@                           ",
"    ` hXm.l n jXjXn l m.fX` +               8 7 7 y [ e.N.6XqXqXP.L.C.-.p p i p p -.;.U.zXfX5X6X0X$.@                           ",
"      j B hX).[.].).hXN j                 x 4.g.g.4./ b b v o..Xl.L.G._.H.m l l g C.F._.zXw.v o.#X}.1                           ",
"        ` iXL.).).L.P./                 * 8 +.$.$.#.v z B 1.X.Y +.d.F.Q.H.M M :.:.i.s.J.U.y.1.X..XY S                           ",
"          $ f F.H.f -                   4 5 S C C S x z K.cXw.l z b b b M A.S._.).M b b g m.cXp.z } }.U 4                       ",
"          { :.Q.L.:.` !                 < 4 } } } ^ v b F._.i.:.:.:.B g >.A.G.`.).M b >.:.L.zXu.f ) @Xo.3                       ",
"      + n vXxX].lXlXvXn +               % x l.k.k.g.n h i.S.Z.D.D.Z.u.h >.D.D.].).M g s.Z./.zXu.d 2.bXx.=                       ",
"      @ j e.h.;X;Xh.e.j %               A D | ) { ` w.0.0.0.s.Z.E.^.L.i.u.0.w.p.u.0.0.D.^.f.u.u.a.p.r.{ $                       ",
"      2 $ + A  X|.S # @ 2           < 5 Z H H D c g d.A.>.h y.A.'.].xXxX~.g z l g F.E.).cXw.d a.cXd.d j %                       ",
"          @ 5 R R A *               @ s O.O.O.] v b s.D.>.h y.A.sXBXBXBXaXt.i.H.V.aX&XBXBX8.d y.(.u.z j -                       ",
"          < 5 C G 4 @               @ E l.j.g.g.v b d.A.>.h q.A.aX=X*X*XdXR.W.[.nXBX*X*X=X9.f 0.D.y.z x =                       ",
"          3 S  X{.D <               < D L P P P G 8 N B b g q.D.~.R.T.T.R.A.S.[.xX~.T.T.T.` z n B ) Y P 4                       ",
"            G }.}.S 1               < A G J J J G F ! v z z w.J.F.F.A.A.A.A.L.kXkXL.A.A.J.>.z b v } +XY 4                       ",
"              S S S S 4             @ E l.7.7.7.7.7.g.g.x - ] k.k.k.l.l.;XrXNXNXpX:Xl.l.k.! - / g.v.0X-X=                       ",
"              = 5 G J A <           < x $.$.$.$.$.$.$.$.E < ~ %.$.$X-X:XeXwXwXwXwX:X:X@X%.L 1 ~ $.-XtX%XD                       ",
"              % A {.|.G 1           3 5 S C C C G C C C C S A 4 ~ @XeXmXeX8 6 6 F wXMX~ 3 A G C C T XXOXOX{.A                   ",
"              < 4 I } F 2           3 4 I I I I } I I I I } F 1 ~ $XeXmXwX| | | ..MXmX^ 3 L } I I o.+X+X#X+X4                   ",
"              = - r c ; $           % E k.j.j.j.k.j.j.k.k.k.! + ~ $XeXmXmXmXmXmXmXNXmX~ @ O.k.k.k.k.j.c.bX4X:                   ",
"              * - r k ; =           < F X.X.X.X.) ' ' ' ' ' x @ E | X.@X-XuXuXbXbX-X@XF @ ^ X.X.X.) ) ] @.@.                    ",
"              < % r k ; *           3 5 Z C C C 1 + + + @ @ @ @ @ @ < + z J.S.`.jXj + @ # A C C Z A 1 < @                       ",
"              @ : r k ; @             D 5 A A 8 2.w.w.w.w.w.w.0.0.w.B X z J.G.`.jXj - ` e.x 1 A A                               ",
"              @ : r k ; @               & % - j f.S.Z.S.S.S.S.S.S.S.w.o l J.L.kXhXc o a.Q.M o : 6                               ",
"              @ : r k ; @             N p.p.u.i.^./././._._._._.W.S.w.X 8 ^ } @X@X8 O V.).L.H.H.P.N.                            ",
"              @ : r k ; @           % b D.Z.F.A.`.lX].].].].].].'.S.y.e F C H  XY L e P.zXlXlXlXzXa.9 e e x                     ",
"              @ : r k ; @           % b D.s.d b hXlXlX].[.[.].lX`._.).!.N.: 4 A 8 B.(.`.].].].].lX).!.!.!.B.,                   ",
"              @ : r k ; @             N d.t.e c P.!.!.!.!.!.!.!.(.].`.lX~.z c c v (.lX(.!.!.!.!.!.!.!.(.[.K.O %                 ",
"              @ & r k ; @               , j 4.@.x , , , > 7 y 9 t.xXlXlXlX).`.).).lXcXN ; > > > > 7 , M L.d.;                   ",
"                  r r e ,               ! / v.z.! ^ W ! ! W ! v e.V.H.H.H.H.H.H.H.H.B.` ! W ! ! W E + l p.e.O                   ",
"                    $ r k e % F     # W ;X1X9X9XM.1X8X9X9X9X9XuX#.$ % : % % % % % % - c.9X9X9X9XuXg.+ * % %                     ",
"                    $ r k e $ 8 K v B ` v.;X6X3X#.[ M.3X5X6X6X6Xj.Q Q ( Q Q Q Q Q Q ' c.6X6X6X6X8X4.@ 8 Q Q                     ",
"                    - t c e = @ + B L.f.r.z.M.x.7 : #.g.c.>X>X>X1XM.1X1X1X1X1X1X1X1X1X,XM.M.>X1X1X[ + ! 1Xg.- @                 ",
"                  < = , y : $ v 1.a.(.^.I.7Xb.g.> : l.v.3X6X5X5X5X6X6X6X6X6X6X6X6X6X6X5X6X6X6Xg._ ' { g.qXB.p.h.j               ",
"                  2 : - * 3 X :.D.^.lX].lXhXh.@.7 : k.4X0X9XyXyXyXyXyXyXyXyXyXyXyXyXyXyXyX9XsX+.. / 2X3XyXfXzXhXj @             ",
"                7 ] [ g.x.x.v.[ b p.zX[.lXfXv E     W ! z.3X3X3X3X3X3X3X3X3X3X3X3X3X3X3X4X#.Q x + N H.J.J.Q.lXhXj @             ",
"              @ : @.j.6XyX9XbX+.. 1.lX[.kXP.O       @ $ g.1XM.M.1X1X1X1X1XM.1X1X1XM.M.c.;XW # @ X B K.A.Z.E.[.!.l 7             ",
"              @ : @.j.>X2X2X4X] . 1.zXK.b !           : g.1X5X9X7X8X8X8X7X7X8X8X8X8X8X( x         c l M D.Z.W.D.Q.P.v           ",
"              @ , @.j.>X2X2X4X] . ` hXm.o             : #.v.3X8X8X8X8X8X8X8X8X8X8X5X4X!             + z K.A.F.J.).hXN x         ",
"              @ : @.j.6XyXyXuX[ + 6 x                   8 > ] z.c.1X1X1X1X1X1X1X;Xc 7               @ c z.h.h.h.h.b.3X5XQ @     ",
"                7 O.#.v.c.c.;X' @                         + ] x.c.3X2X2X2X2X2X4X>Xx +               x Q j.g.g.j.x.v.8XuX! +     ",
"                  : : - - : 6 6 @                         + #.1X5XyX9X9XyXyXyX9X6Xx @           + ! g.j.j.j.j.z.8XuXuXuXQ +     ",
"                    % , , : %                             @ ] ;X2X6X6X6X6X6X6X6X4Xx @             ! ] [ j.j.j.z.8X8Xv.k.        ",
"                    : j c e &                           * @ ] j.v.2XM.M.1XM.M.M.c.y @ E             @ E j.j.j.z.0X0Xc +         ",
"                      e e e e y                       & w w 3.m.r.3.r.fXY.3.3.iXiXm u K 8               Q Q Q Q +.@.            ",
"                        $ t k e =                   6 & u q ,.U.,.a 6.zXU.-.;.kXkX;.<.u &               @ @ + + @               ",
"                        % t k e %                 7 ' ] 5.3.H._.F.q.C.^.D.C.C.`.jXm u & %                                       ",
"                        % t k e %               2 : @.k.;XM.gXjX^.S.Z.Z.Z.Z.S.jXfXl = : 6 8                                     ",
"                      < - 1.d.B $               % : c.6X7XyX2.v w.D.W./././.!.N v [ #.x.;XQ                                     ",
"                      3 X t.Q.:.+               7 y >X9X6X5X' . V D.W.lXlXlXfX; : @.j.5XuX] >                                   ",
"                      * X m.cX1.+             7 @.g.M.1XQ y 8 X V D.^.lX].].!.e : 4.j.1X2Xc.v.'                                 ",
"                        o a.xX1.$           4 8 +.$.-X:XE % 2 X V D.E._./.].fXe 6 O.#.l.l.-X:XX.D                               ",
"                        X w.Q.V X         A G C H H |..XR * = + V D.Z.S.W.lXfXe % 6 6 D G  XXXOX|.U                             ",
"                          2.t.1.        3 3 A Z C C T U         ` t.y.y.p.m.n., @ 6 4 S S T {.{.U L 3                           ",
"                            %           2 @ * < < 3 3 3           $ $ - % % : @ 3     3 3 * * 3 3 3 <                           ",
"                                                                                                                                "
};
