/* XPM */
static char *xpm_[] = {
/* columns rows colors chars-per-pixel */
"64 64 238 2 ",
"   c #2C2C25",
".  c #2D2D2B",
"X  c #292726",
"o  c #312E2C",
"O  c #352C27",
"+  c #2D312C",
"@  c #2C3126",
"#  c #34332B",
"$  c #3B352C",
"%  c #393628",
"&  c #2D2E33",
"*  c #242D3C",
"=  c #322D32",
"-  c #2B3232",
";  c #25333D",
":  c #2A343C",
">  c #2C3839",
",  c #343434",
"<  c #363A32",
"1  c #3C3B33",
"2  c #39383A",
"3  c #2E311A",
"4  c #751934",
"5  c #73182B",
"6  c #463729",
"7  c #423B2C",
"8  c #4C3A2A",
"9  c #493927",
"0  c #453C34",
"q  c #542B2E",
"w  c #662D39",
"e  c #772A37",
"r  c #6D2C2C",
"t  c #5D1E30",
"y  c #3B423F",
"u  c #5B501C",
"i  c #4A432B",
"p  c #5A4A26",
"a  c #5C5227",
"s  c #4C4633",
"d  c #43443B",
"f  c #4C4A3C",
"g  c #494636",
"h  c #544A36",
"j  c #5A5539",
"k  c #624126",
"l  c #624727",
"z  c #665725",
"x  c #735D29",
"c  c #665A35",
"v  c #725F3A",
"b  c #77662A",
"n  c #6D6237",
"m  c #6B6239",
"M  c #776A3B",
"N  c #736932",
"B  c #604D1F",
"V  c #1A355A",
"C  c #1F354C",
"Z  c #2B3544",
"A  c #21334C",
"S  c #283747",
"D  c #3A3C42",
"F  c #253A58",
"G  c #183864",
"H  c #233C62",
"J  c #413D40",
"K  c #62385C",
"L  c #334558",
"P  c #2B466A",
"I  c #374A64",
"U  c #334F76",
"Y  c #184871",
"T  c #484842",
"R  c #4E5449",
"E  c #56564A",
"W  c #585748",
"Q  c #575755",
"!  c #4B5152",
"~  c #655D43",
"^  c #78454E",
"/  c #5E6155",
"(  c #776B47",
")  c #7C7048",
"_  c #686857",
"`  c #757259",
"'  c #6F6850",
"]  c #4B5967",
"[  c #505A69",
"{  c #5A6668",
"}  c #566677",
"|  c #646A6B",
" . c #797965",
".. c #787A74",
"X. c #6D7271",
"o. c #892236",
"O. c #992939",
"+. c #98302B",
"@. c #932438",
"#. c #8D4C38",
"$. c #8C7838",
"%. c #B0613F",
"&. c #9B2D40",
"*. c #8D504F",
"=. c #897B45",
"-. c #847856",
";. c #927148",
":. c #827D6B",
">. c #807D74",
",. c #9F5D57",
"<. c #C37B57",
"1. c #7B816B",
"2. c #7C8173",
"3. c #7D837A",
"4. c #98813D",
"5. c #A48D3B",
"6. c #A6913C",
"7. c #968648",
"8. c #8C8356",
"9. c #978A57",
"0. c #9D9556",
"q. c #998E4A",
"w. c #A48E49",
"e. c #A8954B",
"r. c #B39E46",
"t. c #A48C57",
"y. c #AA9759",
"u. c #BC8448",
"i. c #BCA24A",
"p. c #B5A046",
"a. c #B8A557",
"s. c #84846D",
"d. c #8B8A6B",
"f. c #938C6C",
"g. c #8C8B74",
"h. c #888875",
"j. c #928C74",
"k. c #949374",
"l. c #9D9A7B",
"z. c #989579",
"x. c #96946A",
"c. c #A7996A",
"v. c #A49C7B",
"b. c #B89367",
"n. c #A4A27E",
"m. c #A9A67D",
"M. c #B7AC70",
"N. c #C99551",
"B. c #C5AB4D",
"V. c #CBB34C",
"C. c #DABA4D",
"Z. c #D5B84D",
"A. c #C4AB57",
"S. c #CCB657",
"D. c #D4BA52",
"F. c #DABB54",
"G. c #D6BA5A",
"H. c #D4AE54",
"J. c #CE9863",
"K. c #C1AE6B",
"L. c #C9B76A",
"P. c #D5BC68",
"I. c #CAB978",
"U. c #D4BD72",
"Y. c #ADCD7B",
"T. c #DBC058",
"R. c #E3C75D",
"E. c #DAC26A",
"W. c #D8C476",
"Q. c #EBCD65",
"!. c #E9CB6A",
"~. c #ECD26B",
"^. c #E5CA74",
"/. c #EBD27C",
"(. c #EAD57A",
"). c #F6DA79",
"_. c #F2D66C",
"`. c #FDE27D",
"'. c #F8E277",
"]. c #275896",
"[. c #345C95",
"{. c #30568C",
"}. c #38659B",
"|. c #2E5DA5",
" X c #3265AB",
".X c #1F4481",
"XX c #4E7299",
"oX c #587598",
"OX c #4D6E94",
"+X c #7B7A87",
"@X c #6B7689",
"#X c #4E7AAF",
"$X c #405F98",
"%X c #817D89",
"&X c #798C93",
"*X c #689C9E",
"=X c #71D7AB",
"-X c #59FAE7",
";X c #8C908F",
":X c #A39E81",
">X c #AA9E80",
",X c #9BA48F",
"<X c #A5A283",
"1X c #ACAA85",
"2X c #AEA98A",
"3X c #A7A685",
"4X c #B2AE8A",
"5X c #B4AD85",
"6X c #B4B28B",
"7X c #B9B78E",
"8X c #BBB992",
"9X c #B8B997",
"0X c #ABAE96",
"qX c #969CAC",
"wX c #A19EAF",
"eX c #A7A6BA",
"rX c #B7B4AD",
"tX c #C1BD95",
"yX c #C4BB98",
"uX c #CCBE88",
"iX c #CBBCB1",
"pX c #82E3B3",
"aX c #82E3AC",
"sX c #ABD792",
"dX c #C2C199",
"fX c #CECE89",
"gX c #E5D285",
"hX c #F8DE85",
"jX c #E5CF8A",
"kX c #FEE383",
"lX c #FEE688",
"zX c #D4C5B8",
"xX c #CFEBA2",
"cX c #CCE896",
"vX c #BDBAD7",
"bX c #B1AEC7",
"nX c #C1BCDD",
"mX c None",
/* pixels */
"mXmXmXmXmXmXmXmXmXmXmXmXmXmXmXmXmXmXmXmXmXmXmXmXmXmXmXmXmXmXmXmXmXmXmXmXmXmXmXmXmXmXmXmXmXmXmXmXmXmXmXmXmXmXmXmXmXmXmXmXmXmXmXmX",
"mXmXmXmXmXmXmXmXmXmXmXmXmXmXmXmXmXmXmXmXmXmXmXmXmXmXmXmXmXmXmXmXmXmXmXmXmXmXmXmXmXmXmXmXmXmXmXmXmXmXmXmXmXmXmXmXmXmXmXmXmXmXmXmX",
"mXmXmXmXmXmXmX, = mXmXmXmXmXmXmXmXmXmXmXmXmXmXmXmXmXmXmXmXmXmXmXmXmXmXmXmXmXmXmXmXmXmXmXmXmXmXmXmXmXmXmXmXmXmXmXmXmXmXmXmXmXmXmX",
"mXmXmXmXmXmXmX` -.~ mXmXmXmXmXmXmXmXmXmXmXmXmXmXmXmXmXmXmXmXmXmXmXmXmXmXmXmXmXmXmXmXmXmXmXmXmXmXmXmXmXmXmXmXmXmXmXmXmXmXmXmXmXmX",
"mXmXmXmXmX= O a.kX) o mXmXmXmXmXmXmXmXmXmXmXmXmXmXmXmXmXmXmXmXmXmXmXmXmXmX& - . mXmXmXmXmXmXmXmXmXmXmXmXmXmXmXmXmXmXmXmXmXmXmXmX",
"mXmXmXmXmX=.4.E.'.a.7.m mXmXmXmXmXmXmXmXmXmXmXmXmXmXmXmXmXmXmXmX& o mX= q t q w w = mXmXmXmXmXmXmXmXmXmXmXmXmXmXmXmXmXmXmXmXmXmX",
"mXmXmXmX# e.T._.`.R.Z.M . mXmXmXmXmXmXmXmXmXmXmXmXmXmXmXmXmX, = # # # + t 5 o.&.w O O , , mXmXmXmXmXmXmXmXmXmXmXmXmXmXmXmXmXmXmX",
"mXmXmXmXO e.T.~.'.R.F.(   mXmXmXmXmXmXmXmXmXmXmXmXmXmX. + , _  .j.v.^ t o.O.O.&.O.e *.v.s.- . mXmXmXmXmXmXmXmXmXmXmXmXmXmXmXmXmX",
"mXmXmXs i w.B.!.`.T.B.M i mXmXmXmXmXmXmXmXmXmXmXmXmX> > Z Z X.3.0XrX*.4 o.&.O.O.O.O.,.yX;XD Z A Z mXmXmXmXmXmXmXmXmXmXmXmXmXmXmX",
"mXmX1 I.W.m 9 K.kX=.6 9./.d.. mXmXmXmXmXmXmXmXmX& ; A V {.].}.}.}.}.K 4 o.O.O.4 @.O.K $X X X X X[.: mXmXmXmXmXmXmXmXmXmXmXmXmXmX",
"mXmX< W.`.~   K.lX) X 0.kX9.  = mXmXmXmXmXmXmXmX& > I I $XXX#XXXOXOXK 4 o.o.o.w o.&.*.#XoX#X X*XXX: = mXmXmXmXmXmXmXmXmXmXmXmXmX",
"mXmX1 W.'.j X M.lX) X 0.lXf.o mXmXmXmXmXmXmX. . . $ 2.3.9X9X9XdXL.L.#.5 5 4 4 4 o.@.<.hXcXdXrX9X3X2 = mXmXmXmXmXmXmXmXmXmXmXmXmX",
"mXmXmXc.y.=.-.U.lXy.=.9.y.-.mXmXmXmXmXmXmXT E R R W ( ` x.x.;X;XM.C.u.%.*.w r r &.%.N.hX^.x.z.qX&X, , mXmXmXmXmXmXmXmXmXmXmXmXmX",
"mXmXmXmX% I.lX`.`.hXlX9.  mXmXmXmXmXmXmX. y h.g.g.h.c z a j U }.y.T._.lXq.u z u $.H.!.lXP.B !  X|.: & mXmXmXmXmXmXmXmXmXmXmXmXmX",
"mXmXmXmXmX-.=.S.Q.e.8.mXmXmXmXmXmXmXmXmX& > ] ] ] ] a z y.y._ ! ) 4.q.w.5.5.e.a.e.$.w.w.w.N.x.{ ] I P S mXmXmXmXmXmXmXmXmXmXmXmX",
"mXmXmXmXmXo 3 w.G.N 3 mXmXmXmXmXmXmXmXmX- ; C V V S h c ~.lXM u u u z u 5.F.~.kXa.p p B $.kXW.z E [.{.: = mXmXmXmXmXmXmXmXmXmXmX",
"mXmXmXmX1 c.L.^./.W.L.-.  mXmXmXmXmXmXmX. 1 X.X.X. .j z V.T.i.p.r.p.$.B 5.F.!.kXi.u b p.V.lXE.a m ,X&Xy . mXmXmXmXmXmXmXmXmXmXmX",
"mXmXmXmX% K./.gXjX^.gX-.  mXmXmXmXmXmXmX+ L 2.s.s.8.m x p.V.Z.C.F.T.$.z 5.V.P.(.a.z 4.T.R.(.L.b ( 4X3X1 & mXmXmXmXmXmXmXmXmXmXmX",
"mXmXmXmX& 0 f } XX] s 1 + mXmXmXmXmX# Z A V H L j b r.B.N b i.Z.~.).(.~.w.z x N 4.B.T.'.P.x 4.~.P.N m # & mXmXmXmXmXmXmXmXmXmXmX",
"mXmXmXmXmX. & Y ].F o . mXmXmXmXmXmX. Z L I H ! a x B.V.b z i.C.(.xXxXxXy.b b $.0.Y.sXxXM.a N ~.E.x a + & mXmXmXmXmXmXmXmXmXmXmX",
"mXmXmXmXmXmXo F G Z . mXmXmXmXmXmXmX  T g.d.h.s.c x B.Z.b l r.G.=X-X-X-XsXV.T.).xX-X-X-X=Xa b T.B.z h @ + mXmXmXmXmXmXmXmXmXmXmX",
"mXmXmXmXmXmX- H .XA . mXmXmXmXmXmXmX& D | | | { d h q.5.x z i.G.sX=XpXpXY.Z.Q.'.sX=XpXpX*Xa b 6.9.Q ! < # mXmXmXmXmXmXmXmXmXmXmX",
"mXmXmXmXmXmX- U [.P . mXmXmXmXmXmXmX& * V V V V V A f z z u r.F.S.T.G.D.H.C.Q.`.~.D.T.F.r.a a l R }.{.; o mXmXmXmXmXmXmXmXmXmXmX",
"mXmXmXmXmXmXmXP P F A : mXmXmXmXmXmX. 2 { } { { { { ` ( g i d.b.c.c.c.c.5XuXiXzXyXv.c.c.8.i h ' ` &X&X> o mXmXmXmXmXmXmXmXmXmXmX",
"mXmXmXmXmXmXmX& . C G S o mXmXmXmXmX. f g.g.g.g.g.1.k.h.D - X.%X&X..%X%XwXvXvXbXwX%X%X+X| . T s.k.dX0X2 - mXmXmXmXmXmXmXmXmXmXmX",
"mXmXmXmXmXmXmXmX- P ].F - mXmXmXmXmX+ : I I I I I I I I F A L f X.%XqXbX+X! Q Q @XbX%XK D C F I U OXXX{.U Z mXmXmXmXmXmXmXmXmXmX",
"mXmXmXmXmXmXmXmX& I [.H & mXmXmXmXmX+ : V H L V V G H L F F ; + | %XeXnX@XD 2 = @XnX;X. Z F H H P [.}. X$XZ o mXmXmXmXmXmXmXmXmX",
"mXmXmXmXmXmXmXmX. q W 0 + mXmXmXmXmX  d 2.2.2.2.2.2.2.2.1...d . X.%XeXnXbXeXeXeXbXnX;X. T ..2.1.2.3.;X0X,Xd . mXmXmXmXmXmXmXmXmX",
"mXmXmXmXmXmXmXmX. 8 p 9 # mXmXmXmXmX  f X...2...1. . . . . .2 , { X.;XwXeXiXiXzXrXwX@X  d .... .1. .1.n.:XT & mXmXmXmXmXmXmXmXmX",
"mXmXmXmXmXmXmXmXo 8 r 6 . mXmXmXmXmX@ : H G V S - + + # + + . . = = , # ;.G./.hXc.> , o ; F G V V - @ % 2 mXmXmXmXmXmXmXmXmXmXmX",
"mXmXmXmXmXmXmXmXo 8 k 9 + mXmXmXmXmXmXmXA C C Z ~ n n n n n n v v v 7   ;.C.!.hXy.X 0 n R S C C A mXmXmXmXmXmXmXmXmXmXmXmXmXmXmX",
"mXmXmXmXmXmXmXmXo 8 k 9 o mXmXmXmXmXmXmX. . . 8 A.F.D.D.Z.D.C.D.D.S.n   7.C./.hXy.  v G.q.@ .   & mXmXmXmXmXmXmXmXmXmXmXmXmXmXmX",
"mXmXmXmXmXmXmXmXo 8 k 6 # mXmXmXmXmXmXmX7.=.$.7.!.Q.Q.Q.Q.Q.Q.Q.F.D.n o E _ 2.;X| . M ~.P.0.t.t.x.mXmXmXmXmXmXmXmXmXmXmXmXmXmXmX",
"mXmXmXmXmXmXmXmXo 8 k 6 . mXmXmXmXmX. j S.G.G.T.).`.`.`.`.`.`.kXE.G.x O S V Y ].P + ( kX`.kX`.`.E.9 # % % mXmXmXmXmXmXmXmXmXmXmX",
"mXmXmXmXmXmXmXmXo 8 k 6 . mXmXmXmXmX. a T.i.z M (.`.`.`.`.).).)._.).P.K.' ; L L _ K.E.`.'.).kXkX(.L.M.M.M.g mXmXmXmXmXmXmXmXmXmX",
"mXmXmXmXmXmXmXmXo 8 k 9 + mXmXmXmXmXmXm A.e.$ f W.(./././.gXgX/.).kXhXkX7.% % % 8.kXhX(././.gXgXgX/.).`./.h o mXmXmXmXmXmXmXmXmX",
"mXmXmXmXmXmXmXmXO 8 l 6 O mXmXmXmXmXmXmXi h  .` h s s s s s g s L.`.`.'.(.W.W.^./.kXM.i s s s s s h c S.S.i o mXmXmXmXmXmXmXmXmX",
"mXmXmXmXmXmXmXmXmX8 8 6 % $ mXmXmXmXmXmXg E :Xh.T f f f T f f h c.W.U.W.W.U.U.W.U.W.y.g T T T f d O 7 q.e.i mXmXmXmXmXmXmXmXmXmX",
"mXmXmXmXmXmXmXmXmXmX$ 8 k 8 o mXmXmXmXE l.3X8X7X<Xl.9X7X7X9X7X9XW % % % % % % % % % / 8X7X9X8XyX<X< o o $ mXmXmXmXmXmXmXmXmXmXmX",
"mXmXmXmXmXmXmXmXmXmX  8 8 8 = , D mXm ( l.l.7Xm.1.1.3X1X6X7X6X6X` E E E E W E E W W ` 6X6X6X4X7X:X< # E / mXmXmXmXmXmXmXmXmXmXmX",
"mXmXmXmXmXmXmXmXmXmX. 9 k 8 + +   c D.a.f.x.<Xz.< < :.f.:X:X<X:Xn.<X:X:X:X<X:X<X:X<Xn.n.<X<X<Xm.k., 1 z.l.0 X mXmXmXmXmXmXmXmXmX",
"mXmXmXmXmXmXmXmXmXmX# $ 6 % . h =.e.!.^.I.M.v.s.$ 1 d.z.4X4X4X4X4X4X6X6X6X6X6X4X6X4X4X4X5X6X:X_ _ _ ` 3X4X0.9.W mXmXmXmXmXmXmXmX",
"mXmXmXmXmXmXmXmXmX- = O = + @ ( G.!.hXhXkXgXd. .$ 1 z.3X9XtXtXyXyX8X8XdXyX8XtXyXtXdX8XdXtXyXl.# 0 v.m.tXdXhXkXj . mXmXmXmXmXmXmX",
"mXmXmXmXmXmXmXmXmXE  .h.z.k.k.-.z =.`.`.'.W.j E mXmXQ W :X1Xm.1X2X1X1X1X1X1X1X1X1X2X2Xm.k.W R + g a.S.L.P.).gXj . mXmXmXmXmXmXmX",
"mXmXmXmXmXmXmXmX. _ k.3XtXtX8Xs.X ( hX'.(.I.% mXmXmX  # g.<Xn.n.<X<Xm.n.n.m.<Xn.m.<X:Xz.1.. . . s a.V.Z.C._.).v 0 mXmXmXmXmXmXmX",
"mXmXmXmXmXmXmXmX- _ g.l.m.m.1X .X ( lXU.h R mXmXmXmXo $ k.<X7X9X8X8X8X8X8X8X8X8X8X8Xf.g T mXmXmXmXs a B.C.R.T.E.W.~ mXmXmXmXmXmX",
"mXmXmXmXmXmXmXmX& _ g.l.m.m.1X .X ~ uXb.@ mXmXmXmXmXmX< :.g.2X7X8X8X8X7X7X7X8X8X6X<X1.  mXmXmXmXmX. 7 a.A.A.A.^.gX( T mXmXmXmXmX",
"mXmXmXmXmXmXmXmX. _ f.1XdXtXdXs.  # 6 7 mXmXmXmXmXmXmXmX< 1  .j.l.n.n.<X<Xm.:X3X .% < mXmXmXmXmXmX  < s.f.f.k.f.x.2X0X_   mXmXmX",
"mXmXmXmXmXmXmXmXmX/ _ s.g.g.g._ + & mXmXmXmXmXmXmXmXmXmX= o  .z.n.1X2X2X2X5X2X0X .  mXmXmXmXmXmXmXT W s.g.g.g.z.l.7XtX~ . mXmXmX",
"mXmXmXmXmXmXmXmXmXmX. . o o . , & mXmXmXmXmXmXmXmXmXmXmXo o g.3X7XdXtXyXyXyXyXyXs.. = mXmXmXmXo 0 h.g.g.d.f.f.6X9XdXtX/ . mXmXmX",
"mXmXmXmXmXmXmXmXmXmX+ $ 8 $ o + mXmXmXmXmXmXmXmXmXmXmXmXo o >.v.m.4X5X4X5X5X2X4X .. # mXmXmXmXmXJ Q _ s.d.g.g.9XdXd. .mXmXmXmXmX",
"mXmXmXmXmXmXmXmXmXmX# 8 p 9 o mXmXmXmXmXmXmXmXmXmXmXmXmXO O  .j.l.n.n.n.:Xv.>X>X` . o mXmXmXmXmXmX. < s.d.d.g.6X9XW X mXmXmXmXmX",
"mXmXmXmXmXmXmXmXmXmXmX7 $ 9 8 6 & mXmXmXmXmXmXmXmXmXmX= t q t.A.,.v J.jX<.*.b.jXb.e w O mXmXmXmXmXmXmXT T T T W Q mXmXmXmXmXmXmX",
"mXmXmXmXmXmXmXmXmXmXmXmX= 6 B 8 = & mXmXmXmXmXmXmXmX< $ w e N.T.#.r J.hXN.+.N.hXJ.o.e o - mXmXmXmXmXmX  . # &   mXmXmXmXmXmXmXmX",
"mXmXmXmXmXmXmXmXmXmXmXmXo 9 r 9 o = mXmXmXmXmXmX& < ` :.j.x.^.).H.N.H.F.H.N.!.lXy.q = + . mXmXmXmXmXmXmXmXmXmXmXmXmXmXmXmXmXmXmX",
"mXmXmXmXmXmXmXmXmXmXmXmXo i x u o = mXmXmXmXmXmX- < f.z.>X3XuXU.F.C.F.F.T.F.P.W.8.1 d f f mXmXmXmXmXmXmXmXmXmXmXmXmXmXmXmXmXmXmX",
"mXmXmXmXmXmXmXmXmXmXmXmX. M S.=.O + mXmXmXmXmXmX+ 1 1X9XyX8Xj % e.C.~.'.'.`.9.% E h.z.9Xj.- mXmXmXmXmXmXmXmXmXmXmXmXmXmXmXmXmXmX",
"mXmXmXmXmXmXmXmXmXmXmXmX  =.!.q.@ o mXmXmXmXmXmXT W 1X7Xz.d.g O w.F.~.`.).kX9.  E f.l.7Xl.W E mXmXmXmXmXmXmXmXmXmXmXmXmXmXmXmXmX",
"mXmXmXmXmXmXmXmXmXmXmXmX  8.kXy.  mXmXmXmXmX& 1 s.k.n.l.g + + O e.C.~.kX`.kX7.X E k.z.3X3X:Xh.+ + mXmXmXmXmXmXmXmXmXmXmXmXmXmXmX",
"mXmXmXmXmXmXmXmXmXmXmXmX. =._.t.o mXmXmXmXZ Z S ] } oX@XD . + # w.C.R.Q.).kX8.@ d W / { } &XoXP I Z mXmXmXmXmXmXmXmXmXmXmXmXmXmX",
"mXmXmXmXmXmXmXmXmXmXmXmXo M G.7.o mXmXmX- * A V V G ].[.S = + + e.Z.D.S.!.lX9.X o o * V Y ].|.|.{.Z & mXmXmXmXmXmXmXmXmXmXmXmXmX",
"mXmXmXmXmXmXmXmXmXmXmXmXmXW c c mXmXmXmX+ & Z Z ; C F L mXmXmXmXm c c c m M f - mXmXmX; S L H F S , = mXmXmXmXmXmXmXmXmXmXmXmXmX",
"mXmXmXmXmXmXmXmXmXmXmXmXmXmXX mXmXmXmXmX. & , o @ +   mXmXmXmXmXmX& . X     . + mXmXmXo o o & +   , mXmXmXmXmXmXmXmXmXmXmXmXmXmX",
"mXmXmXmXmXmXmXmXmXmXmXmXmXmXmXmXmXmXmXmXmXmXmXmXmXmXmXmXmXmXmXmXmXmXmXmXmXmXmXmXmXmXmXmXmXmXmXmXmXmXmXmXmXmXmXmXmXmXmXmXmXmXmXmX"
};
