/* XPM */
static char *xpm_[] = {
/* columns rows colors chars-per-pixel */
"64 64 240 2 ",
"   c #2E2A1D",
".  c #2D2816",
"X  c #322C1C",
"o  c #362B15",
"O  c #37321C",
"+  c #2D2C23",
"@  c #2D2D2C",
"#  c #2B2A26",
"$  c #322D24",
"%  c #322D2B",
"&  c #3A2D29",
"*  c #2D312B",
"=  c #2A3127",
"-  c #353325",
";  c #3D3324",
":  c #34322C",
">  c #3B342B",
",  c #3B3B2D",
"<  c #2D2E33",
"1  c #272E38",
"2  c #312D32",
"3  c #253234",
"4  c #2B3133",
"5  c #26323C",
"6  c #2A323D",
"7  c #353432",
"8  c #393936",
"9  c #47381C",
"0  c #7D1B32",
"q  c #701D2E",
"w  c #4B282D",
"e  c #463A28",
"r  c #553E2B",
"t  c #513B23",
"y  c #433E35",
"u  c #542C31",
"i  c #67252B",
"p  c #722832",
"a  c #641D16",
"s  c #3C4239",
"d  c #594A1B",
"f  c #554B1B",
"g  c #614E1C",
"h  c #645319",
"j  c #4A4428",
"k  c #5C4229",
"l  c #574928",
"z  c #5C5327",
"x  c #484639",
"c  c #544934",
"v  c #585437",
"b  c #684828",
"n  c #655627",
"m  c #665B39",
"M  c #755129",
"N  c #7A6829",
"B  c #77693D",
"V  c #7B7137",
"C  c #6B6430",
"Z  c #1E354B",
"A  c #1D3558",
"S  c #253343",
"D  c #273548",
"F  c #363D44",
"G  c #273857",
"H  c #2B354C",
"J  c #243D6F",
"K  c #1E3861",
"L  c #2B415B",
"P  c #3F4548",
"I  c #294568",
"U  c #385478",
"Y  c #334C70",
"T  c #1F456C",
"R  c #464644",
"E  c #575748",
"W  c #4A545D",
"Q  c #595855",
"!  c #4C4D4F",
"~  c #645D49",
"^  c #645C54",
"/  c #586451",
"(  c #686445",
")  c #776B47",
"_  c #7B7447",
"`  c #696858",
"'  c #77745A",
"]  c #706E57",
"[  c #485865",
"{  c #495471",
"}  c #5B6368",
"|  c #516777",
" . c #676966",
".. c #7D7D6B",
"X. c #797764",
"o. c #676974",
"O. c #767A7A",
"+. c #6E7371",
"@. c #695371",
"#. c #861C36",
"$. c #9A2A3B",
"%. c #8B3136",
"&. c #964D33",
"*. c #897739",
"=. c #957A36",
"-. c #866C2C",
";. c #8A3046",
":. c #887848",
">. c #907559",
",. c #847C6A",
"<. c #857D79",
"1. c #9E7563",
"2. c #AD7A62",
"3. c #AF784A",
"4. c #788373",
"5. c #628861",
"6. c #5D8D6C",
"7. c #9B8937",
"8. c #A38B3C",
"9. c #9A8847",
"0. c #888257",
"q. c #958957",
"w. c #928A4F",
"e. c #A89449",
"r. c #B39A49",
"t. c #A2935D",
"y. c #A79654",
"u. c #B29350",
"i. c #BBA558",
"p. c #B5A851",
"a. c #82826C",
"s. c #8C8B6E",
"d. c #868568",
"f. c #9B9368",
"g. c #8B8A73",
"h. c #8C8C7A",
"j. c #878875",
"k. c #918D74",
"l. c #979579",
"z. c #958B66",
"x. c #A59764",
"c. c #A29D7B",
"v. c #B39868",
"b. c #B6A568",
"n. c #A5A17D",
"m. c #ABA67B",
"M. c #B8AA75",
"N. c #B4AE6E",
"B. c #C99954",
"V. c #D8BB49",
"C. c #CBB85C",
"Z. c #D4BB5B",
"A. c #D7BA56",
"S. c #C8AD58",
"D. c #C4AD66",
"F. c #CAB866",
"G. c #D9BC64",
"H. c #C9B877",
"J. c #CEB274",
"K. c #E4B773",
"L. c #BAC46E",
"P. c #DCC057",
"I. c #C8C05B",
"U. c #E4C55A",
"Y. c #DBC365",
"T. c #DBC778",
"R. c #CCC66A",
"E. c #E5C667",
"W. c #EAD16A",
"Q. c #FADD7C",
"!. c #F6DA77",
"~. c #EBD276",
"^. c #FCE17B",
"/. c #365687",
"(. c #345D95",
"). c #3B6391",
"_. c #3B648D",
"`. c #2F5CA0",
"'. c #4D6E91",
"]. c #466DAB",
"[. c #60799D",
"{. c #867D85",
"}. c #748794",
"|. c #75858F",
" X c #79EABD",
".X c #77F2CC",
"XX c #868686",
"oX c #9B9B84",
"OX c #8F9290",
"+X c #A29E83",
"@X c #A89E87",
"#X c #B18F88",
"$X c #A5A383",
"%X c #AAA683",
"&X c #ADAA85",
"*X c #ACAB8A",
"=X c #A6A58B",
"-X c #B2AE89",
";X c #B9AF8B",
":X c #B9B68E",
">X c #A7AB96",
",X c #B9B591",
"<X c #BDBA94",
"1X c #BBBA98",
"2X c #B0B094",
"3X c #9897A8",
"4X c #A19AAF",
"5X c #A5B2A9",
"6X c #AAAAB6",
"7X c #9BA598",
"8X c #C7B986",
"9X c #C1BE95",
"0X c #C1BE9A",
"qX c #C7BA93",
"wX c #D0AB84",
"eX c #C7BDB3",
"rX c #99DD9A",
"tX c #B4CB88",
"yX c #8CE4B5",
"uX c #B1CDAC",
"iX c #D5C686",
"pX c #C2C19B",
"aX c #D3CB90",
"sX c #E4CB88",
"dX c #E8D487",
"fX c #F8DB84",
"gX c #EFD891",
"hX c #FCE383",
"jX c #FBE48B",
"kX c #F4E189",
"lX c #F8E595",
"zX c #E8E396",
"xX c #CCC7AD",
"cX c #D9ECA1",
"vX c #DEE498",
"bX c #BBB7CA",
"nX c #BBBBD5",
"mX c #C6B7C0",
"MX c #87EFC6",
"NX c None",
/* pixels */
"NXNXNXNXNXNXNXNXNXNXNXNXNXNXNXNXNXNXNXNXNXNXNXNXNXNXNXNXNXNXNXNXNXNXNXNXNXNXNXNXNXNXNXNXNXNXNXNXNXNXNXNXNXNXNXNXNXNXNXNXNXNXNXNX",
"NXNXNXNXNXNXNXNXNXNXNXNXNXNXNXNXNXNXNXNXNXNXNXNXNXNXNXNXNXNXNXNXNXNXNXNXNXNXNXNXNXNXNXNXNXNXNXNXNXNXNXNXNXNXNXNXNXNXNXNXNXNXNXNX",
"NXNXNXNXNXNXNXe e NXNXNXNXNXNXNXNXNXNXNXNXNXNXNXNXNXNXNXNXNXNXNXNXNXNXNXNXNXNXNXNXNXNXNXNXNXNXNXNXNXNXNXNXNXNXNXNXNXNXNXNXNXNXNX",
"NXNXNXNXNXNXc 8X8Xc NXNXNXNXNXNXNXNXNXNXNXNXNXNXNXNXNXNXNXNXNXNXNXNXNXNXNXNXNXNXNXNXNXNXNXNXNXNXNXNXNXNXNXNXNXNXNXNXNXNXNXNXNXNX",
"NXNXNXNXNXj n fXgXM j NXNXNXNXNXNXNXNXNXNXNXNXNXNXNXNXNXNXNXNXNXNXNXNXNXNXNXNXNXNXNXNXNXNXNXNXNXNXNXNXNXNXNXNXNXNXNXNXNXNXNXNXNX",
"NXNXNXNXz M.Z.!.^.C.M.v % NXNXNXNXNXNXNXNXNXNXNXNXNXNXNXNXNXNXNXNXNXNXNXNXNX% 2 NXNXNXNXNXNXNXNXNXNXNXNXNXNXNXNXNXNXNXNXNXNXNXNX",
"NXNXNX+ z F.A.!.!.P.C.l % NXNXNXNXNXNXNXNXNXNXNXNXNXNXNXNXNXNXNXNXNXNXNXNXw w u u NXNXNXNXNXNXNXNXNXNXNXNXNXNXNXNXNXNXNXNXNXNXNX",
"NXNXNX  k G.P.Q.!.P.Z.l # NXNXNXNXNXNXNXNXNXNXNXNXNXNXNXNXNXNX= @ @ % % w i 0 %.;.w % @ # NXNXNXNXNXNXNXNXNXNXNXNXNXNXNXNXNXNXNX",
"NXNXNXz.0.*.9.fX!.9.*.w.z.~ NXNXNXNXNXNXNXNXNXNXNXNXNXNXNX8 Q E ` ..^ u i 0 $.$.$.p i ) ,.E NXNXNXNXNXNXNXNXNXNXNXNXNXNXNXNXNXNX",
"NX$ _ lXH.O j dXdXl O N.lX) % NXNXNXNXNXNXNXNXNXNXNX6 3 5 3  .XX=X1X#Xq 0 $.;.$.$.$.%.#XuX[ 3 5 6 NXNXNXNXNXNXNXNXNXNXNXNXNXNXNX",
"NX# B jXH.X j dXdXl O F.lX) # NXNXNXNXNXNXNXNXNXNX6 D Z I Y _.'.'.[.@.i #.$.$.#.#.$.;.{.[._./.(.(.Y NXNXNXNXNXNXNXNXNXNXNXNXNXNX",
"NXNX' gXJ.9 n dXdXb j b.gX) # NXNXNXNXNXNXNXNXNX% 6 H G /.).)._././.@.u #.$.%.0 #.;.;.@._.].].].].U 3 NXNXNXNXNXNXNXNXNXNXNXNXNX",
"NXNXNXv B 8XT.fXhXT.iXB c NXNXNXNXNXNXNXNXNXNX# @ *  .O.7X5X5X5X>XM.1.a 0 0 p q 0 #.%.wXxX1X5X6X6XO.: NXNXNXNXNXNXNXNXNXNXNXNXNX",
"NXNXNXNX] iXT.!.!.T.8X~ NXNXNXNXNXNXNXNXNXNXR x x x ' d.n.*X7X>XM.G.u.&.%.i i i #.&.&.K.jXH.m.>X5XO.< NXNXNXNXNXNXNXNXNXNXNXNXNX",
"NXNXNXNXNXO l S.D.l 9 NXNXNXNXNXNXNXNXNX< y 4.h.j.s.m n z v [ { j.R.E.fXJ.b b b M B.A.!.jX8.z | '.U 5 NXNXNXNXNXNXNXNXNXNXNXNXNX",
"NXNXNXNXNX:.:.E.G.*.) E NXNXNXNXNXNXNXNX< F o.} o. .v n *.w. .[ ] y.u.D.i.*.*.7.7.e.u.B.D.e.0. .| U L G NXNXNXNXNXNXNXNXNXNXNXNX",
"NXNXNXX m zXlXlXfXlXzXm % NXNXNXNXNXNXNX4 5 Z Z A S x n H.jX9.z g z z g -.C.P.^.dXN z g g D.lXy.v [ /.Y 6 NXNXNXNXNXNXNXNXNXNXNX",
"NXNXNX@ j >.0.OXoXd.' j % NXNXNXNXNXNXNX< 8 } } } ^ v h i.W.r.7.7.7.*.g N Z.A.!.~.N g =.8.Y.hXe.l ` }.+.4 NXNXNXNXNXNXNXNXNXNXNX",
"NXNXNX< @ @ S U /.S @ = 2 NXNXNXNXNXNXNX@ 8 j.XXs.s.C h r.A.V.V.A.P.e.h -.S.C.!.~.N h p.Z.~.kXe.h 0.pXoX= NXNXNXNXNXNXNXNXNXNXNX",
"NXNXNXNXNX< S T J S = NXNXNXNXNXNXNXNX6 D G Y ! / C e.r.7.N r.A.U.W.W.G.p.V V 7.=.r.r.E.!.r.*.p.J.x.V ( - NXNXNXNXNXNXNXNXNXNXNX",
"NXNXNXNXNX@ 3 A K 5 3 NXNXNXNXNXNXNX4 6 G G G P v h p.C.-.f e.C.T.cXcXcXtXC h h C N.L.cXcX0.f r.hXb.h j O NXNXNXNXNXNXNXNXNXNXNX",
"NXNXNXNXNX3 Z /./.D 4 NXNXNXNXNXNXNX* s 4.4.4.X.v h S.A.-.g 8.I.tXMX.X XrXp.I.W.aXyX X XMX6.f 8.P.e.z c : NXNXNXNXNXNXNXNXNXNXNX",
"NXNXNXNXNXNXG U Y D 6 F NXNXNXNXNXNX4 R +.+.O.+.E c e.p.N h 8.C.tXyX.X XrXI.P.^.zXyX X XyX5.z =.i.0.E R = NXNXNXNXNXNXNXNXNXNXNX",
"NXNXNXNXNXNXNX5 Z Z D S * NXNXNXNXNX4 6 G A A A Z 5 c n z h e.C.I.I.L.L.I.I.P.^.^.L.L.L.L.*.z z z Q U Y 3 NXNXNXNXNXNXNXNXNXNXNX",
"NXNXNXNXNXNXNX% 5 I T G 2 NXNXNXNXNX4 8 W W [ U [ W ` ) c f :.M.N.i.v.v.D.wXqXxXaXJ.v.v.b.( j v ( +.}.| 4 NXNXNXNXNXNXNXNXNXNXNX",
"NXNXNXNXNXNXNX: S U /.G < NXNXNXNXNX4 R XXh.h.h.h.g.g.h.R $ ^ XXXXO.<.{.OXmXmXnXbXXX<.<.{.! @ ^ h.oXuXOX4 NXNXNXNXNXNXNXNXNXNXNX",
"NXNXNXNXNXNXNX4 1 ! W 8 @ NXNXNXNXNX7 F [ [ [ [ ! E E E 8 % R W o.[.OX6X3Xo.+.o.o.4X4Xo.W H D F [ | }.'.Y Y NXNXNXNXNXNXNXNXNXNX",
"NXNXNXNXNXNXNX< & r c & * NXNXNXNXNX< 5 Z A G S * O O X O O $ @ W {.3XnX3X8 2 6 F 6XbXW # Z G A A T (.(.).U 5 4 NXNXNXNXNXNXNXNX",
"NXNXNXNXNXNXNX% & r k e @ NXNXNXNXNX* * 5 S 5 , q.p.e.u.y.y.v $ W {.3XnXbX4X3X3X4XbXnX! @ 3 3 4 5 [ |.|.4XOX4 4 NXNXNXNXNXNXNXNX",
"NXNXNXNXNXNXNX* & r k ; @ NXNXNXNXNX* - j y e z D.P.P.P.P.Y.*.j ^ O.XX6X6XmXeXmXmX6X5X^ j j j j j / a.s.>X=X, NXNXNXNXNXNXNXNXNX",
"NXNXNXNXNXNXNX7 & r k ; < NXNXNXNXNX@ z i.S.i.S.!.Q.Q.!.^.Q.~.dXz.& F F E H.K.gXaXE x M.dXT.dXsXdXt.O , , NXNXNXNXNXNXNXNXNXNXNX",
"NXNXNXNXNXNXNX* : r k ; * NXNXNXNXNX@ n F.A.u.r.~.jXQ.Q.^.^.^.hXi.m c + z C.P.fXsXl & H.hX^.fX^.hXb.m m ~ ) NXNXNXNXNXNXNXNXNXNX",
"NXNXNXNXNXNXNX4 ; r r ; < NXNXNXNXNX% n F.b.o f ~.jXhX^.hXjXhXfXfXgXm.o z F.P.kXvXj o H.jXhXhX^.hXkXlXgXjXT.; NXNXNXNXNXNXNXNXNX",
"NXNXNXNXNXNXNX% $ r k ; * NXNXNXNXNXNXNXq.:.v ( z.t.t.t.t.t.t.t.J.jXb.o j X.a.=XoXx O >.t.t.t.t.t.x.t.S.W.N.; 2 NXNXNXNXNXNXNXNX",
"NXNXNXNXNXNXNX* & k k e < NXNXNXNXNXNXNX  j j.4.: X X X X X $ o w.lXm.+ S Z A /./.H % + X   = + # # . n F.x.; NXNXNXNXNXNXNXNXNX",
"NXNXNXNXNXNXNX2 $ r k ; @ NXNXNXNXNXNXNX,.a.=X$X4.X.j.a.s.j.j.g.>._ E - < 4 Z L G S % X.s.s.s.s.j.` @ e B ( NXNXNXNXNXNXNXNXNXNX",
"NXNXNXNXNXNXNXNX& c c e $ NXNXNXNXNX; E $X%X1X<Xn.+X<X0X9XpX9X0X..$ - - : : : 7 : : > +X0XtXpX<X0Xa.@ : : 7 NXNXNXNXNXNXNXNXNXNX",
"NXNXNXNXNXNXNXNXNX> ; w r > 7 < % m b.t.z.l.=XoXv x d.l.n.%Xm.&Xl.g.g.g.g.g.g.g.g.j.g.c.=X=X*X*X*XX.+ R j.4.- NXNXNXNXNXNXNXNXNX",
"NXNXNXNXNXNXNXNXNXNX% r k e = , t *.R.C.x.x.+Xl., $ ,.k.+X%Xm.n.%X%X%X%X%Xm.%X%X&Xm.%X%X%X%X&Xl.k.] 8 ~ %Xf.v x NXNXNXNXNXNXNXNX",
"NXNXNXNXNXNXNXNXNXNX% r k ; = _ S.Y.!.Q.fXiXz.a., - g.@X,X1X<X<XtX<X<X<X9X<X9X<X<X9X<X9X<XqXpX' ; ( oX@XqX8XsXaXj 2 NXNXNXNXNXNX",
"NXNXNXNXNXNXNXNXNXNX: e j ; X w.E.W.hXhX^.T.' X.NXNX..a.$X,X:X:X,X,X,X,X,X,X,X,X,X,X,X:X,Xc.l.Q + ( N.N.J.T.jXiXj 2 NXNXNXNXNXNX",
"NXNXNXNXNXNXNXNXNX+ $   X $ . z.jXhXfXfXjXiXe NXNXNXNX- a.$Xn.n.@Xc.n.c.c.c.n.c.n.c.$X$X@XE % < + B F.Z.V.P.fXsX9   NXNXNXNXNXNX",
"NXNXNXNXNXNXNXNXNXQ Q ] X.X.' >.q.D.jXT.9.z.NXNXNXNXNX: a.$X&X-X-X-X-X-X-X-X-X-X-X-X*XX. .E NXNXNXm :.9.Z.V.E.E.y.0.NXNXNXNXNXNX",
"NXNXNXNXNXNXNXNX> 4.k.,X0X0X0X' . :.lXM.o NXNXNXNXNXNX@ a.=X-X0X0X0X0X0X9X9X9X9XtX<X1Xv # NXNXNXNXNX  n C.V.V.A.Q.gXv 7 NXNXNXNX",
"NXNXNXNXNXNXNX% 7 ..k.$X*X%X-X` + c ) ) NXNXNXNXNXNXNX: X.l.$X&X&X&X&X&X&X&X&X&X*X*X=Xc % NXNXNXNXNX@ n C.V.V.Z.T.iXc.h.Q NXNXNX",
"NXNXNXNXNXNXNX@ : ..s.c.%Xm.$X` + @ @ NXNXNXNXNXNXNXNX%  .a.l.$Xc.$Xn.n.c.m.%Xc.+X+XoXx @ NXNXNXNX8 - m F.C.S.F.8X:X9X1XE + NXNX",
"NXNXNXNXNXNXNX2 > a.s.-X<X,X1X] # NXNXNXNXNXNXNXNXNXNXNXNXy X.$X-X1X<X<X<X,X<X0X;XE y R NXNXNXNX# E ..d.f.f.f.f.l.l.,X1XE + NXNX",
"NXNXNXNXNXNXNXNX8  .,.oX=X=X*X .# NXNXNXNXNXNXNXNXNXNXNXNX$ ' +X*X<X,X<X,X9X,X<X2Xy # NXNXNXNX2 # E g.s.s.s.X.X.s.s.:XpXE + NXNX",
"NXNXNXNXNXNXNXNXNX8 : > > > , NXNXNXNXNXNXNXNXNXNXNXNXNXNX@ ` g.l.n.m.n.%X+Xm.c.oX8 < NXNXNXNXNX@ E g.h.k.4.; s a.s.<XuX~ # NXNX",
"NXNXNXNXNXNXNXNXNXNX& > 8 & & NXNXNXNXNXNXNXNXNXNXNXNXNXNX% ` l.c.&X&X%X%X-X%X%X$Xx < NXNXNXNXNX2 !  .]  .^ : , l.l.k.h.E NXNXNX",
"NXNXNXNXNXNXNXNXNXNX& x c e $ NXNXNXNXNXNXNXNXNXNXNXNXNX2 % ' n.-XqX0X9X9X0XqX8X;Xy 6 NXNXNXNXNXNXNX& * % % % , 2X1XR @ NXNXNXNX",
"NXNXNXNXNXNXNXNXNXNXNXe w e e 8 NXNXNXNXNXNXNXNXNXNXNX& w w >.J.v.>.v.sXwX2.2.sXqXM p y NXNXNXNXNXNXNXNXNX2 : , ` X.NXNXNXNXNXNX",
"NXNXNXNXNXNXNXNXNXNXNXNX& r c e % NXNXNXNXNXNXNXNXNX: & u i 3.G.=.q &.jXK.%.&.fXfX&.~ u & NXNXNXNXNXNXNXNXNX2 < # % NXNXNXNXNXNX",
"NXNXNXNXNXNXNXNXNXNXNXNX@ t r e % NXNXNXNXNXNXNXNX8  . .1.1.D.!.S.3.B.E.V.B.B.!.fXp w w % NXNXNXNXNXNXNXNXNXNXNXNXNXNXNXNXNXNXNX",
"NXNXNXNXNXNXNXNXNXNXNXNX# k g t % NXNXNXNXNXNXNX2 : ..l.oX%XiXdXE.A.P.P.A.P.P.dXiXc & , s P NXNXNXNXNXNXNXNXNXNXNXNXNXNXNXNXNXNX",
"NXNXNXNXNXNXNXNXNXNXNX4 + >.D.-.+ NXNXNXNXNXNXNX< > c.,X,X1X' j *.V.U.Q.!.!.T.z c X.,.oX>XQ # NXNXNXNXNXNXNXNXNXNXNXNXNXNXNXNXNX",
"NXNXNXNXNXNXNXNXNXNXNX% O w.T.*.  NXNXNXNXNXNXNXs x +X:X%X+XQ   V A.U.fXhXhXiX9 : ..k.-X1X] x R NXNXNXNXNXNXNXNXNXNXNXNXNXNXNXNX",
"NXNXNXNXNXNXNXNXNXNXNX% X b.lXw.+ NXNXNXNXNXNX8 4.h.oX=XE ; :   V Z.U.hXfX^.T.t 8 a.k.+X%X+X=X` @ NXNXNXNXNXNXNXNXNXNXNXNXNXNXNX",
"NXNXNXNXNXNXNXNXNXNXNX2 - y.dX:.+ NXNXNXNXNXS D | o.|.}.R @ % $ V A.A.W.W.^.T.; 7 Q ` +.+.|.}.U G L NXNXNXNXNXNXNXNXNXNXNXNXNXNX",
"NXNXNXNXNXNXNXNXNXNXNXNX$ w.H.*.+ NXNXNX6 S D G A A /./.G 3 * $ :.F.A.A.Y.jXiXj @ * * S A U `.`.(.Y 6 NXNXNXNXNXNXNXNXNXNXNXNXNX",
"NXNXNXNXNXNXNXNXNXNXNXNXNXB _ NXNXNXNXNX4 3 5 5 S D L I NXNXNXNX( B B B V :.] > 2 NXNXS D G I I L H * NXNXNXNXNXNXNXNXNXNXNXNXNX",
"NXNXNXNXNXNXNXNXNXNXNXNXNXNX  NXNXNXNXNX7 * 3 4 4 4 @ 3 NXNXNXNXNX+ + $ $ $ + % NXNXNXNX< @ < < % 7 : NXNXNXNXNXNXNXNXNXNXNXNXNX",
"NXNXNXNXNXNXNXNXNXNXNXNXNXNXNXNXNXNXNXNXNXNXNXNXNXNXNXNXNXNXNXNXNXNXNXNXNXNXNXNXNXNXNXNXNXNXNXNXNXNXNXNXNXNXNXNXNXNXNXNXNXNXNXNX",
"NXNXNXNXNXNXNXNXNXNXNXNXNXNXNXNXNXNXNXNXNXNXNXNXNXNXNXNXNXNXNXNXNXNXNXNXNXNXNXNXNXNXNXNXNXNXNXNXNXNXNXNXNXNXNXNXNXNXNXNXNXNXNXNX"
};
