/* XPM */
static char *xpm_[] = {
/* columns rows colors chars-per-pixel */
"64 64 244 2 ",
"   c #2D2A1B",
".  c #342D1B",
"X  c #28351A",
"o  c #3A3419",
"O  c #2C2D24",
"+  c #2D2D2C",
"@  c #252C28",
"#  c #332D24",
"$  c #312E2B",
"%  c #3C2E2D",
"&  c #2C3124",
"*  c #2B312C",
"=  c #263129",
"-  c #333223",
";  c #3B3426",
":  c #33332B",
">  c #38382C",
",  c #2C2E32",
"<  c #252F38",
"1  c #253333",
"2  c #2B3133",
"3  c #2A333C",
"4  c #25343B",
"5  c #343432",
"6  c #3C3D33",
"7  c #363937",
"8  c #342931",
"9  c #1E251D",
"0  c #4E3E1C",
"q  c #771B34",
"w  c #6D1C36",
"e  c #47282D",
"r  c #4B3929",
"t  c #443929",
"y  c #453C34",
"u  c #572E30",
"i  c #732930",
"p  c #702A1E",
"a  c #3E4432",
"s  c #3E411F",
"d  c #5E521D",
"f  c #554A1C",
"g  c #63541F",
"h  c #62471B",
"j  c #6E631E",
"k  c #4B4629",
"l  c #584928",
"z  c #5B5226",
"x  c #4A4B3B",
"c  c #464638",
"v  c #544836",
"b  c #595337",
"n  c #485029",
"m  c #624127",
"M  c #664A26",
"N  c #665828",
"B  c #665B36",
"V  c #79592C",
"C  c #76662A",
"Z  c #69633A",
"A  c #776938",
"S  c #7E763E",
"D  c #1D3649",
"F  c #1D3756",
"G  c #24344C",
"H  c #243746",
"J  c #263A55",
"K  c #393D44",
"L  c #193768",
"P  c #233C67",
"I  c #2C4357",
"U  c #354558",
"Y  c #3D484D",
"T  c #2A4567",
"R  c #36496A",
"E  c #2D4C74",
"W  c #355478",
"Q  c #484945",
"!  c #4E5143",
"~  c #555344",
"^  c #585648",
"/  c #575749",
"(  c #474A52",
")  c #565855",
"_  c #534F4E",
"`  c #655D47",
"'  c #714F49",
"]  c #596752",
"[  c #6A6548",
"{  c #746742",
"}  c #7B7349",
"|  c #6B6D5B",
" . c #666655",
".. c #75735A",
"X. c #716D52",
"o. c #48556B",
"O. c #586569",
"+. c #546773",
"@. c #797967",
"#. c #676971",
"$. c #6A7474",
"%. c #747C78",
"&. c #6D6C6A",
"*. c #745C72",
"=. c #851E39",
"-. c #992A39",
";. c #8D3135",
":. c #A0263B",
">. c #887737",
",. c #897331",
"<. c #AB703B",
"1. c #A34C31",
"2. c #953444",
"3. c #867B47",
"4. c #8F754D",
"5. c #AC7450",
"6. c #817C63",
"7. c #A36654",
"8. c #7C8578",
"9. c #9B8939",
"0. c #8D823F",
"q. c #A28A39",
"w. c #B1953F",
"e. c #8E8147",
"r. c #988447",
"t. c #8C8358",
"y. c #958B57",
"u. c #9C9257",
"i. c #A79546",
"p. c #B4984B",
"a. c #A89957",
"s. c #A98F4C",
"d. c #BAA859",
"f. c #B9A24A",
"g. c #84836C",
"h. c #8C886D",
"j. c #968B65",
"k. c #9C9565",
"l. c #8D8C73",
"z. c #898877",
"x. c #918875",
"c. c #9C9A7C",
"v. c #979578",
"b. c #8E9377",
"n. c #A89A67",
"m. c #A99570",
"M. c #B7A968",
"N. c #BCB869",
"B. c #A4A27D",
"V. c #AAA47A",
"C. c #BAB479",
"Z. c #B4A870",
"A. c #D9BA4C",
"S. c #C5A95A",
"D. c #CAB65A",
"F. c #D5BB53",
"G. c #D7B957",
"H. c #CDA951",
"J. c #E1BF5A",
"K. c #C5AE66",
"L. c #C8B567",
"P. c #D3BA67",
"I. c #C8B675",
"U. c #D6B775",
"Y. c #D0A45F",
"T. c #B3C66F",
"R. c #DDC359",
"E. c #DDC14E",
"W. c #E4C45B",
"Q. c #D9C465",
"!. c #D8C378",
"~. c #D2CC66",
"^. c #E8C966",
"/. c #F1D26C",
"(. c #E6C977",
"). c #F9DC7B",
"_. c #EACF78",
"`. c #FCE27D",
"'. c #F8E279",
"]. c #2D5486",
"[. c #355988",
"{. c #345B95",
"}. c #2A508F",
"|. c #366193",
" X c #396DA9",
".X c #53708F",
"XX c #6C7B91",
"oX c #466AAC",
"OX c #837D8B",
"+X c #708694",
"@X c #7188A1",
"#X c #6DF0D0",
"$X c #878883",
"%X c #9A9A84",
"&X c #8C899A",
"*X c #8D939A",
"=X c #A29E83",
"-X c #9BA38F",
";X c #A4A282",
":X c #ADAA84",
">X c #A8A588",
",X c #B2AE8A",
"<X c #B6AC88",
"1X c #B4B28B",
"2X c #B6B588",
"3X c #B5AD93",
"4X c #B5B393",
"5X c #BAB693",
"6X c #BCB993",
"7X c #BABA99",
"8X c #AAB396",
"9X c #9895A8",
"0X c #938DA2",
"qX c #93A6AB",
"wX c #B2B5AE",
"eX c #C6BA8A",
"rX c #C1BD96",
"tX c #C2BD99",
"yX c #C9B598",
"uX c #D3BC85",
"iX c #CABBB2",
"pX c #A7CD82",
"aX c #B6CA8E",
"sX c #90E7B3",
"dX c #A4D3A0",
"fX c #CFC78D",
"gX c #E8CE85",
"hX c #E8D686",
"jX c #F2DA82",
"kX c #F8DC85",
"lX c #F4DC93",
"zX c #EBD692",
"xX c #FDE383",
"cX c #FCE589",
"vX c #FAE593",
"bX c #EBE890",
"nX c #C3C3A7",
"mX c #E0DC9C",
"MX c #B8B8C9",
"NX c #BDBBD2",
"BX c #ACACC2",
"VX c #C6BBC6",
"CX c #8BF1C4",
"ZX c None",
/* pixels */
"ZXZXZXZXZXZXZXZXZXZXZXZXZXZXZXZXZXZXZXZXZXZXZXZXZXZXZXZXZXZXZXZXZXZXZXZXZXZXZXZXZXZXZXZXZXZXZXZXZXZXZXZXZXZXZXZXZXZXZXZXZXZXZXZX",
"ZXZXZXZXZXZXZXZXZXZXZXZXZXZXZXZXZXZXZXZXZXZXZXZXZXZXZXZXZXZXZXZXZXZXZXZXZXZXZXZXZXZXZXZXZXZXZXZXZXZXZXZXZXZXZXZXZXZXZXZXZXZXZXZX",
"ZXZXZXZXZXZXZXZXo ZXZXZXZXZXZXZXZXZXZXZXZXZXZXZXZXZXZXZXZXZXZXZXZXZXZXZXZXZXZXZXZXZXZXZXZXZXZXZXZXZXZXZXZXZXZXZXZXZXZXZXZXZXZXZX",
"ZXZXZXZXZXZXZXn.fXt.ZXZXZXZXZXZXZXZXZXZXZXZXZXZXZXZXZXZXZXZXZXZXZXZXZXZXZXZXZXZXZXZXZXZXZXZXZXZXZXZXZXZXZXZXZXZXZXZXZXZXZXZXZXZX",
"ZXZXZXZXZXZXf M.vXe.f ZXZXZXZXZXZXZXZXZXZXZXZXZXZXZXZXZXZXZXZXZXZXZXZXZXZXZXZXZXZXZXZXZXZXZXZXZXZXZXZXZXZXZXZXZXZXZXZXZXZXZXZXZX",
"ZXZXZXZX: a.d.(.xXQ.d.e.  ZXZXZXZXZXZXZXZXZXZXZXZXZXZXZXZXZXZXZXZXZXZXZXZXZX8 $ ZXZXZXZXZXZXZXZXZXZXZXZXZXZXZXZXZXZXZXZXZXZXZXZX",
"ZXZXZXZX# i.F./.`.W.A.3.@ ZXZXZXZXZXZXZXZXZXZXZXZXZXZXZXZXZXZXZXZXZXZXZXZXe e u u ZXZXZXZXZXZXZXZXZXZXZXZXZXZXZXZXZXZXZXZXZXZXZX",
"ZXZXZXZX. i.A./.xX/.A.>.X ZXZXZXZXZXZXZXZXZXZXZXZXZXZXZXZXZXZX, + + $ $ e w q ;.i e 8 + ZXZXZXZXZXZXZXZXZXZXZXZXZXZXZXZXZXZXZXZX",
"ZXZXZXt.3.4.r.P.xXM.r.3.3.} ZXZXZXZXZXZXZXZXZXZXZXZXZXZXZXY ! / `  .' e u =.=.2.-.i u  . .Q ZXZXZXZXZXZXZXZXZXZXZXZXZXZXZXZXZXZX",
"ZXZX> !.cXZ O a.cXe.  t.vXn.* ZXZXZXZXZXZXZXZXZXZXZX2 , , 2 O.b.-XnXx.w q -.-.:.-.-.2.3X7XY 3 < H ZXZXZXZXZXZXZXZXZXZXZXZXZXZXZX",
"ZXX s P.kXZ O M.cXe.O e.cXa.* @ ZXZXZXZXZXZXZXZXZXZXH D T E W .XXXXX*.q =.-.:.=.=.:.2.+X@X[.E ].].T ZXZXZXZXZXZXZXZXZXZXZXZXZXZX",
"ZXZXn !.lXB   M.xXe.  t.vXZ.& ZXZXZXZXZXZXZXZXZXZX, G F E {.|.|.{.{.( w =.-.-.q q 2.2.o.{. XoX X XI 2 ZXZXZXZXZXZXZXZXZXZXZXZXZX",
"ZXZXZX8.j n.N.(.`.!.C.y.Z [ ZXZXZXZXZXZXZXZXZXZX5 * O.$.&XqX*XqX-XB.4.q q =.q q q :.1.yX4XqXqXqXqXo.* ZXZXZXZXZXZXZXZXZXZXZXZXZX",
"ZXZXZXZXn C.zX).'.jXzXk.  ZXZXZXZXZXZXZXZXZX7 7 : > ..h.>X5X7XwXeXG.5.i i p u i i -.:.(.cXeX5X7XwX) + ZXZXZXZXZXZXZXZXZXZXZXZXZX",
"ZXZXZXZXZXb l s.R.3.z Z ZXZXZXZXZXZXZXZXZX6 $.6.6.@.[ B Z Z O..Xl.E.P.gXY.M m p ,.Y.Y.kXlX>.Z .XoXU + ZXZXZXZXZXZXZXZXZXZXZXZXZX",
"ZXZXZXZXZXb l p.J.9.z ^ ZXZXZXZXZXZXZXZX& 5 $.%.%.%.B z Z A ) W @.f.D.(.d.V C ,.,.p.H.P.U.>.A +..XT J ZXZXZXZXZXZXZXZXZXZXZXZXZX",
"ZXZXZXZX> C.lXjX'.jXlXj.$ ZXZXZXZXZXZXZX$ 2 G J D J n z N.jXy.b M g N N ,.D.P.).Q.j g g j ~.hX} ! W [.I @ ZXZXZXZXZXZXZXZXZXZXZX",
"ZXZXZXZX* y.M.2X7X:XZ.} + ZXZXZXZXZXZXZX$ 5 Y o.o.R b d d.).i.,.,.,.C l ,.F.E.xX_.N z ,.,.(.`.>.n #.+XY = ZXZXZXZXZXZXZXZXZXZXZX",
"ZXZXZXZX= # - R {.I # - @ ZXZXZXZXZXZXZX= > 8.$Xz.z.B h w.A.F.F.F.A.i.f ,.F.R.xX_.N N H.G.).cXS z c.nX| , ZXZXZXZXZXZXZXZXZXZXZX",
"ZXZXZXZXZX+ 3 T }.J + ZXZXZXZXZXZXZXZX< D H o.O.X.} e.9.9.9.f.A.W.^.D.s.i.9.q.a.a.9.9.W.^.d.a.p.a.u.y.~ 8 ZXZXZXZXZXZXZXZXZXZXZX",
"ZXZXZXZXZXZX2 D L H @ ZXZXZXZXZXZXZX@ , G J F G x d f.R.,.h s.A.^.bXvXbXN.f d d j N.~._.bXC d ~.cX0.z t + ZXZXZXZXZXZXZXZXZXZXZX",
"ZXZXZXZXZXZX1 T }.I 1 ZXZXZXZXZXZXZX= 7 O.O.#.&.B g f.F.>.d q.A.pXsXCXCXdXi.f.d.N.sXsXCXsXZ d f.^.>.z > * ZXZXZXZXZXZXZXZXZXZXZX",
"ZXZXZXZXZXZX4 E {.T < ZXZXZXZXZXZXZX= a 8.8.z.8.b z p.D.S d q.G.dX#X#X#XsXE.R.'.bX#X#X#X#X] g i.L.} b c * ZXZXZXZXZXZXZXZXZXZXZX",
"ZXZXZXZXZXZXZXZXJ D D H + ZXZXZXZXZX* 3 U U R U I H B C N M q.A.T.pXpXaXT.D.R.'.'.pXpXpXT.Z N V C ) W I , ZXZXZXZXZXZXZXZXZXZXZX",
"ZXZXZXZXZXZXZXZX2 J L F 2 ZXZXZXZXZX2 3 J I J I I J b b b l r.L.~.D.K.S.L.I.U.lXzXK.K.K.M.Z l b b +..XI = ZXZXZXZXZXZXZXZXZXZXZX",
"ZXZXZXZXZXZXZXZX+ R {.T , ZXZXZXZXZX, 7 8.8.z.8.8.$Xh.h.! *  .x.h.g.h.g.=XiXVXVXiXx.6.$X6.c % ..h.qXwX .= ZXZXZXZXZXZXZXZXZXZXZX",
"ZXZXZXZXZXZXZXZX+ K [.K = ZXZXZXZXZX+ 7 $.$.$.$.&.....@.c 1 _ #.%.XX&X0X0X9X9X9X0X0X0X*.#.K H O.$.*XqX+.J ZXZXZXZXZXZXZXZXZXZXZX",
"ZXZXZXZXZXZXZXZX+ y _ y @ ZXZXZXZXZX* 2 G F J H 2 # # # . O $ $ ) OX0XNX0X3 , 3 Q BXBXQ 3 G J F F W {.{.{.T 4 ZXZXZXZXZXZXZXZXZX",
"ZXZXZXZXZXZXZXZX, r m r O ZXZXZXZXZX* 2 H G G 3 ` A A A Z A v O ) OX9XNXBX#.#.*.XXMXBXK 8 G G D D o..X@X@Xo.1 ZXZXZXZXZXZXZXZXZX",
"ZXZXZXZXZXZXZXZX$ r m t @ ZXZXZXZXZX* , O   # t a.F.F.F.D.P.A   ) +X9XNXMXMXVXMXNXVXwXK   O O O = | +X-XnX@.O ZXZXZXZXZXZXZXZXZX",
"ZXZXZXZXZXZXZXZX$ r m r @ ZXZXZXZXZX, t 3.e.3.4.Q./.^./././.K.a.6._ ) #.6.eXyXmXiX&.&.k.a.m.n.a.n.X./  ...| ZXZXZXZXZXZXZXZXZXZX",
"ZXZXZXZXZXZXZXZX$ r m r O ZXZXZXZXZX+ k D.F.G.P.'.`.xX`.'.`.`.cXu.8 $ + b G.^.kX!.5 k gXkXkXcXxXcXA . o . ZXZXZXZXZXZXZXZXZXZXZX",
"ZXZXZXZXZXZXZXZX# r m r : ZXZXZXZXZX= k H.H.V N !.`.'.).`.xX`.'.(.U.4.$ B G.W.`.(.% c !.xX`.'.).`.!.L.L.I.k.ZXZXZXZXZXZXZXZXZXZX",
"ZXZXZXZXZXZXZXZX$ r m r : ZXZXZXZXZXZXv d.d.k t I.hXgXgXgXgXgXgXjXkXn.O b M.L.mXeX> t uXhX_.gXgXgXgXhXjX'.y.& ZXZXZXZXZXZXZXZXZX",
"ZXZXZXZXZXZXZXZX: r M r $ ZXZXZXZXZXZXZXn k @.@.b k k l k k k f s.cXn.+ 5 Y R .X+.H : k k k k v v k k r.R.3.+ ZXZXZXZXZXZXZXZXZX",
"ZXZXZXZXZXZXZXZX$ r u r O ZXZXZXZXZXZXZX! Q l.b.b c x x v x x Q 6.U.y.* , D J ].E 3 : c Q x x x x 5 O } d.} * ZXZXZXZXZXZXZXZXZX",
"ZXZXZXZXZXZXZXZX$ t m r X ZXZXZXZXZX@ c v.=X7X6X;X;X3X7X4X5X7X7X..0 - O + , 1 < 1 + > >X6X5X6X5X5X) $ # o k ZXZXZXZXZXZXZXZXZXZX",
"ZXZXZXZXZXZXZXZXZXZXr r ; ; ZXZXa Q Z Z k.c.4X3Xg.@.c.,X2X2X1X4Xh.~ ^ ^ ^ ^ ^ ~ ^ ^  .>X1X1X2X1X5X^ , Q / ^ ZXZXZXZXZXZXZXZXZXZX",
"ZXZXZXZXZXZXZXZXZXZX- r M r $ + X n D.K.j.h.%X=Xc # &.l.v.V.B.B.=X=XB.=X;XB.;X=X;X;XB.B.=X=XB.;X>X^ O | >XX.X ZXZXZXZXZXZXZXZXZX",
"ZXZXZXZXZXZXZXZXZXZX$ t u r $ k S r.^.^.U.C.c.b.c : @.c.>X2X:X,X1X,X,X,X,X,X,X,X:X1X,X1X,X3X1X@. . . .v.,Xn.y.t.ZXZXZXZXZXZXZXZX",
"ZXZXZXZXZXZXZXZXZXZX+ t v r + B G.Q.).xXxXhXk.g.c * z.>X4X6XfX7X7XtXtXtXrXrXrXtXrXrX7XtXaXrX6X~   g.V.,XaX_.cXM.* = ZXZXZXZXZXZX",
"ZXZXZXZXZXZXZXZXZXZX* ; t > * B /./.'.'.xXgX[ ) ZXZX .~ l.:X:X:X:X:X:X:X:X:X:X:X:X:X:X,X>X| / 7 $ t.D.L.L.(.xXn.O * ZXZXZXZXZXZX",
"ZXZXZXZXZXZXZXZXZXZX5 > ; ; : [ hXjX).).kXfXx ZXZXZXZX# @.;XB.B.B.;X;XB.B.B.B.V.B.B.B.c.%Xa & 1 5 y.D.D.F.^.`.a.o a ZXZXZXZXZXZX",
"ZXZXZXZXZXZXZXZXZX| @.l.=X>X>Xh.b S kX(.Z Z ZXZXZXZXZX: @.V.1X6X6X5X6X6X6X5X5X6X6X7X>X~ c ZXZXZX( v f q.J.G.E.Q.!.n.& ZXZXZXZXZX",
"ZXZXZXZXZXZXZXZX+ ) l.=XrXrXaXb.+ b fXI.s ZXZXZXZXZXZX* @.;X<XrX6X5X7X6X6X6X7X6X6XrX,X6 * ZXZXZXZX7 O >.G.G.A.R.lXC.c a ZXZXZXZX",
"ZXZXZXZXZXZXZXZX,  .l.v.=X=X>Xg.+ : o n ZXZXZXZXZXZXZX* | l.c.;XB.;XB.B.V.V.V.B.B.;X%Xa * ZXZXZXZX7 + e.E.F.F.L.uXrX1Xb.* ZXZXZX",
"ZXZXZXZXZXZXZXZX$  .h.c.:X:X:Xg.* 2 ZXZXZXZXZXZXZXZXZXZX .&.l.=X>X:X:X;XV.:X:X:X;Xh.@.c ZXZXZXZXZXQ x t.S.S.d.C.<X4XnXc.: ZXZXZX",
"ZXZXZXZXZXZXZXZXO  .x.:XtXrXnXv.* ZXZXZXZXZXZXZXZXZXZXZXZX& ..;X,XtX6XfXtX7XtXnX:X6 : ZXZXZXZX2 1 | l.j.j.j.j.j.h.c.aXc.: ZXZXZX",
"ZXZXZXZXZXZXZXZXZX)  ...6.6.8.@.ZXZXZXZXZXZXZXZXZXZXZXZXZX= | c.;X1X,X2X,X,X1X1X=X> 7 ZXZXZXZX2 * | l.l.x.@.] &.x.c.aXc.; ZXZXZX",
"ZXZXZXZXZXZXZXZXZXZX$ $ # # O ZXZXZXZXZXZXZXZXZXZXZXZXZXZX+  .h.v.B.c.V.=XB.B.B.b.7 * ZXZXZXZXZX1 | b.z.x.) + ~ l.c.nX%X5 ZXZXZX",
"ZXZXZXZXZXZXZXZXZXZX: 5 y 6 : ZXZXZXZXZXZXZXZXZXZXZXZXZXZX+ | c.;X5X1X1X3X5X<X5X%X7 * ZXZXZXZXZXZX~ ~ ~ ~ c @ [ ,X%X` | ZXZXZXZX",
"ZXZXZXZXZXZXZXZXZXZX2 t l r # ZXZXZXZXZXZXZXZXZXZXZXZXZXy # X.V.<XyXeXeXyXyXuXyXV.t e ) ZXZXZXZXZXZX* , 2 + &  .7X%X+ ZXZXZXZXZX",
"ZXZXZXZXZXZXZXZXZXZXZXZXt t y r ZXZXZXZXZXZXZXZXZXZXZX7 u u 5.L.r.' 5.lXU.2.5.gXuX;.i Y 4 ZXZXZXZXZXZXZXZX7 * 6 ~ ) ZXZXZXZXZXZX",
"ZXZXZXZXZXZXZXZXZXZXZXZXO ; m k 2 ZXZXZXZXZXZXZXZXZX7 > u w 5.W.<.p 5.xXJ.;.5.).(.2.i % 1 ZXZXZXZXZXZXZXZXZX2 2 * ZXZXZXZXZXZXZX",
"ZXZXZXZXZXZXZXZXZXZXZXZX* t m 0 * ZXZXZXZXZXZXZXZX2 | g.x.m.uX).^.H.H.G.G.H.G.`.(.u e : = ZXZXZXZXZXZXZXZXZXZXZXZXZXZXZXZXZXZXZX",
"ZXZXZXZXZXZXZXZXZXZXZXZX$ r C M : ZXZXZXZXZXZXZX2 2 @.c.>X:X<XI.Y.A.A.W.G.W.Q.I.Z.x c ~ ! Q ZXZXZXZXZXZXZXZXZXZXZXZXZXZXZXZXZXZX",
"ZXZXZXZXZXZXZXZXZXZXZXZX$ ` P.s.* ZXZXZXZXZXZXZX* + c.7XtXfXX.. ,.A.^.).).xXU.t c 8.z.4X3Xa 1 ZXZXZXZXZXZXZXZXZXZXZXZXZXZXZXZXZX",
"ZXZXZXZXZXZXZXZXZXZXZXZXO { ^.a.- ZXZXZXZXZXZXZX_ ~ c.7Xv.h./ O >.G.^.`.).`.L.- 6 g.l.2X,X| ) ( ZXZXZXZXZXZXZXZXZXZXZXZXZXZXZXZX",
"ZXZXZXZXZXZXZXZXZXZXZXZXO } xXK.- ZXZXZXZXZXZX2 8.z.%X-X^ O + + } F.J.`.`.`.P.; a z.b.B.;X;X-XY 4 ZXZXZXZXZXZXZXZXZXZXZXZXZXZXZX",
"ZXZXZXZXZXZXZXZXZXZXZXZX+ { /.a.- ZXZXZXZXZXJ F o.o..XXX( $ + , >.A.A.^./.`.I.: 5 / ) +.+.XX+XE E I ZXZXZXZXZXZXZXZXZXZXZXZXZXZX",
"ZXZXZXZXZXZXZXZXZXZXZXZXO Z L.a.O ZXZXZXZX4 J F D F E |.T , 5 , 3.D.F.D.Q.lXI.; = * 1 F L [.{.{.{.I * ZXZXZXZXZXZXZXZXZXZXZXZXZX",
"ZXZXZXZXZXZXZXZXZXZXZXZXZXZXN Z ZXZXZXZX2 2 4 3 4 4 D T ZXZXZXZXZXB z B B A ^ * 2 ZXZXH G J J J I 2 2 ZXZXZXZXZXZXZXZXZXZXZXZXZX",
"ZXZXZXZXZXZXZXZXZXZXZXZXZXZXZXZXZXZXZXZXZX+ , , 2 * 1 1 ZXZXZXZXZX@ O O   - & 1 ZXZXZXZX1 , , , , : , ZXZXZXZXZXZXZXZXZXZXZXZXZX",
"ZXZXZXZXZXZXZXZXZXZXZXZXZXZXZXZXZXZXZXZXZXZXZXZXZXZXZXZXZXZXZXZXZXZXZXZXZXZXZXZXZXZXZXZXZXZXZXZXZXZXZXZXZXZXZXZXZXZXZXZXZXZXZXZX"
};
