/* XPM */
static char *xpm_[] = {
/* columns rows colors chars-per-pixel */
"64 64 236 2 ",
"   c #332D1D",
".  c #342E16",
"X  c #3A3319",
"o  c #2F2E17",
"O  c #2D2C25",
"+  c #2D2D2C",
"@  c #2C2726",
"#  c #332C24",
"$  c #322D2C",
"%  c #392E29",
"&  c #3B2E24",
"*  c #2C302E",
"=  c #2F3026",
"-  c #333124",
";  c #3B3324",
":  c #35332B",
">  c #3B362B",
",  c #2D2E32",
"<  c #282E37",
"1  c #322D32",
"2  c #382A35",
"3  c #2B3133",
"4  c #2A333C",
"5  c #263339",
"6  c #393937",
"7  c #45381B",
"8  c #42310F",
"9  c #7A1C2E",
"0  c #7A1A31",
"q  c #443C24",
"w  c #4C3D2C",
"e  c #443A28",
"r  c #593F2A",
"t  c #4B2932",
"y  c #522931",
"u  c #71222B",
"i  c #682736",
"p  c #782D39",
"a  c #78361C",
"s  c #3F4336",
"d  c #5B4F1C",
"f  c #65561B",
"g  c #614E15",
"h  c #4C452A",
"j  c #53432E",
"k  c #5A412A",
"l  c #584A27",
"z  c #5C5229",
"x  c #48463A",
"c  c #554A36",
"v  c #5A5537",
"b  c #4D503D",
"n  c #665727",
"m  c #735C26",
"M  c #665836",
"N  c #6D4A2E",
"B  c #7C6A2A",
"V  c #766735",
"C  c #726938",
"Z  c #1B3655",
"A  c #1E374B",
"S  c #243244",
"D  c #283548",
"F  c #363946",
"G  c #263957",
"H  c #1B3764",
"J  c #5B3945",
"K  c #3D4249",
"L  c #2A4054",
"P  c #36485A",
"I  c #374955",
"U  c #324767",
"Y  c #2A4A76",
"T  c #395478",
"R  c #324D70",
"E  c #494846",
"W  c #524E45",
"Q  c #4C5248",
"!  c #535343",
"~  c #5B5B4C",
"^  c #58564A",
"/  c #4D5A5D",
"(  c #595B54",
")  c #4A4C55",
"_  c #645C47",
"`  c #665B52",
"'  c #5B655C",
"]  c #5E614D",
"[  c #65634A",
"{  c #756746",
"}  c #777249",
"|  c #6C6B5A",
" . c #676655",
".. c #756E56",
"X. c #787557",
"o. c #465A6A",
"O. c #475172",
"+. c #576469",
"@. c #586C7B",
"#. c #5D7075",
"$. c #676B67",
"%. c #7A7868",
"&. c #6A6975",
"*. c #6B7673",
"=. c #757C77",
"-. c #6F7174",
";. c #881D35",
":. c #972A3B",
">. c #8C2F3B",
",. c #A2283D",
"<. c #934D30",
"1. c #89732A",
"2. c #887034",
"3. c #8F2F42",
"4. c #935845",
"5. c #877947",
"6. c #857A53",
"7. c #917D46",
"8. c #817D6B",
"9. c #827B72",
"0. c #70835B",
"q. c #7E8476",
"w. c #54875B",
"e. c #9A853C",
"r. c #AB933F",
"t. c #988446",
"y. c #9A8C59",
"u. c #8D824E",
"i. c #A38E49",
"p. c #AA964A",
"a. c #AB9856",
"s. c #B69950",
"d. c #B6A658",
"f. c #88866B",
"g. c #938A6A",
"h. c #8B8973",
"j. c #898777",
"k. c #938A75",
"l. c #999779",
"z. c #97916A",
"x. c #A69C7B",
"c. c #AC9768",
"v. c #B6A669",
"b. c #A4A17D",
"n. c #ACA478",
"m. c #B5A976",
"M. c #BAB378",
"N. c #97A35E",
"B. c #C4AA59",
"V. c #CBB559",
"C. c #D4BA54",
"Z. c #DBBC54",
"A. c #D7B959",
"S. c #D7B051",
"D. c #C5AD69",
"F. c #CAB667",
"G. c #D5BC66",
"H. c #CBB876",
"J. c #D2BB77",
"K. c #C0AB72",
"L. c #D4AA5C",
"P. c #B3CB78",
"I. c #DCC25A",
"U. c #E5C75B",
"Y. c #D8C267",
"T. c #D8C679",
"R. c #CAC270",
"E. c #E7CA6C",
"W. c #E7C978",
"Q. c #FBDE7B",
"!. c #F4D975",
"~. c #EFD376",
"^. c #FCE27C",
"/. c #FBE277",
"(. c #37598A",
"). c #335C96",
"_. c #2A4C81",
"`. c #3D6591",
"'. c #3D6AAF",
"]. c #56728F",
"[. c #6E788C",
"{. c #426AA5",
"}. c #827788",
"|. c #77868B",
" X c #7086A3",
".X c #7CECBA",
"XX c #6EF1D1",
"oX c #868C85",
"OX c #9D9C85",
"+X c #8C8999",
"@X c #A59D82",
"#X c #B9988B",
"$X c #99A289",
"%X c #A5A383",
"&X c #A9A582",
"*X c #A9A888",
"=X c #B1AD8B",
"-X c #B3AC85",
";X c #B4B38C",
":X c #B9B48D",
">X c #B8B88D",
",X c #BEBB95",
"<X c #BDBC9A",
"1X c #B8B594",
"2X c #ABAB93",
"3X c #9694A5",
"4X c #95A5A9",
"5X c #8FA5B2",
"6X c #B7BAA8",
"7X c #ADA9B5",
"8X c #C1BC96",
"9X c #C1BD9B",
"0X c #C8B492",
"qX c #D3BB87",
"wX c #C2BDB3",
"eX c #AFC88A",
"rX c #BEC6A7",
"tX c #8FEBB4",
"yX c #A0E1A1",
"uX c #D7C88B",
"iX c #D1CA8F",
"pX c #E4CA89",
"aX c #E8D786",
"sX c #F5DB87",
"dX c #E9D696",
"fX c #F6DC93",
"gX c #FDE282",
"hX c #FBE38A",
"jX c #E9E796",
"kX c #FAE595",
"lX c #CFC6A4",
"zX c #BAB9CC",
"xX c #B1B2CA",
"cX c #C3BAC9",
"vX c #93EDC3",
"bX c None",
/* pixels */
"bXbXbXbXbXbXbXbXbXbXbXbXbXbXbXbXbXbXbXbXbXbXbXbXbXbXbXbXbXbXbXbXbXbXbXbXbXbXbXbXbXbXbXbXbXbXbXbXbXbXbXbXbXbXbXbXbXbXbXbXbXbXbXbX",
"bXbXbXbXbXbXbXbXbXbXbXbXbXbXbXbXbXbXbXbXbXbXbXbXbXbXbXbXbXbXbXbXbXbXbXbXbXbXbXbXbXbXbXbXbXbXbXbXbXbXbXbXbXbXbXbXbXbXbXbXbXbXbXbX",
"bXbXbXbXbXbXbXbXe bXbXbXbXbXbXbXbXbXbXbXbXbXbXbXbXbXbXbXbXbXbXbXbXbXbXbXbXbXbXbXbXbXbXbXbXbXbXbXbXbXbXbXbXbXbXbXbXbXbXbXbXbXbXbX",
"bXbXbXbXbXbXbXM qX-Xe bXbXbXbXbXbXbXbXbXbXbXbXbXbXbXbXbXbXbXbXbXbXbXbXbXbXbXbXbXbXbXbXbXbXbXbXbXbXbXbXbXbXbXbXbXbXbXbXbXbXbXbXbX",
"bXbXbXbXbXbXh V fXT.d h bXbXbXbXbXbXbXbXbXbXbXbXbXbXbXbXbXbXbXbXbXbXbXbXbXbXbXbXbXbXbXbXbXbXbXbXbXbXbXbXbXbXbXbXbXbXbXbXbXbXbXbX",
"bXbXbXbXbX_ v.G.Q.~.B.c.q bXbXbXbXbXbXbXbXbXbXbXbXbXbXbXbXbXbXbXbXbXbXbXbXbX$ 1 bXbXbXbXbXbXbXbXbXbXbXbXbXbXbXbXbXbXbXbXbXbXbXbX",
"bXbXbXbX# M V.I.Q.!.A.D.q * bXbXbXbXbXbXbXbXbXbXbXbXbXbXbXbXbXbXbXbXbXbXbXt t t y bXbXbXbXbXbXbXbXbXbXbXbXbXbXbXbXbXbXbXbXbXbXbX",
"bXbXbXbX@ n A.I./.!.Z.B.7 O bXbXbXbXbXbXbXbXbXbXbXbXbXbXbXbXbX+ , + O O t y u >.p t $ + @ bXbXbXbXbXbXbXbXbXbXbXbXbXbXbXbXbXbXbX",
"bXbXbXbX6.5.t.s.sXW.e.t.} X.j bXbXbXbXbXbXbXbXbXbXbXbXbXbX4 b Q ^ $.` t y p ;.,.:.i y _ | Q bXbXbXbXbXbXbXbXbXbXbXbXbXbXbXbXbXbX",
"bXbX# 5.kXm.o M sXT.X h aXdXj , bXbXbXbXbXbXbXbXbXbXbX, 3 * Q q.OX6X#Xi 9 :.,.,.,.:.3.#XrX' 3 3 5 bXbXbXbXbXbXbXbXbXbXbXbXbXbXbX",
"bXbX+ } kXv.. n fXT.- h pXaXj + bXbXbXbXbXbXbXbXbXbXS S L R T ].].[.[.i 9 :.3.;.;.,.3.}. XT Y Y T U bXbXbXbXbXbXbXbXbXbXbXbXbXbX",
"bXbX* X.kXv.. M fXT.7 l pXaXh + bXbXbXbXbXbXbXbXbX1 S Z U ).).).).(.O.i 9 :.:.9 ;.;.3.&.(.'.'.'.{.U 4 bXbXbXbXbXbXbXbXbXbXbXbXbX",
"bXbXbXbX{ 5.M.H.sXsXD.m.{ { bXbXbXbXbXbXbXbXbXbX+ O Q *.|.4X4X4X$X$Xy.u ;.;.0 9 0 ;.:.n.9X4X5X5X5X+.+ bXbXbXbXbXbXbXbXbXbXbXbXbX",
"bXbXbXbXbX{ dXaXQ.sXaXiXh bXbXbXbXbXbXbXbXbXbX6 6 : ~ f.l.>X1X6X,XG.s.>.9 i 9 9 9 >.,.W.kXuX1X6X6X#.+ bXbXbXbXbXbXbXbXbXbXbXbXbX",
"bXbXbXbXbXbXr V G.B.l c bXbXbXbXbXbXbXbXbX$  .9.9.=...M M C ' @.=.H.Z.E.J.N k r N s.L.~.sXt._ &.].P * bXbXbXbXbXbXbXbXbXbXbXbXbX",
"bXbXbXbXbXbXl B G.B.n v bXbXbXbXbXbXbXbXbX$ ' =.=.q.[ z m B ] T $.v.B.T.F.2.B 1.1.s.s.Y.W.e.C +.].Y G D bXbXbXbXbXbXbXbXbXbXbXbX",
"bXbXbXbX@ { dXaXgXsXfXuXw # bXbXbXbXbXbXbX3 S D L A s z i.jXv.v v z f f B d.V.~.~.B f n n F.sXu.Q o.(.U 4 bXbXbXbXbXbXbXbXbXbXbX",
"bXbXbXbX# v m.m.>X-Xm.c.e , bXbXbXbXbXbXbX, K o.P T ! z e.!.C.1.1.1.1.f m V.I./.!.B f B 2.Y.hXi.l +.[.o.< bXbXbXbXbXbXbXbXbXbXbX",
"bXbXbXbX$ - = F (.T 3 # $ 3 bXbXbXbXbXbXbX3 $.oXj.j...g 2.Z.C.C.I.C.s.f f C.I./.aXV f s.C.~.hXt.d g.rX*.+ bXbXbXbXbXbXbXbXbXbXbX",
"bXbXbXbXbXbX3 D Y R S 1 bXbXbXbXbXbXbXbX4 S P ' | } 2.t.e.e.r.C.Z.E.I.s.p.e.e.p.d.e.e.A.E.B.s.p.p.y.y._ + bXbXbXbXbXbXbXbXbXbXbX",
"bXbXbXbXbXbX3 S H Z 3 : bXbXbXbXbXbXbX, S A Z S s z e.R.i.g 1.C.I.jXjXjXR.f f f f d.V.T.jX2.g B.kXi.l h O bXbXbXbXbXbXbXbXbXbXbX",
"bXbXbXbXbXbX3 D Y Y 5 3 bXbXbXbXbXbXbX* / #.#.$._ n 2.I.r.g 1.V.P.yXvXtXyXN.p.V.M.yXtXXXtX0.d s.T.e.d h = bXbXbXbXbXbXbXbXbXbXbX",
"bXbXbXbXbXbXbXF (.T D 3 bXbXbXbXbXbXbX* $.|.oXj...c 5.G.r.d 1.A.P..XXXXX.XR.I./.jXtXXXXXXXw.d i.F.u.v s - bXbXbXbXbXbXbXbXbXbXbX",
"bXbXbXbXbXbXbXbXD G S S 3 bXbXbXbXbXbX3 K P P P L 4 b V m d 1.C.P.P.P.eXP.V.I./.jXP.P.P.eX} n m C ] T I , bXbXbXbXbXbXbXbXbXbXbX",
"bXbXbXbXbXbXbXbX, S H G 4 1 bXbXbXbXbX3 D L L L L L E M z l C D.F.v.D.V.D.J.J.dXdXG.D.L.H.{ l n v o.].P 4 bXbXbXbXbXbXbXbXbXbXbX",
"bXbXbXbXbXbXbXbX1 G (.(.D , bXbXbXbXbX: | |.q.q.j.|.f.h. .- ! h.k.z.h.f.k.6XwXcXcXOX9.9.k.c #  .f.OX6X%.+ bXbXbXbXbXbXbXbXbXbXbX",
"bXbXbXbXbXbXbXbXO F O.R 4 : bXbXbXbXbX1 ' *.*.*.*.*.*.*.o.< K &.-.}.+X+X3X3X3X3X3X}.+X[.&.K < / *.oX4X].G bXbXbXbXbXbXbXbXbXbXbX",
"bXbXbXbXbXbXbXbX+ % E w - + bXbXbXbXbX3 5 A Z Z G G Z Z G G D , E [.+XzX7XF 3 3 F 7XcX) < D H Z H Y (.).(.U 4 bXbXbXbXbXbXbXbXbX",
"bXbXbXbXbXbXbXbX+ % r r 7 $ bXbXbXbXbX3 ) / +.#.P S A S A D 5 + E oX+XzXxX&.&.&.[.xXxX) 3 4 D S A T ]. X X+., bXbXbXbXbXbXbXbXbX",
"bXbXbXbXbXbXbXbX1 ; r r % 1 bXbXbXbXbX* -.j.2XlXX.O = + + +   O K [.+XxXzXcXcXcXcXcXzX) @ + , + * $.q.$XrXf.O bXbXbXbXbXbXbXbXbX",
"bXbXbXbXbXbXbXbX$ ; r r % + bXbXbXbXbX1 E ^ `  .6.t.5.7.7.t.5.u.5.W ( &.-.0X0XlXlX9.$.u.6.h + : = s ^ ] | bXbXbXbXbXbXbXbXbXbXbX",
"bXbXbXbXbXbXbXbX, ; k r % 1 bXbXbXbXbX3 - X   . 5.Z.C.Z.C.C.C.I.p.8   @ w D.I.Q.aXl . a.R.n ; % : = * = + bXbXbXbXbXbXbXbXbXbXbX",
"bXbXbXbXbXbXbXbX$ % k r % 1 bXbXbXbXbXo } p.p.p.G.!.~.!.!.!.~.!.J.s.u.X h V.Z.Q.dXc X D.!.J.H.D.H.{ + 1 1 bXbXbXbXbXbXbXbXbXbXbX",
"bXbXbXbXbXbXbXbX, ; k k % , bXbXbXbXbX  i.I.V.B.E.sXQ.^.Q.^./.^.!.A.d.X w c.K.iXiXb ; H.gX^.gX^.hXu.q e h bXbXbXbXbXbXbXbXbXbXbX",
"bXbXbXbXbXbXbXbX$ ; k r % + bXbXbXbXbX# i.G.2.7 a.hXhXgX/.^.gX^./.Q.H.X : K I @.@.F X H.hXhX^.^.gXaXT.T.T.z.  bXbXbXbXbXbXbXbXbX",
"bXbXbXbXbXbXbXbX1 ; k r % , bXbXbXbXbXbXy.v.C > f.J.J.J.J.J.J.G.T.hXT.n b 4 H Y T Q v v.J.J.T.H.J.T.R.~.sXa.  bXbXbXbXbXbXbXbXbX",
"bXbXbXbXbXbXbXbX, ; k r % + bXbXbXbXbXbXbXX  .h.~ ; ; X > ; ; X M fXhXfXiXs * 5 > iXdXn X ; ; ; ; ; X 5.Y.t.  bXbXbXbXbXbXbXbXbX",
"bXbXbXbXbXbXbXbXbXbXw w e > bXbXbXbXbXbXbX^ f.OXX.! ] ] ] ` [ ~ } n.v.v.N.; + + ; z.n...] ] ] [ ' s O M y.} bXbXbXbXbXbXbXbXbXbX",
"bXbXbXbXbXbXbXbXbXbX% & k j % 3 E bXbXX f.$X=XlX=X%X;X<XeX9X<XlXl.. o # O = * * O # - l.rX,X<X<X9X| = $ # bXbXbXbXbXbXbXbXbXbXbX",
"bXbXbXbXbXbXbXbXbXbX$ % k k ; $ 6 6 } } f.l.b.=Xf. .f.%X&X=X=X2Xb.|  .| | |  . .| | | b.=X=X;X*X1X .O b | ` bXbXbXbXbXbXbXbXbXbX",
"bXbXbXbXbXbXbXbXbXbX3 $ j j ; $ $ X p.G.a.g.l.$X .# ^ f.z.@Xx.x.b.%X%X%X@X&X&X@Xb.b.b.b.x.@X%Xb.$X .*  .*XX.. bXbXbXbXbXbXbXbXbX",
"bXbXbXbXbXbXbXbXbXbX$ : e e % ; 6.i.G.!.W.T.n.z.( O ` @X&X:X:X:X;X>X:X:X:X:X:X1X>X:X:X:X>X1X1XX.b $.%.l.:XM.m.z.- bXbXbXbXbXbXbX",
"bXbXbXbXbXbXbXbXbXbX> 6 : 6 ; q c.F.~.^.^.hXm.f.( @  .OX*X9X8X8XiX<X,X>XeX9X9X9X8X,X,X8X,X1X<X~   ..m.M.qXuXkXv.- 1 bXbXbXbXbXbX",
"bXbXbXbXbXbXbXbXbXx %.%.OX$X*Xx.M l F.gXgXkX6.h bXbXbXx | *X&X*X%Xn.*Xn.&X&X&X&Xn.&X*X&X*X[ x 6   5.F.F.V.E.hXv.  : bXbXbXbXbXbX",
"bXbXbXbXbXbXbXbX+ 6 j.l.:X,X<X1Xb   D.gXW.uX6.bXbXbXbXO ~ @X%X%X%X%X&X&X&X%X&Xb.&X&X%Xl.h.! + 1 % } d.V.C.U./.d.j c bXbXbXbXbXbX",
"bXbXbXbXbXbXbXbX+ s f.h.@X%X%XOXx - H.kX} 7 bXbXbXbXbX+ ~ %X=X,X,X,X,X8X,X8X,X,X9X<X<X^ : bXbXbXbXx q 2.C.C.C.I.aXm.& bXbXbXbXbX",
"bXbXbXbXbXbXbXbX= s q.g.*Xn.*X%Xx # z.M.{ bXbXbXbXbXbXbX( 8.k.;X=X>X>X:X:X>X>X1X1Xx.l.Q bXbXbXbXbXF # 2.C.C.C.I.aXM.^ ~ bXbXbXbX",
"bXbXbXbXbXbXbXbX= s f.l.1XlX<X,Xb O % ; bXbXbXbXbXbXbXbXbX- x j.k.b.x.b.@Xb.x.x.l.h + bXbXbXbXbXbX6 = C G.C.V.F.qXiX<XOX6 bXbXbX",
"bXbXbXbXbXbXbXbXbXbX . .%.8.8.%.6 : bXbXbXbXbXbXbXbXbXbXbX+ W OXl.=X=X=X-X-X-X-X*Xx $ bXbXbXbXbXbXQ ^ 6.v.d.v.v.n.=X<X%X: bXbXbX",
"bXbXbXbXbXbXbXbXbXbX$ % $ # $ $ 1 , bXbXbXbXbXbXbXbXbXbXbX+ ! %X*X8X9X0X9X9X9X9X1Xx 1 bXbXbXbXbX1  .k.k.f.g.g.f.f.l.,X%X: bXbXbX",
"bXbXbXbXbXbXbXbXbXbX1 % w e % + bXbXbXbXbXbXbXbXbXbXbXbXbXO W x.x.&X-X-X=X=X#X-X&Xx 1 bXbXbXbXbXbXW ! | h.j.f.l.n.=X,XOX: bXbXbX",
"bXbXbXbXbXbXbXbXbXbXbX% j h ; & bXbXbXbXbXbXbXbXbXbXbXbXbXt c 9.z.x.x.n.x.x.#Xc.x.h % E bXbXbXbXbXbX+ ( j.j.j.OXrX,X<XOX: bXbXbX",
"bXbXbXbXbXbXbXbXbXbXbXbX> % w w > bXbXbXbXbXbXbXbXbXbX$ t y { D.c.>.4.uXqX4.4.pXpX>.p t 2 bXbXbXbXbXbXE x x x x W ! ! ~ bXbXbXbX",
"bXbXbXbXbXbXbXbXbXbXbXbX, % j k ; 1 bXbXbXbXbXbXbXbX6 > y i <.G.s.a <.!.W.<.<.~.fX4.p t 1 bXbXbXbXbXbXbX, + + + O + + bXbXbXbXbX",
"bXbXbXbXbXbXbXbXbXbXbXbX1 % r r & 1 bXbXbXbXbXbXbX, ^ q.k.x.K.sX~.B.L.Z.Z.L.S.Q.aXN : : O bXbXbXbXbXbXbXbXbXbXbXbXbXbXbXbXbXbXbX",
"bXbXbXbXbXbXbXbXbXbXbXbX* e N m e 1 bXbXbXbXbXbXbX+ ~ l.x.*Xm.H.G.C.C.Z.Z.I.G.J.M.v x Q W E bXbXbXbXbXbXbXbXbXbXbXbXbXbXbXbXbXbX",
"bXbXbXbXbXbXbXbXbXbXbXbX* > v.D.j + bXbXbXbXbXbXbXO ..rX<XlXz.X N S.U.Q.Q.Q.pXl > %.h.;X<X^ @ bXbXbXbXbXbXbXbXbXbXbXbXbXbXbXbXbX",
"bXbXbXbXbXbXbXbXbXbXbXbX+ q F.G.l O bXbXbXbXbXbXQ ! 0.;X@Xk.| O z V.Z.Q.Q.Q.pXh : %.k.*X;XX.` E bXbXbXbXbXbXbXbXbXbXbXbXbXbXbXbX",
"bXbXbXbXbXbXbXbXbXbXbXbX$ e W.aXv O bXbXbXbXbX+ ' oXl.$X%.  + $ n F.Z.Q.sX/.aXh : %.h.OX%X%X2X( , bXbXbXbXbXbXbXbXbXbXbXbXbXbXbX",
"bXbXbXbXbXbXbXbXbXbXbXbXO q F.T.l # bXbXbXbXbXD ) o.].[.o.+ , $ z V.Z.U.E./.pXh : ! ~ ' @.].].(.R G bXbXbXbXbXbXbXbXbXbXbXbXbXbX",
"bXbXbXbXbXbXbXbXbXbXbXbXbXq v.M.c @ bXbXbX4 S G Z Z Y (.U 5 * + M F.S.V.G.sXpXh + * , S Z Y ).).(.U < bXbXbXbXbXbXbXbXbXbXbXbXbX",
"bXbXbXbXbXbXbXbXbXbXbXbXbXbXM M bXbXbXbXbX, < 5 S S G G bXbXbXbXbX_ n M M V [ > , bXbXbXA G G L G F , bXbXbXbXbXbXbXbXbXbXbXbXbX",
"bXbXbXbXbXbXbXbXbXbXbXbXbXbXbXbXbXbXbXbXbX, + 3 < 1 1 , bXbXbXbXbXbXO $ @     + bXbXbXbX3 * , 3 3 + + bXbXbXbXbXbXbXbXbXbXbXbXbX",
"bXbXbXbXbXbXbXbXbXbXbXbXbXbXbXbXbXbXbXbXbXbXbXbXbXbXbXbXbXbXbXbXbXbXbXbXbXbXbXbXbXbXbXbXbXbXbXbXbXbXbXbXbXbXbXbXbXbXbXbXbXbXbXbX"
};
